<?xml version="1.0" encoding="utf-8"?>
<!-- Generator: Adobe Illustrator 22.0.1, SVG Export Plug-In . SVG Version: 6.00 Build 0)  -->
<svg version="1.1" id="Layer_1" xmlns="http://www.w3.org/2000/svg" xmlns:xlink="http://www.w3.org/1999/xlink" x="0px" y="0px"
	 width="3040px" height="1195px" viewBox="0 0 3040 1195" style="enable-background:new 0 0 3040 1195;" xml:space="preserve">
<style type="text/css">
	.st0{fill:#E6E6E6;}
	.st1{fill:none;stroke:#4C4C4C;stroke-width:3;stroke-miterlimit:10;}
	.st2{fill:#4C4C4C;}
	.st3{fill:#FFFFFF;}
	.st4{fill:#EC7A08;}
</style>
<rect class="st0" width="3040" height="1195"/>
<g>
	<g>
		<polyline class="st1" points="2409,773.5 2409,715 2239,715 2238.5,580 2238.5,715 1229,715 1229,773.5 		"/>
		<g>
			<polygon class="st2" points="2424,769.1 2409,795 2394,769.1 			"/>
		</g>
		<g>
			<polygon class="st2" points="1214,769.1 1229,795 1244,769.1 			"/>
		</g>
	</g>
</g>
<rect x="151" y="159" class="st3" width="410" height="122"/>
<rect x="151" y="458" class="st4" width="1304" height="122"/>
<rect x="1586.5" y="458" class="st4" width="1304" height="122"/>
<rect x="598" y="159" class="st3" width="410" height="122"/>
<rect x="1810" y="159" class="st3" width="410" height="122"/>
<rect x="2257" y="159" class="st3" width="410" height="122"/>
<rect x="1045" y="159" class="st3" width="410" height="122"/>
<g>
	<path class="st3" d="M638.6,819.6c-56,0-90.4,10-90.4,17.1v56.8c0,7.1,34.4,17.1,90.4,17.1c56,0,90.4-10,90.4-17.1v-56.8
		C729,829.5,694.6,819.6,638.6,819.6z M586.9,854.2c-0.1,0-0.1,0-0.2,0c-10.2-1.4-18.9-3.3-25.7-5.4c-0.7-0.2-1-0.9-0.8-1.6
		c0.2-0.7,0.9-1,1.6-0.8c6.7,2.1,15.3,3.9,25.3,5.3c0.7,0.1,1.1,0.7,1.1,1.4C588,853.7,587.5,854.2,586.9,854.2z M717.5,849
		c-17.4,5.7-46.8,9.1-78.9,9.1c-10.4,0-20.6-0.4-30.3-1.1c-1-0.1-1.8-1-1.7-2c0.1-1,1-1.8,2-1.7c9.6,0.7,19.7,1,30,1
		c31.7,0,60.7-3.3,77.7-8.9c1-0.3,2,0.2,2.3,1.2C719,847.6,718.4,848.7,717.5,849z"/>
	<path class="st2" d="M587,851.7c-10.1-1.4-18.6-3.2-25.3-5.3c-0.7-0.2-1.4,0.2-1.6,0.8c-0.2,0.7,0.2,1.4,0.8,1.6
		c6.9,2.2,15.5,4,25.7,5.4c0.1,0,0.1,0,0.2,0c0.6,0,1.1-0.4,1.2-1.1C588.2,852.4,587.7,851.8,587,851.7z"/>
	<path class="st2" d="M716.3,845.5c-17,5.6-46.1,8.9-77.7,8.9c-10.3,0-20.4-0.4-30-1c-1-0.1-1.9,0.7-2,1.7c-0.1,1,0.7,1.9,1.7,2
		c9.7,0.7,19.9,1.1,30.3,1.1c32,0,61.5-3.4,78.9-9.1c1-0.3,1.5-1.4,1.2-2.3C718.3,845.7,717.3,845.1,716.3,845.5z"/>
	<path class="st2" d="M638.6,814.6c-47.4,0-95.4,7.6-95.4,22v56.8c0,14.5,48,22,95.4,22c47.4,0,95.4-7.6,95.4-22v-56.8
		C734,822.2,686,814.6,638.6,814.6z M729,893.5c0,7.1-34.4,17.1-90.4,17.1c-56,0-90.4-10-90.4-17.1v-56.8c0-7.1,34.4-17.1,90.4-17.1
		c56,0,90.4,10,90.4,17.1V893.5z"/>
</g>
<g>
	<path class="st3" d="M1228.6,819.6c-56,0-90.4,10-90.4,17.1v56.8c0,7.1,34.4,17.1,90.4,17.1c56,0,90.4-10,90.4-17.1v-56.8
		C1319,829.5,1284.6,819.6,1228.6,819.6z M1176.9,854.2c-0.1,0-0.1,0-0.2,0c-10.2-1.4-18.9-3.3-25.7-5.4c-0.7-0.2-1-0.9-0.8-1.6
		c0.2-0.7,0.9-1,1.6-0.8c6.7,2.1,15.3,3.9,25.3,5.3c0.7,0.1,1.1,0.7,1.1,1.4C1178,853.7,1177.5,854.2,1176.9,854.2z M1307.5,849
		c-17.4,5.7-46.8,9.1-78.9,9.1c-10.4,0-20.6-0.4-30.3-1.1c-1-0.1-1.8-1-1.7-2c0.1-1,1-1.8,2-1.7c9.6,0.7,19.7,1,30,1
		c31.7,0,60.7-3.3,77.7-8.9c1-0.3,2,0.2,2.3,1.2C1309,847.6,1308.4,848.7,1307.5,849z"/>
	<path class="st2" d="M1177,851.7c-10.1-1.4-18.6-3.2-25.3-5.3c-0.7-0.2-1.4,0.2-1.6,0.8c-0.2,0.7,0.2,1.4,0.8,1.6
		c6.9,2.2,15.5,4,25.7,5.4c0.1,0,0.1,0,0.2,0c0.6,0,1.1-0.4,1.2-1.1C1178.2,852.4,1177.7,851.8,1177,851.7z"/>
	<path class="st2" d="M1306.3,845.5c-17,5.6-46.1,8.9-77.7,8.9c-10.3,0-20.4-0.4-30-1c-1-0.1-1.9,0.7-2,1.7c-0.1,1,0.7,1.9,1.7,2
		c9.7,0.7,19.9,1.1,30.3,1.1c32,0,61.5-3.4,78.9-9.1c1-0.3,1.5-1.4,1.2-2.3C1308.3,845.7,1307.3,845.1,1306.3,845.5z"/>
	<path class="st2" d="M1228.6,814.6c-47.4,0-95.4,7.6-95.4,22v56.8c0,14.5,48,22,95.4,22c47.4,0,95.4-7.6,95.4-22v-56.8
		C1324,822.2,1276,814.6,1228.6,814.6z M1319,893.5c0,7.1-34.4,17.1-90.4,17.1c-56,0-90.4-10-90.4-17.1v-56.8
		c0-7.1,34.4-17.1,90.4-17.1c56,0,90.4,10,90.4,17.1V893.5z"/>
</g>
<g>
	<path class="st3" d="M1818.6,819.6c-56,0-90.4,10-90.4,17.1v56.8c0,7.1,34.4,17.1,90.4,17.1c56,0,90.4-10,90.4-17.1v-56.8
		C1909,829.5,1874.6,819.6,1818.6,819.6z M1766.9,854.2c-0.1,0-0.1,0-0.2,0c-10.2-1.4-18.9-3.3-25.7-5.4c-0.7-0.2-1-0.9-0.8-1.6
		c0.2-0.7,0.9-1,1.6-0.8c6.7,2.1,15.3,3.9,25.3,5.3c0.7,0.1,1.1,0.7,1.1,1.4C1768,853.7,1767.5,854.2,1766.9,854.2z M1897.5,849
		c-17.4,5.7-46.8,9.1-78.9,9.1c-10.4,0-20.6-0.4-30.3-1.1c-1-0.1-1.8-1-1.7-2c0.1-1,1-1.8,2-1.7c9.6,0.7,19.7,1,30,1
		c31.7,0,60.7-3.3,77.7-8.9c1-0.3,2,0.2,2.3,1.2C1899,847.6,1898.4,848.7,1897.5,849z"/>
	<path class="st2" d="M1767,851.7c-10.1-1.4-18.6-3.2-25.3-5.3c-0.7-0.2-1.4,0.2-1.6,0.8c-0.2,0.7,0.2,1.4,0.8,1.6
		c6.9,2.2,15.5,4,25.7,5.4c0.1,0,0.1,0,0.2,0c0.6,0,1.1-0.4,1.2-1.1C1768.2,852.4,1767.7,851.8,1767,851.7z"/>
	<path class="st2" d="M1896.3,845.5c-17,5.6-46.1,8.9-77.7,8.9c-10.3,0-20.4-0.4-30-1c-1-0.1-1.9,0.7-2,1.7c-0.1,1,0.7,1.9,1.7,2
		c9.7,0.7,19.9,1.1,30.3,1.1c32,0,61.5-3.4,78.9-9.1c1-0.3,1.5-1.4,1.2-2.3C1898.3,845.7,1897.3,845.1,1896.3,845.5z"/>
	<path class="st2" d="M1818.6,814.6c-47.4,0-95.4,7.6-95.4,22v56.8c0,14.5,48,22,95.4,22c47.4,0,95.4-7.6,95.4-22v-56.8
		C1914,822.2,1866,814.6,1818.6,814.6z M1909,893.5c0,7.1-34.4,17.1-90.4,17.1c-56,0-90.4-10-90.4-17.1v-56.8
		c0-7.1,34.4-17.1,90.4-17.1c56,0,90.4,10,90.4,17.1V893.5z"/>
</g>
<g>
	<path class="st3" d="M2408.6,819.6c-56,0-90.4,10-90.4,17.1v56.8c0,7.1,34.4,17.1,90.4,17.1c56,0,90.4-10,90.4-17.1v-56.8
		C2499,829.5,2464.6,819.6,2408.6,819.6z M2356.9,854.2c-0.1,0-0.1,0-0.2,0c-10.2-1.4-18.9-3.3-25.7-5.4c-0.7-0.2-1-0.9-0.8-1.6
		c0.2-0.7,0.9-1,1.6-0.8c6.7,2.1,15.3,3.9,25.3,5.3c0.7,0.1,1.1,0.7,1.1,1.4C2358,853.7,2357.5,854.2,2356.9,854.2z M2487.5,849
		c-17.4,5.7-46.8,9.1-78.9,9.1c-10.4,0-20.6-0.4-30.3-1.1c-1-0.1-1.8-1-1.7-2c0.1-1,1-1.8,2-1.7c9.6,0.7,19.7,1,30,1
		c31.7,0,60.7-3.3,77.7-8.9c1-0.3,2,0.2,2.3,1.2C2489,847.6,2488.4,848.7,2487.5,849z"/>
	<path class="st2" d="M2357,851.7c-10.1-1.4-18.6-3.2-25.3-5.3c-0.7-0.2-1.4,0.2-1.6,0.8c-0.2,0.7,0.2,1.4,0.8,1.6
		c6.9,2.2,15.5,4,25.7,5.4c0.1,0,0.1,0,0.2,0c0.6,0,1.1-0.4,1.2-1.1C2358.2,852.4,2357.7,851.8,2357,851.7z"/>
	<path class="st2" d="M2486.3,845.5c-17,5.6-46.1,8.9-77.7,8.9c-10.3,0-20.4-0.4-30-1c-1-0.1-1.9,0.7-2,1.7c-0.1,1,0.7,1.9,1.7,2
		c9.7,0.7,19.9,1.1,30.3,1.1c32,0,61.5-3.4,78.9-9.1c1-0.3,1.5-1.4,1.2-2.3C2488.3,845.7,2487.3,845.1,2486.3,845.5z"/>
	<path class="st2" d="M2408.6,814.6c-47.4,0-95.4,7.6-95.4,22v56.8c0,14.5,48,22,95.4,22c47.4,0,95.4-7.6,95.4-22v-56.8
		C2504,822.2,2456,814.6,2408.6,814.6z M2499,893.5c0,7.1-34.4,17.1-90.4,17.1c-56,0-90.4-10-90.4-17.1v-56.8
		c0-7.1,34.4-17.1,90.4-17.1c56,0,90.4,10,90.4,17.1V893.5z"/>
</g>
<g>
	<g>
		<polyline class="st1" points="803,580 803,656.1 639,656.1 639,773.5 		"/>
		<g>
			<polygon class="st2" points="624,769.1 639,795 654,769.1 			"/>
		</g>
	</g>
</g>
<g>
	<g>
		<polyline class="st1" points="356,281 356,369 803,369 803,425.5 		"/>
		<g>
			<polygon class="st2" points="788,421.1 803,447 818,421.1 			"/>
		</g>
	</g>
</g>
<g>
	<g>
		<polyline class="st1" points="1250,281 1250,369 803,369 803,425.5 		"/>
		<g>
			<polygon class="st2" points="788,421.1 803,447 818,421.1 			"/>
		</g>
	</g>
</g>
<g>
	<g>
		<polyline class="st1" points="2481,281 2481,369 2239,369 2239,425.5 		"/>
		<g>
			<polygon class="st2" points="2224,421.1 2239,447 2254,421.1 			"/>
		</g>
	</g>
</g>
<g>
	<g>
		<polyline class="st1" points="2015,281 2015,369 2239,369 2239,425.5 		"/>
		<g>
			<polygon class="st2" points="2224,421.1 2239,447 2254,421.1 			"/>
		</g>
	</g>
</g>
<g>
	<g>
		<line class="st1" x1="803" y1="281" x2="803" y2="425.5"/>
		<g>
			<polygon class="st2" points="788,421.1 803,447 818,421.1 			"/>
		</g>
	</g>
</g>
<rect x="1810" y="709" class="st0" width="18" height="16"/>
<g>
	<g>
		<polyline class="st1" points="803.5,581 803.5,656.5 1819,656.5 1819,779 		"/>
		<g>
			<polygon class="st2" points="1804,774.6 1819,800.5 1834,774.6 			"/>
		</g>
	</g>
</g>
<g>
	<path class="st2" d="M261.1,236.7c-9.2,0-15.1-7.6-15.1-18.4c0-10.8,5.9-18.4,15.1-18.4c9.3,0,15.1,7.6,15.1,18.4
		C276.3,229.1,270.4,236.7,261.1,236.7z M261.1,205.2c-6.2,0-9.6,5-9.6,13.1c0,8,3.4,13.1,9.6,13.1c6.3,0,9.7-5,9.7-13.1
		C270.8,210.2,267.4,205.2,261.1,205.2z"/>
	<path class="st2" d="M298,236.1h-14.2v-35.7h14.7c6.2,0,10.2,3.3,10.2,9.3c0,3.6-1.9,5.9-4.5,7.1c2.8,0.8,6,3.4,6,8.3
		C310.3,232.4,305.8,236.1,298,236.1z M298.5,205.3h-9.6v9.2h9.6c3.5,0,4.9-2.2,4.9-4.5C303.4,207.3,302.1,205.3,298.5,205.3z
		 M298.6,219.4h-9.7v11.8h9.5c4.7,0,6.5-2.4,6.5-5.9C304.9,221.6,302.6,219.4,298.6,219.4z"/>
	<path class="st2" d="M327.3,236.7c-6.7,0-10.7-3.5-12.4-9.5l5.2-1.5c1.4,3.7,3.5,5.7,7.4,5.7c5.2,0,7.2-2.9,7.2-9.7v-21.2h5.4V222
		C340,231.6,335.9,236.7,327.3,236.7z"/>
	<path class="st2" d="M349,236.1v-35.7h23v5.2h-17.6v8.8h10.2v5.2h-10.2v11.3h18.4v5.2H349z"/>
	<path class="st2" d="M392.1,236.7c-9.2,0-15.1-7.6-15.1-18.4c0-10.8,5.9-18.4,15.1-18.4c5.8,0,9.7,2.3,12.1,6.7l-4.7,3
		c-1.8-2.9-3.7-4.3-7.4-4.3c-6.2,0-9.6,5-9.6,13.1c0,8,3.4,13.1,9.6,13.1c3.7,0,6-1.5,7.9-4.4l4.4,3
		C401.9,234.2,397.5,236.7,392.1,236.7z"/>
	<path class="st2" d="M424.9,205.7v30.4h-5.4v-30.4h-10.4v-5.3h26.2v5.3H424.9z"/>
	<path class="st2" d="M458.8,236.1v-27.3h-6.3V205c3.7-0.3,6.7-1.5,7.3-4.6h4.3v35.7H458.8z"/>
</g>
<g>
	<path class="st2" d="M700.7,236.7c-9.2,0-15.1-7.6-15.1-18.4c0-10.8,5.9-18.4,15.1-18.4c9.3,0,15.1,7.6,15.1,18.4
		C715.8,229.1,710,236.7,700.7,236.7z M700.7,205.2c-6.2,0-9.6,5-9.6,13.1c0,8,3.4,13.1,9.6,13.1c6.3,0,9.7-5,9.7-13.1
		C710.4,210.2,707,205.2,700.7,205.2z"/>
	<path class="st2" d="M737.6,236.1h-14.2v-35.7h14.7c6.2,0,10.2,3.3,10.2,9.3c0,3.6-1.9,5.9-4.5,7.1c2.8,0.8,6,3.4,6,8.3
		C749.9,232.4,745.4,236.1,737.6,236.1z M738.1,205.3h-9.6v9.2h9.6c3.5,0,4.9-2.2,4.9-4.5C743,207.3,741.6,205.3,738.1,205.3z
		 M738.2,219.4h-9.7v11.8h9.5c4.7,0,6.5-2.4,6.5-5.9C744.5,221.6,742.2,219.4,738.2,219.4z"/>
	<path class="st2" d="M766.9,236.7c-6.7,0-10.7-3.5-12.4-9.5l5.2-1.5c1.4,3.7,3.5,5.7,7.4,5.7c5.2,0,7.2-2.9,7.2-9.7v-21.2h5.4V222
		C779.6,231.6,775.5,236.7,766.9,236.7z"/>
	<path class="st2" d="M788.6,236.1v-35.7h23v5.2H794v8.8h10.2v5.2H794v11.3h18.4v5.2H788.6z"/>
	<path class="st2" d="M831.7,236.7c-9.2,0-15.1-7.6-15.1-18.4c0-10.8,5.9-18.4,15.1-18.4c5.8,0,9.7,2.3,12.1,6.7l-4.7,3
		c-1.8-2.9-3.7-4.3-7.4-4.3c-6.2,0-9.6,5-9.6,13.1c0,8,3.4,13.1,9.6,13.1c3.7,0,6-1.5,7.9-4.4l4.4,3
		C841.5,234.2,837.1,236.7,831.7,236.7z"/>
	<path class="st2" d="M864.5,205.7v30.4h-5.4v-30.4h-10.4v-5.3h26.2v5.3H864.5z"/>
	<path class="st2" d="M893.5,236.1c0.4-10.5,6.7-15.1,13.7-19.3c4.8-2.9,6.1-4.4,6.1-6.9c0-2.9-1.9-4.7-6.8-4.7
		c-3,0-6.3,1.4-8.6,3.6l-3.4-4.1c3.2-3,7.8-4.8,12.2-4.8c7.4,0,12.1,3.2,12.1,9.7c0,5.5-2.7,7.9-9,11.6c-6.8,4-8.8,6.3-9.6,9.7h18.9
		v5.2H893.5z"/>
</g>
<g>
	<path class="st2" d="M590.5,985.7c-9.2,0-15.1-7.6-15.1-18.4c0-10.8,5.9-18.4,15.1-18.4c9.3,0,15.1,7.6,15.1,18.4
		C605.6,978.1,599.8,985.7,590.5,985.7z M590.5,954.2c-6.2,0-9.6,5-9.6,13.1c0,8,3.4,13.1,9.6,13.1c6.3,0,9.7-5,9.7-13.1
		C600.2,959.2,596.7,954.2,590.5,954.2z"/>
	<path class="st2" d="M623.2,985.7c-5.2,0-9.7-2.2-12.7-5.8l3.8-3.7c2.4,2.6,5.9,4.2,9.3,4.2c5,0,7.4-1.7,7.4-5.2
		c0-2.8-2.1-4.1-8.1-5.9c-7.5-2.2-11.2-4.1-11.2-10.5c0-6.2,5.2-9.9,11.8-9.9c4.8,0,8.5,1.8,11.7,4.8l-3.8,3.8
		c-2.2-2.3-4.8-3.4-8.3-3.4c-4.2,0-6,2-6,4.4c0,2.5,1.6,3.7,7.8,5.6c7,2.1,11.4,4.4,11.4,10.8C636.4,981.3,632.3,985.7,623.2,985.7z
		"/>
	<path class="st2" d="M654.1,985.1h-9.7v-35.7h9.7c9.6,0,17.4,5.3,17.4,17.8S663.5,985.1,654.1,985.1z M654.1,954.6h-4.4v25.3h4.4
		c8.5,0,11.9-5.2,11.9-12.6S662.6,954.6,654.1,954.6z"/>
	<path class="st2" d="M695.4,985.1v-27.3h-6.3V954c3.7-0.3,6.7-1.5,7.3-4.6h4.3v35.7H695.4z"/>
</g>
<g>
	<path class="st2" d="M1173,985.7c-9.2,0-15.1-7.6-15.1-18.4c0-10.8,5.9-18.4,15.1-18.4c9.3,0,15.1,7.6,15.1,18.4
		C1188.2,978.1,1182.3,985.7,1173,985.7z M1173,954.2c-6.2,0-9.6,5-9.6,13.1c0,8,3.4,13.1,9.6,13.1c6.3,0,9.7-5,9.7-13.1
		C1182.7,959.2,1179.3,954.2,1173,954.2z"/>
	<path class="st2" d="M1205.7,985.7c-5.2,0-9.7-2.2-12.7-5.8l3.8-3.7c2.4,2.6,5.9,4.2,9.3,4.2c5,0,7.4-1.7,7.4-5.2
		c0-2.8-2.1-4.1-8.1-5.9c-7.5-2.2-11.2-4.1-11.2-10.5c0-6.2,5.2-9.9,11.8-9.9c4.8,0,8.5,1.8,11.7,4.8l-3.8,3.8
		c-2.2-2.3-4.8-3.4-8.3-3.4c-4.2,0-6,2-6,4.4c0,2.5,1.6,3.7,7.8,5.6c7,2.1,11.4,4.4,11.4,10.8C1219,981.3,1214.9,985.7,1205.7,985.7
		z"/>
	<path class="st2" d="M1236.7,985.1h-9.7v-35.7h9.7c9.6,0,17.4,5.3,17.4,17.8S1246,985.1,1236.7,985.1z M1236.7,954.6h-4.4v25.3h4.4
		c8.5,0,11.9-5.2,11.9-12.6S1245.2,954.6,1236.7,954.6z"/>
	<path class="st2" d="M1273.2,985.1c0.4-10.5,6.7-15.1,13.7-19.3c4.8-2.9,6.1-4.4,6.1-6.9c0-2.9-1.9-4.7-6.8-4.7
		c-3,0-6.3,1.4-8.6,3.6l-3.4-4.1c3.2-3,7.8-4.8,12.2-4.8c7.4,0,12.1,3.2,12.1,9.7c0,5.5-2.7,7.9-9,11.6c-6.8,4-8.8,6.3-9.6,9.7h18.9
		v5.2H1273.2z"/>
</g>
<g>
	<path class="st2" d="M1763.6,985.7c-9.2,0-15.1-7.6-15.1-18.4c0-10.8,5.9-18.4,15.1-18.4c9.3,0,15.1,7.6,15.1,18.4
		C1778.7,978.1,1772.9,985.7,1763.6,985.7z M1763.6,954.2c-6.2,0-9.6,5-9.6,13.1c0,8,3.4,13.1,9.6,13.1c6.3,0,9.7-5,9.7-13.1
		C1773.3,959.2,1769.9,954.2,1763.6,954.2z"/>
	<path class="st2" d="M1796.3,985.7c-5.2,0-9.7-2.2-12.7-5.8l3.8-3.7c2.4,2.6,5.9,4.2,9.3,4.2c5,0,7.4-1.7,7.4-5.2
		c0-2.8-2.1-4.1-8.1-5.9c-7.5-2.2-11.2-4.1-11.2-10.5c0-6.2,5.2-9.9,11.8-9.9c4.8,0,8.5,1.8,11.7,4.8l-3.8,3.8
		c-2.2-2.3-4.8-3.4-8.3-3.4c-4.2,0-6,2-6,4.4c0,2.5,1.6,3.7,7.8,5.6c7,2.1,11.4,4.4,11.4,10.8
		C1809.5,981.3,1805.4,985.7,1796.3,985.7z"/>
	<path class="st2" d="M1827.2,985.1h-9.7v-35.7h9.7c9.6,0,17.4,5.3,17.4,17.8S1836.6,985.1,1827.2,985.1z M1827.2,954.6h-4.4v25.3
		h4.4c8.5,0,11.9-5.2,11.9-12.6S1835.7,954.6,1827.2,954.6z"/>
	<path class="st2" d="M1875.5,985.7c-5,0-10.4-2.2-12.9-5.9l4.1-3.5c2.2,2.8,5.6,4.1,8.8,4.1c5.7,0,7.8-2.2,7.8-5.9
		c0-3.7-2.8-5.4-6.5-5.4h-3.3v-5.2h3.3c3.3,0,5-2.2,5-4.9c0-2-1.5-4.9-6.7-4.9c-2.8,0-5,1.2-7,3.3l-4-3.8c3-3.1,6.6-4.8,11.1-4.8
		c6.7,0,12.2,3.5,12.2,9.7c0,4.3-1.9,6.4-4.3,7.8c3.4,1,5.8,3.7,5.8,8.2C1888.8,981.8,1883.8,985.7,1875.5,985.7z"/>
</g>
<g>
	<path class="st2" d="M2351,985.7c-9.2,0-15.1-7.6-15.1-18.4c0-10.8,5.9-18.4,15.1-18.4c9.3,0,15.1,7.6,15.1,18.4
		C2366.1,978.1,2360.3,985.7,2351,985.7z M2351,954.2c-6.2,0-9.6,5-9.6,13.1c0,8,3.4,13.1,9.6,13.1c6.3,0,9.7-5,9.7-13.1
		C2360.7,959.2,2357.3,954.2,2351,954.2z"/>
	<path class="st2" d="M2383.7,985.7c-5.2,0-9.7-2.2-12.7-5.8l3.8-3.7c2.4,2.6,5.9,4.2,9.3,4.2c5,0,7.4-1.7,7.4-5.2
		c0-2.8-2.1-4.1-8.1-5.9c-7.5-2.2-11.2-4.1-11.2-10.5c0-6.2,5.2-9.9,11.8-9.9c4.8,0,8.5,1.8,11.7,4.8l-3.8,3.8
		c-2.2-2.3-4.8-3.4-8.3-3.4c-4.2,0-6,2-6,4.4c0,2.5,1.6,3.7,7.8,5.6c7,2.1,11.4,4.4,11.4,10.8
		C2396.9,981.3,2392.8,985.7,2383.7,985.7z"/>
	<path class="st2" d="M2414.6,985.1h-9.7v-35.7h9.7c9.6,0,17.4,5.3,17.4,17.8S2424,985.1,2414.6,985.1z M2414.6,954.6h-4.4v25.3h4.4
		c8.5,0,11.9-5.2,11.9-12.6S2423.1,954.6,2414.6,954.6z"/>
	<path class="st2" d="M2475.3,985.1l-14.2-22.4c-0.9-1.3-2.1-3.5-2.7-4.4c0,1.3,0.1,6.3,0.1,8.3v18.5h-5.2v-35.7h5.5l13.6,21.8
		c0.9,1.5,2.4,4.1,3,5c0-1.3-0.1-6.4-0.1-8.4v-18.4h5.2v35.7H2475.3z"/>
</g>
<g>
	<path class="st3" d="M560.7,521.8h-9.3v13.3h-5.3v-35.7h14.9c6.6,0,11.5,3.8,11.5,11.2C572.6,517.9,567.7,521.8,560.7,521.8z
		 M561,504.4h-9.6v12.3h9.6c4.1,0,6.1-2.3,6.1-6.2C567.1,506.6,564.7,504.4,561,504.4z"/>
	<path class="st3" d="M579.4,535.1v-35.7h5.4v30.4h17.8v5.3H579.4z"/>
	<path class="st3" d="M633.3,535.1l-3-8.5h-14.3l-3,8.5h-5.6l12.9-35.7h5.7l13,35.7H633.3z M625.9,513.6c-0.9-2.5-2.3-6.7-2.7-8.2
		c-0.4,1.5-1.7,5.6-2.6,8.3l-2.9,8.2h11L625.9,513.6z"/>
	<path class="st3" d="M658.4,535.7c-9.2,0-15.1-7.6-15.1-18.4c0-10.8,5.9-18.4,15.1-18.4c5.8,0,9.7,2.3,12.1,6.7l-4.7,3
		c-1.8-2.9-3.7-4.3-7.4-4.3c-6.2,0-9.6,5-9.6,13.1c0,8,3.4,13.1,9.6,13.1c3.7,0,6-1.5,7.9-4.4l4.4,3
		C668.1,533.2,663.8,535.7,658.4,535.7z"/>
	<path class="st3" d="M678.4,535.1v-35.7h23v5.2h-17.6v8.8H694v5.2h-10.2v11.3h18.4v5.2H678.4z"/>
	<path class="st3" d="M736.4,535.1v-18.9c0-2.1,0.1-5.3,0.1-6.3c-0.4,1-1.4,3.6-2.3,5.6l-8.7,20.1l-8.6-20.1c-0.9-2-1.9-4.6-2.3-5.6
		c0.1,1,0.1,4.1,0.1,6.3v18.9h-5v-35.7h5.5l8,19c0.9,2,2,4.6,2.4,6.1c0.5-1.5,1.5-4,2.4-6.1l7.9-19h5.7v35.7H736.4z"/>
	<path class="st3" d="M751,535.1v-35.7h23v5.2h-17.6v8.8h10.2v5.2h-10.2v11.3h18.4v5.2H751z"/>
	<path class="st3" d="M804.4,535.1l-14.2-22.4c-0.9-1.3-2.1-3.5-2.7-4.4c0,1.3,0.1,6.3,0.1,8.3v18.5h-5.2v-35.7h5.5l13.6,21.8
		c0.9,1.5,2.4,4.1,3,5c0-1.3-0.1-6.4-0.1-8.4v-18.4h5.2v35.7H804.4z"/>
	<path class="st3" d="M832.2,504.7v30.4h-5.4v-30.4h-10.4v-5.3h26.2v5.3H832.2z"/>
	<path class="st3" d="M876.9,535.7c-9.2,0-15.1-7.6-15.1-18.4c0-10.8,5.9-18.4,15.1-18.4c5.8,0,9.7,2.3,12.1,6.7l-4.7,2.9
		c-1.8-2.9-3.8-4.2-7.4-4.2c-6.2,0-9.6,5-9.6,13.1c0,8,3.4,13.1,9.6,13.1c5.8,0,8.1-3.8,8.1-8v-0.2h-5.8V517h11.3v4.1
		C890.4,530.3,884.8,535.7,876.9,535.7z"/>
	<path class="st3" d="M917.3,520.5l7.3,14.6h-6.2l-7.1-14.1h-8.1v14.1H898v-35.7h15.7c6.2,0,11.5,3.3,11.5,10.7
		C925.2,515.8,922.2,519.3,917.3,520.5z M913.7,504.4h-10.4v11.5h10.4c3.6,0,6.1-1.8,6.1-5.7C919.8,506.5,917.3,504.4,913.7,504.4z"
		/>
	<path class="st3" d="M946,535.7c-9.2,0-15.1-7.6-15.1-18.4c0-10.8,5.9-18.4,15.1-18.4c9.3,0,15.1,7.6,15.1,18.4
		C961.1,528.1,955.3,535.7,946,535.7z M946,504.2c-6.2,0-9.6,5-9.6,13.1c0,8,3.4,13.1,9.6,13.1c6.3,0,9.7-5,9.7-13.1
		C955.7,509.2,952.2,504.2,946,504.2z"/>
	<path class="st3" d="M981.9,535.7c-8.8,0-13.4-5.7-13.4-15.6v-20.7h5.4V520c0,6.7,2.8,10.4,8.2,10.4c5.6,0,8.3-3.5,8.3-10v-20.9
		h5.4v20.8C995.6,530.2,990.7,535.7,981.9,535.7z"/>
	<path class="st3" d="M1019.2,521.8h-9.3v13.3h-5.3v-35.7h14.9c6.6,0,11.5,3.8,11.5,11.2C1031,517.9,1026.1,521.8,1019.2,521.8z
		 M1019.5,504.4h-9.6v12.3h9.6c4.1,0,6.1-2.3,6.1-6.2C1025.6,506.6,1023.2,504.4,1019.5,504.4z"/>
	<path class="st3" d="M1054.3,535.1v-27.3h-6.3V504c3.7-0.3,6.7-1.5,7.3-4.6h4.3v35.7H1054.3z"/>
</g>
<g>
	<path class="st3" d="M1988.8,521.8h-9.3v13.3h-5.3v-35.7h14.9c6.6,0,11.5,3.8,11.5,11.2C2000.6,517.9,1995.7,521.8,1988.8,521.8z
		 M1989.1,504.4h-9.6v12.3h9.6c4.1,0,6.1-2.3,6.1-6.2C1995.2,506.6,1992.8,504.4,1989.1,504.4z"/>
	<path class="st3" d="M2007.5,535.1v-35.7h5.4v30.4h17.8v5.3H2007.5z"/>
	<path class="st3" d="M2061.4,535.1l-3-8.5h-14.3l-3,8.5h-5.6l12.9-35.7h5.7l13,35.7H2061.4z M2053.9,513.6
		c-0.9-2.5-2.3-6.7-2.7-8.2c-0.4,1.5-1.7,5.6-2.6,8.3l-2.9,8.2h11L2053.9,513.6z"/>
	<path class="st3" d="M2086.5,535.7c-9.2,0-15.1-7.6-15.1-18.4c0-10.8,5.9-18.4,15.1-18.4c5.8,0,9.7,2.3,12.1,6.7l-4.7,3
		c-1.8-2.9-3.7-4.3-7.4-4.3c-6.2,0-9.6,5-9.6,13.1c0,8,3.4,13.1,9.6,13.1c3.7,0,6-1.5,7.9-4.4l4.4,3
		C2096.2,533.2,2091.9,535.7,2086.5,535.7z"/>
	<path class="st3" d="M2106.5,535.1v-35.7h23v5.2h-17.6v8.8h10.2v5.2h-10.2v11.3h18.4v5.2H2106.5z"/>
	<path class="st3" d="M2164.5,535.1v-18.9c0-2.1,0.1-5.3,0.1-6.3c-0.4,1-1.4,3.6-2.3,5.6l-8.7,20.1l-8.6-20.1
		c-0.9-2-1.9-4.6-2.3-5.6c0.1,1,0.1,4.1,0.1,6.3v18.9h-5v-35.7h5.5l8,19c0.9,2,2,4.6,2.4,6.1c0.5-1.5,1.5-4,2.4-6.1l7.9-19h5.7v35.7
		H2164.5z"/>
	<path class="st3" d="M2179,535.1v-35.7h23v5.2h-17.6v8.8h10.2v5.2h-10.2v11.3h18.4v5.2H2179z"/>
	<path class="st3" d="M2232.4,535.1l-14.2-22.4c-0.9-1.3-2.1-3.5-2.7-4.4c0,1.3,0.1,6.3,0.1,8.3v18.5h-5.2v-35.7h5.5l13.6,21.8
		c0.9,1.5,2.4,4.1,3,5c0-1.3-0.1-6.4-0.1-8.4v-18.4h5.2v35.7H2232.4z"/>
	<path class="st3" d="M2260.3,504.7v30.4h-5.4v-30.4h-10.4v-5.3h26.2v5.3H2260.3z"/>
	<path class="st3" d="M2305,535.7c-9.2,0-15.1-7.6-15.1-18.4c0-10.8,5.9-18.4,15.1-18.4c5.8,0,9.7,2.3,12.1,6.7l-4.7,2.9
		c-1.8-2.9-3.8-4.2-7.4-4.2c-6.2,0-9.6,5-9.6,13.1c0,8,3.4,13.1,9.6,13.1c5.8,0,8.1-3.8,8.1-8v-0.2h-5.8V517h11.3v4.1
		C2318.5,530.3,2312.9,535.7,2305,535.7z"/>
	<path class="st3" d="M2345.4,520.5l7.3,14.6h-6.2l-7.1-14.1h-8.1v14.1h-5.3v-35.7h15.7c6.2,0,11.5,3.3,11.5,10.7
		C2353.2,515.8,2350.2,519.3,2345.4,520.5z M2341.8,504.4h-10.4v11.5h10.4c3.6,0,6.1-1.8,6.1-5.7
		C2347.8,506.5,2345.4,504.4,2341.8,504.4z"/>
	<path class="st3" d="M2374.1,535.7c-9.2,0-15.1-7.6-15.1-18.4c0-10.8,5.9-18.4,15.1-18.4c9.3,0,15.1,7.6,15.1,18.4
		C2389.2,528.1,2383.3,535.7,2374.1,535.7z M2374.1,504.2c-6.2,0-9.6,5-9.6,13.1c0,8,3.4,13.1,9.6,13.1c6.3,0,9.7-5,9.7-13.1
		C2383.7,509.2,2380.3,504.2,2374.1,504.2z"/>
	<path class="st3" d="M2410,535.7c-8.8,0-13.4-5.7-13.4-15.6v-20.7h5.4V520c0,6.7,2.8,10.4,8.2,10.4c5.6,0,8.3-3.5,8.3-10v-20.9h5.4
		v20.8C2423.7,530.2,2418.8,535.7,2410,535.7z"/>
	<path class="st3" d="M2447.3,521.8h-9.3v13.3h-5.3v-35.7h14.9c6.6,0,11.5,3.8,11.5,11.2C2459.1,517.9,2454.2,521.8,2447.3,521.8z
		 M2447.5,504.4h-9.6v12.3h9.6c4.1,0,6.1-2.3,6.1-6.2C2453.7,506.6,2451.3,504.4,2447.5,504.4z"/>
	<path class="st3" d="M2477.6,535.1c0.4-10.5,6.7-15.1,13.7-19.3c4.8-2.9,6.1-4.4,6.1-6.9c0-2.9-1.9-4.7-6.8-4.7
		c-3,0-6.3,1.4-8.6,3.6l-3.4-4.1c3.2-3,7.8-4.8,12.2-4.8c7.4,0,12.1,3.2,12.1,9.7c0,5.5-2.7,7.9-9,11.6c-6.8,4-8.8,6.3-9.6,9.7h18.9
		v5.2H2477.6z"/>
</g>
<g>
	<path class="st2" d="M1148.2,236.7c-9.2,0-15.1-7.6-15.1-18.4c0-10.8,5.9-18.4,15.1-18.4c9.3,0,15.1,7.6,15.1,18.4
		C1163.4,229.1,1157.5,236.7,1148.2,236.7z M1148.2,205.2c-6.2,0-9.6,5-9.6,13.1c0,8,3.4,13.1,9.6,13.1c6.3,0,9.7-5,9.7-13.1
		C1157.9,210.2,1154.5,205.2,1148.2,205.2z"/>
	<path class="st2" d="M1185.2,236.1H1171v-35.7h14.7c6.2,0,10.2,3.3,10.2,9.3c0,3.6-1.9,5.9-4.5,7.1c2.8,0.8,6,3.4,6,8.3
		C1197.4,232.4,1193,236.1,1185.2,236.1z M1185.6,205.3h-9.6v9.2h9.6c3.5,0,4.9-2.2,4.9-4.5C1190.6,207.3,1189.2,205.3,1185.6,205.3
		z M1185.7,219.4h-9.7v11.8h9.5c4.7,0,6.5-2.4,6.5-5.9C1192,221.6,1189.7,219.4,1185.7,219.4z"/>
	<path class="st2" d="M1214.4,236.7c-6.7,0-10.7-3.5-12.4-9.5l5.2-1.5c1.4,3.7,3.5,5.7,7.4,5.7c5.2,0,7.2-2.9,7.2-9.7v-21.2h5.4V222
		C1227.1,231.6,1223,236.7,1214.4,236.7z"/>
	<path class="st2" d="M1236.2,236.1v-35.7h23v5.2h-17.6v8.8h10.2v5.2h-10.2v11.3h18.4v5.2H1236.2z"/>
	<path class="st2" d="M1279.2,236.7c-9.2,0-15.1-7.6-15.1-18.4c0-10.8,5.9-18.4,15.1-18.4c5.8,0,9.7,2.3,12.1,6.7l-4.7,3
		c-1.8-2.9-3.7-4.3-7.4-4.3c-6.2,0-9.6,5-9.6,13.1c0,8,3.4,13.1,9.6,13.1c3.7,0,6-1.5,7.9-4.4l4.4,3
		C1289,234.2,1284.7,236.7,1279.2,236.7z"/>
	<path class="st2" d="M1312,205.7v30.4h-5.4v-30.4h-10.4v-5.3h26.2v5.3H1312z"/>
	<path class="st2" d="M1352.8,236.7c-5,0-10.4-2.2-12.9-5.9l4.1-3.5c2.2,2.8,5.6,4.1,8.8,4.1c5.7,0,7.8-2.2,7.8-5.9
		c0-3.7-2.8-5.4-6.5-5.4h-3.3v-5.2h3.3c3.3,0,5-2.2,5-4.9c0-2-1.5-4.9-6.7-4.9c-2.8,0-5,1.2-7,3.3l-4-3.8c3-3.1,6.6-4.8,11.1-4.8
		c6.7,0,12.2,3.5,12.2,9.7c0,4.3-1.9,6.4-4.3,7.8c3.4,1,5.8,3.7,5.8,8.2C1366.2,232.8,1361.2,236.7,1352.8,236.7z"/>
</g>
<g>
	<path class="st2" d="M1911.8,236.7c-9.2,0-15.1-7.6-15.1-18.4c0-10.8,5.9-18.4,15.1-18.4c9.3,0,15.1,7.6,15.1,18.4
		C1927,229.1,1921.1,236.7,1911.8,236.7z M1911.8,205.2c-6.2,0-9.6,5-9.6,13.1c0,8,3.4,13.1,9.6,13.1c6.3,0,9.7-5,9.7-13.1
		C1921.5,210.2,1918.1,205.2,1911.8,205.2z"/>
	<path class="st2" d="M1948.7,236.1h-14.2v-35.7h14.7c6.2,0,10.2,3.3,10.2,9.3c0,3.6-1.9,5.9-4.5,7.1c2.8,0.8,6,3.4,6,8.3
		C1961,232.4,1956.6,236.1,1948.7,236.1z M1949.2,205.3h-9.6v9.2h9.6c3.5,0,4.9-2.2,4.9-4.5C1954.2,207.3,1952.8,205.3,1949.2,205.3
		z M1949.3,219.4h-9.7v11.8h9.5c4.7,0,6.5-2.4,6.5-5.9C1955.6,221.6,1953.3,219.4,1949.3,219.4z"/>
	<path class="st2" d="M1978,236.7c-6.7,0-10.7-3.5-12.4-9.5l5.2-1.5c1.4,3.7,3.5,5.7,7.4,5.7c5.2,0,7.2-2.9,7.2-9.7v-21.2h5.4V222
		C1990.7,231.6,1986.6,236.7,1978,236.7z"/>
	<path class="st2" d="M1999.7,236.1v-35.7h23v5.2h-17.6v8.8h10.2v5.2h-10.2v11.3h18.4v5.2H1999.7z"/>
	<path class="st2" d="M2042.8,236.7c-9.2,0-15.1-7.6-15.1-18.4c0-10.8,5.9-18.4,15.1-18.4c5.8,0,9.7,2.3,12.1,6.7l-4.7,3
		c-1.8-2.9-3.7-4.3-7.4-4.3c-6.2,0-9.6,5-9.6,13.1c0,8,3.4,13.1,9.6,13.1c3.7,0,6-1.5,7.9-4.4l4.4,3
		C2052.6,234.2,2048.2,236.7,2042.8,236.7z"/>
	<path class="st2" d="M2075.6,205.7v30.4h-5.4v-30.4h-10.4v-5.3h26.2v5.3H2075.6z"/>
	<path class="st2" d="M2128.8,228.1v8h-5.2v-7.9h-19.3v-5.1l18.4-22.7h6.1v22.9h4.7v4.7H2128.8z M2120.6,210.7l-6.9,8.8
		c-1.1,1.4-2.6,3.2-3.4,4c1.2,0,3.9-0.1,5.8-0.1h7.5v-10.4c0-2,0.2-5.2,0.2-6.5C2123.1,207.3,2121.7,209.2,2120.6,210.7z"/>
</g>
<g>
	<path class="st2" d="M2357.6,236.7c-9.2,0-15.1-7.6-15.1-18.4c0-10.8,5.9-18.4,15.1-18.4c9.3,0,15.1,7.6,15.1,18.4
		C2372.8,229.1,2366.9,236.7,2357.6,236.7z M2357.6,205.2c-6.2,0-9.6,5-9.6,13.1c0,8,3.4,13.1,9.6,13.1c6.3,0,9.7-5,9.7-13.1
		C2367.3,210.2,2363.9,205.2,2357.6,205.2z"/>
	<path class="st2" d="M2394.5,236.1h-14.2v-35.7h14.7c6.2,0,10.2,3.3,10.2,9.3c0,3.6-1.9,5.9-4.5,7.1c2.8,0.8,6,3.4,6,8.3
		C2406.8,232.4,2402.4,236.1,2394.5,236.1z M2395,205.3h-9.6v9.2h9.6c3.5,0,4.9-2.2,4.9-4.5C2400,207.3,2398.6,205.3,2395,205.3z
		 M2395.1,219.4h-9.7v11.8h9.5c4.7,0,6.5-2.4,6.5-5.9C2401.4,221.6,2399.1,219.4,2395.1,219.4z"/>
	<path class="st2" d="M2423.8,236.7c-6.7,0-10.7-3.5-12.4-9.5l5.2-1.5c1.4,3.7,3.5,5.7,7.4,5.7c5.2,0,7.2-2.9,7.2-9.7v-21.2h5.4V222
		C2436.5,231.6,2432.4,236.7,2423.8,236.7z"/>
	<path class="st2" d="M2445.5,236.1v-35.7h23v5.2h-17.6v8.8h10.2v5.2h-10.2v11.3h18.4v5.2H2445.5z"/>
	<path class="st2" d="M2488.6,236.7c-9.2,0-15.1-7.6-15.1-18.4c0-10.8,5.9-18.4,15.1-18.4c5.8,0,9.7,2.3,12.1,6.7l-4.7,3
		c-1.8-2.9-3.7-4.3-7.4-4.3c-6.2,0-9.6,5-9.6,13.1c0,8,3.4,13.1,9.6,13.1c3.7,0,6-1.5,7.9-4.4l4.4,3
		C2498.4,234.2,2494,236.7,2488.6,236.7z"/>
	<path class="st2" d="M2521.4,205.7v30.4h-5.4v-30.4h-10.4v-5.3h26.2v5.3H2521.4z"/>
	<path class="st2" d="M2574.7,236.1l-14.2-22.4c-0.9-1.3-2.1-3.5-2.7-4.4c0,1.3,0.1,6.3,0.1,8.3v18.5h-5.2v-35.7h5.5l13.6,21.8
		c0.9,1.5,2.4,4.1,3,5c0-1.3-0.1-6.4-0.1-8.4v-18.4h5.2v35.7H2574.7z"/>
</g>
<g>
</g>
<g>
</g>
<g>
</g>
<g>
</g>
<g>
</g>
<g>
</g>
<g>
</g>
<g>
</g>
<g>
</g>
<g>
</g>
<g>
</g>
<g>
</g>
<g>
</g>
<g>
</g>
<g>
</g>
<g>
</g>
</svg>
