<?xml version="1.0" encoding="UTF-8" standalone="no"?>
<svg
   xmlns:dc="http://purl.org/dc/elements/1.1/"
   xmlns:cc="http://creativecommons.org/ns#"
   xmlns:rdf="http://www.w3.org/1999/02/22-rdf-syntax-ns#"
   xmlns:svg="http://www.w3.org/2000/svg"
   xmlns="http://www.w3.org/2000/svg"
   xmlns:sodipodi="http://sodipodi.sourceforge.net/DTD/sodipodi-0.dtd"
   xmlns:inkscape="http://www.inkscape.org/namespaces/inkscape"
   id="Layer_1"
   data-name="Layer 1"
   width="990"
   height="724"
   viewBox="0 0 990 724"
   version="1.1"
   sodipodi:docname="clustermaps-clustermaps-manage-sync-client.svg"
   inkscape:version="0.92.2 5c3e80d, 2017-08-06">
  <metadata
     id="metadata116">
    <rdf:RDF>
      <cc:Work
         rdf:about="">
        <dc:format>image/svg+xml</dc:format>
        <dc:type
           rdf:resource="http://purl.org/dc/dcmitype/StillImage" />
        <dc:title>clustermaps-clustermaps-manage-sync-osd</dc:title>
        <dc:subject>
          <rdf:Bag>
            <rdf:li>cluster map</rdf:li>
            <rdf:li>cluster map clients</rdf:li>
          </rdf:Bag>
        </dc:subject>
      </cc:Work>
    </rdf:RDF>
  </metadata>
  <sodipodi:namedview
     pagecolor="#ffffff"
     bordercolor="#666666"
     borderopacity="1"
     objecttolerance="10"
     gridtolerance="10"
     guidetolerance="10"
     inkscape:pageopacity="0"
     inkscape:pageshadow="2"
     inkscape:window-width="640"
     inkscape:window-height="480"
     id="namedview114"
     showgrid="false"
     inkscape:zoom="0.32596685"
     inkscape:cx="495"
     inkscape:cy="362"
     inkscape:window-x="0"
     inkscape:window-y="0"
     inkscape:window-maximized="0"
     inkscape:current-layer="Layer_1" />
  <defs
     id="defs4">
    <style
       id="style2">.cls-1{fill:#e6e6e6;}.cls-2{fill:#fff;}.cls-3{fill:none;stroke:#ec7a08;stroke-miterlimit:10;stroke-width:2px;}.cls-4{fill:#ec7a08;}.cls-5{fill:#4c4c4c;}</style>
  </defs>
  <title
     id="title6">clustermaps-clustermaps-manage-sync-osd</title>
  <rect
     id="rect4"
     class="cls-1"
     x="345"
     width="300"
     height="309" />
  <rect
     id="rect6"
     class="cls-1"
     y="415"
     width="300"
     height="309" />
  <rect
     id="rect8"
     class="cls-2"
     x="21"
     y="567"
     width="258"
     height="139" />
  <g
     id="g22">
    <g
       id="g20">
      <polyline
         id="polyline10"
         class="cls-3"
         points="150 428.8 150 365.8 495 365.8 495 300.2" />
      <g
         id="g14">
        <polygon
           id="polygon12"
           class="cls-4"
           points="158.5 426.3 150 441 141.6 426.3 158.5 426.3" />
      </g>
      <g
         id="g18">
        <polygon
           id="polygon16"
           class="cls-4"
           points="503.5 302.7 495 288 486.6 302.7 503.5 302.7" />
      </g>
    </g>
  </g>
  <g
     id="g30">
    <path
       id="path24"
       class="cls-5"
       d="M502.7,213.8V201.9c-.2.5-.7,1.7-1.1,2.6l-4.1,9.5-4-9.5c-.4-1-.9-2.2-1.1-2.6v11.9H490V197h2.6l3.8,9c.4,1,.9,2.2,1.2,2.9.2-.7.7-1.9,1.1-2.9l3.7-9h2.7v16.8Z"
       transform="translate(-16.1 -16.9)" />
    <path
       id="path26"
       class="cls-5"
       d="M516.4,213.8v-1.3a4.91,4.91,0,0,1-3.5,1.5,4.13,4.13,0,0,1-4.4-4.2c0-2.8,2.2-4.1,5-4.1a7,7,0,0,1,2.8.5v-.9q0-2.1-2.4-2.1a6,6,0,0,0-3.3.8l-1-1.9a8.06,8.06,0,0,1,4.3-1.1c2.8,0,4.7,1.4,4.7,4.2v8.6Zm0-5.4a6.63,6.63,0,0,0-2.9-.6c-1.6,0-2.6.7-2.6,1.9s.8,2.1,2.4,2.1a3.75,3.75,0,0,0,3-1.6v-1.8Z"
       transform="translate(-16.1 -16.9)" />
    <path
       id="path28"
       class="cls-5"
       d="M528,214a4.76,4.76,0,0,1-3.2-1.4v4.5l-2.4,1.3V201.2h2.4v1.2a5.07,5.07,0,0,1,3.3-1.5c2.7,0,4.8,2,4.8,6.8C533,212,530.6,214,528,214Zm-.3-10.8a4.06,4.06,0,0,0-2.9,1.6v5.3a4.32,4.32,0,0,0,3,1.7c1.8,0,2.7-1.3,2.7-4C530.5,204.6,529.5,203.2,527.7,203.2Z"
       transform="translate(-16.1 -16.9)" />
  </g>
  <g
     id="g38">
    <path
       id="path32"
       class="cls-5"
       d="M157.7,564.8V552.9c-.2.5-.7,1.7-1.1,2.6l-4.1,9.5-4-9.5c-.4-1-.9-2.2-1.1-2.6v11.9H145V548h2.6l3.8,9c.4,1,.9,2.2,1.2,2.9.2-.7.7-1.9,1.1-2.9l3.7-9h2.7v16.8Z"
       transform="translate(-16.1 -16.9)" />
    <path
       id="path34"
       class="cls-5"
       d="M171.4,564.8v-1.3a4.91,4.91,0,0,1-3.5,1.5,4.13,4.13,0,0,1-4.4-4.2c0-2.8,2.2-4.1,5-4.1a7,7,0,0,1,2.8.5v-.9q0-2.1-2.4-2.1a6,6,0,0,0-3.3.8l-1-1.9a8.06,8.06,0,0,1,4.3-1.1c2.8,0,4.7,1.4,4.7,4.2v8.6Zm0-5.4a6.63,6.63,0,0,0-2.9-.6c-1.6,0-2.6.7-2.6,1.9s.8,2.1,2.4,2.1a3.75,3.75,0,0,0,3-1.6v-1.8Z"
       transform="translate(-16.1 -16.9)" />
    <path
       id="path36"
       class="cls-5"
       d="M183,565a4.76,4.76,0,0,1-3.2-1.4v4.5l-2.4,1.3V552.2h2.4v1.2a5.07,5.07,0,0,1,3.3-1.5c2.7,0,4.8,2,4.8,6.8C188,563,185.6,565,183,565Zm-.3-10.8a4.06,4.06,0,0,0-2.9,1.6v5.3a4.32,4.32,0,0,0,3,1.7c1.8,0,2.7-1.3,2.7-4C185.5,555.6,184.5,554.2,182.7,554.2Z"
       transform="translate(-16.1 -16.9)" />
  </g>
  <g
     id="g46">
    <path
       id="path40"
       class="cls-5"
       d="M150.6,704c-4.3,0-7.1-3.6-7.1-8.7s2.8-8.7,7.1-8.7,7.1,3.6,7.1,8.7S155,704,150.6,704Zm0-14.8c-2.9,0-4.5,2.4-4.5,6.1s1.6,6.1,4.5,6.1,4.6-2.4,4.6-6.1S153.6,689.2,150.6,689.2Z"
       transform="translate(-16.1 -16.9)" />
    <path
       id="path42"
       class="cls-5"
       d="M166,704a8.06,8.06,0,0,1-6-2.7l1.8-1.8a6.24,6.24,0,0,0,4.4,2c2.4,0,3.5-.8,3.5-2.4,0-1.3-1-1.9-3.8-2.8-3.6-1.1-5.3-1.9-5.3-4.9s2.4-4.7,5.5-4.7a7.31,7.31,0,0,1,5.5,2.3l-1.8,1.8a5.13,5.13,0,0,0-3.9-1.6c-2,0-2.8,1-2.8,2.1s.8,1.8,3.7,2.6c3.3,1,5.4,2.1,5.4,5.1S170.3,704,166,704Z"
       transform="translate(-16.1 -16.9)" />
    <path
       id="path44"
       class="cls-5"
       d="M180.6,703.8H176V687h4.6c4.5,0,8.2,2.5,8.2,8.4S185,703.8,180.6,703.8Zm0-14.4h-2.1v11.9h2.1c4,0,5.6-2.4,5.6-6S184.6,689.4,180.6,689.4Z"
       transform="translate(-16.1 -16.9)" />
  </g>
  <g
     id="g58">
    <g
       id="g56">
      <g
         id="g54">
        <path
           id="path48"
           class="cls-5"
           d="M138.8,637.5h0a82.69,82.69,0,0,1-13.7-2.9.63.63,0,1,1,.4-1.2,84,84,0,0,0,13.4,2.8.66.66,0,0,1,.6.7A.86.86,0,0,1,138.8,637.5Z"
           transform="translate(-16.1 -16.9)" />
        <path
           id="path50"
           class="cls-5"
           d="M166.1,639.6c-5.5,0-10.9-.2-16-.6a1,1,0,0,1,.2-2q7.65.6,15.9.6c16.7,0,32.1-1.8,41.1-4.7a.95.95,0,0,1,.6,1.8C198.7,637.8,183.1,639.6,166.1,639.6Z"
           transform="translate(-16.1 -16.9)" />
        <path
           id="path52"
           class="cls-5"
           d="M166.1,669.9c-25.1,0-50.4-4-50.4-11.7v-30c0-7.7,25.4-11.7,50.4-11.7s50.4,4,50.4,11.7v30C216.6,665.9,191.2,669.9,166.1,669.9Zm0-50.7c-29.6,0-47.8,5.3-47.8,9v30c0,3.8,18.2,9,47.8,9s47.8-5.3,47.8-9v-30C214,624.5,195.8,619.2,166.1,619.2Z"
           transform="translate(-16.1 -16.9)" />
      </g>
    </g>
  </g>
  <g
     id="g76">
    <path
       id="path60"
       class="cls-2"
       d="M179.4,473.6c0-.1,0-.2.1-.2a.35.35,0,0,0-.1-.2V460.3H139.1V534h54.1V474.8H180.6A1.16,1.16,0,0,1,179.4,473.6Zm-31.9,36.3h29.1a.9.9,0,0,1,0,1.8H147.5a.9.9,0,0,1,0-1.8Zm36.6,10.5H147.5a.9.9,0,0,1,0-1.8h36.6a.9.9,0,1,1,0,1.8Zm0-17.7H147.5a.9.9,0,0,1,0-1.8h36.6a.9.9,0,0,1,.9.9A.84.84,0,0,1,184.1,502.7ZM146.6,493a.9.9,0,0,1,.9-.9h29.1a.9.9,0,1,1,0,1.8H147.5A.9.9,0,0,1,146.6,493Zm38.4-8.8a.9.9,0,0,1-.9.9H147.5a.9.9,0,1,1,0-1.8h36.6C184.6,483.4,185,483.7,185,484.2Z"
       transform="translate(-16.1 -16.9)" />
    <polygon
       id="polygon62"
       class="cls-2"
       points="165.6 445 165.6 455.6 176.1 455.6 165.6 445" />
    <path
       id="path64"
       class="cls-5"
       d="M181.4,458.3a1.14,1.14,0,0,0-.8-.3H137.9a1.2,1.2,0,0,0-1.2,1.1v76a1.13,1.13,0,0,0,1.2,1.1h56.4a1.2,1.2,0,0,0,1.2-1.1V473a1.14,1.14,0,0,0-.3-.8Zm.3,3.6,10.5,10.6H181.7Zm11.5,72H139.1V460.2h40.3v12.9c0,.1,0,.2.1.2a.35.35,0,0,1-.1.2,1.13,1.13,0,0,0,1.2,1.1h12.6v59.3Z"
       transform="translate(-16.1 -16.9)" />
    <path
       id="path66"
       class="cls-5"
       d="M146.6,484.2a.9.9,0,0,0,.9.9h36.6a.9.9,0,1,0,0-1.8H147.5C147,483.4,146.6,483.7,146.6,484.2Z"
       transform="translate(-16.1 -16.9)" />
    <path
       id="path68"
       class="cls-5"
       d="M147.5,493.9h29.1a.9.9,0,1,0,0-1.8H147.5a.9.9,0,0,0,0,1.8Z"
       transform="translate(-16.1 -16.9)" />
    <path
       id="path70"
       class="cls-5"
       d="M184.1,501H147.5a.9.9,0,1,0,0,1.8h36.6a.9.9,0,1,0,0-1.8Z"
       transform="translate(-16.1 -16.9)" />
    <path
       id="path72"
       class="cls-5"
       d="M147.5,511.6h29.1a.9.9,0,1,0,0-1.8H147.5a.9.9,0,1,0,0,1.8Z"
       transform="translate(-16.1 -16.9)" />
    <path
       id="path74"
       class="cls-5"
       d="M184.1,518.7H147.5a.9.9,0,0,0,0,1.8h36.6a.9.9,0,1,0,0-1.8Z"
       transform="translate(-16.1 -16.9)" />
  </g>
  <rect
     id="rect78"
     class="cls-1"
     x="345"
     y="415"
     width="300"
     height="309" />
  <rect
     id="rect80"
     class="cls-2"
     x="366"
     y="567"
     width="258"
     height="139" />
  <rect
     id="rect82"
     class="cls-2"
     x="366"
     y="18"
     width="258"
     height="139" />
  <g
     id="g90">
    <path
       id="path84"
       class="cls-5"
       d="M502.7,564.8V552.9c-.2.5-.7,1.7-1.1,2.6l-4.1,9.5-4-9.5c-.4-1-.9-2.2-1.1-2.6v11.9H490V548h2.6l3.8,9c.4,1,.9,2.2,1.2,2.9.2-.7.7-1.9,1.1-2.9l3.7-9h2.7v16.8Z"
       transform="translate(-16.1 -16.9)" />
    <path
       id="path86"
       class="cls-5"
       d="M516.4,564.8v-1.3a4.91,4.91,0,0,1-3.5,1.5,4.13,4.13,0,0,1-4.4-4.2c0-2.8,2.2-4.1,5-4.1a7,7,0,0,1,2.8.5v-.9q0-2.1-2.4-2.1a6,6,0,0,0-3.3.8l-1-1.9a8.06,8.06,0,0,1,4.3-1.1c2.8,0,4.7,1.4,4.7,4.2v8.6Zm0-5.4a6.63,6.63,0,0,0-2.9-.6c-1.6,0-2.6.7-2.6,1.9s.8,2.1,2.4,2.1a3.75,3.75,0,0,0,3-1.6v-1.8Z"
       transform="translate(-16.1 -16.9)" />
    <path
       id="path88"
       class="cls-5"
       d="M528,565a4.76,4.76,0,0,1-3.2-1.4v4.5l-2.4,1.3V552.2h2.4v1.2a5.07,5.07,0,0,1,3.3-1.5c2.7,0,4.8,2,4.8,6.8C533,563,530.6,565,528,565Zm-.3-10.8a4.06,4.06,0,0,0-2.9,1.6v5.3a4.32,4.32,0,0,0,3,1.7c1.8,0,2.7-1.3,2.7-4C530.5,555.6,529.5,554.2,527.7,554.2Z"
       transform="translate(-16.1 -16.9)" />
  </g>
  <g
     id="g98">
    <path
       id="path92"
       class="cls-5"
       d="M495.6,704c-4.3,0-7.1-3.6-7.1-8.7s2.8-8.7,7.1-8.7,7.1,3.6,7.1,8.7S500,704,495.6,704Zm0-14.8c-2.9,0-4.5,2.4-4.5,6.1s1.6,6.1,4.5,6.1,4.6-2.4,4.6-6.1S498.6,689.2,495.6,689.2Z"
       transform="translate(-16.1 -16.9)" />
    <path
       id="path94"
       class="cls-5"
       d="M511,704a8.06,8.06,0,0,1-6-2.7l1.8-1.8a6.24,6.24,0,0,0,4.4,2c2.4,0,3.5-.8,3.5-2.4,0-1.3-1-1.9-3.8-2.8-3.6-1.1-5.3-1.9-5.3-4.9s2.4-4.7,5.5-4.7a7.31,7.31,0,0,1,5.5,2.3l-1.8,1.8a5.13,5.13,0,0,0-3.9-1.6c-2,0-2.8,1-2.8,2.1s.8,1.8,3.7,2.6c3.3,1,5.4,2.1,5.4,5.1S515.3,704,511,704Z"
       transform="translate(-16.1 -16.9)" />
    <path
       id="path96"
       class="cls-5"
       d="M525.6,703.8H521V687h4.6c4.5,0,8.2,2.5,8.2,8.4S530,703.8,525.6,703.8Zm0-14.4h-2.1v11.9h2.1c4,0,5.6-2.4,5.6-6S529.6,689.4,525.6,689.4Z"
       transform="translate(-16.1 -16.9)" />
  </g>
  <g
     id="g110">
    <g
       id="g108">
      <g
         id="g106">
        <path
           id="path100"
           class="cls-5"
           d="M483.3,637.5h0a82.69,82.69,0,0,1-13.7-2.9.63.63,0,0,1,.4-1.2,84,84,0,0,0,13.4,2.8.66.66,0,0,1,.6.7A.86.86,0,0,1,483.3,637.5Z"
           transform="translate(-16.1 -16.9)" />
        <path
           id="path102"
           class="cls-5"
           d="M510.6,639.6c-5.5,0-10.9-.2-16-.6a1,1,0,0,1,.2-2q7.65.6,15.9.6c16.7,0,32.1-1.8,41.1-4.7a.95.95,0,1,1,.6,1.8C543.2,637.8,527.6,639.6,510.6,639.6Z"
           transform="translate(-16.1 -16.9)" />
        <path
           id="path104"
           class="cls-5"
           d="M510.6,669.9c-25.1,0-50.4-4-50.4-11.7v-30c0-7.7,25.4-11.7,50.4-11.7s50.4,4,50.4,11.7v30C561.1,665.9,535.7,669.9,510.6,669.9Zm0-50.7c-29.6,0-47.8,5.3-47.8,9v30c0,3.8,18.2,9,47.8,9s47.8-5.3,47.8-9v-30C558.5,624.5,540.3,619.2,510.6,619.2Z"
           transform="translate(-16.1 -16.9)" />
      </g>
    </g>
  </g>
  <g
     id="g128">
    <path
       id="path112"
       class="cls-2"
       d="M524.4,473.6V460.3H484.1V534h54.1V474.8H525.6A1.16,1.16,0,0,1,524.4,473.6Zm-31.9,36.3h29.1a.9.9,0,0,1,0,1.8H492.5a.9.9,0,0,1,0-1.8Zm36.6,10.5H492.5a.9.9,0,0,1,0-1.8h36.6a.9.9,0,0,1,0,1.8Zm0-17.7H492.5a.9.9,0,0,1,0-1.8h36.6a.9.9,0,0,1,.9.9A.84.84,0,0,1,529.1,502.7ZM491.6,493a.9.9,0,0,1,.9-.9h29.1a.9.9,0,0,1,0,1.8H492.5A.9.9,0,0,1,491.6,493Zm38.4-8.8a.9.9,0,0,1-.9.9H492.5a.9.9,0,0,1,0-1.8h36.6C529.6,483.4,530,483.7,530,484.2Z"
       transform="translate(-16.1 -16.9)" />
    <polygon
       id="polygon114"
       class="cls-2"
       points="510.6 445 510.6 455.6 521.1 455.6 510.6 445" />
    <path
       id="path116"
       class="cls-5"
       d="M526.4,458.3a1.14,1.14,0,0,0-.8-.3H482.9a1.2,1.2,0,0,0-1.2,1.1v76a1.13,1.13,0,0,0,1.2,1.1h56.4a1.2,1.2,0,0,0,1.2-1.1V473a1.14,1.14,0,0,0-.3-.8Zm.3,3.6,10.5,10.6H526.7Zm11.5,72H484.1V460.2h40.3v13.3a1.13,1.13,0,0,0,1.2,1.1h12.6Z"
       transform="translate(-16.1 -16.9)" />
    <path
       id="path118"
       class="cls-5"
       d="M491.6,484.2a.9.9,0,0,0,.9.9h36.6a.9.9,0,1,0,0-1.8H492.5C492,483.4,491.6,483.7,491.6,484.2Z"
       transform="translate(-16.1 -16.9)" />
    <path
       id="path120"
       class="cls-5"
       d="M492.5,493.9h29.1a.9.9,0,0,0,0-1.8H492.5a.9.9,0,0,0,0,1.8Z"
       transform="translate(-16.1 -16.9)" />
    <path
       id="path122"
       class="cls-5"
       d="M529.1,501H492.5a.9.9,0,0,0,0,1.8h36.6a.9.9,0,1,0,0-1.8Z"
       transform="translate(-16.1 -16.9)" />
    <path
       id="path124"
       class="cls-5"
       d="M492.5,511.6h29.1a.9.9,0,1,0,0-1.8H492.5a.9.9,0,0,0,0,1.8Z"
       transform="translate(-16.1 -16.9)" />
    <path
       id="path126"
       class="cls-5"
       d="M529.1,518.7H492.5a.9.9,0,1,0,0,1.8h36.6a.9.9,0,0,0,0-1.8Z"
       transform="translate(-16.1 -16.9)" />
  </g>
  <g
     id="g146">
    <path
       id="path130"
       class="cls-2"
       d="M524.4,240.6V227.3H484.1V301h54.1V241.8H525.6A1.16,1.16,0,0,1,524.4,240.6Zm-31.9,36.3h29.1a.9.9,0,1,1,0,1.8H492.5a.9.9,0,1,1,0-1.8Zm36.6,10.5H492.5a.9.9,0,0,1,0-1.8h36.6a.9.9,0,0,1,0,1.8Zm0-17.7H492.5a.9.9,0,1,1,0-1.8h36.6a.9.9,0,1,1,0,1.8ZM491.6,260a.9.9,0,0,1,.9-.9h29.1a.9.9,0,0,1,0,1.8H492.5A.9.9,0,0,1,491.6,260Zm38.4-8.8a.9.9,0,0,1-.9.9H492.5a.9.9,0,1,1,0-1.8h36.6C529.6,250.4,530,250.7,530,251.2Z"
       transform="translate(-16.1 -16.9)" />
    <polygon
       id="polygon132"
       class="cls-2"
       points="510.6 212 510.6 222.6 521.1 222.6 510.6 212" />
    <path
       id="path134"
       class="cls-5"
       d="M526.4,225.3a1.14,1.14,0,0,0-.8-.3H482.9a1.2,1.2,0,0,0-1.2,1.1v76a1.13,1.13,0,0,0,1.2,1.1h56.4a1.2,1.2,0,0,0,1.2-1.1V240a1.14,1.14,0,0,0-.3-.8Zm.3,3.6,10.5,10.6H526.7Zm11.5,72H484.1V227.2h40.3v13.3a1.13,1.13,0,0,0,1.2,1.1h12.6Z"
       transform="translate(-16.1 -16.9)" />
    <path
       id="path136"
       class="cls-5"
       d="M491.6,251.2a.9.9,0,0,0,.9.9h36.6a.9.9,0,1,0,0-1.8H492.5C492,250.4,491.6,250.7,491.6,251.2Z"
       transform="translate(-16.1 -16.9)" />
    <path
       id="path138"
       class="cls-5"
       d="M492.5,260.9h29.1a.9.9,0,0,0,0-1.8H492.5a.9.9,0,0,0,0,1.8Z"
       transform="translate(-16.1 -16.9)" />
    <path
       id="path140"
       class="cls-5"
       d="M529.1,268H492.5a.9.9,0,0,0,0,1.8h36.6a.9.9,0,0,0,0-1.8Z"
       transform="translate(-16.1 -16.9)" />
    <path
       id="path142"
       class="cls-5"
       d="M492.5,278.6h29.1a.9.9,0,0,0,0-1.8H492.5a.9.9,0,0,0,0,1.8Z"
       transform="translate(-16.1 -16.9)" />
    <path
       id="path144"
       class="cls-5"
       d="M529.1,285.7H492.5a.9.9,0,1,0,0,1.8h36.6a.9.9,0,1,0,0-1.8Z"
       transform="translate(-16.1 -16.9)" />
  </g>
  <rect
     id="rect148"
     class="cls-1"
     x="690"
     y="415"
     width="300"
     height="309" />
  <rect
     id="rect150"
     class="cls-2"
     x="711"
     y="567"
     width="258"
     height="139" />
  <g
     id="g158">
    <path
       id="path152"
       class="cls-5"
       d="M847.7,564.8V552.9c-.2.5-.7,1.7-1.1,2.6l-4.1,9.5-4-9.5c-.4-1-.9-2.2-1.1-2.6v11.9H835V548h2.6l3.8,9c.4,1,.9,2.2,1.2,2.9.2-.7.7-1.9,1.1-2.9l3.7-9h2.7v16.8Z"
       transform="translate(-16.1 -16.9)" />
    <path
       id="path154"
       class="cls-5"
       d="M861.4,564.8v-1.3a4.91,4.91,0,0,1-3.5,1.5,4.13,4.13,0,0,1-4.4-4.2c0-2.8,2.2-4.1,5-4.1a7,7,0,0,1,2.8.5v-.9q0-2.1-2.4-2.1a6,6,0,0,0-3.3.8l-1-1.9a8.06,8.06,0,0,1,4.3-1.1c2.8,0,4.7,1.4,4.7,4.2v8.6Zm0-5.4a6.63,6.63,0,0,0-2.9-.6c-1.6,0-2.6.7-2.6,1.9s.8,2.1,2.4,2.1a3.75,3.75,0,0,0,3-1.6l.1-1.8Z"
       transform="translate(-16.1 -16.9)" />
    <path
       id="path156"
       class="cls-5"
       d="M873,565a4.76,4.76,0,0,1-3.2-1.4v4.5l-2.4,1.3V552.2h2.4v1.2a5.07,5.07,0,0,1,3.3-1.5c2.7,0,4.8,2,4.8,6.8C878,563,875.6,565,873,565Zm-.3-10.8a4.06,4.06,0,0,0-2.9,1.6v5.3a4.32,4.32,0,0,0,3,1.7c1.8,0,2.7-1.3,2.7-4C875.5,555.6,874.5,554.2,872.7,554.2Z"
       transform="translate(-16.1 -16.9)" />
  </g>
  <g
     id="g166">
    <path
       id="path160"
       class="cls-5"
       d="M840.6,704c-4.3,0-7.1-3.6-7.1-8.7s2.8-8.7,7.1-8.7,7.1,3.6,7.1,8.7S845,704,840.6,704Zm0-14.8c-2.9,0-4.5,2.4-4.5,6.1s1.6,6.1,4.5,6.1,4.6-2.4,4.6-6.1S843.6,689.2,840.6,689.2Z"
       transform="translate(-16.1 -16.9)" />
    <path
       id="path162"
       class="cls-5"
       d="M856,704a8.06,8.06,0,0,1-6-2.7l1.8-1.8a6.24,6.24,0,0,0,4.4,2c2.4,0,3.5-.8,3.5-2.4,0-1.3-1-1.9-3.8-2.8-3.6-1.1-5.3-1.9-5.3-4.9s2.4-4.7,5.5-4.7a7.31,7.31,0,0,1,5.5,2.3l-1.8,1.8a5.13,5.13,0,0,0-3.9-1.6c-2,0-2.8,1-2.8,2.1s.8,1.8,3.7,2.6c3.3,1,5.4,2.1,5.4,5.1S860.3,704,856,704Z"
       transform="translate(-16.1 -16.9)" />
    <path
       id="path164"
       class="cls-5"
       d="M870.6,703.8H866V687h4.6c4.5,0,8.2,2.5,8.2,8.4S875,703.8,870.6,703.8Zm0-14.4h-2.1v11.9h2.1c4,0,5.6-2.4,5.6-6S874.6,689.4,870.6,689.4Z"
       transform="translate(-16.1 -16.9)" />
  </g>
  <g
     id="g178">
    <g
       id="g176">
      <g
         id="g174">
        <path
           id="path168"
           class="cls-5"
           d="M828.3,637.5h0a82.69,82.69,0,0,1-13.7-2.9.63.63,0,1,1,.4-1.2,84,84,0,0,0,13.4,2.8.66.66,0,0,1,.6.7A.86.86,0,0,1,828.3,637.5Z"
           transform="translate(-16.1 -16.9)" />
        <path
           id="path170"
           class="cls-5"
           d="M855.6,639.6c-5.5,0-10.9-.2-16-.6a1,1,0,0,1,.2-2q7.65.6,15.9.6c16.7,0,32.1-1.8,41.1-4.7a.95.95,0,1,1,.6,1.8C888.2,637.8,872.6,639.6,855.6,639.6Z"
           transform="translate(-16.1 -16.9)" />
        <path
           id="path172"
           class="cls-5"
           d="M855.6,669.9c-25.1,0-50.4-4-50.4-11.7v-30c0-7.7,25.4-11.7,50.4-11.7s50.4,4,50.4,11.7v30C906.1,665.9,880.7,669.9,855.6,669.9Zm0-50.7c-29.6,0-47.8,5.3-47.8,9v30c0,3.8,18.2,9,47.8,9s47.8-5.3,47.8-9v-30C903.5,624.5,885.3,619.2,855.6,619.2Z"
           transform="translate(-16.1 -16.9)" />
      </g>
    </g>
  </g>
  <g
     id="g196">
    <path
       id="path180"
       class="cls-2"
       d="M869.4,473.6V460.3H829.1V534h54.1V474.8H870.6A1.16,1.16,0,0,1,869.4,473.6Zm-31.9,36.3h29.1a.9.9,0,0,1,0,1.8H837.5a.9.9,0,1,1,0-1.8Zm36.6,10.5H837.5a.9.9,0,0,1,0-1.8h36.6a.9.9,0,0,1,0,1.8Zm0-17.7H837.5a.9.9,0,1,1,0-1.8h36.6a.9.9,0,0,1,.9.9A.84.84,0,0,1,874.1,502.7ZM836.6,493a.9.9,0,0,1,.9-.9h29.1a.9.9,0,0,1,0,1.8H837.5A.9.9,0,0,1,836.6,493Zm38.4-8.8a.9.9,0,0,1-.9.9H837.5a.9.9,0,1,1,0-1.8h36.6C874.6,483.4,875,483.7,875,484.2Z"
       transform="translate(-16.1 -16.9)" />
    <polygon
       id="polygon182"
       class="cls-2"
       points="855.6 445 855.6 455.6 866.1 455.6 855.6 445" />
    <path
       id="path184"
       class="cls-5"
       d="M871.4,458.3a1.14,1.14,0,0,0-.8-.3H827.9a1.2,1.2,0,0,0-1.2,1.1v76a1.13,1.13,0,0,0,1.2,1.1h56.4a1.2,1.2,0,0,0,1.2-1.1V473a1.14,1.14,0,0,0-.3-.8Zm.3,3.6,10.5,10.6H871.7Zm11.5,72H829.1V460.2h40.3v13.3a1.13,1.13,0,0,0,1.2,1.1h12.6Z"
       transform="translate(-16.1 -16.9)" />
    <path
       id="path186"
       class="cls-5"
       d="M836.6,484.2a.9.9,0,0,0,.9.9h36.6a.9.9,0,0,0,0-1.8H837.5C837,483.4,836.6,483.7,836.6,484.2Z"
       transform="translate(-16.1 -16.9)" />
    <path
       id="path188"
       class="cls-5"
       d="M837.5,493.9h29.1a.9.9,0,0,0,0-1.8H837.5a.9.9,0,0,0,0,1.8Z"
       transform="translate(-16.1 -16.9)" />
    <path
       id="path190"
       class="cls-5"
       d="M874.1,501H837.5a.9.9,0,1,0,0,1.8h36.6a.9.9,0,0,0,0-1.8Z"
       transform="translate(-16.1 -16.9)" />
    <path
       id="path192"
       class="cls-5"
       d="M837.5,511.6h29.1a.9.9,0,0,0,0-1.8H837.5a.9.9,0,1,0,0,1.8Z"
       transform="translate(-16.1 -16.9)" />
    <path
       id="path194"
       class="cls-5"
       d="M874.1,518.7H837.5a.9.9,0,1,0,0,1.8h36.6a.9.9,0,0,0,0-1.8Z"
       transform="translate(-16.1 -16.9)" />
  </g>
  <g
     id="g210">
    <path
       id="path198"
       class="cls-5"
       d="M487.1,68c-4.3,0-7.1-3.6-7.1-8.7s2.8-8.7,7.1-8.7a6,6,0,0,1,5.7,3.1l-2.2,1.4a3.66,3.66,0,0,0-3.5-2c-2.9,0-4.5,2.4-4.5,6.1s1.6,6.1,4.5,6.1a3.94,3.94,0,0,0,3.7-2.1l2.1,1.4A6.1,6.1,0,0,1,487.1,68Z"
       transform="translate(-16.1 -16.9)" />
    <path
       id="path200"
       class="cls-5"
       d="M496.3,67.8V51.6l2.5-1.3V67.8Z"
       transform="translate(-16.1 -16.9)" />
    <path
       id="path202"
       class="cls-5"
       d="M503.9,53.5a1.6,1.6,0,1,1,1.6-1.6A1.58,1.58,0,0,1,503.9,53.5Zm-1.2,14.3V55.2h2.5V67.8Z"
       transform="translate(-16.1 -16.9)" />
    <path
       id="path204"
       class="cls-5"
       d="M519.1,62.3h-8.3c.3,2.4,1.6,3.5,3.2,3.5a4.27,4.27,0,0,0,2.7-1l1.5,1.6a5.64,5.64,0,0,1-4.3,1.7c-3,0-5.4-2.4-5.4-6.6s2.3-6.6,5.5-6.6c3.6,0,5.3,2.9,5.3,6.3A2.8,2.8,0,0,0,519.1,62.3Zm-5.4-5.2c-1.7,0-2.7,1.2-2.9,3.2h5.9C516.5,58.6,515.7,57.1,513.7,57.1Z"
       transform="translate(-16.1 -16.9)" />
    <path
       id="path206"
       class="cls-5"
       d="M529.9,67.8V60.7c0-2.5-1-3.5-2.6-3.5s-2.6,1.2-2.6,3.2v7.4h-2.5V55.2h2.5v1.2a3.94,3.94,0,0,1,3.2-1.5c2.9,0,4.5,1.9,4.5,5.6v7.2h-2.5v.1Z"
       transform="translate(-16.1 -16.9)" />
    <path
       id="path208"
       class="cls-5"
       d="M541.8,67.5a5.28,5.28,0,0,1-2.4.6c-1.8,0-2.8-1.1-2.8-3.3V57.5h-1.8V55.2h1.8V51.6l2.4-1.3v4.9h3.1v2.3H539v6.8c0,1.2.4,1.5,1.3,1.5a3.45,3.45,0,0,0,1.8-.5Z"
       transform="translate(-16.1 -16.9)" />
  </g>
  <path
     id="path212"
     class="cls-5"
     d="M480.1,152.3h16.2a.58.58,0,0,0,.6-.6.65.65,0,0,0-.6-.6H480.1a.6.6,0,1,0,0,1.2Zm63.5-69.9H478.7a4.65,4.65,0,0,0-4.6,4.6v64.9a4.65,4.65,0,0,0,4.6,4.6h64.9a4.65,4.65,0,0,0,4.6-4.6h0V87a4.59,4.59,0,0,0-4.6-4.6Zm2.3,69.5a2.26,2.26,0,0,1-2.3,2.3H478.7a2.26,2.26,0,0,1-2.3-2.3h0V149h69.5Zm0-4.9H476.4V96.5h69.5Zm0-52.4H476.4V87a2.26,2.26,0,0,1,2.3-2.3h64.9a2.26,2.26,0,0,1,2.3,2.3h0Zm-17.3-6.7a1.9,1.9,0,1,0,1.9,1.9h0A2,2,0,0,0,528.6,87.9Zm12.2,0a1.85,1.85,0,1,0,1.8,1.9h0a1.88,1.88,0,0,0-1.8-1.9Zm-6.1,0a1.9,1.9,0,1,0,1.9,1.9h0A2,2,0,0,0,534.7,87.9Z"
     transform="translate(-16.1 -16.9)" />
</svg>
