<?xml version="1.0" encoding="UTF-8" standalone="no"?>
<svg
   xmlns:dc="http://purl.org/dc/elements/1.1/"
   xmlns:cc="http://creativecommons.org/ns#"
   xmlns:rdf="http://www.w3.org/1999/02/22-rdf-syntax-ns#"
   xmlns:svg="http://www.w3.org/2000/svg"
   xmlns="http://www.w3.org/2000/svg"
   xmlns:sodipodi="http://sodipodi.sourceforge.net/DTD/sodipodi-0.dtd"
   xmlns:inkscape="http://www.inkscape.org/namespaces/inkscape"
   id="Layer_1"
   data-name="Layer 1"
   width="990"
   height="309"
   viewBox="0 0 990 309"
   version="1.1"
   sodipodi:docname="clustermaps-clustermaps-manage-sync-osd.svg"
   inkscape:version="0.92.2 5c3e80d, 2017-08-06">
  <metadata
     id="metadata100">
    <rdf:RDF>
      <cc:Work
         rdf:about="">
        <dc:format>image/svg+xml</dc:format>
        <dc:type
           rdf:resource="http://purl.org/dc/dcmitype/StillImage" />
        <dc:title>clustermaps-clustermaps-manage-sync-osd</dc:title>
        <dc:subject>
          <rdf:Bag>
            <rdf:li>cluster map</rdf:li>
            <rdf:li>cluster map clients</rdf:li>
          </rdf:Bag>
        </dc:subject>
      </cc:Work>
    </rdf:RDF>
  </metadata>
  <sodipodi:namedview
     pagecolor="#ffffff"
     bordercolor="#666666"
     borderopacity="1"
     objecttolerance="10"
     gridtolerance="10"
     guidetolerance="10"
     inkscape:pageopacity="0"
     inkscape:pageshadow="2"
     inkscape:window-width="640"
     inkscape:window-height="480"
     id="namedview98"
     showgrid="false"
     inkscape:zoom="0.32727273"
     inkscape:cx="495"
     inkscape:cy="154.5"
     inkscape:window-x="0"
     inkscape:window-y="0"
     inkscape:window-maximized="0"
     inkscape:current-layer="Layer_1" />
  <defs
     id="defs4">
    <style
       id="style2">.cls-1{fill:#e6e6e6;}.cls-2{fill:#fff;}.cls-3{fill:#4c4c4c;}.cls-4{fill:none;stroke:#ec7a08;stroke-miterlimit:10;stroke-width:2px;}.cls-5{fill:#ec7a08;}</style>
  </defs>
  <title
     id="title6">clustermaps-clustermaps-manage-sync-osd</title>
  <rect
     id="rect4"
     class="cls-1"
     width="300"
     height="309" />
  <rect
     id="rect6"
     class="cls-2"
     x="21"
     y="152"
     width="258"
     height="139" />
  <g
     id="g14">
    <path
       id="path8"
       class="cls-3"
       d="M157.7,151.2V139.3c-.2.5-.7,1.7-1.1,2.6l-4.1,9.5-4-9.5c-.4-1-.9-2.2-1.1-2.6v11.9H145V134.4h2.6l3.8,9c.4,1,.9,2.2,1.2,2.9.2-.7.7-1.9,1.1-2.9l3.7-9h2.7v16.8Z"
       transform="translate(-16.1 -18.3)" />
    <path
       id="path10"
       class="cls-3"
       d="M171.4,151.2V150a4.91,4.91,0,0,1-3.5,1.5,4.13,4.13,0,0,1-4.4-4.2c0-2.8,2.2-4.1,5-4.1a7,7,0,0,1,2.8.5v-.9q0-2.1-2.4-2.1a6,6,0,0,0-3.3.8l-1-1.9a8.06,8.06,0,0,1,4.3-1.1c2.8,0,4.7,1.4,4.7,4.2v8.6h-2.2v-.1Zm0-5.4a6.63,6.63,0,0,0-2.9-.6c-1.6,0-2.6.7-2.6,1.9s.8,2.1,2.4,2.1a3.75,3.75,0,0,0,3-1.6v-1.8Z"
       transform="translate(-16.1 -18.3)" />
    <path
       id="path12"
       class="cls-3"
       d="M183,151.4a4.76,4.76,0,0,1-3.2-1.4v4.5l-2.4,1.3V138.6h2.4v1.2a5.07,5.07,0,0,1,3.3-1.5c2.7,0,4.8,2,4.8,6.8C188,149.4,185.6,151.4,183,151.4Zm-.3-10.8a4.06,4.06,0,0,0-2.9,1.6v5.3a4.32,4.32,0,0,0,3,1.7c1.8,0,2.7-1.3,2.7-4C185.5,142,184.5,140.6,182.7,140.6Z"
       transform="translate(-16.1 -18.3)" />
  </g>
  <g
     id="g22">
    <path
       id="path16"
       class="cls-3"
       d="M150.6,290.4c-4.3,0-7.1-3.6-7.1-8.7s2.8-8.7,7.1-8.7,7.1,3.6,7.1,8.7S155,290.4,150.6,290.4Zm0-14.8c-2.9,0-4.5,2.4-4.5,6.1s1.6,6.1,4.5,6.1,4.6-2.4,4.6-6.1S153.6,275.6,150.6,275.6Z"
       transform="translate(-16.1 -18.3)" />
    <path
       id="path18"
       class="cls-3"
       d="M166,290.4a8.06,8.06,0,0,1-6-2.7l1.8-1.8a6.24,6.24,0,0,0,4.4,2c2.4,0,3.5-.8,3.5-2.4,0-1.3-1-1.9-3.8-2.8-3.6-1.1-5.3-1.9-5.3-4.9s2.4-4.7,5.5-4.7a7.31,7.31,0,0,1,5.5,2.3l-1.8,1.8a5.13,5.13,0,0,0-3.9-1.6c-2,0-2.8,1-2.8,2.1s.8,1.8,3.7,2.6c3.3,1,5.4,2.1,5.4,5.1S170.3,290.4,166,290.4Z"
       transform="translate(-16.1 -18.3)" />
    <path
       id="path20"
       class="cls-3"
       d="M180.6,290.2H176V273.4h4.6c4.5,0,8.2,2.5,8.2,8.4S185,290.2,180.6,290.2Zm0-14.4h-2.1v11.9h2.1c4,0,5.6-2.4,5.6-6S184.6,275.8,180.6,275.8Z"
       transform="translate(-16.1 -18.3)" />
  </g>
  <g
     id="g34">
    <g
       id="g32">
      <g
         id="g30">
        <path
           id="path24"
           class="cls-3"
           d="M138.8,223.9h0a82.69,82.69,0,0,1-13.7-2.9.63.63,0,1,1,.4-1.2,84,84,0,0,0,13.4,2.8.66.66,0,0,1,.6.7A.86.86,0,0,1,138.8,223.9Z"
           transform="translate(-16.1 -18.3)" />
        <path
           id="path26"
           class="cls-3"
           d="M166.1,226c-5.5,0-10.9-.2-16-.6a1,1,0,0,1,.2-2q7.65.6,15.9.6c16.7,0,32.1-1.8,41.1-4.7a.95.95,0,1,1,.6,1.8C198.7,224.2,183.1,226,166.1,226Z"
           transform="translate(-16.1 -18.3)" />
        <path
           id="path28"
           class="cls-3"
           d="M166.1,256.3c-25.1,0-50.4-4-50.4-11.7v-30c0-7.7,25.4-11.7,50.4-11.7s50.4,4,50.4,11.7v30C216.6,252.3,191.2,256.3,166.1,256.3Zm0-50.7c-29.6,0-47.8,5.3-47.8,9v30c0,3.8,18.2,9,47.8,9s47.8-5.3,47.8-9v-30C214,210.9,195.8,205.6,166.1,205.6Z"
           transform="translate(-16.1 -18.3)" />
      </g>
    </g>
  </g>
  <g
     id="g52">
    <path
       id="path36"
       class="cls-2"
       d="M179.4,60c0-.1,0-.2.1-.2a.35.35,0,0,0-.1-.2V46.7H139.1v73.7h54.1V61.2H180.6A1.16,1.16,0,0,1,179.4,60ZM147.5,96.3h29.1a.9.9,0,1,1,0,1.8H147.5a.9.9,0,1,1,0-1.8Zm36.6,10.5H147.5a.9.9,0,1,1,0-1.8h36.6a.9.9,0,1,1,0,1.8Zm0-17.7H147.5a.9.9,0,1,1,0-1.8h36.6a.9.9,0,0,1,.9.9A.84.84,0,0,1,184.1,89.1Zm-37.5-9.7a.9.9,0,0,1,.9-.9h29.1a.9.9,0,1,1,0,1.8H147.5A.9.9,0,0,1,146.6,79.4ZM185,70.6a.9.9,0,0,1-.9.9H147.5a.9.9,0,0,1,0-1.8h36.6C184.6,69.8,185,70.1,185,70.6Z"
       transform="translate(-16.1 -18.3)" />
    <polygon
       id="polygon38"
       class="cls-2"
       points="165.6 30 165.6 40.6 176.1 40.6 165.6 30" />
    <path
       id="path40"
       class="cls-3"
       d="M181.4,44.7a1.14,1.14,0,0,0-.8-.3H137.9a1.2,1.2,0,0,0-1.2,1.1v76a1.13,1.13,0,0,0,1.2,1.1h56.4a1.2,1.2,0,0,0,1.2-1.1V59.4a1.14,1.14,0,0,0-.3-.8Zm.3,3.6,10.5,10.6H181.7Zm11.5,72H139.1V46.6h40.3V59.5c0,.1,0,.2.1.2a.35.35,0,0,1-.1.2,1.13,1.13,0,0,0,1.2,1.1h12.6v59.3Z"
       transform="translate(-16.1 -18.3)" />
    <path
       id="path42"
       class="cls-3"
       d="M146.6,70.6a.9.9,0,0,0,.9.9h36.6a.9.9,0,0,0,0-1.8H147.5C147,69.8,146.6,70.1,146.6,70.6Z"
       transform="translate(-16.1 -18.3)" />
    <path
       id="path44"
       class="cls-3"
       d="M147.5,80.3h29.1a.9.9,0,1,0,0-1.8H147.5a.9.9,0,1,0,0,1.8Z"
       transform="translate(-16.1 -18.3)" />
    <path
       id="path46"
       class="cls-3"
       d="M184.1,87.4H147.5a.9.9,0,0,0,0,1.8h36.6a.9.9,0,1,0,0-1.8Z"
       transform="translate(-16.1 -18.3)" />
    <path
       id="path48"
       class="cls-3"
       d="M147.5,98h29.1a.9.9,0,1,0,0-1.8H147.5a.9.9,0,0,0,0,1.8Z"
       transform="translate(-16.1 -18.3)" />
    <path
       id="path50"
       class="cls-3"
       d="M184.1,105.1H147.5a.9.9,0,0,0,0,1.8h36.6a.9.9,0,1,0,0-1.8Z"
       transform="translate(-16.1 -18.3)" />
  </g>
  <rect
     id="rect54"
     class="cls-1"
     x="345"
     width="300"
     height="309" />
  <rect
     id="rect56"
     class="cls-2"
     x="366"
     y="152"
     width="258"
     height="139" />
  <g
     id="g64">
    <path
       id="path58"
       class="cls-3"
       d="M502.7,151.2V139.3c-.2.5-.7,1.7-1.1,2.6l-4.1,9.5-4-9.5c-.4-1-.9-2.2-1.1-2.6v11.9H490V134.4h2.6l3.8,9c.4,1,.9,2.2,1.2,2.9.2-.7.7-1.9,1.1-2.9l3.7-9h2.7v16.8Z"
       transform="translate(-16.1 -18.3)" />
    <path
       id="path60"
       class="cls-3"
       d="M516.4,151.2V150a4.91,4.91,0,0,1-3.5,1.5,4.13,4.13,0,0,1-4.4-4.2c0-2.8,2.2-4.1,5-4.1a7,7,0,0,1,2.8.5v-.9q0-2.1-2.4-2.1a6,6,0,0,0-3.3.8l-1-1.9a8.06,8.06,0,0,1,4.3-1.1c2.8,0,4.7,1.4,4.7,4.2v8.6h-2.2v-.1Zm0-5.4a6.63,6.63,0,0,0-2.9-.6c-1.6,0-2.6.7-2.6,1.9s.8,2.1,2.4,2.1a3.75,3.75,0,0,0,3-1.6v-1.8Z"
       transform="translate(-16.1 -18.3)" />
    <path
       id="path62"
       class="cls-3"
       d="M528,151.4a4.76,4.76,0,0,1-3.2-1.4v4.5l-2.4,1.3V138.6h2.4v1.2a5.07,5.07,0,0,1,3.3-1.5c2.7,0,4.8,2,4.8,6.8C533,149.4,530.6,151.4,528,151.4Zm-.3-10.8a4.06,4.06,0,0,0-2.9,1.6v5.3a4.32,4.32,0,0,0,3,1.7c1.8,0,2.7-1.3,2.7-4C530.5,142,529.5,140.6,527.7,140.6Z"
       transform="translate(-16.1 -18.3)" />
  </g>
  <g
     id="g72">
    <path
       id="path66"
       class="cls-3"
       d="M495.6,290.4c-4.3,0-7.1-3.6-7.1-8.7s2.8-8.7,7.1-8.7,7.1,3.6,7.1,8.7S500,290.4,495.6,290.4Zm0-14.8c-2.9,0-4.5,2.4-4.5,6.1s1.6,6.1,4.5,6.1,4.6-2.4,4.6-6.1S498.6,275.6,495.6,275.6Z"
       transform="translate(-16.1 -18.3)" />
    <path
       id="path68"
       class="cls-3"
       d="M511,290.4a8.06,8.06,0,0,1-6-2.7l1.8-1.8a6.24,6.24,0,0,0,4.4,2c2.4,0,3.5-.8,3.5-2.4,0-1.3-1-1.9-3.8-2.8-3.6-1.1-5.3-1.9-5.3-4.9s2.4-4.7,5.5-4.7a7.31,7.31,0,0,1,5.5,2.3l-1.8,1.8a5.13,5.13,0,0,0-3.9-1.6c-2,0-2.8,1-2.8,2.1s.8,1.8,3.7,2.6c3.3,1,5.4,2.1,5.4,5.1S515.3,290.4,511,290.4Z"
       transform="translate(-16.1 -18.3)" />
    <path
       id="path70"
       class="cls-3"
       d="M525.6,290.2H521V273.4h4.6c4.5,0,8.2,2.5,8.2,8.4S530,290.2,525.6,290.2Zm0-14.4h-2.1v11.9h2.1c4,0,5.6-2.4,5.6-6S529.6,275.8,525.6,275.8Z"
       transform="translate(-16.1 -18.3)" />
  </g>
  <g
     id="g84">
    <g
       id="g82">
      <g
         id="g80">
        <path
           id="path74"
           class="cls-3"
           d="M483.3,223.9h0a82.69,82.69,0,0,1-13.7-2.9.63.63,0,1,1,.4-1.2,84,84,0,0,0,13.4,2.8.66.66,0,0,1,.6.7A.86.86,0,0,1,483.3,223.9Z"
           transform="translate(-16.1 -18.3)" />
        <path
           id="path76"
           class="cls-3"
           d="M510.6,226c-5.5,0-10.9-.2-16-.6a1,1,0,1,1,.2-2q7.65.6,15.9.6c16.7,0,32.1-1.8,41.1-4.7a.95.95,0,1,1,.6,1.8C543.2,224.2,527.6,226,510.6,226Z"
           transform="translate(-16.1 -18.3)" />
        <path
           id="path78"
           class="cls-3"
           d="M510.6,256.3c-25.1,0-50.4-4-50.4-11.7v-30c0-7.7,25.4-11.7,50.4-11.7s50.4,4,50.4,11.7v30C561.1,252.3,535.7,256.3,510.6,256.3Zm0-50.7c-29.6,0-47.8,5.3-47.8,9v30c0,3.8,18.2,9,47.8,9s47.8-5.3,47.8-9v-30C558.5,210.9,540.3,205.6,510.6,205.6Z"
           transform="translate(-16.1 -18.3)" />
      </g>
    </g>
  </g>
  <g
     id="g102">
    <path
       id="path86"
       class="cls-2"
       d="M524.4,60V46.7H484.1v73.7h54.1V61.2H525.6A1.16,1.16,0,0,1,524.4,60ZM492.5,96.3h29.1a.9.9,0,0,1,0,1.8H492.5a.9.9,0,0,1,0-1.8Zm36.6,10.5H492.5a.9.9,0,0,1,0-1.8h36.6a.9.9,0,0,1,0,1.8Zm0-17.7H492.5a.9.9,0,0,1,0-1.8h36.6a.9.9,0,0,1,.9.9A.84.84,0,0,1,529.1,89.1Zm-37.5-9.7a.9.9,0,0,1,.9-.9h29.1a.9.9,0,0,1,0,1.8H492.5A.9.9,0,0,1,491.6,79.4ZM530,70.6a.9.9,0,0,1-.9.9H492.5a.9.9,0,1,1,0-1.8h36.6C529.6,69.8,530,70.1,530,70.6Z"
       transform="translate(-16.1 -18.3)" />
    <polygon
       id="polygon88"
       class="cls-2"
       points="510.6 30 510.6 40.6 521.1 40.6 510.6 30" />
    <path
       id="path90"
       class="cls-3"
       d="M526.4,44.7a1.14,1.14,0,0,0-.8-.3H482.9a1.2,1.2,0,0,0-1.2,1.1v76a1.13,1.13,0,0,0,1.2,1.1h56.4a1.2,1.2,0,0,0,1.2-1.1V59.4a1.14,1.14,0,0,0-.3-.8Zm.3,3.6,10.5,10.6H526.7Zm11.5,72H484.1V46.6h40.3V59.9a1.13,1.13,0,0,0,1.2,1.1h12.6Z"
       transform="translate(-16.1 -18.3)" />
    <path
       id="path92"
       class="cls-3"
       d="M491.6,70.6a.9.9,0,0,0,.9.9h36.6a.9.9,0,1,0,0-1.8H492.5C492,69.8,491.6,70.1,491.6,70.6Z"
       transform="translate(-16.1 -18.3)" />
    <path
       id="path94"
       class="cls-3"
       d="M492.5,80.3h29.1a.9.9,0,0,0,0-1.8H492.5a.9.9,0,0,0,0,1.8Z"
       transform="translate(-16.1 -18.3)" />
    <path
       id="path96"
       class="cls-3"
       d="M529.1,87.4H492.5a.9.9,0,1,0,0,1.8h36.6a.9.9,0,1,0,0-1.8Z"
       transform="translate(-16.1 -18.3)" />
    <path
       id="path98"
       class="cls-3"
       d="M492.5,98h29.1a.9.9,0,1,0,0-1.8H492.5a.9.9,0,1,0,0,1.8Z"
       transform="translate(-16.1 -18.3)" />
    <path
       id="path100"
       class="cls-3"
       d="M529.1,105.1H492.5a.9.9,0,1,0,0,1.8h36.6a.9.9,0,0,0,0-1.8Z"
       transform="translate(-16.1 -18.3)" />
  </g>
  <rect
     id="rect104"
     class="cls-1"
     x="690"
     width="300"
     height="309" />
  <rect
     id="rect106"
     class="cls-2"
     x="711"
     y="152"
     width="258"
     height="139" />
  <g
     id="g114">
    <path
       id="path108"
       class="cls-3"
       d="M847.7,151.2V139.3c-.2.5-.7,1.7-1.1,2.6l-4.1,9.5-4-9.5c-.4-1-.9-2.2-1.1-2.6v11.9H835V134.4h2.6l3.8,9c.4,1,.9,2.2,1.2,2.9.2-.7.7-1.9,1.1-2.9l3.7-9h2.7v16.8Z"
       transform="translate(-16.1 -18.3)" />
    <path
       id="path110"
       class="cls-3"
       d="M861.4,151.2V150a4.91,4.91,0,0,1-3.5,1.5,4.13,4.13,0,0,1-4.4-4.2c0-2.8,2.2-4.1,5-4.1a7,7,0,0,1,2.8.5v-.9q0-2.1-2.4-2.1a6,6,0,0,0-3.3.8l-1-1.9a8.06,8.06,0,0,1,4.3-1.1c2.8,0,4.7,1.4,4.7,4.2v8.6h-2.2v-.1Zm0-5.4a6.63,6.63,0,0,0-2.9-.6c-1.6,0-2.6.7-2.6,1.9s.8,2.1,2.4,2.1a3.75,3.75,0,0,0,3-1.6l.1-1.8Z"
       transform="translate(-16.1 -18.3)" />
    <path
       id="path112"
       class="cls-3"
       d="M873,151.4a4.76,4.76,0,0,1-3.2-1.4v4.5l-2.4,1.3V138.6h2.4v1.2a5.07,5.07,0,0,1,3.3-1.5c2.7,0,4.8,2,4.8,6.8C878,149.4,875.6,151.4,873,151.4Zm-.3-10.8a4.06,4.06,0,0,0-2.9,1.6v5.3a4.32,4.32,0,0,0,3,1.7c1.8,0,2.7-1.3,2.7-4C875.5,142,874.5,140.6,872.7,140.6Z"
       transform="translate(-16.1 -18.3)" />
  </g>
  <g
     id="g122">
    <path
       id="path116"
       class="cls-3"
       d="M840.6,290.4c-4.3,0-7.1-3.6-7.1-8.7s2.8-8.7,7.1-8.7,7.1,3.6,7.1,8.7S845,290.4,840.6,290.4Zm0-14.8c-2.9,0-4.5,2.4-4.5,6.1s1.6,6.1,4.5,6.1,4.6-2.4,4.6-6.1S843.6,275.6,840.6,275.6Z"
       transform="translate(-16.1 -18.3)" />
    <path
       id="path118"
       class="cls-3"
       d="M856,290.4a8.06,8.06,0,0,1-6-2.7l1.8-1.8a6.24,6.24,0,0,0,4.4,2c2.4,0,3.5-.8,3.5-2.4,0-1.3-1-1.9-3.8-2.8-3.6-1.1-5.3-1.9-5.3-4.9s2.4-4.7,5.5-4.7a7.31,7.31,0,0,1,5.5,2.3l-1.8,1.8a5.13,5.13,0,0,0-3.9-1.6c-2,0-2.8,1-2.8,2.1s.8,1.8,3.7,2.6c3.3,1,5.4,2.1,5.4,5.1S860.3,290.4,856,290.4Z"
       transform="translate(-16.1 -18.3)" />
    <path
       id="path120"
       class="cls-3"
       d="M870.6,290.2H866V273.4h4.6c4.5,0,8.2,2.5,8.2,8.4S875,290.2,870.6,290.2Zm0-14.4h-2.1v11.9h2.1c4,0,5.6-2.4,5.6-6S874.6,275.8,870.6,275.8Z"
       transform="translate(-16.1 -18.3)" />
  </g>
  <g
     id="g134">
    <g
       id="g132">
      <g
         id="g130">
        <path
           id="path124"
           class="cls-3"
           d="M828.3,223.9h0a82.69,82.69,0,0,1-13.7-2.9.63.63,0,1,1,.4-1.2,84,84,0,0,0,13.4,2.8.66.66,0,0,1,.6.7A.86.86,0,0,1,828.3,223.9Z"
           transform="translate(-16.1 -18.3)" />
        <path
           id="path126"
           class="cls-3"
           d="M855.6,226c-5.5,0-10.9-.2-16-.6a1,1,0,0,1,.2-2q7.65.6,15.9.6c16.7,0,32.1-1.8,41.1-4.7a.95.95,0,1,1,.6,1.8C888.2,224.2,872.6,226,855.6,226Z"
           transform="translate(-16.1 -18.3)" />
        <path
           id="path128"
           class="cls-3"
           d="M855.6,256.3c-25.1,0-50.4-4-50.4-11.7v-30c0-7.7,25.4-11.7,50.4-11.7s50.4,4,50.4,11.7v30C906.1,252.3,880.7,256.3,855.6,256.3Zm0-50.7c-29.6,0-47.8,5.3-47.8,9v30c0,3.8,18.2,9,47.8,9s47.8-5.3,47.8-9v-30C903.5,210.9,885.3,205.6,855.6,205.6Z"
           transform="translate(-16.1 -18.3)" />
      </g>
    </g>
  </g>
  <g
     id="g152">
    <path
       id="path136"
       class="cls-2"
       d="M869.4,60V46.7H829.1v73.7h54.1V61.2H870.6A1.16,1.16,0,0,1,869.4,60ZM837.5,96.3h29.1a.9.9,0,0,1,0,1.8H837.5a.9.9,0,1,1,0-1.8Zm36.6,10.5H837.5a.9.9,0,1,1,0-1.8h36.6a.9.9,0,0,1,0,1.8Zm0-17.7H837.5a.9.9,0,1,1,0-1.8h36.6a.9.9,0,0,1,.9.9A.84.84,0,0,1,874.1,89.1Zm-37.5-9.7a.9.9,0,0,1,.9-.9h29.1a.9.9,0,0,1,0,1.8H837.5A.9.9,0,0,1,836.6,79.4ZM875,70.6a.9.9,0,0,1-.9.9H837.5a.9.9,0,1,1,0-1.8h36.6C874.6,69.8,875,70.1,875,70.6Z"
       transform="translate(-16.1 -18.3)" />
    <polygon
       id="polygon138"
       class="cls-2"
       points="855.6 30 855.6 40.6 866.1 40.6 855.6 30" />
    <path
       id="path140"
       class="cls-3"
       d="M871.4,44.7a1.14,1.14,0,0,0-.8-.3H827.9a1.2,1.2,0,0,0-1.2,1.1v76a1.13,1.13,0,0,0,1.2,1.1h56.4a1.2,1.2,0,0,0,1.2-1.1V59.4a1.14,1.14,0,0,0-.3-.8Zm.3,3.6,10.5,10.6H871.7Zm11.5,72H829.1V46.6h40.3V59.9a1.13,1.13,0,0,0,1.2,1.1h12.6Z"
       transform="translate(-16.1 -18.3)" />
    <path
       id="path142"
       class="cls-3"
       d="M836.6,70.6a.9.9,0,0,0,.9.9h36.6a.9.9,0,0,0,0-1.8H837.5C837,69.8,836.6,70.1,836.6,70.6Z"
       transform="translate(-16.1 -18.3)" />
    <path
       id="path144"
       class="cls-3"
       d="M837.5,80.3h29.1a.9.9,0,0,0,0-1.8H837.5a.9.9,0,1,0,0,1.8Z"
       transform="translate(-16.1 -18.3)" />
    <path
       id="path146"
       class="cls-3"
       d="M874.1,87.4H837.5a.9.9,0,1,0,0,1.8h36.6a.9.9,0,0,0,0-1.8Z"
       transform="translate(-16.1 -18.3)" />
    <path
       id="path148"
       class="cls-3"
       d="M837.5,98h29.1a.9.9,0,0,0,0-1.8H837.5a.9.9,0,1,0,0,1.8Z"
       transform="translate(-16.1 -18.3)" />
    <path
       id="path150"
       class="cls-3"
       d="M874.1,105.1H837.5a.9.9,0,1,0,0,1.8h36.6a.9.9,0,0,0,0-1.8Z"
       transform="translate(-16.1 -18.3)" />
  </g>
  <g
     id="g166">
    <g
       id="g164">
      <line
         id="line154"
         class="cls-4"
         x1="191.4"
         y1="71"
         x2="451.7"
         y2="71" />
      <g
         id="g158">
        <polygon
           id="polygon156"
           class="cls-5"
           points="193.3 77.5 182 71 193.3 64.5 193.3 77.5" />
      </g>
      <g
         id="g162">
        <polygon
           id="polygon160"
           class="cls-5"
           points="449.8 77.5 461 71 449.8 64.5 449.8 77.5" />
      </g>
    </g>
  </g>
  <g
     id="g180">
    <g
       id="g178">
      <line
         id="line168"
         class="cls-4"
         x1="537.4"
         y1="71"
         x2="797.7"
         y2="71" />
      <g
         id="g172">
        <polygon
           id="polygon170"
           class="cls-5"
           points="539.3 77.5 528 71 539.3 64.5 539.3 77.5" />
      </g>
      <g
         id="g176">
        <polygon
           id="polygon174"
           class="cls-5"
           points="795.8 77.5 807 71 795.8 64.5 795.8 77.5" />
      </g>
    </g>
  </g>
</svg>
