<?xml version="1.0" encoding="utf-8"?>
<!-- Generator: Adobe Illustrator 22.1.0, SVG Export Plug-In . SVG Version: 6.00 Build 0)  -->
<svg version="1.1"
	 id="svg8" inkscape:version="0.92.2 (5c3e80d, 2017-08-06)" sodipodi:docname="pools-pools-ec.svg" xmlns:cc="http://creativecommons.org/ns#" xmlns:dc="http://purl.org/dc/elements/1.1/" xmlns:inkscape="http://www.inkscape.org/namespaces/inkscape" xmlns:rdf="http://www.w3.org/1999/02/22-rdf-syntax-ns#" xmlns:sodipodi="http://sodipodi.sourceforge.net/DTD/sodipodi-0.dtd" xmlns:svg="http://www.w3.org/2000/svg"
	 xmlns="http://www.w3.org/2000/svg" xmlns:xlink="http://www.w3.org/1999/xlink" x="0px" y="0px" viewBox="0 0 1140 711.7"
	 style="enable-background:new 0 0 1140 711.7;" xml:space="preserve">
<style type="text/css">
	.st0{fill:#FFFFFF;stroke:#A6A6A6;stroke-miterlimit:10;enable-background:new    ;}
	.st1{fill:none;stroke:#A6A6A6;stroke-miterlimit:10;enable-background:new    ;}
	.st2{fill:#AAAAAA;enable-background:new    ;}
	.st3{fill:#E6E6E6;enable-background:new    ;}
	.st4{fill:#EC7A08;enable-background:new    ;}
	.st5{fill:none;stroke:#EC7A08;stroke-miterlimit:10;enable-background:new    ;}
	.st6{fill:#4C4C4C;}
	.st7{fill:none;stroke:#4C4C4C;stroke-width:2;stroke-miterlimit:10;}
	.st8{fill:#FFFFFF;}
	.st9{enable-background:new    ;}
	.st10{fill:none;stroke:#EC7A08;stroke-width:2;stroke-linecap:round;stroke-linejoin:round;}
	.st11{fill:none;stroke:#EC7A08;stroke-width:2;stroke-linecap:round;stroke-linejoin:round;stroke-dasharray:3.9458,3.9458;}
	.st12{fill:none;stroke:#EC7A08;stroke-width:2;stroke-linecap:round;stroke-linejoin:round;stroke-dasharray:3.9082,3.9082;}
	.st13{fill:none;stroke:#EC7A08;stroke-width:2;stroke-linecap:round;stroke-linejoin:round;stroke-dasharray:3.9772,3.9772;}
	.st14{fill:none;stroke:#EC7A08;stroke-width:2;stroke-linecap:round;stroke-linejoin:round;stroke-dasharray:3.9168,3.9168;}
</style>
<rect x="170.5" y="363.9" class="st0" width="105.6" height="86.7"/>
<rect x="298.3" y="363.9" class="st0" width="105.6" height="86.7"/>
<rect x="426.1" y="363.9" class="st0" width="105.6" height="86.7"/>
<rect x="553.9" y="363.9" class="st0" width="105.6" height="86.7"/>
<sodipodi:namedview  bordercolor="#666666" borderopacity="1.0" fit-margin-bottom="0" fit-margin-left="0" fit-margin-right="0" fit-margin-top="0" id="base" inkscape:current-layer="layer2" inkscape:cx="843.47101" inkscape:cy="468.78568" inkscape:document-units="mm" inkscape:pageopacity="0.0" inkscape:pageshadow="2" inkscape:window-height="1172" inkscape:window-maximized="1" inkscape:window-width="1920" inkscape:window-x="1920" inkscape:window-y="0" inkscape:zoom="0.7" pagecolor="#ffffff" showgrid="false">
	</sodipodi:namedview>
<rect x="430" y="43.7" class="st1" width="233.8" height="47"/>
<rect x="430" y="94.5" class="st2" width="233.8" height="47"/>
<rect x="170.5" y="312.5" class="st3" width="105.6" height="47"/>
<rect x="170.5" y="403.6" class="st2" width="105.6" height="47"/>
<rect x="298.3" y="312.5" class="st3" width="105.6" height="47"/>
<rect x="298.3" y="403.6" class="st2" width="105.6" height="47"/>
<rect x="426.1" y="403.6" class="st2" width="105.6" height="47"/>
<rect x="553.9" y="312.5" class="st3" width="105.6" height="47"/>
<rect x="426.1" y="312.5" class="st3" width="105.6" height="47"/>
<rect x="553.9" y="403.6" class="st2" width="105.6" height="47"/>
<rect x="681.7" y="312.5" class="st3" width="105.6" height="47"/>
<rect x="681.7" y="403.6" class="st4" width="105.6" height="47"/>
<rect x="681.7" y="363.9" class="st5" width="105.6" height="86.7"/>
<rect x="809.5" y="312.5" class="st3" width="105.6" height="47"/>
<rect x="809.5" y="403.6" class="st4" width="105.6" height="47"/>
<rect x="809.5" y="363.9" class="st5" width="105.6" height="86.7"/>
<g>
	<g>
		<path class="st6" d="M202.4,595.2C202.4,595.2,202.3,595.2,202.4,595.2c-4.2-0.6-7.7-1.3-10.5-2.2c-0.3-0.1-0.4-0.4-0.3-0.6
			c0.1-0.3,0.4-0.4,0.6-0.3c2.7,0.9,6.2,1.6,10.2,2.2c0.3,0,0.5,0.3,0.4,0.6C202.8,595.1,202.6,595.2,202.4,595.2z"/>
		<path class="st6" d="M223.3,596.8c-4.2,0-8.3-0.1-12.2-0.4c-0.4,0-0.7-0.4-0.7-0.8c0-0.4,0.4-0.7,0.8-0.7c3.9,0.3,8,0.4,12.1,0.4
			c12.8,0,24.5-1.3,31.4-3.6c0.4-0.1,0.8,0.1,0.9,0.5c0.1,0.4-0.1,0.8-0.5,0.9C248.1,595.5,236.2,596.8,223.3,596.8z"/>
		<path class="st6" d="M223.3,620c-19.1,0-38.5-3.1-38.5-8.9v-22.9c0-5.8,19.4-8.9,38.5-8.9c19.1,0,38.5,3.1,38.5,8.9v22.9
			C261.8,616.9,242.4,620,223.3,620z M223.3,581.3c-22.6,0-36.5,4-36.5,6.9v22.9c0,2.9,13.9,6.9,36.5,6.9c22.6,0,36.5-4,36.5-6.9
			v-22.9C259.8,585.3,245.9,581.3,223.3,581.3z"/>
	</g>
</g>
<g>
	<g>
		<path class="st6" d="M330.2,595.2C330.2,595.2,330.2,595.2,330.2,595.2c-4.2-0.6-7.7-1.3-10.5-2.2c-0.3-0.1-0.4-0.4-0.3-0.6
			c0.1-0.3,0.4-0.4,0.6-0.3c2.7,0.9,6.2,1.6,10.2,2.2c0.3,0,0.5,0.3,0.4,0.6C330.7,595.1,330.4,595.2,330.2,595.2z"/>
		<path class="st6" d="M351.1,596.8c-4.2,0-8.3-0.1-12.2-0.4c-0.4,0-0.7-0.4-0.7-0.8c0-0.4,0.4-0.7,0.8-0.7c3.9,0.3,8,0.4,12.1,0.4
			c12.8,0,24.5-1.3,31.4-3.6c0.4-0.1,0.8,0.1,0.9,0.5c0.1,0.4-0.1,0.8-0.5,0.9C375.9,595.5,364,596.8,351.1,596.8z"/>
		<path class="st6" d="M351.1,620c-19.1,0-38.5-3.1-38.5-8.9v-22.9c0-5.8,19.4-8.9,38.5-8.9c19.1,0,38.5,3.1,38.5,8.9v22.9
			C389.6,616.9,370.2,620,351.1,620z M351.1,581.3c-22.6,0-36.5,4-36.5,6.9v22.9c0,2.9,13.9,6.9,36.5,6.9c22.6,0,36.5-4,36.5-6.9
			v-22.9C387.6,585.3,373.7,581.3,351.1,581.3z"/>
	</g>
</g>
<g>
	<g>
		<path class="st6" d="M458,595.2C458,595.2,458,595.2,458,595.2c-4.2-0.6-7.7-1.3-10.5-2.2c-0.3-0.1-0.4-0.4-0.3-0.6
			c0.1-0.3,0.4-0.4,0.6-0.3c2.7,0.9,6.2,1.6,10.2,2.2c0.3,0,0.5,0.3,0.4,0.6C458.5,595.1,458.3,595.2,458,595.2z"/>
		<path class="st6" d="M478.9,596.8c-4.2,0-8.3-0.1-12.2-0.4c-0.4,0-0.7-0.4-0.7-0.8c0-0.4,0.4-0.7,0.8-0.7c3.9,0.3,8,0.4,12.1,0.4
			c12.8,0,24.5-1.3,31.4-3.6c0.4-0.1,0.8,0.1,0.9,0.5c0.1,0.4-0.1,0.8-0.5,0.9C503.7,595.5,491.8,596.8,478.9,596.8z"/>
		<path class="st6" d="M478.9,620c-19.1,0-38.5-3.1-38.5-8.9v-22.9c0-5.8,19.4-8.9,38.5-8.9c19.1,0,38.5,3.1,38.5,8.9v22.9
			C517.4,616.9,498,620,478.9,620z M478.9,581.3c-22.6,0-36.5,4-36.5,6.9v22.9c0,2.9,13.9,6.9,36.5,6.9c22.6,0,36.5-4,36.5-6.9
			v-22.9C515.4,585.3,501.5,581.3,478.9,581.3z"/>
	</g>
</g>
<g>
	<g>
		<path class="st6" d="M585.8,595.2C585.8,595.2,585.8,595.2,585.8,595.2c-4.2-0.6-7.7-1.3-10.5-2.2c-0.3-0.1-0.4-0.4-0.3-0.6
			c0.1-0.3,0.4-0.4,0.6-0.3c2.7,0.9,6.2,1.6,10.2,2.2c0.3,0,0.5,0.3,0.4,0.6C586.3,595.1,586.1,595.2,585.8,595.2z"/>
		<path class="st6" d="M606.7,596.8c-4.2,0-8.3-0.1-12.2-0.4c-0.4,0-0.7-0.4-0.7-0.8c0-0.4,0.4-0.7,0.8-0.7c3.9,0.3,8,0.4,12.1,0.4
			c12.8,0,24.5-1.3,31.4-3.6c0.4-0.1,0.8,0.1,0.9,0.5c0.1,0.4-0.1,0.8-0.5,0.9C631.5,595.5,619.6,596.8,606.7,596.8z"/>
		<path class="st6" d="M606.7,620c-19.1,0-38.5-3.1-38.5-8.9v-22.9c0-5.8,19.4-8.9,38.5-8.9c19.1,0,38.5,3.1,38.5,8.9v22.9
			C645.2,616.9,625.8,620,606.7,620z M606.7,581.3c-22.6,0-36.5,4-36.5,6.9v22.9c0,2.9,13.9,6.9,36.5,6.9c22.6,0,36.5-4,36.5-6.9
			v-22.9C643.2,585.3,629.3,581.3,606.7,581.3z"/>
	</g>
</g>
<g>
	<g>
		<path class="st6" d="M713.6,595.2C713.6,595.2,713.6,595.2,713.6,595.2c-4.2-0.6-7.7-1.3-10.5-2.2c-0.3-0.1-0.4-0.4-0.3-0.6
			c0.1-0.3,0.4-0.4,0.6-0.3c2.7,0.9,6.2,1.6,10.2,2.2c0.3,0,0.5,0.3,0.4,0.6C714.1,595.1,713.9,595.2,713.6,595.2z"/>
		<path class="st6" d="M734.5,596.8c-4.2,0-8.3-0.1-12.2-0.4c-0.4,0-0.7-0.4-0.7-0.8c0-0.4,0.4-0.7,0.8-0.7c3.9,0.3,8,0.4,12.1,0.4
			c12.8,0,24.5-1.3,31.4-3.6c0.4-0.1,0.8,0.1,0.9,0.5c0.1,0.4-0.1,0.8-0.5,0.9C759.3,595.5,747.4,596.8,734.5,596.8z"/>
		<path class="st6" d="M734.5,620c-19.1,0-38.5-3.1-38.5-8.9v-22.9c0-5.8,19.4-8.9,38.5-8.9c19.1,0,38.5,3.1,38.5,8.9v22.9
			C773,616.9,753.6,620,734.5,620z M734.5,581.3c-22.6,0-36.5,4-36.5,6.9v22.9c0,2.9,13.9,6.9,36.5,6.9c22.6,0,36.5-4,36.5-6.9
			v-22.9C771,585.3,757.1,581.3,734.5,581.3z"/>
	</g>
</g>
<g>
	<g>
		<path class="st6" d="M841.4,595.2C841.4,595.2,841.4,595.2,841.4,595.2c-4.2-0.6-7.7-1.3-10.5-2.2c-0.3-0.1-0.4-0.4-0.3-0.6
			c0.1-0.3,0.4-0.4,0.6-0.3c2.7,0.9,6.2,1.6,10.2,2.2c0.3,0,0.5,0.3,0.4,0.6C841.9,595.1,841.7,595.2,841.4,595.2z"/>
		<path class="st6" d="M862.3,596.8c-4.2,0-8.3-0.1-12.2-0.4c-0.4,0-0.7-0.4-0.7-0.8c0-0.4,0.4-0.7,0.8-0.7c3.9,0.3,8,0.4,12.1,0.4
			c12.8,0,24.5-1.3,31.4-3.6c0.4-0.1,0.8,0.1,0.9,0.5c0.1,0.4-0.1,0.8-0.5,0.9C887.2,595.5,875.3,596.8,862.3,596.8z"/>
		<path class="st6" d="M862.3,620c-19.1,0-38.5-3.1-38.5-8.9v-22.9c0-5.8,19.4-8.9,38.5-8.9c19.1,0,38.5,3.1,38.5,8.9v22.9
			C900.8,616.9,881.5,620,862.3,620z M862.3,581.3c-22.6,0-36.5,4-36.5,6.9v22.9c0,2.9,13.9,6.9,36.5,6.9c22.6,0,36.5-4,36.5-6.9
			v-22.9C898.8,585.3,884.9,581.3,862.3,581.3z"/>
	</g>
</g>
<g>
	<g>
		<line class="st7" x1="862.3" y1="450.6" x2="862.3" y2="557.1"/>
		<g>
			<polygon class="st6" points="854.3,554.8 862.3,568.6 870.3,554.8 			"/>
		</g>
	</g>
</g>
<line class="st7" x1="951.7" y1="370.4" x2="921.7" y2="384.9"/>
<line class="st7" x1="445.3" y1="67.2" x2="403.9" y2="53"/>
<line class="st7" x1="445.3" y1="118" x2="403.9" y2="103.7"/>
<line class="st7" x1="184.8" y1="384.8" x2="143.3" y2="370.5"/>
<g>
	<g>
		<line class="st7" x1="351.1" y1="450.6" x2="351.1" y2="557.1"/>
		<g>
			<polygon class="st6" points="343.1,554.8 351.1,568.6 359.1,554.8 			"/>
		</g>
	</g>
</g>
<g>
	<g>
		<polyline class="st7" points="708.5,450.6 708.5,531.2 606.7,531.2 606.7,557.1 		"/>
		<g>
			<polygon class="st6" points="598.7,554.8 606.7,568.6 614.7,554.8 			"/>
		</g>
	</g>
</g>
<g>
	<g>
		<polyline class="st7" points="578.3,450.6 578.3,531.2 476.5,531.2 476.5,557.1 		"/>
		<g>
			<polygon class="st6" points="468.5,554.8 476.5,568.6 484.5,554.8 			"/>
		</g>
	</g>
</g>
<g>
	<g>
		<polyline class="st7" points="447.7,450.6 447.7,531.2 223.3,531.2 223.3,557.1 		"/>
		<g>
			<polygon class="st6" points="215.3,554.8 223.3,568.6 231.3,554.8 			"/>
		</g>
	</g>
</g>
<rect x="338.2" y="489.3" class="st8" width="376" height="9"/>
<g>
	<g>
		<polyline class="st7" points="223.3,450.6 223.3,493.3 734.5,493.3 734.5,557.1 		"/>
		<g>
			<polygon class="st6" points="726.5,554.8 734.5,568.6 742.5,554.8 			"/>
		</g>
	</g>
</g>
<polyline class="st7" points="430,205.9 223.3,205.9 223.3,312.5 "/>
<polyline class="st7" points="430,205.9 351.1,205.9 351.1,312.5 "/>
<polyline class="st7" points="663.4,205.9 734.5,205.9 734.5,312.5 "/>
<polyline class="st7" points="663.4,205.9 862.3,205.9 862.3,312.5 "/>
<g class="st9">
	<rect x="426.6" y="182.5" class="st8" width="236.8" height="47"/>
	<g>
		<polyline class="st10" points="663.4,227.4 663.4,229.4 661.4,229.4 		"/>
		<line class="st11" x1="657.4" y1="229.4" x2="430.5" y2="229.4"/>
		<polyline class="st10" points="428.6,229.4 426.6,229.4 426.6,227.4 		"/>
		<line class="st12" x1="426.6" y1="223.5" x2="426.6" y2="186.4"/>
		<polyline class="st10" points="426.6,184.5 426.6,182.5 428.6,182.5 		"/>
		<line class="st11" x1="432.5" y1="182.5" x2="659.4" y2="182.5"/>
		<polyline class="st10" points="661.4,182.5 663.4,182.5 663.4,184.5 		"/>
		<line class="st12" x1="663.4" y1="188.4" x2="663.4" y2="225.5"/>
	</g>
</g>
<g class="st9">
	<g>
		<polyline class="st10" points="921.7,455.8 921.7,457.8 919.7,457.8 		"/>
		<line class="st13" x1="915.8" y1="457.8" x2="679.1" y2="457.8"/>
		<polyline class="st10" points="677.1,457.8 675.1,457.8 675.1,455.8 		"/>
		<line class="st14" x1="675.1" y1="451.9" x2="675.1" y2="359.8"/>
		<polyline class="st10" points="675.1,357.9 675.1,355.9 677.1,355.9 		"/>
		<line class="st13" x1="681.1" y1="355.9" x2="917.8" y2="355.9"/>
		<polyline class="st10" points="919.7,355.9 921.7,355.9 921.7,357.9 		"/>
		<line class="st14" x1="921.7" y1="361.8" x2="921.7" y2="453.8"/>
	</g>
</g>
<line class="st7" x1="478.9" y1="229.4" x2="478.9" y2="312.5"/>
<line class="st7" x1="606.7" y1="229.4" x2="606.7" y2="312.5"/>
<g>
	<g>
		<line class="st7" x1="546.9" y1="140.9" x2="546.9" y2="171"/>
		<g>
			<polygon class="st6" points="539,168.6 546.9,182.5 554.9,168.6 			"/>
		</g>
	</g>
</g>
<g>
	<path class="st6" d="M528.2,61.3v13.1h-2.3V61.3h-4.5V59h11.3v2.3H528.2z"/>
	<path class="st6" d="M535.7,74.4V59h9.9v2.2H538v3.8h4.4v2.2H538v4.9h7.9v2.2H535.7z"/>
	<path class="st6" d="M553.5,74.7c-2.2,0-4.2-1-5.5-2.5l1.7-1.6c1,1.1,2.6,1.8,4,1.8c2.2,0,3.2-0.7,3.2-2.2c0-1.2-0.9-1.8-3.5-2.6
		c-3.3-1-4.8-1.8-4.8-4.5c0-2.7,2.2-4.3,5.1-4.3c2.1,0,3.7,0.8,5,2.1l-1.6,1.7c-1-1-2.1-1.5-3.6-1.5c-1.8,0-2.6,0.9-2.6,1.9
		c0,1.1,0.7,1.6,3.4,2.4c3,0.9,4.9,1.9,4.9,4.6C559.2,72.8,557.5,74.7,553.5,74.7z"/>
	<path class="st6" d="M568,61.3v13.1h-2.3V61.3h-4.5V59h11.3v2.3H568z"/>
</g>
<g>
	<path class="st6" d="M278.8,56.2c-4,0-6.5-3.3-6.5-7.9s2.5-7.9,6.5-7.9c4,0,6.5,3.3,6.5,7.9S282.8,56.2,278.8,56.2z M278.8,42.6
		c-2.7,0-4.2,2.2-4.2,5.6s1.5,5.6,4.2,5.6c2.7,0,4.2-2.2,4.2-5.6S281.5,42.6,278.8,42.6z"/>
	<path class="st6" d="M293.4,56.2c-1.2,0-2.3-0.6-2.9-1.3V56h-2.2V41.1l2.2-1.2v5.6c0.8-0.8,1.8-1.3,3-1.3c2.5,0,4.4,1.8,4.4,6.2
		C297.9,54.4,295.8,56.2,293.4,56.2z M293.1,46.3c-1.1,0-2,0.7-2.6,1.5v4.9c0.5,0.7,1.6,1.5,2.7,1.5c1.6,0,2.5-1.2,2.5-3.7
		C295.7,47.6,294.8,46.3,293.1,46.3z"/>
	<path class="st6" d="M299.2,60.2l-0.8-1.7c2.1-0.6,2.4-1,2.4-3V44.4h2.3v11C303.2,58.4,302.4,59.6,299.2,60.2z M302,42.9
		c-0.8,0-1.5-0.7-1.5-1.5c0-0.8,0.7-1.5,1.5-1.5c0.8,0,1.5,0.7,1.5,1.5C303.5,42.3,302.8,42.9,302,42.9z"/>
	<path class="st6" d="M315.9,51h-7.6c0.2,2.2,1.5,3.2,2.9,3.2c1,0,1.7-0.4,2.5-0.9l1.3,1.5c-1,1-2.2,1.5-4,1.5c-2.7,0-5-2.2-5-6
		c0-3.9,2.1-6,5.1-6c3.3,0,4.9,2.7,4.9,5.8C316,50.4,315.9,50.8,315.9,51z M311,46.2c-1.5,0-2.4,1.1-2.6,2.9h5.4
		C313.6,47.6,312.8,46.2,311,46.2z"/>
	<path class="st6" d="M326.1,47.8c-0.9-1-1.8-1.4-2.8-1.4c-1.6,0-2.7,1.5-2.7,3.8c0,2.3,1,3.9,2.8,3.9c1.1,0,1.7-0.5,2.6-1.4
		l1.5,1.4c-0.9,1.1-2,2.2-4.1,2.2c-2.8,0-5-2.4-5-6c0-3.8,2.2-6.1,5.1-6.1c1.7,0,3,0.7,4.1,2L326.1,47.8z"/>
	<path class="st6" d="M335.8,55.7c-0.5,0.3-1.3,0.5-2.2,0.5c-1.6,0-2.6-1-2.6-3.1v-6.7h-1.7v-2.1h1.7v-3.3l2.2-1.2v4.5h2.9v2.1h-2.9
		v6.3c0,1.1,0.4,1.4,1.2,1.4c0.6,0,1.3-0.2,1.7-0.5L335.8,55.7z"/>
	<path class="st6" d="M352.1,56v-6.5c0-2.3-0.9-3.2-2.4-3.2c-1.5,0-2.4,1.1-2.4,2.9V56h-2.3V44.4h2.3v1.1c0.6-0.8,1.7-1.3,2.9-1.3
		c2.7,0,4.1,1.8,4.1,5.2V56H352.1z"/>
	<path class="st6" d="M364.3,56v-1.1c-0.8,0.8-1.9,1.4-3.2,1.4c-1.9,0-4-1.1-4-3.9c0-2.6,2-3.7,4.6-3.7c1.1,0,1.9,0.2,2.6,0.4v-0.9
		c0-1.3-0.8-2-2.2-2c-1.2,0-2.1,0.2-3,0.7l-0.9-1.7c1.1-0.7,2.3-1,4-1c2.6,0,4.3,1.3,4.3,3.9V56H364.3z M364.3,51.1
		c-0.6-0.3-1.4-0.5-2.6-0.5c-1.5,0-2.4,0.7-2.4,1.7c0,1.1,0.7,1.9,2.2,1.9c1.2,0,2.3-0.7,2.8-1.5V51.1z"/>
	<path class="st6" d="M383.2,56v-6.5c0-2.3-0.7-3.2-2.2-3.2c-1.5,0-2.2,1.1-2.2,2.9V56h-2.3v-6.5c0-2.3-0.7-3.2-2.2-3.2
		c-1.5,0-2.2,1.1-2.2,2.9V56h-2.3V44.4h2.3v1.1c0.6-0.8,1.6-1.3,2.8-1.3c1.6,0,2.6,0.6,3.2,1.7c0.8-1,1.7-1.7,3.5-1.7
		c2.7,0,4,1.8,4,5.2V56H383.2z"/>
	<path class="st6" d="M398,51h-7.6c0.2,2.2,1.5,3.2,2.9,3.2c1,0,1.7-0.4,2.5-0.9l1.3,1.5c-1,1-2.2,1.5-4,1.5c-2.7,0-5-2.2-5-6
		c0-3.9,2.1-6,5.1-6c3.3,0,4.9,2.7,4.9,5.8C398,50.4,398,50.8,398,51z M393,46.2c-1.5,0-2.4,1.1-2.6,2.9h5.4
		C395.6,47.6,394.9,46.2,393,46.2z"/>
</g>
<g>
	<path class="st6" d="M326.1,109.1c-4,0-6.5-3.3-6.5-7.9s2.5-7.9,6.5-7.9c2.5,0,4.2,1,5.2,2.9l-2,1.3c-0.8-1.3-1.6-1.8-3.2-1.8
		c-2.7,0-4.1,2.2-4.1,5.6s1.5,5.6,4.1,5.6c1.6,0,2.6-0.7,3.4-1.9l1.9,1.3C330.3,108,328.5,109.1,326.1,109.1z"/>
	<path class="st6" d="M338.5,109.1c-2.9,0-5.1-2.4-5.1-6c0-3.8,2.2-6,5.1-6c2.9,0,5.1,2.4,5.1,6
		C343.7,106.8,341.5,109.1,338.5,109.1z M338.5,99.2c-1.7,0-2.8,1.5-2.8,3.8c0,2.5,1.2,3.9,2.9,3.9s2.8-1.7,2.8-3.9
		C341.4,100.7,340.3,99.2,338.5,99.2z"/>
	<path class="st6" d="M353.5,108.8v-6.5c0-2.3-0.9-3.2-2.4-3.2c-1.5,0-2.4,1.1-2.4,2.9v6.8h-2.3V97.3h2.3v1.1
		c0.6-0.8,1.7-1.3,2.9-1.3c2.7,0,4.1,1.8,4.1,5.2v6.6H353.5z"/>
	<path class="st6" d="M364.5,108.6c-0.5,0.3-1.3,0.5-2.2,0.5c-1.6,0-2.6-1-2.6-3.1v-6.7H358v-2.1h1.7V94l2.2-1.2v4.5h2.9v2.1h-2.9
		v6.3c0,1.1,0.4,1.4,1.2,1.4c0.6,0,1.3-0.2,1.7-0.5L364.5,108.6z"/>
	<path class="st6" d="M376.7,103.9H369c0.2,2.2,1.5,3.2,2.9,3.2c1,0,1.7-0.4,2.5-0.9l1.3,1.5c-1,1-2.2,1.5-4,1.5c-2.7,0-5-2.2-5-6
		c0-3.9,2.1-6,5.1-6c3.3,0,4.9,2.7,4.9,5.8C376.7,103.3,376.7,103.6,376.7,103.9z M371.7,99.1c-1.5,0-2.4,1.1-2.6,2.9h5.4
		C374.4,100.4,373.6,99.1,371.7,99.1z"/>
	<path class="st6" d="M386.6,108.8v-6.5c0-2.3-0.9-3.2-2.4-3.2c-1.5,0-2.4,1.1-2.4,2.9v6.8h-2.3V97.3h2.3v1.1
		c0.6-0.8,1.7-1.3,2.9-1.3c2.7,0,4.1,1.8,4.1,5.2v6.6H386.6z"/>
	<path class="st6" d="M397.5,108.6c-0.5,0.3-1.3,0.5-2.2,0.5c-1.6,0-2.6-1-2.6-3.1v-6.7H391v-2.1h1.7V94l2.2-1.2v4.5h2.9v2.1h-2.9
		v6.3c0,1.1,0.4,1.4,1.2,1.4c0.6,0,1.3-0.2,1.7-0.5L397.5,108.6z"/>
</g>
<g>
	<path class="st6" d="M64.9,377.9c-4,0-6.5-3.3-6.5-7.9c0-4.7,2.5-7.9,6.5-7.9c2.5,0,4.2,1,5.2,2.9l-2,1.3c-0.8-1.3-1.6-1.8-3.2-1.8
		c-2.7,0-4.1,2.2-4.1,5.6c0,3.5,1.5,5.6,4.1,5.6c1.6,0,2.6-0.7,3.4-1.9l1.9,1.3C69.1,376.8,67.3,377.9,64.9,377.9z"/>
	<path class="st6" d="M82.9,377.6v-6.9h-7.1v6.9h-2.3v-15.4h2.3v6.2h7.1v-6.2h2.3v15.4H82.9z"/>
	<path class="st6" d="M94.9,377.9c-3.8,0-5.8-2.5-5.8-6.7v-8.9h2.3v8.9c0,2.9,1.2,4.5,3.5,4.5c2.4,0,3.6-1.5,3.6-4.3v-9h2.3v9
		C100.8,375.5,98.8,377.9,94.9,377.9z"/>
	<path class="st6" d="M114.2,377.6l-6.1-9.7c-0.4-0.6-0.9-1.5-1.1-1.9c0,0.6,0,2.7,0,3.6v8h-2.2v-15.4h2.4l5.9,9.4
		c0.4,0.6,1.1,1.8,1.3,2.2c0-0.6,0-2.8,0-3.6v-7.9h2.2v15.4H114.2z"/>
	<path class="st6" d="M130,377.6l-4.4-7.9l-2.9,3.5v4.4h-2.2v-15.4h2.2v5.3c0,0.6,0,2.2,0,2.7c0.3-0.4,1.3-1.7,1.8-2.3l4.6-5.7h2.6
		l-4.5,5.6l5.5,9.8H130z"/>
</g>
<g>
	<path class="st6" d="M204.5,330.1v13.1h-2.3v-13.1h-4.5v-2.3H209v2.3H204.5z"/>
	<path class="st6" d="M212.1,343.2v-15.4h9.9v2.2h-7.6v3.8h4.4v2.2h-4.4v4.9h7.9v2.2H212.1z"/>
	<path class="st6" d="M229.9,343.4c-2.2,0-4.2-1-5.5-2.5l1.7-1.6c1,1.1,2.6,1.8,4,1.8c2.2,0,3.2-0.7,3.2-2.2c0-1.2-0.9-1.8-3.5-2.6
		c-3.3-1-4.8-1.8-4.8-4.5c0-2.7,2.2-4.3,5.1-4.3c2.1,0,3.7,0.8,5,2.1l-1.6,1.7c-1-1-2.1-1.5-3.6-1.5c-1.8,0-2.6,0.9-2.6,1.9
		c0,1.1,0.7,1.6,3.4,2.4c3,0.9,4.9,1.9,4.9,4.6C235.6,341.5,233.8,343.4,229.9,343.4z"/>
	<path class="st6" d="M244.3,330.1v13.1H242v-13.1h-4.5v-2.3h11.3v2.3H244.3z"/>
</g>
<g>
	<path class="st8" d="M336.7,434.4h-4.2V419h4.2c4.1,0,7.5,2.3,7.5,7.7C344.2,432.1,340.7,434.4,336.7,434.4z M336.7,421.2h-1.9
		v10.9h1.9c3.7,0,5.1-2.2,5.1-5.5S340.3,421.2,336.7,421.2z"/>
	<path class="st8" d="M347.4,434.4V419h9.9v2.2h-7.6v3.8h4.4v2.2h-4.4v4.9h7.9v2.2H347.4z"/>
	<path class="st8" d="M363.2,421.2v4h4.4v2.3h-4.4v6.8h-2.3V419h9.9v2.3H363.2z"/>
</g>
<g>
	<path class="st8" d="M213.1,434.4l-1.3-3.7h-6.2l-1.3,3.7h-2.4l5.5-15.4h2.4l5.6,15.4H213.1z M209.8,425.1c-0.4-1.1-1-2.9-1.2-3.5
		c-0.2,0.7-0.7,2.4-1.1,3.6l-1.2,3.5h4.8L209.8,425.1z"/>
	<path class="st8" d="M224.7,434.4h-6.1V419h6.3c2.7,0,4.4,1.4,4.4,4c0,1.6-0.8,2.5-2,3.1c1.2,0.3,2.6,1.5,2.6,3.6
		C230,432.8,228,434.4,224.7,434.4z M224.9,421.1h-4.1v4h4.1c1.5,0,2.1-0.9,2.1-2C227,421.9,226.4,421.1,224.9,421.1z M224.9,427.1
		h-4.2v5.1h4.1c2,0,2.8-1,2.8-2.6C227.6,428.1,226.7,427.1,224.9,427.1z"/>
	<path class="st8" d="M239,434.6c-4,0-6.5-3.3-6.5-7.9c0-4.7,2.5-7.9,6.5-7.9c2.5,0,4.2,1,5.2,2.9l-2,1.3c-0.8-1.3-1.6-1.8-3.2-1.8
		c-2.7,0-4.1,2.2-4.1,5.6c0,3.5,1.5,5.6,4.1,5.6c1.6,0,2.6-0.7,3.4-1.9l1.9,1.3C243.2,433.5,241.4,434.6,239,434.6z"/>
</g>
<g>
	<path class="st8" d="M468.1,434.6c-4,0-6.5-3.3-6.5-7.9c0-4.7,2.5-7.9,6.5-7.9c2.5,0,4.2,1,5.2,2.9l-2,1.3
		c-0.8-1.3-1.6-1.8-3.2-1.8c-2.7,0-4.2,2.2-4.2,5.6c0,3.5,1.5,5.6,4.2,5.6c2.5,0,3.5-1.7,3.5-3.5v-0.1h-2.5v-2.2h4.9v1.8
		C474,432.3,471.5,434.6,468.1,434.6z"/>
	<path class="st8" d="M486.6,434.4v-6.9h-7.1v6.9h-2.3V419h2.3v6.2h7.1V419h2.3v15.4H486.6z"/>
	<path class="st8" d="M493,434.4V419h2.3v15.4H493z"/>
</g>
<g>
	<path class="st8" d="M591.9,434.6c-2.9,0-4.6-1.5-5.4-4.1l2.2-0.7c0.6,1.6,1.5,2.4,3.2,2.4c2.2,0,3.1-1.3,3.1-4.2V419h2.3v9.3
		C597.4,432.4,595.6,434.6,591.9,434.6z"/>
	<path class="st8" d="M610.8,434.4l-4.4-7.9l-2.9,3.5v4.4h-2.2V419h2.2v5.3c0,0.6,0,2.2,0,2.7c0.3-0.4,1.3-1.7,1.8-2.3l4.6-5.7h2.6
		l-4.5,5.6l5.5,9.8H610.8z"/>
	<path class="st8" d="M616.3,434.4V419h2.3v13.1h7.7v2.3H616.3z"/>
</g>
<g>
	<path class="st8" d="M721.4,428.3v6.1h-2.3v-6.1l-5.5-9.3h2.7l2.4,4.2c0.5,0.9,1.3,2.5,1.6,3.1c0.3-0.6,1-2,1.6-3l2.4-4.3h2.7
		L721.4,428.3z"/>
	<path class="st8" d="M738,434.4l-1.7-3c-0.6-0.9-1.4-2.6-1.7-3.1c-0.3,0.6-1.1,2.1-1.7,3.1l-1.7,3h-2.7l4.8-7.9l-4.5-7.5h2.8
		l1.4,2.5c0.5,0.9,1.4,2.6,1.7,3.1c0.3-0.6,1.1-2.2,1.7-3.1l1.4-2.5h2.7l-4.5,7.4l4.8,8H738z"/>
	<path class="st8" d="M749.9,428.3v6.1h-2.3v-6.1l-5.5-9.3h2.7l2.4,4.2c0.5,0.9,1.3,2.5,1.6,3.1c0.3-0.6,1-2,1.6-3l2.4-4.3h2.7
		L749.9,428.3z"/>
</g>
<g>
	<path class="st8" d="M851.8,433l1,1.6l-1.9,1.2l-1-1.6c-0.7,0.3-1.5,0.4-2.3,0.4c-4,0-6.5-3.3-6.5-7.9c0-4.7,2.5-7.9,6.5-7.9
		c4,0,6.5,3.3,6.5,7.9C854.2,429.4,853.3,431.6,851.8,433z M847.6,421c-2.7,0-4.2,2.2-4.2,5.6c0,3.5,1.5,5.7,4.2,5.7
		c0.4,0,0.7,0,1-0.1l-1.1-1.7l1.9-1.2l1.1,1.8c0.9-1,1.3-2.5,1.3-4.4C851.8,423.2,850.4,421,847.6,421z"/>
	<path class="st8" d="M863.2,434.6c-4,0-6.5-3.3-6.5-7.9c0-4.7,2.5-7.9,6.5-7.9c2.5,0,4.2,1,5.2,2.9l-2,1.3
		c-0.8-1.3-1.6-1.8-3.2-1.8c-2.7,0-4.2,2.2-4.2,5.6c0,3.5,1.5,5.6,4.2,5.6c2.5,0,3.5-1.7,3.5-3.5v-0.1h-2.5v-2.2h4.9v1.8
		C869.1,432.3,866.7,434.6,863.2,434.6z"/>
	<path class="st8" d="M878.2,434.6c-4,0-6.5-3.3-6.5-7.9c0-4.7,2.5-7.9,6.5-7.9c2.5,0,4.2,1,5.2,2.9l-2,1.3
		c-0.8-1.3-1.6-1.8-3.2-1.8c-2.7,0-4.1,2.2-4.1,5.6c0,3.5,1.5,5.6,4.1,5.6c1.6,0,2.6-0.7,3.4-1.9l1.9,1.3
		C882.4,433.5,880.5,434.6,878.2,434.6z"/>
</g>
<g>
	<g>
		<path class="st6" d="M345.2,390.2c0.2-4.5,2.9-6.5,5.9-8.3c2.1-1.2,2.6-1.9,2.6-3c0-1.2-0.8-2-2.9-2c-1.3,0-2.7,0.6-3.7,1.5
			l-1.5-1.8c1.4-1.3,3.3-2.1,5.3-2.1c3.2,0,5.2,1.4,5.2,4.2c0,2.4-1.2,3.4-3.9,5c-2.9,1.7-3.8,2.7-4.1,4.2h8.2v2.2H345.2z"/>
	</g>
</g>
<g>
	<g>
		<path class="st6" d="M222.7,390.2v-11.8h-2.7v-1.6c1.6-0.1,2.9-0.6,3.2-2h1.9v15.4H222.7z"/>
	</g>
</g>
<g>
	<g>
		<path class="st6" d="M478.3,390.5c-2.2,0-4.5-1-5.5-2.6l1.8-1.5c0.9,1.2,2.4,1.8,3.8,1.8c2.5,0,3.4-0.9,3.4-2.5s-1.2-2.3-2.8-2.3
			h-1.4v-2.2h1.4c1.4,0,2.2-0.9,2.2-2.1c0-0.9-0.6-2.1-2.9-2.1c-1.2,0-2.2,0.5-3,1.4l-1.7-1.6c1.3-1.3,2.9-2.1,4.8-2.1
			c2.9,0,5.3,1.5,5.3,4.2c0,1.8-0.8,2.8-1.9,3.4c1.5,0.4,2.5,1.6,2.5,3.5C484.1,388.8,481.9,390.5,478.3,390.5z"/>
	</g>
</g>
<g>
	<g>
		<path class="st6" d="M610.8,386.8v3.5h-2.2v-3.4h-8.3v-2.2l7.9-9.8h2.6v9.9h2v2H610.8z M607.3,379.3l-3,3.8
			c-0.5,0.6-1.1,1.4-1.5,1.7c0.5,0,1.7,0,2.5,0h3.3v-4.5c0-0.9,0.1-2.2,0.1-2.8C608.4,377.8,607.8,378.6,607.3,379.3z"/>
	</g>
</g>
<g>
	<g>
		<path class="st6" d="M734.1,390.5c-2,0-3.7-0.5-5.4-1.5l1.1-1.9c1.3,0.7,2.9,1.2,4.3,1.2c2.4,0,3.7-1.2,3.7-3.1
			c0-1.8-1.2-2.8-3.1-2.8c-1.3,0-2.2,0.4-3,1l-2.5-1l0.5-7.5h9.5v2.2h-7.4l-0.3,3.9c0.9-0.5,1.9-0.8,3.3-0.8c3.5,0,5.3,2.1,5.3,4.9
			C740.1,388.8,737.6,390.5,734.1,390.5z"/>
	</g>
</g>
<g>
	<g>
		<path class="st6" d="M862.3,390.5c-3.2,0-5.8-1.8-5.8-6.1c0-4,2.2-9.5,9.5-9.7v2.2c-3.5,0.2-6,1.8-7,5c1.1-0.9,2.2-1.2,4-1.2
			c2.8,0,5.2,1.5,5.2,4.8C868.4,388.7,865.7,390.5,862.3,390.5z M862.5,382.7c-2.2,0-3.6,0.9-3.6,2.7c0,1.5,1.2,2.8,3.5,2.8
			c2.3,0,3.6-1.1,3.6-2.8C866,383.6,864.7,382.7,862.5,382.7z"/>
	</g>
</g>
<g>
	<path class="st6" d="M332.3,330.1v13.1H330v-13.1h-4.5v-2.3h11.3v2.3H332.3z"/>
	<path class="st6" d="M339.9,343.2v-15.4h9.9v2.2h-7.6v3.8h4.4v2.2h-4.4v4.9h7.9v2.2H339.9z"/>
	<path class="st6" d="M357.7,343.4c-2.2,0-4.2-1-5.5-2.5l1.7-1.6c1,1.1,2.6,1.8,4,1.8c2.2,0,3.2-0.7,3.2-2.2c0-1.2-0.9-1.8-3.5-2.6
		c-3.3-1-4.8-1.8-4.8-4.5c0-2.7,2.2-4.3,5.1-4.3c2.1,0,3.7,0.8,5,2.1l-1.6,1.7c-1-1-2.1-1.5-3.6-1.5c-1.8,0-2.6,0.9-2.6,1.9
		c0,1.1,0.7,1.6,3.4,2.4c3,0.9,4.9,1.9,4.9,4.6C363.4,341.5,361.6,343.4,357.7,343.4z"/>
	<path class="st6" d="M372.1,330.1v13.1h-2.3v-13.1h-4.5v-2.3h11.3v2.3H372.1z"/>
</g>
<g>
	<path class="st6" d="M460.2,330.1v13.1h-2.3v-13.1h-4.5v-2.3h11.3v2.3H460.2z"/>
	<path class="st6" d="M467.7,343.2v-15.4h9.9v2.2H470v3.8h4.4v2.2H470v4.9h7.9v2.2H467.7z"/>
	<path class="st6" d="M485.5,343.4c-2.2,0-4.2-1-5.5-2.5l1.7-1.6c1,1.1,2.6,1.8,4,1.8c2.2,0,3.2-0.7,3.2-2.2c0-1.2-0.9-1.8-3.5-2.6
		c-3.3-1-4.8-1.8-4.8-4.5c0-2.7,2.2-4.3,5.1-4.3c2.1,0,3.7,0.8,5,2.1l-1.6,1.7c-1-1-2.1-1.5-3.6-1.5c-1.8,0-2.6,0.9-2.6,1.9
		c0,1.1,0.7,1.6,3.4,2.4c3,0.9,4.9,1.9,4.9,4.6C491.2,341.5,489.4,343.4,485.5,343.4z"/>
	<path class="st6" d="M499.9,330.1v13.1h-2.3v-13.1h-4.5v-2.3h11.3v2.3H499.9z"/>
</g>
<g>
	<path class="st6" d="M588,330.1v13.1h-2.3v-13.1h-4.5v-2.3h11.3v2.3H588z"/>
	<path class="st6" d="M595.5,343.2v-15.4h9.9v2.2h-7.6v3.8h4.4v2.2h-4.4v4.9h7.9v2.2H595.5z"/>
	<path class="st6" d="M613.3,343.4c-2.2,0-4.2-1-5.5-2.5l1.7-1.6c1,1.1,2.6,1.8,4,1.8c2.2,0,3.2-0.7,3.2-2.2c0-1.2-0.9-1.8-3.5-2.6
		c-3.3-1-4.8-1.8-4.8-4.5c0-2.7,2.2-4.3,5.1-4.3c2.1,0,3.7,0.8,5,2.1l-1.6,1.7c-1-1-2.1-1.5-3.6-1.5c-1.8,0-2.6,0.9-2.6,1.9
		c0,1.1,0.7,1.6,3.4,2.4c3,0.9,4.9,1.9,4.9,4.6C619,341.5,617.3,343.4,613.3,343.4z"/>
	<path class="st6" d="M627.7,330.1v13.1h-2.3v-13.1h-4.5v-2.3h11.3v2.3H627.7z"/>
</g>
<g>
	<path class="st6" d="M715.8,330.1v13.1h-2.3v-13.1H709v-2.3h11.3v2.3H715.8z"/>
	<path class="st6" d="M723.3,343.2v-15.4h9.9v2.2h-7.6v3.8h4.4v2.2h-4.4v4.9h7.9v2.2H723.3z"/>
	<path class="st6" d="M741.1,343.4c-2.2,0-4.2-1-5.5-2.5l1.7-1.6c1,1.1,2.6,1.8,4,1.8c2.2,0,3.2-0.7,3.2-2.2c0-1.2-0.9-1.8-3.5-2.6
		c-3.3-1-4.8-1.8-4.8-4.5c0-2.7,2.2-4.3,5.1-4.3c2.1,0,3.7,0.8,5,2.1l-1.6,1.7c-1-1-2.1-1.5-3.6-1.5c-1.8,0-2.6,0.9-2.6,1.9
		c0,1.1,0.7,1.6,3.4,2.4c3,0.9,4.9,1.9,4.9,4.6C746.8,341.5,745.1,343.4,741.1,343.4z"/>
	<path class="st6" d="M755.6,330.1v13.1h-2.3v-13.1h-4.5v-2.3H760v2.3H755.6z"/>
</g>
<g>
	<path class="st6" d="M843.6,330.1v13.1h-2.3v-13.1h-4.5v-2.3h11.3v2.3H843.6z"/>
	<path class="st6" d="M851.1,343.2v-15.4h9.9v2.2h-7.6v3.8h4.4v2.2h-4.4v4.9h7.9v2.2H851.1z"/>
	<path class="st6" d="M868.9,343.4c-2.2,0-4.2-1-5.5-2.5l1.7-1.6c1,1.1,2.6,1.8,4,1.8c2.2,0,3.2-0.7,3.2-2.2c0-1.2-0.9-1.8-3.5-2.6
		c-3.3-1-4.8-1.8-4.8-4.5c0-2.7,2.2-4.3,5.1-4.3c2.1,0,3.7,0.8,5,2.1l-1.6,1.7c-1-1-2.1-1.5-3.6-1.5c-1.8,0-2.6,0.9-2.6,1.9
		c0,1.1,0.7,1.6,3.4,2.4c3,0.9,4.9,1.9,4.9,4.6C874.6,341.5,872.9,343.4,868.9,343.4z"/>
	<path class="st6" d="M883.4,330.1v13.1h-2.3v-13.1h-4.5v-2.3h11.3v2.3H883.4z"/>
</g>
<g>
	<path class="st6" d="M202.3,651.5c-4,0-6.5-3.3-6.5-7.9c0-4.7,2.5-7.9,6.5-7.9c4,0,6.5,3.3,6.5,7.9
		C208.9,648.2,206.3,651.5,202.3,651.5z M202.3,637.9c-2.7,0-4.2,2.2-4.2,5.6c0,3.5,1.5,5.6,4.2,5.6c2.7,0,4.2-2.2,4.2-5.6
		C206.5,640.1,205,637.9,202.3,637.9z"/>
	<path class="st6" d="M216.4,651.5c-2.2,0-4.2-1-5.5-2.5l1.7-1.6c1,1.1,2.6,1.8,4,1.8c2.2,0,3.2-0.7,3.2-2.2c0-1.2-0.9-1.8-3.5-2.6
		c-3.3-1-4.8-1.8-4.8-4.5c0-2.7,2.2-4.3,5.1-4.3c2.1,0,3.7,0.8,5,2.1l-1.6,1.7c-1-1-2.1-1.5-3.6-1.5c-1.8,0-2.6,0.9-2.6,1.9
		c0,1.1,0.7,1.6,3.4,2.4c3,0.9,4.9,1.9,4.9,4.6C222.1,649.6,220.4,651.5,216.4,651.5z"/>
	<path class="st6" d="M229.8,651.2h-4.2v-15.4h4.2c4.1,0,7.5,2.3,7.5,7.7C237.3,649,233.8,651.2,229.8,651.2z M229.8,638.1h-1.9V649
		h1.9c3.7,0,5.1-2.2,5.1-5.5S233.5,638.1,229.8,638.1z"/>
	<path class="st6" d="M247.6,651.2v-11.8h-2.7v-1.6c1.6-0.1,2.9-0.6,3.2-2h1.9v15.4H247.6z"/>
</g>
<g>
	<path class="st6" d="M326.9,651.5c-4,0-6.5-3.3-6.5-7.9c0-4.7,2.5-7.9,6.5-7.9c4,0,6.5,3.3,6.5,7.9
		C333.5,648.2,331,651.5,326.9,651.5z M326.9,637.9c-2.7,0-4.2,2.2-4.2,5.6c0,3.5,1.5,5.6,4.2,5.6c2.7,0,4.2-2.2,4.2-5.6
		C331.1,640.1,329.7,637.9,326.9,637.9z"/>
	<path class="st6" d="M341.1,651.5c-2.2,0-4.2-1-5.5-2.5l1.7-1.6c1,1.1,2.6,1.8,4,1.8c2.2,0,3.2-0.7,3.2-2.2c0-1.2-0.9-1.8-3.5-2.6
		c-3.3-1-4.8-1.8-4.8-4.5c0-2.7,2.2-4.3,5.1-4.3c2.1,0,3.7,0.8,5,2.1l-1.6,1.7c-1-1-2.1-1.5-3.6-1.5c-1.8,0-2.6,0.9-2.6,1.9
		c0,1.1,0.7,1.6,3.4,2.4c3,0.9,4.9,1.9,4.9,4.6C346.8,649.6,345,651.5,341.1,651.5z"/>
	<path class="st6" d="M354.4,651.2h-4.2v-15.4h4.2c4.1,0,7.5,2.3,7.5,7.7C361.9,649,358.4,651.2,354.4,651.2z M354.4,638.1h-1.9V649
		h1.9c3.7,0,5.1-2.2,5.1-5.5S358.1,638.1,354.4,638.1z"/>
	<path class="st6" d="M370.1,651.2c0.2-4.5,2.9-6.5,5.9-8.3c2.1-1.2,2.6-1.9,2.6-3c0-1.2-0.8-2-2.9-2c-1.3,0-2.7,0.6-3.7,1.5
		l-1.5-1.8c1.4-1.3,3.3-2.1,5.3-2.1c3.2,0,5.2,1.4,5.2,4.2c0,2.4-1.2,3.4-3.9,5c-2.9,1.7-3.8,2.7-4.1,4.2h8.2v2.2H370.1z"/>
</g>
<g>
	<path class="st6" d="M455,651.5c-4,0-6.5-3.3-6.5-7.9c0-4.7,2.5-7.9,6.5-7.9c4,0,6.5,3.3,6.5,7.9C461.5,648.2,459,651.5,455,651.5z
		 M455,637.9c-2.7,0-4.2,2.2-4.2,5.6c0,3.5,1.5,5.6,4.2,5.6c2.7,0,4.2-2.2,4.2-5.6C459.2,640.1,457.7,637.9,455,637.9z"/>
	<path class="st6" d="M469.1,651.5c-2.2,0-4.2-1-5.5-2.5l1.7-1.6c1,1.1,2.6,1.8,4,1.8c2.2,0,3.2-0.7,3.2-2.2c0-1.2-0.9-1.8-3.5-2.6
		c-3.3-1-4.8-1.8-4.8-4.5c0-2.7,2.2-4.3,5.1-4.3c2.1,0,3.7,0.8,5,2.1l-1.6,1.7c-1-1-2.1-1.5-3.6-1.5c-1.8,0-2.6,0.9-2.6,1.9
		c0,1.1,0.7,1.6,3.4,2.4c3,0.9,4.9,1.9,4.9,4.6C474.8,649.6,473,651.5,469.1,651.5z"/>
	<path class="st6" d="M482.4,651.2h-4.2v-15.4h4.2c4.1,0,7.5,2.3,7.5,7.7C490,649,486.5,651.2,482.4,651.2z M482.4,638.1h-1.9V649
		h1.9c3.7,0,5.1-2.2,5.1-5.5S486.1,638.1,482.4,638.1z"/>
	<path class="st6" d="M503.3,651.5c-2.2,0-4.5-1-5.5-2.6l1.8-1.5c0.9,1.2,2.4,1.8,3.8,1.8c2.5,0,3.4-0.9,3.4-2.5s-1.2-2.3-2.8-2.3
		h-1.4v-2.2h1.4c1.4,0,2.2-0.9,2.2-2.1c0-0.9-0.6-2.1-2.9-2.1c-1.2,0-2.2,0.5-3,1.4l-1.7-1.6c1.3-1.3,2.9-2.1,4.8-2.1
		c2.9,0,5.3,1.5,5.3,4.2c0,1.8-0.8,2.8-1.9,3.4c1.5,0.4,2.5,1.6,2.5,3.5C509,649.8,506.9,651.5,503.3,651.5z"/>
</g>
<g>
	<path class="st6" d="M582.2,651.5c-4,0-6.5-3.3-6.5-7.9c0-4.7,2.5-7.9,6.5-7.9c4,0,6.5,3.3,6.5,7.9
		C588.7,648.2,586.2,651.5,582.2,651.5z M582.2,637.9c-2.7,0-4.2,2.2-4.2,5.6c0,3.5,1.5,5.6,4.2,5.6c2.7,0,4.2-2.2,4.2-5.6
		C586.4,640.1,584.9,637.9,582.2,637.9z"/>
	<path class="st6" d="M596.3,651.5c-2.2,0-4.2-1-5.5-2.5l1.7-1.6c1,1.1,2.6,1.8,4,1.8c2.2,0,3.2-0.7,3.2-2.2c0-1.2-0.9-1.8-3.5-2.6
		c-3.3-1-4.8-1.8-4.8-4.5c0-2.7,2.2-4.3,5.1-4.3c2.1,0,3.7,0.8,5,2.1l-1.6,1.7c-1-1-2.1-1.5-3.6-1.5c-1.8,0-2.6,0.9-2.6,1.9
		c0,1.1,0.7,1.6,3.4,2.4c3,0.9,4.9,1.9,4.9,4.6C602,649.6,600.2,651.5,596.3,651.5z"/>
	<path class="st6" d="M609.7,651.2h-4.2v-15.4h4.2c4.1,0,7.5,2.3,7.5,7.7C617.2,649,613.7,651.2,609.7,651.2z M609.7,638.1h-1.9V649
		h1.9c3.7,0,5.1-2.2,5.1-5.5S613.3,638.1,609.7,638.1z"/>
	<path class="st6" d="M635.8,647.8v3.5h-2.2v-3.4h-8.3v-2.2l7.9-9.8h2.6v9.9h2v2H635.8z M632.2,640.3l-3,3.8
		c-0.5,0.6-1.1,1.4-1.5,1.7c0.5,0,1.7,0,2.5,0h3.3v-4.5c0-0.9,0.1-2.2,0.1-2.8C633.3,638.8,632.8,639.6,632.2,640.3z"/>
</g>
<g>
	<path class="st6" d="M710.3,651.5c-4,0-6.5-3.3-6.5-7.9c0-4.7,2.5-7.9,6.5-7.9c4,0,6.5,3.3,6.5,7.9
		C716.9,648.2,714.3,651.5,710.3,651.5z M710.3,637.9c-2.7,0-4.2,2.2-4.2,5.6c0,3.5,1.5,5.6,4.2,5.6c2.7,0,4.2-2.2,4.2-5.6
		C714.5,640.1,713.1,637.9,710.3,637.9z"/>
	<path class="st6" d="M724.4,651.5c-2.2,0-4.2-1-5.5-2.5l1.7-1.6c1,1.1,2.6,1.8,4,1.8c2.2,0,3.2-0.7,3.2-2.2c0-1.2-0.9-1.8-3.5-2.6
		c-3.3-1-4.8-1.8-4.8-4.5c0-2.7,2.2-4.3,5.1-4.3c2.1,0,3.7,0.8,5,2.1l-1.6,1.7c-1-1-2.1-1.5-3.6-1.5c-1.8,0-2.6,0.9-2.6,1.9
		c0,1.1,0.7,1.6,3.4,2.4c3,0.9,4.9,1.9,4.9,4.6C730.1,649.6,728.4,651.5,724.4,651.5z"/>
	<path class="st6" d="M737.8,651.2h-4.2v-15.4h4.2c4.1,0,7.5,2.3,7.5,7.7C745.3,649,741.8,651.2,737.8,651.2z M737.8,638.1h-1.9V649
		h1.9c3.7,0,5.1-2.2,5.1-5.5S741.5,638.1,737.8,638.1z"/>
	<path class="st6" d="M759,651.5c-2,0-3.7-0.5-5.4-1.5l1.1-1.9c1.3,0.7,2.9,1.2,4.3,1.2c2.4,0,3.7-1.2,3.7-3.1
		c0-1.8-1.2-2.8-3.1-2.8c-1.3,0-2.2,0.4-3,1l-2.5-1l0.5-7.5h9.5v2.2h-7.4l-0.3,3.9c0.9-0.5,1.9-0.8,3.3-0.8c3.5,0,5.3,2.1,5.3,4.9
		C765.1,649.8,762.6,651.5,759,651.5z"/>
</g>
<g>
	<path class="st6" d="M838.2,651.5c-4,0-6.5-3.3-6.5-7.9c0-4.7,2.5-7.9,6.5-7.9c4,0,6.5,3.3,6.5,7.9
		C844.7,648.2,842.2,651.5,838.2,651.5z M838.2,637.9c-2.7,0-4.2,2.2-4.2,5.6c0,3.5,1.5,5.6,4.2,5.6c2.7,0,4.2-2.2,4.2-5.6
		C842.3,640.1,840.9,637.9,838.2,637.9z"/>
	<path class="st6" d="M852.3,651.5c-2.2,0-4.2-1-5.5-2.5l1.7-1.6c1,1.1,2.6,1.8,4,1.8c2.2,0,3.2-0.7,3.2-2.2c0-1.2-0.9-1.8-3.5-2.6
		c-3.3-1-4.8-1.8-4.8-4.5c0-2.7,2.2-4.3,5.1-4.3c2.1,0,3.7,0.8,5,2.1l-1.6,1.7c-1-1-2.1-1.5-3.6-1.5c-1.8,0-2.6,0.9-2.6,1.9
		c0,1.1,0.7,1.6,3.4,2.4c3,0.9,4.9,1.9,4.9,4.6C858,649.6,856.2,651.5,852.3,651.5z"/>
	<path class="st6" d="M865.6,651.2h-4.2v-15.4h4.2c4.1,0,7.5,2.3,7.5,7.7C873.1,649,869.6,651.2,865.6,651.2z M865.6,638.1h-1.9V649
		h1.9c3.7,0,5.1-2.2,5.1-5.5S869.3,638.1,865.6,638.1z"/>
	<path class="st6" d="M887.3,651.5c-3.2,0-5.8-1.8-5.8-6.1c0-4,2.2-9.5,9.5-9.7v2.2c-3.5,0.2-6,1.8-7,5c1.1-0.9,2.2-1.2,4-1.2
		c2.8,0,5.2,1.5,5.2,4.8C893.3,649.7,890.7,651.5,887.3,651.5z M887.5,643.7c-2.2,0-3.6,0.9-3.6,2.7c0,1.5,1.2,2.8,3.5,2.8
		c2.3,0,3.6-1.1,3.6-2.8C891,644.5,889.7,643.7,887.5,643.7z"/>
</g>
<g>
	<path class="st8" d="M477.2,125.2l-1.3-3.7h-6.2l-1.3,3.7H466l5.5-15.4h2.4l5.6,15.4H477.2z M473.9,115.9c-0.4-1.1-1-2.9-1.2-3.5
		c-0.2,0.7-0.7,2.4-1.1,3.6l-1.2,3.5h4.8L473.9,115.9z"/>
	<path class="st8" d="M488.8,125.2h-6.1v-15.4h6.3c2.7,0,4.4,1.4,4.4,4c0,1.6-0.8,2.5-2,3.1c1.2,0.3,2.6,1.5,2.6,3.6
		C494,123.6,492.1,125.2,488.8,125.2z M489,111.9h-4.1v4h4.1c1.5,0,2.1-0.9,2.1-2C491.1,112.8,490.5,111.9,489,111.9z M489,118h-4.2
		v5.1h4.1c2,0,2.8-1,2.8-2.6C491.7,118.9,490.7,118,489,118z"/>
	<path class="st8" d="M503.1,125.4c-4,0-6.5-3.3-6.5-7.9s2.5-7.9,6.5-7.9c2.5,0,4.2,1,5.2,2.9l-2,1.3c-0.8-1.3-1.6-1.8-3.2-1.8
		c-2.7,0-4.1,2.2-4.1,5.6s1.5,5.6,4.1,5.6c1.6,0,2.6-0.7,3.4-1.9l1.9,1.3C507.3,124.4,505.5,125.4,503.1,125.4z"/>
	<path class="st8" d="M516,125.2h-4.2v-15.4h4.2c4.1,0,7.5,2.3,7.5,7.7C523.5,122.9,520,125.2,516,125.2z M516,112h-1.9V123h1.9
		c3.7,0,5.1-2.2,5.1-5.5S519.6,112,516,112z"/>
	<path class="st8" d="M526.7,125.2v-15.4h9.9v2.2H529v3.8h4.4v2.2H529v4.9h7.9v2.2H526.7z"/>
	<path class="st8" d="M542.5,112.1v4h4.4v2.3h-4.4v6.8h-2.3v-15.4h9.9v2.3H542.5z"/>
	<path class="st8" d="M558.1,125.4c-4,0-6.5-3.3-6.5-7.9s2.5-7.9,6.5-7.9c2.5,0,4.2,1,5.2,2.9l-2,1.3c-0.8-1.3-1.6-1.8-3.2-1.8
		c-2.7,0-4.2,2.2-4.2,5.6s1.5,5.6,4.2,5.6c2.5,0,3.5-1.7,3.5-3.5v-0.1h-2.5v-2.2h4.9v1.8C563.9,123.1,561.5,125.4,558.1,125.4z"/>
	<path class="st8" d="M576.6,125.2v-6.9h-7.1v6.9h-2.3v-15.4h2.3v6.2h7.1v-6.2h2.3v15.4H576.6z"/>
	<path class="st8" d="M583,125.2v-15.4h2.3v15.4H583z"/>
	<path class="st8" d="M593.4,125.4c-2.9,0-4.6-1.5-5.4-4.1l2.2-0.7c0.6,1.6,1.5,2.4,3.2,2.4c2.2,0,3.1-1.3,3.1-4.2v-9.2h2.3v9.3
		C598.8,123.3,597.1,125.4,593.4,125.4z"/>
	<path class="st8" d="M612.3,125.2l-4.4-7.9l-2.9,3.5v4.4h-2.2v-15.4h2.2v5.3c0,0.6,0,2.2,0,2.7c0.3-0.4,1.3-1.7,1.8-2.3l4.6-5.7
		h2.6l-4.5,5.6l5.5,9.8H612.3z"/>
	<path class="st8" d="M617.8,125.2v-15.4h2.3v13.1h7.7v2.3H617.8z"/>
</g>
<g>
	<g>
		<path class="st6" d="M481.1,213.2v-15.4h9.9v2.2h-7.6v3.8h4.4v2.2h-4.4v4.9h7.9v2.2H481.1z"/>
		<path class="st6" d="M501.3,213.2v-6.5c0-2.3-0.9-3.2-2.4-3.2c-1.5,0-2.4,1.1-2.4,2.9v6.8h-2.3v-11.6h2.3v1.1
			c0.6-0.8,1.7-1.3,2.9-1.3c2.7,0,4.1,1.8,4.1,5.2v6.6H501.3z"/>
		<path class="st6" d="M514.1,204.9c-0.9-1-1.8-1.4-2.8-1.4c-1.6,0-2.7,1.5-2.7,3.8c0,2.3,1,3.9,2.8,3.9c1.1,0,1.7-0.5,2.6-1.4
			l1.5,1.4c-0.9,1.1-2,2.2-4.1,2.2c-2.8,0-5-2.4-5-6c0-3.8,2.2-6.1,5.1-6.1c1.7,0,3,0.7,4.1,2L514.1,204.9z"/>
		<path class="st6" d="M522.5,213.4c-2.9,0-5.1-2.4-5.1-6c0-3.8,2.2-6,5.1-6c2.9,0,5.1,2.4,5.1,6
			C527.7,211.2,525.4,213.4,522.5,213.4z M522.4,203.5c-1.7,0-2.8,1.5-2.8,3.8c0,2.5,1.2,3.9,2.9,3.9s2.8-1.7,2.8-3.9
			C525.4,205.1,524.3,203.5,522.4,203.5z"/>
		<path class="st6" d="M537.4,213.2v-1.1c-0.8,0.8-1.8,1.3-3,1.3c-2.5,0-4.4-1.8-4.4-6.2c0-4,2.2-5.8,4.6-5.8c1.2,0,2.3,0.6,2.9,1.3
			v-4.4l2.2-1.2v16H537.4z M537.4,205c-0.5-0.7-1.6-1.5-2.7-1.5c-1.6,0-2.5,1.2-2.5,3.7c0,2.9,0.9,4.2,2.6,4.2c1.1,0,2-0.7,2.6-1.5
			V205z"/>
		<path class="st6" d="M552.3,208.2h-7.6c0.2,2.2,1.5,3.2,2.9,3.2c1,0,1.7-0.4,2.5-0.9l1.3,1.5c-1,1-2.2,1.5-4,1.5c-2.7,0-5-2.2-5-6
			c0-3.9,2.1-6,5.1-6c3.3,0,4.9,2.7,4.9,5.8C552.4,207.6,552.3,208,552.3,208.2z M547.4,203.4c-1.5,0-2.4,1.1-2.6,2.9h5.4
			C550,204.7,549.2,203.4,547.4,203.4z"/>
		<path class="st6" d="M565,215.6c-2.2-2.1-4.3-5-4.3-9c0-4.1,2-7,4.3-9.2l1.1,1c-2,2.2-3,4.7-3,8.1c0,3.6,1.2,6,3,8.1L565,215.6z"
			/>
		<path class="st6" d="M578.7,209.7v3.5h-2.2v-3.4h-8.3v-2.2l7.9-9.8h2.6v9.9h2v2H578.7z M575.1,202.2l-3,3.8
			c-0.5,0.6-1.1,1.4-1.5,1.7c0.5,0,1.7,0,2.5,0h3.3v-4.5c0-0.9,0.1-2.2,0.1-2.8C576.2,200.8,575.7,201.6,575.1,202.2z"/>
		<path class="st6" d="M584.3,215.9h-1.6l0.3-5.8h2.9L584.3,215.9z"/>
		<path class="st6" d="M594.2,213.2c0.2-4.5,2.9-6.5,5.9-8.3c2.1-1.2,2.6-1.9,2.6-3c0-1.2-0.8-2-2.9-2c-1.3,0-2.7,0.6-3.7,1.5
			l-1.5-1.8c1.4-1.3,3.3-2.1,5.3-2.1c3.2,0,5.2,1.4,5.2,4.2c0,2.4-1.2,3.4-3.9,5c-2.9,1.7-3.8,2.7-4.1,4.2h8.2v2.2H594.2z"/>
		<path class="st6" d="M609.2,215.6l-1.1-1c2-2.2,3-4.7,3-8.1c0-3.6-1.2-6-3-8.1l1.1-1c2.2,2.1,4.3,5,4.3,9
			C613.5,210.5,611.5,213.4,609.2,215.6z"/>
	</g>
</g>
<g>
	<g>
		<path class="st6" d="M961.1,377.6v-15.4h9.9v2.2h-7.6v3.8h4.4v2.2h-4.4v4.9h7.9v2.2H961.1z"/>
		<path class="st6" d="M984.1,377.6L978,368c-0.4-0.6-0.9-1.5-1.1-1.9c0,0.6,0,2.7,0,3.6v8h-2.2v-15.4h2.4l5.9,9.4
			c0.4,0.6,1.1,1.8,1.3,2.2c0-0.6,0-2.8,0-3.6v-7.9h2.2v15.4H984.1z"/>
		<path class="st6" d="M996.1,377.9c-4,0-6.5-3.3-6.5-7.9c0-4.7,2.5-7.9,6.5-7.9c2.5,0,4.2,1,5.2,2.9l-2,1.3
			c-0.8-1.3-1.6-1.8-3.2-1.8c-2.7,0-4.1,2.2-4.1,5.6c0,3.5,1.5,5.6,4.1,5.6c1.6,0,2.6-0.7,3.4-1.9l1.9,1.3
			C1000.3,376.8,998.4,377.9,996.1,377.9z"/>
		<path class="st6" d="M1010,377.9c-4,0-6.5-3.3-6.5-7.9c0-4.7,2.5-7.9,6.5-7.9c4,0,6.5,3.3,6.5,7.9
			C1016.5,374.6,1014,377.9,1010,377.9z M1010,364.3c-2.7,0-4.2,2.2-4.2,5.6c0,3.5,1.5,5.6,4.2,5.6c2.7,0,4.2-2.2,4.2-5.6
			C1014.2,366.5,1012.7,364.3,1010,364.3z"/>
		<path class="st6" d="M1024,377.6h-4.2v-15.4h4.2c4.1,0,7.5,2.3,7.5,7.7C1031.5,375.4,1028,377.6,1024,377.6z M1024,364.5h-1.9
			v10.9h1.9c3.7,0,5.1-2.2,5.1-5.5S1027.7,364.5,1024,364.5z"/>
		<path class="st6" d="M1034.7,377.6v-15.4h9.9v2.2h-7.6v3.8h4.4v2.2h-4.4v4.9h7.9v2.2H1034.7z"/>
		<path class="st6" d="M1052.5,377.6h-4.2v-15.4h4.2c4.1,0,7.5,2.3,7.5,7.7C1060,375.4,1056.5,377.6,1052.5,377.6z M1052.5,364.5
			h-1.9v10.9h1.9c3.7,0,5.1-2.2,5.1-5.5S1056.1,364.5,1052.5,364.5z"/>
	</g>
</g>
<g>
</g>
</svg>
