<?xml version="1.0" encoding="utf-8"?>
<!-- Generator: Adobe Illustrator 22.0.1, SVG Export Plug-In . SVG Version: 6.00 Build 0)  -->
<svg version="1.1"
	 id="svg8" inkscape:export-filename="/home/hquatrem/dev/CEPH125/chap16/crushconf-crushconf-default-hierarchy.png" inkscape:export-xdpi="96" inkscape:export-ydpi="96" inkscape:version="0.92.2 (5c3e80d, 2017-08-06)" sodipodi:docname="crushconf-crushconf-default-hierarchy.svg" xmlns:cc="http://creativecommons.org/ns#" xmlns:dc="http://purl.org/dc/elements/1.1/" xmlns:inkscape="http://www.inkscape.org/namespaces/inkscape" xmlns:rdf="http://www.w3.org/1999/02/22-rdf-syntax-ns#" xmlns:sodipodi="http://sodipodi.sourceforge.net/DTD/sodipodi-0.dtd" xmlns:svg="http://www.w3.org/2000/svg"
	 xmlns="http://www.w3.org/2000/svg" xmlns:xlink="http://www.w3.org/1999/xlink" x="0px" y="0px" width="719.3px" height="393.1px"
	 viewBox="0 0 719.3 393.1" style="enable-background:new 0 0 719.3 393.1;" xml:space="preserve">
<style type="text/css">
	.st0{fill:#E6E6E6;}
	.st1{fill:none;stroke:#4C4C4C;}
	.st2{fill:#FFFFFF;}
	.st3{enable-background:new    ;}
	.st4{fill:#4C4C4C;}
	.st5{fill:#FFFFFF;stroke:#4C4C4C;stroke-width:1.4111;stroke-linecap:round;}
	.st6{fill:#4C4C4C;stroke:#4C4C4C;stroke-width:0.7056;}
	.st7{fill:#FFFFFF;stroke:#4C4C4C;stroke-width:0.7056;stroke-linecap:round;}
</style>
<sodipodi:namedview  bordercolor="#666666" borderopacity="1.0" fit-margin-bottom="0" fit-margin-left="0" fit-margin-right="0" fit-margin-top="0" id="base" inkscape:current-layer="layer3" inkscape:cx="497.86053" inkscape:cy="88.060402" inkscape:document-units="mm" inkscape:pageopacity="0.0" inkscape:pageshadow="2" inkscape:window-height="1172" inkscape:window-maximized="1" inkscape:window-width="1920" inkscape:window-x="1920" inkscape:window-y="0" inkscape:zoom="0.7" pagecolor="#ffffff" showgrid="false" showguides="false">
	</sodipodi:namedview>
<rect id="rect4699" class="st0" width="719.3" height="393.1"/>
<path id="path4682" inkscape:connector-curvature="0" class="st1" d="M67.1,301.8v-35.9"/>
<path id="path4684" inkscape:connector-curvature="0" class="st1" d="M184.2,301.4v-35.5"/>
<path id="path4686" inkscape:connector-curvature="0" class="st1" d="M301.3,301.8v-35.9"/>
<path id="path4688" inkscape:connector-curvature="0" class="st1" d="M418.7,303.9v-38"/>
<path id="path4690" inkscape:connector-curvature="0" class="st1" d="M652.6,304.3v-38.4"/>
<path id="path4692" inkscape:connector-curvature="0" class="st1" d="M535.8,304.6v-38.7"/>
<path id="path1917" inkscape:connector-curvature="0" class="st1" d="M68.1,195.7v-33.3H652V199"/>
<path id="path1919" inkscape:connector-curvature="0" class="st1" d="M360.5,162.4v-36.6"/>
<path id="path1921" inkscape:connector-curvature="0" class="st1" d="M184,192.9v-30.5"/>
<path id="path1923" inkscape:connector-curvature="0" class="st1" d="M301.3,195.3v-32.9"/>
<path id="path1925" inkscape:connector-curvature="0" class="st1" d="M418.4,195.3v-32.9"/>
<path id="path1927" inkscape:connector-curvature="0" class="st1" d="M535.5,195.3v-32.9"/>
<rect id="rect1014-3-4-0" x="14.6" y="188.5" class="st2" width="104.9" height="82.8"/>
<rect id="rect1014-3-4-0_1_" x="131.5" y="188.5" class="st2" width="104.9" height="82.8"/>
<rect id="rect1014-3-4-0_2_" x="248.8" y="188.5" class="st2" width="104.9" height="82.8"/>
<rect id="rect1014-3-4-0_3_" x="366" y="188.5" class="st2" width="104.9" height="82.8"/>
<rect id="rect1014-3-4-0_4_" x="483.1" y="188.5" class="st2" width="104.9" height="82.8"/>
<rect id="rect1014-3-4-0_5_" x="600.2" y="188.5" class="st2" width="104.9" height="82.8"/>
<rect id="rect1014-3-4-0_11_" x="14.6" y="292.6" class="st2" width="104.9" height="82.8"/>
<rect id="rect1014-3-4-0_10_" x="131.7" y="292.6" class="st2" width="104.9" height="82.8"/>
<rect id="rect1014-3-4-0_9_" x="248.8" y="292.6" class="st2" width="104.9" height="82.8"/>
<rect id="rect1014-3-4-0_8_" x="366" y="292.6" class="st2" width="104.9" height="82.8"/>
<rect id="rect1014-3-4-0_7_" x="483.1" y="292.6" class="st2" width="104.9" height="82.8"/>
<rect id="rect1014-3-4-0_6_" x="600.2" y="292.6" class="st2" width="104.9" height="82.8"/>
<g class="st3">
	<path class="st4" d="M49,245.3c-0.9,0-1.8-0.3-2.4-0.8l0.6-0.9c0.6,0.4,1.2,0.6,1.8,0.6c0.8,0,1.2-0.3,1.2-0.7
		c0-0.5-0.6-0.7-1.5-1.1c-1.4-0.5-1.8-1-1.8-2c0-1.1,0.9-1.7,2.1-1.7c0.8,0,1.6,0.3,2.1,0.7l-0.5,0.9c-0.5-0.4-1-0.5-1.6-0.5
		c-0.6,0-0.9,0.2-0.9,0.6c0,0.3,0.2,0.5,1.2,0.9c1.4,0.5,2.1,0.9,2.1,2.1C51.4,244.8,50.2,245.3,49,245.3z"/>
	<path class="st4" d="M57.9,242.5h-4.2c0.1,1.2,0.8,1.7,1.6,1.7c0.5,0,0.9-0.2,1.4-0.5l0.7,0.8c-0.6,0.5-1.2,0.8-2.2,0.8
		c-1.5,0-2.7-1.2-2.7-3.3c0-2.1,1.1-3.3,2.8-3.3c1.8,0,2.7,1.5,2.7,3.2C57.9,242.1,57.9,242.3,57.9,242.5z M55.2,239.9
		c-0.8,0-1.3,0.6-1.4,1.6h2.9C56.6,240.6,56.2,239.9,55.2,239.9z"/>
	<path class="st4" d="M62.9,240.2c-0.3-0.1-0.5-0.2-0.9-0.2c-0.8,0-1.2,0.6-1.2,1.6v3.6h-1.2v-6.3h1.2v0.6c0.3-0.4,0.8-0.7,1.4-0.7
		c0.5,0,0.8,0.1,1.1,0.3L62.9,240.2z"/>
	<path class="st4" d="M67.5,245.2h-1.2l-2.3-6.3h1.3l1.1,3.4c0.2,0.6,0.4,1.2,0.5,1.5c0.1-0.3,0.2-0.9,0.4-1.5l1.1-3.4h1.3
		L67.5,245.2z"/>
	<path class="st4" d="M75.9,242.5h-4.2c0.1,1.2,0.8,1.7,1.6,1.7c0.5,0,0.9-0.2,1.4-0.5l0.7,0.8c-0.6,0.5-1.2,0.8-2.2,0.8
		c-1.5,0-2.7-1.2-2.7-3.3c0-2.1,1.1-3.3,2.8-3.3c1.8,0,2.7,1.5,2.7,3.2C75.9,242.1,75.9,242.3,75.9,242.5z M73.2,239.9
		c-0.8,0-1.3,0.6-1.4,1.6h2.9C74.6,240.6,74.2,239.9,73.2,239.9z"/>
	<path class="st4" d="M80.9,240.2c-0.3-0.1-0.5-0.2-0.9-0.2c-0.8,0-1.2,0.6-1.2,1.6v3.6h-1.2v-6.3h1.2v0.6c0.3-0.4,0.8-0.7,1.4-0.7
		c0.5,0,0.8,0.1,1.1,0.3L80.9,240.2z"/>
	<path class="st4" d="M84.2,247.5l-0.4-0.9c1.8-0.1,2.2-0.6,2.2-1.9v-0.1c-0.5,0.4-1,0.7-1.6,0.7c-1.3,0-2.4-1-2.4-3.4
		c0-2.2,1.2-3.2,2.5-3.2c0.6,0,1.2,0.3,1.6,0.7v-0.6h1.2v5.7C87.1,246.5,86.4,247.4,84.2,247.5z M85.9,240.7
		c-0.3-0.4-0.9-0.8-1.5-0.8c-0.9,0-1.4,0.7-1.4,2c0,1.6,0.5,2.3,1.4,2.3c0.6,0,1.1-0.4,1.4-0.8V240.7z"/>
</g>
<g class="st3">
	<path class="st4" d="M166,245.3c-0.9,0-1.8-0.3-2.4-0.8l0.6-0.9c0.6,0.4,1.2,0.6,1.8,0.6c0.8,0,1.2-0.3,1.2-0.7
		c0-0.5-0.6-0.7-1.5-1.1c-1.4-0.5-1.8-1-1.8-2c0-1.1,0.9-1.7,2.1-1.7c0.8,0,1.6,0.3,2.1,0.7l-0.5,0.9c-0.5-0.4-1-0.5-1.6-0.5
		c-0.6,0-0.9,0.2-0.9,0.6c0,0.3,0.2,0.5,1.2,0.9c1.4,0.5,2.1,0.9,2.1,2.1C168.3,244.8,167.2,245.3,166,245.3z"/>
	<path class="st4" d="M174.9,242.5h-4.2c0.1,1.2,0.8,1.7,1.6,1.7c0.5,0,0.9-0.2,1.4-0.5l0.7,0.8c-0.6,0.5-1.2,0.8-2.2,0.8
		c-1.5,0-2.7-1.2-2.7-3.3c0-2.1,1.1-3.3,2.8-3.3c1.8,0,2.7,1.5,2.7,3.2C174.9,242.1,174.9,242.3,174.9,242.5z M172.2,239.9
		c-0.8,0-1.3,0.6-1.4,1.6h2.9C173.6,240.6,173.2,239.9,172.2,239.9z"/>
	<path class="st4" d="M179.9,240.2c-0.3-0.1-0.5-0.2-0.9-0.2c-0.8,0-1.2,0.6-1.2,1.6v3.6h-1.2v-6.3h1.2v0.6c0.3-0.4,0.8-0.7,1.4-0.7
		c0.5,0,0.8,0.1,1.1,0.3L179.9,240.2z"/>
	<path class="st4" d="M184.4,245.2h-1.2l-2.3-6.3h1.3l1.1,3.4c0.2,0.6,0.4,1.2,0.5,1.5c0.1-0.3,0.2-0.9,0.4-1.5l1.1-3.4h1.3
		L184.4,245.2z"/>
	<path class="st4" d="M192.8,242.5h-4.2c0.1,1.2,0.8,1.7,1.6,1.7c0.5,0,0.9-0.2,1.4-0.5l0.7,0.8c-0.6,0.5-1.2,0.8-2.2,0.8
		c-1.5,0-2.7-1.2-2.7-3.3c0-2.1,1.1-3.3,2.8-3.3c1.8,0,2.7,1.5,2.7,3.2C192.8,242.1,192.8,242.3,192.8,242.5z M190.1,239.9
		c-0.8,0-1.3,0.6-1.4,1.6h2.9C191.5,240.6,191.1,239.9,190.1,239.9z"/>
	<path class="st4" d="M197.8,240.2c-0.3-0.1-0.5-0.2-0.9-0.2c-0.8,0-1.2,0.6-1.2,1.6v3.6h-1.2v-6.3h1.2v0.6c0.3-0.4,0.8-0.7,1.4-0.7
		c0.5,0,0.8,0.1,1.1,0.3L197.8,240.2z"/>
	<path class="st4" d="M203.2,245.2v-3.6c0-1.3-0.5-1.7-1.3-1.7c-0.8,0-1.3,0.6-1.3,1.6v3.7h-1.2v-8.1l1.2-0.6v3
		c0.3-0.5,0.9-0.7,1.6-0.7c1.5,0,2.2,1,2.2,2.8v3.6H203.2z"/>
</g>
<g class="st3">
	<path class="st4" d="M284.9,245.3c-0.9,0-1.8-0.3-2.4-0.8l0.6-0.9c0.6,0.4,1.2,0.6,1.8,0.6c0.8,0,1.2-0.3,1.2-0.7
		c0-0.5-0.6-0.7-1.5-1.1c-1.4-0.5-1.8-1-1.8-2c0-1.1,0.9-1.7,2.1-1.7c0.8,0,1.6,0.3,2.1,0.7l-0.5,0.9c-0.5-0.4-1-0.5-1.6-0.5
		c-0.6,0-0.9,0.2-0.9,0.6c0,0.3,0.2,0.5,1.2,0.9c1.4,0.5,2.1,0.9,2.1,2.1C287.3,244.8,286.1,245.3,284.9,245.3z"/>
	<path class="st4" d="M293.8,242.5h-4.2c0.1,1.2,0.8,1.7,1.6,1.7c0.5,0,0.9-0.2,1.4-0.5l0.7,0.8c-0.6,0.5-1.2,0.8-2.2,0.8
		c-1.5,0-2.7-1.2-2.7-3.3c0-2.1,1.1-3.3,2.8-3.3c1.8,0,2.7,1.5,2.7,3.2C293.8,242.1,293.8,242.3,293.8,242.5z M291.1,239.9
		c-0.8,0-1.3,0.6-1.4,1.6h2.9C292.5,240.6,292.1,239.9,291.1,239.9z"/>
	<path class="st4" d="M298.8,240.2c-0.3-0.1-0.5-0.2-0.9-0.2c-0.8,0-1.2,0.6-1.2,1.6v3.6h-1.2v-6.3h1.2v0.6c0.3-0.4,0.8-0.7,1.4-0.7
		c0.5,0,0.8,0.1,1.1,0.3L298.8,240.2z"/>
	<path class="st4" d="M303.4,245.2h-1.2l-2.3-6.3h1.3l1.1,3.4c0.2,0.6,0.4,1.2,0.5,1.5c0.1-0.3,0.2-0.9,0.4-1.5l1.1-3.4h1.3
		L303.4,245.2z"/>
	<path class="st4" d="M311.8,242.5h-4.2c0.1,1.2,0.8,1.7,1.6,1.7c0.5,0,0.9-0.2,1.4-0.5l0.7,0.8c-0.6,0.5-1.2,0.8-2.2,0.8
		c-1.5,0-2.7-1.2-2.7-3.3c0-2.1,1.1-3.3,2.8-3.3c1.8,0,2.7,1.5,2.7,3.2C311.8,242.1,311.8,242.3,311.8,242.5z M309.1,239.9
		c-0.8,0-1.3,0.6-1.4,1.6h2.9C310.5,240.6,310.1,239.9,309.1,239.9z"/>
	<path class="st4" d="M316.8,240.2c-0.3-0.1-0.5-0.2-0.9-0.2c-0.8,0-1.2,0.6-1.2,1.6v3.6h-1.2v-6.3h1.2v0.6c0.3-0.4,0.8-0.7,1.4-0.7
		c0.5,0,0.8,0.1,1.1,0.3L316.8,240.2z"/>
	<path class="st4" d="M319,238.1c-0.4,0-0.8-0.4-0.8-0.8c0-0.4,0.4-0.8,0.8-0.8c0.4,0,0.8,0.4,0.8,0.8
		C319.8,237.7,319.5,238.1,319,238.1z M318.4,245.2v-6.3h1.2v6.3H318.4z"/>
</g>
<g class="st3">
	<path class="st4" d="M402,245.3c-0.9,0-1.8-0.3-2.4-0.8l0.6-0.9c0.6,0.4,1.2,0.6,1.8,0.6c0.8,0,1.2-0.3,1.2-0.7
		c0-0.5-0.6-0.7-1.5-1.1c-1.4-0.5-1.8-1-1.8-2c0-1.1,0.9-1.7,2.1-1.7c0.8,0,1.6,0.3,2.1,0.7l-0.5,0.9c-0.5-0.4-1-0.5-1.6-0.5
		c-0.6,0-0.9,0.2-0.9,0.6c0,0.3,0.2,0.5,1.2,0.9c1.4,0.5,2.1,0.9,2.1,2.1C404.4,244.8,403.3,245.3,402,245.3z"/>
	<path class="st4" d="M410.9,242.5h-4.2c0.1,1.2,0.8,1.7,1.6,1.7c0.5,0,0.9-0.2,1.4-0.5l0.7,0.8c-0.6,0.5-1.2,0.8-2.2,0.8
		c-1.5,0-2.7-1.2-2.7-3.3c0-2.1,1.1-3.3,2.8-3.3c1.8,0,2.7,1.5,2.7,3.2C411,242.1,410.9,242.3,410.9,242.5z M408.2,239.9
		c-0.8,0-1.3,0.6-1.4,1.6h2.9C409.7,240.6,409.3,239.9,408.2,239.9z"/>
	<path class="st4" d="M415.9,240.2c-0.3-0.1-0.5-0.2-0.9-0.2c-0.8,0-1.2,0.6-1.2,1.6v3.6h-1.2v-6.3h1.2v0.6c0.3-0.4,0.8-0.7,1.4-0.7
		c0.5,0,0.8,0.1,1.1,0.3L415.9,240.2z"/>
	<path class="st4" d="M420.5,245.2h-1.2l-2.3-6.3h1.3l1.1,3.4c0.2,0.6,0.4,1.2,0.5,1.5c0.1-0.3,0.2-0.9,0.4-1.5l1.1-3.4h1.3
		L420.5,245.2z"/>
	<path class="st4" d="M428.9,242.5h-4.2c0.1,1.2,0.8,1.7,1.6,1.7c0.5,0,0.9-0.2,1.4-0.5l0.7,0.8c-0.6,0.5-1.2,0.8-2.2,0.8
		c-1.5,0-2.7-1.2-2.7-3.3c0-2.1,1.1-3.3,2.8-3.3c1.8,0,2.7,1.5,2.7,3.2C428.9,242.1,428.9,242.3,428.9,242.5z M426.2,239.9
		c-0.8,0-1.3,0.6-1.4,1.6h2.9C427.6,240.6,427.2,239.9,426.2,239.9z"/>
	<path class="st4" d="M433.9,240.2c-0.3-0.1-0.5-0.2-0.9-0.2c-0.8,0-1.2,0.6-1.2,1.6v3.6h-1.2v-6.3h1.2v0.6c0.3-0.4,0.8-0.7,1.4-0.7
		c0.5,0,0.8,0.1,1.1,0.3L433.9,240.2z"/>
	<path class="st4" d="M434.6,247.5l-0.4-0.9c1.2-0.3,1.3-0.6,1.3-1.6v-6h1.2v6C436.8,246.5,436.4,247.1,434.6,247.5z M436.2,238.1
		c-0.4,0-0.8-0.4-0.8-0.8c0-0.4,0.4-0.8,0.8-0.8c0.4,0,0.8,0.4,0.8,0.8C436.9,237.7,436.6,238.1,436.2,238.1z"/>
</g>
<g class="st3">
	<path class="st4" d="M517.6,245.3c-0.9,0-1.8-0.3-2.4-0.8l0.6-0.9c0.6,0.4,1.2,0.6,1.8,0.6c0.8,0,1.2-0.3,1.2-0.7
		c0-0.5-0.6-0.7-1.5-1.1c-1.4-0.5-1.8-1-1.8-2c0-1.1,0.9-1.7,2.1-1.7c0.8,0,1.6,0.3,2.1,0.7l-0.5,0.9c-0.5-0.4-1-0.5-1.6-0.5
		c-0.6,0-0.9,0.2-0.9,0.6c0,0.3,0.2,0.5,1.2,0.9c1.4,0.5,2.1,0.9,2.1,2.1C519.9,244.8,518.8,245.3,517.6,245.3z"/>
	<path class="st4" d="M526.5,242.5h-4.2c0.1,1.2,0.8,1.7,1.6,1.7c0.5,0,0.9-0.2,1.4-0.5l0.7,0.8c-0.6,0.5-1.2,0.8-2.2,0.8
		c-1.5,0-2.7-1.2-2.7-3.3c0-2.1,1.1-3.3,2.8-3.3c1.8,0,2.7,1.5,2.7,3.2C526.5,242.1,526.5,242.3,526.5,242.5z M523.8,239.9
		c-0.8,0-1.3,0.6-1.4,1.6h2.9C525.2,240.6,524.8,239.9,523.8,239.9z"/>
	<path class="st4" d="M531.5,240.2c-0.3-0.1-0.5-0.2-0.9-0.2c-0.8,0-1.2,0.6-1.2,1.6v3.6H528v-6.3h1.2v0.6c0.3-0.4,0.8-0.7,1.4-0.7
		c0.5,0,0.8,0.1,1.1,0.3L531.5,240.2z"/>
	<path class="st4" d="M536,245.2h-1.2l-2.3-6.3h1.3l1.1,3.4c0.2,0.6,0.4,1.2,0.5,1.5c0.1-0.3,0.2-0.9,0.4-1.5l1.1-3.4h1.3L536,245.2
		z"/>
	<path class="st4" d="M544.4,242.5h-4.2c0.1,1.2,0.8,1.7,1.6,1.7c0.5,0,0.9-0.2,1.4-0.5l0.7,0.8c-0.6,0.5-1.2,0.8-2.2,0.8
		c-1.5,0-2.7-1.2-2.7-3.3c0-2.1,1.1-3.3,2.8-3.3c1.8,0,2.7,1.5,2.7,3.2C544.5,242.1,544.4,242.3,544.4,242.5z M541.7,239.9
		c-0.8,0-1.3,0.6-1.4,1.6h2.9C543.1,240.6,542.7,239.9,541.7,239.9z"/>
	<path class="st4" d="M549.4,240.2c-0.3-0.1-0.5-0.2-0.9-0.2c-0.8,0-1.2,0.6-1.2,1.6v3.6H546v-6.3h1.2v0.6c0.3-0.4,0.8-0.7,1.4-0.7
		c0.5,0,0.8,0.1,1.1,0.3L549.4,240.2z"/>
	<path class="st4" d="M554.6,245.2l-1.4-3.1l-1,1.3v1.9H551v-8.1l1.2-0.6v4c0,0.4,0,1,0,1.3c0.2-0.3,0.5-0.7,0.7-1l1.3-1.8h1.4
		L554,241l1.9,4.2H554.6z"/>
</g>
<g class="st3">
	<path class="st4" d="M638.1,245.3c-0.9,0-1.8-0.3-2.4-0.8l0.6-0.9c0.6,0.4,1.2,0.6,1.8,0.6c0.8,0,1.2-0.3,1.2-0.7
		c0-0.5-0.6-0.7-1.5-1.1c-1.4-0.5-1.8-1-1.8-2c0-1.1,0.9-1.7,2.1-1.7c0.8,0,1.6,0.3,2.1,0.7l-0.5,0.9c-0.5-0.4-1-0.5-1.6-0.5
		s-0.9,0.2-0.9,0.6c0,0.3,0.2,0.5,1.2,0.9c1.4,0.5,2.1,0.9,2.1,2.1C640.4,244.8,639.3,245.3,638.1,245.3z"/>
	<path class="st4" d="M647,242.5h-4.2c0.1,1.2,0.8,1.7,1.6,1.7c0.5,0,0.9-0.2,1.4-0.5l0.7,0.8c-0.6,0.5-1.2,0.8-2.2,0.8
		c-1.5,0-2.7-1.2-2.7-3.3c0-2.1,1.1-3.3,2.8-3.3c1.8,0,2.7,1.5,2.7,3.2C647,242.1,647,242.3,647,242.5z M644.3,239.9
		c-0.8,0-1.3,0.6-1.4,1.6h2.9C645.7,240.6,645.3,239.9,644.3,239.9z"/>
	<path class="st4" d="M652,240.2c-0.3-0.1-0.5-0.2-0.9-0.2c-0.8,0-1.2,0.6-1.2,1.6v3.6h-1.2v-6.3h1.2v0.6c0.3-0.4,0.8-0.7,1.4-0.7
		c0.5,0,0.8,0.1,1.1,0.3L652,240.2z"/>
	<path class="st4" d="M656.5,245.2h-1.2l-2.3-6.3h1.3l1.1,3.4c0.2,0.6,0.4,1.2,0.5,1.5c0.1-0.3,0.2-0.9,0.4-1.5l1.1-3.4h1.3
		L656.5,245.2z"/>
	<path class="st4" d="M664.9,242.5h-4.2c0.1,1.2,0.8,1.7,1.6,1.7c0.5,0,0.9-0.2,1.4-0.5l0.7,0.8c-0.6,0.5-1.2,0.8-2.2,0.8
		c-1.5,0-2.7-1.2-2.7-3.3c0-2.1,1.1-3.3,2.8-3.3c1.8,0,2.7,1.5,2.7,3.2C665,242.1,664.9,242.3,664.9,242.5z M662.2,239.9
		c-0.8,0-1.3,0.6-1.4,1.6h2.9C663.7,240.6,663.2,239.9,662.2,239.9z"/>
	<path class="st4" d="M669.9,240.2c-0.3-0.1-0.5-0.2-0.9-0.2c-0.8,0-1.2,0.6-1.2,1.6v3.6h-1.2v-6.3h1.2v0.6c0.3-0.4,0.8-0.7,1.4-0.7
		c0.5,0,0.8,0.1,1.1,0.3L669.9,240.2z"/>
	<path class="st4" d="M671.6,245.2v-8.1l1.2-0.6v8.7H671.6z"/>
</g>
<g class="st3">
	<path class="st4" d="M33.5,261.2c-1.2-1.1-2.3-2.7-2.3-4.9c0-2.2,1.1-3.8,2.3-5l0.6,0.5c-1.1,1.2-1.7,2.6-1.7,4.4
		c0,2,0.6,3.3,1.7,4.4L33.5,261.2z"/>
	<path class="st4" d="M39.5,259.8v-3.6c0-1.3-0.5-1.7-1.3-1.7c-0.8,0-1.3,0.6-1.3,1.6v3.7h-1.2v-8.1l1.2-0.6v3
		c0.3-0.5,0.9-0.7,1.6-0.7c1.5,0,2.2,1,2.2,2.8v3.6H39.5z"/>
	<path class="st4" d="M45,260c-1.6,0-2.8-1.3-2.8-3.3c0-2.1,1.2-3.3,2.8-3.3c1.6,0,2.8,1.3,2.8,3.3C47.8,258.7,46.6,260,45,260z
		 M44.9,254.6c-0.9,0-1.5,0.8-1.5,2.1c0,1.4,0.6,2.1,1.6,2.1s1.5-0.9,1.5-2.1C46.5,255.4,45.9,254.6,44.9,254.6z"/>
	<path class="st4" d="M51.2,260c-0.9,0-1.8-0.3-2.4-0.8l0.6-0.9c0.6,0.4,1.2,0.6,1.8,0.6c0.8,0,1.2-0.3,1.2-0.7
		c0-0.5-0.6-0.7-1.5-1.1c-1.4-0.5-1.8-1-1.8-2c0-1.1,0.9-1.7,2.1-1.7c0.8,0,1.6,0.3,2.1,0.7l-0.5,0.9c-0.5-0.4-1-0.5-1.6-0.5
		c-0.6,0-0.9,0.2-0.9,0.6c0,0.3,0.2,0.5,1.2,0.9c1.4,0.5,2.1,0.9,2.1,2.1C53.6,259.5,52.5,260,51.2,260z"/>
	<path class="st4" d="M58.1,259.7c-0.3,0.2-0.7,0.3-1.2,0.3c-0.9,0-1.4-0.5-1.4-1.7v-3.6h-0.9v-1.1h0.9v-1.8l1.2-0.6v2.4h1.6v1.1
		h-1.6v3.4c0,0.6,0.2,0.8,0.6,0.8c0.3,0,0.7-0.1,0.9-0.3L58.1,259.7z"/>
	<path class="st4" d="M66,260c-0.6,0-1.2-0.3-1.6-0.7v0.6h-1.2v-8.1l1.2-0.6v3c0.5-0.4,1-0.7,1.6-0.7c1.4,0,2.4,1,2.4,3.4
		C68.4,259,67.3,260,66,260z M65.8,254.6c-0.6,0-1.1,0.4-1.4,0.8v2.7c0.3,0.4,0.9,0.8,1.5,0.8c0.9,0,1.4-0.7,1.4-2
		C67.2,255.2,66.7,254.6,65.8,254.6z"/>
	<path class="st4" d="M73.8,259.8v-0.6c-0.3,0.5-0.9,0.7-1.6,0.7c-1.5,0-2.2-1-2.2-2.8v-3.6h1.2v3.6c0,1.3,0.5,1.7,1.3,1.7
		c0.8,0,1.3-0.6,1.3-1.6v-3.7H75v6.3H73.8z"/>
	<path class="st4" d="M80.8,255.4c-0.5-0.5-1-0.8-1.5-0.8c-0.9,0-1.5,0.8-1.5,2.1c0,1.2,0.5,2.1,1.5,2.1c0.6,0,0.9-0.3,1.4-0.8
		l0.8,0.8c-0.5,0.6-1.1,1.2-2.3,1.2c-1.5,0-2.7-1.3-2.7-3.3c0-2.1,1.2-3.3,2.8-3.3c0.9,0,1.6,0.4,2.2,1.1L80.8,255.4z"/>
	<path class="st4" d="M86.7,259.8l-1.4-3.1l-1,1.3v1.9h-1.2v-8.1l1.2-0.6v4c0,0.4,0,1,0,1.3c0.2-0.3,0.5-0.7,0.7-1l1.3-1.8h1.4
		l-1.6,2.1l1.9,4.2H86.7z"/>
	<path class="st4" d="M94.2,257.1H90c0.1,1.2,0.8,1.7,1.6,1.7c0.5,0,0.9-0.2,1.4-0.5l0.7,0.8c-0.6,0.5-1.2,0.8-2.2,0.8
		c-1.5,0-2.7-1.2-2.7-3.3c0-2.1,1.1-3.3,2.8-3.3c1.8,0,2.7,1.5,2.7,3.2C94.2,256.8,94.2,257,94.2,257.1z M91.5,254.5
		c-0.8,0-1.3,0.6-1.4,1.6H93C92.9,255.2,92.5,254.5,91.5,254.5z"/>
	<path class="st4" d="M98.7,259.7c-0.3,0.2-0.7,0.3-1.2,0.3c-0.9,0-1.4-0.5-1.4-1.7v-3.6h-0.9v-1.1h0.9v-1.8l1.2-0.6v2.4h1.6v1.1
		h-1.6v3.4c0,0.6,0.2,0.8,0.6,0.8c0.3,0,0.7-0.1,0.9-0.3L98.7,259.7z"/>
	<path class="st4" d="M100.6,261.1l-0.6-0.5c1.1-1.2,1.7-2.6,1.7-4.4c0-2-0.6-3.3-1.7-4.4l0.6-0.5c1.2,1.1,2.3,2.7,2.3,4.9
		C102.9,258.4,101.8,260,100.6,261.1z"/>
</g>
<g class="st3">
	<path class="st4" d="M150.6,261.2c-1.2-1.1-2.3-2.7-2.3-4.9c0-2.2,1.1-3.8,2.3-5l0.6,0.5c-1.1,1.2-1.7,2.6-1.7,4.4
		c0,2,0.6,3.3,1.7,4.4L150.6,261.2z"/>
	<path class="st4" d="M156.6,259.8v-3.6c0-1.3-0.5-1.7-1.3-1.7c-0.8,0-1.3,0.6-1.3,1.6v3.7h-1.2v-8.1l1.2-0.6v3
		c0.3-0.5,0.9-0.7,1.6-0.7c1.5,0,2.2,1,2.2,2.8v3.6H156.6z"/>
	<path class="st4" d="M162.1,260c-1.6,0-2.8-1.3-2.8-3.3c0-2.1,1.2-3.3,2.8-3.3c1.6,0,2.8,1.3,2.8,3.3
		C164.9,258.7,163.7,260,162.1,260z M162.1,254.6c-0.9,0-1.5,0.8-1.5,2.1c0,1.4,0.6,2.1,1.6,2.1s1.5-0.9,1.5-2.1
		C163.7,255.4,163.1,254.6,162.1,254.6z"/>
	<path class="st4" d="M168.4,260c-0.9,0-1.8-0.3-2.4-0.8l0.6-0.9c0.6,0.4,1.2,0.6,1.8,0.6c0.8,0,1.2-0.3,1.2-0.7
		c0-0.5-0.6-0.7-1.5-1.1c-1.4-0.5-1.8-1-1.8-2c0-1.1,0.9-1.7,2.1-1.7c0.8,0,1.6,0.3,2.1,0.7l-0.5,0.9c-0.5-0.4-1-0.5-1.6-0.5
		c-0.6,0-0.9,0.2-0.9,0.6c0,0.3,0.2,0.5,1.2,0.9c1.4,0.5,2.1,0.9,2.1,2.1C170.7,259.5,169.6,260,168.4,260z"/>
	<path class="st4" d="M175.2,259.7c-0.3,0.2-0.7,0.3-1.2,0.3c-0.9,0-1.4-0.5-1.4-1.7v-3.6h-0.9v-1.1h0.9v-1.8l1.2-0.6v2.4h1.6v1.1
		h-1.6v3.4c0,0.6,0.2,0.8,0.6,0.8c0.3,0,0.7-0.1,0.9-0.3L175.2,259.7z"/>
	<path class="st4" d="M183.1,260c-0.6,0-1.2-0.3-1.6-0.7v0.6h-1.2v-8.1l1.2-0.6v3c0.5-0.4,1-0.7,1.6-0.7c1.4,0,2.4,1,2.4,3.4
		C185.6,259,184.4,260,183.1,260z M182.9,254.6c-0.6,0-1.1,0.4-1.4,0.8v2.7c0.3,0.4,0.9,0.8,1.5,0.8c0.9,0,1.4-0.7,1.4-2
		C184.3,255.2,183.8,254.6,182.9,254.6z"/>
	<path class="st4" d="M190.9,259.8v-0.6c-0.3,0.5-0.9,0.7-1.6,0.7c-1.5,0-2.2-1-2.2-2.8v-3.6h1.2v3.6c0,1.3,0.5,1.7,1.3,1.7
		c0.8,0,1.3-0.6,1.3-1.6v-3.7h1.2v6.3H190.9z"/>
	<path class="st4" d="M197.9,255.4c-0.5-0.5-1-0.8-1.5-0.8c-0.9,0-1.5,0.8-1.5,2.1c0,1.2,0.5,2.1,1.5,2.1c0.6,0,0.9-0.3,1.4-0.8
		l0.8,0.8c-0.5,0.6-1.1,1.2-2.3,1.2c-1.5,0-2.7-1.3-2.7-3.3c0-2.1,1.2-3.3,2.8-3.3c0.9,0,1.6,0.4,2.2,1.1L197.9,255.4z"/>
	<path class="st4" d="M203.8,259.8l-1.4-3.1l-1,1.3v1.9h-1.2v-8.1l1.2-0.6v4c0,0.4,0,1,0,1.3c0.2-0.3,0.5-0.7,0.7-1l1.3-1.8h1.4
		l-1.6,2.1l1.9,4.2H203.8z"/>
	<path class="st4" d="M211.3,257.1h-4.2c0.1,1.2,0.8,1.7,1.6,1.7c0.5,0,0.9-0.2,1.4-0.5l0.7,0.8c-0.6,0.5-1.2,0.8-2.2,0.8
		c-1.5,0-2.7-1.2-2.7-3.3c0-2.1,1.1-3.3,2.8-3.3c1.8,0,2.7,1.5,2.7,3.2C211.4,256.8,211.3,257,211.3,257.1z M208.6,254.5
		c-0.8,0-1.3,0.6-1.4,1.6h2.9C210.1,255.2,209.7,254.5,208.6,254.5z"/>
	<path class="st4" d="M215.8,259.7c-0.3,0.2-0.7,0.3-1.2,0.3c-0.9,0-1.4-0.5-1.4-1.7v-3.6h-0.9v-1.1h0.9v-1.8l1.2-0.6v2.4h1.6v1.1
		h-1.6v3.4c0,0.6,0.2,0.8,0.6,0.8c0.3,0,0.7-0.1,0.9-0.3L215.8,259.7z"/>
	<path class="st4" d="M217.7,261.1l-0.6-0.5c1.1-1.2,1.7-2.6,1.7-4.4c0-2-0.6-3.3-1.7-4.4l0.6-0.5c1.2,1.1,2.3,2.7,2.3,4.9
		C220,258.4,218.9,260,217.7,261.1z"/>
</g>
<g class="st3">
	<path class="st4" d="M267.8,261.2c-1.2-1.1-2.3-2.7-2.3-4.9c0-2.2,1.1-3.8,2.3-5l0.6,0.5c-1.1,1.2-1.7,2.6-1.7,4.4
		c0,2,0.6,3.3,1.7,4.4L267.8,261.2z"/>
	<path class="st4" d="M273.7,259.8v-3.6c0-1.3-0.5-1.7-1.3-1.7c-0.8,0-1.3,0.6-1.3,1.6v3.7h-1.2v-8.1l1.2-0.6v3
		c0.3-0.5,0.9-0.7,1.6-0.7c1.5,0,2.2,1,2.2,2.8v3.6H273.7z"/>
	<path class="st4" d="M279.2,260c-1.6,0-2.8-1.3-2.8-3.3c0-2.1,1.2-3.3,2.8-3.3c1.6,0,2.8,1.3,2.8,3.3
		C282,258.7,280.8,260,279.2,260z M279.2,254.6c-0.9,0-1.5,0.8-1.5,2.1c0,1.4,0.6,2.1,1.6,2.1s1.5-0.9,1.5-2.1
		C280.8,255.4,280.2,254.6,279.2,254.6z"/>
	<path class="st4" d="M285.5,260c-0.9,0-1.8-0.3-2.4-0.8l0.6-0.9c0.6,0.4,1.2,0.6,1.8,0.6c0.8,0,1.2-0.3,1.2-0.7
		c0-0.5-0.6-0.7-1.5-1.1c-1.4-0.5-1.8-1-1.8-2c0-1.1,0.9-1.7,2.1-1.7c0.8,0,1.6,0.3,2.1,0.7l-0.5,0.9c-0.5-0.4-1-0.5-1.6-0.5
		c-0.6,0-0.9,0.2-0.9,0.6c0,0.3,0.2,0.5,1.2,0.9c1.4,0.5,2.1,0.9,2.1,2.1C287.8,259.5,286.7,260,285.5,260z"/>
	<path class="st4" d="M292.3,259.7c-0.3,0.2-0.7,0.3-1.2,0.3c-0.9,0-1.4-0.5-1.4-1.7v-3.6h-0.9v-1.1h0.9v-1.8l1.2-0.6v2.4h1.6v1.1
		h-1.6v3.4c0,0.6,0.2,0.8,0.6,0.8c0.3,0,0.7-0.1,0.9-0.3L292.3,259.7z"/>
	<path class="st4" d="M300.2,260c-0.6,0-1.2-0.3-1.6-0.7v0.6h-1.2v-8.1l1.2-0.6v3c0.5-0.4,1-0.7,1.6-0.7c1.4,0,2.4,1,2.4,3.4
		C302.7,259,301.5,260,300.2,260z M300,254.6c-0.6,0-1.1,0.4-1.4,0.8v2.7c0.3,0.4,0.9,0.8,1.5,0.8c0.9,0,1.4-0.7,1.4-2
		C301.4,255.2,300.9,254.6,300,254.6z"/>
	<path class="st4" d="M308,259.8v-0.6c-0.3,0.5-0.9,0.7-1.6,0.7c-1.5,0-2.2-1-2.2-2.8v-3.6h1.2v3.6c0,1.3,0.5,1.7,1.3,1.7
		c0.8,0,1.3-0.6,1.3-1.6v-3.7h1.2v6.3H308z"/>
	<path class="st4" d="M315,255.4c-0.5-0.5-1-0.8-1.5-0.8c-0.9,0-1.5,0.8-1.5,2.1c0,1.2,0.5,2.1,1.5,2.1c0.6,0,0.9-0.3,1.4-0.8
		l0.8,0.8c-0.5,0.6-1.1,1.2-2.3,1.2c-1.5,0-2.7-1.3-2.7-3.3c0-2.1,1.2-3.3,2.8-3.3c0.9,0,1.6,0.4,2.2,1.1L315,255.4z"/>
	<path class="st4" d="M320.9,259.8l-1.4-3.1l-1,1.3v1.9h-1.2v-8.1l1.2-0.6v4c0,0.4,0,1,0,1.3c0.2-0.3,0.5-0.7,0.7-1l1.3-1.8h1.4
		l-1.6,2.1l1.9,4.2H320.9z"/>
	<path class="st4" d="M328.4,257.1h-4.2c0.1,1.2,0.8,1.7,1.6,1.7c0.5,0,0.9-0.2,1.4-0.5l0.7,0.8c-0.6,0.5-1.2,0.8-2.2,0.8
		c-1.5,0-2.7-1.2-2.7-3.3c0-2.1,1.1-3.3,2.8-3.3c1.8,0,2.7,1.5,2.7,3.2C328.5,256.8,328.5,257,328.4,257.1z M325.8,254.5
		c-0.8,0-1.3,0.6-1.4,1.6h2.9C327.2,255.2,326.8,254.5,325.8,254.5z"/>
	<path class="st4" d="M332.9,259.7c-0.3,0.2-0.7,0.3-1.2,0.3c-0.9,0-1.4-0.5-1.4-1.7v-3.6h-0.9v-1.1h0.9v-1.8l1.2-0.6v2.4h1.6v1.1
		h-1.6v3.4c0,0.6,0.2,0.8,0.6,0.8c0.3,0,0.7-0.1,0.9-0.3L332.9,259.7z"/>
	<path class="st4" d="M334.8,261.1l-0.6-0.5c1.1-1.2,1.7-2.6,1.7-4.4c0-2-0.6-3.3-1.7-4.4l0.6-0.5c1.2,1.1,2.3,2.7,2.3,4.9
		C337.1,258.4,336,260,334.8,261.1z"/>
</g>
<g class="st3">
	<path class="st4" d="M384.9,261.2c-1.2-1.1-2.3-2.7-2.3-4.9c0-2.2,1.1-3.8,2.3-5l0.6,0.5c-1.1,1.2-1.7,2.6-1.7,4.4
		c0,2,0.6,3.3,1.7,4.4L384.9,261.2z"/>
	<path class="st4" d="M390.8,259.8v-3.6c0-1.3-0.5-1.7-1.3-1.7c-0.8,0-1.3,0.6-1.3,1.6v3.7H387v-8.1l1.2-0.6v3
		c0.3-0.5,0.9-0.7,1.6-0.7c1.5,0,2.2,1,2.2,2.8v3.6H390.8z"/>
	<path class="st4" d="M396.3,260c-1.6,0-2.8-1.3-2.8-3.3c0-2.1,1.2-3.3,2.8-3.3c1.6,0,2.8,1.3,2.8,3.3
		C399.2,258.7,397.9,260,396.3,260z M396.3,254.6c-0.9,0-1.5,0.8-1.5,2.1c0,1.4,0.6,2.1,1.6,2.1s1.5-0.9,1.5-2.1
		C397.9,255.4,397.3,254.6,396.3,254.6z"/>
	<path class="st4" d="M402.6,260c-0.9,0-1.8-0.3-2.4-0.8l0.6-0.9c0.6,0.4,1.2,0.6,1.8,0.6c0.8,0,1.2-0.3,1.2-0.7
		c0-0.5-0.6-0.7-1.5-1.1c-1.4-0.5-1.8-1-1.8-2c0-1.1,0.9-1.7,2.1-1.7c0.8,0,1.6,0.3,2.1,0.7l-0.5,0.9c-0.5-0.4-1-0.5-1.6-0.5
		s-0.9,0.2-0.9,0.6c0,0.3,0.2,0.5,1.2,0.9c1.4,0.5,2.1,0.9,2.1,2.1C405,259.5,403.8,260,402.6,260z"/>
	<path class="st4" d="M409.4,259.7c-0.3,0.2-0.7,0.3-1.2,0.3c-0.9,0-1.4-0.5-1.4-1.7v-3.6h-0.9v-1.1h0.9v-1.8l1.2-0.6v2.4h1.6v1.1
		H408v3.4c0,0.6,0.2,0.8,0.6,0.8c0.3,0,0.7-0.1,0.9-0.3L409.4,259.7z"/>
	<path class="st4" d="M417.3,260c-0.6,0-1.2-0.3-1.6-0.7v0.6h-1.2v-8.1l1.2-0.6v3c0.5-0.4,1-0.7,1.6-0.7c1.4,0,2.4,1,2.4,3.4
		C419.8,259,418.6,260,417.3,260z M417.1,254.6c-0.6,0-1.1,0.4-1.4,0.8v2.7c0.3,0.4,0.9,0.8,1.5,0.8c0.9,0,1.4-0.7,1.4-2
		C418.6,255.2,418.1,254.6,417.1,254.6z"/>
	<path class="st4" d="M425.1,259.8v-0.6c-0.3,0.5-0.9,0.7-1.6,0.7c-1.5,0-2.2-1-2.2-2.8v-3.6h1.2v3.6c0,1.3,0.5,1.7,1.3,1.7
		c0.8,0,1.3-0.6,1.3-1.6v-3.7h1.2v6.3H425.1z"/>
	<path class="st4" d="M432.1,255.4c-0.5-0.5-1-0.8-1.5-0.8c-0.9,0-1.5,0.8-1.5,2.1c0,1.2,0.5,2.1,1.5,2.1c0.6,0,0.9-0.3,1.4-0.8
		l0.8,0.8c-0.5,0.6-1.1,1.2-2.3,1.2c-1.5,0-2.7-1.3-2.7-3.3c0-2.1,1.2-3.3,2.8-3.3c0.9,0,1.6,0.4,2.2,1.1L432.1,255.4z"/>
	<path class="st4" d="M438,259.8l-1.4-3.1l-1,1.3v1.9h-1.2v-8.1l1.2-0.6v4c0,0.4,0,1,0,1.3c0.2-0.3,0.5-0.7,0.7-1l1.3-1.8h1.4
		l-1.6,2.1l1.9,4.2H438z"/>
	<path class="st4" d="M445.6,257.1h-4.2c0.1,1.2,0.8,1.7,1.6,1.7c0.5,0,0.9-0.2,1.4-0.5l0.7,0.8c-0.6,0.5-1.2,0.8-2.2,0.8
		c-1.5,0-2.7-1.2-2.7-3.3c0-2.1,1.1-3.3,2.8-3.3c1.8,0,2.7,1.5,2.7,3.2C445.6,256.8,445.6,257,445.6,257.1z M442.9,254.5
		c-0.8,0-1.3,0.6-1.4,1.6h2.9C444.3,255.2,443.9,254.5,442.9,254.5z"/>
	<path class="st4" d="M450.1,259.7c-0.3,0.2-0.7,0.3-1.2,0.3c-0.9,0-1.4-0.5-1.4-1.7v-3.6h-0.9v-1.1h0.9v-1.8l1.2-0.6v2.4h1.6v1.1
		h-1.6v3.4c0,0.6,0.2,0.8,0.6,0.8c0.3,0,0.7-0.1,0.9-0.3L450.1,259.7z"/>
	<path class="st4" d="M451.9,261.1l-0.6-0.5c1.1-1.2,1.7-2.6,1.7-4.4c0-2-0.6-3.3-1.7-4.4l0.6-0.5c1.2,1.1,2.3,2.7,2.3,4.9
		C454.3,258.4,453.2,260,451.9,261.1z"/>
</g>
<g class="st3">
	<path class="st4" d="M502,261.2c-1.2-1.1-2.3-2.7-2.3-4.9c0-2.2,1.1-3.8,2.3-5l0.6,0.5c-1.1,1.2-1.7,2.6-1.7,4.4
		c0,2,0.6,3.3,1.7,4.4L502,261.2z"/>
	<path class="st4" d="M507.9,259.8v-3.6c0-1.3-0.5-1.7-1.3-1.7c-0.8,0-1.3,0.6-1.3,1.6v3.7h-1.2v-8.1l1.2-0.6v3
		c0.3-0.5,0.9-0.7,1.6-0.7c1.5,0,2.2,1,2.2,2.8v3.6H507.9z"/>
	<path class="st4" d="M513.4,260c-1.6,0-2.8-1.3-2.8-3.3c0-2.1,1.2-3.3,2.8-3.3c1.6,0,2.8,1.3,2.8,3.3
		C516.3,258.7,515,260,513.4,260z M513.4,254.6c-0.9,0-1.5,0.8-1.5,2.1c0,1.4,0.6,2.1,1.6,2.1s1.5-0.9,1.5-2.1
		C515,255.4,514.4,254.6,513.4,254.6z"/>
	<path class="st4" d="M519.7,260c-0.9,0-1.8-0.3-2.4-0.8l0.6-0.9c0.6,0.4,1.2,0.6,1.8,0.6c0.8,0,1.2-0.3,1.2-0.7
		c0-0.5-0.6-0.7-1.5-1.1c-1.4-0.5-1.8-1-1.8-2c0-1.1,0.9-1.7,2.1-1.7c0.8,0,1.6,0.3,2.1,0.7l-0.5,0.9c-0.5-0.4-1-0.5-1.6-0.5
		s-0.9,0.2-0.9,0.6c0,0.3,0.2,0.5,1.2,0.9c1.4,0.5,2.1,0.9,2.1,2.1C522.1,259.5,521,260,519.7,260z"/>
	<path class="st4" d="M526.6,259.7c-0.3,0.2-0.7,0.3-1.2,0.3c-0.9,0-1.4-0.5-1.4-1.7v-3.6H523v-1.1h0.9v-1.8l1.2-0.6v2.4h1.6v1.1
		h-1.6v3.4c0,0.6,0.2,0.8,0.6,0.8c0.3,0,0.7-0.1,0.9-0.3L526.6,259.7z"/>
	<path class="st4" d="M534.4,260c-0.6,0-1.2-0.3-1.6-0.7v0.6h-1.2v-8.1l1.2-0.6v3c0.5-0.4,1-0.7,1.6-0.7c1.4,0,2.4,1,2.4,3.4
		C536.9,259,535.7,260,534.4,260z M534.3,254.6c-0.6,0-1.1,0.4-1.4,0.8v2.7c0.3,0.4,0.9,0.8,1.5,0.8c0.9,0,1.4-0.7,1.4-2
		C535.7,255.2,535.2,254.6,534.3,254.6z"/>
	<path class="st4" d="M542.2,259.8v-0.6c-0.3,0.5-0.9,0.7-1.6,0.7c-1.5,0-2.2-1-2.2-2.8v-3.6h1.2v3.6c0,1.3,0.5,1.7,1.3,1.7
		c0.8,0,1.3-0.6,1.3-1.6v-3.7h1.2v6.3H542.2z"/>
	<path class="st4" d="M549.3,255.4c-0.5-0.5-1-0.8-1.5-0.8c-0.9,0-1.5,0.8-1.5,2.1c0,1.2,0.5,2.1,1.5,2.1c0.6,0,0.9-0.3,1.4-0.8
		l0.8,0.8c-0.5,0.6-1.1,1.2-2.3,1.2c-1.5,0-2.7-1.3-2.7-3.3c0-2.1,1.2-3.3,2.8-3.3c0.9,0,1.6,0.4,2.2,1.1L549.3,255.4z"/>
	<path class="st4" d="M555.2,259.8l-1.4-3.1l-1,1.3v1.9h-1.2v-8.1l1.2-0.6v4c0,0.4,0,1,0,1.3c0.2-0.3,0.5-0.7,0.7-1l1.3-1.8h1.4
		l-1.6,2.1l1.9,4.2H555.2z"/>
	<path class="st4" d="M562.7,257.1h-4.2c0.1,1.2,0.8,1.7,1.6,1.7c0.5,0,0.9-0.2,1.4-0.5l0.7,0.8c-0.6,0.5-1.2,0.8-2.2,0.8
		c-1.5,0-2.7-1.2-2.7-3.3c0-2.1,1.1-3.3,2.8-3.3c1.8,0,2.7,1.5,2.7,3.2C562.7,256.8,562.7,257,562.7,257.1z M560,254.5
		c-0.8,0-1.3,0.6-1.4,1.6h2.9C561.4,255.2,561,254.5,560,254.5z"/>
	<path class="st4" d="M567.2,259.7c-0.3,0.2-0.7,0.3-1.2,0.3c-0.9,0-1.4-0.5-1.4-1.7v-3.6h-0.9v-1.1h0.9v-1.8l1.2-0.6v2.4h1.6v1.1
		h-1.6v3.4c0,0.6,0.2,0.8,0.6,0.8c0.3,0,0.7-0.1,0.9-0.3L567.2,259.7z"/>
	<path class="st4" d="M569,261.1l-0.6-0.5c1.1-1.2,1.7-2.6,1.7-4.4c0-2-0.6-3.3-1.7-4.4l0.6-0.5c1.2,1.1,2.3,2.7,2.3,4.9
		C571.4,258.4,570.3,260,569,261.1z"/>
</g>
<g class="st3">
	<path class="st4" d="M620.9,261.2c-1.2-1.1-2.3-2.7-2.3-4.9c0-2.2,1.1-3.8,2.3-5l0.6,0.5c-1.1,1.2-1.7,2.6-1.7,4.4
		c0,2,0.6,3.3,1.7,4.4L620.9,261.2z"/>
	<path class="st4" d="M626.9,259.8v-3.6c0-1.3-0.5-1.7-1.3-1.7c-0.8,0-1.3,0.6-1.3,1.6v3.7H623v-8.1l1.2-0.6v3
		c0.3-0.5,0.9-0.7,1.6-0.7c1.5,0,2.2,1,2.2,2.8v3.6H626.9z"/>
	<path class="st4" d="M632.4,260c-1.6,0-2.8-1.3-2.8-3.3c0-2.1,1.2-3.3,2.8-3.3c1.6,0,2.8,1.3,2.8,3.3
		C635.2,258.7,634,260,632.4,260z M632.3,254.6c-0.9,0-1.5,0.8-1.5,2.1c0,1.4,0.6,2.1,1.6,2.1s1.5-0.9,1.5-2.1
		C633.9,255.4,633.3,254.6,632.3,254.6z"/>
	<path class="st4" d="M638.6,260c-0.9,0-1.8-0.3-2.4-0.8l0.6-0.9c0.6,0.4,1.2,0.6,1.8,0.6c0.8,0,1.2-0.3,1.2-0.7
		c0-0.5-0.6-0.7-1.5-1.1c-1.4-0.5-1.8-1-1.8-2c0-1.1,0.9-1.7,2.1-1.7c0.8,0,1.6,0.3,2.1,0.7l-0.5,0.9c-0.5-0.4-1-0.5-1.6-0.5
		c-0.6,0-0.9,0.2-0.9,0.6c0,0.3,0.2,0.5,1.2,0.9c1.4,0.5,2.1,0.9,2.1,2.1C641,259.5,639.9,260,638.6,260z"/>
	<path class="st4" d="M645.5,259.7c-0.3,0.2-0.7,0.3-1.2,0.3c-0.9,0-1.4-0.5-1.4-1.7v-3.6H642v-1.1h0.9v-1.8l1.2-0.6v2.4h1.6v1.1
		h-1.6v3.4c0,0.6,0.2,0.8,0.6,0.8c0.3,0,0.7-0.1,0.9-0.3L645.5,259.7z"/>
	<path class="st4" d="M653.3,260c-0.6,0-1.2-0.3-1.6-0.7v0.6h-1.2v-8.1l1.2-0.6v3c0.5-0.4,1-0.7,1.6-0.7c1.4,0,2.4,1,2.4,3.4
		C655.8,259,654.7,260,653.3,260z M653.2,254.6c-0.6,0-1.1,0.4-1.4,0.8v2.7c0.3,0.4,0.9,0.8,1.5,0.8c0.9,0,1.4-0.7,1.4-2
		C654.6,255.2,654.1,254.6,653.2,254.6z"/>
	<path class="st4" d="M661.2,259.8v-0.6c-0.3,0.5-0.9,0.7-1.6,0.7c-1.5,0-2.2-1-2.2-2.8v-3.6h1.2v3.6c0,1.3,0.5,1.7,1.3,1.7
		c0.8,0,1.3-0.6,1.3-1.6v-3.7h1.2v6.3H661.2z"/>
	<path class="st4" d="M668.2,255.4c-0.5-0.5-1-0.8-1.5-0.8c-0.9,0-1.5,0.8-1.5,2.1c0,1.2,0.5,2.1,1.5,2.1c0.6,0,0.9-0.3,1.4-0.8
		l0.8,0.8c-0.5,0.6-1.1,1.2-2.3,1.2c-1.5,0-2.7-1.3-2.7-3.3c0-2.1,1.2-3.3,2.8-3.3c0.9,0,1.6,0.4,2.2,1.1L668.2,255.4z"/>
	<path class="st4" d="M674.1,259.8l-1.4-3.1l-1,1.3v1.9h-1.2v-8.1l1.2-0.6v4c0,0.4,0,1,0,1.3c0.2-0.3,0.5-0.7,0.7-1l1.3-1.8h1.4
		l-1.6,2.1l1.9,4.2H674.1z"/>
	<path class="st4" d="M681.6,257.1h-4.2c0.1,1.2,0.8,1.7,1.6,1.7c0.5,0,0.9-0.2,1.4-0.5l0.7,0.8c-0.6,0.5-1.2,0.8-2.2,0.8
		c-1.5,0-2.7-1.2-2.7-3.3c0-2.1,1.1-3.3,2.8-3.3c1.8,0,2.7,1.5,2.7,3.2C681.6,256.8,681.6,257,681.6,257.1z M678.9,254.5
		c-0.8,0-1.3,0.6-1.4,1.6h2.9C680.3,255.2,679.9,254.5,678.9,254.5z"/>
	<path class="st4" d="M686.1,259.7c-0.3,0.2-0.7,0.3-1.2,0.3c-0.9,0-1.4-0.5-1.4-1.7v-3.6h-0.9v-1.1h0.9v-1.8l1.2-0.6v2.4h1.6v1.1
		h-1.6v3.4c0,0.6,0.2,0.8,0.6,0.8c0.3,0,0.7-0.1,0.9-0.3L686.1,259.7z"/>
	<path class="st4" d="M688,261.1l-0.6-0.5c1.1-1.2,1.7-2.6,1.7-4.4c0-2-0.6-3.3-1.7-4.4l0.6-0.5c1.2,1.1,2.3,2.7,2.3,4.9
		C690.3,258.4,689.2,260,688,261.1z"/>
</g>
<g class="st3">
	<path class="st4" d="M55.4,351.7c-1.6,0-2.8-1.3-2.8-3.3c0-2.1,1.2-3.3,2.8-3.3c1.6,0,2.8,1.3,2.8,3.3
		C58.2,350.5,57,351.7,55.4,351.7z M55.4,346.3c-0.9,0-1.5,0.8-1.5,2.1c0,1.4,0.6,2.1,1.6,2.1s1.5-0.9,1.5-2.1
		C57,347.2,56.4,346.3,55.4,346.3z"/>
	<path class="st4" d="M61.7,351.7c-0.9,0-1.8-0.3-2.4-0.8l0.6-0.9c0.6,0.4,1.2,0.6,1.8,0.6c0.8,0,1.2-0.3,1.2-0.7
		c0-0.5-0.6-0.7-1.5-1.1c-1.4-0.5-1.8-1-1.8-2c0-1.1,0.9-1.7,2.1-1.7c0.8,0,1.6,0.3,2.1,0.7l-0.5,0.9c-0.5-0.4-1-0.5-1.6-0.5
		s-0.9,0.2-0.9,0.6c0,0.3,0.2,0.5,1.2,0.9c1.4,0.5,2.1,0.9,2.1,2.1C64,351.2,62.9,351.7,61.7,351.7z"/>
	<path class="st4" d="M69.3,351.6V351c-0.5,0.4-1,0.7-1.6,0.7c-1.4,0-2.4-1-2.4-3.4c0-2.2,1.2-3.2,2.5-3.2c0.6,0,1.2,0.3,1.6,0.7
		v-2.4l1.2-0.6v8.7H69.3z M69.3,347.1c-0.3-0.4-0.9-0.8-1.5-0.8c-0.9,0-1.4,0.7-1.4,2c0,1.6,0.5,2.3,1.4,2.3c0.6,0,1.1-0.4,1.4-0.8
		V347.1z"/>
	<path class="st4" d="M72.9,351.7c-0.5,0-0.9-0.4-0.9-0.9s0.4-1,0.9-1c0.5,0,0.9,0.4,0.9,1S73.5,351.7,72.9,351.7z"/>
	<path class="st4" d="M78.1,351.7c-2.2,0-3.3-1.8-3.3-4.3s1.2-4.3,3.3-4.3s3.3,1.8,3.3,4.3C81.4,349.9,80.3,351.7,78.1,351.7z
		 M78.1,344.3c-1.5,0-2,1.3-2,3.1c0,1.8,0.6,3.1,2.1,3.1c1.5,0,2-1.3,2-3.1C80.2,345.6,79.6,344.3,78.1,344.3z"/>
</g>
<g class="st3">
	<path class="st4" d="M55.5,368.6c-1.2-1.1-2.3-2.7-2.3-4.9c0-2.2,1.1-3.8,2.3-5l0.6,0.5c-1.1,1.2-1.7,2.6-1.7,4.4
		c0,2,0.6,3.3,1.7,4.4L55.5,368.6z"/>
	<path class="st4" d="M57.7,367.3v-8.1l1.2-0.6v8.7H57.7z"/>
	<path class="st4" d="M65.9,364.5h-4.2c0.1,1.2,0.8,1.7,1.6,1.7c0.5,0,0.9-0.2,1.4-0.5l0.7,0.8c-0.6,0.5-1.2,0.8-2.2,0.8
		c-1.5,0-2.7-1.2-2.7-3.3c0-2.1,1.1-3.3,2.8-3.3c1.8,0,2.7,1.5,2.7,3.2C65.9,364.2,65.9,364.4,65.9,364.5z M63.2,361.9
		c-0.8,0-1.3,0.6-1.4,1.6h2.9C64.6,362.7,64.2,361.9,63.2,361.9z"/>
	<path class="st4" d="M71,367.3v-0.6c-0.4,0.4-1,0.8-1.7,0.8c-1,0-2.2-0.6-2.2-2.1c0-1.4,1.1-2,2.5-2c0.6,0,1.1,0.1,1.4,0.2V363
		c0-0.7-0.4-1.1-1.2-1.1c-0.6,0-1.2,0.1-1.6,0.4l-0.5-0.9c0.6-0.4,1.3-0.6,2.2-0.6c1.4,0,2.4,0.7,2.4,2.1v4.3H71z M71,364.6
		c-0.3-0.2-0.8-0.3-1.4-0.3c-0.8,0-1.3,0.4-1.3,0.9c0,0.6,0.4,1,1.2,1c0.7,0,1.2-0.4,1.5-0.8V364.6z"/>
	<path class="st4" d="M76.2,359.6c-0.4,0-0.6,0.2-0.6,0.6v0.7h1.2v1.2h-1.2v5.1h-1.2v-5.1h-0.8V361h0.8v-0.8c0-1.2,0.7-1.6,1.6-1.6
		c0.3,0,0.7,0,0.9,0.1v1.1C76.6,359.7,76.4,359.6,76.2,359.6z"/>
	<path class="st4" d="M78.6,368.6L78,368c1.1-1.2,1.7-2.6,1.7-4.4c0-2-0.6-3.3-1.7-4.4l0.6-0.5c1.2,1.1,2.3,2.7,2.3,4.9
		C80.9,365.8,79.8,367.4,78.6,368.6z"/>
</g>
<g class="st3">
	<path class="st4" d="M174.5,351.7c-1.6,0-2.8-1.3-2.8-3.3c0-2.1,1.2-3.3,2.8-3.3c1.6,0,2.8,1.3,2.8,3.3
		C177.4,350.5,176.2,351.7,174.5,351.7z M174.5,346.3c-0.9,0-1.5,0.8-1.5,2.1c0,1.4,0.6,2.1,1.6,2.1s1.5-0.9,1.5-2.1
		C176.1,347.2,175.5,346.3,174.5,346.3z"/>
	<path class="st4" d="M180.8,351.7c-0.9,0-1.8-0.3-2.4-0.8l0.6-0.9c0.6,0.4,1.2,0.6,1.8,0.6c0.8,0,1.2-0.3,1.2-0.7
		c0-0.5-0.6-0.7-1.5-1.1c-1.4-0.5-1.8-1-1.8-2c0-1.1,0.9-1.7,2.1-1.7c0.8,0,1.6,0.3,2.1,0.7l-0.5,0.9c-0.5-0.4-1-0.5-1.6-0.5
		c-0.6,0-0.9,0.2-0.9,0.6c0,0.3,0.2,0.5,1.2,0.9c1.4,0.5,2.1,0.9,2.1,2.1C183.2,351.2,182.1,351.7,180.8,351.7z"/>
	<path class="st4" d="M188.4,351.6V351c-0.5,0.4-1,0.7-1.6,0.7c-1.4,0-2.4-1-2.4-3.4c0-2.2,1.2-3.2,2.5-3.2c0.6,0,1.2,0.3,1.6,0.7
		v-2.4l1.2-0.6v8.7H188.4z M188.5,347.1c-0.3-0.4-0.9-0.8-1.5-0.8c-0.9,0-1.4,0.7-1.4,2c0,1.6,0.5,2.3,1.4,2.3
		c0.6,0,1.1-0.4,1.4-0.8V347.1z"/>
	<path class="st4" d="M192.1,351.7c-0.5,0-0.9-0.4-0.9-0.9s0.4-1,0.9-1c0.5,0,0.9,0.4,0.9,1S192.6,351.7,192.1,351.7z"/>
	<path class="st4" d="M194.8,351.6v-6.4h-1.5v-0.9c0.9-0.1,1.6-0.3,1.7-1.1h1v8.4H194.8z"/>
</g>
<g class="st3">
	<path class="st4" d="M172.6,368.6c-1.2-1.1-2.3-2.7-2.3-4.9c0-2.2,1.1-3.8,2.3-5l0.6,0.5c-1.1,1.2-1.7,2.6-1.7,4.4
		c0,2,0.6,3.3,1.7,4.4L172.6,368.6z"/>
	<path class="st4" d="M174.8,367.3v-8.1l1.2-0.6v8.7H174.8z"/>
	<path class="st4" d="M183,364.5h-4.2c0.1,1.2,0.8,1.7,1.6,1.7c0.5,0,0.9-0.2,1.4-0.5l0.7,0.8c-0.6,0.5-1.2,0.8-2.2,0.8
		c-1.5,0-2.7-1.2-2.7-3.3c0-2.1,1.1-3.3,2.8-3.3c1.8,0,2.7,1.5,2.7,3.2C183,364.2,183,364.4,183,364.5z M180.3,361.9
		c-0.8,0-1.3,0.6-1.4,1.6h2.9C181.7,362.7,181.3,361.9,180.3,361.9z"/>
	<path class="st4" d="M188.1,367.3v-0.6c-0.4,0.4-1,0.8-1.7,0.8c-1,0-2.2-0.6-2.2-2.1c0-1.4,1.1-2,2.5-2c0.6,0,1.1,0.1,1.4,0.2V363
		c0-0.7-0.4-1.1-1.2-1.1c-0.6,0-1.2,0.1-1.6,0.4l-0.5-0.9c0.6-0.4,1.3-0.6,2.2-0.6c1.4,0,2.4,0.7,2.4,2.1v4.3H188.1z M188.1,364.6
		c-0.3-0.2-0.8-0.3-1.4-0.3c-0.8,0-1.3,0.4-1.3,0.9c0,0.6,0.4,1,1.2,1c0.7,0,1.2-0.4,1.5-0.8V364.6z"/>
	<path class="st4" d="M193.3,359.6c-0.4,0-0.6,0.2-0.6,0.6v0.7h1.2v1.2h-1.2v5.1h-1.2v-5.1h-0.8V361h0.8v-0.8c0-1.2,0.7-1.6,1.6-1.6
		c0.3,0,0.7,0,0.9,0.1v1.1C193.7,359.7,193.5,359.6,193.3,359.6z"/>
	<path class="st4" d="M195.7,368.6l-0.6-0.5c1.1-1.2,1.7-2.6,1.7-4.4c0-2-0.6-3.3-1.7-4.4l0.6-0.5c1.2,1.1,2.3,2.7,2.3,4.9
		C198.1,365.8,196.9,367.4,195.7,368.6z"/>
</g>
<g class="st3">
	<path class="st4" d="M289.6,351.7c-1.6,0-2.8-1.3-2.8-3.3c0-2.1,1.2-3.3,2.8-3.3c1.6,0,2.8,1.3,2.8,3.3
		C292.5,350.5,291.3,351.7,289.6,351.7z M289.6,346.3c-0.9,0-1.5,0.8-1.5,2.1c0,1.4,0.6,2.1,1.6,2.1s1.5-0.9,1.5-2.1
		C291.2,347.2,290.6,346.3,289.6,346.3z"/>
	<path class="st4" d="M295.9,351.7c-0.9,0-1.8-0.3-2.4-0.8l0.6-0.9c0.6,0.4,1.2,0.6,1.8,0.6c0.8,0,1.2-0.3,1.2-0.7
		c0-0.5-0.6-0.7-1.5-1.1c-1.4-0.5-1.8-1-1.8-2c0-1.1,0.9-1.7,2.1-1.7c0.8,0,1.6,0.3,2.1,0.7l-0.5,0.9c-0.5-0.4-1-0.5-1.6-0.5
		c-0.6,0-0.9,0.2-0.9,0.6c0,0.3,0.2,0.5,1.2,0.9c1.4,0.5,2.1,0.9,2.1,2.1C298.3,351.2,297.2,351.7,295.9,351.7z"/>
	<path class="st4" d="M303.5,351.6V351c-0.5,0.4-1,0.7-1.6,0.7c-1.4,0-2.4-1-2.4-3.4c0-2.2,1.2-3.2,2.5-3.2c0.6,0,1.2,0.3,1.6,0.7
		v-2.4l1.2-0.6v8.7H303.5z M303.6,347.1c-0.3-0.4-0.9-0.8-1.5-0.8c-0.9,0-1.4,0.7-1.4,2c0,1.6,0.5,2.3,1.4,2.3
		c0.6,0,1.1-0.4,1.4-0.8V347.1z"/>
	<path class="st4" d="M307.2,351.7c-0.5,0-0.9-0.4-0.9-0.9s0.4-1,0.9-1c0.5,0,0.9,0.4,0.9,1S307.7,351.7,307.2,351.7z"/>
	<path class="st4" d="M309.3,351.6c0.1-2.5,1.6-3.5,3.2-4.5c1.1-0.7,1.4-1,1.4-1.6c0-0.7-0.5-1.1-1.6-1.1c-0.7,0-1.5,0.3-2,0.8
		l-0.8-1c0.8-0.7,1.8-1.1,2.9-1.1c1.7,0,2.9,0.7,2.9,2.3c0,1.3-0.6,1.8-2.1,2.7c-1.6,0.9-2.1,1.5-2.3,2.3h4.4v1.2H309.3z"/>
</g>
<g class="st3">
	<path class="st4" d="M289.7,368.6c-1.2-1.1-2.3-2.7-2.3-4.9c0-2.2,1.1-3.8,2.3-5l0.6,0.5c-1.1,1.2-1.7,2.6-1.7,4.4
		c0,2,0.6,3.3,1.7,4.4L289.7,368.6z"/>
	<path class="st4" d="M291.9,367.3v-8.1l1.2-0.6v8.7H291.9z"/>
	<path class="st4" d="M300.1,364.5H296c0.1,1.2,0.8,1.7,1.6,1.7c0.5,0,0.9-0.2,1.4-0.5l0.7,0.8c-0.6,0.5-1.2,0.8-2.2,0.8
		c-1.5,0-2.7-1.2-2.7-3.3c0-2.1,1.1-3.3,2.8-3.3c1.8,0,2.7,1.5,2.7,3.2C300.1,364.2,300.1,364.4,300.1,364.5z M297.4,361.9
		c-0.8,0-1.3,0.6-1.4,1.6h2.9C298.8,362.7,298.4,361.9,297.4,361.9z"/>
	<path class="st4" d="M305.2,367.3v-0.6c-0.4,0.4-1,0.8-1.7,0.8c-1,0-2.2-0.6-2.2-2.1c0-1.4,1.1-2,2.5-2c0.6,0,1.1,0.1,1.4,0.2V363
		c0-0.7-0.4-1.1-1.2-1.1c-0.6,0-1.2,0.1-1.6,0.4l-0.5-0.9c0.6-0.4,1.3-0.6,2.2-0.6c1.4,0,2.4,0.7,2.4,2.1v4.3H305.2z M305.2,364.6
		c-0.3-0.2-0.8-0.3-1.4-0.3c-0.8,0-1.3,0.4-1.3,0.9c0,0.6,0.4,1,1.2,1c0.7,0,1.2-0.4,1.5-0.8V364.6z"/>
	<path class="st4" d="M310.4,359.6c-0.4,0-0.6,0.2-0.6,0.6v0.7h1.2v1.2h-1.2v5.1h-1.2v-5.1h-0.8V361h0.8v-0.8c0-1.2,0.7-1.6,1.6-1.6
		c0.3,0,0.7,0,0.9,0.1v1.1C310.9,359.7,310.6,359.6,310.4,359.6z"/>
	<path class="st4" d="M312.8,368.6l-0.6-0.5c1.1-1.2,1.7-2.6,1.7-4.4c0-2-0.6-3.3-1.7-4.4l0.6-0.5c1.2,1.1,2.3,2.7,2.3,4.9
		C315.2,365.8,314.1,367.4,312.8,368.6z"/>
</g>
<g id="g2759" transform="matrix(0.69035967,0,0,0.69035967,59.77169,71.28132)">
	<path id="rect2705" class="st5" d="M503.1,329.3h32.8c3.8,0,6.8,3,6.8,6.8v41.5c0,3.8-3,6.8-6.8,6.8h-32.8c-3.8,0-6.8-3-6.8-6.8
		v-41.5C496.3,332.3,499.4,329.3,503.1,329.3z"/>
	<path id="path2713" inkscape:connector-curvature="0" class="st6" d="M509.1,375.2c0-35.2,0.4-35.2,0.4-35.2"/>
	<path id="path2713-2" inkscape:connector-curvature="0" class="st6" d="M519.8,374.8c0-35.2,0.4-35.2,0.4-35.2"/>
	<path id="path2713-5" inkscape:connector-curvature="0" class="st6" d="M530.5,374.9c0-35.2,0.4-35.2,0.4-35.2"/>
	<rect id="rect2707" x="501.9" y="345.7" class="st7" width="35.2" height="22.4"/>
	<g class="st3">
		<path class="st4" d="M510,362.2c-1.5,0-2.8-0.6-3.7-1.7l1.1-1.1c0.7,0.8,1.7,1.2,2.7,1.2c1.4,0,2.1-0.5,2.1-1.5
			c0-0.8-0.6-1.2-2.3-1.7c-2.2-0.6-3.2-1.2-3.2-3c0-1.8,1.5-2.9,3.4-2.9c1.4,0,2.5,0.5,3.4,1.4l-1.1,1.1c-0.7-0.7-1.4-1-2.4-1
			c-1.2,0-1.7,0.6-1.7,1.3c0,0.7,0.5,1.1,2.3,1.6c2,0.6,3.3,1.3,3.3,3.1C513.9,360.9,512.7,362.2,510,362.2z"/>
		<path class="st4" d="M519.1,362.2c-1.5,0-2.8-0.6-3.7-1.7l1.1-1.1c0.7,0.8,1.7,1.2,2.7,1.2c1.4,0,2.1-0.5,2.1-1.5
			c0-0.8-0.6-1.2-2.3-1.7c-2.2-0.6-3.2-1.2-3.2-3c0-1.8,1.5-2.9,3.4-2.9c1.4,0,2.5,0.5,3.4,1.4l-1.1,1.1c-0.7-0.7-1.4-1-2.4-1
			c-1.2,0-1.7,0.6-1.7,1.3c0,0.7,0.5,1.1,2.3,1.6c2,0.6,3.3,1.3,3.3,3.1C522.9,360.9,521.7,362.2,519.1,362.2z"/>
		<path class="st4" d="M528,362h-2.8v-10.3h2.8c2.8,0,5,1.5,5,5.2S530.7,362,528,362z M528,353.2h-1.3v7.3h1.3
			c2.5,0,3.5-1.5,3.5-3.7S530.5,353.2,528,353.2z"/>
	</g>
</g>
<g id="g2759_1_" transform="matrix(0.69035967,0,0,0.69035967,59.77169,71.28132)">
	<path id="rect2705_1_" class="st5" d="M673.1,329.3h32.8c3.8,0,6.8,3,6.8,6.8v41.5c0,3.8-3,6.8-6.8,6.8h-32.8c-3.8,0-6.8-3-6.8-6.8
		v-41.5C666.3,332.3,669.3,329.3,673.1,329.3z"/>
	<path id="path2713_1_" inkscape:connector-curvature="0" class="st6" d="M679.1,375.2c0-35.2,0.4-35.2,0.4-35.2"/>
	<path id="path2713-2_1_" inkscape:connector-curvature="0" class="st6" d="M689.8,374.8c0-35.2,0.4-35.2,0.4-35.2"/>
	<path id="path2713-5_1_" inkscape:connector-curvature="0" class="st6" d="M700.4,374.9c0-35.2,0.4-35.2,0.4-35.2"/>
	<rect id="rect2707_1_" x="671.9" y="345.7" class="st7" width="35.2" height="22.4"/>
	<g class="st3">
		<path class="st4" d="M680,362.2c-1.5,0-2.8-0.6-3.7-1.7l1.1-1.1c0.7,0.8,1.7,1.2,2.7,1.2c1.4,0,2.1-0.5,2.1-1.5
			c0-0.8-0.6-1.2-2.3-1.7c-2.2-0.6-3.2-1.2-3.2-3c0-1.8,1.5-2.9,3.4-2.9c1.4,0,2.5,0.5,3.4,1.4l-1.1,1.1c-0.7-0.7-1.4-1-2.4-1
			c-1.2,0-1.7,0.6-1.7,1.3c0,0.7,0.5,1.1,2.3,1.6c2,0.6,3.3,1.3,3.3,3.1C683.8,360.9,682.6,362.2,680,362.2z"/>
		<path class="st4" d="M689,362.2c-1.5,0-2.8-0.6-3.7-1.7l1.1-1.1c0.7,0.8,1.7,1.2,2.7,1.2c1.4,0,2.1-0.5,2.1-1.5
			c0-0.8-0.6-1.2-2.3-1.7c-2.2-0.6-3.2-1.2-3.2-3c0-1.8,1.5-2.9,3.4-2.9c1.4,0,2.5,0.5,3.4,1.4l-1.1,1.1c-0.7-0.7-1.4-1-2.4-1
			c-1.2,0-1.7,0.6-1.7,1.3c0,0.7,0.5,1.1,2.3,1.6c2,0.6,3.3,1.3,3.3,3.1C692.8,360.9,691.7,362.2,689,362.2z"/>
		<path class="st4" d="M698,362h-2.8v-10.3h2.8c2.8,0,5,1.5,5,5.2S700.7,362,698,362z M698,353.2h-1.3v7.3h1.3
			c2.5,0,3.5-1.5,3.5-3.7S700.4,353.2,698,353.2z"/>
	</g>
</g>
<g id="g2759_2_" transform="matrix(0.69035967,0,0,0.69035967,59.77169,71.28132)">
	<path id="rect2705_2_" class="st5" d="M842.4,329.3h32.8c3.8,0,6.8,3,6.8,6.8v41.5c0,3.8-3,6.8-6.8,6.8h-32.8c-3.8,0-6.8-3-6.8-6.8
		v-41.5C835.6,332.3,838.7,329.3,842.4,329.3z"/>
	<path id="path2713_2_" inkscape:connector-curvature="0" class="st6" d="M848.4,375.2c0-35.2,0.4-35.2,0.4-35.2"/>
	<path id="path2713-2_2_" inkscape:connector-curvature="0" class="st6" d="M859.1,374.8c0-35.2,0.4-35.2,0.4-35.2"/>
	<path id="path2713-5_2_" inkscape:connector-curvature="0" class="st6" d="M869.8,374.9c0-35.2,0.4-35.2,0.4-35.2"/>
	<rect id="rect2707_2_" x="841.2" y="345.7" class="st7" width="35.2" height="22.4"/>
	<g class="st3">
		<path class="st4" d="M849.3,362.2c-1.5,0-2.8-0.6-3.7-1.7l1.1-1.1c0.7,0.8,1.7,1.2,2.7,1.2c1.4,0,2.1-0.5,2.1-1.5
			c0-0.8-0.6-1.2-2.3-1.7c-2.2-0.6-3.2-1.2-3.2-3c0-1.8,1.5-2.9,3.4-2.9c1.4,0,2.5,0.5,3.4,1.4l-1.1,1.1c-0.7-0.7-1.4-1-2.4-1
			c-1.2,0-1.7,0.6-1.7,1.3c0,0.7,0.5,1.1,2.3,1.6c2,0.6,3.3,1.3,3.3,3.1C853.2,360.9,852,362.2,849.3,362.2z"/>
		<path class="st4" d="M858.4,362.2c-1.5,0-2.8-0.6-3.7-1.7l1.1-1.1c0.7,0.8,1.7,1.2,2.7,1.2c1.4,0,2.1-0.5,2.1-1.5
			c0-0.8-0.6-1.2-2.3-1.7c-2.2-0.6-3.2-1.2-3.2-3c0-1.8,1.5-2.9,3.4-2.9c1.4,0,2.5,0.5,3.4,1.4l-1.1,1.1c-0.7-0.7-1.4-1-2.4-1
			c-1.2,0-1.7,0.6-1.7,1.3c0,0.7,0.5,1.1,2.3,1.6c2,0.6,3.3,1.3,3.3,3.1C862.2,360.9,861,362.2,858.4,362.2z"/>
		<path class="st4" d="M867.3,362h-2.8v-10.3h2.8c2.8,0,5,1.5,5,5.2S870,362,867.3,362z M867.3,353.2h-1.3v7.3h1.3
			c2.5,0,3.5-1.5,3.5-3.7S869.8,353.2,867.3,353.2z"/>
	</g>
</g>
<g class="st3">
	<path class="st4" d="M406.8,351.7c-1.6,0-2.8-1.3-2.8-3.3c0-2.1,1.2-3.3,2.8-3.3c1.6,0,2.8,1.3,2.8,3.2
		C409.6,350.5,408.4,351.7,406.8,351.7z M406.8,346.3c-0.9,0-1.5,0.8-1.5,2.1c0,1.4,0.6,2.1,1.6,2.1s1.5-0.9,1.5-2.1
		C408.4,347.2,407.8,346.3,406.8,346.3z"/>
	<path class="st4" d="M413.1,351.7c-0.9,0-1.8-0.3-2.4-0.8l0.6-0.9c0.6,0.4,1.2,0.6,1.8,0.6c0.8,0,1.2-0.3,1.2-0.7
		c0-0.5-0.6-0.7-1.5-1.1c-1.4-0.5-1.8-1-1.8-2c0-1.1,0.9-1.7,2.1-1.7c0.8,0,1.6,0.3,2.1,0.7l-0.5,0.9c-0.5-0.4-1-0.5-1.6-0.5
		s-0.9,0.2-0.9,0.6c0,0.3,0.2,0.5,1.2,0.9c1.4,0.5,2.1,0.9,2.1,2.1C415.4,351.3,414.3,351.7,413.1,351.7z"/>
	<path class="st4" d="M420.7,351.6V351c-0.5,0.4-1,0.7-1.6,0.7c-1.4,0-2.4-1-2.4-3.4c0-2.2,1.2-3.2,2.5-3.2c0.6,0,1.2,0.3,1.6,0.7
		v-2.4l1.2-0.6v8.7H420.7z M420.7,347.1c-0.3-0.4-0.9-0.8-1.5-0.8c-0.9,0-1.4,0.7-1.4,2c0,1.6,0.5,2.3,1.4,2.3
		c0.6,0,1.1-0.4,1.4-0.8V347.1z"/>
	<path class="st4" d="M424.4,351.7c-0.5,0-0.9-0.4-0.9-0.9s0.4-1,0.9-1c0.5,0,0.9,0.4,0.9,1S424.9,351.7,424.4,351.7z"/>
	<path class="st4" d="M429.4,351.7c-1.2,0-2.4-0.5-3-1.4l1-0.8c0.5,0.6,1.3,1,2.1,1c1.3,0,1.8-0.5,1.8-1.4c0-0.9-0.6-1.3-1.5-1.3
		h-0.8v-1.2h0.8c0.8,0,1.2-0.5,1.2-1.2c0-0.5-0.3-1.2-1.6-1.2c-0.7,0-1.2,0.3-1.7,0.8l-0.9-0.9c0.7-0.7,1.6-1.1,2.6-1.1
		c1.6,0,2.9,0.8,2.9,2.3c0,1-0.4,1.5-1,1.8c0.8,0.2,1.4,0.9,1.4,1.9C432.6,350.8,431.4,351.7,429.4,351.7z"/>
</g>
<g class="st3">
	<path class="st4" d="M406.9,368.6c-1.2-1.1-2.3-2.7-2.3-4.9c0-2.2,1.1-3.8,2.3-5l0.6,0.5c-1.1,1.2-1.7,2.6-1.7,4.4
		c0,2,0.6,3.3,1.7,4.4L406.9,368.6z"/>
	<path class="st4" d="M409,367.3v-8.1l1.2-0.6v8.7H409z"/>
	<path class="st4" d="M417.2,364.5h-4.2c0.1,1.2,0.8,1.7,1.6,1.7c0.5,0,0.9-0.2,1.4-0.5l0.7,0.8c-0.6,0.5-1.2,0.8-2.2,0.8
		c-1.5,0-2.7-1.2-2.7-3.3c0-2.1,1.1-3.3,2.8-3.3c1.8,0,2.7,1.5,2.7,3.2C417.3,364.2,417.2,364.4,417.2,364.5z M414.5,361.9
		c-0.8,0-1.3,0.6-1.4,1.6h2.9C416,362.7,415.6,361.9,414.5,361.9z"/>
	<path class="st4" d="M422.3,367.3v-0.6c-0.4,0.4-1,0.8-1.7,0.8c-1,0-2.2-0.6-2.2-2.1c0-1.4,1.1-2,2.5-2c0.6,0,1.1,0.1,1.4,0.2V363
		c0-0.7-0.4-1.1-1.2-1.1c-0.6,0-1.2,0.1-1.6,0.4l-0.5-0.9c0.6-0.4,1.3-0.6,2.2-0.6c1.4,0,2.4,0.7,2.4,2.1v4.3H422.3z M422.3,364.6
		c-0.3-0.2-0.8-0.3-1.4-0.3c-0.8,0-1.3,0.4-1.3,0.9c0,0.6,0.4,1,1.2,1c0.7,0,1.2-0.4,1.5-0.8V364.6z"/>
	<path class="st4" d="M427.6,359.6c-0.4,0-0.6,0.2-0.6,0.6v0.7h1.2v1.2H427v5.1h-1.2v-5.1h-0.8V361h0.8v-0.8c0-1.2,0.7-1.6,1.6-1.6
		c0.3,0,0.7,0,0.9,0.1v1.1C428,359.7,427.8,359.6,427.6,359.6z"/>
	<path class="st4" d="M430,368.6l-0.6-0.5c1.1-1.2,1.7-2.6,1.7-4.4c0-2-0.6-3.3-1.7-4.4l0.6-0.5c1.2,1.1,2.3,2.7,2.3,4.9
		C432.3,365.8,431.2,367.4,430,368.6z"/>
</g>
<g class="st3">
	<path class="st4" d="M523.7,351.7c-1.6,0-2.8-1.3-2.8-3.3c0-2.1,1.2-3.3,2.8-3.3c1.6,0,2.8,1.3,2.8,3.2
		C526.6,350.5,525.4,351.7,523.7,351.7z M523.7,346.3c-0.9,0-1.5,0.8-1.5,2.1c0,1.4,0.6,2.1,1.6,2.1s1.5-0.9,1.5-2.1
		C525.3,347.2,524.7,346.3,523.7,346.3z"/>
	<path class="st4" d="M530,351.7c-0.9,0-1.8-0.3-2.4-0.8l0.6-0.9c0.6,0.4,1.2,0.6,1.8,0.6c0.8,0,1.2-0.3,1.2-0.7
		c0-0.5-0.6-0.7-1.5-1.1c-1.4-0.5-1.8-1-1.8-2c0-1.1,0.9-1.7,2.1-1.7c0.8,0,1.6,0.3,2.1,0.7l-0.5,0.9c-0.5-0.4-1-0.5-1.6-0.5
		c-0.6,0-0.9,0.2-0.9,0.6c0,0.3,0.2,0.5,1.2,0.9c1.4,0.5,2.1,0.9,2.1,2.1C532.4,351.3,531.3,351.7,530,351.7z"/>
	<path class="st4" d="M537.6,351.6V351c-0.5,0.4-1,0.7-1.6,0.7c-1.4,0-2.4-1-2.4-3.4c0-2.2,1.2-3.2,2.5-3.2c0.6,0,1.2,0.3,1.6,0.7
		v-2.4l1.2-0.6v8.7H537.6z M537.7,347.1c-0.3-0.4-0.9-0.8-1.5-0.8c-0.9,0-1.4,0.7-1.4,2c0,1.6,0.5,2.3,1.4,2.3
		c0.6,0,1.1-0.4,1.4-0.8V347.1z"/>
	<path class="st4" d="M541.3,351.7c-0.5,0-0.9-0.4-0.9-0.9s0.4-1,0.9-1c0.5,0,0.9,0.4,0.9,1S541.8,351.7,541.3,351.7z"/>
	<path class="st4" d="M549,349.7v1.9h-1.2v-1.8h-4.5v-1.2l4.3-5.3h1.4v5.4h1.1v1.1H549z M547,345.6l-1.6,2.1
		c-0.3,0.3-0.6,0.7-0.8,0.9c0.3,0,0.9,0,1.4,0h1.8v-2.4c0-0.5,0-1.2,0-1.5C547.6,344.8,547.3,345.3,547,345.6z"/>
</g>
<g class="st3">
	<path class="st4" d="M524,368.6c-1.2-1.1-2.3-2.7-2.3-4.9c0-2.2,1.1-3.8,2.3-5l0.6,0.5c-1.1,1.2-1.7,2.6-1.7,4.4
		c0,2,0.6,3.3,1.7,4.4L524,368.6z"/>
	<path class="st4" d="M526.2,367.3v-8.1l1.2-0.6v8.7H526.2z"/>
	<path class="st4" d="M534.4,364.5h-4.2c0.1,1.2,0.8,1.7,1.6,1.7c0.5,0,0.9-0.2,1.4-0.5l0.7,0.8c-0.6,0.5-1.2,0.8-2.2,0.8
		c-1.5,0-2.7-1.2-2.7-3.3c0-2.1,1.1-3.3,2.8-3.3c1.8,0,2.7,1.5,2.7,3.2C534.4,364.2,534.4,364.4,534.4,364.5z M531.7,361.9
		c-0.8,0-1.3,0.6-1.4,1.6h2.9C533.1,362.7,532.7,361.9,531.7,361.9z"/>
	<path class="st4" d="M539.5,367.3v-0.6c-0.4,0.4-1,0.8-1.7,0.8c-1,0-2.2-0.6-2.2-2.1c0-1.4,1.1-2,2.5-2c0.6,0,1.1,0.1,1.4,0.2V363
		c0-0.7-0.4-1.1-1.2-1.1c-0.6,0-1.2,0.1-1.6,0.4l-0.5-0.9c0.6-0.4,1.3-0.6,2.2-0.6c1.4,0,2.4,0.7,2.4,2.1v4.3H539.5z M539.5,364.6
		c-0.3-0.2-0.8-0.3-1.4-0.3c-0.8,0-1.3,0.4-1.3,0.9c0,0.6,0.4,1,1.2,1c0.7,0,1.2-0.4,1.5-0.8V364.6z"/>
	<path class="st4" d="M544.7,359.6c-0.4,0-0.6,0.2-0.6,0.6v0.7h1.2v1.2h-1.2v5.1h-1.2v-5.1H542V361h0.8v-0.8c0-1.2,0.7-1.6,1.6-1.6
		c0.3,0,0.7,0,0.9,0.1v1.1C545.1,359.7,544.9,359.6,544.7,359.6z"/>
	<path class="st4" d="M547.1,368.6l-0.6-0.5c1.1-1.2,1.7-2.6,1.7-4.4c0-2-0.6-3.3-1.7-4.4l0.6-0.5c1.2,1.1,2.3,2.7,2.3,4.9
		C549.4,365.8,548.3,367.4,547.1,368.6z"/>
</g>
<g class="st3">
	<path class="st4" d="M641,351.7c-1.6,0-2.8-1.3-2.8-3.3c0-2.1,1.2-3.3,2.8-3.3c1.6,0,2.8,1.3,2.8,3.2
		C643.8,350.5,642.6,351.7,641,351.7z M641,346.3c-0.9,0-1.5,0.8-1.5,2.1c0,1.4,0.6,2.1,1.6,2.1s1.5-0.9,1.5-2.1
		C642.6,347.2,642,346.3,641,346.3z"/>
	<path class="st4" d="M647.3,351.7c-0.9,0-1.8-0.3-2.4-0.8l0.6-0.9c0.6,0.4,1.2,0.6,1.8,0.6c0.8,0,1.2-0.3,1.2-0.7
		c0-0.5-0.6-0.7-1.5-1.1c-1.4-0.5-1.8-1-1.8-2c0-1.1,0.9-1.7,2.1-1.7c0.8,0,1.6,0.3,2.1,0.7l-0.5,0.9c-0.5-0.4-1-0.5-1.6-0.5
		s-0.9,0.2-0.9,0.6c0,0.3,0.2,0.5,1.2,0.9c1.4,0.5,2.1,0.9,2.1,2.1C649.6,351.3,648.5,351.7,647.3,351.7z"/>
	<path class="st4" d="M654.9,351.6V351c-0.5,0.4-1,0.7-1.6,0.7c-1.4,0-2.4-1-2.4-3.4c0-2.2,1.2-3.2,2.5-3.2c0.6,0,1.2,0.3,1.6,0.7
		v-2.4l1.2-0.6v8.7H654.9z M654.9,347.1c-0.3-0.4-0.9-0.8-1.5-0.8c-0.9,0-1.4,0.7-1.4,2c0,1.6,0.5,2.3,1.4,2.3
		c0.6,0,1.1-0.4,1.4-0.8V347.1z"/>
	<path class="st4" d="M658.5,351.7c-0.5,0-0.9-0.4-0.9-0.9s0.4-1,0.9-1s0.9,0.4,0.9,1S659.1,351.7,658.5,351.7z"/>
	<path class="st4" d="M663.6,351.7c-1.1,0-2-0.3-2.9-0.8l0.6-1c0.7,0.4,1.6,0.6,2.4,0.6c1.3,0,2-0.6,2-1.7c0-1-0.7-1.5-1.7-1.5
		c-0.7,0-1.2,0.2-1.6,0.5l-1.3-0.5l0.3-4.1h5.2v1.2h-4l-0.2,2.1c0.5-0.3,1.1-0.4,1.8-0.4c1.9,0,2.9,1.1,2.9,2.7
		C667,350.8,665.6,351.7,663.6,351.7z"/>
</g>
<g class="st3">
	<path class="st4" d="M641.1,368.6c-1.2-1.1-2.3-2.7-2.3-4.9c0-2.2,1.1-3.8,2.3-5l0.6,0.5c-1.1,1.2-1.7,2.6-1.7,4.4
		c0,2,0.6,3.3,1.7,4.4L641.1,368.6z"/>
	<path class="st4" d="M643.3,367.3v-8.1l1.2-0.6v8.7H643.3z"/>
	<path class="st4" d="M651.5,364.5h-4.2c0.1,1.2,0.8,1.7,1.6,1.7c0.5,0,0.9-0.2,1.4-0.5l0.7,0.8c-0.6,0.5-1.2,0.8-2.2,0.8
		c-1.5,0-2.7-1.2-2.7-3.3c0-2.1,1.1-3.3,2.8-3.3c1.8,0,2.7,1.5,2.7,3.2C651.5,364.2,651.5,364.4,651.5,364.5z M648.8,361.9
		c-0.8,0-1.3,0.6-1.4,1.6h2.9C650.2,362.7,649.8,361.9,648.8,361.9z"/>
	<path class="st4" d="M656.6,367.3v-0.6c-0.4,0.4-1,0.8-1.7,0.8c-1,0-2.2-0.6-2.2-2.1c0-1.4,1.1-2,2.5-2c0.6,0,1.1,0.1,1.4,0.2V363
		c0-0.7-0.4-1.1-1.2-1.1c-0.6,0-1.2,0.1-1.6,0.4l-0.5-0.9c0.6-0.4,1.3-0.6,2.2-0.6c1.4,0,2.4,0.7,2.4,2.1v4.3H656.6z M656.6,364.6
		c-0.3-0.2-0.8-0.3-1.4-0.3c-0.8,0-1.3,0.4-1.3,0.9c0,0.6,0.4,1,1.2,1c0.7,0,1.2-0.4,1.5-0.8V364.6z"/>
	<path class="st4" d="M661.8,359.6c-0.4,0-0.6,0.2-0.6,0.6v0.7h1.2v1.2h-1.2v5.1H660v-5.1h-0.8V361h0.8v-0.8c0-1.2,0.7-1.6,1.6-1.6
		c0.3,0,0.7,0,0.9,0.1v1.1C662.2,359.7,662,359.6,661.8,359.6z"/>
	<path class="st4" d="M664.2,368.6l-0.6-0.5c1.1-1.2,1.7-2.6,1.7-4.4c0-2-0.6-3.3-1.7-4.4l0.6-0.5c1.2,1.1,2.3,2.7,2.3,4.9
		C666.5,365.8,665.4,367.4,664.2,368.6z"/>
</g>
<rect id="rect1014" x="308.1" y="22.4" class="st2" width="104.9" height="115.9"/>
<g class="st3">
	<path class="st4" d="M345.8,111.2v-0.6c-0.5,0.4-1,0.7-1.6,0.7c-1.4,0-2.4-1-2.4-3.4c0-2.2,1.2-3.2,2.5-3.2c0.6,0,1.2,0.3,1.6,0.7
		v-2.4l1.2-0.6v8.7H345.8z M345.8,106.8c-0.3-0.4-0.9-0.8-1.5-0.8c-0.9,0-1.4,0.7-1.4,2c0,1.6,0.5,2.3,1.4,2.3
		c0.6,0,1.1-0.4,1.4-0.8V106.8z"/>
	<path class="st4" d="M354,108.5h-4.2c0.1,1.2,0.8,1.7,1.6,1.7c0.5,0,0.9-0.2,1.4-0.5l0.7,0.8c-0.6,0.5-1.2,0.8-2.2,0.8
		c-1.5,0-2.7-1.2-2.7-3.3c0-2.1,1.1-3.3,2.8-3.3c1.8,0,2.7,1.5,2.7,3.2C354,108.2,354,108.4,354,108.5z M351.3,105.9
		c-0.8,0-1.3,0.6-1.4,1.6h2.9C352.7,106.7,352.3,105.9,351.3,105.9z"/>
	<path class="st4" d="M357.7,103.6c-0.4,0-0.6,0.2-0.6,0.6v0.7h1.2v1.2h-1.2v5.1h-1.2v-5.1h-0.8v-1.2h0.8v-0.8
		c0-1.2,0.7-1.6,1.6-1.6c0.3,0,0.7,0,0.9,0.1v1.1C358.1,103.7,357.9,103.6,357.7,103.6z"/>
	<path class="st4" d="M363,111.2v-0.6c-0.4,0.4-1,0.8-1.7,0.8c-1,0-2.2-0.6-2.2-2.1c0-1.4,1.1-2,2.5-2c0.6,0,1.1,0.1,1.4,0.2V107
		c0-0.7-0.4-1.1-1.2-1.1c-0.6,0-1.2,0.1-1.6,0.4l-0.5-0.9c0.6-0.4,1.3-0.6,2.2-0.6c1.4,0,2.4,0.7,2.4,2.1v4.3H363z M363,108.6
		c-0.3-0.2-0.8-0.3-1.4-0.3c-0.8,0-1.3,0.4-1.3,0.9c0,0.6,0.4,1,1.2,1c0.7,0,1.2-0.4,1.5-0.8V108.6z"/>
	<path class="st4" d="M369.8,111.2v-0.6c-0.3,0.5-0.9,0.7-1.6,0.7c-1.5,0-2.2-1-2.2-2.8v-3.6h1.2v3.6c0,1.3,0.5,1.7,1.3,1.7
		c0.8,0,1.3-0.6,1.3-1.6v-3.7h1.2v6.3H369.8z"/>
	<path class="st4" d="M372.9,111.2v-8.1l1.2-0.6v8.7H372.9z"/>
	<path class="st4" d="M379,111.1c-0.3,0.2-0.7,0.3-1.2,0.3c-0.9,0-1.4-0.5-1.4-1.7v-3.6h-0.9v-1.1h0.9v-1.8l1.2-0.6v2.4h1.6v1.1
		h-1.6v3.4c0,0.6,0.2,0.8,0.6,0.8c0.3,0,0.7-0.1,0.9-0.3L379,111.1z"/>
</g>
<g class="st3">
	<path class="st4" d="M327.7,128.2c-1.2-1.1-2.3-2.7-2.3-4.9c0-2.2,1.1-3.8,2.3-5l0.6,0.5c-1.1,1.2-1.7,2.6-1.7,4.4
		c0,2,0.6,3.3,1.7,4.4L327.7,128.2z"/>
	<path class="st4" d="M332.9,121.9c-0.3-0.1-0.5-0.2-0.9-0.2c-0.8,0-1.2,0.6-1.2,1.6v3.6h-1.2v-6.3h1.2v0.6c0.3-0.4,0.8-0.7,1.4-0.7
		c0.5,0,0.8,0.1,1.1,0.3L332.9,121.9z"/>
	<path class="st4" d="M336.7,127c-1.6,0-2.8-1.3-2.8-3.3c0-2.1,1.2-3.3,2.8-3.3c1.6,0,2.8,1.3,2.8,3.3
		C339.5,125.8,338.3,127,336.7,127z M336.7,121.7c-0.9,0-1.5,0.8-1.5,2.1c0,1.4,0.6,2.1,1.6,2.1s1.5-0.9,1.5-2.1
		C338.3,122.5,337.7,121.7,336.7,121.7z"/>
	<path class="st4" d="M343.5,127c-1.6,0-2.8-1.3-2.8-3.3c0-2.1,1.2-3.3,2.8-3.3c1.6,0,2.8,1.3,2.8,3.3
		C346.4,125.8,345.2,127,343.5,127z M343.5,121.7c-0.9,0-1.5,0.8-1.5,2.1c0,1.4,0.6,2.1,1.6,2.1s1.5-0.9,1.5-2.1
		C345.1,122.5,344.5,121.7,343.5,121.7z"/>
	<path class="st4" d="M350.9,126.8c-0.3,0.2-0.7,0.3-1.2,0.3c-0.9,0-1.4-0.5-1.4-1.7v-3.6h-0.9v-1.1h0.9v-1.8l1.2-0.6v2.4h1.6v1.1
		h-1.6v3.4c0,0.6,0.2,0.8,0.6,0.8c0.3,0,0.7-0.1,0.9-0.3L350.9,126.8z"/>
	<path class="st4" d="M358.7,127c-0.6,0-1.2-0.3-1.6-0.7v0.6h-1.2v-8.1l1.2-0.6v3c0.5-0.4,1-0.7,1.6-0.7c1.4,0,2.4,1,2.4,3.4
		C361.2,126,360,127,358.7,127z M358.6,121.6c-0.6,0-1.1,0.4-1.4,0.8v2.7c0.3,0.4,0.9,0.8,1.5,0.8c0.9,0,1.4-0.7,1.4-2
		C360,122.3,359.5,121.6,358.6,121.6z"/>
	<path class="st4" d="M366.6,126.9v-0.6c-0.3,0.5-0.9,0.7-1.6,0.7c-1.5,0-2.2-1-2.2-2.8v-3.6h1.2v3.6c0,1.3,0.5,1.7,1.3,1.7
		c0.8,0,1.3-0.6,1.3-1.6v-3.7h1.2v6.3H366.6z"/>
	<path class="st4" d="M373.6,122.4c-0.5-0.5-1-0.8-1.5-0.8c-0.9,0-1.5,0.8-1.5,2.1c0,1.2,0.5,2.1,1.5,2.1c0.6,0,0.9-0.3,1.4-0.8
		l0.8,0.8c-0.5,0.6-1.1,1.2-2.3,1.2c-1.5,0-2.7-1.3-2.7-3.3c0-2.1,1.2-3.3,2.8-3.3c0.9,0,1.6,0.4,2.2,1.1L373.6,122.4z"/>
	<path class="st4" d="M379.5,126.9l-1.4-3.1l-1,1.3v1.9h-1.2v-8.1l1.2-0.6v4c0,0.4,0,1,0,1.3c0.2-0.3,0.5-0.7,0.7-1l1.3-1.8h1.4
		l-1.6,2.1l1.9,4.2H379.5z"/>
	<path class="st4" d="M387,124.2h-4.2c0.1,1.2,0.8,1.7,1.6,1.7c0.5,0,0.9-0.2,1.4-0.5l0.7,0.8c-0.6,0.5-1.2,0.8-2.2,0.8
		c-1.5,0-2.7-1.2-2.7-3.3c0-2.1,1.1-3.3,2.8-3.3c1.8,0,2.7,1.5,2.7,3.2C387,123.9,387,124.1,387,124.2z M384.3,121.6
		c-0.8,0-1.3,0.6-1.4,1.6h2.9C385.7,122.3,385.3,121.6,384.3,121.6z"/>
	<path class="st4" d="M391.5,126.8c-0.3,0.2-0.7,0.3-1.2,0.3c-0.9,0-1.4-0.5-1.4-1.7v-3.6H388v-1.1h0.9v-1.8l1.2-0.6v2.4h1.6v1.1
		h-1.6v3.4c0,0.6,0.2,0.8,0.6,0.8c0.3,0,0.7-0.1,0.9-0.3L391.5,126.8z"/>
	<path class="st4" d="M393.4,128.2l-0.6-0.5c1.1-1.2,1.7-2.6,1.7-4.4c0-2-0.6-3.3-1.7-4.4l0.6-0.5c1.2,1.1,2.3,2.7,2.3,4.9
		C395.7,125.5,394.6,127.1,393.4,128.2z"/>
</g>
<g>
	<g>
		<path class="st4" d="M52.3,316.9C52.3,316.9,52.3,316.8,52.3,316.9c-3-0.4-5.4-0.9-7.4-1.5c-0.2-0.1-0.3-0.3-0.2-0.4
			c0.1-0.2,0.3-0.3,0.4-0.2c1.9,0.6,4.3,1.1,7.2,1.5c0.2,0,0.3,0.2,0.3,0.4C52.7,316.7,52.5,316.9,52.3,316.9z"/>
		<path class="st4" d="M67.1,318c-3,0-5.8-0.1-8.6-0.3c-0.3,0-0.5-0.3-0.5-0.6c0-0.3,0.3-0.5,0.6-0.5c2.7,0.2,5.6,0.3,8.5,0.3
			c9,0,17.3-0.9,22.1-2.5c0.3-0.1,0.6,0.1,0.7,0.3c0.1,0.3-0.1,0.6-0.3,0.7C84.5,317,76.2,318,67.1,318z"/>
		<path class="st4" d="M67.1,334.3c-13.5,0-27.1-2.2-27.1-6.3v-16.2c0-4.1,13.7-6.3,27.1-6.3c13.5,0,27.1,2.2,27.1,6.3V328
			C94.2,332.1,80.5,334.3,67.1,334.3z M67.1,307c-15.9,0-25.7,2.8-25.7,4.9V328c0,2,9.8,4.9,25.7,4.9c15.9,0,25.7-2.8,25.7-4.9
			v-16.2C92.8,309.8,83,307,67.1,307z"/>
	</g>
</g>
<g>
	<g>
		<path class="st4" d="M169.5,316.9C169.4,316.9,169.4,316.8,169.5,316.9c-3-0.4-5.4-0.9-7.4-1.5c-0.2-0.1-0.3-0.3-0.2-0.4
			c0.1-0.2,0.3-0.3,0.4-0.2c1.9,0.6,4.3,1.1,7.2,1.5c0.2,0,0.3,0.2,0.3,0.4C169.8,316.7,169.6,316.9,169.5,316.9z"/>
		<path class="st4" d="M184.2,318c-3,0-5.8-0.1-8.6-0.3c-0.3,0-0.5-0.3-0.5-0.6c0-0.3,0.3-0.5,0.6-0.5c2.7,0.2,5.6,0.3,8.5,0.3
			c9,0,17.3-0.9,22.1-2.5c0.3-0.1,0.6,0.1,0.7,0.3c0.1,0.3-0.1,0.6-0.3,0.7C201.7,317,193.3,318,184.2,318z"/>
		<path class="st4" d="M184.2,334.3c-13.5,0-27.1-2.2-27.1-6.3v-16.2c0-4.1,13.7-6.3,27.1-6.3c13.5,0,27.1,2.2,27.1,6.3V328
			C211.3,332.1,197.7,334.3,184.2,334.3z M184.2,307c-15.9,0-25.7,2.8-25.7,4.9V328c0,2,9.8,4.9,25.7,4.9c15.9,0,25.7-2.8,25.7-4.9
			v-16.2C209.9,309.8,200.1,307,184.2,307z"/>
	</g>
</g>
<g>
	<g>
		<path class="st4" d="M286.6,316.9C286.6,316.9,286.5,316.8,286.6,316.9c-3-0.4-5.4-0.9-7.4-1.5c-0.2-0.1-0.3-0.3-0.2-0.4
			c0.1-0.2,0.3-0.3,0.4-0.2c1.9,0.6,4.3,1.1,7.2,1.5c0.2,0,0.3,0.2,0.3,0.4C286.9,316.7,286.7,316.9,286.6,316.9z"/>
		<path class="st4" d="M301.3,318c-3,0-5.8-0.1-8.6-0.3c-0.3,0-0.5-0.3-0.5-0.6c0-0.3,0.3-0.5,0.6-0.5c2.7,0.2,5.6,0.3,8.5,0.3
			c9,0,17.3-0.9,22.1-2.5c0.3-0.1,0.6,0.1,0.7,0.3c0.1,0.3-0.1,0.6-0.3,0.7C318.8,317,310.4,318,301.3,318z"/>
		<path class="st4" d="M301.3,334.3c-13.5,0-27.1-2.2-27.1-6.3v-16.2c0-4.1,13.7-6.3,27.1-6.3c13.5,0,27.1,2.2,27.1,6.3V328
			C328.4,332.1,314.8,334.3,301.3,334.3z M301.3,307c-15.9,0-25.7,2.8-25.7,4.9V328c0,2,9.8,4.9,25.7,4.9c15.9,0,25.7-2.8,25.7-4.9
			v-16.2C327,309.8,317.2,307,301.3,307z"/>
	</g>
</g>
<g>
	<g>
		<path class="st4" d="M95.8,206c0.1-0.4-0.1-0.9-0.5-1.1l-8.9-4.3c-0.1-0.1-0.3-0.1-0.4-0.1H49.5c-0.1,0-0.3,0-0.4,0.1l-10.2,4.4
			c-0.4,0.2-0.7,0.7-0.5,1.1c0,0.1-0.1,0.2-0.1,0.2v0.2v16c0,0.5,0.4,1,1,1h55.6c0.5,0,1-0.4,1-1v-16v-0.2
			C95.8,206.2,95.8,206.1,95.8,206z M49.7,202.4h36.1l6,2.9H42.8L49.7,202.4z M93.9,221.6H40.2v-14.1h53.7V221.6z"/>
		<circle class="st4" cx="45.1" cy="214.5" r="1.3"/>
		<circle class="st4" cx="49.8" cy="214.5" r="1.3"/>
		<path class="st4" d="M91.2,218.3c0,0.3-0.2,0.5-0.5,0.5h-2.9c-0.3,0-0.5-0.2-0.5-0.5v-7.7c0-0.3,0.2-0.5,0.5-0.5h2.9
			c0.3,0,0.5,0.2,0.5,0.5V218.3z M88.3,217.8h1.9V211h-1.9V217.8z"/>
		<path class="st4" d="M85.4,218.3c0,0.3-0.2,0.5-0.5,0.5H82c-0.3,0-0.5-0.2-0.5-0.5v-7.7c0-0.3,0.2-0.5,0.5-0.5h2.9
			c0.3,0,0.5,0.2,0.5,0.5V218.3z M82.5,217.8h1.9V211h-1.9V217.8z"/>
	</g>
</g>
<g>
	<g>
		<path class="st4" d="M212.9,206c0.1-0.4-0.1-0.9-0.5-1.1l-8.9-4.3c-0.1-0.1-0.3-0.1-0.4-0.1h-36.5c-0.1,0-0.3,0-0.4,0.1l-10.2,4.4
			c-0.4,0.2-0.7,0.7-0.5,1.1c0,0.1-0.1,0.2-0.1,0.2v0.2v16c0,0.5,0.4,1,1,1H212c0.5,0,1-0.4,1-1v-16v-0.2
			C212.9,206.2,212.9,206.1,212.9,206z M166.8,202.4h36.1l6,2.9h-48.9L166.8,202.4z M211,221.6h-53.7v-14.1H211V221.6z"/>
		<circle class="st4" cx="162.2" cy="214.5" r="1.3"/>
		<circle class="st4" cx="166.9" cy="214.5" r="1.3"/>
		<path class="st4" d="M208.3,218.3c0,0.3-0.2,0.5-0.5,0.5H205c-0.3,0-0.5-0.2-0.5-0.5v-7.7c0-0.3,0.2-0.5,0.5-0.5h2.9
			c0.3,0,0.5,0.2,0.5,0.5V218.3z M205.4,217.8h1.9V211h-1.9V217.8z"/>
		<path class="st4" d="M202.5,218.3c0,0.3-0.2,0.5-0.5,0.5h-2.9c-0.3,0-0.5-0.2-0.5-0.5v-7.7c0-0.3,0.2-0.5,0.5-0.5h2.9
			c0.3,0,0.5,0.2,0.5,0.5V218.3z M199.6,217.8h1.9V211h-1.9V217.8z"/>
	</g>
</g>
<g>
	<g>
		<path class="st4" d="M330,206c0.1-0.4-0.1-0.9-0.5-1.1l-8.9-4.3c-0.1-0.1-0.3-0.1-0.4-0.1h-36.5c-0.1,0-0.3,0-0.4,0.1l-10.2,4.4
			c-0.4,0.2-0.7,0.7-0.5,1.1c0,0.1-0.1,0.2-0.1,0.2v0.2v16c0,0.5,0.4,1,1,1h55.6c0.5,0,1-0.4,1-1v-16v-0.2
			C330.1,206.2,330,206.1,330,206z M283.9,202.4H320l6,2.9h-48.9L283.9,202.4z M328.1,221.6h-53.7v-14.1h53.7V221.6z"/>
		<circle class="st4" cx="279.3" cy="214.5" r="1.3"/>
		<circle class="st4" cx="284.1" cy="214.5" r="1.3"/>
		<path class="st4" d="M325.5,218.3c0,0.3-0.2,0.5-0.5,0.5h-2.9c-0.3,0-0.5-0.2-0.5-0.5v-7.7c0-0.3,0.2-0.5,0.5-0.5h2.9
			c0.3,0,0.5,0.2,0.5,0.5V218.3z M322.6,217.8h1.9V211h-1.9V217.8z"/>
		<path class="st4" d="M319.7,218.3c0,0.3-0.2,0.5-0.5,0.5h-2.9c-0.3,0-0.5-0.2-0.5-0.5v-7.7c0-0.3,0.2-0.5,0.5-0.5h2.9
			c0.3,0,0.5,0.2,0.5,0.5V218.3z M316.8,217.8h1.9V211h-1.9V217.8z"/>
	</g>
</g>
<g>
	<g>
		<path class="st4" d="M447.1,206c0.1-0.4-0.1-0.9-0.5-1.1l-8.9-4.3c-0.1-0.1-0.3-0.1-0.4-0.1h-36.5c-0.1,0-0.3,0-0.4,0.1l-10.2,4.4
			c-0.4,0.2-0.7,0.7-0.5,1.1c0,0.1-0.1,0.2-0.1,0.2v0.2v16c0,0.5,0.4,1,1,1h55.6c0.5,0,1-0.4,1-1v-16v-0.2
			C447.2,206.2,447.2,206.1,447.1,206z M401,202.4h36.1l6,2.9h-48.9L401,202.4z M445.3,221.6h-53.7v-14.1h53.7V221.6z"/>
		<circle class="st4" cx="396.5" cy="214.5" r="1.3"/>
		<circle class="st4" cx="401.2" cy="214.5" r="1.3"/>
		<path class="st4" d="M442.6,218.3c0,0.3-0.2,0.5-0.5,0.5h-2.9c-0.3,0-0.5-0.2-0.5-0.5v-7.7c0-0.3,0.2-0.5,0.5-0.5h2.9
			c0.3,0,0.5,0.2,0.5,0.5V218.3z M439.7,217.8h1.9V211h-1.9V217.8z"/>
		<path class="st4" d="M436.8,218.3c0,0.3-0.2,0.5-0.5,0.5h-2.9c-0.3,0-0.5-0.2-0.5-0.5v-7.7c0-0.3,0.2-0.5,0.5-0.5h2.9
			c0.3,0,0.5,0.2,0.5,0.5V218.3z M433.9,217.8h1.9V211h-1.9V217.8z"/>
	</g>
</g>
<g>
	<g>
		<path class="st4" d="M564.3,206c0.1-0.4-0.1-0.9-0.5-1.1l-8.9-4.3c-0.1-0.1-0.3-0.1-0.4-0.1H518c-0.1,0-0.3,0-0.4,0.1l-10.2,4.4
			c-0.4,0.2-0.7,0.7-0.5,1.1c0,0.1-0.1,0.2-0.1,0.2v0.2v16c0,0.5,0.4,1,1,1h55.6c0.5,0,1-0.4,1-1v-16v-0.2
			C564.3,206.2,564.3,206.1,564.3,206z M518.2,202.4h36.1l6,2.9h-48.9L518.2,202.4z M562.4,221.6h-53.7v-14.1h53.7V221.6z"/>
		<circle class="st4" cx="513.6" cy="214.5" r="1.3"/>
		<circle class="st4" cx="518.3" cy="214.5" r="1.3"/>
		<path class="st4" d="M559.7,218.3c0,0.3-0.2,0.5-0.5,0.5h-2.9c-0.3,0-0.5-0.2-0.5-0.5v-7.7c0-0.3,0.2-0.5,0.5-0.5h2.9
			c0.3,0,0.5,0.2,0.5,0.5V218.3z M556.8,217.8h1.9V211h-1.9V217.8z"/>
		<path class="st4" d="M553.9,218.3c0,0.3-0.2,0.5-0.5,0.5h-2.9c-0.3,0-0.5-0.2-0.5-0.5v-7.7c0-0.3,0.2-0.5,0.5-0.5h2.9
			c0.3,0,0.5,0.2,0.5,0.5V218.3z M551,217.8h1.9V211H551V217.8z"/>
	</g>
</g>
<g>
	<g>
		<path class="st4" d="M681.4,206c0.1-0.4-0.1-0.9-0.5-1.1l-8.9-4.3c-0.1-0.1-0.3-0.1-0.4-0.1h-36.5c-0.1,0-0.3,0-0.4,0.1l-10.2,4.4
			c-0.4,0.2-0.7,0.7-0.5,1.1c0,0.1-0.1,0.2-0.1,0.2v0.2v16c0,0.5,0.4,1,1,1h55.6c0.5,0,1-0.4,1-1v-16v-0.2
			C681.4,206.2,681.4,206.1,681.4,206z M635.3,202.4h36.1l6,2.9h-48.9L635.3,202.4z M679.5,221.6h-53.7v-14.1h53.7V221.6z"/>
		<circle class="st4" cx="630.7" cy="214.5" r="1.3"/>
		<circle class="st4" cx="635.4" cy="214.5" r="1.3"/>
		<path class="st4" d="M676.8,218.3c0,0.3-0.2,0.5-0.5,0.5h-2.9c-0.3,0-0.5-0.2-0.5-0.5v-7.7c0-0.3,0.2-0.5,0.5-0.5h2.9
			c0.3,0,0.5,0.2,0.5,0.5V218.3z M673.9,217.8h1.9V211h-1.9V217.8z"/>
		<path class="st4" d="M671,218.3c0,0.3-0.2,0.5-0.5,0.5h-2.9c-0.3,0-0.5-0.2-0.5-0.5v-7.7c0-0.3,0.2-0.5,0.5-0.5h2.9
			c0.3,0,0.5,0.2,0.5,0.5V218.3z M668.1,217.8h1.9V211h-1.9V217.8z"/>
	</g>
</g>
<path class="st4" d="M339.9,80l7.5,9c0.2,0.2,0.5,0.3,0.8,0.1c0,0,0,0,0.1-0.1l7.4-8.9c0.4-0.3,0.5-0.9,0.4-1.4
	c-0.2-0.4-0.7-0.6-1.2-0.5l-2.9,0.4v-2c0-1.4,0.7-2.7,1.8-3.6l6.6-5.1l6.8,5.3c1.1,0.8,1.7,2.1,1.7,3.5v1.8l-2.7-0.4
	c-0.5-0.1-1.1,0.1-1.4,0.6c-0.2,0.5-0.1,1.1,0.3,1.5l7.5,9c0.3,0.3,0.7,0.3,1,0.1c0,0,0.1-0.1,0.1-0.1l7.4-8.9
	c0.4-0.4,0.6-1,0.4-1.6c-0.3-0.5-0.8-0.7-1.4-0.6l-2.8,0.4v-5c0-1.8-0.8-3.5-2.3-4.6l-8-6.2l7.6-5.9c1.4-1.1,2.2-2.7,2.2-4.4V40.6
	c0-0.3-0.2-0.5-0.5-0.5h-7c-0.3,0-0.5,0.2-0.5,0.5c0,0,0,0.1,0,0.1v8.5c0,1.4-0.7,2.7-1.8,3.6l-6.4,5l-6.6-5.1
	c-1.1-0.8-1.7-2.1-1.7-3.5v-8.5c0-0.4-0.3-0.7-0.7-0.7h-7c-0.4,0-0.7,0.3-0.7,0.7c0,0,0,0.1,0,0.1v11.6c0,1.8,0.8,3.5,2.3,4.6l7.7,6
	L346,69c-1.4,1.1-2.2,2.7-2.2,4.4v5.2l-3-0.4c-0.5-0.1-0.9,0.1-1.2,0.5C339.4,79.2,339.5,79.7,339.9,80z M367.7,53.6
	c1.4-1.1,2.2-2.7,2.2-4.4v-8h5.9v11.2c0,1.4-0.7,2.7-1.8,3.6l-7.8,6.1l-4.7-3.6L367.7,53.6z M347,55.8c-1.1-0.8-1.7-2.1-1.7-3.5v-11
	h5.6v7.8c0,1.8,0.8,3.5,2.3,4.6l21,16.2c1.1,0.8,1.7,2.1,1.7,3.5v5.8c0,0.4,0.3,0.7,0.7,0.7c0,0,0,0,0,0h0.1l3.1-0.5l-6.7,8.1
	l-6.7-8.1l3.1,0.5c0.4,0.1,0.8-0.2,0.8-0.6c0,0,0-0.1,0-0.1v-2.6c0-1.8-0.8-3.5-2.3-4.6L347,55.8z M344.2,79.8c0,0,0.1,0,0.1,0h0.1
	c0.3,0,0.5-0.2,0.5-0.5v-5.8c0-1.4,0.7-2.7,1.8-3.6l8-6.2l4.7,3.6l-6.4,5c-1.4,1.1-2.2,2.7-2.2,4.4v2.6c0,0.3,0.2,0.5,0.5,0.5
	c0,0,0.1,0,0.1,0l3.5-0.5l-0.1,0.1l-7,8.5l-7.1-8.5l-0.1-0.1L344.2,79.8z"/>
</svg>
