<?xml version="1.0" encoding="UTF-8" standalone="no"?>
<svg
   xmlns:dc="http://purl.org/dc/elements/1.1/"
   xmlns:cc="http://creativecommons.org/ns#"
   xmlns:rdf="http://www.w3.org/1999/02/22-rdf-syntax-ns#"
   xmlns:svg="http://www.w3.org/2000/svg"
   xmlns="http://www.w3.org/2000/svg"
   xmlns:sodipodi="http://sodipodi.sourceforge.net/DTD/sodipodi-0.dtd"
   xmlns:inkscape="http://www.inkscape.org/namespaces/inkscape"
   inkscape:version="1.0 (4035a4f, 2020-05-01)"
   sodipodi:docname="dns-lookups.svg"
   version="1.1"
   viewBox="0 0 514.289 534.379"
   height="188.517mm"
   width="181.43mm"
   data-name="Layer 1"
   id="Layer_1">
  <metadata
     id="metadata535">
    <rdf:RDF>
      <cc:Work
         rdf:about="">
        <dc:format>image/svg+xml</dc:format>
        <dc:type
           rdf:resource="http://purl.org/dc/dcmitype/StillImage" />
        <dc:title></dc:title>
        <dc:subject>
          <rdf:Bag>
            <rdf:li>DNS; BIND</rdf:li>
          </rdf:Bag>
        </dc:subject>
      </cc:Work>
    </rdf:RDF>
  </metadata>
  <sodipodi:namedview
     inkscape:current-layer="Layer_1"
     inkscape:window-maximized="0"
     inkscape:window-y="23"
     inkscape:window-x="0"
     inkscape:cy="356.2526"
     inkscape:cx="342.85983"
     inkscape:zoom="0.73061928"
     showgrid="false"
     id="namedview533"
     inkscape:window-height="480"
     inkscape:window-width="987"
     inkscape:pageshadow="2"
     inkscape:pageopacity="0"
     guidetolerance="10"
     gridtolerance="10"
     objecttolerance="10"
     borderopacity="1"
     bordercolor="#666666"
     pagecolor="#ffffff" />
  <defs
     id="defs12">
    <style
       id="style10">
      .cls-1 {
        fill: #fff;
      }

      .cls-2 {
        fill: #2764ae;
      }

      .cls-3 {
        fill: #1d1d1b;
      }

      .cls-4, .cls-5 {
        fill: none;
        stroke-miterlimit: 10;
      }

      .cls-4 {
        stroke: #2764ae;
      }

      .cls-5 {
        stroke: #3f9c36;
      }

      .cls-6 {
        fill: #3f9c36;
      }

      .cls-7 {
        fill: #f0f0f0;
      }

      .cls-8 {
        fill: #969696;
      }

      .cls-9 {
        fill: #151515;
      }
    </style>
  </defs>
  <g
     id="g18">
    <rect
       id="rect14"
       height="59.706"
       width="153.117"
       y="27.294"
       x="26.831"
       class="cls-1" />
    <path
       id="path16"
       d="M179.448,27.8V86.5H27.331V27.8H179.448m1-1H26.331V87.5H180.448V26.8Z"
       class="cls-2" />
  </g>
  <g
     id="g72">
    <path
       id="path20"
       d="M60.4,50.525c0-1.387,1.121-2.213,3-2.213a5.929,5.929,0,0,1,1.778.279v-.517c0-.841-.518-1.276-1.54-1.276a5.647,5.647,0,0,0-2.228.6l-.7-1.415a7.6,7.6,0,0,1,3.25-.784c1.975,0,3.109.98,3.109,2.7V52.64H65.172v-.505a3.461,3.461,0,0,1-2.114.631C61.489,52.766,60.4,51.855,60.4,50.525Zm3.166.868a2.762,2.762,0,0,0,1.61-.462V49.838a4.259,4.259,0,0,0-1.54-.266c-.883,0-1.4.35-1.4.911S62.749,51.393,63.562,51.393Z"
       class="cls-3" />
    <path
       id="path22"
       d="M70.31,49.586a1.434,1.434,0,0,0,1.512,1.541,1.76,1.76,0,0,0,1.513-.728V45.342h1.919v7.3H73.335v-.589a3.1,3.1,0,0,1-2.059.729,2.78,2.78,0,0,1-2.886-2.913V45.342h1.92Z"
       class="cls-3" />
    <path
       id="path24"
       d="M77.743,46.952h-1.5v-1.61h1.5V43.479l1.919-.435v2.3h2.073v1.61H79.662v3.237c0,.685.266.938,1.008.938a2.934,2.934,0,0,0,1.023-.169v1.57a5.957,5.957,0,0,1-1.485.223c-1.625,0-2.465-.742-2.465-2.171Z"
       class="cls-3" />
    <path
       id="path26"
       d="M82.684,42.834l1.919-.42v3.5a3.13,3.13,0,0,1,2.045-.714,2.769,2.769,0,0,1,2.886,2.9V52.64H87.615V48.381A1.423,1.423,0,0,0,86.1,46.855a1.749,1.749,0,0,0-1.5.728V52.64H82.684Z"
       class="cls-3" />
    <path
       id="path28"
       d="M94.544,45.2A3.79,3.79,0,1,1,90.65,49,3.8,3.8,0,0,1,94.544,45.2ZM96.561,49a2.019,2.019,0,1,0-2.017,2.116A2.044,2.044,0,0,0,96.561,49Z"
       class="cls-3" />
    <path
       id="path30"
       d="M99.61,45.342h1.919v.8a2.322,2.322,0,0,1,1.947-.966,1.653,1.653,0,0,1,.8.168v1.681a2.448,2.448,0,0,0-.98-.2,1.929,1.929,0,0,0-1.765,1.092V52.64H99.61Z"
       class="cls-3" />
    <path
       id="path32"
       d="M105.167,43.381a1.093,1.093,0,1,1,1.093,1.092A1.1,1.1,0,0,1,105.167,43.381Zm2.06,9.259h-1.919v-7.3h1.919Z"
       class="cls-3" />
    <path
       id="path34"
       d="M109.718,46.952h-1.5v-1.61h1.5V43.479l1.919-.435v2.3h2.073v1.61h-2.073v3.237c0,.685.266.938,1.009.938a2.929,2.929,0,0,0,1.022-.169v1.57a5.949,5.949,0,0,1-1.484.223c-1.625,0-2.466-.742-2.466-2.171Z"
       class="cls-3" />
    <path
       id="path36"
       d="M114.309,50.525c0-1.387,1.121-2.213,3-2.213a5.929,5.929,0,0,1,1.778.279v-.517c0-.841-.518-1.276-1.54-1.276a5.647,5.647,0,0,0-2.228.6l-.7-1.415a7.6,7.6,0,0,1,3.25-.784c1.975,0,3.11.98,3.11,2.7V52.64h-1.892v-.505a3.461,3.461,0,0,1-2.114.631C115.4,52.766,114.309,51.855,114.309,50.525Zm3.166.868a2.762,2.762,0,0,0,1.61-.462V49.838a4.259,4.259,0,0,0-1.54-.266c-.883,0-1.4.35-1.4.911S116.662,51.393,117.475,51.393Z"
       class="cls-3" />
    <path
       id="path38"
       d="M123.144,46.952h-1.5v-1.61h1.5V43.479l1.919-.435v2.3h2.073v1.61h-2.073v3.237c0,.685.266.938,1.009.938a2.929,2.929,0,0,0,1.022-.169v1.57a5.95,5.95,0,0,1-1.485.223c-1.625,0-2.465-.742-2.465-2.171Z"
       class="cls-3" />
    <path
       id="path40"
       d="M127.945,43.381a1.093,1.093,0,1,1,1.093,1.092A1.1,1.1,0,0,1,127.945,43.381ZM130,52.64h-1.919v-7.3H130Z"
       class="cls-3" />
    <path
       id="path42"
       d="M130.745,45.342h2.087l2,4.86,1.989-4.86h2.046l-3.138,7.3h-1.849Z"
       class="cls-3" />
    <path
       id="path44"
       d="M142.927,52.78A3.8,3.8,0,0,1,139.005,49a3.725,3.725,0,0,1,3.754-3.781,3.683,3.683,0,0,1,3.614,3.922v.5h-5.435a2.1,2.1,0,0,0,2.073,1.527,2.3,2.3,0,0,0,1.611-.589l1.261,1.149A4.378,4.378,0,0,1,142.927,52.78Zm-2-4.511H144.5a1.883,1.883,0,0,0-1.779-1.471A1.833,1.833,0,0,0,140.924,48.269Z"
       class="cls-3" />
    <path
       id="path46"
       d="M60.349,59.466l.756.91a6.714,6.714,0,0,0,0,11.164l-.756.912a7.7,7.7,0,0,1,0-12.986Z"
       class="cls-3" />
    <path
       id="path48"
       d="M65.738,69.566A3.669,3.669,0,0,1,62,65.868,3.582,3.582,0,0,1,65.57,62.2a3.531,3.531,0,0,1,3.446,3.725v.406H63.385a2.4,2.4,0,0,0,2.409,2.046,2.772,2.772,0,0,0,1.808-.631l.9.883A4.251,4.251,0,0,1,65.738,69.566ZM63.4,65.28h4.23a2.126,2.126,0,0,0-4.23,0Z"
       class="cls-3" />
    <path
       id="path50"
       d="M71.8,65.784,69.139,62.31h1.638l1.835,2.451,1.835-2.451H76.03L73.4,65.77l2.815,3.67H74.56L72.6,66.806l-1.99,2.634H69.026Z"
       class="cls-3" />
    <path
       id="path52"
       d="M76.419,67.4c0-1.345,1.092-2.172,2.885-2.172a5.033,5.033,0,0,1,1.947.393v-.757c0-1.008-.6-1.513-1.736-1.513a5.076,5.076,0,0,0-2.214.6L76.783,62.9a6.679,6.679,0,0,1,2.927-.729c1.85,0,2.914.911,2.914,2.55V69.44H81.251v-.616a3.387,3.387,0,0,1-2.213.742C77.483,69.566,76.419,68.683,76.419,67.4Zm2.941,1.134a2.741,2.741,0,0,0,1.891-.672V66.624a3.69,3.69,0,0,0-1.834-.434c-1.023,0-1.653.462-1.653,1.177C77.764,68.053,78.408,68.529,79.36,68.529Z"
       class="cls-3" />
    <path
       id="path54"
       d="M84.231,62.31h1.4v.672a2.74,2.74,0,0,1,2-.813,2.484,2.484,0,0,1,2.2,1.192,2.854,2.854,0,0,1,2.409-1.192,2.612,2.612,0,0,1,2.675,2.788V69.44h-1.4V65.2a1.6,1.6,0,0,0-1.639-1.808,1.9,1.9,0,0,0-1.667.953,2.961,2.961,0,0,1,.056.616V69.44H88.881V65.2a1.6,1.6,0,0,0-1.639-1.808,1.869,1.869,0,0,0-1.611.869V69.44h-1.4Z"
       class="cls-3" />
    <path
       id="path56"
       d="M96.523,62.31H97.91V63a3.252,3.252,0,0,1,2.185-.8,3.677,3.677,0,1,1-2.172,6.653v3.488h-1.4Zm1.4,1.961v3.222a2.647,2.647,0,0,0,1.99.84,2.459,2.459,0,0,0,0-4.917A2.558,2.558,0,0,0,97.923,64.271Z"
       class="cls-3" />
    <path
       id="path58"
       d="M106.421,69.44h-1.4V59.634l1.4-.307Z"
       class="cls-3" />
    <path
       id="path60"
       d="M111.49,69.566a3.67,3.67,0,0,1-3.74-3.7,3.583,3.583,0,0,1,3.572-3.67,3.531,3.531,0,0,1,3.446,3.725v.406h-5.631a2.4,2.4,0,0,0,2.409,2.046,2.772,2.772,0,0,0,1.808-.631l.9.883A4.251,4.251,0,0,1,111.49,69.566Zm-2.339-4.286h4.23a2.126,2.126,0,0,0-4.23,0Z"
       class="cls-3" />
    <path
       id="path62"
       d="M117.244,68.655a.891.891,0,0,1-.883.9.9.9,0,0,1-.9-.9.891.891,0,0,1,.9-.882A.879.879,0,0,1,117.244,68.655Z"
       class="cls-3" />
    <path
       id="path64"
       d="M123.658,67.464l.84.911a3.944,3.944,0,0,1-2.815,1.191,3.7,3.7,0,0,1,0-7.4,4.046,4.046,0,0,1,2.871,1.192l-.883.952a2.647,2.647,0,0,0-1.961-.9,2.462,2.462,0,0,0,.029,4.917A2.6,2.6,0,0,0,123.658,67.464Z"
       class="cls-3" />
    <path
       id="path66"
       d="M128.738,62.169a3.705,3.705,0,1,1-3.712,3.7A3.659,3.659,0,0,1,128.738,62.169Zm2.325,3.7a2.336,2.336,0,1,0-2.325,2.479A2.379,2.379,0,0,0,131.063,65.868Z"
       class="cls-3" />
    <path
       id="path68"
       d="M133.763,62.31h1.4v.672a2.738,2.738,0,0,1,2-.813,2.485,2.485,0,0,1,2.2,1.192,2.854,2.854,0,0,1,2.409-1.192,2.612,2.612,0,0,1,2.675,2.788V69.44h-1.4V65.2a1.6,1.6,0,0,0-1.638-1.808,1.9,1.9,0,0,0-1.667.953,2.961,2.961,0,0,1,.056.616V69.44h-1.387V65.2a1.6,1.6,0,0,0-1.639-1.808,1.869,1.869,0,0,0-1.611.869V69.44h-1.4Z"
       class="cls-3" />
    <path
       id="path70"
       d="M146.433,72.41l-.757-.912a6.713,6.713,0,0,0,0-11.164l.757-.91a7.7,7.7,0,0,1,0,12.986Z"
       class="cls-3" />
  </g>
  <polyline
     id="polyline74"
     points="31.564 92.877 185.473 92.877 185.473 32.882"
     class="cls-4" />
  <g
     id="g80">
    <rect
       id="rect76"
       height="59.706"
       width="153.117"
       y="27.294"
       x="321.792"
       class="cls-1" />
    <path
       id="path78"
       d="M474.408,27.8V86.5H322.292V27.8H474.408m1-1H321.292V87.5H475.408V26.8Z"
       class="cls-2" />
  </g>
  <g
     id="g114">
    <path
       id="path82"
       d="M355.357,50.525c0-1.387,1.121-2.213,3-2.213a5.931,5.931,0,0,1,1.779.279v-.517c0-.841-.518-1.276-1.54-1.276a5.647,5.647,0,0,0-2.228.6l-.7-1.415a7.6,7.6,0,0,1,3.25-.784c1.975,0,3.109.98,3.109,2.7V52.64h-1.891v-.505a3.461,3.461,0,0,1-2.114.631C356.45,52.766,355.357,51.855,355.357,50.525Zm3.165.868a2.763,2.763,0,0,0,1.611-.462V49.838a4.259,4.259,0,0,0-1.54-.266c-.883,0-1.4.35-1.4.911S357.71,51.393,358.522,51.393Z"
       class="cls-3" />
    <path
       id="path84"
       d="M365.271,49.586a1.434,1.434,0,0,0,1.512,1.541A1.76,1.76,0,0,0,368.3,50.4V45.342h1.919v7.3H368.3v-.589a3.1,3.1,0,0,1-2.059.729,2.78,2.78,0,0,1-2.886-2.913V45.342h1.92Z"
       class="cls-3" />
    <path
       id="path86"
       d="M372.7,46.952h-1.5v-1.61h1.5V43.479l1.919-.435v2.3H376.7v1.61h-2.073v3.237c0,.685.266.938,1.008.938a2.934,2.934,0,0,0,1.023-.169v1.57a5.957,5.957,0,0,1-1.485.223c-1.625,0-2.465-.742-2.465-2.171Z"
       class="cls-3" />
    <path
       id="path88"
       d="M377.645,42.834l1.919-.42v3.5a3.13,3.13,0,0,1,2.045-.714,2.769,2.769,0,0,1,2.886,2.9V52.64h-1.919V48.381a1.423,1.423,0,0,0-1.513-1.526,1.748,1.748,0,0,0-1.5.728V52.64h-1.919Z"
       class="cls-3" />
    <path
       id="path90"
       d="M389.505,45.2a3.79,3.79,0,1,1-3.894,3.8A3.8,3.8,0,0,1,389.505,45.2Zm2.017,3.8a2.019,2.019,0,1,0-2.017,2.116A2.044,2.044,0,0,0,391.522,49Z"
       class="cls-3" />
    <path
       id="path92"
       d="M394.571,45.342h1.919v.8a2.322,2.322,0,0,1,1.947-.966,1.653,1.653,0,0,1,.8.168v1.681a2.448,2.448,0,0,0-.98-.2,1.929,1.929,0,0,0-1.765,1.092V52.64h-1.919Z"
       class="cls-3" />
    <path
       id="path94"
       d="M400.128,43.381a1.093,1.093,0,1,1,1.093,1.092A1.1,1.1,0,0,1,400.128,43.381Zm2.06,9.259h-1.919v-7.3h1.919Z"
       class="cls-3" />
    <path
       id="path96"
       d="M404.679,46.952h-1.5v-1.61h1.5V43.479l1.919-.435v2.3h2.073v1.61H406.6v3.237c0,.685.266.938,1.008.938a2.931,2.931,0,0,0,1.023-.169v1.57a5.956,5.956,0,0,1-1.484.223c-1.625,0-2.466-.742-2.466-2.171Z"
       class="cls-3" />
    <path
       id="path98"
       d="M409.27,50.525c0-1.387,1.121-2.213,3-2.213a5.929,5.929,0,0,1,1.778.279v-.517c0-.841-.518-1.276-1.54-1.276a5.647,5.647,0,0,0-2.228.6l-.7-1.415a7.6,7.6,0,0,1,3.25-.784c1.975,0,3.11.98,3.11,2.7V52.64h-1.892v-.505a3.463,3.463,0,0,1-2.114.631C410.362,52.766,409.27,51.855,409.27,50.525Zm3.166.868a2.764,2.764,0,0,0,1.61-.462V49.838a4.263,4.263,0,0,0-1.54-.266c-.883,0-1.4.35-1.4.911S411.623,51.393,412.436,51.393Z"
       class="cls-3" />
    <path
       id="path100"
       d="M418.1,46.952h-1.5v-1.61h1.5V43.479l1.919-.435v2.3H422.1v1.61h-2.074v3.237c0,.685.267.938,1.009.938a2.934,2.934,0,0,0,1.023-.169v1.57a5.964,5.964,0,0,1-1.485.223c-1.625,0-2.466-.742-2.466-2.171Z"
       class="cls-3" />
    <path
       id="path102"
       d="M422.906,43.381A1.093,1.093,0,1,1,424,44.473,1.094,1.094,0,0,1,422.906,43.381Zm2.059,9.259h-1.919v-7.3h1.919Z"
       class="cls-3" />
    <path
       id="path104"
       d="M425.706,45.342h2.087l2,4.86,1.989-4.86h2.045l-3.138,7.3h-1.848Z"
       class="cls-3" />
    <path
       id="path106"
       d="M437.888,52.78A3.8,3.8,0,0,1,433.966,49a3.724,3.724,0,0,1,3.754-3.781,3.684,3.684,0,0,1,3.614,3.922v.5H435.9a2.1,2.1,0,0,0,2.074,1.527,2.3,2.3,0,0,0,1.611-.589l1.261,1.149A4.378,4.378,0,0,1,437.888,52.78Zm-2-4.511h3.572a1.883,1.883,0,0,0-1.779-1.471A1.832,1.832,0,0,0,435.885,48.269Z"
       class="cls-3" />
    <path
       id="path108"
       d="M395.637,59.466l.756.91a6.714,6.714,0,0,0,0,11.164l-.756.912a7.7,7.7,0,0,1,0-12.986Z"
       class="cls-3" />
    <path
       id="path110"
       d="M399.234,68.655a.891.891,0,0,1-.883.9.9.9,0,0,1-.9-.9.89.89,0,0,1,.9-.882A.879.879,0,0,1,399.234,68.655Z"
       class="cls-3" />
    <path
       id="path112"
       d="M401.067,72.41l-.756-.912a6.714,6.714,0,0,0,0-11.164l.756-.91a7.7,7.7,0,0,1,0,12.986Z"
       class="cls-3" />
  </g>
  <polyline
     id="polyline116"
     points="326.525 92.324 480.434 92.324 480.434 32.329"
     class="cls-4" />
  <g
     id="g122">
    <rect
       id="rect118"
       height="59.706"
       width="153.117"
       y="111.998"
       x="321.792"
       class="cls-1" />
    <path
       id="path120"
       d="M474.408,112.5V171.2H322.292V112.5H474.408m1-1H321.292V172.2H475.408V111.5Z"
       class="cls-2" />
  </g>
  <g
     id="g162">
    <path
       id="path124"
       d="M355.357,135.228c0-1.387,1.121-2.213,3-2.213a5.9,5.9,0,0,1,1.779.28v-.518c0-.84-.518-1.275-1.54-1.275a5.665,5.665,0,0,0-2.228.6l-.7-1.415a7.611,7.611,0,0,1,3.25-.784c1.975,0,3.109.98,3.109,2.7v4.734h-1.891v-.5a3.46,3.46,0,0,1-2.114.63C356.45,137.469,355.357,136.559,355.357,135.228Zm3.165.869a2.756,2.756,0,0,0,1.611-.463v-1.092a4.238,4.238,0,0,0-1.54-.266c-.883,0-1.4.35-1.4.91S357.71,136.1,358.522,136.1Z"
       class="cls-3" />
    <path
       id="path126"
       d="M365.271,134.289a1.434,1.434,0,0,0,1.512,1.541,1.757,1.757,0,0,0,1.513-.728v-5.057h1.919v7.3H368.3v-.588a3.1,3.1,0,0,1-2.059.729,2.781,2.781,0,0,1-2.886-2.914v-4.525h1.92Z"
       class="cls-3" />
    <path
       id="path128"
       d="M372.7,131.657h-1.5v-1.612h1.5v-1.863l1.919-.434v2.3H376.7v1.612h-2.073v3.235c0,.686.266.938,1.008.938a2.956,2.956,0,0,0,1.023-.168v1.57a5.957,5.957,0,0,1-1.485.223c-1.625,0-2.465-.742-2.465-2.17Z"
       class="cls-3" />
    <path
       id="path130"
       d="M377.645,127.538l1.919-.42v3.5a3.14,3.14,0,0,1,2.045-.713,2.769,2.769,0,0,1,2.886,2.9v4.538h-1.919v-4.258a1.424,1.424,0,0,0-1.513-1.527,1.748,1.748,0,0,0-1.5.728v5.057h-1.919Z"
       class="cls-3" />
    <path
       id="path132"
       d="M389.505,129.906a3.79,3.79,0,1,1-3.894,3.8A3.8,3.8,0,0,1,389.505,129.906Zm2.017,3.8a2.019,2.019,0,1,0-2.017,2.115A2.044,2.044,0,0,0,391.522,133.7Z"
       class="cls-3" />
    <path
       id="path134"
       d="M394.571,130.045h1.919v.8a2.32,2.32,0,0,1,1.947-.967,1.653,1.653,0,0,1,.8.168v1.681a2.448,2.448,0,0,0-.98-.195,1.932,1.932,0,0,0-1.765,1.091v4.721h-1.919Z"
       class="cls-3" />
    <path
       id="path136"
       d="M400.128,128.084a1.093,1.093,0,1,1,1.093,1.093A1.094,1.094,0,0,1,400.128,128.084Zm2.06,9.259h-1.919v-7.3h1.919Z"
       class="cls-3" />
    <path
       id="path138"
       d="M404.679,131.657h-1.5v-1.612h1.5v-1.863l1.919-.434v2.3h2.073v1.612H406.6v3.235c0,.686.266.938,1.008.938a2.952,2.952,0,0,0,1.023-.168v1.57a5.956,5.956,0,0,1-1.484.223c-1.625,0-2.466-.742-2.466-2.17Z"
       class="cls-3" />
    <path
       id="path140"
       d="M409.27,135.228c0-1.387,1.121-2.213,3-2.213a5.9,5.9,0,0,1,1.778.28v-.518c0-.84-.518-1.275-1.54-1.275a5.665,5.665,0,0,0-2.228.6l-.7-1.415a7.614,7.614,0,0,1,3.25-.784c1.975,0,3.11.98,3.11,2.7v4.734h-1.892v-.5a3.462,3.462,0,0,1-2.114.63C410.362,137.469,409.27,136.559,409.27,135.228Zm3.166.869a2.757,2.757,0,0,0,1.61-.463v-1.092a4.242,4.242,0,0,0-1.54-.266c-.883,0-1.4.35-1.4.91S411.623,136.1,412.436,136.1Z"
       class="cls-3" />
    <path
       id="path142"
       d="M418.1,131.657h-1.5v-1.612h1.5v-1.863l1.919-.434v2.3H422.1v1.612h-2.074v3.235c0,.686.267.938,1.009.938a2.956,2.956,0,0,0,1.023-.168v1.57a5.964,5.964,0,0,1-1.485.223c-1.625,0-2.466-.742-2.466-2.17Z"
       class="cls-3" />
    <path
       id="path144"
       d="M422.906,128.084A1.093,1.093,0,1,1,424,129.177,1.094,1.094,0,0,1,422.906,128.084Zm2.059,9.259h-1.919v-7.3h1.919Z"
       class="cls-3" />
    <path
       id="path146"
       d="M425.706,130.045h2.087l2,4.861,1.989-4.861h2.045l-3.138,7.3h-1.848Z"
       class="cls-3" />
    <path
       id="path148"
       d="M437.888,137.484a3.8,3.8,0,0,1-3.922-3.782,3.725,3.725,0,0,1,3.754-3.783,3.684,3.684,0,0,1,3.614,3.922v.5H435.9a2.1,2.1,0,0,0,2.074,1.526,2.3,2.3,0,0,0,1.611-.587l1.261,1.148A4.378,4.378,0,0,1,437.888,137.484Zm-2-4.511h3.572a1.883,1.883,0,0,0-1.779-1.471A1.833,1.833,0,0,0,435.885,132.973Z"
       class="cls-3" />
    <path
       id="path150"
       d="M381.959,144.17l.756.91a6.713,6.713,0,0,0,0,11.164l-.756.911a7.7,7.7,0,0,1,0-12.985Z"
       class="cls-3" />
    <path
       id="path152"
       d="M385.556,153.359a.891.891,0,0,1-.883.9.9.9,0,0,1-.9-.9.892.892,0,0,1,.9-.883A.88.88,0,0,1,385.556,153.359Z"
       class="cls-3" />
    <path
       id="path154"
       d="M391.969,152.168l.841.91a3.942,3.942,0,0,1-2.816,1.191,3.7,3.7,0,0,1,0-7.4,4.051,4.051,0,0,1,2.872,1.191l-.883.952a2.652,2.652,0,0,0-1.961-.9,2.462,2.462,0,0,0,.028,4.917A2.6,2.6,0,0,0,391.969,152.168Z"
       class="cls-3" />
    <path
       id="path156"
       d="M397.05,146.873a3.706,3.706,0,1,1-3.712,3.7A3.659,3.659,0,0,1,397.05,146.873Zm2.325,3.7a2.336,2.336,0,1,0-2.325,2.478A2.38,2.38,0,0,0,399.375,150.572Z"
       class="cls-3" />
    <path
       id="path158"
       d="M402.075,147.013h1.4v.673a2.738,2.738,0,0,1,2-.813,2.488,2.488,0,0,1,2.2,1.191,2.855,2.855,0,0,1,2.409-1.191,2.613,2.613,0,0,1,2.675,2.788v4.482h-1.4V149.9a1.6,1.6,0,0,0-1.638-1.807,1.9,1.9,0,0,0-1.667.952,2.983,2.983,0,0,1,.055.617v4.482h-1.386V149.9a1.6,1.6,0,0,0-1.639-1.807,1.87,1.87,0,0,0-1.611.868v5.183h-1.4Z"
       class="cls-3" />
    <path
       id="path160"
       d="M414.744,157.113l-.756-.911a6.713,6.713,0,0,0,0-11.164l.756-.911a7.7,7.7,0,0,1,0,12.986Z"
       class="cls-3" />
  </g>
  <polyline
     id="polyline164"
     points="326.525 177.028 480.434 177.028 480.434 117.033"
     class="cls-4" />
  <g
     id="g260">
    <path
       id="path166"
       d="M35,476.161l.967.98a5.4,5.4,0,0,1-3.923,1.695,5.058,5.058,0,1,1,0-10.114A5.324,5.324,0,0,1,36,470.417l-.981,1.009a3.9,3.9,0,0,0-2.97-1.345,3.7,3.7,0,0,0,.043,7.4A3.806,3.806,0,0,0,35,476.161Z"
       class="cls-3" />
    <path
       id="path168"
       d="M38.637,478.682h-1.4v-9.806l1.4-.307Z"
       class="cls-3" />
    <path
       id="path170"
       d="M40.135,469.535a.861.861,0,0,1,.854-.869.869.869,0,0,1,0,1.738A.861.861,0,0,1,40.135,469.535Zm1.554,9.147h-1.4v-7.13h1.4Z"
       class="cls-3" />
    <path
       id="path172"
       d="M46.758,478.808a3.668,3.668,0,0,1-3.739-3.7,3.581,3.581,0,0,1,3.571-3.67,3.53,3.53,0,0,1,3.446,3.724v.407H44.405a2.4,2.4,0,0,0,2.409,2.046,2.783,2.783,0,0,0,1.808-.63l.9.881A4.251,4.251,0,0,1,46.758,478.808Zm-2.339-4.286h4.23a2.127,2.127,0,0,0-4.23,0Z"
       class="cls-3" />
    <path
       id="path174"
       d="M51.363,471.552h1.4v.715a2.937,2.937,0,0,1,2.144-.856,2.663,2.663,0,0,1,2.787,2.789v4.482h-1.4v-4.244a1.66,1.66,0,0,0-1.765-1.808,2.015,2.015,0,0,0-1.765.925v5.127h-1.4Z"
       class="cls-3" />
    <path
       id="path176"
       d="M59.945,472.729H58.432v-1.177h1.513v-1.82l1.387-.337v2.157h2.1v1.177h-2.1V476.6c0,.729.293.994,1.05.994a2.756,2.756,0,0,0,1.023-.168V478.6a4.649,4.649,0,0,1-1.331.21c-1.387,0-2.129-.658-2.129-1.891Z"
       class="cls-3" />
    <path
       id="path178"
       d="M68.793,478.682h-1.4v-9.806l1.4-.307Z"
       class="cls-3" />
    <path
       id="path180"
       d="M73.834,471.411a3.706,3.706,0,1,1-3.712,3.7A3.66,3.66,0,0,1,73.834,471.411Zm2.325,3.7a2.336,2.336,0,1,0-2.325,2.478A2.38,2.38,0,0,0,76.159,475.111Z"
       class="cls-3" />
    <path
       id="path182"
       d="M82.276,471.411a3.706,3.706,0,1,1-3.712,3.7A3.66,3.66,0,0,1,82.276,471.411Zm2.325,3.7a2.336,2.336,0,1,0-2.325,2.478A2.38,2.38,0,0,0,84.6,475.111Z"
       class="cls-3" />
    <path
       id="path184"
       d="M87.3,468.876l1.4-.307v6.121l3.46-3.138H93.8L90.129,474.9,94,478.682h-1.85L88.7,475.32v3.362H87.3Z"
       class="cls-3" />
    <path
       id="path186"
       d="M94.482,469.535a.861.861,0,0,1,.854-.869.869.869,0,0,1,0,1.738A.861.861,0,0,1,94.482,469.535Zm1.555,9.147h-1.4v-7.13h1.4Z"
       class="cls-3" />
    <path
       id="path188"
       d="M97.688,471.552h1.4v.715a2.937,2.937,0,0,1,2.144-.856,2.662,2.662,0,0,1,2.787,2.789v4.482h-1.4v-4.244a1.661,1.661,0,0,0-1.765-1.808,2.016,2.016,0,0,0-1.766.925v5.127h-1.4Z"
       class="cls-3" />
    <path
       id="path190"
       d="M105.3,475.081a3.6,3.6,0,0,1,3.614-3.655,3.5,3.5,0,0,1,2.115.714v-.588h1.387v7.229c0,1.848-1.163,2.884-3.264,2.884a6.048,6.048,0,0,1-2.871-.7l.546-1.093a4.835,4.835,0,0,0,2.283.618c1.247,0,1.905-.589,1.905-1.709v-.8a3.353,3.353,0,0,1-2.129.756A3.591,3.591,0,0,1,105.3,475.081Zm3.754,2.438a2.519,2.519,0,0,0,1.961-.826v-3.222a2.569,2.569,0,0,0-1.961-.826,2.438,2.438,0,0,0,0,4.874Z"
       class="cls-3" />
    <path
       id="path192"
       d="M118.366,475.783a1.67,1.67,0,0,0,1.765,1.82,2,2,0,0,0,1.751-.938v-5.113h1.4v7.13h-1.4v-.714a2.914,2.914,0,0,1-2.143.854,2.662,2.662,0,0,1-2.774-2.8v-4.469h1.4Z"
       class="cls-3" />
    <path
       id="path194"
       d="M124.932,471.552h1.386v.687a3.251,3.251,0,0,1,2.185-.8,3.677,3.677,0,1,1-2.171,6.652v3.488h-1.4Zm1.4,1.961v3.222a2.645,2.645,0,0,0,1.989.841,2.459,2.459,0,0,0,0-4.917A2.555,2.555,0,0,0,126.332,473.513Z"
       class="cls-3" />
    <path
       id="path196"
       d="M137.686,478.682l-1.989-7.13h1.358l1.373,5.238,1.639-5.238h1.2l1.625,5.238,1.387-5.238H145.6l-2,7.13h-1.345l-1.6-5.225-1.612,5.225Z"
       class="cls-2" />
    <path
       id="path198"
       d="M148.06,478.682l-1.989-7.13h1.358l1.373,5.238,1.639-5.238h1.2l1.625,5.238,1.387-5.238h1.316l-2,7.13h-1.345l-1.6-5.225-1.612,5.225Z"
       class="cls-2" />
    <path
       id="path200"
       d="M158.433,478.682l-1.989-7.13H157.8l1.373,5.238,1.639-5.238h1.205l1.625,5.238,1.387-5.238h1.316l-2,7.13H163l-1.6-5.225-1.611,5.225Z"
       class="cls-2" />
    <path
       id="path202"
       d="M168.345,477.9a.891.891,0,0,1-.883.9.9.9,0,0,1-.9-.9.891.891,0,0,1,.9-.883A.879.879,0,0,1,168.345,477.9Z"
       class="cls-2" />
    <path
       id="path204"
       d="M172.854,478.808a3.669,3.669,0,0,1-3.74-3.7,3.582,3.582,0,0,1,3.572-3.67,3.53,3.53,0,0,1,3.446,3.724v.407H170.5a2.407,2.407,0,0,0,2.411,2.046,2.777,2.777,0,0,0,1.806-.63l.9.881A4.251,4.251,0,0,1,172.854,478.808Zm-2.339-4.286h4.231a2.127,2.127,0,0,0-4.231,0Z"
       class="cls-2" />
    <path
       id="path206"
       d="M178.917,475.027l-2.663-3.475h1.64L179.729,474l1.835-2.451h1.583l-2.634,3.46,2.816,3.67h-1.654l-1.961-2.634-1.988,2.634h-1.583Z"
       class="cls-2" />
    <path
       id="path208"
       d="M183.535,476.637c0-1.345,1.092-2.171,2.885-2.171a5.041,5.041,0,0,1,1.948.392V474.1c0-1.008-.6-1.512-1.738-1.512a5.072,5.072,0,0,0-2.213.6l-.518-1.051a6.676,6.676,0,0,1,2.928-.729c1.849,0,2.914.912,2.914,2.55v4.721h-1.373v-.616a3.385,3.385,0,0,1-2.213.742C184.6,478.808,183.535,477.925,183.535,476.637Zm2.942,1.134a2.743,2.743,0,0,0,1.891-.672v-1.232a3.694,3.694,0,0,0-1.835-.434c-1.023,0-1.654.461-1.654,1.176C184.879,477.3,185.524,477.771,186.477,477.771Z"
       class="cls-2" />
    <path
       id="path210"
       d="M191.346,471.552h1.4v.672a2.739,2.739,0,0,1,2-.813,2.488,2.488,0,0,1,2.2,1.192,2.854,2.854,0,0,1,2.409-1.192,2.614,2.614,0,0,1,2.676,2.789v4.482h-1.4v-4.244A1.6,1.6,0,0,0,199,472.63a1.9,1.9,0,0,0-1.667.953,2.977,2.977,0,0,1,.055.617v4.482H196v-4.244a1.6,1.6,0,0,0-1.639-1.808,1.867,1.867,0,0,0-1.61.869v5.183h-1.4Z"
       class="cls-2" />
    <path
       id="path212"
       d="M203.638,471.552h1.387v.687a3.251,3.251,0,0,1,2.185-.8,3.677,3.677,0,1,1-2.17,6.652v3.488h-1.4Zm1.4,1.961v3.222a2.643,2.643,0,0,0,1.988.841,2.459,2.459,0,0,0,0-4.917A2.551,2.551,0,0,0,205.04,473.513Z"
       class="cls-2" />
    <path
       id="path214"
       d="M213.538,478.682h-1.4v-9.806l1.4-.307Z"
       class="cls-2" />
    <path
       id="path216"
       d="M218.606,478.808a3.669,3.669,0,0,1-3.74-3.7,3.582,3.582,0,0,1,3.572-3.67,3.53,3.53,0,0,1,3.446,3.724v.407h-5.632a2.407,2.407,0,0,0,2.411,2.046,2.777,2.777,0,0,0,1.806-.63l.9.881A4.251,4.251,0,0,1,218.606,478.808Zm-2.339-4.286H220.5a2.127,2.127,0,0,0-4.231,0Z"
       class="cls-2" />
    <path
       id="path218"
       d="M224.36,477.9a.891.891,0,0,1-.883.9.9.9,0,0,1-.9-.9.891.891,0,0,1,.9-.883A.88.88,0,0,1,224.36,477.9Z"
       class="cls-2" />
    <path
       id="path220"
       d="M230.773,476.706l.841.912a3.946,3.946,0,0,1-2.817,1.19,3.7,3.7,0,0,1,0-7.4,4.05,4.05,0,0,1,2.872,1.192l-.882.952a2.647,2.647,0,0,0-1.961-.9,2.462,2.462,0,0,0,.028,4.917A2.6,2.6,0,0,0,230.773,476.706Z"
       class="cls-2" />
    <path
       id="path222"
       d="M235.854,471.411a3.706,3.706,0,1,1-3.712,3.7A3.66,3.66,0,0,1,235.854,471.411Zm2.326,3.7a2.337,2.337,0,1,0-2.326,2.478A2.381,2.381,0,0,0,238.18,475.111Z"
       class="cls-2" />
    <path
       id="path224"
       d="M240.878,471.552h1.4v.672a2.74,2.74,0,0,1,2-.813,2.485,2.485,0,0,1,2.2,1.192,2.854,2.854,0,0,1,2.409-1.192,2.614,2.614,0,0,1,2.676,2.789v4.482h-1.4v-4.244a1.6,1.6,0,0,0-1.639-1.808,1.9,1.9,0,0,0-1.667.953,2.977,2.977,0,0,1,.056.617v4.482h-1.387v-4.244a1.6,1.6,0,0,0-1.639-1.808,1.867,1.867,0,0,0-1.61.869v5.183h-1.4Z"
       class="cls-2" />
    <path
       id="path226"
       d="M254.837,477.421l-1.288,3.264h-1.065l.869-3.264Z"
       class="cls-3" />
    <path
       id="path228"
       d="M259.12,471.552h1.4v.715a2.933,2.933,0,0,1,2.143-.856,2.663,2.663,0,0,1,2.788,2.789v4.482h-1.4v-4.244a1.66,1.66,0,0,0-1.764-1.808,2.013,2.013,0,0,0-1.765.925v5.127h-1.4Z"
       class="cls-3" />
    <path
       id="path230"
       d="M270.448,471.411a3.706,3.706,0,1,1-3.712,3.7A3.66,3.66,0,0,1,270.448,471.411Zm2.326,3.7a2.337,2.337,0,1,0-2.326,2.478A2.381,2.381,0,0,0,272.774,475.111Z"
       class="cls-3" />
    <path
       id="path232"
       d="M278.4,471.552h1.4v.91a2.233,2.233,0,0,1,1.961-1.064,1.779,1.779,0,0,1,.714.112v1.261a2.393,2.393,0,0,0-.826-.154,1.948,1.948,0,0,0-1.849,1.3v4.763h-1.4Z"
       class="cls-3" />
    <path
       id="path234"
       d="M286.576,478.808a3.67,3.67,0,0,1-3.741-3.7,3.583,3.583,0,0,1,3.573-3.67,3.53,3.53,0,0,1,3.446,3.724v.407h-5.632a2.406,2.406,0,0,0,2.41,2.046,2.778,2.778,0,0,0,1.807-.63l.9.881A4.248,4.248,0,0,1,286.576,478.808Zm-2.339-4.286h4.23a2.127,2.127,0,0,0-4.23,0Z"
       class="cls-3" />
    <path
       id="path236"
       d="M296.531,476.706l.841.912a3.948,3.948,0,0,1-2.817,1.19,3.7,3.7,0,0,1,0-7.4,4.05,4.05,0,0,1,2.872,1.192l-.883.952a2.644,2.644,0,0,0-1.96-.9,2.462,2.462,0,0,0,.028,4.917A2.6,2.6,0,0,0,296.531,476.706Z"
       class="cls-3" />
    <path
       id="path238"
       d="M301.612,471.411a3.706,3.706,0,1,1-3.712,3.7A3.66,3.66,0,0,1,301.612,471.411Zm2.326,3.7a2.337,2.337,0,1,0-2.326,2.478A2.381,2.381,0,0,0,303.938,475.111Z"
       class="cls-3" />
    <path
       id="path240"
       d="M306.635,471.552h1.4v.91A2.232,2.232,0,0,1,310,471.4a1.777,1.777,0,0,1,.713.112v1.261a2.389,2.389,0,0,0-.826-.154,1.945,1.945,0,0,0-1.848,1.3v4.763h-1.4Z"
       class="cls-3" />
    <path
       id="path242"
       d="M316.859,478.009a3.364,3.364,0,0,1-2.185.785,3.677,3.677,0,0,1,.028-7.353,3.637,3.637,0,0,1,2.143.7v-3.264l1.4-.307v10.113h-1.387Zm-1.988-.433a2.57,2.57,0,0,0,1.974-.855v-3.235a2.6,2.6,0,0,0-1.974-.841,2.387,2.387,0,0,0-2.424,2.451A2.412,2.412,0,0,0,314.871,477.576Z"
       class="cls-3" />
    <path
       id="path244"
       d="M319.978,476.833a3.741,3.741,0,0,0,2.325.9c1.009,0,1.709-.435,1.709-1.065,0-.5-.364-.8-1.148-.911l-1.288-.182c-1.415-.209-2.13-.868-2.13-1.975,0-1.289,1.121-2.156,2.788-2.156a4.882,4.882,0,0,1,2.871.91l-.714.924a3.967,3.967,0,0,0-2.256-.742c-.854,0-1.428.392-1.428.966,0,.518.335.77,1.176.9l1.289.181c1.414.211,2.158.883,2.158,1.99,0,1.274-1.289,2.241-2.985,2.241a4.7,4.7,0,0,1-3.123-1.051Z"
       class="cls-3" />
    <path
       id="path246"
       d="M334.653,476.706l.841.912a3.948,3.948,0,0,1-2.817,1.19,3.7,3.7,0,0,1,0-7.4,4.05,4.05,0,0,1,2.872,1.192l-.882.952a2.647,2.647,0,0,0-1.961-.9,2.462,2.462,0,0,0,.028,4.917A2.6,2.6,0,0,0,334.653,476.706Z"
       class="cls-3" />
    <path
       id="path248"
       d="M336.259,476.637c0-1.345,1.093-2.171,2.886-2.171a5.032,5.032,0,0,1,1.947.392V474.1c0-1.008-.6-1.512-1.737-1.512a5.072,5.072,0,0,0-2.213.6l-.518-1.051a6.676,6.676,0,0,1,2.927-.729c1.85,0,2.914.912,2.914,2.55v4.721h-1.373v-.616a3.383,3.383,0,0,1-2.213.742C337.324,478.808,336.259,477.925,336.259,476.637Zm2.943,1.134a2.74,2.74,0,0,0,1.89-.672v-1.232a3.694,3.694,0,0,0-1.835-.434c-1.022,0-1.653.461-1.653,1.176C337.6,477.3,338.249,477.771,339.2,477.771Z"
       class="cls-3" />
    <path
       id="path250"
       d="M349.4,476.706l.841.912a3.946,3.946,0,0,1-2.817,1.19,3.7,3.7,0,0,1,0-7.4,4.053,4.053,0,0,1,2.873,1.192l-.883.952a2.647,2.647,0,0,0-1.961-.9,2.462,2.462,0,0,0,.028,4.917A2.6,2.6,0,0,0,349.4,476.706Z"
       class="cls-3" />
    <path
       id="path252"
       d="M351.366,468.876l1.4-.307v3.7a2.933,2.933,0,0,1,2.143-.856A2.663,2.663,0,0,1,357.7,474.2v4.482h-1.4v-4.244a1.66,1.66,0,0,0-1.764-1.808,2.013,2.013,0,0,0-1.765.925v5.127h-1.4Z"
       class="cls-3" />
    <path
       id="path254"
       d="M362.721,478.808a3.669,3.669,0,0,1-3.74-3.7,3.582,3.582,0,0,1,3.572-3.67A3.531,3.531,0,0,1,366,475.165v.407h-5.632a2.4,2.4,0,0,0,2.41,2.046,2.777,2.777,0,0,0,1.806-.63l.9.881A4.249,4.249,0,0,1,362.721,478.808Zm-2.339-4.286h4.231a2.127,2.127,0,0,0-4.231,0Z"
       class="cls-3" />
    <path
       id="path256"
       d="M372.816,478.009a3.362,3.362,0,0,1-2.185.785,3.677,3.677,0,0,1,.028-7.353,3.637,3.637,0,0,1,2.143.7v-3.264l1.4-.307v10.113h-1.387Zm-1.988-.433a2.57,2.57,0,0,0,1.974-.855v-3.235a2.6,2.6,0,0,0-1.974-.841A2.387,2.387,0,0,0,368.4,475.1,2.412,2.412,0,0,0,370.828,477.576Z"
       class="cls-3" />
    <path
       id="path258"
       d="M377.42,477.9a.89.89,0,0,1-.882.9.9.9,0,0,1-.9-.9.891.891,0,0,1,.9-.883A.879.879,0,0,1,377.42,477.9Z"
       class="cls-3" />
  </g>
  <g
     id="g380">
    <g
       id="g266">
      <line
         id="line262"
         y2="503.912"
         x2="49.614"
         y1="503.912"
         x1="26.331"
         class="cls-4" />
      <polygon
         id="polygon264"
         points="48.155 508.898 56.79 503.913 48.155 498.926 48.155 508.898"
         class="cls-2" />
    </g>
    <g
       id="g338">
      <path
         id="path268"
         d="M66.234,498.137a.861.861,0,0,1,.855-.868.868.868,0,0,1,0,1.736A.861.861,0,0,1,66.234,498.137Zm1.555,9.148h-1.4v-7.131h1.4Z"
         class="cls-3" />
      <path
         id="path270"
         d="M70.364,501.331H68.852v-1.177h1.512v-1.821L71.751,498v2.157h2.1v1.177h-2.1V505.2c0,.728.294.994,1.051.994a2.727,2.727,0,0,0,1.022-.168V507.2a4.672,4.672,0,0,1-1.331.209c-1.387,0-2.129-.659-2.129-1.891Z"
         class="cls-3" />
      <path
         id="path272"
         d="M78.149,507.41a3.669,3.669,0,0,1-3.739-3.7,3.583,3.583,0,0,1,3.571-3.67,3.532,3.532,0,0,1,3.447,3.726v.406H75.8a2.4,2.4,0,0,0,2.409,2.046,2.772,2.772,0,0,0,1.807-.631l.9.883A4.246,4.246,0,0,1,78.149,507.41Zm-2.338-4.286h4.23a2.126,2.126,0,0,0-4.23,0Z"
         class="cls-3" />
      <path
         id="path274"
         d="M82.754,500.154h1.4v.911A2.232,2.232,0,0,1,86.116,500a1.778,1.778,0,0,1,.714.113v1.259a2.422,2.422,0,0,0-.826-.154,1.949,1.949,0,0,0-1.85,1.3v4.764h-1.4Z"
         class="cls-3" />
      <path
         id="path276"
         d="M87.29,505.24c0-1.346,1.092-2.172,2.885-2.172a5.036,5.036,0,0,1,1.947.392V502.7c0-1.008-.6-1.512-1.736-1.512a5.059,5.059,0,0,0-2.214.6l-.518-1.05a6.665,6.665,0,0,1,2.927-.729c1.85,0,2.914.911,2.914,2.55v4.721H92.122v-.618a3.379,3.379,0,0,1-2.213.743C88.354,507.41,87.29,506.528,87.29,505.24Zm2.941,1.133a2.738,2.738,0,0,0,1.891-.672v-1.233a3.7,3.7,0,0,0-1.835-.433c-1.022,0-1.652.461-1.652,1.175C88.635,505.9,89.278,506.373,90.231,506.373Z"
         class="cls-3" />
      <path
         id="path278"
         d="M95.747,501.331H94.234v-1.177h1.513v-1.821L97.134,498v2.157h2.1v1.177h-2.1V505.2c0,.728.294.994,1.051.994a2.737,2.737,0,0,0,1.022-.168V507.2a4.684,4.684,0,0,1-1.331.209c-1.387,0-2.129-.659-2.129-1.891Z"
         class="cls-3" />
      <path
         id="path280"
         d="M100.114,498.137a.861.861,0,0,1,.855-.868.868.868,0,1,1,0,1.736A.861.861,0,0,1,100.114,498.137Zm1.555,9.148h-1.4v-7.131h1.4Z"
         class="cls-3" />
      <path
         id="path282"
         d="M102.535,500.154h1.541l2.228,5.338,2.226-5.338h1.5l-3.081,7.131h-1.331Z"
         class="cls-3" />
      <path
         id="path284"
         d="M114.031,507.41a3.669,3.669,0,0,1-3.739-3.7,3.583,3.583,0,0,1,3.571-3.67,3.532,3.532,0,0,1,3.447,3.726v.406h-5.631a2.4,2.4,0,0,0,2.409,2.046,2.772,2.772,0,0,0,1.807-.631l.9.883A4.246,4.246,0,0,1,114.031,507.41Zm-2.339-4.286h4.231a2.127,2.127,0,0,0-4.231,0Z"
         class="cls-3" />
      <path
         id="path286"
         d="M122.962,507.285h-1.4v-9.806l1.4-.308Z"
         class="cls-3" />
      <path
         id="path288"
         d="M128,500.014a3.705,3.705,0,1,1-3.712,3.7A3.659,3.659,0,0,1,128,500.014Zm2.325,3.7A2.336,2.336,0,1,0,128,506.191,2.379,2.379,0,0,0,130.328,503.712Z"
         class="cls-3" />
      <path
         id="path290"
         d="M136.445,500.014a3.705,3.705,0,1,1-3.712,3.7A3.66,3.66,0,0,1,136.445,500.014Zm2.326,3.7a2.337,2.337,0,1,0-2.326,2.479A2.38,2.38,0,0,0,138.771,503.712Z"
         class="cls-3" />
      <path
         id="path292"
         d="M141.47,497.479l1.4-.308v6.121l3.46-3.138h1.639L144.3,503.5l3.866,3.784h-1.85l-3.445-3.363v3.363h-1.4Z"
         class="cls-3" />
      <path
         id="path294"
         d="M149.9,504.384a1.67,1.67,0,0,0,1.765,1.821,2,2,0,0,0,1.751-.938v-5.113h1.4v7.131h-1.4v-.715a2.913,2.913,0,0,1-2.143.854,2.662,2.662,0,0,1-2.774-2.8v-4.468h1.4Z"
         class="cls-3" />
      <path
         id="path296"
         d="M156.464,500.154h1.387v.687a3.245,3.245,0,0,1,2.184-.8,3.677,3.677,0,1,1-2.171,6.654v3.487h-1.4Zm1.4,1.961v3.222a2.647,2.647,0,0,0,1.99.84,2.458,2.458,0,0,0,0-4.916A2.559,2.559,0,0,0,157.864,502.115Z"
         class="cls-3" />
      <path
         id="path298"
         d="M165.045,505.435a3.737,3.737,0,0,0,2.325.9c1.009,0,1.709-.433,1.709-1.064,0-.5-.364-.8-1.148-.91l-1.289-.183c-1.414-.21-2.129-.868-2.129-1.975,0-1.288,1.121-2.157,2.787-2.157a4.892,4.892,0,0,1,2.872.91l-.715.925a3.964,3.964,0,0,0-2.255-.743c-.854,0-1.429.393-1.429.967,0,.518.336.77,1.177.9l1.288.183c1.415.21,2.158.882,2.158,1.989,0,1.275-1.289,2.241-2.984,2.241a4.7,4.7,0,0,1-3.123-1.05Z"
         class="cls-3" />
      <path
         id="path300"
         d="M177.955,497.311l.756.91a6.714,6.714,0,0,0,0,11.164l-.756.911a7.7,7.7,0,0,1,0-12.985Z"
         class="cls-3" />
      <path
         id="path302"
         d="M179.618,505.24c0-1.346,1.093-2.172,2.886-2.172a5.036,5.036,0,0,1,1.947.392V502.7c0-1.008-.6-1.512-1.737-1.512a5.059,5.059,0,0,0-2.213.6l-.519-1.05a6.669,6.669,0,0,1,2.928-.729c1.849,0,2.914.911,2.914,2.55v4.721h-1.373v-.618a3.38,3.38,0,0,1-2.213.743C180.683,507.41,179.618,506.528,179.618,505.24Zm2.943,1.133a2.737,2.737,0,0,0,1.89-.672v-1.233a3.7,3.7,0,0,0-1.835-.433c-1.022,0-1.653.461-1.653,1.175C180.963,505.9,181.607,506.373,182.561,506.373Z"
         class="cls-3" />
      <path
         id="path304"
         d="M187.515,505.435a3.739,3.739,0,0,0,2.325.9c1.009,0,1.709-.433,1.709-1.064,0-.5-.364-.8-1.149-.91l-1.288-.183c-1.415-.21-2.13-.868-2.13-1.975,0-1.288,1.122-2.157,2.789-2.157a4.894,4.894,0,0,1,2.871.91l-.714.925a3.969,3.969,0,0,0-2.256-.743c-.855,0-1.429.393-1.429.967,0,.518.336.77,1.177.9l1.289.183c1.414.21,2.157.882,2.157,1.989,0,1.275-1.289,2.241-2.984,2.241a4.7,4.7,0,0,1-3.123-1.05Z"
         class="cls-3" />
      <path
         id="path306"
         d="M194.108,505.435a3.744,3.744,0,0,0,2.326.9c1.008,0,1.709-.433,1.709-1.064,0-.5-.365-.8-1.149-.91l-1.288-.183c-1.415-.21-2.13-.868-2.13-1.975,0-1.288,1.121-2.157,2.788-2.157a4.889,4.889,0,0,1,2.871.91l-.714.925a3.968,3.968,0,0,0-2.255-.743c-.855,0-1.429.393-1.429.967,0,.518.336.77,1.177.9l1.289.183c1.414.21,2.157.882,2.157,1.989,0,1.275-1.289,2.241-2.984,2.241a4.7,4.7,0,0,1-3.123-1.05Z"
         class="cls-3" />
      <path
         id="path308"
         d="M201.907,504.384a1.67,1.67,0,0,0,1.765,1.821,2,2,0,0,0,1.751-.938v-5.113h1.4v7.131h-1.4v-.715a2.916,2.916,0,0,1-2.143.854,2.661,2.661,0,0,1-2.773-2.8v-4.468h1.4Z"
         class="cls-3" />
      <path
         id="path310"
         d="M208.472,500.154h1.4v.673a2.732,2.732,0,0,1,2-.813,2.483,2.483,0,0,1,2.2,1.19,2.856,2.856,0,0,1,2.409-1.19,2.613,2.613,0,0,1,2.676,2.788v4.483h-1.4V503.04a1.6,1.6,0,0,0-1.639-1.807,1.9,1.9,0,0,0-1.667.952,2.97,2.97,0,0,1,.056.617v4.483h-1.387V503.04a1.6,1.6,0,0,0-1.639-1.807,1.868,1.868,0,0,0-1.61.868v5.184h-1.4Z"
         class="cls-3" />
      <path
         id="path312"
         d="M220.61,498.137a.86.86,0,0,1,.854-.868.868.868,0,1,1,0,1.736A.86.86,0,0,1,220.61,498.137Zm1.555,9.148h-1.4v-7.131h1.4Z"
         class="cls-3" />
      <path
         id="path314"
         d="M223.815,500.154h1.4v.715a2.93,2.93,0,0,1,2.142-.855,2.663,2.663,0,0,1,2.788,2.788v4.483h-1.4V503.04a1.659,1.659,0,0,0-1.765-1.807,2.011,2.011,0,0,0-1.764.925v5.127h-1.4Z"
         class="cls-3" />
      <path
         id="path316"
         d="M231.432,503.684a3.6,3.6,0,0,1,3.614-3.655,3.5,3.5,0,0,1,2.115.714v-.589h1.387v7.228c0,1.85-1.163,2.885-3.264,2.885a6.063,6.063,0,0,1-2.872-.7l.547-1.094a4.816,4.816,0,0,0,2.283.617c1.246,0,1.905-.588,1.905-1.709v-.8a3.347,3.347,0,0,1-2.129.757A3.59,3.59,0,0,1,231.432,503.684Zm3.755,2.437a2.521,2.521,0,0,0,1.96-.827v-3.22a2.569,2.569,0,0,0-1.96-.827,2.438,2.438,0,0,0,0,4.874Z"
         class="cls-3" />
      <path
         id="path318"
         d="M243.121,500.154h1.4v.715a2.934,2.934,0,0,1,2.143-.855,2.663,2.663,0,0,1,2.788,2.788v4.483h-1.4V503.04a1.659,1.659,0,0,0-1.765-1.807,2.013,2.013,0,0,0-1.765.925v5.127h-1.4Z"
         class="cls-3" />
      <path
         id="path320"
         d="M254.449,500.014a3.705,3.705,0,1,1-3.712,3.7A3.659,3.659,0,0,1,254.449,500.014Zm2.326,3.7a2.337,2.337,0,1,0-2.326,2.479A2.38,2.38,0,0,0,256.775,503.712Z"
         class="cls-3" />
      <path
         id="path322"
         d="M259.964,501.331h-1.513v-1.177h1.513v-1.821l1.387-.336v2.157h2.1v1.177h-2.1V505.2c0,.728.294.994,1.05.994a2.739,2.739,0,0,0,1.023-.168V507.2a4.672,4.672,0,0,1-1.331.209c-1.387,0-2.129-.659-2.129-1.891Z"
         class="cls-3" />
      <path
         id="path324"
         d="M272.734,505.309l.841.911a3.945,3.945,0,0,1-2.816,1.19,3.7,3.7,0,0,1,0-7.4,4.053,4.053,0,0,1,2.872,1.19l-.883.954a2.647,2.647,0,0,0-1.961-.9,2.462,2.462,0,0,0,.028,4.916A2.6,2.6,0,0,0,272.734,505.309Z"
         class="cls-3" />
      <path
         id="path326"
         d="M274.341,505.24c0-1.346,1.093-2.172,2.886-2.172a5.04,5.04,0,0,1,1.947.392V502.7c0-1.008-.6-1.512-1.737-1.512a5.052,5.052,0,0,0-2.213.6l-.519-1.05a6.666,6.666,0,0,1,2.928-.729c1.848,0,2.914.911,2.914,2.55v4.721h-1.373v-.618a3.38,3.38,0,0,1-2.213.743C275.4,507.41,274.341,506.528,274.341,505.24Zm2.942,1.133a2.738,2.738,0,0,0,1.891-.672v-1.233a3.7,3.7,0,0,0-1.835-.433c-1.023,0-1.653.461-1.653,1.175C275.686,505.9,276.33,506.373,277.283,506.373Z"
         class="cls-3" />
      <path
         id="path328"
         d="M287.477,505.309l.84.911a3.945,3.945,0,0,1-2.816,1.19,3.7,3.7,0,0,1,0-7.4,4.053,4.053,0,0,1,2.872,1.19l-.883.954a2.647,2.647,0,0,0-1.961-.9,2.462,2.462,0,0,0,.029,4.916A2.6,2.6,0,0,0,287.477,505.309Z"
         class="cls-3" />
      <path
         id="path330"
         d="M289.447,497.479l1.4-.308v3.7a2.93,2.93,0,0,1,2.142-.855,2.663,2.663,0,0,1,2.788,2.788v4.483h-1.4V503.04a1.659,1.659,0,0,0-1.765-1.807,2.01,2.01,0,0,0-1.764.925v5.127h-1.4Z"
         class="cls-3" />
      <path
         id="path332"
         d="M300.8,507.41a3.669,3.669,0,0,1-3.74-3.7,3.583,3.583,0,0,1,3.572-3.67,3.531,3.531,0,0,1,3.446,3.726v.406h-5.632a2.407,2.407,0,0,0,2.41,2.046,2.768,2.768,0,0,0,1.807-.631l.9.883A4.252,4.252,0,0,1,300.8,507.41Zm-2.339-4.286h4.23a2.126,2.126,0,0,0-4.23,0Z"
         class="cls-3" />
      <path
         id="path334"
         d="M310.9,506.612a3.358,3.358,0,0,1-2.184.784,3.677,3.677,0,1,1,2.171-6.653v-3.264l1.4-.308v10.114H310.9Zm-1.988-.435a2.574,2.574,0,0,0,1.975-.853v-3.237a2.607,2.607,0,0,0-1.975-.84,2.465,2.465,0,0,0,0,4.93Z"
         class="cls-3" />
      <path
         id="path336"
         d="M314.312,510.253l-.757-.91a6.714,6.714,0,0,0,0-11.164l.757-.91a7.7,7.7,0,0,1,0,12.984Z"
         class="cls-3" />
    </g>
    <g
       id="g344">
      <line
         id="line340"
         y2="503.912"
         x2="360.617"
         y1="503.912"
         x1="337.334"
         class="cls-5" />
      <polygon
         id="polygon342"
         points="359.158 508.898 367.793 503.913 359.158 498.926 359.158 508.898"
         class="cls-6" />
    </g>
    <g
       id="g378">
      <path
         id="path346"
         d="M377.392,500.154h1.4v.911A2.232,2.232,0,0,1,380.753,500a1.783,1.783,0,0,1,.715.113v1.259a2.427,2.427,0,0,0-.827-.154,1.948,1.948,0,0,0-1.849,1.3v4.764h-1.4Z"
         class="cls-3" />
      <path
         id="path348"
         d="M385.569,507.41a3.669,3.669,0,0,1-3.74-3.7,3.583,3.583,0,0,1,3.572-3.67,3.531,3.531,0,0,1,3.446,3.726v.406h-5.631a2.4,2.4,0,0,0,2.409,2.046,2.77,2.77,0,0,0,1.807-.631l.9.883A4.25,4.25,0,0,1,385.569,507.41Zm-2.339-4.286h4.23a2.126,2.126,0,0,0-4.23,0Z"
         class="cls-3" />
      <path
         id="path350"
         d="M395.524,505.309l.841.911a3.944,3.944,0,0,1-2.816,1.19,3.7,3.7,0,0,1,0-7.4,4.054,4.054,0,0,1,2.872,1.19l-.882.954a2.65,2.65,0,0,0-1.962-.9,2.462,2.462,0,0,0,.028,4.916A2.594,2.594,0,0,0,395.524,505.309Z"
         class="cls-3" />
      <path
         id="path352"
         d="M398.868,504.384a1.67,1.67,0,0,0,1.765,1.821,2,2,0,0,0,1.751-.938v-5.113h1.4v7.131h-1.4v-.715a2.914,2.914,0,0,1-2.143.854,2.662,2.662,0,0,1-2.774-2.8v-4.468h1.4Z"
         class="cls-3" />
      <path
         id="path354"
         d="M405.433,500.154h1.4v.911A2.232,2.232,0,0,1,408.8,500a1.778,1.778,0,0,1,.714.113v1.259a2.422,2.422,0,0,0-.826-.154,1.947,1.947,0,0,0-1.85,1.3v4.764h-1.4Z"
         class="cls-3" />
      <path
         id="path356"
         d="M410.7,505.435a3.737,3.737,0,0,0,2.325.9c1.008,0,1.709-.433,1.709-1.064,0-.5-.364-.8-1.149-.91l-1.288-.183c-1.415-.21-2.129-.868-2.129-1.975,0-1.288,1.12-2.157,2.787-2.157a4.887,4.887,0,0,1,2.871.91l-.714.925a3.966,3.966,0,0,0-2.255-.743c-.854,0-1.429.393-1.429.967,0,.518.337.77,1.177.9l1.289.183c1.415.21,2.157.882,2.157,1.989,0,1.275-1.289,2.241-2.984,2.241a4.705,4.705,0,0,1-3.124-1.05Z"
         class="cls-3" />
      <path
         id="path358"
         d="M416.969,498.137a.86.86,0,0,1,.854-.868.868.868,0,0,1,0,1.736A.86.86,0,0,1,416.969,498.137Zm1.554,9.148h-1.4v-7.131h1.4Z"
         class="cls-3" />
      <path
         id="path360"
         d="M419.39,500.154h1.541l2.227,5.338,2.227-5.338h1.5l-3.081,7.131h-1.331Z"
         class="cls-3" />
      <path
         id="path362"
         d="M430.886,507.41a3.669,3.669,0,0,1-3.74-3.7,3.583,3.583,0,0,1,3.572-3.67,3.531,3.531,0,0,1,3.446,3.726v.406h-5.631a2.4,2.4,0,0,0,2.409,2.046,2.768,2.768,0,0,0,1.807-.631l.9.883A4.25,4.25,0,0,1,430.886,507.41Zm-2.339-4.286h4.23a2.126,2.126,0,0,0-4.23,0Z"
         class="cls-3" />
      <path
         id="path364"
         d="M439.817,507.285h-1.4v-9.806l1.4-.308Z"
         class="cls-3" />
      <path
         id="path366"
         d="M444.858,500.014a3.705,3.705,0,1,1-3.712,3.7A3.659,3.659,0,0,1,444.858,500.014Zm2.326,3.7a2.337,2.337,0,1,0-2.326,2.479A2.381,2.381,0,0,0,447.184,503.712Z"
         class="cls-3" />
      <path
         id="path368"
         d="M453.3,500.014a3.705,3.705,0,1,1-3.712,3.7A3.659,3.659,0,0,1,453.3,500.014Zm2.325,3.7a2.336,2.336,0,1,0-2.325,2.479A2.379,2.379,0,0,0,455.625,503.712Z"
         class="cls-3" />
      <path
         id="path370"
         d="M458.324,497.479l1.4-.308v6.121l3.46-3.138h1.639l-3.671,3.347,3.867,3.784h-1.849l-3.446-3.363v3.363h-1.4Z"
         class="cls-3" />
      <path
         id="path372"
         d="M466.753,504.384a1.67,1.67,0,0,0,1.765,1.821,2,2,0,0,0,1.751-.938v-5.113h1.4v7.131h-1.4v-.715a2.916,2.916,0,0,1-2.144.854,2.661,2.661,0,0,1-2.773-2.8v-4.468h1.4Z"
         class="cls-3" />
      <path
         id="path374"
         d="M473.318,500.154h1.387v.687a3.25,3.25,0,0,1,2.185-.8,3.677,3.677,0,1,1-2.171,6.654v3.487h-1.4Zm1.4,1.961v3.222a2.643,2.643,0,0,0,1.989.84,2.458,2.458,0,0,0,0-4.916A2.558,2.558,0,0,0,474.719,502.115Z"
         class="cls-3" />
      <path
         id="path376"
         d="M481.9,505.435a3.744,3.744,0,0,0,2.326.9c1.008,0,1.709-.433,1.709-1.064,0-.5-.365-.8-1.149-.91l-1.288-.183c-1.415-.21-2.129-.868-2.129-1.975,0-1.288,1.12-2.157,2.787-2.157a4.889,4.889,0,0,1,2.871.91l-.713.925a3.974,3.974,0,0,0-2.256-.743c-.855,0-1.429.393-1.429.967,0,.518.336.77,1.177.9l1.289.183c1.414.21,2.157.882,2.157,1.989,0,1.275-1.289,2.241-2.984,2.241a4.7,4.7,0,0,1-3.123-1.05Z"
         class="cls-3" />
    </g>
  </g>
  <g
     id="g386">
    <polyline
       id="polyline382"
       points="231.897 240.525 231.897 57.147 192.649 57.147"
       class="cls-4" />
    <polygon
       id="polygon384"
       points="194.108 52.162 185.473 57.147 194.108 62.133 194.108 52.162"
       class="cls-2" />
  </g>
  <g
     id="g392">
    <polyline
       id="polyline388"
       points="269.33 240.525 269.33 141.851 314.116 141.851"
       class="cls-4" />
    <polygon
       id="polygon390"
       points="312.657 146.837 321.292 141.851 312.657 136.865 312.657 146.837"
       class="cls-2" />
  </g>
  <g
     id="g398">
    <polyline
       id="polyline394"
       points="250.757 240.525 250.757 57.147 314.116 57.147"
       class="cls-4" />
    <polygon
       id="polygon396"
       points="312.657 62.133 321.292 57.148 312.657 52.162 312.657 62.133"
       class="cls-2" />
  </g>
  <rect
     id="rect400"
     height="234.658"
     width="195.622"
     y="210.525"
     x="153.059"
     class="cls-7" />
  <g
     id="g426">
    <path
       id="path402"
       d="M182.229,229.969l1.331,1.317a5.389,5.389,0,0,1-4.02,1.806,5.052,5.052,0,1,1,0-10.1,5.372,5.372,0,0,1,4.076,1.834l-1.372,1.36a3.415,3.415,0,0,0-2.7-1.331,3.18,3.18,0,0,0,.056,6.359A3.365,3.365,0,0,0,182.229,229.969Z"
       class="cls-3" />
    <path
       id="path404"
       d="M186.2,229.9a1.434,1.434,0,0,0,1.512,1.541,1.757,1.757,0,0,0,1.513-.729v-5.056h1.919v7.3h-1.919v-.588a3.108,3.108,0,0,1-2.059.728,2.78,2.78,0,0,1-2.886-2.913v-4.524h1.92Z"
       class="cls-3" />
    <path
       id="path406"
       d="M192.978,230.809a4.248,4.248,0,0,0,2.367.826c.854,0,1.414-.308,1.414-.769,0-.379-.28-.589-.91-.687l-1.4-.21c-1.443-.225-2.213-.939-2.213-2.115,0-1.415,1.177-2.312,3.039-2.312a5.385,5.385,0,0,1,3,.91l-.924,1.233a4.313,4.313,0,0,0-2.256-.7c-.7,0-1.148.28-1.148.715,0,.391.28.587.994.686l1.4.21c1.429.21,2.227.952,2.227,2.087,0,1.373-1.358,2.409-3.193,2.409a5.367,5.367,0,0,1-3.348-1.009Z"
       class="cls-3" />
    <path
       id="path408"
       d="M200.37,227.265h-1.5v-1.61h1.5v-1.864l1.919-.434v2.3h2.073v1.61h-2.073V230.5c0,.686.266.939,1.008.939a2.934,2.934,0,0,0,1.023-.169v1.569a5.958,5.958,0,0,1-1.485.224c-1.625,0-2.465-.742-2.465-2.171Z"
       class="cls-3" />
    <path
       id="path410"
       d="M208.8,225.514a3.79,3.79,0,1,1-3.894,3.8A3.8,3.8,0,0,1,208.8,225.514Zm2.017,3.8a2.019,2.019,0,1,0-2.017,2.115A2.045,2.045,0,0,0,210.816,229.31Z"
       class="cls-3" />
    <path
       id="path412"
       d="M213.865,225.655h1.919v.546a2.837,2.837,0,0,1,1.905-.687,2.62,2.62,0,0,1,2.2,1.093,3,3,0,0,1,2.409-1.093,2.721,2.721,0,0,1,2.787,2.9v4.539h-1.918v-4.258a1.363,1.363,0,0,0-1.374-1.527,1.641,1.641,0,0,0-1.4.729,3.1,3.1,0,0,1,.042.517v4.539h-1.919v-4.258a1.363,1.363,0,0,0-1.373-1.527,1.629,1.629,0,0,0-1.359.659v5.126h-1.919Z"
       class="cls-3" />
    <path
       id="path414"
       d="M230.135,233.092a3.8,3.8,0,0,1-3.922-3.782,3.725,3.725,0,0,1,3.754-3.781,3.682,3.682,0,0,1,3.614,3.922v.5h-5.435a2.1,2.1,0,0,0,2.073,1.528,2.3,2.3,0,0,0,1.611-.589l1.261,1.148A4.373,4.373,0,0,1,230.135,233.092Zm-2-4.511H231.7a1.882,1.882,0,0,0-1.779-1.47A1.833,1.833,0,0,0,228.132,228.581Z"
       class="cls-3" />
    <path
       id="path416"
       d="M234.753,225.655h1.919v.8a2.324,2.324,0,0,1,1.947-.965,1.63,1.63,0,0,1,.8.168v1.68a2.448,2.448,0,0,0-.98-.2,1.931,1.931,0,0,0-1.765,1.093v4.72h-1.919Z"
       class="cls-3" />
    <path
       id="path418"
       d="M243.713,229.941a4.859,4.859,0,0,0,3.32,1.428c1.219,0,2-.476,2-1.232,0-.673-.448-1.009-1.611-1.205l-1.946-.336c-1.682-.28-2.564-1.19-2.564-2.619,0-1.835,1.485-2.97,3.866-2.97a6.812,6.812,0,0,1,4.048,1.372l-1.092,1.513a4.992,4.992,0,0,0-3.1-1.176c-1.093,0-1.793.434-1.793,1.107,0,.6.392.91,1.4,1.064l1.849.308c1.961.322,2.927,1.247,2.927,2.759,0,1.919-1.61,3.138-4.132,3.138a6.5,6.5,0,0,1-4.342-1.694Z"
       class="cls-3" />
    <path
       id="path420"
       d="M251.973,223.694a1.093,1.093,0,1,1,1.092,1.092A1.094,1.094,0,0,1,251.973,223.694Zm2.059,9.258h-1.919v-7.3h1.919Z"
       class="cls-3" />
    <path
       id="path422"
       d="M256.523,227.265h-1.5v-1.61h1.5v-1.864l1.919-.434v2.3h2.074v1.61h-2.074V230.5c0,.686.267.939,1.009.939a2.938,2.938,0,0,0,1.023-.169v1.569a5.965,5.965,0,0,1-1.485.224c-1.625,0-2.466-.742-2.466-2.171Z"
       class="cls-3" />
    <path
       id="path424"
       d="M264.98,233.092a3.8,3.8,0,0,1-3.921-3.782,3.724,3.724,0,0,1,3.754-3.781,3.682,3.682,0,0,1,3.613,3.922v.5h-5.434a2.1,2.1,0,0,0,2.072,1.528,2.3,2.3,0,0,0,1.611-.589l1.261,1.148A4.372,4.372,0,0,1,264.98,233.092Zm-2-4.511h3.571a1.882,1.882,0,0,0-1.778-1.47A1.831,1.831,0,0,0,262.978,228.581Z"
       class="cls-3" />
  </g>
  <g
     id="g432">
    <rect
       id="rect428"
       height="59.705"
       width="153.117"
       y="250.084"
       x="174.311"
       class="cls-1" />
    <path
       id="path430"
       d="M326.928,250.584v58.7H174.811v-58.7H326.928m1-1H173.811v60.7H327.928v-60.7Z"
       class="cls-6" />
  </g>
  <g
     id="g458">
    <path
       id="path434"
       d="M215.622,281.945l.84.91a3.94,3.94,0,0,1-2.816,1.19,3.7,3.7,0,0,1,0-7.4,4.05,4.05,0,0,1,2.872,1.19l-.883.952a2.649,2.649,0,0,0-1.961-.9,2.462,2.462,0,0,0,.029,4.917A2.6,2.6,0,0,0,215.622,281.945Z"
       class="cls-3" />
    <path
       id="path436"
       d="M217.229,281.874c0-1.344,1.092-2.171,2.885-2.171a5.036,5.036,0,0,1,1.947.392v-.756c0-1.009-.6-1.512-1.737-1.512a5.055,5.055,0,0,0-2.213.6l-.518-1.051a6.66,6.66,0,0,1,2.927-.728c1.849,0,2.914.91,2.914,2.549v4.72h-1.373V283.3a3.378,3.378,0,0,1-2.213.742C218.293,284.045,217.229,283.163,217.229,281.874Zm2.941,1.135a2.739,2.739,0,0,0,1.891-.673V281.1a3.705,3.705,0,0,0-1.835-.434c-1.022,0-1.653.462-1.653,1.176C218.573,282.533,219.217,283.009,220.17,283.009Z"
       class="cls-3" />
    <path
       id="path438"
       d="M230.363,281.945l.841.91a3.941,3.941,0,0,1-2.816,1.19,3.7,3.7,0,0,1,0-7.4,4.05,4.05,0,0,1,2.872,1.19l-.883.952a2.649,2.649,0,0,0-1.961-.9,2.462,2.462,0,0,0,.028,4.917A2.6,2.6,0,0,0,230.363,281.945Z"
       class="cls-3" />
    <path
       id="path440"
       d="M232.334,274.115l1.4-.309v3.7a2.937,2.937,0,0,1,2.143-.854,2.662,2.662,0,0,1,2.788,2.787v4.482h-1.4v-4.244a1.659,1.659,0,0,0-1.765-1.806,2.017,2.017,0,0,0-1.765.923v5.127h-1.4Z"
       class="cls-3" />
    <path
       id="path442"
       d="M240.118,274.773a.862.862,0,0,1,.855-.869.869.869,0,0,1,0,1.737A.862.862,0,0,1,240.118,274.773Zm1.555,9.146h-1.4v-7.13h1.4Z"
       class="cls-3" />
    <path
       id="path444"
       d="M243.324,276.789h1.4v.715a2.937,2.937,0,0,1,2.143-.854,2.662,2.662,0,0,1,2.787,2.787v4.482h-1.4v-4.244a1.659,1.659,0,0,0-1.765-1.806,2.016,2.016,0,0,0-1.765.923v5.127h-1.4Z"
       class="cls-3" />
    <path
       id="path446"
       d="M250.94,280.32a3.6,3.6,0,0,1,3.614-3.657,3.5,3.5,0,0,1,2.115.715v-.589h1.387v7.229c0,1.849-1.163,2.885-3.264,2.885a6.041,6.041,0,0,1-2.872-.7l.547-1.092a4.819,4.819,0,0,0,2.283.617c1.247,0,1.9-.589,1.9-1.709v-.8a3.354,3.354,0,0,1-2.129.757A3.59,3.59,0,0,1,250.94,280.32Zm3.754,2.437a2.522,2.522,0,0,0,1.961-.827v-3.222a2.575,2.575,0,0,0-1.961-.826,2.438,2.438,0,0,0,0,4.875Z"
       class="cls-3" />
    <path
       id="path448"
       d="M264.564,279.353v1.2h-5.042v-1.2Z"
       class="cls-3" />
    <path
       id="path450"
       d="M269.562,276.65a3.705,3.705,0,1,1-3.712,3.7A3.659,3.659,0,0,1,269.562,276.65Zm2.325,3.7a2.337,2.337,0,1,0-2.325,2.479A2.38,2.38,0,0,0,271.887,280.348Z"
       class="cls-3" />
    <path
       id="path452"
       d="M274.586,276.789h1.4v.715a2.938,2.938,0,0,1,2.143-.854,2.662,2.662,0,0,1,2.788,2.787v4.482h-1.4v-4.244a1.659,1.659,0,0,0-1.766-1.806,2.018,2.018,0,0,0-1.765.923v5.127h-1.4Z"
       class="cls-3" />
    <path
       id="path454"
       d="M283.924,283.919h-1.4v-9.8l1.4-.309Z"
       class="cls-3" />
    <path
       id="path456"
       d="M287.635,283.948l-2.844-7.159h1.541l2.087,5.45,2.3-5.45h1.513l-3.446,7.985c-.658,1.527-1.414,2.129-2.731,2.129a2.709,2.709,0,0,1-.743-.084v-1.233a2.763,2.763,0,0,0,.63.057,1.478,1.478,0,0,0,1.415-1.051Z"
       class="cls-3" />
  </g>
  <g
     id="g464">
    <rect
       id="rect460"
       height="59.705"
       width="153.117"
       y="362.156"
       x="174.311"
       class="cls-1" />
    <path
       id="path462"
       d="M326.928,362.655v58.706H174.811V362.655H326.928m1-1H173.811v60.706H327.928V361.655Z"
       class="cls-8" />
  </g>
  <g
     id="g506">
    <path
       id="path466"
       d="M237.307,385.147l1.149,1.19a4.055,4.055,0,0,1-2.97,1.3,3.789,3.789,0,1,1,0-7.578,4.106,4.106,0,0,1,3.026,1.3l-1.177,1.246a2.369,2.369,0,0,0-1.807-.882,2.119,2.119,0,0,0,.042,4.229A2.266,2.266,0,0,0,237.307,385.147Z"
       class="cls-3" />
    <path
       id="path468"
       d="M241.365,387.5h-1.919v-9.8l1.919-.42Z"
       class="cls-3" />
    <path
       id="path470"
       d="M242.722,378.242a1.093,1.093,0,1,1,1.092,1.091A1.094,1.094,0,0,1,242.722,378.242Zm2.059,9.257h-1.919v-7.3h1.919Z"
       class="cls-3" />
    <path
       id="path472"
       d="M249.864,387.64a3.8,3.8,0,0,1-3.922-3.782,3.725,3.725,0,0,1,3.754-3.782A3.683,3.683,0,0,1,253.31,384v.5h-5.435a2.1,2.1,0,0,0,2.073,1.527,2.3,2.3,0,0,0,1.611-.588l1.26,1.148A4.371,4.371,0,0,1,249.864,387.64Zm-2-4.511h3.572a1.884,1.884,0,0,0-1.779-1.47A1.832,1.832,0,0,0,247.861,383.129Z"
       class="cls-3" />
    <path
       id="path474"
       d="M254.481,380.2H256.4v.575a3.132,3.132,0,0,1,2.046-.715,2.768,2.768,0,0,1,2.885,2.9V387.5h-1.919v-4.257a1.424,1.424,0,0,0-1.513-1.528,1.749,1.749,0,0,0-1.5.729V387.5h-1.919Z"
       class="cls-3" />
    <path
       id="path476"
       d="M263.5,381.813H262V380.2h1.5v-1.863l1.919-.434v2.3h2.073v1.611h-2.073v3.235c0,.687.266.94,1.009.94a2.952,2.952,0,0,0,1.022-.169v1.569a5.951,5.951,0,0,1-1.485.224c-1.625,0-2.465-.743-2.465-2.171Z"
       class="cls-3" />
    <path
       id="path478"
       d="M208.4,394.327l.756.91a6.714,6.714,0,0,0,0,11.164l-.756.911a7.7,7.7,0,0,1,0-12.985Z"
       class="cls-3" />
    <path
       id="path480"
       d="M210.516,402.451a3.743,3.743,0,0,0,2.325.9c1.009,0,1.709-.434,1.709-1.064,0-.5-.364-.8-1.149-.911l-1.288-.182c-1.415-.21-2.129-.868-2.129-1.976,0-1.288,1.12-2.156,2.787-2.156a4.892,4.892,0,0,1,2.872.91l-.715.925a3.956,3.956,0,0,0-2.255-.743c-.854,0-1.429.392-1.429.967,0,.518.337.77,1.177.9l1.288.183c1.416.21,2.158.881,2.158,1.989,0,1.274-1.289,2.24-2.984,2.24a4.7,4.7,0,0,1-3.123-1.05Z"
       class="cls-3" />
    <path
       id="path482"
       d="M217.727,398.347h-1.513v-1.178h1.513v-1.82l1.386-.336v2.156h2.1v1.178h-2.1v3.865c0,.729.294.994,1.051.994a2.739,2.739,0,0,0,1.023-.168v1.178a4.685,4.685,0,0,1-1.332.209c-1.386,0-2.128-.658-2.128-1.89Z"
       class="cls-3" />
    <path
       id="path484"
       d="M223.621,401.4a1.67,1.67,0,0,0,1.765,1.821,2,2,0,0,0,1.75-.938v-5.114h1.4V404.3h-1.4v-.715a2.909,2.909,0,0,1-2.143.855,2.662,2.662,0,0,1-2.773-2.8v-4.469h1.4Z"
       class="cls-3" />
    <path
       id="path486"
       d="M233.729,404.411a3.557,3.557,0,0,1-2.157-.714v.6h-1.386v-9.806l1.4-.307v3.655a3.3,3.3,0,0,1,2.171-.784,3.677,3.677,0,0,1-.028,7.353Zm-2.143-5.281v3.223a2.648,2.648,0,0,0,1.989.84,2.458,2.458,0,0,0,0-4.916A2.557,2.557,0,0,0,231.586,399.13Z"
       class="cls-3" />
    <path
       id="path488"
       d="M241.61,397.169h1.4v.911a2.234,2.234,0,0,1,1.962-1.064,1.779,1.779,0,0,1,.714.112v1.26a2.4,2.4,0,0,0-.827-.154,1.949,1.949,0,0,0-1.849,1.3V404.3h-1.4Z"
       class="cls-3" />
    <path
       id="path490"
       d="M249.787,404.425a3.668,3.668,0,0,1-3.74-3.7,3.583,3.583,0,0,1,3.572-3.67,3.531,3.531,0,0,1,3.446,3.726v.406h-5.631a2.406,2.406,0,0,0,2.409,2.046,2.775,2.775,0,0,0,1.807-.631l.9.883A4.255,4.255,0,0,1,249.787,404.425Zm-2.339-4.285h4.23a2.126,2.126,0,0,0-4.23,0Z"
       class="cls-3" />
    <path
       id="path492"
       d="M254.545,402.451a3.745,3.745,0,0,0,2.326.9c1.008,0,1.709-.434,1.709-1.064,0-.5-.365-.8-1.149-.911l-1.289-.182c-1.414-.21-2.129-.868-2.129-1.976,0-1.288,1.121-2.156,2.787-2.156a4.892,4.892,0,0,1,2.872.91l-.714.925a3.961,3.961,0,0,0-2.255-.743c-.855,0-1.43.392-1.43.967,0,.518.337.77,1.177.9l1.289.183c1.415.21,2.157.881,2.157,1.989,0,1.274-1.289,2.24-2.983,2.24a4.7,4.7,0,0,1-3.124-1.05Z"
       class="cls-3" />
    <path
       id="path494"
       d="M264.431,397.03a3.705,3.705,0,1,1-3.712,3.7A3.659,3.659,0,0,1,264.431,397.03Zm2.325,3.7a2.337,2.337,0,1,0-2.325,2.478A2.379,2.379,0,0,0,266.756,400.728Z"
       class="cls-3" />
    <path
       id="path496"
       d="M270.855,404.3h-1.4v-9.806l1.4-.307Z"
       class="cls-3" />
    <path
       id="path498"
       d="M271.722,397.169h1.541l2.227,5.338,2.227-5.338h1.5l-3.081,7.131H274.8Z"
       class="cls-3" />
    <path
       id="path500"
       d="M283.218,404.425a3.667,3.667,0,0,1-3.739-3.7,3.582,3.582,0,0,1,3.571-3.67,3.531,3.531,0,0,1,3.446,3.726v.406h-5.631a2.406,2.406,0,0,0,2.409,2.046,2.778,2.778,0,0,0,1.808-.631l.9.883A4.255,4.255,0,0,1,283.218,404.425Zm-2.339-4.285h4.23a2.126,2.126,0,0,0-4.23,0Z"
       class="cls-3" />
    <path
       id="path502"
       d="M287.823,397.169h1.4v.911a2.234,2.234,0,0,1,1.962-1.064,1.782,1.782,0,0,1,.714.112v1.26a2.4,2.4,0,0,0-.827-.154,1.948,1.948,0,0,0-1.849,1.3V404.3h-1.4Z"
       class="cls-3" />
    <path
       id="path504"
       d="M293.339,407.269l-.756-.91a6.714,6.714,0,0,0,0-11.164l.756-.91a7.7,7.7,0,0,1,0,12.984Z"
       class="cls-3" />
  </g>
  <g
     id="g512">
    <line
       id="line508"
       y2="317.465"
       x2="250.87"
       y1="361.655"
       x1="250.87"
       class="cls-5" />
    <polygon
       id="polygon510"
       points="255.856 318.924 250.87 310.289 245.884 318.924 255.856 318.924"
       class="cls-6" />
  </g>
  <g
     id="g518">
    <circle
       id="circle514"
       r="10"
       cy="57.147"
       cx="292.33"
       class="cls-9" />
    <path
       id="path516"
       d="M293.526,60.932h-1.694v-5.94l-1.518.627v-1.5l2.145-.891h1.067Z"
       class="cls-1" />
  </g>
  <g
     id="g524">
    <circle
       id="circle520"
       r="10"
       cy="141.851"
       cx="292.33"
       class="cls-9" />
    <path
       id="path522"
       d="M289.357,144.425l3.256-3.223a1.437,1.437,0,0,0,.518-1.023c0-.5-.485-.869-1.134-.869a2.657,2.657,0,0,0-1.947.945L289.1,139.1a4.228,4.228,0,0,1,2.949-1.266c1.638,0,2.728.891,2.728,2.234a2.687,2.687,0,0,1-1,1.991l-2.221,2.145,3.333-.01v1.441h-5.534Z"
       class="cls-1" />
  </g>
  <g
     id="g530">
    <circle
       id="circle526"
       r="10"
       cy="57.147"
       cx="211.897"
       class="cls-9" />
    <path
       id="path528"
       d="M211.531,61.042A4.021,4.021,0,0,1,208.5,59.8l1.145-1.055a2.18,2.18,0,0,0,1.87.814c.836,0,1.386-.374,1.386-.946,0-.485-.4-.792-1.012-.792h-.99v-1.4h.814c.627,0,1-.318,1-.857s-.518-.947-1.211-.947a2.146,2.146,0,0,0-1.793.88l-1.155-1.045a4.046,4.046,0,0,1,3.014-1.342c1.684,0,2.85.913,2.85,2.222a1.862,1.862,0,0,1-1.452,1.761,1.783,1.783,0,0,1,1.65,1.66C214.612,60.085,213.325,61.042,211.531,61.042Z"
       class="cls-1" />
  </g>
</svg>
