<?xml version="1.0" encoding="utf-8"?>
<!-- Generator: Adobe Illustrator 22.0.1, SVG Export Plug-In . SVG Version: 6.00 Build 0)  -->
<svg version="1.1" id="Layer_1" xmlns="http://www.w3.org/2000/svg" xmlns:xlink="http://www.w3.org/1999/xlink" x="0px" y="0px"
	 width="1496.8px" height="495.6px" viewBox="0 0 1496.8 495.6" style="enable-background:new 0 0 1496.8 495.6;"
	 xml:space="preserve">
<style type="text/css">
	.st0{fill:#CCCCCC;}
	.st1{fill:#FFFFFF;stroke:#004153;stroke-width:4;stroke-miterlimit:10;}
	.st2{fill:#004153;stroke:#004153;stroke-miterlimit:10;}
	.st3{fill:#004153;}
	.st4{fill:#FFFFFF;}
	.st5{fill:#BA271A;}
	.st6{fill:#92A952;}
	.st7{fill:#173C4F;}
	.st8{fill:#6CA5B3;}
	.st9{fill:#752C2B;}
	.st10{fill:#DD7D2E;}
	.st11{fill:#E39648;}
	.st12{fill:#E3AD43;}
	.st13{fill:#B1DBE6;}
	.st14{fill:#8DCBE8;}
	.st15{fill:#74BEE4;}
	.st16{fill:none;stroke:#173C4F;stroke-width:2;stroke-linecap:round;stroke-linejoin:round;stroke-dasharray:9,9;}
</style>
<polygon class="st0" points="807.1,118 567,118 567,78.4 807.1,78.4 818.3,98.2 "/>
<circle class="st1" cx="134.8" cy="180.4" r="59.2"/>
<g>
	<path class="st2" d="M134.8,215.1c-0.1,0-0.3,0-0.4-0.1l-30-15c-0.3-0.2-0.5-0.5-0.5-0.9v-37.6c0-0.4,0.2-0.7,0.5-0.9l30-15
		c0.3-0.1,0.6-0.1,0.9,0l30,15c0.3,0.2,0.5,0.5,0.5,0.9v37.6c0,0.4-0.2,0.7-0.5,0.9l-30,15C135.1,215.1,135,215.1,134.8,215.1z
		 M105.7,198.5l29.1,14.5l29.1-14.5v-36.4l-29.1-14.5l-29.1,14.5V198.5z"/>
	<path class="st2" d="M134.8,177.5c-0.1,0-0.3,0-0.4-0.1l-30-15c-0.5-0.2-0.7-0.8-0.4-1.3c0.2-0.5,0.8-0.7,1.3-0.4l29.6,14.8
		l29.6-14.8c0.5-0.2,1,0,1.3,0.4c0.2,0.5,0,1-0.4,1.3l-30,15C135.1,177.5,135,177.5,134.8,177.5z"/>
	<path class="st2" d="M134.8,215.1c-0.5,0-0.9-0.4-0.9-0.9v-37.6c0-0.5,0.4-0.9,0.9-0.9s0.9,0.4,0.9,0.9v37.6
		C135.8,214.7,135.3,215.1,134.8,215.1z"/>
</g>
<g>
	<path class="st3" d="M85.9,287.1c-5.7,0-9.1-4.4-9.1-10.8c0-6.4,3.4-10.8,9.1-10.8c5.7,0,9.1,4.4,9.1,10.8
		C95,282.6,91.6,287.1,85.9,287.1z M85.9,269.6c-3.4,0-4.8,2.9-4.8,6.7c0,3.8,1.4,6.7,4.8,6.7c3.4,0,4.8-2.9,4.8-6.7
		C90.7,272.5,89.3,269.6,85.9,269.6z"/>
	<path class="st3" d="M108.8,286.7h-9.5v-21h9.6c4.1,0,6.7,1.9,6.7,5.5c0,1.8-0.8,3.2-2.2,4.1c1.7,0.7,2.9,2.3,2.9,4.6
		C116.3,284.4,113.3,286.7,108.8,286.7z M108.8,269.6h-5.3v4h5.5c1.7,0,2.4-0.8,2.4-2C111.3,270.3,110.6,269.6,108.8,269.6z
		 M109,277.3h-5.6v5.4h5.6c2,0,3-1.1,3-2.7C112,278.2,111,277.3,109,277.3z"/>
	<path class="st3" d="M126.9,287.1c-4.2,0-7-2.5-8-6.2l4.1-1.1c0.8,2.1,1.9,3.2,3.9,3.2c2.6,0,3.7-1.7,3.7-4.8v-12.4h4.2V278
		C134.9,283.5,132.4,287.1,126.9,287.1z"/>
	<path class="st3" d="M140.1,286.7v-21h14.6v4.1h-10.4v3.6h6v4.1h-6v5.1h10.8v4.1H140.1z"/>
	<path class="st3" d="M170.6,271.9c-0.8-1.4-1.9-2.3-3.8-2.3c-3.1,0-4.9,2.8-4.9,6.7c0,3.8,1.8,6.7,5,6.7c1.9,0,3-0.8,4.1-2.7
		l3.5,2.1c-1.4,3-4,4.7-7.8,4.7c-5.5,0-9.2-4.2-9.2-10.8c0-6.4,3.8-10.8,9.3-10.8c4,0,6.4,1.9,7.7,4.6L170.6,271.9z"/>
	<path class="st3" d="M187.1,269.9v16.9h-4.2v-16.9h-6v-4.1h16.3v4.1H187.1z"/>
</g>
<g>
	<path class="st3" d="M578.6,53.3h-4.6v7.4h-4.2v-21h9.2c4,0,7.2,2.2,7.2,6.7C586.2,51.2,582.9,53.3,578.6,53.3z M578.8,43.8h-4.8
		v5.4h4.9c1.9,0,3-0.9,3-2.7S580.6,43.8,578.8,43.8z"/>
	<path class="st3" d="M589.6,60.7V40.9l4.1-2.1v21.9H589.6z"/>
	<path class="st3" d="M606.6,60.7v-1c-0.8,0.8-2.1,1.4-3.5,1.4c-2.9,0-5.9-1.8-5.9-5.6c0-3.5,2.8-5.2,6.4-5.2c1.4,0,2.4,0.3,3,0.6
		v-0.8c0-1.1-0.8-2-2.2-2c-1.9,0-2.9,0.3-4.3,1.1l-1.6-2.9c1.8-1.1,3.4-1.6,5.9-1.6c3.8,0,6.4,2,6.4,5.5v10.6H606.6z M606.6,54.1
		c-0.7-0.5-1.4-0.7-2.9-0.7c-1.6,0-2.4,0.7-2.4,2c0,1.1,0.6,2.1,2.4,2.1c1.3,0,2.4-0.7,2.9-1.4V54.1z"/>
	<path class="st3" d="M621.2,61c-4.1,0-7.4-3.4-7.4-8.2c0-4.8,3.2-8.2,7.6-8.2c3,0,4.9,1.5,6.2,3.5l-2.7,2.8
		c-0.9-1.3-1.9-2.2-3.6-2.2c-2,0-3.3,1.6-3.3,4.2c0,2.5,1.3,4.2,3.3,4.2c1.6,0,2.6-0.7,3.7-2l2.6,2.5C626.1,59.6,624.3,61,621.2,61z
		"/>
	<path class="st3" d="M643.1,54.2h-9.4c0.1,2.2,1.7,3,3.2,3c1.1,0,2.1-0.4,2.7-1.1l2.9,2.5c-1.3,1.6-3.5,2.5-5.6,2.5
		c-4.5,0-7.4-3.2-7.4-8.2c0-4.8,3-8.2,7-8.2c4.2,0,6.6,3.7,6.6,8.2C643.2,53.5,643.2,53.9,643.1,54.2z M636.3,48.2
		c-1.5,0-2.4,1.2-2.6,2.8h5.4C639,49.6,638.2,48.2,636.3,48.2z"/>
	<path class="st3" d="M664.9,60.7v-8.5c0-2.8-0.8-3.7-2.5-3.7s-2.5,0.8-2.5,3.6v8.6h-4.1v-8.5c0-2.8-0.8-3.7-2.5-3.7
		s-2.5,0.8-2.5,3.6v8.6h-4.1V45h4.1V46c0.7-0.8,1.8-1.4,3.4-1.4c2,0,3.2,0.6,4.3,2c1.1-1.1,2.4-2,5-2c4,0,5.6,2.8,5.6,7.2v8.9H664.9
		z"/>
	<path class="st3" d="M685.7,54.2h-9.4c0.2,2.2,1.7,3,3.2,3c1.1,0,2.1-0.4,2.7-1.1l2.9,2.5c-1.3,1.6-3.5,2.5-5.6,2.5
		c-4.5,0-7.4-3.2-7.4-8.2c0-4.8,3-8.2,7-8.2c4.2,0,6.6,3.7,6.6,8.2C685.8,53.5,685.7,53.9,685.7,54.2z M678.9,48.2
		c-1.5,0-2.4,1.2-2.6,2.8h5.4C681.6,49.6,680.8,48.2,678.9,48.2z"/>
	<path class="st3" d="M698.6,60.7v-8.5c0-2.8-1-3.7-2.7-3.7s-2.7,0.8-2.7,3.6v8.6h-4.1V45h4.1V46c0.7-0.8,2-1.4,3.7-1.4
		c4,0,5.8,2.8,5.8,7.2v8.9H698.6z"/>
	<path class="st3" d="M715.2,60.1c-0.7,0.5-1.9,1-3.2,1c-2.5,0-4.2-2-4.2-4.7v-7.4h-2.6V45h2.6v-4l4.1-2.1V45h3.8v3.9h-3.8v6.3
		c0,1.5,0.5,1.9,1.5,1.9c0.8,0,1.3-0.3,2.3-1.2L715.2,60.1z"/>
	<path class="st3" d="M737.1,61c-5.5,0-9.2-4.2-9.2-10.8c0-6.4,3.8-10.8,9.3-10.8c4.3,0,6.6,2,8,5.2l-4,1.7c-0.8-1.6-1.7-2.7-4-2.7
		c-3.2,0-4.9,2.8-4.9,6.7c0,3.9,1.8,6.7,5,6.7c2.9,0,3.9-1.4,4.1-3.2H738v-3.9h7.5v2.8C745.6,58,742,61,737.1,61z"/>
	<path class="st3" d="M758.5,49.8c-0.7-0.6-1.5-1-2.4-1c-1.6,0-2.7,0.7-2.7,3.4v8.5h-4.1V45h4.1V46c0.7-0.8,1.8-1.4,3.2-1.4
		c1.4,0,2.4,0.5,2.9,1.1L758.5,49.8z"/>
	<path class="st3" d="M768,61c-4.1,0-7.1-3.4-7.1-8.2c0-4.8,3-8.2,7.1-8.2c4.1,0,7.1,3.4,7.1,8.2C775.2,57.7,772.1,61,768,61z
		 M768,48.6c-2,0-2.9,1.8-2.9,4.2c0,2.4,0.9,4.2,2.9,4.2c2,0,2.9-2,2.9-4.2C771,50.5,770,48.6,768,48.6z"/>
	<path class="st3" d="M787.7,60.7v-1c-0.7,0.8-2,1.4-3.7,1.4c-4,0-5.8-2.8-5.8-7.2V45h4.1v8.5c0,2.8,1,3.7,2.7,3.7s2.7-0.8,2.7-3.6
		V45h4.1v15.7H787.7z"/>
	<path class="st3" d="M803.4,61c-1.4,0-2.6-0.5-3.3-1.2v4.6l-4.1,2.1V45h4.1v1c0.8-0.7,1.8-1.3,3.3-1.3c3.4,0,6.1,2.5,6.1,8.4
		C809.5,57.7,807.3,61,803.4,61z M802.6,48.5c-1.3,0-2,0.5-2.5,1.3v5.9c0.6,0.9,1.6,1.4,2.8,1.4c1.6,0,2.5-1.4,2.5-4
		C805.3,49.9,804.2,48.5,802.6,48.5z"/>
</g>
<g>
	<path class="st4" d="M612.6,100.9h-4.8v6.8h-2.7V89.5h7.6c3.4,0,5.9,1.9,5.9,5.7C618.6,99,616.1,100.9,612.6,100.9z M612.7,92.1
		h-4.9v6.3h4.9c2.1,0,3.1-1.2,3.1-3.1C615.8,93.2,614.6,92.1,612.7,92.1z"/>
	<path class="st4" d="M629,108c-4.7,0-7.7-3.9-7.7-9.4c0-5.5,3-9.4,7.7-9.4c3,0,4.9,1.2,6.2,3.4l-2.4,1.5c-0.9-1.5-1.9-2.2-3.8-2.2
		c-3.2,0-4.9,2.6-4.9,6.7c0,4.1,1.7,6.7,4.9,6.7c3,0,4.1-2,4.1-4.1v-0.1h-3v-2.6h5.7v2.1C635.9,105.3,633,108,629,108z"/>
	<path class="st4" d="M646.9,107.7V89.5h2.7v18.2H646.9z"/>
	<path class="st4" d="M659.5,107.7h-5V89.5h5c4.9,0,8.9,2.7,8.9,9.1C668.3,105.1,664.2,107.7,659.5,107.7z M659.5,92.2h-2.2v12.9
		h2.2c4.3,0,6.1-2.6,6.1-6.4C665.6,94.8,663.8,92.2,659.5,92.2z"/>
	<path class="st4" d="M678.9,97.1v-2.6h11.3v2.6H678.9z M678.9,103.1v-2.6h11.3v2.6H678.9z"/>
	<path class="st5" d="M706.5,108c-2.6,0-5.3-1.1-6.6-3l2.1-1.8c1.1,1.4,2.8,2.1,4.5,2.1c2.9,0,4-1.1,4-3s-1.4-2.7-3.3-2.7h-1.7v-2.7
		h1.7c1.7,0,2.6-1.1,2.6-2.5c0-1-0.8-2.5-3.4-2.5c-1.4,0-2.6,0.6-3.6,1.7l-2-1.9c1.5-1.6,3.4-2.5,5.7-2.5c3.4,0,6.2,1.8,6.2,4.9
		c0,2.2-1,3.3-2.2,4c1.7,0.5,3,1.9,3,4.2C713.3,106,710.8,108,706.5,108z"/>
	<path class="st5" d="M717.9,108c-1.1,0-2.1-0.9-2.1-2.1s0.9-2.1,2.1-2.1s2.1,1,2.1,2.1S719.1,108,717.9,108z"/>
	<path class="st5" d="M730.8,107.7l-1.3-2.4c-0.5-1-1.2-2.2-1.4-2.8c-0.2,0.5-1,1.8-1.5,2.8l-1.3,2.3h-3l4.3-7.1l-4-6.6h3.1l1.1,1.9
		c0.5,1,1.2,2.2,1.4,2.7c0.3-0.5,0.9-1.8,1.5-2.8l1-1.9h3.1l-4,6.6l4.3,7.1H730.8z"/>
</g>
<g>
	<path class="st3" d="M1265.1,437.6v16.9h-4.2v-16.9h-6v-4.1h16.3v4.1H1265.1z"/>
	<path class="st3" d="M1279.7,454.5v-1c-0.8,0.8-2.1,1.4-3.5,1.4c-2.9,0-5.9-1.8-5.9-5.6c0-3.5,2.8-5.2,6.4-5.2c1.4,0,2.4,0.3,3,0.6
		v-0.8c0-1.1-0.8-2-2.2-2c-1.9,0-2.9,0.3-4.3,1.1l-1.6-2.9c1.8-1.1,3.4-1.6,5.9-1.6c3.8,0,6.4,2,6.4,5.5v10.6H1279.7z M1279.7,447.9
		c-0.7-0.5-1.4-0.7-2.9-0.7c-1.6,0-2.4,0.7-2.4,2c0,1.1,0.6,2.1,2.4,2.1c1.3,0,2.4-0.7,2.9-1.4V447.9z"/>
	<path class="st3" d="M1296.9,443.5c-0.7-0.6-1.5-1-2.4-1c-1.6,0-2.7,0.7-2.7,3.4v8.5h-4.1v-15.8h4.1v1.1c0.7-0.8,1.8-1.4,3.2-1.4
		c1.4,0,2.4,0.5,2.9,1.1L1296.9,443.5z"/>
	<path class="st3" d="M1306.1,460.3l-1.5-3.1c3.2-0.5,4.1-1.2,4.1-3.7c-0.8,0.7-1.8,1.3-3.3,1.3c-3.4,0-6.1-2.5-6.1-8.4
		c0-4.7,2.2-8,6.1-8c1.4,0,2.6,0.5,3.3,1.2v-0.9h4.1v13.1C1312.9,457,1311.6,459.7,1306.1,460.3z M1308.8,443.6
		c-0.6-0.9-1.6-1.3-2.8-1.3c-1.6,0-2.5,1.4-2.5,4c0,3.2,1.1,4.6,2.7,4.6c1.3,0,2-0.5,2.5-1.3V443.6z"/>
	<path class="st3" d="M1329.8,447.9h-9.4c0.1,2.2,1.7,3,3.2,3c1.1,0,2.1-0.4,2.7-1.1l2.9,2.5c-1.3,1.6-3.5,2.5-5.6,2.5
		c-4.5,0-7.4-3.2-7.4-8.2c0-4.8,3-8.2,7-8.2c4.2,0,6.6,3.7,6.6,8.2C1329.8,447.2,1329.8,447.6,1329.8,447.9z M1323,442
		c-1.5,0-2.4,1.2-2.6,2.8h5.4C1325.7,443.4,1324.8,442,1323,442z"/>
	<path class="st3" d="M1341.7,453.8c-0.7,0.5-1.9,1-3.2,1c-2.6,0-4.2-2-4.2-4.7v-7.4h-2.6v-3.9h2.6v-4l4.1-2.1v6.1h3.8v3.9h-3.8v6.3
		c0,1.5,0.5,1.9,1.5,1.9c0.8,0,1.3-0.3,2.3-1.2L1341.7,453.8z"/>
	<path class="st3" d="M1363.5,454.8c-5.7,0-9.1-4.4-9.1-10.8s3.4-10.8,9.1-10.8s9.1,4.4,9.1,10.8S1369.3,454.8,1363.5,454.8z
		 M1363.5,437.3c-3.4,0-4.8,2.9-4.8,6.7s1.4,6.7,4.8,6.7s4.8-2.9,4.8-6.7S1366.9,437.3,1363.5,437.3z"/>
	<path class="st3" d="M1383.6,454.8c-3.5,0-6.6-1.5-8.2-3.8l3-2.7c1.5,1.7,3.4,2.4,5.4,2.4c2.5,0,3.7-0.7,3.7-2.3
		c0-1.4-0.7-2-4.7-2.9c-3.9-0.9-6.6-2.1-6.6-6.3c0-3.8,3.4-6.1,7.5-6.1c3.3,0,5.7,1.2,7.7,3.3l-3,2.9c-1.4-1.4-2.9-2.2-4.8-2.2
		c-2.2,0-3,1-3,1.9c0,1.3,0.9,1.7,4.2,2.5s7,1.9,7,6.5C1391.9,452.1,1389.4,454.8,1383.6,454.8z"/>
	<path class="st3" d="M1402.6,454.5h-6.3v-21h6.6c6,0,10.4,2.8,10.4,10.5C1413.3,451.3,1408,454.5,1402.6,454.5z M1402.7,437.5h-2.2
		v12.8h2.1c4.4,0,6.4-2.6,6.4-6.4C1409,439.7,1407.2,437.5,1402.7,437.5z"/>
	<path class="st3" d="M1422.9,454.8c-2.5,0-4.9-0.7-6.6-1.8l1.4-3.2c1.7,0.9,3.5,1.4,5.5,1.4c1.6,0,2.1-0.4,2.1-1.2
		c0-0.7-0.6-1.1-2.3-1.6c-3.8-1.1-6.2-2.1-6.2-5.4c0-3.3,2.6-4.7,6.3-4.7c2,0,4.1,0.6,5.8,1.5l-1.3,3.3c-1.6-0.8-3.3-1.3-4.6-1.3
		c-1.7,0-2.1,0.3-2.1,1c0,0.7,0.5,0.9,3.3,1.8c2.8,0.9,5.2,1.9,5.2,5.1C1429.3,453.5,1426.4,454.8,1422.9,454.8z"/>
</g>
<g>
	<path class="st5" d="M220.3,165.1v-6.2c0-2.1-0.7-2.7-2-2.7c-1.3,0-2,0.6-2,2.6v6.3h-3v-14.5l3-1.5v5.3c0.5-0.5,1.5-1,2.7-1
		c2.9,0,4.3,2,4.3,5.3v6.5H220.3z"/>
	<path class="st5" d="M232.5,165.1v-0.8c-0.5,0.6-1.5,1-2.6,1c-2.2,0-4.3-1.3-4.3-4.1c0-2.6,2.1-3.8,4.7-3.8c1.1,0,1.7,0.2,2.2,0.5
		v-0.6c0-0.8-0.5-1.5-1.6-1.5c-1.4,0-2.1,0.2-3.2,0.8l-1.2-2.1c1.3-0.8,2.5-1.2,4.3-1.2c2.8,0,4.7,1.5,4.7,4v7.7H232.5z
		 M232.5,160.2c-0.5-0.3-1-0.5-2.1-0.5c-1.1,0-1.8,0.5-1.8,1.5c0,0.8,0.5,1.5,1.8,1.5c1,0,1.8-0.5,2.1-1.1V160.2z"/>
	<path class="st5" d="M242.8,165.3c-1.8,0-3.6-0.5-4.8-1.3l1-2.3c1.2,0.7,2.5,1.1,4,1.1c1.2,0,1.5-0.3,1.5-0.9
		c0-0.5-0.4-0.8-1.7-1.2c-2.8-0.8-4.6-1.5-4.6-4c0-2.4,1.9-3.4,4.6-3.4c1.5,0,3,0.4,4.3,1.1l-1,2.4c-1.1-0.6-2.4-0.9-3.4-0.9
		c-1.2,0-1.6,0.2-1.6,0.7c0,0.5,0.4,0.7,2.4,1.3c2.1,0.7,3.9,1.4,3.9,3.7C247.5,164.4,245.4,165.3,242.8,165.3z"/>
	<path class="st5" d="M257.2,165.1v-6.2c0-2.1-0.7-2.7-2-2.7c-1.3,0-2,0.6-2,2.6v6.3h-3v-14.5l3-1.5v5.3c0.5-0.5,1.5-1,2.7-1
		c2.9,0,4.3,2,4.3,5.3v6.5H257.2z"/>
	<path class="st3" d="M266.8,167.5c-2.1-2.3-3.8-4.9-3.8-9c0-4.1,1.6-6.7,3.8-9.2l2,1.4c-1.6,2-2.6,4.3-2.6,7.7c0,3.5,1,5.7,2.6,7.8
		L266.8,167.5z"/>
	<path class="st3" d="M273.1,155.9H271l0.3-6.2h3.6L273.1,155.9z M278.9,155.9h-2.1l0.3-6.2h3.6L278.9,155.9z"/>
	<path class="st3" d="M288,151.6c-0.9,0-1.1,0.3-1.1,0.9v1h2v2.9h-2v8.7h-3v-8.7h-1.4v-2.9h1.4v-1.4c0-2.2,1.2-3,3.3-3
		c0.7,0,1.4,0.1,1.9,0.3v2.4C288.7,151.7,288.4,151.6,288,151.6z"/>
	<path class="st3" d="M295.3,165.3c-3,0-5.2-2.5-5.2-6s2.2-6,5.2-6c3,0,5.2,2.5,5.2,6S298.4,165.3,295.3,165.3z M295.3,156.2
		c-1.5,0-2.1,1.3-2.1,3.1s0.7,3.1,2.1,3.1s2.2-1.5,2.2-3.1C297.5,157.6,296.8,156.2,295.3,156.2z"/>
	<path class="st3" d="M307.6,165.3c-3,0-5.2-2.5-5.2-6s2.2-6,5.2-6c3,0,5.2,2.5,5.2,6S310.6,165.3,307.6,165.3z M307.6,156.2
		c-1.5,0-2.1,1.3-2.1,3.1s0.7,3.1,2.1,3.1s2.2-1.5,2.2-3.1C309.7,157.6,309,156.2,307.6,156.2z"/>
	<path class="st3" d="M316.4,155.9h-2.1l0.3-6.2h3.6L316.4,155.9z M322.2,155.9h-2.1l0.3-6.2h3.6L322.2,155.9z"/>
	<path class="st3" d="M327.8,167.5l-2-1.4c1.6-2,2.6-4.3,2.6-7.7c0-3.5-1-5.7-2.6-7.8l2-1.4c2.1,2.3,3.8,4.9,3.8,9
		C331.6,162.5,330.1,165,327.8,167.5z"/>
	<path class="st5" d="M344.3,159c-2.4,0-4-1.8-4-4.8c0-3,1.7-4.8,4.1-4.8c2.4,0,4,1.8,4,4.8S346.7,159,344.3,159z M344.3,151.5
		c-1.1,0-1.6,0.9-1.6,2.7s0.6,2.8,1.6,2.8s1.6-1.1,1.6-2.7C345.9,152.4,345.4,151.5,344.3,151.5z M347,165.1h-2.7l9.4-15.4h2.7
		L347,165.1z M356.5,165.3c-2.4,0-4-1.8-4-4.8c0-3,1.7-4.8,4.1-4.8c2.4,0,4,1.8,4,4.8S358.8,165.3,356.5,165.3z M356.5,157.8
		c-1.1,0-1.6,0.9-1.6,2.7s0.6,2.8,1.6,2.8s1.6-1.1,1.6-2.7C358.1,158.7,357.6,157.8,356.5,157.8z"/>
	<path class="st3" d="M374.7,165.3c-1,0-1.9-0.4-2.4-0.9v3.4l-3,1.5v-15.8h3v0.7c0.6-0.5,1.3-1,2.4-1c2.5,0,4.5,1.8,4.5,6.2
		C379.2,162.9,377.6,165.3,374.7,165.3z M374.2,156.2c-0.9,0-1.4,0.4-1.9,1v4.4c0.5,0.6,1.2,1,2,1c1.2,0,1.8-1,1.8-2.9
		C376.2,157.1,375.4,156.2,374.2,156.2z"/>
	<path class="st3" d="M386,169.3L385,167c2.4-0.3,3-0.9,3-2.7c-0.6,0.5-1.3,1-2.4,1c-2.5,0-4.5-1.8-4.5-6.2c0-3.5,1.6-5.9,4.5-5.9
		c1,0,1.9,0.4,2.4,0.9v-0.7h3v9.6C391,166.9,390.1,168.9,386,169.3z M388,157.1c-0.5-0.6-1.2-1-2-1c-1.2,0-1.8,1-1.8,2.9
		c0,2.4,0.8,3.4,2,3.4c0.9,0,1.4-0.4,1.9-1V157.1z"/>
	<path class="st3" d="M392.5,169.2v-2.5h11v2.5H392.5z"/>
	<path class="st3" d="M412,165.1v-6.2c0-2.1-0.7-2.7-2-2.7c-1.3,0-2,0.6-2,2.6v6.3h-3v-11.6h3v0.8c0.5-0.5,1.5-1,2.7-1
		c2.9,0,4.3,2,4.3,5.3v6.5H412z"/>
	<path class="st3" d="M424.7,165.1v-0.8c-0.5,0.5-1.5,1-2.7,1c-2.9,0-4.3-2-4.3-5.3v-6.5h3v6.2c0,2.1,0.7,2.7,2,2.7
		c1.3,0,2-0.6,2-2.6v-6.3h3v11.6H424.7z"/>
	<path class="st3" d="M444.2,165.1v-6.2c0-2.1-0.6-2.7-1.8-2.7c-1.3,0-1.9,0.6-1.9,2.6v6.3h-3v-6.2c0-2.1-0.6-2.7-1.8-2.7
		c-1.3,0-1.9,0.6-1.9,2.6v6.3h-3v-11.6h3v0.8c0.5-0.5,1.3-1,2.5-1c1.5,0,2.3,0.4,3.2,1.5c0.8-0.8,1.8-1.5,3.7-1.5
		c2.9,0,4.1,2,4.1,5.3v6.5H444.2z"/>
	<path class="st3" d="M456.7,156.3v-2.8h10v2.8H456.7z M456.7,161.5v-2.8h10v2.8H456.7z"/>
	<path class="st5" d="M482.4,165.3c-4.2,0-6.4-3.3-6.4-7.9s2.3-7.9,6.5-7.9c4.2,0,6.5,3.2,6.5,7.9S486.6,165.3,482.4,165.3z
		 M482.4,152.5c-2.4,0-3.3,2.1-3.3,4.9s1,5,3.3,5c2.4,0,3.3-2.2,3.3-4.9S484.7,152.5,482.4,152.5z"/>
	<path class="st5" d="M498.5,165.1l-1.2-1.9c-0.4-0.7-0.8-1.4-1.1-1.9c-0.2,0.4-0.7,1.2-1.1,1.9l-1.2,1.9h-3.6l4.1-6.2l-3.5-5.3h3.6
		l0.6,0.9c0.4,0.7,0.8,1.4,1.1,1.9c0.2-0.4,0.7-1.2,1.1-1.9l0.5-0.9h3.6l-3.5,5.3l4.1,6.2H498.5z"/>
	<path class="st5" d="M504,165.1c0.1-5.3,3.3-7.6,7.1-9.2c1.3-0.6,1.7-1.2,1.7-1.8c0-0.8-0.7-1.6-2.5-1.6c-1.8,0-3.3,0.8-4.4,1.8
		l-2-2.3c1.6-1.7,3.8-2.6,6.2-2.6c3.7,0,5.7,1.5,5.7,4.4c0,2.5-1.3,3.6-4,4.8c-2.7,1.3-3.8,2.3-4.1,3.5h8.2v3H504z"/>
	<path class="st5" d="M523.6,165.3c-2.3,0-4.4-0.9-6.1-2.9l2.3-1.9c1.3,1.3,2.5,1.8,4,1.8c2,0,3-0.7,3-2c0-1.2-0.8-1.8-2.3-1.8h-1.8
		v-3h1.7c1.3,0,1.8-0.6,1.8-1.6c0-0.8-0.6-1.6-2.6-1.6c-1.2,0-2.2,0.4-3,1.3l-2.2-2c1.5-1.5,3-2.3,5.3-2.3c3.1,0,5.7,1.5,5.7,4.4
		c0,1.7-0.9,2.7-1.8,3.1c1,0.4,2.4,1.3,2.4,3.4C530,163.6,527.4,165.3,523.6,165.3z"/>
</g>
<g>
	<g>
		<path class="st3" d="M321.1,203.9h-3.6l1.8-6.2h2.1L321.1,203.9z M326.8,203.9h-3.6l1.8-6.2h2.1L326.8,203.9z"/>
		<path class="st3" d="M335.7,213.1v-0.7c-0.6,0.5-1.3,1-2.4,1c-2.5,0-4.5-1.8-4.5-6.2c0-3.5,1.6-5.9,4.5-5.9c1,0,1.9,0.4,2.4,0.9
			v-3.6l3-1.5v16H335.7z M335.7,205.1c-0.5-0.6-1.2-1-2-1c-1.2,0-1.8,1-1.8,2.9c0,2.4,0.8,3.4,2,3.4c0.9,0,1.4-0.4,1.9-1V205.1z"/>
		<path class="st3" d="M348.1,213.1v-0.8c-0.5,0.6-1.5,1-2.6,1c-2.2,0-4.3-1.3-4.3-4.1c0-2.6,2.1-3.8,4.7-3.8c1.1,0,1.7,0.2,2.2,0.5
			v-0.6c0-0.8-0.5-1.5-1.6-1.5c-1.4,0-2.1,0.2-3.2,0.8l-1.2-2.1c1.3-0.8,2.5-1.2,4.3-1.2c2.8,0,4.7,1.5,4.7,4v7.7H348.1z
			 M348.1,208.2c-0.5-0.3-1-0.5-2.1-0.5c-1.1,0-1.8,0.5-1.8,1.5c0,0.8,0.5,1.5,1.8,1.5c1,0,1.8-0.5,2.1-1.1V208.2z"/>
		<path class="st3" d="M360.4,212.6c-0.5,0.4-1.4,0.7-2.4,0.7c-1.9,0-3.1-1.5-3.1-3.5v-5.5h-1.9v-2.9h1.9v-3l3-1.5v4.5h2.8v2.9H358
			v4.6c0,1.1,0.4,1.4,1.1,1.4c0.5,0,1-0.2,1.7-0.9L360.4,212.6z"/>
		<path class="st3" d="M369.7,213.1v-0.8c-0.5,0.6-1.5,1-2.6,1c-2.2,0-4.3-1.3-4.3-4.1c0-2.6,2.1-3.8,4.7-3.8c1.1,0,1.7,0.2,2.2,0.5
			v-0.6c0-0.8-0.5-1.5-1.6-1.5c-1.4,0-2.1,0.2-3.2,0.8l-1.2-2.1c1.3-0.8,2.5-1.2,4.3-1.2c2.8,0,4.7,1.5,4.7,4v7.7H369.7z
			 M369.7,208.2c-0.5-0.3-1-0.5-2.1-0.5c-1.1,0-1.8,0.5-1.8,1.5c0,0.8,0.5,1.5,1.8,1.5c1,0,1.8-0.5,2.1-1.1V208.2z"/>
		<path class="st3" d="M377.6,203.9h-2.1l0.3-6.2h3.6L377.6,203.9z M383.3,203.9h-2.1l0.3-6.2h3.6L383.3,203.9z"/>
		<path class="st3" d="M394.2,204.3v-2.8h10v2.8H394.2z M394.2,209.5v-2.8h10v2.8H394.2z"/>
		<path class="st5" d="M418.9,213.3c-2.3,0-4.4-0.9-6.1-2.9l2.3-1.9c1.3,1.3,2.5,1.8,4,1.8c2,0,3-0.7,3-2c0-1.2-0.8-1.8-2.3-1.8H418
			v-3h1.7c1.3,0,1.8-0.6,1.8-1.6c0-0.8-0.6-1.6-2.6-1.6c-1.2,0-2.2,0.4-3,1.3l-2.2-2c1.5-1.5,3-2.3,5.3-2.3c3.1,0,5.7,1.5,5.7,4.4
			c0,1.7-0.9,2.7-1.8,3.1c1,0.4,2.4,1.3,2.4,3.4C425.2,211.6,422.7,213.3,418.9,213.3z"/>
	</g>
</g>
<g>
	<path class="st3" d="M985,103.1c-0.8-1.4-1.9-2.3-3.8-2.3c-3.1,0-4.9,2.8-4.9,6.7c0,3.8,1.8,6.7,5,6.7c1.9,0,3-0.8,4.1-2.7l3.5,2.1
		c-1.4,3-4,4.7-7.8,4.7c-5.5,0-9.2-4.2-9.2-10.8c0-6.4,3.8-10.8,9.3-10.8c4,0,6.4,1.9,7.7,4.6L985,103.1z"/>
	<path class="st3" d="M1005.3,118l-3.8-7.6h-4.2v7.6h-4.2V97h9.8c4,0,7.2,2.2,7.2,6.7c0,3.1-1.3,5.1-4,6.2l4,8.2H1005.3z
		 M1002.8,101.1h-5.5v5.4h5.5c1.9,0,3-0.9,3-2.7C1005.8,101.9,1004.7,101.1,1002.8,101.1z"/>
	<path class="st3" d="M1022.6,118.3c-5.1,0-8.5-3.4-8.5-9.5V97h4.2v11.7c0,3.4,1.6,5.5,4.3,5.5c2.7,0,4.3-2.1,4.3-5.4V97h4.2v11.7
		C1031.1,114.8,1027.9,118.3,1022.6,118.3z"/>
	<path class="st3" d="M1043.5,118.3c-3.5,0-6.6-1.5-8.2-3.8l3-2.7c1.5,1.7,3.4,2.4,5.4,2.4c2.5,0,3.7-0.7,3.7-2.3
		c0-1.4-0.7-2-4.7-2.9c-3.9-0.9-6.6-2.1-6.6-6.3c0-3.8,3.4-6.1,7.5-6.1c3.3,0,5.7,1.2,7.6,3.3l-3,2.9c-1.3-1.4-2.8-2.2-4.8-2.2
		c-2.2,0-3,1-3,1.9c0,1.3,0.9,1.7,4.2,2.5c3.3,0.8,7,1.9,7,6.5C1051.8,115.6,1049.2,118.3,1043.5,118.3z"/>
	<path class="st3" d="M1069,118v-8.8h-8.6v8.8h-4.2V97h4.2v8h8.6v-8h4.2v21H1069z"/>
</g>
<g>
	<path class="st3" d="M87.5,319.9l-5.7-8.4c-0.4-0.6-0.9-1.3-1.1-1.7c0,0.6,0,2.5,0,3.4v6.8h-3v-15.4h2.9l5.5,8.1
		c0.4,0.6,0.9,1.3,1.1,1.7c0-0.6,0-2.5,0-3.4v-6.5h3v15.4H87.5z"/>
	<path class="st3" d="M100,319.9v-0.8c-0.5,0.6-1.5,1-2.6,1c-2.2,0-4.3-1.3-4.3-4.1c0-2.6,2.1-3.8,4.7-3.8c1.1,0,1.7,0.2,2.2,0.5
		v-0.6c0-0.8-0.5-1.5-1.6-1.5c-1.4,0-2.1,0.2-3.2,0.8l-1.2-2.1c1.3-0.8,2.5-1.2,4.3-1.2c2.8,0,4.7,1.5,4.7,4v7.7H100z M100,315.1
		c-0.5-0.3-1-0.5-2.1-0.5c-1.1,0-1.8,0.5-1.8,1.5c0,0.8,0.5,1.5,1.8,1.5c1,0,1.8-0.5,2.1-1.1V315.1z"/>
	<path class="st3" d="M119.4,319.9v-6.2c0-2.1-0.6-2.7-1.8-2.7c-1.3,0-1.9,0.6-1.9,2.6v6.3h-3v-6.2c0-2.1-0.6-2.7-1.8-2.7
		c-1.3,0-1.9,0.6-1.9,2.6v6.3h-3v-11.6h3v0.8c0.5-0.5,1.3-1,2.5-1c1.5,0,2.3,0.4,3.2,1.5c0.8-0.8,1.8-1.5,3.7-1.5
		c2.9,0,4.1,2,4.1,5.3v6.5H119.4z"/>
	<path class="st3" d="M134.7,315.1h-6.9c0.1,1.6,1.3,2.2,2.4,2.2c0.8,0,1.5-0.3,2-0.8l2.2,1.8c-0.9,1.2-2.6,1.9-4.1,1.9
		c-3.3,0-5.4-2.4-5.4-6c0-3.5,2.2-6,5.1-6c3.1,0,4.9,2.7,4.9,6C134.7,314.6,134.7,314.9,134.7,315.1z M129.7,310.8
		c-1.1,0-1.8,0.9-1.9,2.1h4C131.7,311.8,131.1,310.8,129.7,310.8z"/>
	<path class="st3" d="M143.8,311.2v-2.8h10v2.8H143.8z M143.8,316.4v-2.8h10v2.8H143.8z"/>
	<path class="st3" d="M168.3,306.5c-0.9,0-1.1,0.3-1.1,0.9v1h2v2.9h-2v8.7h-3v-8.7h-1.4v-2.9h1.4V307c0-2.2,1.2-3,3.3-3
		c0.7,0,1.4,0.1,1.9,0.3v2.4C169,306.6,168.7,306.5,168.3,306.5z"/>
	<path class="st3" d="M175.6,320.2c-3,0-5.2-2.5-5.2-6c0-3.5,2.2-6,5.2-6c3,0,5.2,2.5,5.2,6C180.9,317.7,178.6,320.2,175.6,320.2z
		 M175.6,311.1c-1.5,0-2.1,1.3-2.1,3.1s0.7,3.1,2.1,3.1s2.2-1.5,2.2-3.1C177.8,312.4,177.1,311.1,175.6,311.1z"/>
	<path class="st3" d="M187.8,320.2c-3,0-5.2-2.5-5.2-6c0-3.5,2.2-6,5.2-6c3,0,5.2,2.5,5.2,6C193.1,317.7,190.8,320.2,187.8,320.2z
		 M187.8,311.1c-1.5,0-2.1,1.3-2.1,3.1s0.7,3.1,2.1,3.1s2.2-1.5,2.2-3.1C190,312.4,189.3,311.1,187.8,311.1z"/>
	<path class="st3" d="M50.3,340.9h-3.4v5.5h-3.1v-15.4h6.7c2.9,0,5.3,1.6,5.3,4.9C55.9,339.4,53.5,340.9,50.3,340.9z M50.5,333.9
		h-3.5v4h3.6c1.4,0,2.2-0.7,2.2-2C52.7,334.5,51.9,333.9,50.5,333.9z"/>
	<path class="st3" d="M62.5,346.6c-3,0-5.2-2.5-5.2-6c0-3.5,2.2-6,5.2-6c3,0,5.2,2.5,5.2,6C67.7,344.1,65.5,346.6,62.5,346.6z
		 M62.5,337.5c-1.5,0-2.1,1.3-2.1,3.1s0.7,3.1,2.1,3.1s2.2-1.5,2.2-3.1C64.6,338.8,63.9,337.5,62.5,337.5z"/>
	<path class="st3" d="M74.7,346.6c-3,0-5.2-2.5-5.2-6c0-3.5,2.2-6,5.2-6c3,0,5.2,2.5,5.2,6C79.9,344.1,77.7,346.6,74.7,346.6z
		 M74.7,337.5c-1.5,0-2.1,1.3-2.1,3.1s0.7,3.1,2.1,3.1s2.2-1.5,2.2-3.1C76.8,338.8,76.1,337.5,74.7,337.5z"/>
	<path class="st3" d="M82.4,346.3v-14.5l3-1.5v16H82.4z"/>
	<path class="st3" d="M95.1,337.6v-2.8h10v2.8H95.1z M95.1,342.8v-2.8h10v2.8H95.1z"/>
	<path class="st3" d="M121.1,346.3v-0.7c-0.6,0.5-1.3,1-2.4,1c-2.5,0-4.5-1.8-4.5-6.2c0-3.5,1.6-5.9,4.5-5.9c1,0,1.9,0.4,2.4,0.9
		v-3.6l3-1.5v16H121.1z M121.1,338.4c-0.5-0.6-1.2-1-2-1c-1.2,0-1.8,1-1.8,2.9c0,2.4,0.8,3.4,2,3.4c0.9,0,1.4-0.4,1.9-1V338.4z"/>
	<path class="st3" d="M133.4,346.3v-0.8c-0.5,0.6-1.5,1-2.6,1c-2.2,0-4.3-1.3-4.3-4.1c0-2.6,2.1-3.8,4.7-3.8c1.1,0,1.7,0.2,2.2,0.5
		v-0.6c0-0.8-0.5-1.5-1.6-1.5c-1.4,0-2.1,0.2-3.2,0.8l-1.2-2.1c1.3-0.8,2.5-1.2,4.3-1.2c2.8,0,4.7,1.5,4.7,4v7.7H133.4z
		 M133.4,341.5c-0.5-0.3-1-0.5-2.1-0.5c-1.1,0-1.8,0.5-1.8,1.5c0,0.8,0.5,1.5,1.8,1.5c1,0,1.8-0.5,2.1-1.1V341.5z"/>
	<path class="st3" d="M145.8,345.9c-0.5,0.4-1.4,0.7-2.4,0.7c-1.9,0-3.1-1.5-3.1-3.5v-5.5h-1.9v-2.9h1.9v-3l3-1.5v4.5h2.8v2.9h-2.8
		v4.6c0,1.1,0.4,1.4,1.1,1.4c0.5,0,1-0.2,1.7-0.9L145.8,345.9z"/>
	<path class="st3" d="M155.1,346.3v-0.8c-0.5,0.6-1.5,1-2.6,1c-2.2,0-4.3-1.3-4.3-4.1c0-2.6,2.1-3.8,4.7-3.8c1.1,0,1.7,0.2,2.2,0.5
		v-0.6c0-0.8-0.5-1.5-1.6-1.5c-1.4,0-2.1,0.2-3.2,0.8l-1.2-2.1c1.3-0.8,2.5-1.2,4.3-1.2c2.8,0,4.7,1.5,4.7,4v7.7H155.1z
		 M155.1,341.5c-0.5-0.3-1-0.5-2.1-0.5c-1.1,0-1.8,0.5-1.8,1.5c0,0.8,0.5,1.5,1.8,1.5c1,0,1.8-0.5,2.1-1.1V341.5z"/>
	<path class="st3" d="M171.1,348.7c-2.1-2.3-3.8-4.9-3.8-9c0-4.1,1.6-6.7,3.8-9.2l2,1.4c-1.6,2-2.6,4.3-2.6,7.7c0,3.5,1,5.7,2.6,7.8
		L171.1,348.7z"/>
	<path class="st3" d="M176.2,346.3v-15.4h3.1v15.4H176.2z"/>
	<path class="st3" d="M188.1,346.3h-4.6v-15.4h4.8c4.4,0,7.7,2.1,7.7,7.7C195.9,344,192,346.3,188.1,346.3z M188.2,333.9h-1.6v9.4
		h1.5c3.2,0,4.7-1.9,4.7-4.7C192.8,335.5,191.4,333.9,188.2,333.9z"/>
	<path class="st3" d="M216,343.2v3.1h-2.7v-3.1h-3.4v3.1h-2.7v-3.1h-2.6v-2.5h2.6v-4.2h-2.6V334h2.6v-3.1h2.7v3.1h3.4v-3.1h2.7v3.1
		h2.6v2.5H216v4.2h2.6v2.5H216z M213.3,336.5h-3.4v4.2h3.4V336.5z"/>
	<path class="st3" d="M222.6,348.7l-2-1.4c1.6-2,2.6-4.3,2.6-7.7c0-3.5-1-5.7-2.6-7.8l2-1.4c2.1,2.3,3.8,4.9,3.8,9
		C226.4,343.7,224.9,346.3,222.6,348.7z"/>
</g>
<polygon class="st6" points="807.1,159.9 567,159.9 567,120.3 807.1,120.3 818.3,140.1 "/>
<polygon class="st7" points="807.1,201.7 567,201.7 567,162.1 807.1,162.1 818.3,181.9 "/>
<polygon class="st8" points="807.1,243.6 567,243.6 567,204 807.1,204 818.3,223.8 "/>
<rect x="970.4" y="133.1" class="st9" width="14.4" height="93.5"/>
<rect x="984.8" y="133.1" class="st10" width="14.4" height="93.5"/>
<rect x="999.2" y="133.1" class="st11" width="14.4" height="93.5"/>
<rect x="1013.6" y="133.1" class="st12" width="14.4" height="93.5"/>
<rect x="1028" y="133.1" class="st13" width="14.4" height="93.5"/>
<rect x="1042.4" y="133.1" class="st14" width="14.4" height="93.5"/>
<rect x="1056.9" y="133.1" class="st15" width="14.4" height="93.5"/>
<rect x="1071.3" y="133.1" class="st7" width="14.4" height="93.5"/>
<rect x="1227.2" y="133.1" class="st5" width="233.5" height="110.5"/>
<rect x="1249" y="209.8" class="st4" width="189.9" height="16.8"/>
<rect x="1227.2" y="305.5" class="st5" width="110.5" height="110.5"/>
<rect x="1350.2" y="305.5" class="st5" width="110.5" height="110.5"/>
<g>
	<g>
		<line class="st16" x1="194" y1="180.4" x2="552.7" y2="180.4"/>
		<g>
			<polygon class="st7" points="549.8,190.3 567,180.4 549.8,170.4 			"/>
		</g>
	</g>
</g>
<g>
	<g>
		<line class="st16" x1="818.3" y1="180.4" x2="956" y2="180.4"/>
		<g>
			<polygon class="st7" points="953.1,190.3 970.4,180.4 953.1,170.4 			"/>
		</g>
	</g>
</g>
<g>
	<g>
		<line class="st16" x1="1086.7" y1="180.4" x2="1211.9" y2="180.4"/>
		<g>
			<polygon class="st7" points="1209,190.3 1226.3,180.4 1209,170.4 			"/>
		</g>
	</g>
</g>
<g>
	<path class="st4" d="M1321.3,188.4c0.3-8.2,5.2-11.8,10.8-15.1c3.8-2.2,4.8-3.5,4.8-5.4c0-2.2-1.5-3.7-5.4-3.7
		c-2.4,0-5,1.1-6.8,2.8l-2.7-3.2c2.5-2.4,6.1-3.8,9.6-3.8c5.8,0,9.5,2.5,9.5,7.6c0,4.3-2.1,6.2-7,9.1c-5.4,3.2-6.9,5-7.5,7.6h14.8
		v4.1H1321.3z"/>
	<path class="st4" d="M1362.7,182.1v6.3h-4.1v-6.2h-15.2v-4l14.4-17.8h4.8v18h3.7v3.7H1362.7z M1356.3,168.4l-5.4,6.9
		c-0.8,1.1-2,2.5-2.6,3.1c1,0,3.1,0,4.5,0h5.9v-8.2c0-1.6,0.1-4.1,0.1-5.1C1358.3,165.8,1357.2,167.3,1356.3,168.4z"/>
</g>
<g>
	<path class="st4" d="M1281.3,361.1c-4,0-8.1-1.8-10.1-4.6l3.2-2.7c1.7,2.2,4.4,3.2,6.9,3.2c4.5,0,6.1-1.7,6.1-4.6
		c0-2.9-2.2-4.2-5.1-4.2h-2.6v-4.1h2.6c2.6,0,4-1.7,4-3.8c0-1.6-1.2-3.8-5.3-3.8c-2.2,0-4,1-5.5,2.6l-3.1-3c2.4-2.4,5.2-3.8,8.7-3.8
		c5.3,0,9.6,2.7,9.6,7.6c0,3.4-1.5,5-3.4,6.1c2.6,0.8,4.6,2.9,4.6,6.4C1291.8,358.1,1287.9,361.1,1281.3,361.1z"/>
</g>
<g>
	<path class="st4" d="M1391.7,360.7v-21.4h-5v-2.9c2.9-0.2,5.2-1.2,5.8-3.6h3.4v28H1391.7z"/>
	<path class="st4" d="M1401.6,360.7c0.3-8.2,5.2-11.8,10.8-15.1c3.8-2.2,4.8-3.5,4.8-5.4c0-2.2-1.5-3.7-5.4-3.7
		c-2.4,0-5,1.1-6.8,2.8l-2.7-3.2c2.5-2.4,6.1-3.8,9.6-3.8c5.8,0,9.5,2.5,9.5,7.6c0,4.3-2.1,6.2-7,9.1c-5.4,3.2-6.9,5-7.5,7.6h14.8
		v4.1H1401.6z"/>
</g>
<rect x="1241.2" y="382.6" class="st4" width="82.4" height="16.8"/>
<rect x="1364.3" y="382.6" class="st4" width="82.4" height="16.8"/>
<g>
	<g>
		<line class="st16" x1="1282.4" y1="243.6" x2="1282.4" y2="293.3"/>
		<g>
			<polygon class="st7" points="1273.9,290.8 1282.4,305.5 1290.9,290.8 			"/>
		</g>
	</g>
</g>
<g>
	<g>
		<line class="st16" x1="1405.5" y1="243.6" x2="1405.5" y2="293.3"/>
		<g>
			<polygon class="st7" points="1397,290.8 1405.5,305.5 1413.9,290.8 			"/>
		</g>
	</g>
</g>
<g>
	<path class="st4" d="M612.6,142.8h-4.8v6.8h-2.7v-18.2h7.6c3.4,0,5.9,1.9,5.9,5.7C618.6,140.9,616.1,142.8,612.6,142.8z M612.7,134
		h-4.9v6.3h4.9c2.1,0,3.1-1.2,3.1-3.1C615.8,135.1,614.6,134,612.7,134z"/>
	<path class="st4" d="M629,149.9c-4.7,0-7.7-3.9-7.7-9.4c0-5.5,3-9.4,7.7-9.4c3,0,4.9,1.2,6.2,3.4l-2.4,1.5
		c-0.9-1.5-1.9-2.2-3.8-2.2c-3.2,0-4.9,2.6-4.9,6.7c0,4.1,1.7,6.7,4.9,6.7c3,0,4.1-2,4.1-4.1V143h-3v-2.6h5.7v2.1
		C635.9,147.2,633,149.9,629,149.9z"/>
	<path class="st4" d="M646.9,149.6v-18.2h2.7v18.2H646.9z"/>
	<path class="st4" d="M659.5,149.6h-5v-18.2h5c4.9,0,8.9,2.7,8.9,9.1C668.3,146.9,664.2,149.6,659.5,149.6z M659.5,134.1h-2.2V147
		h2.2c4.3,0,6.1-2.6,6.1-6.4C665.6,136.7,663.8,134.1,659.5,134.1z"/>
	<path class="st4" d="M678.9,139v-2.6h11.3v2.6H678.9z M678.9,145v-2.6h11.3v2.6H678.9z"/>
	<path class="st5" d="M706.5,149.9c-2.6,0-5.3-1.1-6.6-3l2.1-1.8c1.1,1.4,2.8,2.1,4.5,2.1c2.9,0,4-1.1,4-3s-1.4-2.7-3.3-2.7h-1.7
		v-2.7h1.7c1.7,0,2.6-1.1,2.6-2.5c0-1-0.8-2.5-3.4-2.5c-1.4,0-2.6,0.6-3.6,1.7l-2-1.9c1.5-1.6,3.4-2.5,5.7-2.5
		c3.4,0,6.2,1.8,6.2,4.9c0,2.2-1,3.3-2.2,4c1.7,0.5,3,1.9,3,4.2C713.3,147.9,710.8,149.9,706.5,149.9z"/>
	<path class="st5" d="M717.9,149.9c-1.1,0-2.1-0.9-2.1-2.1s0.9-2.1,2.1-2.1s2.1,1,2.1,2.1S719.1,149.9,717.9,149.9z"/>
	<path class="st5" d="M725.9,154.4h-2.8l2-5.1l-5-13.4h2.9l2.2,6.7c0.4,1.2,1,3.2,1.2,4c0.2-0.8,0.8-2.8,1.2-3.9l2.3-6.7h2.8
		L725.9,154.4z"/>
</g>
<g>
	<path class="st4" d="M612.6,184.6h-4.8v6.8h-2.7v-18.2h7.6c3.4,0,5.9,1.9,5.9,5.7C618.6,182.6,616.1,184.6,612.6,184.6z
		 M612.7,175.7h-4.9v6.3h4.9c2.1,0,3.1-1.2,3.1-3.1C615.8,176.9,614.6,175.7,612.7,175.7z"/>
	<path class="st4" d="M629,191.7c-4.7,0-7.7-3.9-7.7-9.4c0-5.5,3-9.4,7.7-9.4c3,0,4.9,1.2,6.2,3.4l-2.4,1.5
		c-0.9-1.5-1.9-2.2-3.8-2.2c-3.2,0-4.9,2.6-4.9,6.7c0,4.1,1.7,6.7,4.9,6.7c3,0,4.1-2,4.1-4.1v-0.1h-3v-2.6h5.7v2.1
		C635.9,188.9,633,191.7,629,191.7z"/>
	<path class="st4" d="M646.9,191.4v-18.2h2.7v18.2H646.9z"/>
	<path class="st4" d="M659.5,191.4h-5v-18.2h5c4.9,0,8.9,2.7,8.9,9.1C668.3,188.7,664.2,191.4,659.5,191.4z M659.5,175.8h-2.2v12.9
		h2.2c4.3,0,6.1-2.6,6.1-6.4C665.6,178.4,663.8,175.8,659.5,175.8z"/>
	<path class="st4" d="M678.9,180.7v-2.6h11.3v2.6H678.9z M678.9,186.7v-2.6h11.3v2.6H678.9z"/>
	<path class="st5" d="M706.5,191.7c-2.6,0-5.3-1.1-6.6-3l2.1-1.8c1.1,1.4,2.8,2.1,4.5,2.1c2.9,0,4-1.1,4-3s-1.4-2.7-3.3-2.7h-1.7
		v-2.7h1.7c1.7,0,2.6-1.1,2.6-2.5c0-1-0.8-2.5-3.4-2.5c-1.4,0-2.6,0.6-3.6,1.7l-2-1.9c1.5-1.6,3.4-2.5,5.7-2.5
		c3.4,0,6.2,1.8,6.2,4.9c0,2.2-1,3.3-2.2,4c1.7,0.5,3,1.9,3,4.2C713.3,189.7,710.8,191.7,706.5,191.7z"/>
	<path class="st5" d="M717.9,191.7c-1.1,0-2.1-0.9-2.1-2.1s0.9-2.1,2.1-2.1s2.1,1,2.1,2.1S719.1,191.7,717.9,191.7z"/>
	<path class="st5" d="M722.5,191.4c0.2-5.3,3.4-7.7,7-9.8c2.5-1.5,3.1-2.3,3.1-3.5c0-1.5-1-2.4-3.5-2.4c-1.5,0-3.2,0.7-4.4,1.8
		l-1.7-2.1c1.6-1.5,4-2.5,6.2-2.5c3.8,0,6.2,1.6,6.2,5c0,2.8-1.4,4-4.6,5.9c-3.5,2.1-4.5,3.2-4.9,5h9.6v2.7H722.5z"/>
	<path class="st5" d="M744.3,191.7c-2.6,0-5.3-1.1-6.6-3l2.1-1.8c1.1,1.4,2.8,2.1,4.5,2.1c2.9,0,4-1.1,4-3s-1.4-2.7-3.3-2.7h-1.7
		v-2.7h1.7c1.7,0,2.6-1.1,2.6-2.5c0-1-0.8-2.5-3.4-2.5c-1.4,0-2.6,0.6-3.6,1.7l-2-1.9c1.5-1.6,3.4-2.5,5.7-2.5
		c3.4,0,6.2,1.8,6.2,4.9c0,2.2-1,3.3-2.2,4c1.7,0.5,3,1.9,3,4.2C751.1,189.7,748.6,191.7,744.3,191.7z"/>
</g>
<g>
	<path class="st4" d="M612.6,226.8h-4.8v6.8h-2.7v-18.2h7.6c3.4,0,5.9,1.9,5.9,5.7C618.6,224.8,616.1,226.8,612.6,226.8z M612.7,218
		h-4.9v6.3h4.9c2.1,0,3.1-1.2,3.1-3.1C615.8,219.1,614.6,218,612.7,218z"/>
	<path class="st4" d="M629,233.9c-4.7,0-7.7-3.9-7.7-9.4c0-5.5,3-9.4,7.7-9.4c3,0,4.9,1.2,6.2,3.4l-2.4,1.5
		c-0.9-1.5-1.9-2.2-3.8-2.2c-3.2,0-4.9,2.6-4.9,6.7c0,4.1,1.7,6.7,4.9,6.7c3,0,4.1-2,4.1-4.1V227h-3v-2.6h5.7v2.1
		C635.9,231.2,633,233.9,629,233.9z"/>
	<path class="st4" d="M646.9,233.6v-18.2h2.7v18.2H646.9z"/>
	<path class="st4" d="M659.5,233.6h-5v-18.2h5c4.9,0,8.9,2.7,8.9,9.1C668.3,230.9,664.2,233.6,659.5,233.6z M659.5,218.1h-2.2V231
		h2.2c4.3,0,6.1-2.6,6.1-6.4C665.6,220.7,663.8,218.1,659.5,218.1z"/>
	<path class="st4" d="M678.9,223v-2.6h11.3v2.6H678.9z M678.9,228.9v-2.6h11.3v2.6H678.9z"/>
	<path class="st5" d="M706.5,233.9c-2.6,0-5.3-1.1-6.6-3l2.1-1.8c1.1,1.4,2.8,2.1,4.5,2.1c2.9,0,4-1.1,4-3s-1.4-2.7-3.3-2.7h-1.7
		v-2.7h1.7c1.7,0,2.6-1.1,2.6-2.5c0-1-0.8-2.5-3.4-2.5c-1.4,0-2.6,0.6-3.6,1.7l-2-1.9c1.5-1.6,3.4-2.5,5.7-2.5
		c3.4,0,6.2,1.8,6.2,4.9c0,2.2-1,3.3-2.2,4c1.7,0.5,3,1.9,3,4.2C713.3,231.9,710.8,233.9,706.5,233.9z"/>
	<path class="st5" d="M717.9,233.9c-1.1,0-2.1-0.9-2.1-2.1s0.9-2.1,2.1-2.1s2.1,1,2.1,2.1S719.1,233.9,717.9,233.9z"/>
	<path class="st5" d="M722.7,233.6v-2.2l5.9-7.2c0.5-0.7,1.3-1.6,1.6-2c-0.5,0-1.8,0-2.4,0h-4.5V220h10v2.2l-5.7,7.2
		c-0.5,0.7-1.3,1.6-1.6,2c0.5,0,1.8,0,2.5,0h4.9v2.3H722.7z"/>
</g>
<g>
</g>
</svg>
