<svg xmlns="http://www.w3.org/2000/svg" width="454.79" height="501.24" viewBox="0 0 454.79 501.24">
  <defs>
    <style>
      .a {
        isolation: isolate;
      }

      .b, .i {
        fill: #dee4e7;
      }

      .c, .d, .h, .n {
        fill: #ebecec;
      }

      .c {
        opacity: 0.8;
      }

      .d {
        opacity: 0.27;
      }

      .e {
        fill: #707070;
      }

      .f {
        fill: none;
      }

      .g {
        fill: #fff;
      }

      .h {
        opacity: 0.69;
      }

      .i, .m {
        mix-blend-mode: multiply;
      }

      .j {
        fill: #c00;
      }

      .k {
        fill: #e00;
      }

      .l {
        fill: #a30000;
      }

      .m, .s {
        fill: #14002c;
      }

      .o {
        fill: #ebeceb;
      }

      .p {
        fill: #dcdcdc;
      }

      .q {
        fill: #b8b9b9;
      }

      .r {
        fill: #dcdcdb;
      }

      .t {
        fill: #393939;
      }
    </style>
  </defs>
  <title>isometric_ansible</title>
  <g class="a">
    <g>
      <path class="b" d="M446.62,270.93,345.79,329.52a4.75,4.75,0,0,1-4.78,0L239.32,271l103.4-60Z"/>
      <polygon class="b" points="180.63 268.57 160.14 280.52 324.19 375.15 344.68 363.32 180.63 268.57"/>
      <g>
        <polygon class="b" points="228.97 449.04 175.61 479.97 70.6 419.39 124.76 388.12 228.97 449.04"/>
        <g>
          <g>
            <g>
              <g>
                <polygon class="c" points="454.35 216.92 352.45 276.14 249.5 216.81 351.81 157.81 454.35 216.92"/>
                <polygon class="d" points="454.38 184.55 454.35 216.92 351.81 157.81 351.81 125.33 454.38 184.55"/>
                <polygon class="d" points="249.49 184.44 249.52 216.81 351.81 157.81 351.81 125.33 249.49 184.44"/>
                <g>
                  <polygon class="e" points="361.27 246.06 361.27 265.63 366.29 262.74 366.29 243.18 361.27 246.06"/>
                  <polygon class="e" points="372.46 239.59 367.98 242.22 367.98 261.78 372.42 259.16 372.46 239.59"/>
                </g>
                <ellipse class="e" cx="447.73" cy="205.19" rx="3.22" ry="2.28" transform="translate(167.04 609.89) rotate(-79.88)"/>
                <ellipse class="e" cx="437.97" cy="210.32" rx="3.22" ry="2.28" transform="translate(153.95 604.51) rotate(-79.88)"/>
              </g>
              <g>
                <polygon class="f" points="352.49 243.29 250.36 184.44 351.88 125.81 453.56 184.55 352.49 243.29"/>
                <polygon class="f" points="352.9 244 413.75 208.64 453.97 185.27 453.94 216.69 352.87 275.43 352.88 264.13 352.9 244"/>
                <polygon class="f" points="352.07 244 352.06 263.75 352.04 275.43 249.91 216.58 249.94 185.15 352.07 244"/>
                <path class="g" d="M249.09,216.81a.41.41,0,0,0,.21.36l103,59.33a.46.46,0,0,0,.2.05.46.46,0,0,0,.21-.05h0l101.9-59.22a.42.42,0,0,0,.2-.36l0-32.37h0a.38.38,0,0,0-.2-.35L352.09,125a.4.4,0,0,0-.42,0L249.33,184.09a.31.31,0,0,0-.15.15.64.64,0,0,0,0,.07.28.28,0,0,0,0,.13Zm204.47-32.26L352.49,243.29,250.36,184.44l101.52-58.63ZM352.87,275.43v-11.3l0-20.13,60.84-35.36L454,185.27l0,31.42Zm-103-58.85,0-31.43L352.08,244l0,19.75,0,11.68Z"/>
              </g>
            </g>
            <polygon class="h" points="454.38 184.55 352.49 243.77 249.53 184.44 351.88 125.33 454.38 184.55"/>
          </g>
          <polygon class="i" points="438.76 181.73 353.57 231.24 267.65 181.75 353 132.22 438.76 181.73"/>
          <g>
            <g>
              <g>
                <polygon class="c" points="454.35 152.96 352.45 212.18 249.5 152.85 351.81 93.85 454.35 152.96"/>
                <polygon class="d" points="454.38 120.59 454.35 152.96 351.81 93.85 351.81 61.37 454.38 120.59"/>
                <polygon class="d" points="249.49 120.48 249.52 152.85 351.81 93.85 351.81 61.37 249.49 120.48"/>
                <g>
                  <polygon class="e" points="361.27 182.09 361.27 201.66 366.29 198.77 366.29 179.22 361.27 182.09"/>
                  <polygon class="e" points="372.46 175.63 367.98 178.26 367.98 197.81 372.42 195.19 372.46 175.63"/>
                </g>
                <ellipse class="e" cx="447.73" cy="141.23" rx="3.22" ry="2.28" transform="translate(230.01 557.17) rotate(-79.88)"/>
                <ellipse class="e" cx="437.97" cy="146.35" rx="3.22" ry="2.28" transform="translate(216.92 551.79) rotate(-79.88)"/>
              </g>
              <g>
                <polygon class="f" points="352.49 179.33 250.36 120.48 351.88 61.84 453.56 120.59 352.49 179.33"/>
                <polygon class="f" points="352.9 180.04 413.75 144.68 453.97 121.3 453.94 152.72 352.87 211.46 352.88 200.16 352.9 180.04"/>
                <polygon class="f" points="352.07 180.04 352.06 199.78 352.04 211.47 249.91 152.61 249.94 121.19 352.07 180.04"/>
                <path class="g" d="M249.09,152.85a.42.42,0,0,0,.21.36l103,59.32a.36.36,0,0,0,.2.06.37.37,0,0,0,.21-.06h0l101.9-59.21a.43.43,0,0,0,.2-.36l0-32.37h0a.41.41,0,0,0-.2-.36L352.09,61a.45.45,0,0,0-.42,0L249.33,120.12a.43.43,0,0,0-.15.15s0,0,0,.07a.37.37,0,0,0,0,.14Zm204.47-32.26L352.49,179.33,250.36,120.48,351.88,61.84ZM352.87,211.46V200.17l0-20.13,60.84-35.36L454,121.3l0,31.42Zm-103-58.85,0-31.42L352.08,180l0,19.74,0,11.69Z"/>
              </g>
            </g>
            <polygon class="h" points="454.38 120.59 352.49 179.8 249.53 120.48 351.88 61.37 454.38 120.59"/>
          </g>
          <polygon class="i" points="438.76 121.85 353.57 171.36 267.65 121.87 353 72.34 438.76 121.85"/>
          <g>
            <g>
              <g>
                <polygon class="c" points="454.35 92 352.45 151.22 249.5 91.89 351.81 32.89 454.35 92"/>
                <polygon class="d" points="454.38 59.63 454.35 92 351.81 32.89 351.81 0.41 454.38 59.63"/>
                <polygon class="d" points="249.49 59.52 249.52 91.89 351.81 32.89 351.81 0.41 249.49 59.52"/>
                <g>
                  <polygon class="e" points="361.27 121.13 361.27 140.7 366.29 137.81 366.29 118.26 361.27 121.13"/>
                  <polygon class="e" points="372.46 114.67 367.98 117.3 367.98 136.86 372.42 134.24 372.46 114.67"/>
                </g>
                <ellipse class="e" cx="447.73" cy="80.27" rx="3.22" ry="2.28" transform="translate(290.02 506.92) rotate(-79.88)"/>
                <ellipse class="e" cx="437.97" cy="85.4" rx="3.22" ry="2.28" transform="translate(276.93 501.54) rotate(-79.88)"/>
              </g>
              <g>
                <polygon class="f" points="352.49 118.37 250.36 59.52 351.88 0.89 453.56 59.63 352.49 118.37"/>
                <polygon class="f" points="352.9 119.08 413.75 83.72 453.97 60.34 453.94 91.77 352.87 150.5 352.88 139.21 352.9 119.08"/>
                <polygon class="f" points="352.07 119.08 352.06 138.82 352.04 150.51 249.91 91.66 249.94 60.23 352.07 119.08"/>
                <path class="g" d="M249.09,91.89a.42.42,0,0,0,.21.36l103,59.32a.36.36,0,0,0,.2.06.37.37,0,0,0,.21-.06h0l101.9-59.21a.43.43,0,0,0,.2-.36l0-32.37h0a.41.41,0,0,0-.2-.36L352.09.05a.45.45,0,0,0-.42,0L249.33,59.16a.43.43,0,0,0-.15.15s0,0,0,.07a.37.37,0,0,0,0,.14ZM453.56,59.63,352.49,118.37,250.36,59.52,351.88.89ZM352.87,150.5V139.21l0-20.13,60.84-35.36L454,60.34l0,31.43Zm-103-58.85,0-31.42,102.14,58.85,0,19.74,0,11.69Z"/>
              </g>
            </g>
            <polygon class="h" points="454.38 59.63 352.49 118.84 249.53 59.52 351.88 0.41 454.38 59.63"/>
          </g>
          <polygon class="j" points="344.93 113.51 152.99 4.99 154.36 226.43 346.36 335.58 344.93 113.51"/>
          <polygon class="k" points="152.86 5.01 344.92 113.52 344.93 113.51 350.61 110.22 158.53 1.69 152.86 5.01"/>
          <polygon class="l" points="344.92 113.52 346.36 335.58 351.94 332.26 350.61 110.22 344.93 113.51 344.92 113.52"/>
          <path class="m" d="M180.06,248.41a2.22,2.22,0,0,1-1.12-4.15l33.75-19.48a2.22,2.22,0,0,1,2.23,0L242.81,241l24.07-14.3-54.19-31.29a2.22,2.22,0,0,1,0-3.85l29-16.59a2.22,2.22,0,0,1,2.21,3.85l-25.63,14.68,54.13,31.25a2.22,2.22,0,0,1,1.11,1.91,2.2,2.2,0,0,1-1.09,1.92L244,245.51a2.19,2.19,0,0,1-2.25,0L213.8,229.27l-32.63,18.84A2.23,2.23,0,0,1,180.06,248.41Z"/>
          <path class="n" d="M179.48,245.88a2.22,2.22,0,0,1-1.12-4.15l33.75-19.48a2.22,2.22,0,0,1,2.23,0l27.89,16.25,24.07-14.3-54.19-31.29a2.22,2.22,0,0,1,0-3.85l29-16.59a2.22,2.22,0,0,1,2.21,3.85L217.68,191l54.13,31.25a2.22,2.22,0,0,1,0,3.83L243.38,243a2.23,2.23,0,0,1-2.26,0l-27.9-16.25-32.64,18.84A2.22,2.22,0,0,1,179.48,245.88Z"/>
          <g>
            <g>
              <polygon class="o" points="191.66 430.51 87.45 370.35 113.51 355.31 217.71 415.47 191.66 430.51"/>
              <polygon class="p" points="87.45 377.44 87.45 370.35 191.66 430.51 191.66 437.6 87.45 377.44"/>
              <polygon class="q" points="243.76 407.52 191.66 437.6 191.66 430.51 244.01 400.29 243.76 407.52"/>
              <polygon class="p" points="185.18 393.71 185.18 404.8 126.47 370.9 126.47 359.81 185.18 393.71"/>
              <polygon class="r" points="204.75 393.5 185.18 404.8 185.18 393.71 204.75 382.41 204.75 393.5"/>
              <polygon class="s" points="185.18 392.25 185.18 398.21 126.47 364.32 126.47 358.35 185.18 392.25"/>
            </g>
            <g>
              <polygon class="n" points="277.52 245.5 265.7 252.33 52.84 129.44 64.67 122.61 277.52 245.5"/>
              <polygon class="q" points="265.7 443.5 265.7 252.33 277.52 245.5 277.52 436.67 265.7 443.5"/>
              <polygon class="p" points="52.84 320.6 265.7 443.5 265.7 252.33 52.84 129.44 52.84 320.6"/>
              <polygon class="t" points="58.62 316.43 259.22 432.25 259.22 256.26 58.62 140.44 58.62 316.43"/>
            </g>
            <g>
              <polygon class="t" points="212.11 261.29 97.75 195.36 97.75 327.32 212.03 393.3 212.11 261.29"/>
              <polygon class="t" points="97.75 183.34 97.75 195.36 212.11 261.29 212.12 249.05 97.75 183.34"/>
              <polygon class="o" points="207.41 262.6 93.05 196.67 93.05 328.63 207.32 394.61 207.41 262.6"/>
              <polygon class="k" points="93.05 184.65 93.05 196.67 207.41 262.6 207.42 250.36 93.05 184.65"/>
            </g>
            <polygon class="p" points="100.44 221.3 100.44 319.88 139.9 342.66 139.9 244.08 100.44 221.3"/>
            <polygon class="t" points="118.01 232.71 7.89 168.93 7.89 313.93 118.01 377.51 118.01 232.71"/>
            <g>
              <polygon class="o" points="114.36 246.38 0 180.44 0 312.4 114.28 378.38 114.36 246.38"/>
              <polygon class="k" points="0 168.42 0 180.44 114.36 246.38 114.37 234.14 0 168.42"/>
            </g>
            <polygon class="p" points="146.49 258.02 146.49 267.18 194.05 294.64 194.05 285.48 146.49 258.02"/>
            <polygon class="p" points="146.49 247.94 146.49 257.09 194.05 284.55 194.05 275.4 146.49 247.94"/>
            <polygon class="p" points="146.49 268.11 146.49 277.26 194.05 304.72 194.05 295.57 146.49 268.11"/>
            <polygon class="p" points="146.49 287.35 146.49 278.19 194.05 305.66 194.05 314.81 146.49 287.35"/>
            <polygon class="p" points="146.49 314.81 146.49 323.96 194.05 351.43 194.05 342.27 146.49 314.81"/>
            <polygon class="p" points="146.49 304.72 146.49 313.88 194.05 341.34 194.05 332.19 146.49 304.72"/>
            <polygon class="p" points="146.49 324.9 146.49 334.05 194.05 361.51 194.05 352.36 146.49 324.9"/>
            <polygon class="p" points="146.49 344.14 146.49 334.98 194.05 362.44 194.05 371.6 146.49 344.14"/>
            <g>
              <g>
                <polygon class="p" points="99.72 343.79 10.68 292.38 10.68 212.41 99.72 263.82 99.72 343.79"/>
                <path class="n" d="M99.72,344.08a.28.28,0,0,1-.15,0l-89-51.41a.29.29,0,0,1-.15-.25v-80a.29.29,0,0,1,.15-.25.3.3,0,0,1,.29,0l89,51.41a.29.29,0,0,1,.15.25v80a.29.29,0,0,1-.15.25A.23.23,0,0,1,99.72,344.08ZM11,292.21l88.45,51.07V264L11,212.92Z"/>
              </g>
              <g>
                <rect class="n" x="55.05" y="198.03" width="0.29" height="102.81" transform="translate(-188.42 172.52) rotate(-60)"/>
                <rect class="n" x="55.05" y="209.45" width="0.29" height="102.81" transform="translate(-198.31 178.23) rotate(-60)"/>
                <rect class="n" x="55.05" y="220.87" width="0.29" height="102.81" transform="translate(-208.2 183.94) rotate(-60)"/>
                <rect class="n" x="55.05" y="232.3" width="0.29" height="102.81" transform="translate(-218.1 189.65) rotate(-60)"/>
                <rect class="n" x="55.05" y="243.72" width="0.29" height="102.81" transform="translate(-227.99 195.37) rotate(-60)"/>
                <rect class="n" x="55.05" y="255.15" width="0.29" height="102.81" transform="translate(-237.88 201.08) rotate(-60)"/>
                <rect class="n" x="30.32" y="223.68" width="0.29" height="80.07"/>
                <rect class="n" x="40.21" y="229.55" width="0.29" height="79.97"/>
                <polygon class="n" points="50.4 315.23 50.1 315.23 50.29 235.15 50.58 235.16 50.4 315.23"/>
                <rect class="n" x="60" y="240.97" width="0.29" height="79.97"/>
                <rect class="n" x="69.89" y="246.58" width="0.29" height="80.07"/>
                <rect class="n" x="79.78" y="252.4" width="0.29" height="79.86"/>
                <rect class="n" x="89.68" y="258" width="0.29" height="80.07"/>
                <rect class="n" x="20.42" y="218.13" width="0.29" height="79.97"/>
              </g>
              <path class="n" d="M98.71,286,80.37,317.84l-9-37.16a1.14,1.14,0,0,0-1-.87,1.15,1.15,0,0,0-1.17.56l-8.55,14.52-9.09-44.42a1.17,1.17,0,0,0-2.19-.27L30.56,289.25l-8.7-25.8a1.17,1.17,0,0,0-2.1-.24L10.68,278v4.43l9.76-15.84,8.83,26.16a1.15,1.15,0,0,0,1,.79,1.17,1.17,0,0,0,1.12-.66L50,254.32l9,44a1.17,1.17,0,0,0,2.15.35L69.77,284l9,37.19a1.14,1.14,0,0,0,1,.88h.17a1.18,1.18,0,0,0,1-.58l18.21-31.65.57,3v-7.47A1.15,1.15,0,0,0,98.71,286Z"/>
            </g>
          </g>
          <polygon class="t" points="277.52 328.8 167.4 265.02 167.4 410.02 277.52 473.6 277.52 328.8"/>
          <g>
            <polygon class="o" points="274.89 344.57 160.53 278.64 160.53 410.6 274.81 476.58 274.89 344.57"/>
            <polygon class="k" points="160.53 266.62 160.53 278.64 274.89 344.57 274.9 332.33 160.53 266.62"/>
            <path class="e" d="M168.69,313.21a.54.54,0,0,1-.31-1l7-4.66-6.71-12.62a.54.54,0,0,1,1-.51l6.94,13.05a.54.54,0,0,1-.18.71l-7.4,4.93A.5.5,0,0,1,168.69,313.21Z"/>
            <path class="e" d="M185,322.88a.54.54,0,0,1-.27-.07l-10-5.63a.55.55,0,0,1-.21-.74.54.54,0,0,1,.74-.2l10,5.63a.54.54,0,0,1-.27,1Z"/>
          </g>
        </g>
        <path class="b" d="M117.71,415.62a1.42,1.42,0,0,1-.74-.2L11.57,354.86a1.5,1.5,0,1,1,1.49-2.6l105.4,60.56a1.5,1.5,0,0,1-.75,2.8Z"/>
        <path class="b" d="M267.48,501.24a1.48,1.48,0,0,1-.75-.2l-105.4-60.56a1.5,1.5,0,0,1,1.5-2.6l105.4,60.56a1.5,1.5,0,0,1-.75,2.8Z"/>
      </g>
    </g>
  </g>
</svg>
