<?xml version="1.0" encoding="utf-8"?>
<!-- Generator: Adobe Illustrator 22.0.1, SVG Export Plug-In . SVG Version: 6.00 Build 0)  -->
<svg version="1.1" id="Layer_1" xmlns="http://www.w3.org/2000/svg" xmlns:xlink="http://www.w3.org/1999/xlink" x="0px" y="0px"
	 width="727.8px" height="528.1px" viewBox="0 0 727.8 528.1" style="enable-background:new 0 0 727.8 528.1;" xml:space="preserve"
	>
<style type="text/css">
	.st0{fill:#FFFFFF;stroke:#004153;stroke-width:4;stroke-miterlimit:10;}
	.st1{fill:#A30000;}
	.st2{fill:#FFFFFF;}
	.st3{fill:none;stroke:#004153;stroke-miterlimit:10;stroke-dasharray:3,3;}
	.st4{fill:#004153;}
	.st5{fill:#004153;stroke:#FFFFFF;stroke-miterlimit:10;}
	.st6{fill:#FFFFFF;stroke:#004153;stroke-width:0.5;stroke-miterlimit:10;}
</style>
<circle class="st0" cx="362.7" cy="71" r="55.9"/>
<rect x="15.1" y="246.4" class="st1" width="695.3" height="266.7"/>
<g>
	<line class="st2" x1="362.7" y1="246.4" x2="362.7" y2="128.3"/>
	<g>
		<line class="st3" x1="362.7" y1="246.4" x2="362.7" y2="135.5"/>
		<g>
			<polygon class="st4" points="367.7,136.9 362.7,128.3 357.8,136.9 			"/>
		</g>
	</g>
</g>
<g>
	<g>
		<polyline class="st3" points="90.9,267 90.9,71.8 297,71.8 		"/>
		<g>
			<polygon class="st4" points="295.6,76.8 304.2,71.8 295.6,66.8 			"/>
		</g>
	</g>
</g>
<g>
	<rect x="33" y="267.8" class="st2" width="25" height="23.9"/>
	<rect x="34.7" y="285.2" class="st1" width="21.5" height="5"/>
</g>
<rect x="78.2" y="267.8" class="st5" width="25" height="23.9"/>
<g>
	<rect x="123.4" y="267.8" class="st2" width="25" height="23.9"/>
	<rect x="125.1" y="285.2" class="st1" width="21.5" height="5"/>
</g>
<g>
	<rect x="168.6" y="267.8" class="st2" width="25" height="23.9"/>
	<rect x="170.3" y="285.2" class="st1" width="21.5" height="5"/>
</g>
<g>
	<rect x="213.8" y="267.8" class="st2" width="25" height="23.9"/>
	<rect x="215.5" y="285.2" class="st1" width="21.5" height="5"/>
</g>
<g>
	<rect x="259" y="267.8" class="st2" width="25" height="23.9"/>
	<rect x="260.7" y="285.2" class="st1" width="21.5" height="5"/>
</g>
<g>
	<rect x="304.2" y="267.8" class="st2" width="25" height="23.9"/>
	<rect x="305.9" y="285.2" class="st1" width="21.5" height="5"/>
</g>
<g>
	<rect x="349.4" y="267.8" class="st2" width="25" height="23.9"/>
	<rect x="351.1" y="285.2" class="st1" width="21.5" height="5"/>
</g>
<g>
	<rect x="394.6" y="267.8" class="st2" width="25" height="23.9"/>
	<rect x="396.3" y="285.2" class="st1" width="21.5" height="5"/>
</g>
<g>
	<rect x="439.8" y="267.8" class="st2" width="25" height="23.9"/>
	<rect x="441.5" y="285.2" class="st1" width="21.5" height="5"/>
</g>
<g>
	<rect x="485" y="267.8" class="st2" width="25" height="23.9"/>
	<rect x="486.7" y="285.2" class="st1" width="21.5" height="5"/>
</g>
<g>
	<rect x="530.2" y="267.8" class="st2" width="25" height="23.9"/>
	<rect x="531.9" y="285.2" class="st1" width="21.5" height="5"/>
</g>
<g>
	<rect x="575.4" y="267.8" class="st2" width="25" height="23.9"/>
	<rect x="577.1" y="285.2" class="st1" width="21.5" height="5"/>
</g>
<g>
	<rect x="620.6" y="267.8" class="st2" width="25" height="23.9"/>
	<rect x="622.3" y="285.2" class="st1" width="21.5" height="5"/>
</g>
<g>
	<g>
		<rect x="665.8" y="267.8" class="st2" width="25" height="23.9"/>
	</g>
	<rect x="667.5" y="285.2" class="st1" width="21.5" height="5"/>
</g>
<g>
	<rect x="33" y="310.7" class="st2" width="25" height="23.9"/>
	<rect x="34.7" y="328.1" class="st1" width="21.5" height="5"/>
</g>
<g>
	<rect x="78.2" y="310.7" class="st2" width="25" height="23.9"/>
	<rect x="79.9" y="328.1" class="st1" width="21.5" height="5"/>
</g>
<g>
	<rect x="123.4" y="310.7" class="st2" width="25" height="23.9"/>
	<rect x="125.1" y="328.1" class="st1" width="21.5" height="5"/>
</g>
<g>
	<rect x="168.6" y="310.7" class="st2" width="25" height="23.9"/>
	<rect x="170.3" y="328.1" class="st1" width="21.5" height="5"/>
</g>
<g>
	<rect x="213.8" y="310.7" class="st2" width="25" height="23.9"/>
	<rect x="215.5" y="328.1" class="st1" width="21.5" height="5"/>
</g>
<g>
	<rect x="259" y="310.7" class="st2" width="25" height="23.9"/>
	<rect x="260.7" y="328.1" class="st1" width="21.5" height="5"/>
</g>
<g>
	<rect x="304.2" y="310.7" class="st2" width="25" height="23.9"/>
	<rect x="305.9" y="328.1" class="st1" width="21.5" height="5"/>
</g>
<g>
	<rect x="349.4" y="310.7" class="st2" width="25" height="23.9"/>
	<rect x="351.1" y="328.1" class="st1" width="21.5" height="5"/>
</g>
<rect x="394.6" y="310.7" class="st5" width="25" height="23.9"/>
<g>
	<rect x="439.8" y="310.7" class="st2" width="25" height="23.9"/>
	<rect x="441.5" y="328.1" class="st1" width="21.5" height="5"/>
</g>
<g>
	<rect x="485" y="310.7" class="st2" width="25" height="23.9"/>
	<rect x="486.7" y="328.1" class="st1" width="21.5" height="5"/>
</g>
<g>
	<rect x="530.2" y="310.7" class="st2" width="25" height="23.9"/>
	<rect x="531.9" y="328.1" class="st1" width="21.5" height="5"/>
</g>
<g>
	<rect x="575.4" y="310.7" class="st2" width="25" height="23.9"/>
	<rect x="577.1" y="328.1" class="st1" width="21.5" height="5"/>
</g>
<g>
	<rect x="620.6" y="310.7" class="st2" width="25" height="23.9"/>
	<rect x="622.3" y="328.1" class="st1" width="21.5" height="5"/>
</g>
<g>
	<g>
		<rect x="665.8" y="310.7" class="st2" width="25" height="23.9"/>
	</g>
	<rect x="667.5" y="328.1" class="st1" width="21.5" height="5"/>
</g>
<g>
	<rect x="33" y="353.6" class="st2" width="25" height="23.9"/>
	<rect x="34.7" y="371" class="st1" width="21.5" height="5"/>
</g>
<g>
	<rect x="78.2" y="353.6" class="st2" width="25" height="23.9"/>
	<rect x="79.9" y="371" class="st1" width="21.5" height="5"/>
</g>
<g>
	<rect x="123.4" y="353.6" class="st2" width="25" height="23.9"/>
	<rect x="125.1" y="371" class="st1" width="21.5" height="5"/>
</g>
<g>
	<rect x="168.6" y="353.6" class="st2" width="25" height="23.9"/>
	<rect x="170.3" y="371" class="st1" width="21.5" height="5"/>
</g>
<g>
	<rect x="213.8" y="353.6" class="st2" width="25" height="23.9"/>
	<rect x="215.5" y="371" class="st1" width="21.5" height="5"/>
</g>
<g>
	<rect x="259" y="353.6" class="st2" width="25" height="23.9"/>
	<rect x="260.7" y="371" class="st1" width="21.5" height="5"/>
</g>
<rect x="304.2" y="353.6" class="st5" width="25" height="23.9"/>
<g>
	<rect x="349.4" y="353.6" class="st2" width="25" height="23.9"/>
	<rect x="351.1" y="371" class="st1" width="21.5" height="5"/>
</g>
<g>
	<rect x="394.6" y="353.6" class="st2" width="25" height="23.9"/>
	<rect x="396.3" y="371" class="st1" width="21.5" height="5"/>
</g>
<g>
	<rect x="439.8" y="353.6" class="st2" width="25" height="23.9"/>
	<rect x="441.5" y="371" class="st1" width="21.5" height="5"/>
</g>
<g>
	<rect x="485" y="353.6" class="st2" width="25" height="23.9"/>
	<rect x="486.7" y="371" class="st1" width="21.5" height="5"/>
</g>
<rect x="530.2" y="353.6" class="st5" width="25" height="23.9"/>
<g>
	<rect x="575.4" y="353.6" class="st2" width="25" height="23.9"/>
	<rect x="577.1" y="371" class="st1" width="21.5" height="5"/>
</g>
<g>
	<rect x="620.6" y="353.6" class="st2" width="25" height="23.9"/>
	<rect x="622.3" y="371" class="st1" width="21.5" height="5"/>
</g>
<g>
	<g>
		<rect x="665.8" y="353.6" class="st2" width="25" height="23.9"/>
	</g>
	<rect x="667.5" y="371" class="st1" width="21.5" height="5"/>
</g>
<g>
	<rect x="33" y="396.6" class="st2" width="25" height="23.9"/>
	<rect x="34.7" y="413.9" class="st1" width="21.5" height="5"/>
</g>
<g>
	<rect x="78.2" y="396.6" class="st2" width="25" height="23.9"/>
	<rect x="79.9" y="413.9" class="st1" width="21.5" height="5"/>
</g>
<g>
	<rect x="123.4" y="396.6" class="st2" width="25" height="23.9"/>
	<rect x="125.1" y="413.9" class="st1" width="21.5" height="5"/>
</g>
<g>
	<rect x="168.6" y="396.6" class="st2" width="25" height="23.9"/>
	<rect x="170.3" y="413.9" class="st1" width="21.5" height="5"/>
</g>
<rect x="213.8" y="396.6" class="st5" width="25" height="23.9"/>
<g>
	<rect x="259" y="396.6" class="st2" width="25" height="23.9"/>
	<rect x="260.7" y="413.9" class="st1" width="21.5" height="5"/>
</g>
<g>
	<rect x="304.2" y="396.6" class="st2" width="25" height="23.9"/>
	<rect x="305.9" y="413.9" class="st1" width="21.5" height="5"/>
</g>
<g>
	<rect x="349.4" y="396.6" class="st2" width="25" height="23.9"/>
	<rect x="351.1" y="413.9" class="st1" width="21.5" height="5"/>
</g>
<g>
	<rect x="394.6" y="396.6" class="st2" width="25" height="23.9"/>
	<rect x="396.3" y="413.9" class="st1" width="21.5" height="5"/>
</g>
<rect x="439.8" y="396.6" class="st5" width="25" height="23.9"/>
<g>
	<rect x="485" y="396.6" class="st2" width="25" height="23.9"/>
	<rect x="486.7" y="413.9" class="st1" width="21.5" height="5"/>
</g>
<g>
	<rect x="530.2" y="396.6" class="st2" width="25" height="23.9"/>
	<rect x="531.9" y="413.9" class="st1" width="21.5" height="5"/>
</g>
<g>
	<rect x="575.4" y="396.6" class="st2" width="25" height="23.9"/>
	<rect x="577.1" y="413.9" class="st1" width="21.5" height="5"/>
</g>
<g>
	<rect x="620.6" y="396.6" class="st2" width="25" height="23.9"/>
	<rect x="622.3" y="413.9" class="st1" width="21.5" height="5"/>
</g>
<g>
	<g>
		<rect x="665.8" y="396.6" class="st2" width="25" height="23.9"/>
	</g>
	<rect x="667.5" y="413.9" class="st1" width="21.5" height="5"/>
</g>
<g>
	<rect x="33" y="439.5" class="st2" width="25" height="23.9"/>
	<rect x="34.7" y="456.8" class="st1" width="21.5" height="5"/>
</g>
<g>
	<rect x="78.2" y="439.5" class="st2" width="25" height="23.9"/>
	<rect x="79.9" y="456.8" class="st1" width="21.5" height="5"/>
</g>
<g>
	<rect x="123.4" y="439.5" class="st2" width="25" height="23.9"/>
	<rect x="125.1" y="456.8" class="st1" width="21.5" height="5"/>
</g>
<g>
	<rect x="168.6" y="439.5" class="st2" width="25" height="23.9"/>
	<rect x="170.3" y="456.8" class="st1" width="21.5" height="5"/>
</g>
<g>
	<rect x="213.8" y="439.5" class="st2" width="25" height="23.9"/>
	<rect x="215.5" y="456.8" class="st1" width="21.5" height="5"/>
</g>
<g>
	<rect x="259" y="439.5" class="st2" width="25" height="23.9"/>
	<rect x="260.7" y="456.8" class="st1" width="21.5" height="5"/>
</g>
<g>
	<rect x="304.2" y="439.5" class="st2" width="25" height="23.9"/>
	<rect x="305.9" y="456.8" class="st1" width="21.5" height="5"/>
</g>
<g>
	<rect x="349.4" y="439.5" class="st2" width="25" height="23.9"/>
	<rect x="351.1" y="456.8" class="st1" width="21.5" height="5"/>
</g>
<g>
	<rect x="394.6" y="439.5" class="st2" width="25" height="23.9"/>
	<rect x="396.3" y="456.8" class="st1" width="21.5" height="5"/>
</g>
<g>
	<rect x="439.8" y="439.5" class="st2" width="25" height="23.9"/>
	<rect x="441.5" y="456.8" class="st1" width="21.5" height="5"/>
</g>
<g>
	<rect x="485" y="439.5" class="st2" width="25" height="23.9"/>
	<rect x="486.7" y="456.8" class="st1" width="21.5" height="5"/>
</g>
<g>
	<rect x="530.2" y="439.5" class="st2" width="25" height="23.9"/>
	<rect x="531.9" y="456.8" class="st1" width="21.5" height="5"/>
</g>
<g>
	<rect x="575.4" y="439.5" class="st2" width="25" height="23.9"/>
	<rect x="577.1" y="456.8" class="st1" width="21.5" height="5"/>
</g>
<g>
	<rect x="620.6" y="439.5" class="st2" width="25" height="23.9"/>
	<rect x="622.3" y="456.8" class="st1" width="21.5" height="5"/>
</g>
<g>
	<g>
		<rect x="665.8" y="439.5" class="st2" width="25" height="23.9"/>
	</g>
	<rect x="667.5" y="456.8" class="st1" width="21.5" height="5"/>
</g>
<path class="st6" d="M99,285.2l-9.9-13.3c-0.2-0.3-0.5-0.4-0.8-0.4c0,0,0,0,0,0c-0.3,0-0.6,0.2-0.8,0.4l-5,6.7
	c-0.3,0.5-0.3,1.1,0.2,1.5c0.5,0.3,1.1,0.3,1.5-0.2l4.1-5.6l3.4,4.6l-4.3,6.4c-0.3,0.5-0.2,1.1,0.3,1.5c0.2,0.1,0.4,0.2,0.6,0.2
	c0.3,0,0.7-0.2,0.9-0.5l3.9-5.7l4.3,5.8c0.2,0.3,0.5,0.4,0.9,0.4c0.2,0,0.4-0.1,0.6-0.2C99.2,286.3,99.3,285.7,99,285.2z"/>
<path class="st6" d="M415.4,327.7l-9.9-13.3c-0.2-0.3-0.5-0.4-0.8-0.4c0,0,0,0,0,0c-0.3,0-0.6,0.2-0.8,0.4l-5,6.7
	c-0.3,0.5-0.3,1.1,0.2,1.5c0.5,0.3,1.1,0.3,1.5-0.2l4.1-5.6l3.4,4.6l-4.3,6.4c-0.3,0.5-0.2,1.1,0.3,1.5c0.2,0.1,0.4,0.2,0.6,0.2
	c0.3,0,0.7-0.2,0.9-0.5l3.9-5.7l4.3,5.8c0.2,0.3,0.5,0.4,0.9,0.4c0.2,0,0.4-0.1,0.6-0.2C415.6,328.8,415.7,328.1,415.4,327.7z"/>
<path class="st6" d="M550.9,370.8l-9.9-13.3c-0.2-0.3-0.5-0.4-0.8-0.4c0,0,0,0,0,0c-0.3,0-0.6,0.2-0.8,0.4l-5,6.7
	c-0.3,0.5-0.3,1.1,0.2,1.5c0.5,0.3,1.1,0.3,1.5-0.2l4.1-5.6l3.4,4.6l-4.3,6.4c-0.3,0.5-0.2,1.1,0.3,1.5c0.2,0.1,0.4,0.2,0.6,0.2
	c0.3,0,0.7-0.2,0.9-0.5l3.9-5.7l4.3,5.8c0.2,0.3,0.5,0.4,0.9,0.4c0.2,0,0.4-0.1,0.6-0.2C551.2,372,551.3,371.3,550.9,370.8z"/>
<g>
	<path class="st2" d="M320.3,371v-6.7c0-0.8,0-1.9,0-2.2c-0.1,0.4-0.5,1.3-0.8,2l-3.1,7.2l-3.1-7.2c-0.3-0.7-0.7-1.6-0.8-2
		c0,0.4,0,1.5,0,2.2v6.7h-1.8v-12.7h2l2.9,6.8c0.3,0.7,0.7,1.7,0.9,2.2c0.2-0.5,0.5-1.4,0.9-2.2l2.8-6.8h2V371H320.3z"/>
</g>
<g>
	<g>
		<path class="st4" d="M343.1,105.5c-2.6,0-4.2-2.1-4.2-5.1s1.6-5.1,4.2-5.1c1.6,0,2.7,0.7,3.4,1.9l-1.3,0.8c-0.5-0.8-1-1.2-2.1-1.2
			c-1.7,0-2.7,1.4-2.7,3.6s0.9,3.6,2.7,3.6c1,0,1.7-0.4,2.2-1.2l1.2,0.8C345.8,104.8,344.6,105.5,343.1,105.5z"/>
		<path class="st4" d="M348.6,105.3v-9.9h1.5v8.5h5v1.5H348.6z"/>
		<path class="st4" d="M357.1,105.3v-9.9h1.5v9.9H357.1z"/>
		<path class="st4" d="M361.3,105.3v-9.9h6.4v1.4h-4.9v2.5h2.9v1.4h-2.9v3.1h5.1v1.4H361.3z"/>
		<path class="st4" d="M376.1,105.3l-4-6.2c-0.2-0.4-0.6-1-0.7-1.2c0,0.4,0,1.7,0,2.3v5.2H370v-9.9h1.5l3.8,6.1
			c0.3,0.4,0.7,1.1,0.8,1.4c0-0.4,0-1.8,0-2.3v-5.1h1.4v9.9H376.1z"/>
		<path class="st4" d="M383.9,96.9v8.5h-1.5v-8.5h-2.9v-1.5h7.3v1.5H383.9z"/>
	</g>
</g>
<g>
	<path class="st4" d="M374.7,195.6H372v-9.9h2.7c2.7,0,4.8,1.5,4.8,5C379.5,194.1,377.3,195.6,374.7,195.6z M374.7,187.1h-1.2v7h1.2
		c2.4,0,3.3-1.4,3.3-3.5S377,187.1,374.7,187.1z"/>
	<path class="st4" d="M387.7,195.6l-0.8-2.4h-4l-0.8,2.4h-1.5l3.6-9.9h1.6l3.6,9.9H387.7z M385.6,189.6c-0.2-0.7-0.6-1.9-0.8-2.3
		c-0.1,0.4-0.5,1.6-0.7,2.3l-0.8,2.3h3.1L385.6,189.6z"/>
	<path class="st4" d="M393.7,187.1v8.5h-1.5v-8.5h-2.9v-1.5h7.3v1.5H393.7z"/>
	<path class="st4" d="M403.9,195.6l-0.8-2.4h-4l-0.8,2.4h-1.5l3.6-9.9h1.6l3.6,9.9H403.9z M401.8,189.6c-0.2-0.7-0.6-1.9-0.8-2.3
		c-0.1,0.4-0.5,1.6-0.7,2.3l-0.8,2.3h3.1L401.8,189.6z"/>
</g>
<g>
	<path class="st2" d="M230.9,413.9v-6.7c0-0.8,0-1.9,0-2.2c-0.1,0.4-0.5,1.3-0.8,2l-3.1,7.2l-3.1-7.2c-0.3-0.7-0.7-1.6-0.8-2
		c0,0.4,0,1.5,0,2.2v6.7h-1.8v-12.7h2l2.9,6.8c0.3,0.7,0.7,1.7,0.9,2.2c0.2-0.5,0.5-1.4,0.9-2.2l2.8-6.8h2v12.7H230.9z"/>
</g>
<g>
	<path class="st2" d="M456.4,413.9v-6.7c0-0.8,0-1.9,0-2.2c-0.1,0.4-0.5,1.3-0.8,2l-3.1,7.2l-3.1-7.2c-0.3-0.7-0.7-1.6-0.8-2
		c0,0.4,0,1.5,0,2.2v6.7h-1.8v-12.7h2l2.9,6.8c0.3,0.7,0.7,1.7,0.9,2.2c0.2-0.5,0.5-1.4,0.9-2.2l2.8-6.8h2v12.7H456.4z"/>
</g>
<g>
	<path class="st4" d="M99.6,63.8v-5.3c0-0.6,0-1.5,0-1.7c-0.1,0.3-0.4,1-0.6,1.6L96.6,64l-2.4-5.6c-0.2-0.6-0.5-1.3-0.6-1.6
		c0,0.3,0,1.1,0,1.7v5.3h-1.4v-9.9h1.5l2.2,5.3c0.2,0.6,0.6,1.3,0.7,1.7c0.1-0.4,0.4-1.1,0.7-1.7l2.2-5.3h1.6v9.9H99.6z"/>
	<path class="st4" d="M103.6,63.8v-9.9h6.4v1.4h-4.9v2.5h2.9v1.4h-2.9v3.1h5.1v1.4H103.6z"/>
	<path class="st4" d="M116.1,55.4v8.5h-1.5v-8.5h-2.9v-1.5h7.3v1.5H116.1z"/>
	<path class="st4" d="M126.3,63.8l-0.8-2.4h-4l-0.8,2.4h-1.5l3.6-9.9h1.6l3.6,9.9H126.3z M124.2,57.9c-0.2-0.7-0.6-1.9-0.8-2.3
		c-0.1,0.4-0.5,1.6-0.7,2.3l-0.8,2.3h3.1L124.2,57.9z"/>
	<path class="st4" d="M132.5,63.8h-2.7v-9.9h2.7c2.7,0,4.8,1.5,4.8,5C137.3,62.4,135.1,63.8,132.5,63.8z M132.5,55.4h-1.2v7h1.2
		c2.4,0,3.3-1.4,3.3-3.5S134.9,55.4,132.5,55.4z"/>
	<path class="st4" d="M145.5,63.8l-0.8-2.4h-4l-0.8,2.4h-1.5l3.6-9.9h1.6l3.6,9.9H145.5z M143.4,57.9c-0.2-0.7-0.6-1.9-0.8-2.3
		c-0.1,0.4-0.5,1.6-0.7,2.3l-0.8,2.3h3.1L143.4,57.9z"/>
	<path class="st4" d="M151.6,55.4v8.5h-1.5v-8.5h-2.9v-1.5h7.3v1.5H151.6z"/>
	<path class="st4" d="M161.7,63.8l-0.8-2.4h-4l-0.8,2.4h-1.5l3.6-9.9h1.6l3.6,9.9H161.7z M159.6,57.9c-0.2-0.7-0.6-1.9-0.8-2.3
		c-0.1,0.4-0.5,1.6-0.7,2.3l-0.8,2.3h3.1L159.6,57.9z"/>
</g>
<g>
	<g>
		<path class="st4" d="M344.6,71.8h36.9c1,0,1.9-0.9,1.9-2V48.4c0-1.1-0.8-2-1.9-2h-17.3c0-0.1,0-0.1,0-0.2c0-0.7-0.5-1.2-1.2-1.2
			s-1.2,0.5-1.2,1.2c0,0.1,0,0.1,0,0.2h-17.3c-1,0-1.9,0.9-1.9,2v21.4C342.7,70.9,343.5,71.8,344.6,71.8 M381.4,70.7h-15.5
			c0.4-0.3,0.8-0.6,1.2-1l13.9-12c0,0,0,0,0.1,0c0.4-0.3,0.8-0.7,1.1-1.1v13.2C382.2,70.3,381.8,70.7,381.4,70.7 M370.6,60
			c1.8,0.3,4.3,0.1,6.7-0.6l-8.2,7C370.1,64.4,370.5,62,370.6,60 M343.8,48.4c0-0.5,0.3-0.9,0.7-0.9h36.9c0.4,0,0.7,0.4,0.7,0.9v5.4
			c0,0,0,0,0,0.1c0,1-0.5,1.9-1.4,2.6c0,0,0,0-0.1,0l-0.4,0.3c-2.7,2-7.8,2.5-10.1,2c-0.2,0-0.3,0-0.5,0.1c-0.1,0.1-0.2,0.3-0.2,0.4
			c0,0.1,0,0.3,0,0.6h-5c-0.2,0-0.4,0.2-0.4,0.4c0,0.2,0.2,0.4,0.4,0.4h4.9c-0.1,0.6-0.2,1.4-0.4,2.2h-4.5c-0.2,0-0.4,0.2-0.4,0.4
			c0,0.2,0.2,0.4,0.4,0.4h4.3c-0.2,0.7-0.4,1.5-0.7,2.2h-3.6c-0.2,0-0.4,0.2-0.4,0.4c0,0.2,0.2,0.4,0.4,0.4h3.1
			c-0.4,0.7-0.8,1.4-1.4,2l-0.4,0.3c0,0-0.1,0.1-0.1,0.1c-0.9,0.8-2,1.2-3.3,1.3h-18c-0.4,0-0.7-0.4-0.7-0.9L343.8,48.4L343.8,48.4z
			"/>
		<path class="st4" d="M342.6,77h40.9c0.2,0,0.4-0.2,0.4-0.4c0-0.2-0.2-0.4-0.4-0.4h-40.9c-0.2,0-0.4,0.2-0.4,0.4
			C342.2,76.8,342.4,77,342.6,77"/>
		<path class="st4" d="M338.7,81.7c0,0.2,0.2,0.4,0.4,0.4h47c0.2,0,0.4-0.2,0.4-0.4c0-0.2-0.2-0.4-0.4-0.4h-47
			C338.8,81.3,338.7,81.5,338.7,81.7"/>
		<path class="st4" d="M392.3,83.3l-5.8-7.3c-0.1-0.8-0.5-1.5-1-2c0.6-0.6,1.1-1.4,1.1-2.3V46.3c0-1.7-1.4-3-3-3h-40.9
			c-1.7,0-3,1.4-3,3v25.5c0,0.9,0.4,1.7,1.1,2.3c-0.6,0.5-1,1.2-1,2l-6.3,7.3c-0.1,0.1-0.2,0.3-0.2,0.5c0,2,0.8,3,2.3,3h54.8
			c1.5,0,2.3-1,2.3-3C392.4,83.6,392.4,83.4,392.3,83.3 M341,46.3c0-0.8,0.7-1.5,1.5-1.5h40.9c0.8,0,1.5,0.7,1.5,1.5v25.5
			c0,0.8-0.7,1.5-1.5,1.5h-40.9c-0.8,0-1.5-0.7-1.5-1.5V46.3z M390.2,85.3h-54.8c-0.3,0-0.7,0-0.8-1.3l6.3-7.2
			c0.1-0.1,0.2-0.3,0.2-0.5c0-0.8,0.7-1.5,1.5-1.5h40.9c0.8,0,1.5,0.7,1.5,1.5c0,0.2,0.1,0.3,0.2,0.5l5.8,7.2
			C390.9,85.3,390.5,85.3,390.2,85.3"/>
		<path class="st4" d="M341.2,79.5h43.4c0.2,0,0.4-0.2,0.4-0.4c0-0.2-0.2-0.4-0.4-0.4h-43.4c-0.2,0-0.4,0.2-0.4,0.4
			C340.9,79.4,341,79.5,341.2,79.5"/>
		<path class="st4" d="M349,51.6h12.2c0.2,0,0.4-0.2,0.4-0.4c0-0.2-0.2-0.4-0.4-0.4H349c-0.2,0-0.4,0.2-0.4,0.4
			C348.6,51.4,348.8,51.6,349,51.6"/>
		<path class="st4" d="M349,54.7h12.2c0.2,0,0.4-0.2,0.4-0.4c0-0.2-0.2-0.4-0.4-0.4H349c-0.2,0-0.4,0.2-0.4,0.4S348.8,54.7,349,54.7
			"/>
		<path class="st4" d="M349,57.8h12.2c0.2,0,0.4-0.2,0.4-0.4c0-0.2-0.2-0.4-0.4-0.4H349c-0.2,0-0.4,0.2-0.4,0.4
			C348.6,57.6,348.8,57.8,349,57.8"/>
		<path class="st4" d="M349,60.8h12.2c0.2,0,0.4-0.2,0.4-0.4c0-0.2-0.2-0.4-0.4-0.4H349c-0.2,0-0.4,0.2-0.4,0.4
			C348.6,60.6,348.8,60.8,349,60.8"/>
		<path class="st4" d="M349,63.9h12.2c0.2,0,0.4-0.2,0.4-0.4c0-0.2-0.2-0.4-0.4-0.4H349c-0.2,0-0.4,0.2-0.4,0.4
			C348.6,63.7,348.8,63.9,349,63.9"/>
		<path class="st4" d="M349,67h12.2c0.2,0,0.4-0.2,0.4-0.4c0-0.2-0.2-0.4-0.4-0.4H349c-0.2,0-0.4,0.2-0.4,0.4
			C348.6,66.8,348.8,67,349,67"/>
		<path class="st4" d="M364.6,51.6h12.2c0.2,0,0.4-0.2,0.4-0.4c0-0.2-0.2-0.4-0.4-0.4h-12.2c-0.2,0-0.4,0.2-0.4,0.4
			C364.1,51.4,364.3,51.6,364.6,51.6"/>
		<path class="st4" d="M364.6,54.7h12.2c0.2,0,0.4-0.2,0.4-0.4c0-0.2-0.2-0.4-0.4-0.4h-12.2c-0.2,0-0.4,0.2-0.4,0.4
			S364.3,54.7,364.6,54.7"/>
		<path class="st4" d="M364.6,57.8h12.2c0.2,0,0.4-0.2,0.4-0.4c0-0.2-0.2-0.4-0.4-0.4h-12.2c-0.2,0-0.4,0.2-0.4,0.4
			C364.1,57.6,364.3,57.8,364.6,57.8"/>
	</g>
</g>
<g>
	<g>
		<path class="st2" d="M302.6,495.4l-2-4.1h-2.3v4.1H296v-11.3h5.3c2.1,0,3.9,1.2,3.9,3.6c0,1.7-0.7,2.8-2.2,3.3l2.2,4.4H302.6z
			 M301.2,486.3h-3v2.9h3c1.1,0,1.6-0.5,1.6-1.5C302.8,486.7,302.2,486.3,301.2,486.3z"/>
		<path class="st2" d="M314.8,495.4l-0.9-2.5h-4.1l-0.9,2.5h-2.4l4.3-11.3h2.2l4.3,11.3H314.8z M312.5,488.7
			c-0.2-0.7-0.5-1.3-0.6-1.8c-0.1,0.4-0.3,1.1-0.6,1.8l-0.7,2.1h2.6L312.5,488.7z"/>
		<path class="st2" d="M322.8,495.4h-3.4v-11.3h3.5c3.2,0,5.6,1.5,5.6,5.7C328.6,493.8,325.7,495.4,322.8,495.4z M322.9,486.3h-1.2
			v6.9h1.1c2.4,0,3.5-1.4,3.5-3.5C326.3,487.5,325.3,486.3,322.9,486.3z"/>
		<path class="st2" d="M335.2,495.6c-3.1,0-4.9-2.4-4.9-5.8s1.8-5.8,4.9-5.8s4.9,2.4,4.9,5.8S338.3,495.6,335.2,495.6z M335.2,486.2
			c-1.8,0-2.6,1.6-2.6,3.6c0,2,0.8,3.6,2.6,3.6c1.8,0,2.6-1.6,2.6-3.6C337.8,487.7,337,486.2,335.2,486.2z"/>
		<path class="st2" d="M346.1,495.6c-1.9,0-3.5-0.8-4.4-2.1l1.6-1.5c0.8,0.9,1.8,1.3,2.9,1.3c1.3,0,2-0.4,2-1.2
			c0-0.7-0.4-1.1-2.5-1.5c-2.1-0.5-3.5-1.1-3.5-3.4c0-2.1,1.8-3.3,4-3.3c1.8,0,3.1,0.7,4.1,1.8l-1.6,1.6c-0.7-0.7-1.5-1.2-2.6-1.2
			c-1.2,0-1.6,0.5-1.6,1c0,0.7,0.5,0.9,2.3,1.4c1.8,0.4,3.8,1,3.8,3.5C350.5,494.2,349.2,495.6,346.1,495.6z"/>
		<path class="st2" d="M364.1,487.4c-0.4-0.8-1.1-1.2-2.1-1.2c-1.7,0-2.7,1.5-2.7,3.6c0,2,1,3.6,2.7,3.6c1,0,1.6-0.4,2.2-1.4
			l1.9,1.1c-0.8,1.6-2.1,2.6-4.2,2.6c-3,0-5-2.3-5-5.8c0-3.4,2.1-5.8,5-5.8c2.1,0,3.4,1,4.1,2.5L364.1,487.4z"/>
		<path class="st2" d="M368.5,495.4v-11.3h2.3v9.1h5.7v2.2H368.5z"/>
		<path class="st2" d="M382.4,495.6c-2.7,0-4.6-1.8-4.6-5.1v-6.4h2.3v6.3c0,1.8,0.9,3,2.3,3c1.4,0,2.3-1.1,2.3-2.9v-6.4h2.3v6.3
			C387,493.7,385.3,495.6,382.4,495.6z"/>
		<path class="st2" d="M393.7,495.6c-1.9,0-3.5-0.8-4.4-2.1l1.6-1.5c0.8,0.9,1.8,1.3,2.9,1.3c1.3,0,2-0.4,2-1.2
			c0-0.7-0.4-1.1-2.5-1.5c-2.1-0.5-3.5-1.1-3.5-3.4c0-2.1,1.8-3.3,4-3.3c1.8,0,3.1,0.7,4.1,1.8l-1.6,1.6c-0.7-0.7-1.5-1.2-2.6-1.2
			c-1.2,0-1.6,0.5-1.6,1c0,0.7,0.5,0.9,2.3,1.4c1.8,0.4,3.8,1,3.8,3.5C398.1,494.2,396.8,495.6,393.7,495.6z"/>
		<path class="st2" d="M404.9,486.3v9.1h-2.3v-9.1h-3.3v-2.2h8.8v2.2H404.9z"/>
		<path class="st2" d="M410.3,495.4v-11.3h7.9v2.2h-5.6v2h3.3v2.2h-3.3v2.7h5.8v2.2H410.3z"/>
		<path class="st2" d="M427.4,495.4l-2-4.1h-2.3v4.1h-2.3v-11.3h5.3c2.1,0,3.9,1.2,3.9,3.6c0,1.7-0.7,2.8-2.2,3.3l2.2,4.4H427.4z
			 M426.1,486.3h-3v2.9h3c1.1,0,1.6-0.5,1.6-1.5C427.7,486.7,427.1,486.3,426.1,486.3z"/>
	</g>
</g>
<g>
</g>
</svg>
