<?xml version="1.0" encoding="utf-8"?>
<!-- Generator: Adobe Illustrator 22.0.1, SVG Export Plug-In . SVG Version: 6.00 Build 0)  -->
<svg version="1.1" id="Layer_1" xmlns="http://www.w3.org/2000/svg" xmlns:xlink="http://www.w3.org/1999/xlink" x="0px" y="0px"
	 width="1520px" height="1168px" viewBox="0 0 1520 1168" style="enable-background:new 0 0 1520 1168;" xml:space="preserve">
<style type="text/css">
	.st0{fill:#68AFB6;stroke:#FFFFFF;stroke-width:5;}
	.st1{fill:#EC7A08;}
	.st2{fill:#004153;stroke:#FFFFFF;stroke-width:5;}
	.st3{fill:#D1EDF4;}
	.st4{fill:#FFFFFF;}
	.st5{fill:none;stroke:#FFFFFF;stroke-width:2;stroke-miterlimit:10;}
	.st6{fill:#004153;}
</style>
<rect x="320.8" y="69.8" class="st0" width="1124.5" height="729.1"/>
<rect y="1011.9" class="st1" width="1520" height="156.1"/>
<rect x="173.8" y="147.8" class="st0" width="1212.7" height="729.1"/>
<rect x="71.8" y="222.8" class="st2" width="1257.1" height="729.1"/>
<rect x="124.3" y="557.8" class="st3" width="555.1" height="129"/>
<rect x="721.3" y="557.8" class="st3" width="555.1" height="129"/>
<rect x="124.3" y="731.3" class="st3" width="555.1" height="129"/>
<rect x="721.3" y="731.3" class="st3" width="555.1" height="129"/>
<rect x="124.3" y="327.8" class="st3" width="555.1" height="184.5"/>
<rect x="721.3" y="327.8" class="st3" width="555.1" height="184.5"/>
<rect x="160.6" y="417.8" class="st4" width="482.3" height="64.5"/>
<rect x="757.7" y="417.8" class="st4" width="482.3" height="64.5"/>
<g>
	<g>
		<line class="st5" x1="401.8" y1="512.3" x2="401.8" y2="543.5"/>
		<g>
			<polygon class="st4" points="391.8,540.5 401.8,557.8 411.8,540.5 			"/>
		</g>
	</g>
</g>
<g>
	<g>
		<line class="st5" x1="401.8" y1="686.8" x2="401.8" y2="718"/>
		<g>
			<polygon class="st4" points="391.8,715.1 401.8,732.3 411.8,715.1 			"/>
		</g>
	</g>
</g>
<g>
	<g>
		<line class="st5" x1="998.8" y1="512.3" x2="998.8" y2="543.5"/>
		<g>
			<polygon class="st4" points="988.9,540.5 998.8,557.8 1008.8,540.5 			"/>
		</g>
	</g>
</g>
<g>
	<g>
		<line class="st5" x1="998.8" y1="686.8" x2="998.8" y2="718"/>
		<g>
			<polygon class="st4" points="988.9,715.1 998.8,732.3 1008.8,715.1 			"/>
		</g>
	</g>
</g>
<g>
	<path class="st4" d="M126.4,288.6v-4l9.6-11.5c0.7-0.9,2-2.3,2.6-2.9c-0.9,0-3.2,0.1-4.5,0.1h-7v-4.1h16.9v4l-9.5,11.5
		c-0.7,0.9-2,2.3-2.6,2.9c0.9,0,3.2-0.1,4.5-0.1h7.7v4.1H126.4z"/>
	<path class="st4" d="M156.7,289c-6.1,0-9.7-4.7-9.7-11.6s3.6-11.6,9.7-11.6c6.1,0,9.7,4.7,9.7,11.6S162.8,289,156.7,289z
		 M156.7,270.3c-3.6,0-5.1,3.1-5.1,7.1s1.5,7.1,5.1,7.1s5.1-3.1,5.1-7.1S160.3,270.3,156.7,270.3z"/>
	<path class="st4" d="M185.2,288.6l-8.2-12.2c-0.5-0.8-1.3-2-1.6-2.5c0,0.8,0.1,3.6,0.1,4.9v9.9H171v-22.4h4.3l7.9,11.8
		c0.5,0.8,1.3,2,1.6,2.5c0-0.8-0.1-3.6-0.1-4.9v-9.5h4.4v22.4H185.2z"/>
	<path class="st4" d="M194.9,288.6v-22.4h15.6v4.4h-11.1v3.9h6.4v4.4h-6.4v5.4H211v4.4H194.9z"/>
	<path class="st4" d="M233.6,289c-5.9,0-9.8-4.5-9.8-11.6c0-6.8,4.1-11.6,10-11.6c4.6,0,7,2.1,8.5,5.6l-4.3,1.8
		c-0.8-1.7-1.9-2.9-4.3-2.9c-3.4,0-5.3,2.9-5.3,7.1c0,4.1,2,7.2,5.3,7.2c3.1,0,4.1-1.4,4.4-3.4h-3.6V277h8v2.9
		C242.6,285.7,238.8,289,233.6,289z"/>
	<path class="st4" d="M260.3,288.6l-4-8.1h-4.5v8.1h-4.5v-22.4h10.4c4.2,0,7.7,2.3,7.7,7.1c0,3.4-1.4,5.5-4.3,6.6l4.3,8.7H260.3z
		 M257.7,270.6h-5.9v5.8h5.9c2.1,0,3.2-1,3.2-2.9C260.9,271.4,259.7,270.6,257.7,270.6z"/>
	<path class="st4" d="M278.7,289c-6.1,0-9.7-4.7-9.7-11.6s3.6-11.6,9.7-11.6c6.1,0,9.7,4.7,9.7,11.6S284.9,289,278.7,289z
		 M278.7,270.3c-3.6,0-5.1,3.1-5.1,7.1s1.5,7.1,5.1,7.1s5.1-3.1,5.1-7.1S282.4,270.3,278.7,270.3z"/>
	<path class="st4" d="M301.9,289c-5.4,0-9.1-3.6-9.1-10.2v-12.6h4.5v12.5c0,3.6,1.7,5.9,4.6,5.9c2.8,0,4.6-2.2,4.6-5.8v-12.6h4.5
		v12.5C311,285.2,307.6,289,301.9,289z"/>
	<path class="st4" d="M326,280.7h-4.9v7.9h-4.5v-22.4h9.8c4.2,0,7.7,2.3,7.7,7.1C334.1,278.5,330.7,280.7,326,280.7z M326.3,270.6
		h-5.2v5.8h5.2c2.1,0,3.2-1,3.2-2.9C329.5,271.5,328.3,270.6,326.3,270.6z"/>
	<path class="st4" d="M339.9,277.5c-1.6,0-3-1.4-3-3s1.4-3,3-3s3,1.4,3,3S341.5,277.5,339.9,277.5z M339.9,289c-1.6,0-3-1.4-3-3
		s1.4-3,3-3s3,1.4,3,3S341.5,289,339.9,289z"/>
	<path class="st4" d="M358.6,288.6v-16.2h-3.8v-3.3c2.5-0.1,4.1-1.1,4.6-2.9h3.7v22.4H358.6z"/>
</g>
<g>
	<path class="st4" d="M87.6,1100.4l-4-8.1h-4.5v8.1h-4.5V1078h10.4c4.2,0,7.7,2.3,7.7,7.1c0,3.4-1.4,5.5-4.3,6.6l4.3,8.7H87.6z
		 M85,1082.4h-5.9v5.8H85c2.1,0,3.2-1,3.2-2.9C88.2,1083.2,86.9,1082.4,85,1082.4z"/>
	<path class="st4" d="M97.5,1100.4V1078H113v4.4H102v3.9h6.4v4.4H102v5.4h11.6v4.4H97.5z"/>
	<path class="st4" d="M133.2,1100.4l-1.8-5h-8.2l-1.8,5h-4.8l8.6-22.4h4.4l8.5,22.4H133.2z M128.5,1087.1c-0.4-1.3-0.9-2.7-1.1-3.5
		c-0.2,0.8-0.7,2.2-1.1,3.5l-1.4,4.1h5.1L128.5,1087.1z"/>
	<path class="st4" d="M142.3,1100.4V1078h4.5v18H158v4.4H142.3z"/>
	<path class="st4" d="M178.6,1100.4v-8.2c0-1.2,0.1-4.1,0.1-4.9c-0.3,0.8-1,2.4-1.6,3.7l-4.5,10l-4.5-10c-0.6-1.3-1.2-2.9-1.6-3.7
		c0,0.9,0.1,3.7,0.1,4.9v8.2h-4.4V1078h4.3l4.7,10.1c0.6,1.2,1.2,2.9,1.5,3.7c0.3-0.8,0.9-2.5,1.5-3.7l4.5-10.1h4.4v22.4H178.6z"/>
	<path class="st4" d="M190.3,1089.3c-1.6,0-3-1.4-3-3s1.4-3,3-3s3,1.4,3,3S191.9,1089.3,190.3,1089.3z M190.3,1100.8
		c-1.6,0-3-1.4-3-3s1.4-3,3-3s3,1.4,3,3S191.9,1100.8,190.3,1100.8z"/>
	<path class="st4" d="M221.7,1100.4l-1.8-5h-8.2l-1.8,5h-4.8l8.6-22.4h4.4l8.5,22.4H221.7z M217,1087.1c-0.4-1.3-0.9-2.7-1.1-3.5
		c-0.2,0.8-0.7,2.2-1.1,3.5l-1.4,4.1h5.1L217,1087.1z"/>
</g>
<g>
	<path class="st6" d="M177,380.6v-6.9c0-1,0.1-3.4,0.1-4.2c-0.3,0.7-0.8,2.1-1.3,3.1l-3.8,8.4l-3.8-8.4c-0.5-1.1-1.1-2.4-1.3-3.1
		c0,0.7,0.1,3.1,0.1,4.2v6.9h-3.7v-18.9h3.6l3.9,8.6c0.5,1.1,1.1,2.5,1.3,3.2c0.2-0.7,0.8-2.1,1.3-3.2l3.8-8.6h3.7v18.9H177z"/>
	<path class="st6" d="M192.8,380.6v-0.9c-0.7,0.7-1.9,1.2-3.2,1.2c-2.6,0-5.3-1.6-5.3-5c0-3.1,2.5-4.7,5.7-4.7
		c1.3,0,2.1,0.3,2.7,0.6V371c0-1-0.7-1.8-2-1.8c-1.7,0-2.6,0.2-3.9,0.9l-1.4-2.6c1.6-0.9,3-1.4,5.3-1.4c3.4,0,5.7,1.8,5.7,5v9.5
		H192.8z M192.8,374.6c-0.6-0.4-1.3-0.6-2.6-0.6c-1.4,0-2.2,0.6-2.2,1.8c0,1,0.6,1.9,2.2,1.9c1.2,0,2.2-0.6,2.6-1.3V374.6z"/>
	<path class="st6" d="M205.4,380.9c-2.2,0-4.4-0.6-5.9-1.6l1.2-2.8c1.5,0.8,3.1,1.3,4.9,1.3c1.5,0,1.9-0.4,1.9-1.1
		c0-0.6-0.5-1-2.1-1.4c-3.4-1-5.6-1.9-5.6-4.9c0-2.9,2.3-4.2,5.7-4.2c1.8,0,3.7,0.5,5.2,1.4l-1.2,2.9c-1.4-0.8-2.9-1.1-4.1-1.1
		c-1.5,0-1.9,0.3-1.9,0.9c0,0.6,0.4,0.8,2.9,1.6c2.5,0.8,4.7,1.8,4.7,4.6C211.2,379.7,208.6,380.9,205.4,380.9z"/>
	<path class="st6" d="M222.1,380c-0.6,0.5-1.7,0.9-2.9,0.9c-2.3,0-3.8-1.8-3.8-4.3v-6.7h-2.4v-3.5h2.4v-3.6l3.7-1.9v5.5h3.4v3.5
		h-3.4v5.7c0,1.3,0.5,1.7,1.4,1.7c0.7,0,1.2-0.3,2.1-1.1L222.1,380z"/>
	<path class="st6" d="M237.1,374.7h-8.5c0.1,1.9,1.6,2.7,2.9,2.7c1,0,1.9-0.4,2.4-1l2.6,2.2c-1.1,1.5-3.2,2.3-5.1,2.3
		c-4.1,0-6.7-2.9-6.7-7.4c0-4.3,2.7-7.4,6.3-7.4c3.8,0,6,3.3,6,7.4C237.1,374,237.1,374.4,237.1,374.7z M231,369.4
		c-1.3,0-2.2,1.1-2.3,2.5h4.9C233.4,370.6,232.7,369.4,231,369.4z"/>
	<path class="st6" d="M248.4,370.8c-0.6-0.5-1.3-0.9-2.2-0.9c-1.5,0-2.4,0.6-2.4,3.1v7.7h-3.7v-14.2h3.7v0.9
		c0.6-0.7,1.6-1.2,2.9-1.2c1.2,0,2.1,0.5,2.6,1L248.4,370.8z"/>
	<path class="st6" d="M259.5,380.6v-3.3l8.1-9.7c0.6-0.7,1.7-2,2.2-2.5c-0.8,0-2.7,0.1-3.8,0.1h-5.9v-3.5h14.2v3.3l-8,9.7
		c-0.6,0.7-1.7,2-2.2,2.5c0.8,0,2.7-0.1,3.8-0.1h6.5v3.5H259.5z"/>
	<path class="st6" d="M282.7,380.9c-3.7,0-6.4-3-6.4-7.4c0-4.3,2.7-7.4,6.4-7.4c3.7,0,6.4,3.1,6.4,7.4
		C289.2,377.9,286.4,380.9,282.7,380.9z M282.7,369.7c-1.8,0-2.6,1.6-2.6,3.8c0,2.2,0.8,3.8,2.6,3.8c1.8,0,2.6-1.8,2.6-3.8
		C285.4,371.3,284.5,369.7,282.7,369.7z"/>
	<path class="st6" d="M300.6,380.6v-7.7c0-2.5-0.9-3.3-2.4-3.3s-2.4,0.8-2.4,3.2v7.7h-3.7v-14.2h3.7v0.9c0.6-0.7,1.8-1.2,3.3-1.2
		c3.6,0,5.2,2.5,5.2,6.5v8H300.6z"/>
	<path class="st6" d="M319.3,374.7h-8.5c0.1,1.9,1.6,2.7,2.9,2.7c1,0,1.9-0.4,2.4-1l2.6,2.2c-1.1,1.5-3.2,2.3-5.1,2.3
		c-4.1,0-6.7-2.9-6.7-7.4c0-4.3,2.7-7.4,6.3-7.4c3.8,0,6,3.3,6,7.4C319.4,374,319.3,374.4,319.3,374.7z M313.2,369.4
		c-1.3,0-2.2,1.1-2.3,2.5h4.9C315.6,370.6,314.9,369.4,313.2,369.4z"/>
	<path class="st6" d="M324.2,371.2c-1.4,0-2.5-1.2-2.5-2.5c0-1.4,1.2-2.5,2.5-2.5c1.4,0,2.5,1.2,2.5,2.5
		C326.7,370,325.6,371.2,324.2,371.2z M324.2,380.9c-1.4,0-2.5-1.2-2.5-2.5c0-1.4,1.2-2.5,2.5-2.5c1.4,0,2.5,1.2,2.5,2.5
		C326.7,379.7,325.6,380.9,324.2,380.9z"/>
	<path class="st6" d="M350.7,380.6l-1.5-4.2h-6.9l-1.5,4.2h-4l7.2-18.9h3.7l7.2,18.9H350.7z M346.7,369.4c-0.4-1.1-0.8-2.2-0.9-2.9
		c-0.2,0.7-0.6,1.8-0.9,2.9l-1.2,3.4h4.3L346.7,369.4z"/>
</g>
<g>
	<path class="st6" d="M289.4,458.6c-5.2,0-8.2-4-8.2-9.7c0-5.7,3.1-9.7,8.2-9.7c5.2,0,8.2,4,8.2,9.7
		C297.6,454.6,294.5,458.6,289.4,458.6z M289.4,442.8c-3,0-4.3,2.6-4.3,6c0,3.4,1.3,6,4.3,6c3.1,0,4.3-2.6,4.3-6
		C293.7,445.4,292.4,442.8,289.4,442.8z"/>
	<path class="st6" d="M310,458.3h-8.6v-18.9h8.7c3.7,0,6,1.8,6,5c0,1.6-0.8,2.9-2,3.7c1.5,0.7,2.6,2.1,2.6,4.1
		C316.8,456.1,314.1,458.3,310,458.3z M310,442.9h-4.8v3.6h5c1.6,0,2.1-0.7,2.1-1.8C312.3,443.5,311.6,442.9,310,442.9z
		 M310.2,449.8h-5v4.9h5c1.8,0,2.7-1,2.7-2.5C312.9,450.6,312,449.8,310.2,449.8z"/>
	<path class="st6" d="M326.3,458.6c-3.8,0-6.3-2.3-7.2-5.6l3.7-1c0.7,1.9,1.7,2.8,3.5,2.8c2.3,0,3.4-1.5,3.4-4.3v-11.1h3.8v11
		C333.5,455.3,331.2,458.6,326.3,458.6z"/>
	<path class="st6" d="M338.2,458.3v-18.9h13.1v3.7H342v3.3h5.4v3.7H342v4.6h9.7v3.7H338.2z"/>
	<path class="st6" d="M365.6,444.9c-0.7-1.3-1.8-2.1-3.5-2.1c-2.8,0-4.5,2.5-4.5,6c0,3.4,1.6,6,4.5,6c1.7,0,2.7-0.7,3.7-2.4l3.2,1.9
		c-1.3,2.7-3.6,4.3-7,4.3c-4.9,0-8.3-3.8-8.3-9.7c0-5.7,3.5-9.7,8.4-9.7c3.6,0,5.7,1.7,6.9,4.2L365.6,444.9z"/>
	<path class="st6" d="M380.5,443.1v15.2h-3.8v-15.2h-5.4v-3.7h14.6v3.7H380.5z"/>
	<path class="st6" d="M404.7,458.6c-4.9,0-8.3-3.8-8.3-9.7c0-5.7,3.5-9.7,8.4-9.7c3.9,0,5.9,1.8,7.2,4.7l-3.6,1.5
		c-0.7-1.4-1.6-2.5-3.6-2.5c-2.8,0-4.5,2.5-4.5,6c0,3.5,1.6,6,4.5,6c2.6,0,3.5-1.2,3.7-2.9h-3v-3.5h6.8v2.5
		C412.3,455.8,409.1,458.6,404.7,458.6z"/>
	<path class="st6" d="M428.4,458.3l-1.5-4.2h-6.9l-1.5,4.2h-4l7.2-18.9h3.7l7.2,18.9H428.4z M424.5,447c-0.4-1.1-0.8-2.2-0.9-2.9
		c-0.2,0.7-0.6,1.8-0.9,2.9l-1.2,3.4h4.3L424.5,447z"/>
	<path class="st6" d="M441.5,443.1v15.2h-3.8v-15.2h-5.4v-3.7H447v3.7H441.5z"/>
	<path class="st6" d="M450.6,458.3v-18.9h13.1v3.7h-9.3v3.3h5.4v3.7h-5.4v4.6h9.7v3.7H450.6z"/>
	<path class="st6" d="M484,458.3h-3.7l-2.3-9.7c-0.3-1.1-0.5-2.5-0.6-3.2c-0.1,0.7-0.4,2.1-0.6,3.2l-2.4,9.7h-3.5l-3.9-18.9h3.9
		l1.6,9.2c0.2,0.9,0.4,2.3,0.5,3.1c0.1-0.8,0.4-2.2,0.6-3.1l2.2-9.2h3.3l2.2,9.2c0.2,0.9,0.5,2.3,0.6,3.1c0.1-0.8,0.3-2.2,0.5-3.1
		l1.6-9.2h3.9L484,458.3z"/>
	<path class="st6" d="M502.4,458.3l-1.5-4.2H494l-1.5,4.2h-4l7.2-18.9h3.7l7.2,18.9H502.4z M498.4,447c-0.4-1.1-0.8-2.2-0.9-2.9
		c-0.2,0.7-0.6,1.8-0.9,2.9l-1.2,3.4h4.3L498.4,447z"/>
	<path class="st6" d="M516.1,450.8v7.5h-3.8v-7.4l-7.2-11.5h4.3l2.7,4.5c0.7,1.1,1.7,3,2.1,3.7c0.4-0.7,1.3-2.5,2.1-3.7l2.7-4.5h4.3
		L516.1,450.8z"/>
</g>
<g>
	<path class="st6" d="M886.5,458.6c-5.2,0-8.2-4-8.2-9.7c0-5.7,3-9.7,8.2-9.7c5.2,0,8.2,4,8.2,9.7
		C894.7,454.6,891.6,458.6,886.5,458.6z M886.5,442.8c-3,0-4.3,2.6-4.3,6c0,3.4,1.3,6,4.3,6c3.1,0,4.3-2.6,4.3-6
		C890.8,445.4,889.5,442.8,886.5,442.8z"/>
	<path class="st6" d="M907.1,458.3h-8.6v-18.9h8.7c3.7,0,6,1.8,6,5c0,1.6-0.8,2.9-2,3.7c1.5,0.7,2.6,2.1,2.6,4.1
		C913.8,456.1,911.2,458.3,907.1,458.3z M907,442.9h-4.8v3.6h5c1.6,0,2.1-0.7,2.1-1.8C909.3,443.5,908.7,442.9,907,442.9z
		 M907.2,449.8h-5v4.9h5c1.8,0,2.7-1,2.7-2.5C909.9,450.6,909.1,449.8,907.2,449.8z"/>
	<path class="st6" d="M923.4,458.6c-3.8,0-6.3-2.3-7.2-5.6l3.7-1c0.7,1.9,1.7,2.8,3.5,2.8c2.3,0,3.4-1.5,3.4-4.3v-11.1h3.8v11
		C930.5,455.3,928.3,458.6,923.4,458.6z"/>
	<path class="st6" d="M935.2,458.3v-18.9h13.1v3.7H939v3.3h5.4v3.7H939v4.6h9.7v3.7H935.2z"/>
	<path class="st6" d="M962.7,444.9c-0.7-1.3-1.8-2.1-3.5-2.1c-2.8,0-4.5,2.5-4.5,6c0,3.4,1.6,6,4.5,6c1.7,0,2.7-0.7,3.7-2.4l3.2,1.9
		c-1.3,2.7-3.6,4.3-7,4.3c-4.9,0-8.3-3.8-8.3-9.7c0-5.7,3.5-9.7,8.4-9.7c3.6,0,5.7,1.7,6.9,4.2L962.7,444.9z"/>
	<path class="st6" d="M977.6,443.1v15.2h-3.8v-15.2h-5.4v-3.7H983v3.7H977.6z"/>
	<path class="st6" d="M1001.7,458.6c-4.9,0-8.3-3.8-8.3-9.7c0-5.7,3.5-9.7,8.4-9.7c3.9,0,5.9,1.8,7.2,4.7l-3.6,1.5
		c-0.7-1.4-1.6-2.5-3.6-2.5c-2.8,0-4.5,2.5-4.5,6c0,3.5,1.6,6,4.5,6c2.6,0,3.5-1.2,3.7-2.9h-3v-3.5h6.8v2.5
		C1009.3,455.8,1006.1,458.6,1001.7,458.6z"/>
	<path class="st6" d="M1025.5,458.3l-1.5-4.2h-6.9l-1.5,4.2h-4l7.2-18.9h3.7l7.2,18.9H1025.5z M1021.5,447c-0.4-1.1-0.8-2.2-0.9-2.9
		c-0.2,0.7-0.6,1.8-0.9,2.9l-1.2,3.4h4.3L1021.5,447z"/>
	<path class="st6" d="M1038.6,443.1v15.2h-3.8v-15.2h-5.4v-3.7h14.6v3.7H1038.6z"/>
	<path class="st6" d="M1047.7,458.3v-18.9h13.1v3.7h-9.3v3.3h5.4v3.7h-5.4v4.6h9.7v3.7H1047.7z"/>
	<path class="st6" d="M1081,458.3h-3.7l-2.3-9.7c-0.3-1.1-0.5-2.5-0.6-3.2c-0.1,0.7-0.4,2.1-0.6,3.2l-2.4,9.7h-3.5l-3.9-18.9h3.9
		l1.6,9.2c0.2,0.9,0.4,2.3,0.5,3.1c0.1-0.8,0.4-2.2,0.6-3.1l2.2-9.2h3.3l2.2,9.2c0.2,0.9,0.5,2.3,0.6,3.1c0.1-0.8,0.3-2.2,0.5-3.1
		l1.6-9.2h3.9L1081,458.3z"/>
	<path class="st6" d="M1099.5,458.3l-1.5-4.2h-6.9l-1.5,4.2h-4l7.2-18.9h3.7l7.2,18.9H1099.5z M1095.5,447c-0.4-1.1-0.8-2.2-0.9-2.9
		c-0.2,0.7-0.6,1.8-0.9,2.9l-1.2,3.4h4.3L1095.5,447z"/>
	<path class="st6" d="M1113.1,450.8v7.5h-3.8v-7.4l-7.2-11.5h4.3l2.7,4.5c0.7,1.1,1.7,3,2.1,3.7c0.4-0.7,1.3-2.5,2.1-3.7l2.7-4.5
		h4.3L1113.1,450.8z"/>
</g>
<g>
	<path class="st6" d="M363.5,662.4v-10c0-1.1,0-2.8,0.1-3.3c-0.2,0.5-0.8,1.9-1.2,3l-4.6,10.6l-4.5-10.6c-0.5-1.1-1-2.4-1.2-3
		c0,0.5,0.1,2.2,0.1,3.3v10h-2.7v-18.9h2.9l4.2,10.1c0.5,1.1,1.1,2.5,1.3,3.2c0.3-0.8,0.8-2.1,1.3-3.2l4.2-10.1h3v18.9H363.5z"/>
	<path class="st6" d="M376.4,662.7c-3.6,0-6.2-2.9-6.2-7.4c0-4.6,2.8-7.4,6.3-7.4c3.6,0,6.3,2.9,6.3,7.3
		C382.8,660,380,662.7,376.4,662.7z M376.3,650.6c-2.1,0-3.4,1.9-3.4,4.7c0,3.1,1.4,4.8,3.5,4.8s3.5-2.1,3.5-4.7
		C380,652.5,378.6,650.6,376.3,650.6z"/>
	<path class="st6" d="M394.8,662.4v-8c0-2.9-1.1-3.9-2.9-3.9c-1.9,0-2.9,1.3-2.9,3.6v8.3h-2.8v-14.2h2.8v1.3c0.7-1,2.1-1.6,3.6-1.6
		c3.3,0,5,2.2,5,6.3v8.1H394.8z"/>
	<path class="st6" d="M403.1,646.4c-1,0-1.8-0.8-1.8-1.8c0-1,0.8-1.8,1.8-1.8c1,0,1.8,0.8,1.8,1.8
		C404.9,645.6,404.1,646.4,403.1,646.4z M401.7,662.4v-14.2h2.8v14.2H401.7z"/>
	<path class="st6" d="M415.5,662.1c-0.7,0.4-1.6,0.6-2.7,0.6c-2,0-3.2-1.2-3.2-3.8v-8.2h-2v-2.5h2v-4l2.7-1.5v5.5h3.5v2.5h-3.5v7.7
		c0,1.3,0.4,1.7,1.5,1.7c0.7,0,1.5-0.3,2.1-0.6L415.5,662.1z"/>
	<path class="st6" d="M424.6,662.7c-3.6,0-6.2-2.9-6.2-7.4c0-4.6,2.8-7.4,6.3-7.4c3.6,0,6.3,2.9,6.3,7.3
		C431,660,428.3,662.7,424.6,662.7z M424.6,650.6c-2.1,0-3.4,1.9-3.4,4.7c0,3.1,1.4,4.8,3.5,4.8c2.1,0,3.5-2.1,3.5-4.7
		C428.2,652.5,426.8,650.6,424.6,650.6z"/>
	<path class="st6" d="M442.2,651.2c-0.6-0.3-1.2-0.5-2.1-0.5c-1.8,0-2.8,1.2-2.8,3.6v8.1h-2.8v-14.2h2.8v1.3
		c0.6-0.9,1.8-1.6,3.2-1.6c1.1,0,1.8,0.2,2.4,0.6L442.2,651.2z"/>
	<path class="st6" d="M449.8,662.7c-1.9,0-4-0.8-5.4-1.8l1.3-2.1c1.3,0.9,2.8,1.4,4.1,1.4c1.8,0,2.6-0.6,2.6-1.6
		c0-1.1-1.2-1.6-3.3-2.4c-3.1-1.2-4.2-2.2-4.2-4.5c0-2.5,2-3.9,4.8-3.9c1.8,0,3.5,0.6,4.8,1.6l-1.2,2.1c-1.2-0.8-2.3-1.2-3.7-1.2
		s-1.9,0.5-1.9,1.3c0,0.7,0.5,1.2,2.6,2.1c3.2,1.2,4.8,2.1,4.8,4.8C455.1,661.7,452.6,662.7,449.8,662.7z"/>
</g>
<g>
	<path class="st6" d="M960.6,662.4v-10c0-1.1,0-2.8,0.1-3.3c-0.2,0.5-0.8,1.9-1.2,3l-4.6,10.6l-4.5-10.6c-0.5-1.1-1-2.4-1.2-3
		c0,0.5,0.1,2.2,0.1,3.3v10h-2.7v-18.9h2.9l4.2,10.1c0.5,1.1,1.1,2.5,1.3,3.2c0.3-0.8,0.8-2.1,1.3-3.2l4.2-10.1h3v18.9H960.6z"/>
	<path class="st6" d="M973.4,662.7c-3.6,0-6.2-2.9-6.2-7.4c0-4.6,2.8-7.4,6.3-7.4c3.6,0,6.3,2.9,6.3,7.3
		C979.8,660,977.1,662.7,973.4,662.7z M973.4,650.6c-2.1,0-3.4,1.9-3.4,4.7c0,3.1,1.4,4.8,3.5,4.8s3.5-2.1,3.5-4.7
		C977,652.5,975.6,650.6,973.4,650.6z"/>
	<path class="st6" d="M991.9,662.4v-8c0-2.9-1.1-3.9-2.9-3.9c-1.9,0-2.9,1.3-2.9,3.6v8.3h-2.8v-14.2h2.8v1.3c0.7-1,2.1-1.6,3.6-1.6
		c3.3,0,5,2.2,5,6.3v8.1H991.9z"/>
	<path class="st6" d="M1000.2,646.4c-1,0-1.8-0.8-1.8-1.8c0-1,0.8-1.8,1.8-1.8c1,0,1.8,0.8,1.8,1.8
		C1002,645.6,1001.2,646.4,1000.2,646.4z M998.8,662.4v-14.2h2.8v14.2H998.8z"/>
	<path class="st6" d="M1012.6,662.1c-0.7,0.4-1.6,0.6-2.7,0.6c-2,0-3.2-1.2-3.2-3.8v-8.2h-2v-2.5h2v-4l2.7-1.5v5.5h3.5v2.5h-3.5v7.7
		c0,1.3,0.4,1.7,1.5,1.7c0.7,0,1.5-0.3,2.1-0.6L1012.6,662.1z"/>
	<path class="st6" d="M1021.7,662.7c-3.6,0-6.2-2.9-6.2-7.4c0-4.6,2.8-7.4,6.3-7.4c3.6,0,6.3,2.9,6.3,7.3
		C1028.1,660,1025.3,662.7,1021.7,662.7z M1021.7,650.6c-2.1,0-3.4,1.9-3.4,4.7c0,3.1,1.4,4.8,3.5,4.8s3.5-2.1,3.5-4.7
		C1025.3,652.5,1023.9,650.6,1021.7,650.6z"/>
	<path class="st6" d="M1039.2,651.2c-0.6-0.3-1.2-0.5-2.1-0.5c-1.8,0-2.8,1.2-2.8,3.6v8.1h-2.8v-14.2h2.8v1.3
		c0.6-0.9,1.8-1.6,3.2-1.6c1.1,0,1.8,0.2,2.4,0.6L1039.2,651.2z"/>
	<path class="st6" d="M1046.9,662.7c-1.9,0-4-0.8-5.4-1.8l1.3-2.1c1.3,0.9,2.8,1.4,4.1,1.4c1.8,0,2.6-0.6,2.6-1.6
		c0-1.1-1.2-1.6-3.3-2.4c-3.1-1.2-4.2-2.2-4.2-4.5c0-2.5,2-3.9,4.8-3.9c1.8,0,3.5,0.6,4.8,1.6l-1.2,2.1c-1.2-0.8-2.3-1.2-3.7-1.2
		s-1.9,0.5-1.9,1.3c0,0.7,0.5,1.2,2.6,2.1c3.2,1.2,4.8,2.1,4.8,4.8C1052.2,661.7,1049.6,662.7,1046.9,662.7z"/>
</g>
<g>
	<path class="st6" d="M377.6,837.5c-4.9,0-8-4-8-9.7s3.1-9.7,8-9.7c4.9,0,8,4,8,9.7S382.5,837.5,377.6,837.5z M377.6,820.9
		c-3.3,0-5.1,2.7-5.1,6.9s1.8,6.9,5.1,6.9c3.3,0,5.1-2.7,5.1-6.9S380.9,820.9,377.6,820.9z"/>
	<path class="st6" d="M394.9,837.5c-2.8,0-5.1-1.2-6.7-3l2-2c1.3,1.4,3.1,2.2,4.9,2.2c2.6,0,3.9-0.9,3.9-2.8c0-1.5-1.1-2.2-4.3-3.1
		c-4-1.2-5.9-2.2-5.9-5.6c0-3.3,2.8-5.3,6.2-5.3c2.6,0,4.5,0.9,6.2,2.6l-2,2c-1.2-1.2-2.5-1.8-4.4-1.8c-2.2,0-3.2,1.1-3.2,2.3
		c0,1.3,0.9,2,4.1,2.9c3.7,1.1,6,2.3,6,5.7C401.9,835.2,399.8,837.5,394.9,837.5z"/>
	<path class="st6" d="M411.3,837.2h-5.2v-18.9h5.2c5.1,0,9.2,2.8,9.2,9.4S416.3,837.2,411.3,837.2z M411.3,821.1H409v13.4h2.3
		c4.5,0,6.3-2.7,6.3-6.7S415.8,821.1,411.3,821.1z"/>
	<path class="st6" d="M428.7,837.5c-1.9,0-4-0.8-5.4-1.8l1.3-2.1c1.3,0.9,2.8,1.4,4.1,1.4c1.8,0,2.6-0.6,2.6-1.6
		c0-1.1-1.2-1.6-3.3-2.4c-3.1-1.2-4.2-2.2-4.2-4.5c0-2.5,2-3.9,4.8-3.9c1.8,0,3.5,0.6,4.8,1.6l-1.2,2.1c-1.2-0.8-2.3-1.2-3.7-1.2
		s-1.9,0.5-1.9,1.3c0,0.7,0.5,1.2,2.6,2.1c3.2,1.2,4.8,2.1,4.8,4.8C434,836.5,431.5,837.5,428.7,837.5z"/>
</g>
<g>
	<path class="st6" d="M974.7,837.5c-4.9,0-8-4-8-9.7s3.1-9.7,8-9.7c4.9,0,8,4,8,9.7S979.6,837.5,974.7,837.5z M974.7,820.9
		c-3.3,0-5.1,2.7-5.1,6.9s1.8,6.9,5.1,6.9c3.3,0,5.1-2.7,5.1-6.9S978,820.9,974.7,820.9z"/>
	<path class="st6" d="M992,837.5c-2.8,0-5.1-1.2-6.7-3l2-2c1.3,1.4,3.1,2.2,4.9,2.2c2.6,0,3.9-0.9,3.9-2.8c0-1.5-1.1-2.2-4.3-3.1
		c-4-1.2-5.9-2.2-5.9-5.6c0-3.3,2.8-5.3,6.2-5.3c2.6,0,4.5,0.9,6.2,2.6l-2,2c-1.2-1.2-2.5-1.8-4.4-1.8c-2.2,0-3.2,1.1-3.2,2.3
		c0,1.3,0.9,2,4.1,2.9c3.7,1.1,6,2.3,6,5.7C999,835.2,996.8,837.5,992,837.5z"/>
	<path class="st6" d="M1008.4,837.2h-5.2v-18.9h5.2c5.1,0,9.2,2.8,9.2,9.4S1013.3,837.2,1008.4,837.2z M1008.4,821.1h-2.3v13.4h2.3
		c4.5,0,6.3-2.7,6.3-6.7S1012.9,821.1,1008.4,821.1z"/>
	<path class="st6" d="M1025.7,837.5c-1.9,0-4-0.8-5.4-1.8l1.3-2.1c1.3,0.9,2.8,1.4,4.1,1.4c1.8,0,2.6-0.6,2.6-1.6
		c0-1.1-1.2-1.6-3.3-2.4c-3-1.2-4.2-2.2-4.2-4.5c0-2.5,2-3.9,4.8-3.9c1.8,0,3.5,0.6,4.8,1.6l-1.2,2.1c-1.2-0.8-2.3-1.2-3.7-1.2
		s-1.9,0.5-1.9,1.3c0,0.7,0.5,1.2,2.6,2.1c3.2,1.2,4.8,2.1,4.8,4.8C1031.1,836.5,1028.5,837.5,1025.7,837.5z"/>
</g>
<g>
	<path class="st6" d="M766.5,380.9c-3.2,0-5.9-1.3-7.3-3.4l2.7-2.4c1.3,1.5,3,2.2,4.8,2.2c2.2,0,3.3-0.6,3.3-2.1
		c0-1.2-0.6-1.8-4.2-2.6c-3.5-0.8-5.9-1.9-5.9-5.6c0-3.4,3-5.5,6.7-5.5c2.9,0,5.1,1.1,6.9,3l-2.7,2.6c-1.2-1.2-2.6-1.9-4.3-1.9
		c-2,0-2.7,0.9-2.7,1.7c0,1.2,0.8,1.6,3.8,2.3c3,0.7,6.3,1.7,6.3,5.8C774,378.4,771.7,380.9,766.5,380.9z"/>
	<path class="st6" d="M788.6,374.7h-8.5c0.1,1.9,1.6,2.7,2.9,2.7c1,0,1.9-0.4,2.4-1l2.6,2.2c-1.1,1.5-3.2,2.3-5.1,2.3
		c-4.1,0-6.7-2.9-6.7-7.4c0-4.3,2.7-7.4,6.3-7.4c3.8,0,6,3.3,6,7.4C788.6,374,788.6,374.4,788.6,374.7z M782.5,369.4
		c-1.3,0-2.2,1.1-2.3,2.5h4.9C784.9,370.6,784.1,369.4,782.5,369.4z"/>
	<path class="st6" d="M797.5,380.9c-3.7,0-6.6-3-6.6-7.4c0-4.3,2.9-7.4,6.8-7.4c2.7,0,4.4,1.3,5.6,3.1l-2.5,2.5
		c-0.8-1.2-1.7-2-3.2-2c-1.8,0-2.9,1.5-2.9,3.8c0,2.3,1.2,3.8,2.9,3.8c1.5,0,2.4-0.6,3.3-1.8l2.4,2.2
		C801.9,379.6,800.3,380.9,797.5,380.9z"/>
	<path class="st6" d="M811.4,380.9c-3.7,0-6.4-3-6.4-7.4c0-4.3,2.7-7.4,6.4-7.4c3.7,0,6.4,3.1,6.4,7.4
		C817.9,377.9,815.1,380.9,811.4,380.9z M811.4,369.7c-1.8,0-2.6,1.6-2.6,3.8c0,2.2,0.8,3.8,2.6,3.8c1.8,0,2.6-1.8,2.6-3.8
		C814.1,371.3,813.2,369.7,811.4,369.7z"/>
	<path class="st6" d="M829.3,380.6v-7.7c0-2.5-0.9-3.3-2.4-3.3c-1.5,0-2.4,0.8-2.4,3.2v7.7h-3.7v-14.2h3.7v0.9
		c0.6-0.7,1.8-1.2,3.3-1.2c3.6,0,5.2,2.5,5.2,6.5v8H829.3z"/>
	<path class="st6" d="M844.3,380.6v-0.9c-0.7,0.6-1.6,1.2-3,1.2c-3,0-5.5-2.3-5.5-7.6c0-4.2,2-7.2,5.5-7.2c1.2,0,2.3,0.5,3,1.1v-4.5
		l3.7-1.9v19.7H844.3z M844.3,370.8c-0.6-0.8-1.4-1.2-2.5-1.2c-1.4,0-2.2,1.2-2.2,3.6c0,2.9,1,4.1,2.4,4.1c1.2,0,1.8-0.5,2.3-1.2
		V370.8z"/>
	<path class="st6" d="M859.5,380.6v-0.9c-0.7,0.7-1.9,1.2-3.2,1.2c-2.6,0-5.3-1.6-5.3-5c0-3.1,2.5-4.7,5.7-4.7
		c1.3,0,2.1,0.3,2.7,0.6V371c0-1-0.7-1.8-2-1.8c-1.7,0-2.6,0.2-3.9,0.9l-1.4-2.6c1.6-0.9,3-1.4,5.3-1.4c3.4,0,5.7,1.8,5.7,5v9.5
		H859.5z M859.5,374.6c-0.6-0.4-1.3-0.6-2.6-0.6c-1.4,0-2.2,0.6-2.2,1.8c0,1,0.6,1.9,2.2,1.9c1.2,0,2.2-0.6,2.6-1.3V374.6z"/>
	<path class="st6" d="M875,370.8c-0.6-0.5-1.3-0.9-2.2-0.9c-1.5,0-2.4,0.6-2.4,3.1v7.7h-3.7v-14.2h3.7v0.9c0.6-0.7,1.6-1.2,2.9-1.2
		c1.2,0,2.1,0.5,2.6,1L875,370.8z"/>
	<path class="st6" d="M884.7,385.6H881l1.9-5l-5.5-14.2h4.1l2.3,6.8c0.4,1.1,0.8,2.4,0.9,3.1c0.2-0.7,0.5-2,0.9-3.1l2.3-6.8h4
		L884.7,385.6z"/>
	<path class="st6" d="M902.3,380.6v-3.3l8.1-9.7c0.6-0.7,1.7-2,2.2-2.5c-0.8,0-2.7,0.1-3.8,0.1h-5.9v-3.5h14.2v3.3l-8,9.7
		c-0.6,0.7-1.7,2-2.2,2.5c0.8,0,2.7-0.1,3.8-0.1h6.5v3.5H902.3z"/>
	<path class="st6" d="M925.5,380.9c-3.7,0-6.4-3-6.4-7.4c0-4.3,2.7-7.4,6.4-7.4s6.4,3.1,6.4,7.4C932,377.9,929.2,380.9,925.5,380.9z
		 M925.5,369.7c-1.8,0-2.6,1.6-2.6,3.8c0,2.2,0.8,3.8,2.6,3.8s2.6-1.8,2.6-3.8C928.2,371.3,927.3,369.7,925.5,369.7z"/>
	<path class="st6" d="M943.4,380.6v-7.7c0-2.5-0.9-3.3-2.4-3.3c-1.5,0-2.4,0.8-2.4,3.2v7.7h-3.7v-14.2h3.7v0.9
		c0.6-0.7,1.8-1.2,3.3-1.2c3.6,0,5.2,2.5,5.2,6.5v8H943.4z"/>
	<path class="st6" d="M962.1,374.7h-8.5c0.1,1.9,1.6,2.7,2.9,2.7c1,0,1.9-0.4,2.4-1l2.6,2.2c-1.1,1.5-3.2,2.3-5.1,2.3
		c-4.1,0-6.7-2.9-6.7-7.4c0-4.3,2.7-7.4,6.3-7.4c3.8,0,6,3.3,6,7.4C962.2,374,962.1,374.4,962.1,374.7z M956,369.4
		c-1.3,0-2.2,1.1-2.3,2.5h4.9C958.4,370.6,957.7,369.4,956,369.4z"/>
	<path class="st6" d="M967,371.2c-1.4,0-2.5-1.2-2.5-2.5c0-1.4,1.2-2.5,2.5-2.5s2.5,1.2,2.5,2.5C969.5,370,968.4,371.2,967,371.2z
		 M967,380.9c-1.4,0-2.5-1.2-2.5-2.5c0-1.4,1.2-2.5,2.5-2.5s2.5,1.2,2.5,2.5C969.5,379.7,968.4,380.9,967,380.9z"/>
	<path class="st6" d="M989.5,380.6h-8.6v-18.9h8.7c3.7,0,6,1.8,6,5c0,1.6-0.8,2.9-2,3.7c1.5,0.7,2.6,2.1,2.6,4.1
		C996.2,378.4,993.6,380.6,989.5,380.6z M989.4,365.2h-4.8v3.6h5c1.6,0,2.1-0.7,2.1-1.8C991.8,365.8,991.1,365.2,989.4,365.2z
		 M989.7,372.1h-5v4.9h5c1.8,0,2.7-1,2.7-2.5C992.4,372.9,991.5,372.1,989.7,372.1z"/>
</g>
<g>
	<path class="st4" d="M218,198v-3.3l8.1-9.7c0.6-0.7,1.7-2,2.2-2.5c-0.8,0-2.7,0.1-3.8,0.1h-5.9v-3.5h14.2v3.3l-8,9.7
		c-0.6,0.7-1.7,2-2.2,2.5c0.8,0,2.7-0.1,3.8-0.1h6.5v3.5H218z"/>
	<path class="st4" d="M243.6,198.3c-5.2,0-8.2-4-8.2-9.7c0-5.7,3.1-9.7,8.2-9.7c5.2,0,8.2,4,8.2,9.7
		C251.8,194.3,248.8,198.3,243.6,198.3z M243.6,182.5c-3,0-4.3,2.6-4.3,6c0,3.4,1.3,6,4.3,6c3.1,0,4.3-2.6,4.3-6
		C247.9,185.1,246.7,182.5,243.6,182.5z"/>
	<path class="st4" d="M267.6,198l-6.9-10.3c-0.5-0.7-1.1-1.6-1.3-2.1c0,0.7,0.1,3.1,0.1,4.1v8.3h-3.7v-18.9h3.6l6.7,10
		c0.5,0.7,1.1,1.6,1.3,2.1c0-0.7-0.1-3.1-0.1-4.1v-8h3.7V198H267.6z"/>
	<path class="st4" d="M275.9,198v-18.9H289v3.7h-9.3v3.3h5.4v3.7h-5.4v4.6h9.7v3.7H275.9z"/>
	<path class="st4" d="M308.5,198.3c-4.9,0-8.3-3.8-8.3-9.7c0-5.7,3.5-9.7,8.4-9.7c3.9,0,5.9,1.8,7.2,4.7l-3.6,1.5
		c-0.7-1.4-1.6-2.5-3.6-2.5c-2.8,0-4.5,2.5-4.5,6c0,3.5,1.6,6,4.5,6c2.6,0,3.5-1.2,3.7-2.9h-3v-3.5h6.8v2.5
		C316.1,195.5,312.9,198.3,308.5,198.3z"/>
	<path class="st4" d="M331,198l-3.4-6.8h-3.8v6.8h-3.8v-18.9h8.8c3.6,0,6.5,2,6.5,6c0,2.8-1.2,4.6-3.6,5.6l3.6,7.3H331z
		 M328.8,182.7h-4.9v4.9h4.9c1.8,0,2.7-0.8,2.7-2.5C331.5,183.4,330.5,182.7,328.8,182.7z"/>
	<path class="st4" d="M346.6,198.3c-5.2,0-8.2-4-8.2-9.7c0-5.7,3.1-9.7,8.2-9.7c5.2,0,8.2,4,8.2,9.7
		C354.8,194.3,351.7,198.3,346.6,198.3z M346.6,182.5c-3,0-4.3,2.6-4.3,6c0,3.4,1.3,6,4.3,6c3.1,0,4.3-2.6,4.3-6
		C350.9,185.1,349.6,182.5,346.6,182.5z"/>
	<path class="st4" d="M366.1,198.3c-4.6,0-7.6-3.1-7.6-8.6v-10.6h3.8v10.6c0,3,1.5,4.9,3.9,4.9c2.4,0,3.9-1.9,3.9-4.9v-10.6h3.8
		v10.6C373.8,195.1,370.9,198.3,366.1,198.3z"/>
	<path class="st4" d="M386.5,191.3h-4.2v6.7h-3.8v-18.9h8.3c3.6,0,6.5,2,6.5,6C393.3,189.4,390.4,191.3,386.5,191.3z M386.7,182.7
		h-4.3v4.9h4.4c1.8,0,2.7-0.8,2.7-2.5C389.4,183.5,388.3,182.7,386.7,182.7z"/>
	<path class="st4" d="M398.1,188.6c-1.4,0-2.5-1.2-2.5-2.5c0-1.4,1.2-2.5,2.5-2.5c1.4,0,2.5,1.2,2.5,2.5
		C400.7,187.4,399.5,188.6,398.1,188.6z M398.1,198.3c-1.4,0-2.5-1.2-2.5-2.5c0-1.4,1.2-2.5,2.5-2.5c1.4,0,2.5,1.2,2.5,2.5
		C400.7,197.1,399.5,198.3,398.1,198.3z"/>
	<path class="st4" d="M411.3,198c0.1-6.5,4.1-9.3,8.7-11.3c1.6-0.7,2.1-1.5,2.1-2.3c0-1-0.8-1.9-3.1-1.9c-2.2,0-4,1-5.4,2.3
		l-2.4-2.8c2-2,4.7-3.1,7.7-3.1c4.5,0,7,1.8,7,5.4c0,3-1.6,4.4-4.9,5.9c-3.3,1.5-4.6,2.8-5,4.3h10v3.6H411.3z"/>
</g>
<g>
	<path class="st4" d="M362.7,119.1v-3.3l8.1-9.7c0.6-0.7,1.7-2,2.2-2.5c-0.8,0-2.7,0.1-3.8,0.1h-5.9v-3.5h14.2v3.3l-8,9.7
		c-0.6,0.7-1.7,2-2.2,2.5c0.8,0,2.7-0.1,3.8-0.1h6.5v3.5H362.7z"/>
	<path class="st4" d="M388.3,119.4c-5.2,0-8.2-4-8.2-9.7c0-5.7,3.1-9.7,8.2-9.7c5.2,0,8.2,4,8.2,9.7
		C396.5,115.4,393.4,119.4,388.3,119.4z M388.3,103.7c-3,0-4.3,2.6-4.3,6c0,3.4,1.3,6,4.3,6c3.1,0,4.3-2.6,4.3-6
		C392.6,106.3,391.3,103.7,388.3,103.7z"/>
	<path class="st4" d="M412.3,119.1l-6.9-10.3c-0.5-0.7-1.1-1.6-1.3-2.1c0,0.7,0.1,3.1,0.1,4.1v8.3h-3.7v-18.9h3.6l6.7,10
		c0.5,0.7,1.1,1.6,1.3,2.1c0-0.7-0.1-3.1-0.1-4.1v-8h3.7v18.9H412.3z"/>
	<path class="st4" d="M420.5,119.1v-18.9h13.1v3.7h-9.3v3.3h5.4v3.7h-5.4v4.6h9.7v3.7H420.5z"/>
	<path class="st4" d="M453.1,119.4c-4.9,0-8.3-3.8-8.3-9.7c0-5.7,3.5-9.7,8.4-9.7c3.9,0,5.9,1.8,7.2,4.7l-3.6,1.5
		c-0.7-1.4-1.6-2.5-3.6-2.5c-2.8,0-4.5,2.5-4.5,6c0,3.5,1.6,6,4.5,6c2.6,0,3.5-1.2,3.7-2.9h-3v-3.5h6.8v2.5
		C460.7,116.7,457.5,119.4,453.1,119.4z"/>
	<path class="st4" d="M475.7,119.1l-3.4-6.8h-3.8v6.8h-3.8v-18.9h8.8c3.6,0,6.5,2,6.5,6c0,2.8-1.2,4.6-3.6,5.6l3.6,7.3H475.7z
		 M473.4,103.9h-4.9v4.9h4.9c1.8,0,2.7-0.8,2.7-2.5C476.1,104.6,475.1,103.9,473.4,103.9z"/>
	<path class="st4" d="M491.2,119.4c-5.2,0-8.2-4-8.2-9.7c0-5.7,3.1-9.7,8.2-9.7c5.2,0,8.2,4,8.2,9.7
		C499.4,115.4,496.4,119.4,491.2,119.4z M491.2,103.7c-3,0-4.3,2.6-4.3,6c0,3.4,1.3,6,4.3,6c3.1,0,4.3-2.6,4.3-6
		C495.5,106.3,494.3,103.7,491.2,103.7z"/>
	<path class="st4" d="M510.8,119.4c-4.6,0-7.6-3.1-7.6-8.6v-10.6h3.8v10.6c0,3,1.5,4.9,3.9,4.9c2.4,0,3.9-1.9,3.9-4.9v-10.6h3.8
		v10.6C518.4,116.3,515.6,119.4,510.8,119.4z"/>
	<path class="st4" d="M531.1,112.4H527v6.7h-3.8v-18.9h8.3c3.6,0,6.5,2,6.5,6C537.9,110.6,535,112.4,531.1,112.4z M531.3,103.9H527
		v4.9h4.4c1.8,0,2.7-0.8,2.7-2.5C534.1,104.7,533,103.9,531.3,103.9z"/>
	<path class="st4" d="M542.8,109.7c-1.4,0-2.5-1.2-2.5-2.5c0-1.4,1.2-2.5,2.5-2.5c1.4,0,2.5,1.2,2.5,2.5
		C545.3,108.6,544.2,109.7,542.8,109.7z M542.8,119.4c-1.4,0-2.5-1.2-2.5-2.5c0-1.4,1.2-2.5,2.5-2.5c1.4,0,2.5,1.2,2.5,2.5
		C545.3,118.3,544.2,119.4,542.8,119.4z"/>
	<path class="st4" d="M568.6,119.1l-6.9-10.3c-0.5-0.7-1.1-1.6-1.3-2.1c0,0.7,0.1,3.1,0.1,4.1v8.3h-3.7v-18.9h3.6l6.7,10
		c0.5,0.7,1.1,1.6,1.3,2.1c0-0.7-0.1-3.1-0.1-4.1v-8h3.7v18.9H568.6z"/>
</g>
<g>
	<polygon class="st4" points="431.5,587.1 374.2,587.1 363.3,591.8 440.9,591.8 	"/>
	<path class="st4" d="M359.2,595.2v22.5h85.2v-22.5H359.2z M366.9,612.8c-1.2,0-2.1-1-2.1-2.1c0-1.2,0.9-2.1,2.1-2.1
		c1.2,0,2.1,0.9,2.1,2.1C369,611.9,368,612.8,366.9,612.8z M366.9,605.3c-1.2,0-2.1-1-2.1-2.1c0-1.2,0.9-2.1,2.1-2.1
		c1.2,0,2.1,1,2.1,2.1C369,604.3,368,605.3,366.9,605.3z M438.5,611.4H374c-0.4,0-0.8-0.3-0.8-0.8c0-0.4,0.3-0.8,0.8-0.8h64.4
		c0.4,0,0.8,0.3,0.8,0.8C439.2,611,438.9,611.4,438.5,611.4z M438.5,606.7H374c-0.4,0-0.8-0.3-0.8-0.8c0-0.4,0.3-0.8,0.8-0.8h64.4
		c0.4,0,0.8,0.3,0.8,0.8C439.2,606.4,438.9,606.7,438.5,606.7z M438.5,602.1H374c-0.4,0-0.8-0.3-0.8-0.8s0.3-0.8,0.8-0.8h64.4
		c0.4,0,0.8,0.3,0.8,0.8C439.2,601.8,438.9,602.1,438.5,602.1z"/>
	<polygon class="st4" points="556.7,587.1 499.5,587.1 488.6,591.8 566.2,591.8 	"/>
	<polygon class="st4" points="306.2,587.1 249,587.1 238.1,591.8 315.7,591.8 	"/>
	<path class="st4" d="M233.9,595.2v22.5h85.2v-22.5H233.9z M241.6,612.8c-1.2,0-2.1-1-2.1-2.1c0-1.2,0.9-2.1,2.1-2.1
		c1.2,0,2.1,0.9,2.1,2.1C243.7,611.9,242.8,612.8,241.6,612.8z M241.6,605.3c-1.2,0-2.1-1-2.1-2.1c0-1.2,0.9-2.1,2.1-2.1
		c1.2,0,2.1,1,2.1,2.1C243.7,604.3,242.8,605.3,241.6,605.3z M313.2,611.4h-64.4c-0.4,0-0.8-0.3-0.8-0.8c0-0.4,0.3-0.8,0.8-0.8h64.4
		c0.4,0,0.8,0.3,0.8,0.8C314,611,313.6,611.4,313.2,611.4z M313.2,606.7h-64.4c-0.4,0-0.8-0.3-0.8-0.8c0-0.4,0.3-0.8,0.8-0.8h64.4
		c0.4,0,0.8,0.3,0.8,0.8C314,606.4,313.6,606.7,313.2,606.7z M313.2,602.1h-64.4c-0.4,0-0.8-0.3-0.8-0.8s0.3-0.8,0.8-0.8h64.4
		c0.4,0,0.8,0.3,0.8,0.8C314,601.8,313.6,602.1,313.2,602.1z"/>
	<path class="st4" d="M484.4,595.2v22.5h85.2v-22.5H484.4z M492.1,612.8c-1.2,0-2.1-1-2.1-2.1c0-1.2,0.9-2.1,2.1-2.1
		c1.2,0,2.1,0.9,2.1,2.1C494.2,611.9,493.3,612.8,492.1,612.8z M492.1,605.3c-1.2,0-2.1-1-2.1-2.1c0-1.2,0.9-2.1,2.1-2.1
		c1.2,0,2.1,1,2.1,2.1C494.2,604.3,493.3,605.3,492.1,605.3z M563.7,611.4h-64.4c-0.4,0-0.8-0.3-0.8-0.8c0-0.4,0.3-0.8,0.8-0.8h64.4
		c0.4,0,0.8,0.3,0.8,0.8C564.5,611,564.1,611.4,563.7,611.4z M563.7,606.7h-64.4c-0.4,0-0.8-0.3-0.8-0.8c0-0.4,0.3-0.8,0.8-0.8h64.4
		c0.4,0,0.8,0.3,0.8,0.8C564.5,606.4,564.1,606.7,563.7,606.7z M563.7,602.1h-64.4c-0.4,0-0.8-0.3-0.8-0.8s0.3-0.8,0.8-0.8h64.4
		c0.4,0,0.8,0.3,0.8,0.8C564.5,601.8,564.1,602.1,563.7,602.1z"/>
	<path class="st6" d="M321.3,591.1l-14.1-7c-0.2-0.1-0.4-0.2-0.7-0.2h-57.9c-0.2,0-0.4,0-0.6,0.1l-16.2,7c-0.7,0.3-1,1.1-0.9,1.8
		c0,0.1-0.1,0.3-0.1,0.4v0.4v25.6c0,0.9,0.7,1.5,1.5,1.5h88.3c0.8,0,1.5-0.7,1.5-1.5v-25.6v-0.4c0-0.1,0-0.3-0.1-0.4
		C322.3,592.2,322,591.5,321.3,591.1z M249,587.1h57.3l9.5,4.7h-77.6L249,587.1z M319.1,617.8h-85.2v-22.5h85.2V617.8L319.1,617.8
		L319.1,617.8z"/>
	<path class="st6" d="M241.6,601c-1.2,0-2.1,1-2.1,2.1c0,1.2,0.9,2.1,2.1,2.1c1.2,0,2.1-1,2.1-2.1C243.7,602,242.8,601,241.6,601z"
		/>
	<path class="st6" d="M241.6,608.6c-1.2,0-2.1,0.9-2.1,2.1c0,1.2,0.9,2.1,2.1,2.1c1.2,0,2.1-1,2.1-2.1
		C243.7,609.5,242.8,608.6,241.6,608.6z"/>
	<path class="st6" d="M313.2,600.6h-64.4c-0.4,0-0.8,0.3-0.8,0.8s0.3,0.8,0.8,0.8h64.4c0.4,0,0.8-0.3,0.8-0.8
		C314,600.9,313.6,600.6,313.2,600.6z"/>
	<path class="st6" d="M313.2,609.8h-64.4c-0.4,0-0.8,0.3-0.8,0.8c0,0.4,0.3,0.8,0.8,0.8h64.4c0.4,0,0.8-0.3,0.8-0.8
		C314,610.2,313.6,609.8,313.2,609.8z"/>
	<path class="st6" d="M313.2,605.2h-64.4c-0.4,0-0.8,0.3-0.8,0.8c0,0.4,0.3,0.8,0.8,0.8h64.4c0.4,0,0.8-0.3,0.8-0.8
		C314,605.5,313.6,605.2,313.2,605.2z"/>
	<path class="st6" d="M446.6,591.1l-14.1-7c-0.2-0.1-0.4-0.2-0.7-0.2h-57.9c-0.2,0-0.4,0-0.6,0.1l-16.2,7c-0.7,0.3-1,1.1-0.9,1.8
		c0,0.1-0.1,0.3-0.1,0.4v0.4v25.6c0,0.9,0.7,1.5,1.5,1.5h88.3c0.8,0,1.5-0.7,1.5-1.5v-25.6v-0.4c0-0.1,0-0.3-0.1-0.4
		C447.6,592.2,447.3,591.5,446.6,591.1z M374.2,587.1h57.3l9.5,4.7h-77.6L374.2,587.1z M444.4,617.8h-85.2v-22.5h85.2V617.8
		L444.4,617.8L444.4,617.8z"/>
	<path class="st6" d="M366.9,601c-1.2,0-2.1,1-2.1,2.1c0,1.2,0.9,2.1,2.1,2.1s2.1-1,2.1-2.1C369,602,368,601,366.9,601z"/>
	<path class="st6" d="M366.9,608.6c-1.2,0-2.1,0.9-2.1,2.1c0,1.2,0.9,2.1,2.1,2.1s2.1-1,2.1-2.1C369,609.5,368,608.6,366.9,608.6z"
		/>
	<path class="st6" d="M438.5,600.6H374c-0.4,0-0.8,0.3-0.8,0.8s0.3,0.8,0.8,0.8h64.4c0.4,0,0.8-0.3,0.8-0.8
		C439.2,600.9,438.9,600.6,438.5,600.6z"/>
	<path class="st6" d="M438.5,609.8H374c-0.4,0-0.8,0.3-0.8,0.8c0,0.4,0.3,0.8,0.8,0.8h64.4c0.4,0,0.8-0.3,0.8-0.8
		C439.2,610.2,438.9,609.8,438.5,609.8z"/>
	<path class="st6" d="M438.5,605.2H374c-0.4,0-0.8,0.3-0.8,0.8c0,0.4,0.3,0.8,0.8,0.8h64.4c0.4,0,0.8-0.3,0.8-0.8
		C439.2,605.5,438.9,605.2,438.5,605.2z"/>
	<path class="st6" d="M571.8,591.1l-14.1-7c-0.2-0.1-0.4-0.2-0.7-0.2h-57.9c-0.2,0-0.4,0-0.6,0.1l-16.2,7c-0.7,0.3-1,1.1-0.9,1.8
		c0,0.1-0.1,0.3-0.1,0.4v0.4v25.6c0,0.9,0.7,1.5,1.5,1.5h88.3c0.8,0,1.5-0.7,1.5-1.5v-25.6v-0.4c0-0.1,0-0.3-0.1-0.4
		C572.8,592.2,572.5,591.5,571.8,591.1z M499.5,587.1h57.3l9.5,4.7h-77.6L499.5,587.1z M569.6,617.8h-85.2v-22.5h85.2V617.8
		L569.6,617.8L569.6,617.8z"/>
	<path class="st6" d="M492.1,601c-1.2,0-2.1,1-2.1,2.1c0,1.2,0.9,2.1,2.1,2.1s2.1-1,2.1-2.1C494.2,602,493.3,601,492.1,601z"/>
	<path class="st6" d="M492.1,608.6c-1.2,0-2.1,0.9-2.1,2.1c0,1.2,0.9,2.1,2.1,2.1s2.1-1,2.1-2.1
		C494.2,609.5,493.3,608.6,492.1,608.6z"/>
	<path class="st6" d="M563.7,600.6h-64.4c-0.4,0-0.8,0.3-0.8,0.8s0.3,0.8,0.8,0.8h64.4c0.4,0,0.8-0.3,0.8-0.8
		C564.5,600.9,564.1,600.6,563.7,600.6z"/>
	<path class="st6" d="M563.7,609.8h-64.4c-0.4,0-0.8,0.3-0.8,0.8c0,0.4,0.3,0.8,0.8,0.8h64.4c0.4,0,0.8-0.3,0.8-0.8
		C564.5,610.2,564.1,609.8,563.7,609.8z"/>
	<path class="st6" d="M563.7,605.2h-64.4c-0.4,0-0.8,0.3-0.8,0.8c0,0.4,0.3,0.8,0.8,0.8h64.4c0.4,0,0.8-0.3,0.8-0.8
		C564.5,605.5,564.1,605.2,563.7,605.2z"/>
</g>
<g>
	<polygon class="st4" points="1028.5,587.1 971.3,587.1 960.4,591.8 1038,591.8 	"/>
	<path class="st4" d="M956.2,595.2v22.5h85.2v-22.5H956.2z M963.9,612.8c-1.2,0-2.1-1-2.1-2.1c0-1.2,0.9-2.1,2.1-2.1
		c1.2,0,2.1,0.9,2.1,2.1C966,611.9,965.1,612.8,963.9,612.8z M963.9,605.3c-1.2,0-2.1-1-2.1-2.1c0-1.2,0.9-2.1,2.1-2.1
		c1.2,0,2.1,1,2.1,2.1C966,604.3,965.1,605.3,963.9,605.3z M1035.5,611.4h-64.4c-0.4,0-0.8-0.3-0.8-0.8c0-0.4,0.3-0.8,0.8-0.8h64.4
		c0.4,0,0.8,0.3,0.8,0.8C1036.3,611,1035.9,611.4,1035.5,611.4z M1035.5,606.7h-64.4c-0.4,0-0.8-0.3-0.8-0.8c0-0.4,0.3-0.8,0.8-0.8
		h64.4c0.4,0,0.8,0.3,0.8,0.8C1036.3,606.4,1035.9,606.7,1035.5,606.7z M1035.5,602.1h-64.4c-0.4,0-0.8-0.3-0.8-0.8s0.3-0.8,0.8-0.8
		h64.4c0.4,0,0.8,0.3,0.8,0.8C1036.3,601.8,1035.9,602.1,1035.5,602.1z"/>
	<polygon class="st4" points="1153.8,587.1 1096.5,587.1 1085.6,591.8 1163.2,591.8 	"/>
	<polygon class="st4" points="903.3,587.1 846,587.1 835.1,591.8 912.7,591.8 	"/>
	<path class="st4" d="M831,595.2v22.5h85.2v-22.5H831z M838.7,612.8c-1.2,0-2.1-1-2.1-2.1c0-1.2,0.9-2.1,2.1-2.1
		c1.2,0,2.1,0.9,2.1,2.1C840.8,611.9,839.8,612.8,838.7,612.8z M838.7,605.3c-1.2,0-2.1-1-2.1-2.1c0-1.2,0.9-2.1,2.1-2.1
		c1.2,0,2.1,1,2.1,2.1C840.8,604.3,839.8,605.3,838.7,605.3z M910.3,611.4h-64.4c-0.4,0-0.8-0.3-0.8-0.8c0-0.4,0.3-0.8,0.8-0.8h64.4
		c0.4,0,0.8,0.3,0.8,0.8C911,611,910.7,611.4,910.3,611.4z M910.3,606.7h-64.4c-0.4,0-0.8-0.3-0.8-0.8c0-0.4,0.3-0.8,0.8-0.8h64.4
		c0.4,0,0.8,0.3,0.8,0.8C911,606.4,910.7,606.7,910.3,606.7z M910.3,602.1h-64.4c-0.4,0-0.8-0.3-0.8-0.8s0.3-0.8,0.8-0.8h64.4
		c0.4,0,0.8,0.3,0.8,0.8C911,601.8,910.7,602.1,910.3,602.1z"/>
	<path class="st4" d="M1081.5,595.2v22.5h85.2v-22.5H1081.5z M1089.2,612.8c-1.2,0-2.1-1-2.1-2.1c0-1.2,0.9-2.1,2.1-2.1
		c1.2,0,2.1,0.9,2.1,2.1C1091.3,611.9,1090.3,612.8,1089.2,612.8z M1089.2,605.3c-1.2,0-2.1-1-2.1-2.1c0-1.2,0.9-2.1,2.1-2.1
		c1.2,0,2.1,1,2.1,2.1C1091.3,604.3,1090.3,605.3,1089.2,605.3z M1160.8,611.4h-64.4c-0.4,0-0.8-0.3-0.8-0.8c0-0.4,0.3-0.8,0.8-0.8
		h64.4c0.4,0,0.8,0.3,0.8,0.8C1161.5,611,1161.2,611.4,1160.8,611.4z M1160.8,606.7h-64.4c-0.4,0-0.8-0.3-0.8-0.8
		c0-0.4,0.3-0.8,0.8-0.8h64.4c0.4,0,0.8,0.3,0.8,0.8C1161.5,606.4,1161.2,606.7,1160.8,606.7z M1160.8,602.1h-64.4
		c-0.4,0-0.8-0.3-0.8-0.8s0.3-0.8,0.8-0.8h64.4c0.4,0,0.8,0.3,0.8,0.8C1161.5,601.8,1161.2,602.1,1160.8,602.1z"/>
	<path class="st6" d="M918.4,591.1l-14.1-7c-0.2-0.1-0.4-0.2-0.7-0.2h-57.9c-0.2,0-0.4,0-0.6,0.1l-16.2,7c-0.7,0.3-1,1.1-0.9,1.8
		c0,0.1-0.1,0.3-0.1,0.4v0.4v25.6c0,0.9,0.7,1.5,1.5,1.5h88.3c0.8,0,1.5-0.7,1.5-1.5v-25.6v-0.4c0-0.1,0-0.3-0.1-0.4
		C919.4,592.2,919.1,591.5,918.4,591.1z M846,587.1h57.3l9.5,4.7h-77.6L846,587.1z M916.2,617.8H831v-22.5h85.2V617.8L916.2,617.8
		L916.2,617.8z"/>
	<path class="st6" d="M838.7,601c-1.2,0-2.1,1-2.1,2.1c0,1.2,0.9,2.1,2.1,2.1c1.2,0,2.1-1,2.1-2.1C840.8,602,839.8,601,838.7,601z"
		/>
	<path class="st6" d="M838.7,608.6c-1.2,0-2.1,0.9-2.1,2.1c0,1.2,0.9,2.1,2.1,2.1c1.2,0,2.1-1,2.1-2.1
		C840.8,609.5,839.8,608.6,838.7,608.6z"/>
	<path class="st6" d="M910.3,600.6h-64.4c-0.4,0-0.8,0.3-0.8,0.8s0.3,0.8,0.8,0.8h64.4c0.4,0,0.8-0.3,0.8-0.8
		C911,600.9,910.7,600.6,910.3,600.6z"/>
	<path class="st6" d="M910.3,609.8h-64.4c-0.4,0-0.8,0.3-0.8,0.8c0,0.4,0.3,0.8,0.8,0.8h64.4c0.4,0,0.8-0.3,0.8-0.8
		C911,610.2,910.7,609.8,910.3,609.8z"/>
	<path class="st6" d="M910.3,605.2h-64.4c-0.4,0-0.8,0.3-0.8,0.8c0,0.4,0.3,0.8,0.8,0.8h64.4c0.4,0,0.8-0.3,0.8-0.8
		C911,605.5,910.7,605.2,910.3,605.2z"/>
	<path class="st6" d="M1043.6,591.1l-14.1-7c-0.2-0.1-0.4-0.2-0.7-0.2H971c-0.2,0-0.4,0-0.6,0.1l-16.2,7c-0.7,0.3-1,1.1-0.9,1.8
		c0,0.1-0.1,0.3-0.1,0.4v0.4v25.6c0,0.9,0.7,1.5,1.5,1.5h88.3c0.8,0,1.5-0.7,1.5-1.5v-25.6v-0.4c0-0.1,0-0.3-0.1-0.4
		C1044.6,592.2,1044.3,591.5,1043.6,591.1z M971.3,587.1h57.3l9.5,4.7h-77.6L971.3,587.1z M1041.4,617.8h-85.2v-22.5h85.2V617.8
		L1041.4,617.8L1041.4,617.8z"/>
	<path class="st6" d="M963.9,601c-1.2,0-2.1,1-2.1,2.1c0,1.2,0.9,2.1,2.1,2.1s2.1-1,2.1-2.1C966,602,965.1,601,963.9,601z"/>
	<path class="st6" d="M963.9,608.6c-1.2,0-2.1,0.9-2.1,2.1c0,1.2,0.9,2.1,2.1,2.1s2.1-1,2.1-2.1C966,609.5,965.1,608.6,963.9,608.6z
		"/>
	<path class="st6" d="M1035.5,600.6h-64.4c-0.4,0-0.8,0.3-0.8,0.8s0.3,0.8,0.8,0.8h64.4c0.4,0,0.8-0.3,0.8-0.8
		C1036.3,600.9,1035.9,600.6,1035.5,600.6z"/>
	<path class="st6" d="M1035.5,609.8h-64.4c-0.4,0-0.8,0.3-0.8,0.8c0,0.4,0.3,0.8,0.8,0.8h64.4c0.4,0,0.8-0.3,0.8-0.8
		C1036.3,610.2,1035.9,609.8,1035.5,609.8z"/>
	<path class="st6" d="M1035.5,605.2h-64.4c-0.4,0-0.8,0.3-0.8,0.8c0,0.4,0.3,0.8,0.8,0.8h64.4c0.4,0,0.8-0.3,0.8-0.8
		C1036.3,605.5,1035.9,605.2,1035.5,605.2z"/>
	<path class="st6" d="M1168.9,591.1l-14.1-7c-0.2-0.1-0.4-0.2-0.7-0.2h-57.9c-0.2,0-0.4,0-0.6,0.1l-16.2,7c-0.7,0.3-1,1.1-0.9,1.8
		c0,0.1-0.1,0.3-0.1,0.4v0.4v25.6c0,0.9,0.7,1.5,1.5,1.5h88.3c0.8,0,1.5-0.7,1.5-1.5v-25.6v-0.4c0-0.1,0-0.3-0.1-0.4
		C1169.9,592.2,1169.6,591.5,1168.9,591.1z M1096.5,587.1h57.3l9.5,4.7h-77.6L1096.5,587.1z M1166.7,617.8h-85.2v-22.5h85.2V617.8
		L1166.7,617.8L1166.7,617.8z"/>
	<path class="st6" d="M1089.2,601c-1.2,0-2.1,1-2.1,2.1c0,1.2,0.9,2.1,2.1,2.1c1.2,0,2.1-1,2.1-2.1
		C1091.3,602,1090.3,601,1089.2,601z"/>
	<path class="st6" d="M1089.2,608.6c-1.2,0-2.1,0.9-2.1,2.1c0,1.2,0.9,2.1,2.1,2.1c1.2,0,2.1-1,2.1-2.1
		C1091.3,609.5,1090.3,608.6,1089.2,608.6z"/>
	<path class="st6" d="M1160.8,600.6h-64.4c-0.4,0-0.8,0.3-0.8,0.8s0.3,0.8,0.8,0.8h64.4c0.4,0,0.8-0.3,0.8-0.8
		C1161.5,600.9,1161.2,600.6,1160.8,600.6z"/>
	<path class="st6" d="M1160.8,609.8h-64.4c-0.4,0-0.8,0.3-0.8,0.8c0,0.4,0.3,0.8,0.8,0.8h64.4c0.4,0,0.8-0.3,0.8-0.8
		C1161.5,610.2,1161.2,609.8,1160.8,609.8z"/>
	<path class="st6" d="M1160.8,605.2h-64.4c-0.4,0-0.8,0.3-0.8,0.8c0,0.4,0.3,0.8,0.8,0.8h64.4c0.4,0,0.8-0.3,0.8-0.8
		C1161.5,605.5,1161.2,605.2,1160.8,605.2z"/>
</g>
<g>
	<path class="st4" d="M463.7,756.7c-24.5,0-39.6,4.4-39.6,7.5v24.9c0,3.1,15.1,7.5,39.6,7.5c24.5,0,39.6-4.4,39.6-7.5v-24.9
		C503.3,761.1,488.2,756.7,463.7,756.7z M441,771.9C441,771.9,441,771.9,441,771.9c-4.5-0.6-8.3-1.4-11.3-2.4
		c-0.3-0.1-0.4-0.4-0.4-0.7c0.1-0.3,0.4-0.4,0.7-0.4c3,0.9,6.7,1.7,11.1,2.3c0.3,0,0.5,0.3,0.5,0.6
		C441.5,771.7,441.3,771.9,441,771.9z M498.2,769.6c-7.6,2.5-20.5,4-34.5,4c-4.5,0-9-0.2-13.3-0.5c-0.4,0-0.8-0.4-0.8-0.9
		c0-0.4,0.4-0.8,0.9-0.8c4.2,0.3,8.6,0.5,13.1,0.5c13.9,0,26.6-1.5,34-3.9c0.4-0.1,0.9,0.1,1,0.5C498.9,769,498.6,769.5,498.2,769.6
		z"/>
	<path class="st4" d="M216.1,756.7c-24.5,0-39.6,4.4-39.6,7.5v24.9c0,3.1,15.1,7.5,39.6,7.5c24.5,0,39.6-4.4,39.6-7.5v-24.9
		C255.7,761.1,240.7,756.7,216.1,756.7z M193.5,771.9C193.4,771.9,193.4,771.9,193.5,771.9c-4.5-0.6-8.3-1.4-11.3-2.4
		c-0.3-0.1-0.4-0.4-0.4-0.7c0.1-0.3,0.4-0.4,0.7-0.4c3,0.9,6.7,1.7,11.1,2.3c0.3,0,0.5,0.3,0.5,0.6
		C194,771.7,193.7,771.9,193.5,771.9z M250.6,769.6c-7.6,2.5-20.5,4-34.5,4c-4.5,0-9-0.2-13.3-0.5c-0.4,0-0.8-0.4-0.8-0.9
		c0-0.4,0.4-0.8,0.9-0.8c4.2,0.3,8.6,0.5,13.1,0.5c13.9,0,26.6-1.5,34-3.9c0.4-0.1,0.9,0.1,1,0.5C251.3,769,251.1,769.5,250.6,769.6
		z"/>
	<path class="st4" d="M339.9,756.7c-24.5,0-39.6,4.4-39.6,7.5v24.9c0,3.1,15.1,7.5,39.6,7.5c24.5,0,39.6-4.4,39.6-7.5v-24.9
		C379.5,761.1,364.4,756.7,339.9,756.7z M317.2,771.9C317.2,771.9,317.2,771.9,317.2,771.9c-4.5-0.6-8.3-1.4-11.3-2.4
		c-0.3-0.1-0.4-0.4-0.4-0.7c0.1-0.3,0.4-0.4,0.7-0.4c3,0.9,6.7,1.7,11.1,2.3c0.3,0,0.5,0.3,0.5,0.6
		C317.7,771.7,317.5,771.9,317.2,771.9z M374.4,769.6c-7.6,2.5-20.5,4-34.5,4c-4.5,0-9-0.2-13.3-0.5c-0.4,0-0.8-0.4-0.8-0.9
		c0-0.4,0.4-0.8,0.9-0.8c4.2,0.3,8.6,0.5,13.1,0.5c13.9,0,26.6-1.5,34-3.9c0.4-0.1,0.9,0.1,1,0.5C375.1,769,374.9,769.5,374.4,769.6
		z"/>
	<path class="st4" d="M587.5,756.7c-24.5,0-39.6,4.4-39.6,7.5v24.9c0,3.1,15.1,7.5,39.6,7.5c24.5,0,39.6-4.4,39.6-7.5v-24.9
		C627.1,761.1,612,756.7,587.5,756.7z M564.8,771.9C564.8,771.9,564.7,771.9,564.8,771.9c-4.5-0.6-8.3-1.4-11.3-2.4
		c-0.3-0.1-0.4-0.4-0.4-0.7c0.1-0.3,0.4-0.4,0.7-0.4c3,0.9,6.7,1.7,11.1,2.3c0.3,0,0.5,0.3,0.5,0.6
		C565.3,771.7,565.1,771.9,564.8,771.9z M622,769.6c-7.6,2.5-20.5,4-34.5,4c-4.5,0-9-0.2-13.3-0.5c-0.4,0-0.8-0.4-0.8-0.9
		c0-0.4,0.4-0.8,0.9-0.8c4.2,0.3,8.6,0.5,13.1,0.5c13.9,0,26.6-1.5,34-3.9c0.4-0.1,0.9,0.1,1,0.5C622.7,769,622.4,769.5,622,769.6z"
		/>
	<path class="st6" d="M193.5,770.8c-4.4-0.6-8.1-1.4-11.1-2.3c-0.3-0.1-0.6,0.1-0.7,0.4c-0.1,0.3,0.1,0.6,0.4,0.7
		c3,0.9,6.8,1.7,11.3,2.4c0,0,0.1,0,0.1,0c0.3,0,0.5-0.2,0.5-0.5C194,771.1,193.8,770.8,193.5,770.8z"/>
	<path class="st6" d="M250.1,768.1c-7.4,2.4-20.2,3.9-34,3.9c-4.5,0-8.9-0.2-13.1-0.5c-0.4,0-0.8,0.3-0.9,0.8c0,0.4,0.3,0.8,0.8,0.9
		c4.3,0.3,8.7,0.5,13.3,0.5c14,0,26.9-1.5,34.5-4c0.4-0.1,0.7-0.6,0.5-1C251,768.2,250.6,767.9,250.1,768.1z"/>
	<path class="st6" d="M216.1,754.6c-20.8,0-41.8,3.3-41.8,9.7v24.9c0,6.3,21,9.7,41.8,9.7c20.8,0,41.8-3.3,41.8-9.7v-24.9
		C257.9,757.9,236.9,754.6,216.1,754.6z M255.7,789.1c0,3.1-15.1,7.5-39.6,7.5c-24.5,0-39.6-4.4-39.6-7.5v-24.9
		c0-3.1,15.1-7.5,39.6-7.5c24.5,0,39.6,4.4,39.6,7.5V789.1z"/>
	<path class="st6" d="M317.3,770.8c-4.4-0.6-8.1-1.4-11.1-2.3c-0.3-0.1-0.6,0.1-0.7,0.4c-0.1,0.3,0.1,0.6,0.4,0.7
		c3,0.9,6.8,1.7,11.3,2.4c0,0,0.1,0,0.1,0c0.3,0,0.5-0.2,0.5-0.5C317.8,771.1,317.6,770.8,317.3,770.8z"/>
	<path class="st6" d="M373.9,768.1c-7.4,2.4-20.2,3.9-34,3.9c-4.5,0-8.9-0.2-13.1-0.5c-0.4,0-0.8,0.3-0.9,0.8c0,0.4,0.3,0.8,0.8,0.9
		c4.3,0.3,8.7,0.5,13.3,0.5c14,0,26.9-1.5,34.5-4c0.4-0.1,0.7-0.6,0.5-1C374.8,768.2,374.3,767.9,373.9,768.1z"/>
	<path class="st6" d="M339.9,754.6c-20.8,0-41.8,3.3-41.8,9.7v24.9c0,6.3,21,9.7,41.8,9.7c20.8,0,41.8-3.3,41.8-9.7v-24.9
		C381.7,757.9,360.7,754.6,339.9,754.6z M379.5,789.1c0,3.1-15.1,7.5-39.6,7.5c-24.5,0-39.6-4.4-39.6-7.5v-24.9
		c0-3.1,15.1-7.5,39.6-7.5c24.5,0,39.6,4.4,39.6,7.5V789.1z"/>
	<path class="st6" d="M441.1,770.8c-4.4-0.6-8.1-1.4-11.1-2.3c-0.3-0.1-0.6,0.1-0.7,0.4c-0.1,0.3,0.1,0.6,0.4,0.7
		c3,0.9,6.8,1.7,11.3,2.4c0,0,0.1,0,0.1,0c0.3,0,0.5-0.2,0.5-0.5C441.6,771.1,441.4,770.8,441.1,770.8z"/>
	<path class="st6" d="M497.7,768.1c-7.4,2.4-20.2,3.9-34,3.9c-4.5,0-8.9-0.2-13.1-0.5c-0.4,0-0.8,0.3-0.9,0.8c0,0.4,0.3,0.8,0.8,0.9
		c4.3,0.3,8.7,0.5,13.3,0.5c14,0,26.9-1.5,34.5-4c0.4-0.1,0.7-0.6,0.5-1C498.6,768.2,498.1,767.9,497.7,768.1z"/>
	<path class="st6" d="M463.7,754.6c-20.8,0-41.8,3.3-41.8,9.7v24.9c0,6.3,21,9.7,41.8,9.7c20.8,0,41.8-3.3,41.8-9.7v-24.9
		C505.5,757.9,484.4,754.6,463.7,754.6z M503.3,789.1c0,3.1-15.1,7.5-39.6,7.5c-24.5,0-39.6-4.4-39.6-7.5v-24.9
		c0-3.1,15.1-7.5,39.6-7.5c24.5,0,39.6,4.4,39.6,7.5V789.1z"/>
	<path class="st6" d="M564.9,770.8c-4.4-0.6-8.1-1.4-11.1-2.3c-0.3-0.1-0.6,0.1-0.7,0.4c-0.1,0.3,0.1,0.6,0.4,0.7
		c3,0.9,6.8,1.7,11.3,2.4c0,0,0.1,0,0.1,0c0.3,0,0.5-0.2,0.5-0.5C565.4,771.1,565.2,770.8,564.9,770.8z"/>
	<path class="st6" d="M621.5,768.1c-7.4,2.4-20.2,3.9-34,3.9c-4.5,0-8.9-0.2-13.1-0.5c-0.4,0-0.8,0.3-0.9,0.8c0,0.4,0.3,0.8,0.8,0.9
		c4.3,0.3,8.7,0.5,13.3,0.5c14,0,26.9-1.5,34.5-4c0.4-0.1,0.7-0.6,0.5-1C622.4,768.2,621.9,767.9,621.5,768.1z"/>
	<path class="st6" d="M587.5,754.6c-20.8,0-41.8,3.3-41.8,9.7v24.9c0,6.3,21,9.7,41.8,9.7c20.8,0,41.8-3.3,41.8-9.7v-24.9
		C629.2,757.9,608.2,754.6,587.5,754.6z M627.1,789.1c0,3.1-15.1,7.5-39.6,7.5c-24.5,0-39.6-4.4-39.6-7.5v-24.9
		c0-3.1,15.1-7.5,39.6-7.5c24.5,0,39.6,4.4,39.6,7.5V789.1z"/>
</g>
<g>
	<path class="st4" d="M1060.7,756.7c-24.5,0-39.6,4.4-39.6,7.5v24.9c0,3.1,15.1,7.5,39.6,7.5c24.5,0,39.6-4.4,39.6-7.5v-24.9
		C1100.3,761.1,1085.3,756.7,1060.7,756.7z M1038.1,771.9C1038.1,771.9,1038,771.9,1038.1,771.9c-4.5-0.6-8.3-1.4-11.3-2.4
		c-0.3-0.1-0.4-0.4-0.4-0.7c0.1-0.3,0.4-0.4,0.7-0.4c3,0.9,6.7,1.7,11.1,2.3c0.3,0,0.5,0.3,0.5,0.6
		C1038.6,771.7,1038.3,771.9,1038.1,771.9z M1095.3,769.6c-7.6,2.5-20.5,4-34.5,4c-4.5,0-9-0.2-13.3-0.5c-0.4,0-0.8-0.4-0.8-0.9
		c0-0.4,0.4-0.8,0.9-0.8c4.2,0.3,8.6,0.5,13.1,0.5c13.9,0,26.6-1.5,34-3.9c0.4-0.1,0.9,0.1,1,0.5
		C1095.9,769,1095.7,769.5,1095.3,769.6z"/>
	<path class="st4" d="M813.2,756.7c-24.5,0-39.6,4.4-39.6,7.5v24.9c0,3.1,15.1,7.5,39.6,7.5c24.5,0,39.6-4.4,39.6-7.5v-24.9
		C852.8,761.1,837.7,756.7,813.2,756.7z M790.5,771.9C790.5,771.9,790.5,771.9,790.5,771.9c-4.5-0.6-8.3-1.4-11.3-2.4
		c-0.3-0.1-0.4-0.4-0.4-0.7c0.1-0.3,0.4-0.4,0.7-0.4c3,0.9,6.7,1.7,11.1,2.3c0.3,0,0.5,0.3,0.5,0.6
		C791,771.7,790.8,771.9,790.5,771.9z M847.7,769.6c-7.6,2.5-20.5,4-34.5,4c-4.5,0-9-0.2-13.3-0.5c-0.4,0-0.8-0.4-0.8-0.9
		c0-0.4,0.4-0.8,0.9-0.8c4.2,0.3,8.6,0.5,13.1,0.5c13.9,0,26.6-1.5,34-3.9c0.4-0.1,0.9,0.1,1,0.5C848.4,769,848.1,769.5,847.7,769.6
		z"/>
	<path class="st4" d="M937,756.7c-24.5,0-39.6,4.4-39.6,7.5v24.9c0,3.1,15.1,7.5,39.6,7.5c24.5,0,39.6-4.4,39.6-7.5v-24.9
		C976.6,761.1,961.5,756.7,937,756.7z M914.3,771.9C914.3,771.9,914.2,771.9,914.3,771.9c-4.5-0.6-8.3-1.4-11.3-2.4
		c-0.3-0.1-0.4-0.4-0.4-0.7c0.1-0.3,0.4-0.4,0.7-0.4c3,0.9,6.7,1.7,11.1,2.3c0.3,0,0.5,0.3,0.5,0.6
		C914.8,771.7,914.6,771.9,914.3,771.9z M971.5,769.6c-7.6,2.5-20.5,4-34.5,4c-4.5,0-9-0.2-13.3-0.5c-0.4,0-0.8-0.4-0.8-0.9
		c0-0.4,0.4-0.8,0.9-0.8c4.2,0.3,8.6,0.5,13.1,0.5c13.9,0,26.6-1.5,34-3.9c0.4-0.1,0.9,0.1,1,0.5C972.2,769,971.9,769.5,971.5,769.6
		z"/>
	<path class="st4" d="M1184.5,756.7c-24.5,0-39.6,4.4-39.6,7.5v24.9c0,3.1,15.1,7.5,39.6,7.5c24.5,0,39.6-4.4,39.6-7.5v-24.9
		C1224.1,761.1,1209.1,756.7,1184.5,756.7z M1161.9,771.9C1161.8,771.9,1161.8,771.9,1161.9,771.9c-4.5-0.6-8.3-1.4-11.3-2.4
		c-0.3-0.1-0.4-0.4-0.4-0.7c0.1-0.3,0.4-0.4,0.7-0.4c3,0.9,6.7,1.7,11.1,2.3c0.3,0,0.5,0.3,0.5,0.6
		C1162.4,771.7,1162.1,771.9,1161.9,771.9z M1219.1,769.6c-7.6,2.5-20.5,4-34.5,4c-4.5,0-9-0.2-13.3-0.5c-0.4,0-0.8-0.4-0.8-0.9
		c0-0.4,0.4-0.8,0.9-0.8c4.2,0.3,8.6,0.5,13.1,0.5c13.9,0,26.6-1.5,34-3.9c0.4-0.1,0.9,0.1,1,0.5
		C1219.7,769,1219.5,769.5,1219.1,769.6z"/>
	<path class="st6" d="M790.6,770.8c-4.4-0.6-8.1-1.4-11.1-2.3c-0.3-0.1-0.6,0.1-0.7,0.4c-0.1,0.3,0.1,0.6,0.4,0.7
		c3,0.9,6.8,1.7,11.3,2.4c0,0,0.1,0,0.1,0c0.3,0,0.5-0.2,0.5-0.5C791.1,771.1,790.9,770.8,790.6,770.8z"/>
	<path class="st6" d="M847.2,768.1c-7.4,2.4-20.2,3.9-34,3.9c-4.5,0-8.9-0.2-13.1-0.5c-0.4,0-0.8,0.3-0.9,0.8c0,0.4,0.3,0.8,0.8,0.9
		c4.3,0.3,8.7,0.5,13.3,0.5c14,0,26.9-1.5,34.5-4c0.4-0.1,0.7-0.6,0.5-1C848.1,768.2,847.6,767.9,847.2,768.1z"/>
	<path class="st6" d="M813.2,754.6c-20.8,0-41.8,3.3-41.8,9.7v24.9c0,6.3,21,9.7,41.8,9.7c20.8,0,41.8-3.3,41.8-9.7v-24.9
		C854.9,757.9,833.9,754.6,813.2,754.6z M852.8,789.1c0,3.1-15.1,7.5-39.6,7.5c-24.5,0-39.6-4.4-39.6-7.5v-24.9
		c0-3.1,15.1-7.5,39.6-7.5c24.5,0,39.6,4.4,39.6,7.5V789.1z"/>
	<path class="st6" d="M914.4,770.8c-4.4-0.6-8.1-1.4-11.1-2.3c-0.3-0.1-0.6,0.1-0.7,0.4c-0.1,0.3,0.1,0.6,0.4,0.7
		c3,0.9,6.8,1.7,11.3,2.4c0,0,0.1,0,0.1,0c0.3,0,0.5-0.2,0.5-0.5C914.9,771.1,914.7,770.8,914.4,770.8z"/>
	<path class="st6" d="M971,768.1c-7.4,2.4-20.2,3.9-34,3.9c-4.5,0-8.9-0.2-13.1-0.5c-0.4,0-0.8,0.3-0.9,0.8c0,0.4,0.3,0.8,0.8,0.9
		c4.3,0.3,8.7,0.5,13.3,0.5c14,0,26.9-1.5,34.5-4c0.4-0.1,0.7-0.6,0.5-1C971.9,768.2,971.4,767.9,971,768.1z"/>
	<path class="st6" d="M937,754.6c-20.8,0-41.8,3.3-41.8,9.7v24.9c0,6.3,21,9.7,41.8,9.7c20.8,0,41.8-3.3,41.8-9.7v-24.9
		C978.7,757.9,957.7,754.6,937,754.6z M976.6,789.1c0,3.1-15.1,7.5-39.6,7.5c-24.5,0-39.6-4.4-39.6-7.5v-24.9
		c0-3.1,15.1-7.5,39.6-7.5c24.5,0,39.6,4.4,39.6,7.5V789.1z"/>
	<path class="st6" d="M1038.2,770.8c-4.4-0.6-8.1-1.4-11.1-2.3c-0.3-0.1-0.6,0.1-0.7,0.4c-0.1,0.3,0.1,0.6,0.4,0.7
		c3,0.9,6.8,1.7,11.3,2.4c0,0,0.1,0,0.1,0c0.3,0,0.5-0.2,0.5-0.5C1038.7,771.1,1038.4,770.8,1038.2,770.8z"/>
	<path class="st6" d="M1094.8,768.1c-7.4,2.4-20.2,3.9-34,3.9c-4.5,0-8.9-0.2-13.1-0.5c-0.4,0-0.8,0.3-0.9,0.8
		c0,0.4,0.3,0.8,0.8,0.9c4.3,0.3,8.7,0.5,13.3,0.5c14,0,26.9-1.5,34.5-4c0.4-0.1,0.7-0.6,0.5-1
		C1095.7,768.2,1095.2,767.9,1094.8,768.1z"/>
	<path class="st6" d="M1060.7,754.6c-20.8,0-41.8,3.3-41.8,9.7v24.9c0,6.3,21,9.7,41.8,9.7c20.8,0,41.8-3.3,41.8-9.7v-24.9
		C1102.5,757.9,1081.5,754.6,1060.7,754.6z M1100.3,789.1c0,3.1-15.1,7.5-39.6,7.5c-24.5,0-39.6-4.4-39.6-7.5v-24.9
		c0-3.1,15.1-7.5,39.6-7.5c24.5,0,39.6,4.4,39.6,7.5V789.1z"/>
	<path class="st6" d="M1161.9,770.8c-4.4-0.6-8.1-1.4-11.1-2.3c-0.3-0.1-0.6,0.1-0.7,0.4c-0.1,0.3,0.1,0.6,0.4,0.7
		c3,0.9,6.8,1.7,11.3,2.4c0,0,0.1,0,0.1,0c0.3,0,0.5-0.2,0.5-0.5C1162.4,771.1,1162.2,770.8,1161.9,770.8z"/>
	<path class="st6" d="M1218.5,768.1c-7.4,2.4-20.2,3.9-34,3.9c-4.5,0-8.9-0.2-13.1-0.5c-0.4,0-0.8,0.3-0.9,0.8
		c0,0.4,0.3,0.8,0.8,0.9c4.3,0.3,8.7,0.5,13.3,0.5c14,0,26.9-1.5,34.5-4c0.4-0.1,0.7-0.6,0.5-1
		C1219.4,768.2,1219,767.9,1218.5,768.1z"/>
	<path class="st6" d="M1184.5,754.6c-20.8,0-41.8,3.3-41.8,9.7v24.9c0,6.3,21,9.7,41.8,9.7c20.8,0,41.8-3.3,41.8-9.7v-24.9
		C1226.3,757.9,1205.3,754.6,1184.5,754.6z M1224.1,789.1c0,3.1-15.1,7.5-39.6,7.5c-24.5,0-39.6-4.4-39.6-7.5v-24.9
		c0-3.1,15.1-7.5,39.6-7.5c24.5,0,39.6,4.4,39.6,7.5V789.1z"/>
</g>
<g>
</g>
</svg>
