<svg id="Layer_1" data-name="Layer 1" xmlns="http://www.w3.org/2000/svg" width="646.47" height="561.64" viewBox="0 0 646.47 561.64"><defs><style>.cls-1{fill:#e6e6e6;}.cls-2{fill:#fff;}.cls-3{fill:#ec7a08;}.cls-4{fill:#4c4c4c;}</style></defs><title>ModuleA07-ObjectStorageIntroduction</title><rect class="cls-1" y="258.71" width="646.47" height="302.94"/><rect class="cls-1" x="209.71" width="227.06" height="239.89"/><rect class="cls-2" x="229.92" y="287.82" width="186.64" height="244.72"/><rect class="cls-2" x="429.92" y="287.82" width="186.64" height="244.72"/><rect class="cls-2" x="29.92" y="287.82" width="186.64" height="244.72"/><rect class="cls-3" x="44.52" y="384.82" width="157.43" height="36.64"/><rect class="cls-1" x="44.52" y="432.67" width="157.43" height="36.64"/><rect class="cls-1" x="44.52" y="480.53" width="157.43" height="36.64"/><rect class="cls-1" x="244.52" y="384.82" width="157.43" height="36.64"/><rect class="cls-1" x="244.52" y="432.67" width="157.43" height="36.64"/><rect class="cls-1" x="244.52" y="480.53" width="157.43" height="36.64"/><rect class="cls-1" x="444.52" y="384.82" width="157.43" height="36.64"/><rect class="cls-1" x="444.52" y="432.67" width="157.43" height="36.64"/><rect class="cls-1" x="444.52" y="480.53" width="157.43" height="36.64"/><path class="cls-2" d="M110,419.77c-2.89,0-4.73-2.39-4.73-5.78s1.84-5.78,4.73-5.78,4.76,2.39,4.76,5.78S112.92,419.77,110,419.77Zm0-9.88c-2,0-3,1.59-3,4.1s1.07,4.1,3,4.1,3-1.59,3-4.1S112,409.89,110,409.89Z" transform="translate(-10.18 -11.2)"/><path class="cls-2" d="M120.64,419.77a3,3,0,0,1-2.11-1v.78H116.9V408.77l1.63-.85V412a3.2,3.2,0,0,1,2.19-1c1.81,0,3.24,1.32,3.24,4.52C124,418.41,122.39,419.77,120.64,419.77Zm-.22-7.24a2.6,2.6,0,0,0-1.91,1.08v3.53a2.69,2.69,0,0,0,2,1.11c1.19,0,1.83-.9,1.83-2.68C122.31,413.46,121.64,412.53,120.42,412.53Z" transform="translate(-10.18 -11.2)"/><path class="cls-2" d="M124.9,422.68l-.56-1.25c1.53-.43,1.76-.75,1.76-2.19v-8.05h1.65v8C127.75,421.32,127.22,422.2,124.9,422.68Zm2-12.58A1.07,1.07,0,1,1,128,409,1.07,1.07,0,0,1,126.93,410.1Z" transform="translate(-10.18 -11.2)"/><path class="cls-2" d="M137,416h-5.56c.18,1.62,1.09,2.31,2.12,2.31a3,3,0,0,0,1.82-.67l1,1.05a3.9,3.9,0,0,1-2.9,1.11c-2,0-3.63-1.59-3.63-4.37s1.5-4.39,3.68-4.39c2.38,0,3.54,1.94,3.54,4.21C137.08,415.53,137,415.8,137,416Zm-3.6-3.47c-1.11,0-1.78.77-1.92,2.11h3.9C135.33,413.46,134.79,412.5,133.43,412.5Z" transform="translate(-10.18 -11.2)"/><path class="cls-2" d="M144.4,413.61a2.72,2.72,0,0,0-2-1c-1.21,0-2,1.07-2,2.79s.7,2.83,2,2.83a2.47,2.47,0,0,0,1.91-1l1.05,1a3.55,3.55,0,0,1-3,1.57c-2.05,0-3.64-1.73-3.64-4.36,0-2.78,1.63-4.4,3.68-4.4a3.7,3.7,0,0,1,3,1.43Z" transform="translate(-10.18 -11.2)"/><path class="cls-2" d="M151.49,419.38a3.28,3.28,0,0,1-1.62.39c-1.16,0-1.88-.72-1.88-2.23v-4.85h-1.2v-1.5H148v-2.4l1.61-.87v3.27h2.08v1.5H149.6v4.57c0,.78.26,1,.87,1a2.68,2.68,0,0,0,1.21-.33Z" transform="translate(-10.18 -11.2)"/><path class="cls-2" d="M159.31,419.59V411h-2v-1.17c1.15-.08,2.1-.46,2.3-1.45H161v11.2Z" transform="translate(-10.18 -11.2)"/><path class="cls-4" d="M303.15,55.71v-5H298v5h-1.68V44.51H298V49h5.16V44.51h1.68v11.2Z" transform="translate(-10.18 -11.2)"/><path class="cls-4" d="M311.94,55.89c-2.89,0-4.73-2.39-4.73-5.78s1.84-5.78,4.73-5.78,4.76,2.39,4.76,5.78S314.86,55.89,311.94,55.89Zm0-9.88c-1.95,0-3,1.59-3,4.1s1.07,4.1,3,4.1,3.05-1.59,3.05-4.1S313.91,46,311.94,46Z" transform="translate(-10.18 -11.2)"/><path class="cls-4" d="M322.2,55.89a5.16,5.16,0,0,1-4-1.81l1.2-1.17a4.06,4.06,0,0,0,2.91,1.33c1.57,0,2.32-.54,2.32-1.63,0-.87-.66-1.3-2.53-1.86-2.37-.7-3.5-1.29-3.5-3.3s1.63-3.12,3.69-3.12A5,5,0,0,1,326,45.85l-1.19,1.2A3.38,3.38,0,0,0,322.18,46c-1.31,0-1.87.64-1.87,1.39s.51,1.17,2.45,1.75c2.21.67,3.59,1.38,3.59,3.38S325.07,55.89,322.2,55.89Z" transform="translate(-10.18 -11.2)"/><path class="cls-4" d="M332.7,46.16v9.55H331V46.16h-3.27V44.51H336v1.65Z" transform="translate(-10.18 -11.2)"/><path class="cls-4" d="M336.54,57.15h-1.65l5-14.08h1.65Z" transform="translate(-10.18 -11.2)"/><path class="cls-4" d="M348.54,55.71l-.94-2.65h-4.48l-.93,2.65h-1.75l4-11.2h1.78l4.08,11.2ZM346.19,49c-.27-.8-.72-2.09-.85-2.57-.13.48-.53,1.76-.81,2.59l-.9,2.56h3.46Z" transform="translate(-10.18 -11.2)"/><path class="cls-4" d="M357.12,51.54h-2.93v4.17h-1.65V44.51h4.69a3.29,3.29,0,0,1,3.6,3.5C360.83,50.32,359.3,51.54,357.12,51.54Zm.08-5.45h-3V50h3A1.74,1.74,0,0,0,359.12,48,1.77,1.77,0,0,0,357.2,46.09Z" transform="translate(-10.18 -11.2)"/><path class="cls-4" d="M367.57,51.54h-2.93v4.17H363V44.51h4.69a3.29,3.29,0,0,1,3.6,3.5C371.28,50.32,369.74,51.54,367.57,51.54Zm.08-5.45h-3V50h3A1.74,1.74,0,0,0,369.57,48,1.77,1.77,0,0,0,367.65,46.09Z" transform="translate(-10.18 -11.2)"/><path class="cls-4" d="M107.68,467.63c-2.9,0-4.74-2.39-4.74-5.78s1.84-5.78,4.74-5.78,4.75,2.39,4.75,5.78S110.59,467.63,107.68,467.63Zm0-9.88c-2,0-3,1.59-3,4.1s1.07,4.1,3,4.1,3-1.59,3-4.1S109.64,457.75,107.68,457.75Z" transform="translate(-10.18 -11.2)"/><path class="cls-4" d="M118.32,467.63a3,3,0,0,1-2.12-1v.78h-1.63V456.63l1.63-.85v4.07a3.23,3.23,0,0,1,2.2-1c1.8,0,3.23,1.31,3.23,4.52C121.63,466.27,120.06,467.63,118.32,467.63Zm-.23-7.24a2.57,2.57,0,0,0-1.9,1.08V465a2.66,2.66,0,0,0,2,1.11c1.18,0,1.82-.9,1.82-2.68C120,461.32,119.31,460.39,118.09,460.39Z" transform="translate(-10.18 -11.2)"/><path class="cls-4" d="M122.57,470.54l-.56-1.25c1.54-.43,1.76-.75,1.76-2.19v-8.05h1.65v8C125.42,469.18,124.89,470.06,122.57,470.54Zm2-12.58a1.07,1.07,0,1,1,1.06-1.06A1.07,1.07,0,0,1,124.6,458Z" transform="translate(-10.18 -11.2)"/><path class="cls-4" d="M134.7,463.83h-5.55c.17,1.62,1.08,2.31,2.11,2.31a3,3,0,0,0,1.82-.67l1,1a3.9,3.9,0,0,1-2.9,1.11c-2,0-3.63-1.59-3.63-4.37s1.5-4.39,3.68-4.39c2.39,0,3.54,1.94,3.54,4.21A6.32,6.32,0,0,1,134.7,463.83Zm-3.6-3.47c-1.11,0-1.78.77-1.92,2.11h3.9C133,461.32,132.46,460.36,131.1,460.36Z" transform="translate(-10.18 -11.2)"/><path class="cls-4" d="M142.08,461.47a2.76,2.76,0,0,0-2.05-1c-1.2,0-2,1.07-2,2.79s.7,2.83,2,2.83a2.47,2.47,0,0,0,1.9-1l1.06,1a3.58,3.58,0,0,1-3,1.57c-2.05,0-3.64-1.73-3.64-4.36s1.64-4.4,3.69-4.4a3.7,3.7,0,0,1,3,1.43Z" transform="translate(-10.18 -11.2)"/><path class="cls-4" d="M149.16,467.24a3.27,3.27,0,0,1-1.61.39c-1.17,0-1.89-.72-1.89-2.23v-4.85h-1.2v-1.5h1.2v-2.4l1.61-.87v3.27h2.09v1.5h-2.09v4.56c0,.79.26,1,.87,1a2.76,2.76,0,0,0,1.22-.33Z" transform="translate(-10.18 -11.2)"/><path class="cls-4" d="M155.46,467.45c.12-3.28,2.1-4.74,4.31-6.05,1.52-.89,1.91-1.39,1.91-2.18s-.61-1.47-2.15-1.47a4.08,4.08,0,0,0-2.7,1.12l-1.08-1.28a5.77,5.77,0,0,1,3.83-1.52c2.32,0,3.81,1,3.81,3.06,0,1.73-.85,2.46-2.82,3.63-2.14,1.27-2.75,2-3,3.06h5.94v1.63Z" transform="translate(-10.18 -11.2)"/><path class="cls-4" d="M107.84,515.49c-2.89,0-4.73-2.39-4.73-5.78s1.84-5.78,4.73-5.78,4.76,2.39,4.76,5.78S110.76,515.49,107.84,515.49Zm0-9.88c-2,0-3,1.59-3,4.1s1.07,4.1,3,4.1,3-1.59,3-4.1S109.81,505.61,107.84,505.61Z" transform="translate(-10.18 -11.2)"/><path class="cls-4" d="M118.48,515.49a3,3,0,0,1-2.11-1v.78h-1.63V504.49l1.63-.85v4.07a3.2,3.2,0,0,1,2.19-1c1.81,0,3.24,1.31,3.24,4.52C121.8,514.13,120.23,515.49,118.48,515.49Zm-.22-7.24a2.63,2.63,0,0,0-1.91,1.07v3.54a2.69,2.69,0,0,0,2,1.11c1.19,0,1.83-.9,1.83-2.68C120.15,509.18,119.48,508.25,118.26,508.25Z" transform="translate(-10.18 -11.2)"/><path class="cls-4" d="M122.74,518.4l-.56-1.25c1.53-.43,1.76-.75,1.76-2.19v-8.05h1.65v8C125.59,517,125.06,517.92,122.74,518.4Zm2-12.58a1.07,1.07,0,1,1,1.06-1.06A1.07,1.07,0,0,1,124.77,505.82Z" transform="translate(-10.18 -11.2)"/><path class="cls-4" d="M134.87,511.69h-5.56c.18,1.62,1.09,2.31,2.12,2.31a3,3,0,0,0,1.82-.67l1,1a3.9,3.9,0,0,1-2.9,1.11c-2,0-3.63-1.59-3.63-4.37s1.5-4.39,3.68-4.39c2.38,0,3.54,1.94,3.54,4.21C134.92,511.25,134.88,511.52,134.87,511.69Zm-3.6-3.47c-1.11,0-1.78.77-1.92,2.11h3.9C133.17,509.18,132.63,508.22,131.27,508.22Z" transform="translate(-10.18 -11.2)"/><path class="cls-4" d="M142.24,509.32a2.75,2.75,0,0,0-2.05-1c-1.2,0-2,1.07-2,2.79s.7,2.83,2,2.83a2.47,2.47,0,0,0,1.91-1l1,1a3.55,3.55,0,0,1-3,1.57c-2,0-3.63-1.73-3.63-4.36s1.63-4.4,3.68-4.4a3.7,3.7,0,0,1,3,1.43Z" transform="translate(-10.18 -11.2)"/><path class="cls-4" d="M149.33,515.1a3.28,3.28,0,0,1-1.62.39c-1.16,0-1.88-.72-1.88-2.23v-4.85h-1.2v-1.5h1.2v-2.4l1.61-.87v3.27h2.08v1.5h-2.08V513c0,.79.26,1,.87,1a2.68,2.68,0,0,0,1.21-.33Z" transform="translate(-10.18 -11.2)"/><path class="cls-4" d="M159.33,515.49a5,5,0,0,1-4-1.86l1.28-1.09a3.49,3.49,0,0,0,2.75,1.28c1.79,0,2.45-.69,2.45-1.84s-.87-1.68-2-1.68h-1v-1.63h1a1.47,1.47,0,0,0,1.59-1.54c0-.64-.47-1.54-2.12-1.54a3,3,0,0,0-2.21,1.05l-1.25-1.19a4.68,4.68,0,0,1,3.49-1.52c2.12,0,3.83,1.09,3.83,3a2.52,2.52,0,0,1-1.36,2.45,2.47,2.47,0,0,1,1.82,2.56C163.52,514.27,162,515.49,159.33,515.49Z" transform="translate(-10.18 -11.2)"/><path class="cls-4" d="M307.4,419.77c-2.89,0-4.73-2.39-4.73-5.78s1.84-5.78,4.73-5.78,4.76,2.39,4.76,5.78S310.32,419.77,307.4,419.77Zm0-9.88c-1.95,0-3,1.59-3,4.1s1.07,4.1,3,4.1,3-1.59,3-4.1S309.37,409.89,307.4,409.89Z" transform="translate(-10.18 -11.2)"/><path class="cls-4" d="M318,419.77a3,3,0,0,1-2.11-1v.78H314.3V408.77l1.63-.85V412a3.2,3.2,0,0,1,2.19-1c1.81,0,3.24,1.32,3.24,4.52C321.36,418.41,319.79,419.77,318,419.77Zm-.22-7.24a2.59,2.59,0,0,0-1.91,1.08v3.53a2.69,2.69,0,0,0,2,1.11c1.19,0,1.83-.9,1.83-2.68C319.71,413.46,319,412.53,317.82,412.53Z" transform="translate(-10.18 -11.2)"/><path class="cls-4" d="M322.3,422.68l-.56-1.25c1.53-.43,1.76-.75,1.76-2.19v-8.05h1.65v8C325.15,421.32,324.62,422.2,322.3,422.68Zm2-12.58a1.07,1.07,0,1,1,1.06-1.06A1.07,1.07,0,0,1,324.33,410.1Z" transform="translate(-10.18 -11.2)"/><path class="cls-4" d="M334.43,416h-5.56c.18,1.62,1.09,2.31,2.12,2.31a3,3,0,0,0,1.82-.67l1,1.05a3.9,3.9,0,0,1-2.9,1.11c-2,0-3.63-1.59-3.63-4.37s1.5-4.39,3.68-4.39c2.38,0,3.54,1.94,3.54,4.21C334.48,415.53,334.44,415.8,334.43,416Zm-3.6-3.47c-1.11,0-1.78.77-1.92,2.11h3.9C332.73,413.46,332.19,412.5,330.83,412.5Z" transform="translate(-10.18 -11.2)"/><path class="cls-4" d="M341.8,413.61a2.73,2.73,0,0,0-2.05-1c-1.2,0-2,1.07-2,2.79s.7,2.83,2,2.83a2.47,2.47,0,0,0,1.91-1l1.05,1a3.55,3.55,0,0,1-3,1.57c-2,0-3.63-1.73-3.63-4.36,0-2.78,1.63-4.4,3.68-4.4a3.7,3.7,0,0,1,3,1.43Z" transform="translate(-10.18 -11.2)"/><path class="cls-4" d="M348.89,419.38a3.28,3.28,0,0,1-1.62.39c-1.16,0-1.88-.72-1.88-2.23v-4.85h-1.2v-1.5h1.2v-2.4l1.61-.87v3.27h2.08v1.5H347v4.57c0,.78.26,1,.87,1a2.68,2.68,0,0,0,1.21-.33Z" transform="translate(-10.18 -11.2)"/><path class="cls-4" d="M362.78,417.08v2.51h-1.63v-2.46h-6.07v-1.6l5.78-7.14h1.92v7.2h1.49v1.49Zm-2.59-5.48L358,414.36c-.34.43-.82,1-1.06,1.25l1.81,0h2.37v-3.26c0-.65.05-1.64.05-2.05C361,410.56,360.56,411.14,360.19,411.6Z" transform="translate(-10.18 -11.2)"/><path class="cls-4" d="M307.65,467.63c-2.9,0-4.74-2.39-4.74-5.78s1.84-5.78,4.74-5.78,4.76,2.39,4.76,5.78S310.57,467.63,307.65,467.63Zm0-9.88c-1.95,0-3,1.59-3,4.1s1.07,4.1,3,4.1,3-1.59,3-4.1S309.62,457.75,307.65,457.75Z" transform="translate(-10.18 -11.2)"/><path class="cls-4" d="M318.29,467.63a3,3,0,0,1-2.11-1v.78h-1.63V456.63l1.63-.85v4.07a3.2,3.2,0,0,1,2.19-1c1.81,0,3.23,1.31,3.23,4.52C321.6,466.27,320,467.63,318.29,467.63Zm-.22-7.24a2.57,2.57,0,0,0-1.91,1.08V465a2.69,2.69,0,0,0,2,1.11c1.19,0,1.83-.9,1.83-2.68C320,461.32,319.28,460.39,318.07,460.39Z" transform="translate(-10.18 -11.2)"/><path class="cls-4" d="M322.55,470.54l-.56-1.25c1.53-.43,1.76-.75,1.76-2.19v-8.05h1.64v8C325.39,469.18,324.87,470.06,322.55,470.54Zm2-12.58a1.07,1.07,0,1,1,1.05-1.06A1.07,1.07,0,0,1,324.58,458Z" transform="translate(-10.18 -11.2)"/><path class="cls-4" d="M334.68,463.83h-5.56c.18,1.62,1.09,2.31,2.12,2.31a3,3,0,0,0,1.82-.67l1,1a3.9,3.9,0,0,1-2.9,1.11c-2,0-3.63-1.59-3.63-4.37s1.5-4.39,3.68-4.39c2.38,0,3.53,1.94,3.53,4.21C334.72,463.39,334.69,463.66,334.68,463.83Zm-3.6-3.47c-1.11,0-1.78.77-1.93,2.11h3.91C333,461.32,332.44,460.36,331.08,460.36Z" transform="translate(-10.18 -11.2)"/><path class="cls-4" d="M342.05,461.47a2.74,2.74,0,0,0-2.05-1c-1.2,0-2,1.07-2,2.79s.71,2.83,2,2.83a2.47,2.47,0,0,0,1.91-1l1.05,1a3.57,3.57,0,0,1-3,1.57c-2.05,0-3.63-1.73-3.63-4.36s1.63-4.4,3.68-4.4a3.73,3.73,0,0,1,3,1.43Z" transform="translate(-10.18 -11.2)"/><path class="cls-4" d="M349.14,467.24a3.28,3.28,0,0,1-1.62.39c-1.17,0-1.89-.72-1.89-2.23v-4.85h-1.2v-1.5h1.2v-2.4l1.62-.87v3.27h2.08v1.5h-2.08v4.56c0,.79.26,1,.86,1a2.68,2.68,0,0,0,1.22-.33Z" transform="translate(-10.18 -11.2)"/><path class="cls-4" d="M359.44,467.63a7,7,0,0,1-3.9-1.11l.81-1.39a6.81,6.81,0,0,0,3.14.87c1.75,0,2.66-.85,2.66-2.28s-.88-2-2.27-2a3.34,3.34,0,0,0-2.17.71l-1.79-.71.39-5.47h6.88v1.6h-5.38l-.22,2.83a4.79,4.79,0,0,1,2.41-.58c2.56,0,3.86,1.51,3.86,3.54C363.86,466.38,362,467.63,359.44,467.63Z" transform="translate(-10.18 -11.2)"/><path class="cls-4" d="M308,515.49c-2.9,0-4.74-2.39-4.74-5.78s1.84-5.78,4.74-5.78,4.75,2.39,4.75,5.78S310.9,515.49,308,515.49Zm0-9.88c-2,0-3,1.59-3,4.1s1.07,4.1,3,4.1,3-1.59,3-4.1S310,505.61,308,505.61Z" transform="translate(-10.18 -11.2)"/><path class="cls-4" d="M318.63,515.49a3,3,0,0,1-2.12-1v.78h-1.63V504.49l1.63-.85v4.07a3.23,3.23,0,0,1,2.2-1c1.81,0,3.23,1.31,3.23,4.52C321.94,514.13,320.37,515.49,318.63,515.49Zm-.23-7.24a2.59,2.59,0,0,0-1.9,1.07v3.54a2.68,2.68,0,0,0,2,1.11c1.18,0,1.82-.9,1.82-2.68C320.29,509.18,319.62,508.25,318.4,508.25Z" transform="translate(-10.18 -11.2)"/><path class="cls-4" d="M322.88,518.4l-.56-1.25c1.54-.43,1.76-.75,1.76-2.19v-8.05h1.65v8C325.73,517,325.2,517.92,322.88,518.4Zm2-12.58a1.07,1.07,0,1,1,1.06-1.06A1.07,1.07,0,0,1,324.91,505.82Z" transform="translate(-10.18 -11.2)"/><path class="cls-4" d="M335,511.69h-5.55c.17,1.62,1.09,2.31,2.11,2.31a3,3,0,0,0,1.83-.67l1,1a3.86,3.86,0,0,1-2.89,1.11c-2,0-3.64-1.59-3.64-4.37s1.51-4.39,3.68-4.39c2.39,0,3.54,1.94,3.54,4.21A6.32,6.32,0,0,1,335,511.69Zm-3.6-3.47c-1.1,0-1.78.77-1.92,2.11h3.91C333.32,509.18,332.77,508.22,331.41,508.22Z" transform="translate(-10.18 -11.2)"/><path class="cls-4" d="M342.39,509.32a2.78,2.78,0,0,0-2.05-1c-1.2,0-2,1.07-2,2.79s.7,2.83,2,2.83a2.47,2.47,0,0,0,1.9-1l1.06,1a3.58,3.58,0,0,1-3,1.57c-2,0-3.63-1.73-3.63-4.36s1.63-4.4,3.68-4.4a3.7,3.7,0,0,1,3,1.43Z" transform="translate(-10.18 -11.2)"/><path class="cls-4" d="M349.47,515.1a3.27,3.27,0,0,1-1.61.39c-1.17,0-1.89-.72-1.89-2.23v-4.85h-1.2v-1.5H346v-2.4l1.62-.87v3.27h2.08v1.5h-2.08V513c0,.79.25,1,.86,1a2.76,2.76,0,0,0,1.22-.33Z" transform="translate(-10.18 -11.2)"/><path class="cls-4" d="M359.49,515.31h-1.7a15.42,15.42,0,0,1,3.48-9.57h-5.88v-1.63h7.83v1.69A14.63,14.63,0,0,0,359.49,515.31Z" transform="translate(-10.18 -11.2)"/><path class="cls-4" d="M507.38,419.77c-2.9,0-4.74-2.39-4.74-5.78s1.84-5.78,4.74-5.78,4.75,2.39,4.75,5.78S510.29,419.77,507.38,419.77Zm0-9.88c-1.95,0-3,1.59-3,4.1s1.08,4.1,3,4.1,3-1.59,3-4.1S509.35,409.89,507.38,409.89Z" transform="translate(-10.18 -11.2)"/><path class="cls-4" d="M518,419.77a3,3,0,0,1-2.11-1v.78h-1.64V408.77l1.64-.85V412a3.18,3.18,0,0,1,2.19-1c1.81,0,3.23,1.32,3.23,4.52C521.33,418.41,519.76,419.77,518,419.77Zm-.22-7.24a2.57,2.57,0,0,0-1.91,1.08v3.53a2.69,2.69,0,0,0,2,1.11c1.18,0,1.82-.9,1.82-2.68C519.68,413.46,519,412.53,517.8,412.53Z" transform="translate(-10.18 -11.2)"/><path class="cls-4" d="M522.27,422.68l-.56-1.25c1.54-.43,1.76-.75,1.76-2.19v-8.05h1.65v8C525.12,421.32,524.59,422.2,522.27,422.68Zm2-12.58a1.07,1.07,0,1,1,1.05-1.06A1.07,1.07,0,0,1,524.31,410.1Z" transform="translate(-10.18 -11.2)"/><path class="cls-4" d="M534.4,416h-5.55c.18,1.62,1.09,2.31,2.11,2.31a3,3,0,0,0,1.83-.67l1,1.05a3.86,3.86,0,0,1-2.89,1.11c-2,0-3.64-1.59-3.64-4.37s1.51-4.39,3.69-4.39c2.38,0,3.53,1.94,3.53,4.21A6.32,6.32,0,0,1,534.4,416Zm-3.6-3.47c-1.1,0-1.77.77-1.92,2.11h3.91C532.71,413.46,532.16,412.5,530.8,412.5Z" transform="translate(-10.18 -11.2)"/><path class="cls-4" d="M541.78,413.61a2.76,2.76,0,0,0-2-1c-1.2,0-2,1.07-2,2.79s.71,2.83,2,2.83a2.46,2.46,0,0,0,1.9-1l1.06,1a3.58,3.58,0,0,1-3,1.57c-2.05,0-3.63-1.73-3.63-4.36,0-2.78,1.63-4.4,3.68-4.4a3.73,3.73,0,0,1,3,1.43Z" transform="translate(-10.18 -11.2)"/><path class="cls-4" d="M548.87,419.38a3.28,3.28,0,0,1-1.62.39c-1.17,0-1.89-.72-1.89-2.23v-4.85h-1.2v-1.5h1.2v-2.4l1.62-.87v3.27h2.08v1.5H547v4.57c0,.78.25,1,.86,1a2.72,2.72,0,0,0,1.22-.33Z" transform="translate(-10.18 -11.2)"/><path class="cls-4" d="M559.73,419.77c-2.7,0-4.37-1.23-4.37-3.44a2.8,2.8,0,0,1,2-2.79,2.35,2.35,0,0,1-1.51-2.16c0-2.16,1.75-3.17,3.94-3.17,2,0,3.9,1,3.9,3.14a2.38,2.38,0,0,1-1.5,2.19,2.8,2.8,0,0,1,2,2.79C564.16,418.54,562.44,419.77,559.73,419.77Zm0-5.32c-1.8,0-2.69.71-2.69,1.85s1,1.93,2.7,1.93,2.71-.77,2.71-1.85S561.62,414.45,559.75,414.45Zm0-4.7c-1.64,0-2.21.73-2.21,1.58s.85,1.54,2.24,1.54,2.21-.66,2.21-1.47S561.38,409.75,559.75,409.75Z" transform="translate(-10.18 -11.2)"/><path class="cls-4" d="M507.65,467.63c-2.89,0-4.74-2.39-4.74-5.78s1.85-5.78,4.74-5.78,4.76,2.39,4.76,5.78S510.57,467.63,507.65,467.63Zm0-9.88c-1.95,0-3,1.59-3,4.1s1.07,4.1,3,4.1,3-1.59,3-4.1S509.62,457.75,507.65,457.75Z" transform="translate(-10.18 -11.2)"/><path class="cls-4" d="M518.29,467.63a3,3,0,0,1-2.11-1v.78h-1.63V456.63l1.63-.85v4.07a3.2,3.2,0,0,1,2.19-1c1.81,0,3.23,1.31,3.23,4.52C521.6,466.27,520,467.63,518.29,467.63Zm-.22-7.24a2.57,2.57,0,0,0-1.91,1.08V465a2.69,2.69,0,0,0,2,1.11c1.19,0,1.83-.9,1.83-2.68C520,461.32,519.28,460.39,518.07,460.39Z" transform="translate(-10.18 -11.2)"/><path class="cls-4" d="M522.55,470.54l-.56-1.25c1.53-.43,1.76-.75,1.76-2.19v-8.05h1.64v8C525.39,469.18,524.87,470.06,522.55,470.54Zm2-12.58a1.07,1.07,0,1,1,1-1.06A1.07,1.07,0,0,1,524.58,458Z" transform="translate(-10.18 -11.2)"/><path class="cls-4" d="M534.68,463.83h-5.56c.18,1.62,1.09,2.31,2.12,2.31a3,3,0,0,0,1.82-.67l1,1a3.9,3.9,0,0,1-2.9,1.11c-2,0-3.63-1.59-3.63-4.37s1.5-4.39,3.68-4.39c2.38,0,3.53,1.94,3.53,4.21C534.72,463.39,534.69,463.66,534.68,463.83Zm-3.6-3.47c-1.11,0-1.78.77-1.93,2.11h3.91C533,461.32,532.44,460.36,531.08,460.36Z" transform="translate(-10.18 -11.2)"/><path class="cls-4" d="M542.05,461.47a2.74,2.74,0,0,0-2-1c-1.2,0-2,1.07-2,2.79s.71,2.83,2,2.83a2.47,2.47,0,0,0,1.91-1l1,1a3.57,3.57,0,0,1-3,1.57c-2,0-3.63-1.73-3.63-4.36s1.63-4.4,3.68-4.4a3.73,3.73,0,0,1,3,1.43Z" transform="translate(-10.18 -11.2)"/><path class="cls-4" d="M549.14,467.24a3.28,3.28,0,0,1-1.62.39c-1.17,0-1.89-.72-1.89-2.23v-4.85h-1.2v-1.5h1.2v-2.4l1.62-.87v3.27h2.08v1.5h-2.08v4.56c0,.79.26,1,.86,1a2.68,2.68,0,0,0,1.22-.33Z" transform="translate(-10.18 -11.2)"/><path class="cls-4" d="M557,467.63V466c2.57-.11,4.33-1.29,5.05-3.63a4.24,4.24,0,0,1-2.94.9c-2,0-3.76-1.12-3.76-3.51s1.92-3.73,4.38-3.73,4.21,1.3,4.21,4.47C564,463.47,562.34,467.47,557,467.63Zm2.67-9.93c-1.7,0-2.63.8-2.63,2.07s.95,2,2.55,2,2.64-.66,2.64-2C562.26,458.66,561.38,457.7,559.7,457.7Z" transform="translate(-10.18 -11.2)"/><path class="cls-4" d="M504.71,515.49c-2.9,0-4.74-2.39-4.74-5.78s1.84-5.78,4.74-5.78,4.75,2.39,4.75,5.78S507.62,515.49,504.71,515.49Zm0-9.88c-1.95,0-3,1.59-3,4.1s1.08,4.1,3,4.1,3-1.59,3-4.1S506.68,505.61,504.71,505.61Z" transform="translate(-10.18 -11.2)"/><path class="cls-4" d="M515.35,515.49a3,3,0,0,1-2.11-1v.78H511.6V504.49l1.64-.85v4.07a3.18,3.18,0,0,1,2.19-1c1.81,0,3.23,1.31,3.23,4.52C518.66,514.13,517.09,515.49,515.35,515.49Zm-.23-7.24a2.59,2.59,0,0,0-1.9,1.07v3.54a2.69,2.69,0,0,0,2,1.11c1.18,0,1.82-.9,1.82-2.68C517,509.18,516.34,508.25,515.12,508.25Z" transform="translate(-10.18 -11.2)"/><path class="cls-4" d="M519.6,518.4l-.56-1.25c1.54-.43,1.76-.75,1.76-2.19v-8.05h1.65v8C522.45,517,521.92,517.92,519.6,518.4Zm2-12.58a1.07,1.07,0,1,1,1.06-1.06A1.07,1.07,0,0,1,521.63,505.82Z" transform="translate(-10.18 -11.2)"/><path class="cls-4" d="M531.73,511.69h-5.55c.17,1.62,1.09,2.31,2.11,2.31a3,3,0,0,0,1.83-.67l1,1a3.86,3.86,0,0,1-2.89,1.11c-2,0-3.64-1.59-3.64-4.37s1.51-4.39,3.68-4.39c2.39,0,3.54,1.94,3.54,4.21A6.32,6.32,0,0,1,531.73,511.69Zm-3.6-3.47c-1.1,0-1.78.77-1.92,2.11h3.91C530,509.18,529.49,508.22,528.13,508.22Z" transform="translate(-10.18 -11.2)"/><path class="cls-4" d="M539.11,509.32a2.78,2.78,0,0,0-2.05-1c-1.2,0-2,1.07-2,2.79s.71,2.83,2,2.83a2.46,2.46,0,0,0,1.9-1l1.06,1a3.58,3.58,0,0,1-3,1.57c-2,0-3.63-1.73-3.63-4.36s1.63-4.4,3.68-4.4a3.73,3.73,0,0,1,3,1.43Z" transform="translate(-10.18 -11.2)"/><path class="cls-4" d="M546.2,515.1a3.28,3.28,0,0,1-1.62.39c-1.17,0-1.89-.72-1.89-2.23v-4.85h-1.2v-1.5h1.2v-2.4l1.62-.87v3.27h2.08v1.5h-2.08V513c0,.79.25,1,.86,1a2.76,2.76,0,0,0,1.22-.33Z" transform="translate(-10.18 -11.2)"/><path class="cls-4" d="M554,515.31v-8.58h-2v-1.17c1.16-.08,2.1-.46,2.31-1.45h1.36v11.2Z" transform="translate(-10.18 -11.2)"/><path class="cls-4" d="M562.48,515.49c-2.89,0-4.4-2.37-4.4-5.77s1.54-5.79,4.43-5.79,4.41,2.37,4.41,5.76S565.38,515.49,562.48,515.49Zm0-9.93c-2,0-2.7,1.78-2.7,4.13s.78,4.16,2.73,4.16,2.71-1.77,2.71-4.13S564.45,505.56,562.48,505.56Z" transform="translate(-10.18 -11.2)"/><path class="cls-2" d="M333.42,327.32c-22.62,0-36.51,4-36.51,6.89v22.93c0,2.88,13.89,6.9,36.51,6.9s36.5-4,36.5-6.9V334.21C369.92,331.33,356,327.32,333.42,327.32Zm-20.88,13.95h-.07a66.43,66.43,0,0,1-10.39-2.19.5.5,0,0,1-.33-.63.49.49,0,0,1,.63-.32,65.59,65.59,0,0,0,10.23,2.15.5.5,0,0,1,.42.56A.5.5,0,0,1,312.54,341.27Zm52.71-2.09c-7,2.31-18.9,3.68-31.83,3.68-4.19,0-8.3-.14-12.23-.43a.75.75,0,0,1,.11-1.49c3.89.28,8,.42,12.12.42,12.78,0,24.5-1.35,31.36-3.6a.75.75,0,1,1,.47,1.42Z" transform="translate(-10.18 -11.2)"/><path class="cls-2" d="M133.42,327.32c-22.62,0-36.51,4-36.51,6.89v22.93c0,2.88,13.89,6.9,36.51,6.9s36.5-4,36.5-6.9V334.21C169.92,331.33,156,327.32,133.42,327.32Zm-20.88,13.95h-.07a66.43,66.43,0,0,1-10.39-2.19.5.5,0,0,1-.33-.63.49.49,0,0,1,.63-.32,65.59,65.59,0,0,0,10.23,2.15.5.5,0,0,1,.42.56A.5.5,0,0,1,112.54,341.27Zm52.71-2.09c-7,2.31-18.9,3.68-31.83,3.68-4.19,0-8.3-.14-12.23-.43a.75.75,0,1,1,.11-1.49c3.89.28,8,.42,12.12.42,12.78,0,24.5-1.35,31.36-3.6a.75.75,0,1,1,.47,1.42Z" transform="translate(-10.18 -11.2)"/><path class="cls-2" d="M533.42,327.32c-22.62,0-36.51,4-36.51,6.89v22.93c0,2.88,13.89,6.9,36.51,6.9s36.5-4,36.5-6.9V334.21C569.92,331.33,556,327.32,533.42,327.32Zm-20.88,13.95h-.07a66.43,66.43,0,0,1-10.39-2.19.5.5,0,0,1-.33-.63.49.49,0,0,1,.63-.32,65.59,65.59,0,0,0,10.23,2.15.5.5,0,0,1,.42.56A.5.5,0,0,1,512.54,341.27Zm52.71-2.09c-7,2.31-18.9,3.68-31.83,3.68-4.19,0-8.3-.14-12.23-.43a.75.75,0,1,1,.11-1.49c3.89.28,8,.42,12.12.42,12.78,0,24.5-1.35,31.36-3.6a.75.75,0,1,1,.47,1.42Z" transform="translate(-10.18 -11.2)"/><path class="cls-4" d="M112.61,340.28a65.59,65.59,0,0,1-10.23-2.15.49.49,0,0,0-.63.32.5.5,0,0,0,.33.63,66.43,66.43,0,0,0,10.39,2.19h.07a.5.5,0,0,0,.49-.43A.5.5,0,0,0,112.61,340.28Z" transform="translate(-10.18 -11.2)"/><path class="cls-4" d="M164.78,337.76c-6.86,2.25-18.58,3.6-31.36,3.6-4.15,0-8.23-.14-12.12-.42a.75.75,0,1,0-.11,1.49c3.93.29,8,.43,12.23.43,12.93,0,24.83-1.37,31.83-3.68a.75.75,0,1,0-.47-1.42Z" transform="translate(-10.18 -11.2)"/><path class="cls-4" d="M133.42,325.32c-19.14,0-38.51,3.05-38.51,8.89v22.93c0,5.84,19.37,8.9,38.51,8.9s38.5-3.06,38.5-8.9V334.21C171.92,328.37,152.55,325.32,133.42,325.32Zm36.5,31.82c0,2.88-13.89,6.9-36.5,6.9s-36.51-4-36.51-6.9V334.21c0-2.88,13.89-6.89,36.51-6.89s36.5,4,36.5,6.89Z" transform="translate(-10.18 -11.2)"/><path class="cls-4" d="M312.61,340.28a65.59,65.59,0,0,1-10.23-2.15.49.49,0,0,0-.63.32.5.5,0,0,0,.33.63,66.43,66.43,0,0,0,10.39,2.19h.07a.5.5,0,0,0,.49-.43A.5.5,0,0,0,312.61,340.28Z" transform="translate(-10.18 -11.2)"/><path class="cls-4" d="M364.78,337.76c-6.86,2.25-18.58,3.6-31.36,3.6-4.15,0-8.23-.14-12.12-.42a.75.75,0,0,0-.11,1.49c3.93.29,8,.43,12.23.43,12.93,0,24.83-1.37,31.83-3.68a.75.75,0,1,0-.47-1.42Z" transform="translate(-10.18 -11.2)"/><path class="cls-4" d="M333.42,325.32c-19.14,0-38.51,3.05-38.51,8.89v22.93c0,5.84,19.37,8.9,38.51,8.9s38.5-3.06,38.5-8.9V334.21C371.92,328.37,352.55,325.32,333.42,325.32Zm36.5,31.82c0,2.88-13.89,6.9-36.5,6.9s-36.51-4-36.51-6.9V334.21c0-2.88,13.89-6.89,36.51-6.89s36.5,4,36.5,6.89Z" transform="translate(-10.18 -11.2)"/><path class="cls-4" d="M512.61,340.28a65.59,65.59,0,0,1-10.23-2.15.49.49,0,0,0-.63.32.5.5,0,0,0,.33.63,66.43,66.43,0,0,0,10.39,2.19h.07a.5.5,0,0,0,.49-.43A.5.5,0,0,0,512.61,340.28Z" transform="translate(-10.18 -11.2)"/><path class="cls-4" d="M564.78,337.76c-6.86,2.25-18.58,3.6-31.36,3.6-4.15,0-8.23-.14-12.12-.42a.75.75,0,1,0-.11,1.49c3.93.29,8,.43,12.23.43,12.93,0,24.83-1.37,31.83-3.68a.75.75,0,1,0-.47-1.42Z" transform="translate(-10.18 -11.2)"/><path class="cls-4" d="M533.42,325.32c-19.14,0-38.51,3.05-38.51,8.89v22.93c0,5.84,19.37,8.9,38.51,8.9s38.5-3.06,38.5-8.9V334.21C571.92,328.37,552.55,325.32,533.42,325.32Zm36.5,31.82c0,2.88-13.89,6.9-36.5,6.9s-36.51-4-36.51-6.9V334.21c0-2.88,13.89-6.89,36.51-6.89s36.5,4,36.5,6.89Z" transform="translate(-10.18 -11.2)"/><rect class="cls-2" x="346.39" y="146.94" width="2.1" height="7.37"/><rect class="cls-2" x="340.07" y="146.94" width="2.1" height="7.37"/><path class="cls-2" d="M304.2,169.62h58.44V154.3H304.2Zm51.32-12a.52.52,0,0,1,.53-.52h3.15a.52.52,0,0,1,.53.52V166a.53.53,0,0,1-.53.53h-3.15a.53.53,0,0,1-.53-.53Zm-6.32,0a.52.52,0,0,1,.53-.52h3.16a.52.52,0,0,1,.52.52V166a.52.52,0,0,1-.52.53h-3.16a.53.53,0,0,1-.53-.53Zm-34.55,2.85a1.45,1.45,0,1,1-1.44,1.44A1.45,1.45,0,0,1,314.65,160.46Zm-5.13,0a1.45,1.45,0,1,1-1.45,1.44A1.45,1.45,0,0,1,309.52,160.46Z" transform="translate(-10.18 -11.2)"/><polygon class="cls-2" points="343.19 59.22 304.69 59.22 295.1 63.03 351.59 63.03 343.19 59.22"/><rect class="cls-2" x="294.02" y="123.82" width="58.44" height="17.15"/><rect class="cls-2" x="294.02" y="65.13" width="58.44" height="56.59"/><path class="cls-4" d="M309.52,163.35a1.45,1.45,0,1,0-1.45-1.45A1.45,1.45,0,0,0,309.52,163.35Z" transform="translate(-10.18 -11.2)"/><path class="cls-4" d="M314.65,163.35a1.45,1.45,0,1,0-1.44-1.45A1.45,1.45,0,0,0,314.65,163.35Z" transform="translate(-10.18 -11.2)"/><path class="cls-4" d="M356.05,166.56h3.15a.53.53,0,0,0,.53-.53v-8.42a.52.52,0,0,0-.53-.52h-3.15a.52.52,0,0,0-.53.52V166A.53.53,0,0,0,356.05,166.56Zm.52-8.42h2.1v7.37h-2.1Z" transform="translate(-10.18 -11.2)"/><path class="cls-4" d="M349.73,166.56h3.16a.52.52,0,0,0,.52-.53v-8.42a.52.52,0,0,0-.52-.52h-3.16a.52.52,0,0,0-.53.52V166A.53.53,0,0,0,349.73,166.56Zm.53-8.42h2.1v7.37h-2.1Z" transform="translate(-10.18 -11.2)"/><path class="cls-4" d="M362.93,72.44l-9.1-4.12H314.46L304,72.47a3,3,0,0,0-1.91,2.81v95.39a1.06,1.06,0,0,0,1.05,1.06h60.55a1.06,1.06,0,0,0,1.05-1.06V75.26A3.1,3.1,0,0,0,362.93,72.44Zm-48.06-2h38.51l8.39,3.81H305.28Zm47.77,99.2H304.2V154.3h58.44Zm0-17.45H304.2V135h58.44Zm0-19.25H304.2V76.33h58.44Z" transform="translate(-10.18 -11.2)"/><rect class="cls-3" x="244.52" y="180.89" width="157.43" height="36.64"/><path class="cls-2" d="M287.46,216.26c-2.9,0-4.74-2.38-4.74-5.78s1.84-5.77,4.74-5.77,4.75,2.38,4.75,5.77S290.37,216.26,287.46,216.26Zm0-9.87c-1.95,0-3,1.58-3,4.09s1.07,4.1,3,4.1,3-1.58,3-4.1S289.43,206.39,287.46,206.39Z" transform="translate(-10.18 -11.2)"/><path class="cls-2" d="M294.67,216.09V204.88h1.69v11.21Z" transform="translate(-10.18 -11.2)"/><path class="cls-2" d="M302.4,216.09h-3V204.88h3c3,0,5.46,1.65,5.46,5.6S305.33,216.09,302.4,216.09Zm0-9.58H301v7.94h1.37c2.66,0,3.75-1.61,3.75-4S305.06,206.51,302.4,206.51Z" transform="translate(-10.18 -11.2)"/><path class="cls-2" d="M314.35,209.54v-1.6h6.93v1.6Zm0,3.68v-1.6h6.93v1.6Z" transform="translate(-10.18 -11.2)"/><path class="cls-2" d="M332.55,216.26c-2.9,0-4.74-2.38-4.74-5.78s1.84-5.77,4.74-5.77,4.75,2.38,4.75,5.77S335.46,216.26,332.55,216.26Zm0-9.87c-2,0-3,1.58-3,4.09s1.07,4.1,3,4.1,3-1.58,3-4.1S334.52,206.39,332.55,206.39Z" transform="translate(-10.18 -11.2)"/><path class="cls-2" d="M343.19,216.26a3,3,0,0,1-2.12-1v.79h-1.63V205.27l1.63-.85v4.06a3.22,3.22,0,0,1,2.2-1c1.81,0,3.23,1.31,3.23,4.51C346.5,214.9,344.93,216.26,343.19,216.26ZM343,209a2.59,2.59,0,0,0-1.9,1.07v3.54a2.7,2.7,0,0,0,2,1.1c1.18,0,1.82-.89,1.82-2.67C344.85,210,344.18,209,343,209Z" transform="translate(-10.18 -11.2)"/><path class="cls-2" d="M347.44,219.18l-.56-1.25c1.54-.43,1.76-.75,1.76-2.2v-8h1.65v8C350.29,217.82,349.76,218.7,347.44,219.18Zm2-12.59a1.06,1.06,0,1,1,1.06-1.05A1.07,1.07,0,0,1,349.47,206.59Z" transform="translate(-10.18 -11.2)"/><path class="cls-2" d="M359.57,212.47H354c.17,1.62,1.09,2.3,2.11,2.3a2.92,2.92,0,0,0,1.83-.67l1,1.06a3.9,3.9,0,0,1-2.9,1.1c-2,0-3.63-1.58-3.63-4.37s1.51-4.38,3.68-4.38c2.39,0,3.54,1.93,3.54,4.21A6.65,6.65,0,0,1,359.57,212.47ZM356,209c-1.1,0-1.78.76-1.92,2.11H358C357.88,210,357.33,209,356,209Z" transform="translate(-10.18 -11.2)"/><path class="cls-2" d="M367,210.1a2.78,2.78,0,0,0-2.05-1c-1.2,0-2,1.07-2,2.78s.7,2.83,2,2.83a2.47,2.47,0,0,0,1.9-1l1.06,1a3.56,3.56,0,0,1-3,1.57c-2,0-3.63-1.73-3.63-4.35,0-2.79,1.63-4.4,3.68-4.4a3.69,3.69,0,0,1,3,1.42Z" transform="translate(-10.18 -11.2)"/><path class="cls-2" d="M374,215.88a3.39,3.39,0,0,1-1.61.38c-1.17,0-1.89-.72-1.89-2.22v-4.85h-1.2v-1.51h1.2v-2.4l1.62-.86v3.26h2.08v1.51h-2.08v4.56c0,.78.25,1,.86,1a2.63,2.63,0,0,0,1.22-.34Z" transform="translate(-10.18 -11.2)"/><path class="cls-2" d="M381.86,216.09v-8.58h-2v-1.17c1.16-.08,2.1-.47,2.31-1.46h1.36v11.21Z" transform="translate(-10.18 -11.2)"/></svg>