<?xml version="1.0" encoding="utf-8"?>
<!-- Generator: Adobe Illustrator 22.0.1, SVG Export Plug-In . SVG Version: 6.00 Build 0)  -->
<svg version="1.1" id="Layer_1" xmlns="http://www.w3.org/2000/svg" xmlns:xlink="http://www.w3.org/1999/xlink" x="0px" y="0px"
	 width="859.1px" height="420.7px" viewBox="0 0 859.1 420.7" style="enable-background:new 0 0 859.1 420.7;" xml:space="preserve"
	>
<style type="text/css">
	.st0{fill:#E6E6E6;}
	.st1{fill:#FFFFFF;}
	.st2{fill:#DCDCDC;}
	.st3{fill:#4C4C4C;}
	.st4{fill:#EC7A08;}
	.st5{fill:none;stroke:#4C4C4C;stroke-miterlimit:10;}
</style>
<rect x="12.8" y="10.5" class="st0" width="833.9" height="397.4"/>
<rect x="29.1" y="82.8" class="st1" width="801.3" height="308.5"/>
<rect x="440.7" y="139.1" class="st2" width="369.1" height="234.1"/>
<rect x="458.1" y="216.2" class="st1" width="334.3" height="141.3"/>
<rect x="466.8" y="263.5" class="st0" width="100.2" height="86.9"/>
<g>
	<path class="st1" d="M502.1,311.8c0.6,0.2,1.3,0.5,2.2,0.7c2.8,0.7,7,1.3,12.7,1.3c5.7,0,9.9-0.6,12.7-1.3c0.9-0.2,1.6-0.5,2.2-0.7
		c1.1-0.5,1.7-0.9,1.7-1.3v-10c0-1.2-5.7-3.3-16.5-3.3c-10.9,0-16.5,2.2-16.5,3.3v10C500.4,310.9,500.9,311.4,502.1,311.8z
		 M511.3,303c1.9,0.2,3.9,0.2,5.9,0.2c5.6,0,10.8-0.6,14-1.7c0.3-0.1,0.5,0.1,0.6,0.3c0.1,0.3-0.1,0.5-0.3,0.6
		c-3.3,1.1-8.6,1.7-14.3,1.7c-2,0-4.1-0.1-6-0.2c-0.3,0-0.5-0.3-0.4-0.5C510.8,303.2,511.1,303,511.3,303z M502.1,301.7
		c0.1-0.2,0.3-0.3,0.4-0.2c1.2,0.5,2.9,0.9,4.8,1.2c0.2,0,0.3,0.2,0.3,0.4c0,0.2-0.2,0.3-0.3,0.3c0,0,0,0-0.1,0
		c-2-0.3-3.7-0.7-4.9-1.2C502.2,302,502.1,301.8,502.1,301.7z"/>
	<path class="st1" d="M531.7,313.2c-3.7,1.4-10,1.9-14.8,1.9c-4.8,0-11.1-0.5-14.8-1.9c-1.1,0.5-1.7,0.9-1.7,1.3v10
		c0,0.4,0.6,0.8,1.7,1.3c0.6,0.2,1.3,0.5,2.1,0.7c2.8,0.7,7,1.3,12.8,1.3s10-0.6,12.8-1.3c0.8-0.2,1.6-0.5,2.1-0.7
		c1.1-0.5,1.7-0.9,1.7-1.3v-10C533.5,314.2,532.9,313.7,531.7,313.2z M507.3,317.3C507.3,317.3,507.3,317.3,507.3,317.3
		c-2.1-0.3-3.7-0.7-5-1.2c-0.2-0.1-0.3-0.3-0.2-0.4c0.1-0.2,0.3-0.3,0.4-0.2c1.2,0.5,2.9,0.9,4.8,1.2c0.2,0,0.3,0.2,0.3,0.4
		C507.6,317.2,507.5,317.3,507.3,317.3z M531.5,316.5c-3.3,1.1-8.6,1.7-14.3,1.7c-2.1,0-4.1-0.1-6-0.2c-0.3,0-0.5-0.3-0.4-0.5
		c0-0.3,0.3-0.5,0.5-0.4c1.9,0.2,3.9,0.2,5.9,0.2c5.6,0,10.8-0.6,14-1.7c0.3-0.1,0.5,0.1,0.6,0.3
		C531.9,316.1,531.8,316.4,531.5,316.5z"/>
	<path class="st1" d="M531.8,327.2c-3.7,1.4-10.1,1.9-14.9,1.9c-4.8,0-11.2-0.6-14.9-1.9c-1.1,0.5-1.7,0.9-1.7,1.3v10
		c0,1.2,5.7,3.3,16.5,3.3s16.5-2.2,16.5-3.3v-10C533.5,328.1,532.9,327.7,531.8,327.2z M507.3,331.2
		C507.3,331.2,507.3,331.2,507.3,331.2c-2.1-0.3-3.7-0.8-5-1.2c-0.2-0.1-0.3-0.3-0.2-0.4c0.1-0.2,0.3-0.3,0.4-0.2
		c1.2,0.5,2.9,0.9,4.8,1.2c0.2,0,0.3,0.2,0.3,0.4C507.6,331.1,507.5,331.2,507.3,331.2z M531.5,330.4c-3.3,1.1-8.6,1.7-14.3,1.7
		c-2,0-4.1-0.1-6-0.2c-0.3,0-0.5-0.3-0.4-0.5c0-0.3,0.3-0.5,0.5-0.4c1.9,0.2,3.9,0.2,5.9,0.2c5.6,0,10.8-0.6,14-1.7
		c0.3-0.1,0.5,0.1,0.6,0.3C531.9,330,531.8,330.3,531.5,330.4z"/>
	<path class="st3" d="M507.4,330.6c-1.9-0.3-3.6-0.7-4.8-1.2c-0.2-0.1-0.4,0-0.4,0.2c-0.1,0.2,0,0.4,0.2,0.4
		c1.3,0.5,2.9,0.9,4.9,1.2c0,0,0,0,0.1,0c0.2,0,0.3-0.1,0.3-0.3C507.7,330.8,507.6,330.6,507.4,330.6z"/>
	<path class="st3" d="M511.2,304c1.9,0.2,3.9,0.2,6,0.2c5.7,0,11-0.6,14.3-1.7c0.3-0.1,0.4-0.4,0.3-0.6c-0.1-0.3-0.4-0.4-0.6-0.3
		c-3.2,1.1-8.4,1.7-14,1.7c-2,0-4-0.1-5.9-0.2c-0.3,0-0.5,0.2-0.5,0.4C510.8,303.7,511,304,511.2,304z"/>
	<path class="st3" d="M502.3,302.1c1.3,0.5,2.9,0.9,4.9,1.2c0,0,0,0,0.1,0c0.2,0,0.3-0.1,0.3-0.3c0-0.2-0.1-0.3-0.3-0.4
		c-1.9-0.3-3.6-0.7-4.8-1.2c-0.2-0.1-0.4,0-0.4,0.2C502.1,301.8,502.2,302,502.3,302.1z"/>
	<path class="st3" d="M533.2,312.5c1-0.6,1.5-1.2,1.5-2v-10c0-3.4-10.7-4.6-17.9-4.6c-7.2,0-17.9,1.2-17.9,4.6v10
		c0,0.8,0.6,1.5,1.5,2c-1,0.6-1.5,1.2-1.5,2v10c0,0.8,0.6,1.4,1.5,2c-0.9,0.6-1.5,1.2-1.5,2v10c0,3.4,10.7,4.6,17.9,4.6
		c7.2,0,17.9-1.2,17.9-4.6v-10c0-0.8-0.6-1.4-1.5-2c0.9-0.6,1.5-1.2,1.5-2v-10C534.8,313.8,534.2,313.1,533.2,312.5z M500.4,310.5
		v-10c0-1.2,5.7-3.3,16.5-3.3c10.9,0,16.5,2.2,16.5,3.3v10c0,0.4-0.6,0.8-1.7,1.3c-0.6,0.2-1.3,0.5-2.2,0.7c-2.8,0.7-7,1.3-12.7,1.3
		c-5.6,0-9.9-0.6-12.7-1.3c-0.9-0.2-1.6-0.5-2.2-0.7C500.9,311.4,500.4,310.9,500.4,310.5z M533.5,328.5v10c0,1.2-5.7,3.3-16.5,3.3
		s-16.5-2.2-16.5-3.3v-10c0-0.4,0.6-0.8,1.7-1.3c3.7,1.4,10.1,1.9,14.9,1.9c4.8,0,11.2-0.6,14.9-1.9
		C532.9,327.7,533.5,328.1,533.5,328.5z M533.5,324.5c0,0.4-0.6,0.8-1.7,1.3c-0.6,0.2-1.3,0.5-2.1,0.7c-2.8,0.7-7,1.3-12.8,1.3
		s-10-0.6-12.8-1.3c-0.8-0.2-1.6-0.5-2.1-0.7c-1.1-0.5-1.7-0.9-1.7-1.3v-10c0-0.4,0.6-0.8,1.7-1.3c3.7,1.4,10,1.9,14.8,1.9
		c4.8,0,11.1-0.6,14.8-1.9c1.1,0.5,1.7,0.9,1.7,1.3V324.5z"/>
	<path class="st3" d="M531.2,315.5c-3.2,1.1-8.4,1.7-14,1.7c-2,0-4-0.1-5.9-0.2c-0.3,0-0.5,0.2-0.5,0.4c0,0.3,0.2,0.5,0.4,0.5
		c1.9,0.2,3.9,0.2,6,0.2c5.7,0,11-0.6,14.3-1.7c0.3-0.1,0.4-0.4,0.3-0.6C531.8,315.6,531.5,315.5,531.2,315.5z"/>
	<path class="st3" d="M531.2,329.5c-3.2,1.1-8.4,1.7-14,1.7c-2,0-4-0.1-5.9-0.2c-0.3,0-0.5,0.2-0.5,0.4c0,0.3,0.2,0.5,0.4,0.5
		c1.9,0.2,3.9,0.2,6,0.2c5.7,0,11-0.6,14.3-1.7c0.3-0.1,0.4-0.4,0.3-0.6C531.8,329.5,531.5,329.4,531.2,329.5z"/>
	<path class="st3" d="M507.4,316.7c-1.9-0.3-3.6-0.7-4.8-1.2c-0.2-0.1-0.4,0-0.4,0.2c-0.1,0.2,0,0.4,0.2,0.4
		c1.3,0.5,2.9,0.9,4.9,1.2c0,0,0,0,0.1,0c0.2,0,0.3-0.1,0.3-0.3C507.7,316.9,507.6,316.7,507.4,316.7z"/>
</g>
<rect x="49.7" y="139.1" class="st2" width="369.1" height="234.1"/>
<rect x="67.1" y="216.2" class="st1" width="334.3" height="141.3"/>
<rect x="75.8" y="263.5" class="st0" width="100.2" height="86.9"/>
<rect x="184.2" y="263.5" class="st0" width="100.2" height="86.9"/>
<rect x="292.6" y="263.5" class="st0" width="100.2" height="86.9"/>
<g>
	<path class="st3" d="M39.5,51.3L36.9,46h-3v5.3H31V36.6h6.8c2.8,0,5.1,1.5,5.1,4.7c0,2.2-0.9,3.6-2.8,4.3l2.8,5.7H39.5z M37.8,39.4
		H34v3.8h3.8c1.4,0,2.1-0.6,2.1-1.9C39.9,40,39.1,39.4,37.8,39.4z"/>
	<path class="st3" d="M53.9,46.7h-6.6c0.1,1.5,1.2,2.1,2.3,2.1c0.8,0,1.5-0.3,1.9-0.8l2.1,1.7c-0.9,1.1-2.5,1.8-3.9,1.8
		c-3.2,0-5.2-2.2-5.2-5.7c0-3.4,2.1-5.8,4.9-5.8c2.9,0,4.6,2.6,4.6,5.8C54,46.2,54,46.5,53.9,46.7z M49.2,42.5c-1,0-1.7,0.9-1.8,2
		h3.8C51.1,43.5,50.5,42.5,49.2,42.5z"/>
	<path class="st3" d="M62.2,51.3v-0.7c-0.5,0.5-1.4,1-2.5,1c-2.1,0-4.1-1.3-4.1-3.9c0-2.4,2-3.7,4.5-3.7c1,0,1.7,0.2,2.1,0.4v-0.5
		c0-0.8-0.5-1.4-1.6-1.4c-1.3,0-2,0.2-3,0.7l-1.1-2c1.3-0.7,2.4-1.1,4.1-1.1c2.7,0,4.5,1.4,4.5,3.9v7.4H62.2z M62.2,46.6
		c-0.5-0.3-1-0.5-2-0.5c-1.1,0-1.7,0.5-1.7,1.4c0,0.8,0.4,1.5,1.7,1.5c0.9,0,1.7-0.5,2-1V46.6z"/>
	<path class="st3" d="M67.9,51.3V37.4l2.9-1.4v15.3H67.9z"/>
	<path class="st3" d="M86.6,51.3v-6c0-2-0.6-2.6-1.8-2.6s-1.8,0.6-1.8,2.5v6h-2.9v-6c0-2-0.6-2.6-1.8-2.6s-1.8,0.6-1.8,2.5v6h-2.9
		v-11h2.9V41c0.5-0.5,1.3-1,2.4-1c1.4,0,2.2,0.4,3,1.4c0.8-0.8,1.7-1.4,3.5-1.4c2.8,0,3.9,1.9,3.9,5v6.2H86.6z"/>
	<path class="st3" d="M93.7,44c-1.1,0-2-0.9-2-2s0.9-2,2-2s2,0.9,2,2S94.8,44,93.7,44z M93.7,51.5c-1.1,0-2-0.9-2-2s0.9-2,2-2
		s2,0.9,2,2S94.8,51.5,93.7,51.5z"/>
	<path class="st3" d="M108.6,51.5c-2.9,0-5.2-2.4-5.2-5.7s2.2-5.8,5.3-5.8c2.1,0,3.4,1,4.4,2.4l-1.9,1.9c-0.7-0.9-1.3-1.6-2.5-1.6
		c-1.4,0-2.3,1.2-2.3,3c0,1.8,0.9,2.9,2.3,2.9c1.1,0,1.8-0.5,2.6-1.4l1.8,1.7C112.1,50.5,110.8,51.5,108.6,51.5z"/>
	<path class="st3" d="M124,46.7h-6.6c0.1,1.5,1.2,2.1,2.3,2.1c0.8,0,1.5-0.3,1.9-0.8l2.1,1.7c-0.9,1.1-2.5,1.8-3.9,1.8
		c-3.2,0-5.2-2.2-5.2-5.7c0-3.4,2.1-5.8,4.9-5.8c2.9,0,4.6,2.6,4.6,5.8C124.1,46.2,124,46.5,124,46.7z M119.3,42.5
		c-1,0-1.7,0.9-1.8,2h3.8C121.2,43.5,120.6,42.5,119.3,42.5z"/>
	<path class="st3" d="M131.6,51.5c-1,0-1.8-0.4-2.3-0.9v3.2l-2.9,1.4V40.2h2.9v0.7c0.5-0.5,1.3-0.9,2.3-0.9c2.4,0,4.3,1.8,4.3,5.9
		C135.9,49.2,134.3,51.5,131.6,51.5z M131,42.7c-0.9,0-1.4,0.4-1.8,0.9v4.2c0.4,0.6,1.1,0.9,2,0.9c1.1,0,1.7-1,1.7-2.8
		C132.9,43.7,132.2,42.7,131,42.7z"/>
	<path class="st3" d="M144.8,51.3v-6c0-2-0.7-2.6-1.9-2.6s-1.9,0.6-1.9,2.5v6h-2.9V37.4l2.9-1.4v5c0.5-0.5,1.4-1,2.6-1
		c2.8,0,4.1,1.9,4.1,5v6.2H144.8z"/>
	<path class="st3" d="M152.4,51.3V40.6h-2.5v-2.2c1.6-0.1,2.7-0.7,3-1.9h2.4v14.7H152.4z"/>
	<path class="st3" d="M158.4,51.3c0.1-5,3.2-7.2,6.8-8.8c1.3-0.5,1.7-1.1,1.7-1.8c0-0.8-0.7-1.5-2.4-1.5c-1.7,0-3.1,0.8-4.2,1.8
		l-1.9-2.2c1.6-1.6,3.6-2.4,6-2.4c3.5,0,5.5,1.4,5.5,4.2c0,2.4-1.3,3.4-3.8,4.6c-2.6,1.2-3.6,2.2-3.9,3.3h7.8v2.8H158.4z"/>
	<path class="st3" d="M177.7,51.5c-2.1,0-3.9-0.4-5.7-1.6l1.4-2.5c1.4,0.8,2.8,1.2,4.3,1.2c2,0,3.1-0.8,3.1-2.4
		c0-1.5-1.1-2.2-2.5-2.2c-1.3,0-2.2,0.4-2.9,0.9l-2.8-1l0.5-7.3h9.8v2.8h-7.1l-0.2,2.5c0.8-0.4,1.7-0.7,3.1-0.7c3.3,0,5,2.1,5,4.9
		C183.8,49.7,181.3,51.5,177.7,51.5z"/>
</g>
<g>
	<path class="st3" d="M50.9,118.6v-2l6.8-8.3c0.4-0.5,1.2-1.4,1.6-1.8c-0.6,0-2,0-2.8,0h-5.2v-1.9h10.2v2l-6.8,8.3
		c-0.4,0.5-1.2,1.4-1.6,1.8c0.6,0,2,0,2.8,0h5.5v1.9H50.9z"/>
	<path class="st3" d="M67.9,118.8c-2.6,0-4.6-2.2-4.6-5.5c0-3.4,2-5.5,4.7-5.5c2.7,0,4.7,2.1,4.7,5.4
		C72.7,116.8,70.6,118.8,67.9,118.8z M67.9,109.9c-1.6,0-2.5,1.4-2.5,3.5c0,2.3,1.1,3.6,2.6,3.6s2.6-1.6,2.6-3.5
		C70.6,111.2,69.6,109.9,67.9,109.9z"/>
	<path class="st3" d="M81.6,118.6v-5.9c0-2.1-0.8-2.9-2.2-2.9c-1.4,0-2.2,1-2.2,2.7v6.1h-2.1v-10.5h2.1v1c0.5-0.8,1.6-1.2,2.6-1.2
		c2.4,0,3.7,1.6,3.7,4.7v6H81.6z"/>
	<path class="st3" d="M95.1,114.1h-6.9c0.2,2,1.4,2.9,2.6,2.9c0.9,0,1.6-0.3,2.3-0.8l1.2,1.3c-0.9,0.9-2,1.4-3.6,1.4
		c-2.5,0-4.5-2-4.5-5.5c0-3.6,1.9-5.5,4.6-5.5c3,0,4.4,2.4,4.4,5.3C95.1,113.5,95.1,113.9,95.1,114.1z M90.6,109.8
		c-1.4,0-2.2,1-2.4,2.6h4.9C93,111,92.3,109.8,90.6,109.8z"/>
	<path class="st3" d="M101.1,122.5l-0.7-1.6c3-0.1,3.6-0.9,3.6-3.1v-0.2c-0.8,0.7-1.6,1.2-2.7,1.2c-2.2,0-4-1.6-4-5.6
		c0-3.6,2-5.3,4.1-5.3c1.1,0,2.1,0.6,2.6,1.2v-1h2.1v9.5C106.1,120.8,104.9,122.4,101.1,122.5z M104,111.2c-0.5-0.6-1.4-1.4-2.5-1.4
		c-1.5,0-2.3,1.1-2.3,3.3c0,2.6,0.8,3.8,2.4,3.8c1,0,1.8-0.7,2.4-1.3V111.2z"/>
	<path class="st3" d="M114.8,110.3c-0.4-0.2-0.9-0.4-1.6-0.4c-1.3,0-2.1,0.9-2.1,2.7v6h-2.1v-10.5h2.1v1c0.5-0.7,1.4-1.2,2.4-1.2
		c0.8,0,1.4,0.2,1.8,0.4L114.8,110.3z"/>
	<path class="st3" d="M121.1,118.8c-2.6,0-4.6-2.2-4.6-5.5c0-3.4,2-5.5,4.7-5.5c2.7,0,4.7,2.1,4.7,5.4
		C125.8,116.8,123.8,118.8,121.1,118.8z M121.1,109.9c-1.6,0-2.5,1.4-2.5,3.5c0,2.3,1.1,3.6,2.6,3.6c1.6,0,2.6-1.6,2.6-3.5
		C123.7,111.2,122.7,109.9,121.1,109.9z"/>
	<path class="st3" d="M134.7,118.6v-1c-0.5,0.8-1.6,1.2-2.6,1.2c-2.4,0-3.7-1.6-3.7-4.7v-6h2.1v5.9c0,2.1,0.8,2.9,2.2,2.9
		c1.4,0,2.2-1,2.2-2.7v-6.1h2.1v10.5H134.7z"/>
	<path class="st3" d="M144.4,118.8c-1.1,0-2.1-0.6-2.6-1.2v3.8l-2,1.1v-14.4h2v1c0.8-0.7,1.6-1.2,2.7-1.2c2.3,0,4,1.6,4,5.6
		C148.6,117.1,146.6,118.8,144.4,118.8z M144.2,109.8c-1,0-1.8,0.7-2.4,1.3v4.4c0.5,0.6,1.4,1.4,2.5,1.4c1.5,0,2.3-1.1,2.3-3.3
		C146.5,111,145.7,109.8,144.2,109.8z"/>
	<path class="st3" d="M152.2,111.1c-0.9,0-1.6-0.7-1.6-1.6c0-0.9,0.7-1.6,1.6-1.6s1.6,0.7,1.6,1.6
		C153.8,110.4,153,111.1,152.2,111.1z M152.2,118.8c-0.9,0-1.6-0.7-1.6-1.6s0.7-1.6,1.6-1.6s1.6,0.7,1.6,1.6S153,118.8,152.2,118.8z
		"/>
	<path class="st3" d="M168.2,111.1c-0.9-0.9-1.6-1.3-2.6-1.3c-1.5,0-2.5,1.3-2.5,3.5c0,2.1,0.9,3.5,2.5,3.5c1,0,1.6-0.4,2.4-1.3
		l1.3,1.3c-0.8,1-1.9,2-3.8,2c-2.6,0-4.5-2.2-4.5-5.4c0-3.5,2-5.5,4.6-5.5c1.5,0,2.7,0.6,3.7,1.8L168.2,111.1z"/>
	<path class="st3" d="M172.2,118.6v-13.5l2.1-1.1v14.6H172.2z"/>
	<path class="st3" d="M183.4,118.6v-1c-0.7,0.7-1.7,1.3-2.9,1.3c-1.7,0-3.6-1-3.6-3.5c0-2.3,1.8-3.4,4.2-3.4c1,0,1.8,0.1,2.3,0.4
		v-0.8c0-1.1-0.7-1.8-2-1.8c-1.1,0-1.9,0.2-2.7,0.7l-0.8-1.6c1-0.6,2.1-0.9,3.6-0.9c2.3,0,3.9,1.1,3.9,3.5v7.2H183.4z M183.4,114.1
		c-0.6-0.3-1.3-0.5-2.4-0.5c-1.3,0-2.2,0.6-2.2,1.6c0,1,0.7,1.7,2,1.7c1.1,0,2.1-0.7,2.5-1.3V114.1z"/>
	<path class="st3" d="M191.8,118.8c-1.4,0-3-0.6-4-1.3l0.9-1.6c1,0.7,2.1,1,3.1,1c1.3,0,1.9-0.4,1.9-1.2c0-0.8-0.9-1.2-2.4-1.8
		c-2.3-0.9-3.1-1.6-3.1-3.3c0-1.9,1.5-2.9,3.6-2.9c1.3,0,2.6,0.5,3.6,1.2l-0.9,1.6c-0.9-0.6-1.7-0.9-2.7-0.9c-1,0-1.4,0.4-1.4,1
		c0,0.5,0.4,0.9,1.9,1.5c2.3,0.9,3.5,1.5,3.5,3.5C195.7,118.1,193.8,118.8,191.8,118.8z"/>
	<path class="st3" d="M201.6,118.8c-1.4,0-3-0.6-4-1.3l0.9-1.6c1,0.7,2.1,1,3.1,1c1.3,0,1.9-0.4,1.9-1.2c0-0.8-0.9-1.2-2.4-1.8
		c-2.3-0.9-3.1-1.6-3.1-3.3c0-1.9,1.5-2.9,3.6-2.9c1.3,0,2.6,0.5,3.6,1.2l-0.9,1.6c-0.9-0.6-1.7-0.9-2.7-0.9c-1,0-1.4,0.4-1.4,1
		c0,0.5,0.4,0.9,1.9,1.5c2.3,0.9,3.5,1.5,3.5,3.5C205.5,118.1,203.6,118.8,201.6,118.8z"/>
	<path class="st3" d="M213.8,110.3c-0.4-0.2-0.9-0.4-1.6-0.4c-1.3,0-2.1,0.9-2.1,2.7v6h-2.1v-10.5h2.1v1c0.5-0.7,1.4-1.2,2.4-1.2
		c0.8,0,1.4,0.2,1.8,0.4L213.8,110.3z"/>
	<path class="st3" d="M220.1,118.8c-2.6,0-4.6-2.2-4.6-5.5c0-3.4,2-5.5,4.7-5.5c2.7,0,4.7,2.1,4.7,5.4
		C224.9,116.8,222.8,118.8,220.1,118.8z M220.1,109.9c-1.6,0-2.5,1.4-2.5,3.5c0,2.3,1.1,3.6,2.6,3.6c1.6,0,2.6-1.6,2.6-3.5
		C222.8,111.2,221.8,109.9,220.1,109.9z"/>
	<path class="st3" d="M231.5,118.8c-2.6,0-4.6-2.2-4.6-5.5c0-3.4,2-5.5,4.7-5.5c2.7,0,4.7,2.1,4.7,5.4
		C236.3,116.8,234.2,118.8,231.5,118.8z M231.5,109.9c-1.6,0-2.5,1.4-2.5,3.5c0,2.3,1.1,3.6,2.6,3.6s2.6-1.6,2.6-3.5
		C234.2,111.2,233.2,109.9,231.5,109.9z"/>
	<path class="st3" d="M251,118.6v-5.9c0-2.1-0.7-2.9-2-2.9c-1.4,0-2,1-2,2.7v6.1h-2.1v-5.9c0-2.1-0.7-2.9-2-2.9c-1.4,0-2,1-2,2.7
		v6.1h-2.1v-10.5h2.1v1c0.5-0.8,1.4-1.2,2.5-1.2c1.4,0,2.3,0.5,2.9,1.5c0.8-0.9,1.6-1.5,3.2-1.5c2.4,0,3.6,1.6,3.6,4.7v6H251z"/>
</g>
<g>
	<g>
		<path class="st3" d="M68.2,166.4v-1.7l5.8-7c0.4-0.5,1-1.2,1.3-1.5c-0.5,0-1.7,0-2.4,0h-4.4v-1.6h8.7v1.7l-5.7,7
			c-0.4,0.5-1,1.2-1.3,1.5c0.5,0,1.7,0,2.4,0h4.7v1.6H68.2z"/>
		<path class="st3" d="M82.6,166.6c-2.2,0-3.9-1.9-3.9-4.6c0-2.9,1.7-4.7,4-4.7c2.3,0,4,1.8,4,4.6C86.7,164.9,84.9,166.6,82.6,166.6
			z M82.6,159c-1.3,0-2.1,1.2-2.1,2.9c0,2,0.9,3,2.2,3c1.3,0,2.2-1.3,2.2-3C84.9,160.1,84,159,82.6,159z"/>
		<path class="st3" d="M94.2,166.4v-5c0-1.8-0.7-2.4-1.8-2.4c-1.2,0-1.8,0.8-1.8,2.3v5.2h-1.8v-8.9h1.8v0.8c0.4-0.6,1.3-1,2.2-1
			c2.1,0,3.2,1.4,3.2,4v5.1H94.2z"/>
		<path class="st3" d="M105.7,162.6h-5.9c0.2,1.7,1.2,2.4,2.2,2.4c0.7,0,1.3-0.3,1.9-0.7l1,1.1c-0.8,0.7-1.7,1.2-3.1,1.2
			c-2.1,0-3.9-1.7-3.9-4.6c0-3,1.6-4.7,3.9-4.7c2.5,0,3.8,2.1,3.8,4.5C105.7,162.1,105.7,162.4,105.7,162.6z M101.9,158.9
			c-1.2,0-1.9,0.8-2,2.2h4.1C103.9,159.9,103.3,158.9,101.9,158.9z"/>
		<path class="st3" d="M108.8,160c-0.7,0-1.3-0.6-1.3-1.3s0.6-1.4,1.3-1.4s1.3,0.6,1.3,1.4S109.5,160,108.8,160z M108.8,166.6
			c-0.7,0-1.3-0.6-1.3-1.3c0-0.7,0.6-1.4,1.3-1.4s1.3,0.6,1.3,1.4C110.1,166,109.5,166.6,108.8,166.6z"/>
		<path class="st3" d="M127.2,166.4v-5c0-1.8-0.6-2.4-1.7-2.4c-1.2,0-1.7,0.8-1.7,2.3v5.2H122v-5c0-1.8-0.6-2.4-1.7-2.4
			c-1.2,0-1.7,0.8-1.7,2.3v5.2h-1.8v-8.9h1.8v0.8c0.4-0.6,1.2-1,2.1-1c1.2,0,2,0.5,2.4,1.3c0.6-0.8,1.3-1.3,2.7-1.3
			c2.1,0,3.1,1.4,3.1,4v5.1H127.2z"/>
		<path class="st3" d="M136.6,166.4v-0.9c-0.6,0.6-1.5,1.1-2.4,1.1c-1.4,0-3.1-0.8-3.1-3c0-2,1.5-2.9,3.6-2.9c0.8,0,1.5,0.1,2,0.3
			v-0.7c0-1-0.6-1.5-1.7-1.5c-0.9,0-1.6,0.2-2.3,0.6l-0.7-1.3c0.9-0.5,1.8-0.8,3.1-0.8c2,0,3.3,1,3.3,3v6.1H136.6z M136.6,162.6
			c-0.5-0.2-1.1-0.4-2-0.4c-1.1,0-1.8,0.5-1.8,1.3c0,0.9,0.6,1.5,1.7,1.5c0.9,0,1.8-0.6,2.2-1.1V162.6z"/>
		<path class="st3" d="M141.8,156.3c-0.6,0-1.1-0.5-1.1-1.1c0-0.6,0.5-1.1,1.1-1.1c0.6,0,1.1,0.5,1.1,1.1
			C142.9,155.8,142.4,156.3,141.8,156.3z M140.9,166.4v-8.9h1.8v8.9H140.9z"/>
		<path class="st3" d="M150.7,166.4v-5c0-1.8-0.7-2.4-1.8-2.4c-1.2,0-1.8,0.8-1.8,2.3v5.2h-1.8v-8.9h1.8v0.8c0.4-0.6,1.3-1,2.2-1
			c2.1,0,3.2,1.4,3.2,4v5.1H150.7z"/>
	</g>
</g>
<g>
	<g>
		<path class="st3" d="M459.2,166.4v-1.7l5.8-7c0.4-0.5,1-1.2,1.3-1.5c-0.5,0-1.7,0-2.4,0h-4.4v-1.6h8.7v1.7l-5.7,7
			c-0.4,0.5-1,1.2-1.3,1.5c0.5,0,1.7,0,2.4,0h4.7v1.6H459.2z"/>
		<path class="st3" d="M473.6,166.6c-2.2,0-3.9-1.9-3.9-4.6c0-2.9,1.7-4.7,4-4.7c2.3,0,4,1.8,4,4.6
			C477.7,164.9,475.9,166.6,473.6,166.6z M473.6,159c-1.3,0-2.1,1.2-2.1,2.9c0,2,0.9,3,2.2,3c1.3,0,2.2-1.3,2.2-3
			C475.9,160.1,475,159,473.6,159z"/>
		<path class="st3" d="M485.2,166.4v-5c0-1.8-0.7-2.4-1.8-2.4c-1.2,0-1.8,0.8-1.8,2.3v5.2h-1.8v-8.9h1.8v0.8c0.4-0.6,1.3-1,2.2-1
			c2.1,0,3.2,1.4,3.2,4v5.1H485.2z"/>
		<path class="st3" d="M496.7,162.6h-5.9c0.2,1.7,1.2,2.4,2.2,2.4c0.7,0,1.3-0.3,1.9-0.7l1,1.1c-0.8,0.7-1.7,1.2-3.1,1.2
			c-2.1,0-3.9-1.7-3.9-4.6c0-3,1.6-4.7,3.9-4.7c2.5,0,3.8,2.1,3.8,4.5C496.8,162.1,496.7,162.4,496.7,162.6z M492.9,158.9
			c-1.2,0-1.9,0.8-2,2.2h4.1C494.9,159.9,494.3,158.9,492.9,158.9z"/>
		<path class="st3" d="M499.8,160c-0.7,0-1.3-0.6-1.3-1.3s0.6-1.4,1.3-1.4c0.7,0,1.3,0.6,1.3,1.4S500.5,160,499.8,160z M499.8,166.6
			c-0.7,0-1.3-0.6-1.3-1.3c0-0.7,0.6-1.4,1.3-1.4c0.7,0,1.3,0.6,1.3,1.4C501.1,166,500.5,166.6,499.8,166.6z"/>
		<path class="st3" d="M511,155.6c-0.6,0-0.8,0.2-0.8,0.9v1h1.6v1.6h-1.6v7.3h-1.8v-7.3h-1.2v-1.6h1.2v-1.2c0-1.6,1-2.2,2.3-2.2
			c0.5,0,1,0.1,1.3,0.2v1.5C511.6,155.6,511.3,155.6,511,155.6z"/>
		<path class="st3" d="M518.5,166.4v-0.9c-0.6,0.6-1.5,1.1-2.4,1.1c-1.4,0-3.1-0.8-3.1-3c0-2,1.5-2.9,3.6-2.9c0.8,0,1.5,0.1,2,0.3
			v-0.7c0-1-0.6-1.5-1.7-1.5c-0.9,0-1.6,0.2-2.3,0.6l-0.7-1.3c0.9-0.5,1.8-0.8,3.1-0.8c2,0,3.3,1,3.3,3v6.1H518.5z M518.5,162.6
			c-0.5-0.2-1.1-0.4-2-0.4c-1.1,0-1.8,0.5-1.8,1.3c0,0.9,0.6,1.5,1.7,1.5c0.9,0,1.8-0.6,2.2-1.1V162.6z"/>
		<path class="st3" d="M522.8,166.4v-11.5l1.8-0.9v12.4H522.8z"/>
		<path class="st3" d="M527.3,166.4v-11.5l1.8-0.9v12.4H527.3z"/>
		<path class="st3" d="M535.7,166.6c-0.9,0-1.8-0.5-2.2-1v0.8h-1.7v-11.5l1.7-0.9v4.3c0.6-0.6,1.4-1,2.3-1c1.9,0,3.4,1.4,3.4,4.8
			C539.3,165.2,537.6,166.6,535.7,166.6z M535.5,158.9c-0.8,0-1.6,0.6-2,1.1v3.8c0.4,0.5,1.2,1.2,2.1,1.2c1.3,0,1.9-1,1.9-2.8
			C537.5,159.9,536.8,158.9,535.5,158.9z"/>
		<path class="st3" d="M546.4,166.4v-0.9c-0.6,0.6-1.5,1.1-2.4,1.1c-1.4,0-3.1-0.8-3.1-3c0-2,1.5-2.9,3.6-2.9c0.8,0,1.5,0.1,2,0.3
			v-0.7c0-1-0.6-1.5-1.7-1.5c-0.9,0-1.6,0.2-2.3,0.6l-0.7-1.3c0.8-0.5,1.8-0.8,3.1-0.8c2,0,3.3,1,3.3,3v6.1H546.4z M546.4,162.6
			c-0.5-0.2-1.1-0.4-2-0.4c-1.1,0-1.8,0.5-1.8,1.3c0,0.9,0.6,1.5,1.7,1.5c0.9,0,1.8-0.6,2.2-1.1V162.6z"/>
		<path class="st3" d="M556.3,160.1c-0.7-0.7-1.4-1.1-2.2-1.1c-1.3,0-2.1,1.1-2.1,3c0,1.8,0.7,3,2.1,3c0.8,0,1.3-0.4,2-1.1l1.1,1.1
			c-0.7,0.9-1.6,1.7-3.2,1.7c-2.2,0-3.9-1.8-3.9-4.6c0-3,1.7-4.7,3.9-4.7c1.3,0,2.3,0.5,3.2,1.5L556.3,160.1z"/>
		<path class="st3" d="M564.6,166.4l-2-4.4l-1.4,1.8v2.6h-1.8v-11.5l1.8-0.9v5.6c0,0.5,0,1.5,0,1.9c0.2-0.4,0.7-1,1-1.5l1.9-2.6h2
			l-2.3,3l2.7,5.9H564.6z"/>
	</g>
</g>
<g>
	<g>
		<path class="st3" d="M458.2,51l-1-2.8h-4.8l-1,2.8h-1.9l4.3-11.9h1.9l4.3,11.9H458.2z M455.7,43.9c-0.3-0.9-0.8-2.2-0.9-2.7
			c-0.1,0.5-0.6,1.9-0.9,2.8l-1,2.7h3.7L455.7,43.9z"/>
		<path class="st3" d="M465.1,51.2c-1.2,0-2.5-0.5-3.4-1.1l0.8-1.3c0.8,0.6,1.8,0.9,2.6,0.9c1.1,0,1.6-0.4,1.6-1
			c0-0.7-0.8-1-2.1-1.5c-1.9-0.7-2.6-1.4-2.6-2.8c0-1.6,1.3-2.4,3-2.4c1.1,0,2.2,0.4,3,1l-0.8,1.3c-0.7-0.5-1.5-0.8-2.3-0.8
			c-0.9,0-1.2,0.3-1.2,0.8c0,0.4,0.3,0.8,1.6,1.3c2,0.8,3,1.3,3,3C468.5,50.6,466.9,51.2,465.1,51.2z"/>
		<path class="st3" d="M473.4,54.2h-1.9l1.3-3.3l-3.3-8.8h1.9l1.5,4.4c0.3,0.8,0.7,2.1,0.8,2.6c0.2-0.5,0.5-1.8,0.8-2.6l1.5-4.4h1.9
			L473.4,54.2z"/>
		<path class="st3" d="M485.1,51v-5c0-1.8-0.7-2.4-1.8-2.4c-1.2,0-1.8,0.8-1.8,2.3V51h-1.8v-8.9h1.8V43c0.4-0.6,1.3-1,2.2-1
			c2.1,0,3.2,1.4,3.2,4V51H485.1z"/>
		<path class="st3" d="M495,44.7c-0.7-0.7-1.4-1.1-2.2-1.1c-1.3,0-2.1,1.1-2.1,3c0,1.8,0.7,3,2.1,3c0.8,0,1.3-0.4,2-1.1l1.1,1.1
			c-0.7,0.9-1.6,1.7-3.2,1.7c-2.2,0-3.9-1.8-3.9-4.6c0-3,1.7-4.7,3.9-4.7c1.3,0,2.3,0.5,3.2,1.5L495,44.7z"/>
		<path class="st3" d="M503.7,51v-5c0-1.8-0.7-2.4-1.8-2.4c-1.2,0-1.8,0.8-1.8,2.3V51h-1.8V39.6l1.8-0.9V43c0.4-0.6,1.3-1,2.2-1
			c2.1,0,3.2,1.4,3.2,4V51H503.7z"/>
		<path class="st3" d="M512.8,44c-0.4-0.2-0.8-0.3-1.3-0.3c-1.1,0-1.8,0.8-1.8,2.3V51H508v-8.9h1.8V43c0.4-0.6,1.2-1,2-1
			c0.7,0,1.2,0.1,1.5,0.4L512.8,44z"/>
		<path class="st3" d="M518.2,51.2c-2.2,0-3.9-1.9-3.9-4.6c0-2.9,1.7-4.7,4-4.7c2.3,0,4,1.8,4,4.6C522.2,49.5,520.5,51.2,518.2,51.2
			z M518.1,43.6c-1.3,0-2.1,1.2-2.1,2.9c0,2,0.9,3,2.2,3c1.3,0,2.2-1.3,2.2-3C520.4,44.8,519.6,43.6,518.1,43.6z"/>
		<path class="st3" d="M529.8,51v-5c0-1.8-0.7-2.4-1.8-2.4c-1.2,0-1.8,0.8-1.8,2.3V51h-1.8v-8.9h1.8V43c0.4-0.6,1.3-1,2.2-1
			c2.1,0,3.2,1.4,3.2,4V51H529.8z"/>
		<path class="st3" d="M537.5,51.2c-2.2,0-3.9-1.9-3.9-4.6c0-2.9,1.7-4.7,4-4.7c2.3,0,4,1.8,4,4.6C541.6,49.5,539.8,51.2,537.5,51.2
			z M537.5,43.6c-1.3,0-2.1,1.2-2.1,2.9c0,2,0.9,3,2.2,3s2.2-1.3,2.2-3C539.8,44.8,538.9,43.6,537.5,43.6z"/>
		<path class="st3" d="M549.1,51v-0.9c-0.4,0.6-1.3,1-2.2,1c-2.1,0-3.2-1.4-3.2-4v-5.1h1.8v5c0,1.8,0.7,2.4,1.8,2.4
			c1.2,0,1.8-0.8,1.8-2.3v-5.2h1.8V51H549.1z"/>
		<path class="st3" d="M556.3,51.2c-1.2,0-2.5-0.5-3.4-1.1l0.8-1.3c0.8,0.6,1.8,0.9,2.6,0.9c1.1,0,1.6-0.4,1.6-1
			c0-0.7-0.8-1-2.1-1.5c-1.9-0.7-2.6-1.4-2.6-2.8c0-1.6,1.3-2.4,3-2.4c1.1,0,2.2,0.4,3,1l-0.8,1.3c-0.7-0.5-1.5-0.8-2.3-0.8
			c-0.9,0-1.2,0.3-1.2,0.8c0,0.4,0.3,0.8,1.6,1.3c2,0.8,3,1.3,3,3C559.7,50.6,558.1,51.2,556.3,51.2z"/>
		<path class="st3" d="M569.4,51.2c-1.2,0-2.5-0.5-3.4-1.1l0.8-1.3c0.8,0.6,1.8,0.9,2.6,0.9c1.1,0,1.6-0.4,1.6-1
			c0-0.7-0.8-1-2.1-1.5c-1.9-0.7-2.6-1.4-2.6-2.8c0-1.6,1.3-2.4,3-2.4c1.1,0,2.2,0.4,3,1l-0.8,1.3c-0.7-0.5-1.5-0.8-2.3-0.8
			s-1.2,0.3-1.2,0.8c0,0.4,0.3,0.8,1.6,1.3c2,0.8,3,1.3,3,3C572.7,50.6,571.1,51.2,569.4,51.2z"/>
		<path class="st3" d="M577.7,54.2h-1.9l1.3-3.3l-3.3-8.8h1.9l1.5,4.4c0.3,0.8,0.7,2.1,0.8,2.6c0.2-0.5,0.5-1.8,0.8-2.6l1.5-4.4h1.9
			L577.7,54.2z"/>
		<path class="st3" d="M589.4,51v-5c0-1.8-0.7-2.4-1.8-2.4c-1.2,0-1.8,0.8-1.8,2.3V51H584v-8.9h1.8V43c0.4-0.6,1.3-1,2.2-1
			c2.1,0,3.2,1.4,3.2,4V51H589.4z"/>
		<path class="st3" d="M599.3,44.7c-0.7-0.7-1.4-1.1-2.2-1.1c-1.3,0-2.1,1.1-2.1,3c0,1.8,0.7,3,2.1,3c0.8,0,1.3-0.4,2-1.1l1.1,1.1
			c-0.7,0.9-1.6,1.7-3.2,1.7c-2.2,0-3.9-1.8-3.9-4.6c0-3,1.7-4.7,3.9-4.7c1.3,0,2.3,0.5,3.2,1.5L599.3,44.7z"/>
	</g>
</g>
<g>
	<path class="st3" d="M85.5,244.9c-3.1,0-5-2.5-5-6.1c0-3.6,2-6.1,5-6.1c1.9,0,3.2,0.8,4,2.2l-1.6,1c-0.6-1-1.2-1.4-2.5-1.4
		c-2.1,0-3.2,1.7-3.2,4.4c0,2.7,1.1,4.4,3.2,4.4c1.2,0,2-0.5,2.6-1.5l1.5,1C88.8,244.1,87.3,244.9,85.5,244.9z"/>
	<path class="st3" d="M92.2,244.7v-11.9h7.7v1.7H94v2.9h3.4v1.7H94v3.8h6.1v1.7H92.2z"/>
	<path class="st3" d="M107.5,240.3h-3.1v4.4h-1.8v-11.9h5c2.2,0,3.8,1.3,3.8,3.7C111.4,239,109.8,240.3,107.5,240.3z M107.6,234.5
		h-3.2v4.1h3.2c1.4,0,2-0.8,2-2.1C109.6,235.2,108.8,234.5,107.6,234.5z"/>
	<path class="st3" d="M121,244.7v-5.3h-5.5v5.3h-1.8v-11.9h1.8v4.8h5.5v-4.8h1.8v11.9H121z"/>
	<path class="st3" d="M134.9,244.9c-3.1,0-5-2.5-5-6.1c0-3.6,2-6.1,5-6.1c1.9,0,3.2,0.8,4,2.2l-1.6,1c-0.6-1-1.2-1.4-2.5-1.4
		c-2.1,0-3.2,1.7-3.2,4.4c0,2.7,1.1,4.4,3.2,4.4c1.2,0,2-0.5,2.6-1.5l1.5,1C138.2,244.1,136.7,244.9,134.9,244.9z"/>
	<path class="st3" d="M141.4,244.7v-11.5l1.8-0.9v12.4H141.4z"/>
	<path class="st3" d="M151.2,244.7v-0.9c-0.4,0.6-1.3,1-2.2,1c-2.1,0-3.2-1.4-3.2-4v-5.1h1.8v5c0,1.8,0.7,2.4,1.8,2.4
		c1.2,0,1.8-0.8,1.8-2.3v-5.2h1.8v8.9H151.2z"/>
	<path class="st3" d="M158.4,244.9c-1.2,0-2.5-0.5-3.4-1.1l0.8-1.3c0.8,0.6,1.8,0.9,2.6,0.9c1.1,0,1.6-0.4,1.6-1
		c0-0.7-0.8-1-2.1-1.5c-1.9-0.7-2.6-1.4-2.6-2.8c0-1.6,1.3-2.4,3-2.4c1.1,0,2.2,0.4,3,1l-0.8,1.3c-0.7-0.5-1.5-0.8-2.3-0.8
		c-0.9,0-1.2,0.3-1.2,0.8c0,0.4,0.3,0.8,1.6,1.3c2,0.8,3,1.3,3,3C161.8,244.2,160.2,244.9,158.4,244.9z"/>
	<path class="st3" d="M168.1,244.5c-0.4,0.2-1,0.4-1.7,0.4c-1.2,0-2-0.8-2-2.4v-5.2h-1.3v-1.6h1.3v-2.5l1.7-0.9v3.5h2.2v1.6h-2.2
		v4.8c0,0.8,0.3,1.1,0.9,1.1c0.5,0,1-0.2,1.3-0.4L168.1,244.5z"/>
	<path class="st3" d="M177.6,240.8h-5.9c0.2,1.7,1.2,2.4,2.2,2.4c0.7,0,1.3-0.3,1.9-0.7l1,1.1c-0.8,0.7-1.7,1.2-3.1,1.2
		c-2.1,0-3.9-1.7-3.9-4.6c0-3,1.6-4.7,3.9-4.7c2.5,0,3.8,2.1,3.8,4.5C177.6,240.4,177.6,240.7,177.6,240.8z M173.7,237.2
		c-1.2,0-1.9,0.8-2,2.2h4.1C175.8,238.2,175.2,237.2,173.7,237.2z"/>
	<path class="st3" d="M184.6,237.6c-0.4-0.2-0.8-0.3-1.3-0.3c-1.1,0-1.8,0.8-1.8,2.3v5.1h-1.8v-8.9h1.8v0.9c0.4-0.6,1.2-1,2-1
		c0.7,0,1.2,0.1,1.5,0.4L184.6,237.6z"/>
	<path class="st3" d="M194.5,246.6c-1.7-1.6-3.3-3.9-3.3-7c0-3.2,1.6-5.4,3.3-7.1l0.9,0.8c-1.5,1.7-2.3,3.6-2.3,6.2
		c0,2.8,0.9,4.7,2.3,6.3L194.5,246.6z"/>
	<path class="st3" d="M207.4,244.7v-5c0-1.8-0.6-2.4-1.7-2.4c-1.2,0-1.7,0.8-1.7,2.3v5.2h-1.8v-5c0-1.8-0.6-2.4-1.7-2.4
		c-1.2,0-1.7,0.8-1.7,2.3v5.2h-1.8v-8.9h1.8v0.9c0.4-0.6,1.2-1,2.1-1c1.2,0,2,0.5,2.4,1.3c0.6-0.8,1.3-1.3,2.7-1.3
		c2.1,0,3.1,1.4,3.1,4v5.1H207.4z"/>
	<path class="st3" d="M216.8,244.7v-0.9c-0.6,0.6-1.5,1.1-2.4,1.1c-1.4,0-3.1-0.8-3.1-3c0-2,1.5-2.9,3.6-2.9c0.8,0,1.5,0.1,2,0.3
		v-0.7c0-1-0.6-1.5-1.7-1.5c-0.9,0-1.6,0.2-2.3,0.6l-0.7-1.3c0.9-0.5,1.8-0.8,3.1-0.8c2,0,3.3,1,3.3,3v6.1H216.8z M216.8,240.9
		c-0.5-0.2-1.1-0.4-2-0.4c-1.1,0-1.8,0.5-1.8,1.3c0,0.9,0.6,1.5,1.7,1.5c0.9,0,1.8-0.6,2.2-1.1V240.9z"/>
	<path class="st3" d="M222,234.6c-0.6,0-1.1-0.5-1.1-1.1c0-0.6,0.5-1.1,1.1-1.1c0.6,0,1.1,0.5,1.1,1.1
		C223.1,234.1,222.6,234.6,222,234.6z M221.1,244.7v-8.9h1.8v8.9H221.1z"/>
	<path class="st3" d="M231,244.7v-5c0-1.8-0.7-2.4-1.8-2.4c-1.2,0-1.8,0.8-1.8,2.3v5.2h-1.8v-8.9h1.8v0.9c0.4-0.6,1.3-1,2.2-1
		c2.1,0,3.2,1.4,3.2,4v5.1H231z"/>
	<path class="st3" d="M235.2,246.5l-0.9-0.8c1.5-1.7,2.3-3.6,2.3-6.2c0-2.8-0.9-4.7-2.3-6.3l0.9-0.8c1.7,1.6,3.3,3.9,3.3,7
		C238.5,242.6,237,244.9,235.2,246.5z"/>
</g>
<g>
	<path class="st3" d="M472.8,244.9c-3.1,0-5-2.5-5-6.1c0-3.6,2-6.1,5-6.1c1.9,0,3.2,0.8,4,2.2l-1.6,1c-0.6-1-1.2-1.4-2.5-1.4
		c-2.1,0-3.2,1.7-3.2,4.4c0,2.7,1.1,4.4,3.2,4.4c1.2,0,2-0.5,2.6-1.5l1.5,1C476.1,244.1,474.7,244.9,472.8,244.9z"/>
	<path class="st3" d="M479.5,244.7v-11.9h7.7v1.7h-5.9v2.9h3.4v1.7h-3.4v3.8h6.1v1.7H479.5z"/>
	<path class="st3" d="M494.8,240.3h-3.1v4.4H490v-11.9h5c2.2,0,3.8,1.3,3.8,3.7C498.8,239,497.1,240.3,494.8,240.3z M494.9,234.5
		h-3.2v4.1h3.2c1.4,0,2-0.8,2-2.1C497,235.2,496.2,234.5,494.9,234.5z"/>
	<path class="st3" d="M508.3,244.7v-5.3h-5.5v5.3h-1.8v-11.9h1.8v4.8h5.5v-4.8h1.8v11.9H508.3z"/>
	<path class="st3" d="M522.3,244.9c-3.1,0-5-2.5-5-6.1c0-3.6,2-6.1,5-6.1c1.9,0,3.2,0.8,4,2.2l-1.6,1c-0.6-1-1.2-1.4-2.5-1.4
		c-2.1,0-3.2,1.7-3.2,4.4c0,2.7,1.1,4.4,3.2,4.4c1.2,0,2-0.5,2.6-1.5l1.5,1C525.5,244.1,524.1,244.9,522.3,244.9z"/>
	<path class="st3" d="M528.8,244.7v-11.5l1.8-0.9v12.4H528.8z"/>
	<path class="st3" d="M538.5,244.7v-0.9c-0.4,0.6-1.3,1-2.2,1c-2.1,0-3.2-1.4-3.2-4v-5.1h1.8v5c0,1.8,0.7,2.4,1.8,2.4
		c1.2,0,1.8-0.8,1.8-2.3v-5.2h1.8v8.9H538.5z"/>
	<path class="st3" d="M545.8,244.9c-1.2,0-2.5-0.5-3.4-1.1l0.8-1.3c0.8,0.6,1.8,0.9,2.6,0.9c1.1,0,1.6-0.4,1.6-1
		c0-0.7-0.8-1-2.1-1.5c-1.9-0.7-2.6-1.4-2.6-2.8c0-1.6,1.3-2.4,3-2.4c1.1,0,2.2,0.4,3,1l-0.8,1.3c-0.7-0.5-1.5-0.8-2.3-0.8
		c-0.9,0-1.2,0.3-1.2,0.8c0,0.4,0.3,0.8,1.6,1.3c2,0.8,3,1.3,3,3C549.1,244.2,547.5,244.9,545.8,244.9z"/>
	<path class="st3" d="M555.5,244.5c-0.4,0.2-1,0.4-1.7,0.4c-1.2,0-2-0.8-2-2.4v-5.2h-1.3v-1.6h1.3v-2.5l1.7-0.9v3.5h2.2v1.6h-2.2
		v4.8c0,0.8,0.3,1.1,0.9,1.1c0.5,0,1-0.2,1.3-0.4L555.5,244.5z"/>
	<path class="st3" d="M564.9,240.8H559c0.2,1.7,1.2,2.4,2.2,2.4c0.7,0,1.3-0.3,1.9-0.7l1,1.1c-0.8,0.7-1.7,1.2-3.1,1.2
		c-2.1,0-3.9-1.7-3.9-4.6c0-3,1.6-4.7,3.9-4.7c2.5,0,3.8,2.1,3.8,4.5C564.9,240.4,564.9,240.7,564.9,240.8z M561.1,237.2
		c-1.2,0-1.9,0.8-2,2.2h4.1C563.1,238.2,562.5,237.2,561.1,237.2z"/>
	<path class="st3" d="M572,237.6c-0.4-0.2-0.8-0.3-1.3-0.3c-1.1,0-1.8,0.8-1.8,2.3v5.1h-1.8v-8.9h1.8v0.9c0.4-0.6,1.2-1,2-1
		c0.7,0,1.2,0.1,1.5,0.4L572,237.6z"/>
	<path class="st3" d="M581.8,246.6c-1.7-1.6-3.3-3.9-3.3-7c0-3.2,1.6-5.4,3.3-7.1l0.9,0.8c-1.5,1.7-2.3,3.6-2.3,6.2
		c0,2.8,0.9,4.7,2.3,6.3L581.8,246.6z"/>
	<path class="st3" d="M587.5,233.9c-0.6,0-0.8,0.2-0.8,0.9v1h1.6v1.6h-1.6v7.3H585v-7.3h-1.2v-1.6h1.2v-1.2c0-1.6,1-2.2,2.3-2.2
		c0.5,0,1,0.1,1.3,0.2v1.5C588.2,233.9,587.9,233.9,587.5,233.9z"/>
	<path class="st3" d="M595.1,244.7v-0.9c-0.6,0.6-1.5,1.1-2.4,1.1c-1.4,0-3.1-0.8-3.1-3c0-2,1.5-2.9,3.6-2.9c0.8,0,1.5,0.1,2,0.3
		v-0.7c0-1-0.6-1.5-1.7-1.5c-0.9,0-1.6,0.2-2.3,0.6l-0.7-1.3c0.8-0.5,1.8-0.8,3.1-0.8c2,0,3.3,1,3.3,3v6.1H595.1z M595.1,240.9
		c-0.5-0.2-1.1-0.4-2-0.4c-1.1,0-1.8,0.5-1.8,1.3c0,0.9,0.6,1.5,1.7,1.5c0.9,0,1.8-0.6,2.2-1.1V240.9z"/>
	<path class="st3" d="M599.4,244.7v-11.5l1.8-0.9v12.4H599.4z"/>
	<path class="st3" d="M603.9,244.7v-11.5l1.8-0.9v12.4H603.9z"/>
	<path class="st3" d="M612.3,244.9c-0.9,0-1.8-0.5-2.2-1v0.8h-1.7v-11.5l1.7-0.9v4.3c0.6-0.6,1.4-1,2.3-1c1.9,0,3.4,1.4,3.4,4.8
		C615.8,243.4,614.1,244.9,612.3,244.9z M612,237.2c-0.8,0-1.6,0.6-2,1.1v3.8c0.4,0.5,1.2,1.2,2.1,1.2c1.3,0,1.9-1,1.9-2.8
		C614.1,238.2,613.3,237.2,612,237.2z"/>
	<path class="st3" d="M623,244.7v-0.9c-0.6,0.6-1.5,1.1-2.4,1.1c-1.4,0-3.1-0.8-3.1-3c0-2,1.5-2.9,3.6-2.9c0.8,0,1.5,0.1,2,0.3v-0.7
		c0-1-0.6-1.5-1.7-1.5c-0.9,0-1.6,0.2-2.3,0.6l-0.7-1.3c0.9-0.5,1.8-0.8,3.1-0.8c2,0,3.3,1,3.3,3v6.1H623z M623,240.9
		c-0.5-0.2-1.1-0.4-2-0.4c-1.1,0-1.8,0.5-1.8,1.3c0,0.9,0.6,1.5,1.7,1.5c0.9,0,1.8-0.6,2.2-1.1V240.9z"/>
	<path class="st3" d="M632.8,238.3c-0.7-0.7-1.4-1.1-2.2-1.1c-1.3,0-2.1,1.1-2.1,3c0,1.8,0.7,3,2.1,3c0.8,0,1.3-0.4,2-1.1l1.1,1.1
		c-0.7,0.9-1.6,1.7-3.2,1.7c-2.2,0-3.9-1.8-3.9-4.6c0-3,1.7-4.7,3.9-4.7c1.3,0,2.3,0.5,3.2,1.5L632.8,238.3z"/>
	<path class="st3" d="M641.2,244.7l-2-4.4l-1.4,1.8v2.6h-1.8v-11.5l1.8-0.9v5.6c0,0.5,0,1.5,0,1.9c0.2-0.4,0.7-1,1-1.5l1.9-2.6h2
		l-2.3,3l2.7,5.9H641.2z"/>
	<path class="st3" d="M645.1,246.5l-0.9-0.8c1.5-1.7,2.3-3.6,2.3-6.2c0-2.8-0.9-4.7-2.3-6.3l0.9-0.8c1.7,1.6,3.3,3.9,3.3,7
		C648.4,242.6,646.8,244.9,645.1,246.5z"/>
</g>
<g>
	<path class="st3" d="M90.6,283.6c-1.2,0-2.5-0.5-3.4-1.1l0.8-1.3c0.8,0.6,1.8,0.9,2.6,0.9c1.1,0,1.6-0.4,1.6-1c0-0.7-0.8-1-2.1-1.5
		c-1.9-0.7-2.6-1.4-2.6-2.8c0-1.6,1.3-2.4,3-2.4c1.1,0,2.2,0.4,3,1l-0.8,1.3c-0.7-0.5-1.5-0.8-2.3-0.8c-0.9,0-1.2,0.3-1.2,0.8
		c0,0.4,0.3,0.8,1.6,1.3c2,0.8,3,1.3,3,3C94,282.9,92.4,283.6,90.6,283.6z"/>
	<path class="st3" d="M103.3,279.6h-5.9c0.2,1.7,1.2,2.4,2.2,2.4c0.7,0,1.3-0.3,1.9-0.7l1,1.1c-0.8,0.7-1.7,1.2-3.1,1.2
		c-2.1,0-3.9-1.7-3.9-4.6c0-3,1.6-4.7,3.9-4.7c2.5,0,3.8,2.1,3.8,4.5C103.3,279.1,103.3,279.4,103.3,279.6z M99.4,275.9
		c-1.2,0-1.9,0.8-2,2.2h4.1C101.5,276.9,100.9,275.9,99.4,275.9z"/>
	<path class="st3" d="M110.3,276.3c-0.4-0.2-0.8-0.3-1.3-0.3c-1.1,0-1.8,0.8-1.8,2.3v5.1h-1.8v-8.9h1.8v0.8c0.4-0.6,1.2-1,2-1
		c0.7,0,1.2,0.1,1.5,0.4L110.3,276.3z"/>
	<path class="st3" d="M116.8,283.4h-1.8l-3.2-8.9h1.8l1.6,4.8c0.3,0.9,0.5,1.7,0.7,2.2c0.1-0.5,0.3-1.3,0.6-2.2l1.5-4.8h1.9
		L116.8,283.4z"/>
	<path class="st3" d="M128.7,279.6h-5.9c0.2,1.7,1.2,2.4,2.2,2.4c0.7,0,1.3-0.3,1.9-0.7l1,1.1c-0.8,0.7-1.7,1.2-3.1,1.2
		c-2.1,0-3.9-1.7-3.9-4.6c0-3,1.6-4.7,3.9-4.7c2.5,0,3.8,2.1,3.8,4.5C128.7,279.1,128.7,279.4,128.7,279.6z M124.9,275.9
		c-1.2,0-1.9,0.8-2,2.2h4.1C126.9,276.9,126.3,275.9,124.9,275.9z"/>
	<path class="st3" d="M135.8,276.3c-0.4-0.2-0.8-0.3-1.3-0.3c-1.1,0-1.8,0.8-1.8,2.3v5.1h-1.8v-8.9h1.8v0.8c0.4-0.6,1.2-1,2-1
		c0.7,0,1.2,0.1,1.5,0.4L135.8,276.3z"/>
	<path class="st3" d="M143.2,277c-0.7-0.7-1.4-1.1-2.2-1.1c-1.3,0-2.1,1.1-2.1,3c0,1.8,0.7,3,2.1,3c0.8,0,1.3-0.4,2-1.1l1.1,1.1
		c-0.7,0.9-1.6,1.7-3.2,1.7c-2.2,0-3.9-1.8-3.9-4.6c0-3,1.7-4.7,3.9-4.7c1.3,0,2.3,0.5,3.2,1.5L143.2,277z"/>
</g>
<g>
	<path class="st3" d="M480.6,283.6c-1.2,0-2.5-0.5-3.4-1.1l0.8-1.3c0.8,0.6,1.8,0.9,2.6,0.9c1.1,0,1.6-0.4,1.6-1
		c0-0.7-0.8-1-2.1-1.5c-1.9-0.7-2.6-1.4-2.6-2.8c0-1.6,1.3-2.4,3-2.4c1.1,0,2.2,0.4,3,1l-0.8,1.3c-0.7-0.5-1.5-0.8-2.3-0.8
		s-1.2,0.3-1.2,0.8c0,0.4,0.3,0.8,1.6,1.3c2,0.8,3,1.3,3,3C483.9,282.9,482.3,283.6,480.6,283.6z"/>
	<path class="st3" d="M493.2,279.6h-5.9c0.2,1.7,1.2,2.4,2.2,2.4c0.7,0,1.3-0.3,1.9-0.7l1,1.1c-0.8,0.7-1.7,1.2-3.1,1.2
		c-2.1,0-3.9-1.7-3.9-4.6c0-3,1.6-4.7,3.9-4.7c2.5,0,3.8,2.1,3.8,4.5C493.3,279.1,493.2,279.4,493.2,279.6z M489.4,275.9
		c-1.2,0-1.9,0.8-2,2.2h4.1C491.4,276.9,490.8,275.9,489.4,275.9z"/>
	<path class="st3" d="M500.3,276.3c-0.4-0.2-0.8-0.3-1.3-0.3c-1.1,0-1.8,0.8-1.8,2.3v5.1h-1.8v-8.9h1.8v0.8c0.4-0.6,1.2-1,2-1
		c0.7,0,1.2,0.1,1.5,0.4L500.3,276.3z"/>
	<path class="st3" d="M506.8,283.4H505l-3.2-8.9h1.8l1.6,4.8c0.3,0.9,0.5,1.7,0.7,2.2c0.1-0.5,0.3-1.3,0.6-2.2l1.5-4.8h1.9
		L506.8,283.4z"/>
	<path class="st3" d="M518.6,279.6h-5.9c0.2,1.7,1.2,2.4,2.2,2.4c0.7,0,1.3-0.3,1.9-0.7l1,1.1c-0.8,0.7-1.7,1.2-3.1,1.2
		c-2.1,0-3.9-1.7-3.9-4.6c0-3,1.6-4.7,3.9-4.7c2.5,0,3.8,2.1,3.8,4.5C518.7,279.1,518.7,279.4,518.6,279.6z M514.8,275.9
		c-1.2,0-1.9,0.8-2,2.2h4.1C516.8,276.9,516.3,275.9,514.8,275.9z"/>
	<path class="st3" d="M525.7,276.3c-0.4-0.2-0.8-0.3-1.3-0.3c-1.1,0-1.8,0.8-1.8,2.3v5.1h-1.8v-8.9h1.8v0.8c0.4-0.6,1.2-1,2-1
		c0.7,0,1.2,0.1,1.5,0.4L525.7,276.3z"/>
	<path class="st3" d="M531.1,272.6c-0.6,0-0.8,0.2-0.8,0.9v1h1.6v1.6h-1.6v7.3h-1.8v-7.3h-1.2v-1.6h1.2v-1.2c0-1.6,1-2.2,2.3-2.2
		c0.5,0,1,0.1,1.3,0.2v1.5C531.7,272.6,531.4,272.6,531.1,272.6z"/>
</g>
<g>
	<path class="st3" d="M195.4,283.6c-1.2,0-2.5-0.5-3.4-1.1l0.8-1.3c0.8,0.6,1.8,0.9,2.6,0.9c1.1,0,1.6-0.4,1.6-1
		c0-0.7-0.8-1-2.1-1.5c-1.9-0.7-2.6-1.4-2.6-2.8c0-1.6,1.3-2.4,3-2.4c1.1,0,2.2,0.4,3,1l-0.8,1.3c-0.7-0.5-1.5-0.8-2.3-0.8
		c-0.9,0-1.2,0.3-1.2,0.8c0,0.4,0.3,0.8,1.6,1.3c2,0.8,3,1.3,3,3C198.8,282.9,197.2,283.6,195.4,283.6z"/>
	<path class="st3" d="M208.1,279.6h-5.9c0.2,1.7,1.2,2.4,2.2,2.4c0.7,0,1.3-0.3,1.9-0.7l1,1.1c-0.8,0.7-1.7,1.2-3.1,1.2
		c-2.1,0-3.9-1.7-3.9-4.6c0-3,1.6-4.7,3.9-4.7c2.5,0,3.8,2.1,3.8,4.5C208.1,279.1,208.1,279.4,208.1,279.6z M204.2,275.9
		c-1.2,0-1.9,0.8-2,2.2h4.1C206.2,276.9,205.7,275.9,204.2,275.9z"/>
	<path class="st3" d="M215.1,276.3c-0.4-0.2-0.8-0.3-1.3-0.3c-1.1,0-1.8,0.8-1.8,2.3v5.1h-1.8v-8.9h1.8v0.8c0.4-0.6,1.2-1,2-1
		c0.7,0,1.2,0.1,1.5,0.4L215.1,276.3z"/>
	<path class="st3" d="M221.6,283.4h-1.8l-3.2-8.9h1.8l1.6,4.8c0.3,0.9,0.5,1.7,0.7,2.2c0.1-0.5,0.3-1.3,0.6-2.2l1.5-4.8h1.9
		L221.6,283.4z"/>
	<path class="st3" d="M233.5,279.6h-5.9c0.2,1.7,1.2,2.4,2.2,2.4c0.7,0,1.3-0.3,1.9-0.7l1,1.1c-0.8,0.7-1.7,1.2-3.1,1.2
		c-2.1,0-3.9-1.7-3.9-4.6c0-3,1.6-4.7,3.9-4.7c2.5,0,3.8,2.1,3.8,4.5C233.5,279.1,233.5,279.4,233.5,279.6z M229.7,275.9
		c-1.2,0-1.9,0.8-2,2.2h4.1C231.7,276.9,231.1,275.9,229.7,275.9z"/>
	<path class="st3" d="M240.6,276.3c-0.4-0.2-0.8-0.3-1.3-0.3c-1.1,0-1.8,0.8-1.8,2.3v5.1h-1.8v-8.9h1.8v0.8c0.4-0.6,1.2-1,2-1
		c0.7,0,1.2,0.1,1.5,0.4L240.6,276.3z"/>
	<path class="st3" d="M247.7,283.4v-0.8c-0.6,0.6-1.4,1-2.3,1c-1.9,0-3.4-1.4-3.4-4.8c0-3.1,1.7-4.5,3.5-4.5c0.9,0,1.8,0.5,2.2,1
		v-3.4l1.7-0.9v12.4H247.7z M247.7,277.1c-0.4-0.5-1.2-1.2-2.1-1.2c-1.3,0-1.9,1-1.9,2.8c0,2.2,0.7,3.2,2,3.2c0.8,0,1.6-0.6,2-1.1
		V277.1z"/>
</g>
<g>
	<path class="st3" d="M304.3,283.6c-1.2,0-2.5-0.5-3.4-1.1l0.8-1.3c0.8,0.6,1.8,0.9,2.6,0.9c1.1,0,1.6-0.4,1.6-1
		c0-0.7-0.8-1-2.1-1.5c-1.9-0.7-2.6-1.4-2.6-2.8c0-1.6,1.3-2.4,3-2.4c1.1,0,2.2,0.4,3,1l-0.8,1.3c-0.7-0.5-1.5-0.8-2.3-0.8
		c-0.9,0-1.2,0.3-1.2,0.8c0,0.4,0.3,0.8,1.6,1.3c2,0.8,3,1.3,3,3C307.6,282.9,306,283.6,304.3,283.6z"/>
	<path class="st3" d="M316.9,279.6H311c0.2,1.7,1.2,2.4,2.2,2.4c0.7,0,1.3-0.3,1.9-0.7l1,1.1c-0.8,0.7-1.7,1.2-3.1,1.2
		c-2.1,0-3.9-1.7-3.9-4.6c0-3,1.6-4.7,3.9-4.7c2.5,0,3.8,2.1,3.8,4.5C316.9,279.1,316.9,279.4,316.9,279.6z M313,275.9
		c-1.2,0-1.9,0.8-2,2.2h4.1C315.1,276.9,314.5,275.9,313,275.9z"/>
	<path class="st3" d="M323.9,276.3c-0.4-0.2-0.8-0.3-1.3-0.3c-1.1,0-1.8,0.8-1.8,2.3v5.1h-1.8v-8.9h1.8v0.8c0.4-0.6,1.2-1,2-1
		c0.7,0,1.2,0.1,1.5,0.4L323.9,276.3z"/>
	<path class="st3" d="M330.4,283.4h-1.8l-3.2-8.9h1.8l1.6,4.8c0.3,0.9,0.5,1.7,0.7,2.2c0.1-0.5,0.3-1.3,0.6-2.2l1.5-4.8h1.9
		L330.4,283.4z"/>
	<path class="st3" d="M342.3,279.6h-5.9c0.2,1.7,1.2,2.4,2.2,2.4c0.7,0,1.3-0.3,1.9-0.7l1,1.1c-0.8,0.7-1.7,1.2-3.1,1.2
		c-2.1,0-3.9-1.7-3.9-4.6c0-3,1.6-4.7,3.9-4.7c2.5,0,3.8,2.1,3.8,4.5C342.3,279.1,342.3,279.4,342.3,279.6z M338.5,275.9
		c-1.2,0-1.9,0.8-2,2.2h4.1C340.5,276.9,339.9,275.9,338.5,275.9z"/>
	<path class="st3" d="M349.4,276.3c-0.4-0.2-0.8-0.3-1.3-0.3c-1.1,0-1.8,0.8-1.8,2.3v5.1h-1.8v-8.9h1.8v0.8c0.4-0.6,1.2-1,2-1
		c0.7,0,1.2,0.1,1.5,0.4L349.4,276.3z"/>
	<path class="st3" d="M358.4,279.6h-5.9c0.2,1.7,1.2,2.4,2.2,2.4c0.7,0,1.3-0.3,1.9-0.7l1,1.1c-0.8,0.7-1.7,1.2-3.1,1.2
		c-2.1,0-3.9-1.7-3.9-4.6c0-3,1.6-4.7,3.9-4.7c2.5,0,3.8,2.1,3.8,4.5C358.4,279.1,358.4,279.4,358.4,279.6z M354.6,275.9
		c-1.2,0-1.9,0.8-2,2.2h4.1C356.6,276.9,356,275.9,354.6,275.9z"/>
</g>
<g>
	<rect x="258.1" y="159.4" class="st4" width="143.3" height="56.4"/>
	<g>
		<path class="st1" d="M304.4,183.2c-1.2,0-2.5-0.5-3.4-1.1l0.8-1.3c0.8,0.6,1.8,0.9,2.6,0.9c1.1,0,1.6-0.4,1.6-1
			c0-0.7-0.8-1-2.1-1.5c-1.9-0.7-2.6-1.4-2.6-2.8c0-1.6,1.3-2.4,3-2.4c1.1,0,2.2,0.4,3,1l-0.8,1.3c-0.7-0.5-1.5-0.8-2.3-0.8
			c-0.9,0-1.2,0.3-1.2,0.8c0,0.4,0.3,0.8,1.6,1.3c2,0.8,3,1.3,3,3C307.8,182.5,306.2,183.2,304.4,183.2z"/>
		<path class="st1" d="M317,179.2h-5.9c0.2,1.7,1.2,2.4,2.2,2.4c0.7,0,1.3-0.3,1.9-0.7l1,1.1c-0.8,0.7-1.7,1.2-3.1,1.2
			c-2.1,0-3.9-1.7-3.9-4.6c0-3,1.6-4.7,3.9-4.7c2.5,0,3.8,2.1,3.8,4.5C317.1,178.7,317,179,317,179.2z M313.2,175.5
			c-1.2,0-1.9,0.8-2,2.2h4.1C315.2,176.5,314.6,175.5,313.2,175.5z"/>
		<path class="st1" d="M324.1,175.9c-0.4-0.2-0.8-0.3-1.3-0.3c-1.1,0-1.8,0.8-1.8,2.3v5.1h-1.8v-8.9h1.8v0.8c0.4-0.6,1.2-1,2-1
			c0.7,0,1.2,0.1,1.5,0.4L324.1,175.9z"/>
		<path class="st1" d="M330.6,183h-1.8l-3.2-8.9h1.8l1.6,4.8c0.3,0.9,0.5,1.7,0.7,2.2c0.1-0.5,0.3-1.3,0.6-2.2l1.5-4.8h1.9
			L330.6,183z"/>
		<path class="st1" d="M342.5,179.2h-5.9c0.2,1.7,1.2,2.4,2.2,2.4c0.7,0,1.3-0.3,1.9-0.7l1,1.1c-0.8,0.7-1.7,1.2-3.1,1.2
			c-2.1,0-3.9-1.7-3.9-4.6c0-3,1.6-4.7,3.9-4.7c2.5,0,3.8,2.1,3.8,4.5C342.5,178.7,342.5,179,342.5,179.2z M338.6,175.5
			c-1.2,0-1.9,0.8-2,2.2h4.1C340.7,176.5,340.1,175.5,338.6,175.5z"/>
		<path class="st1" d="M349.5,175.9c-0.4-0.2-0.8-0.3-1.3-0.3c-1.1,0-1.8,0.8-1.8,2.3v5.1h-1.8v-8.9h1.8v0.8c0.4-0.6,1.2-1,2-1
			c0.7,0,1.2,0.1,1.5,0.4L349.5,175.9z"/>
		<path class="st1" d="M356.3,183v-0.9c-0.6,0.6-1.5,1.1-2.4,1.1c-1.4,0-3.1-0.8-3.1-3c0-2,1.5-2.9,3.6-2.9c0.8,0,1.5,0.1,2,0.3V177
			c0-1-0.6-1.5-1.7-1.5c-0.9,0-1.6,0.2-2.3,0.6l-0.7-1.3c0.9-0.5,1.8-0.8,3.1-0.8c2,0,3.3,1,3.3,3v6.1H356.3z M356.3,179.2
			c-0.5-0.2-1.1-0.4-2-0.4c-1.1,0-1.8,0.5-1.8,1.3c0,0.9,0.6,1.5,1.7,1.5c0.9,0,1.8-0.6,2.2-1.1V179.2z"/>
		<path class="st1" d="M273.1,198.5l2.4,4.9h-2.1l-2.4-4.7h-2.7v4.7h-1.8v-11.9h5.2c2.1,0,3.8,1.1,3.8,3.6
			C275.7,197,274.7,198.1,273.1,198.5z M271.9,193.2h-3.5v3.8h3.5c1.2,0,2-0.6,2-1.9C273.9,193.9,273.1,193.2,271.9,193.2z"/>
		<path class="st1" d="M286.1,203.4l-1-2.8h-4.8l-1,2.8h-1.9l4.3-11.9h1.9l4.3,11.9H286.1z M283.6,196.3c-0.3-0.9-0.8-2.2-0.9-2.7
			c-0.1,0.5-0.6,1.9-0.9,2.8l-1,2.7h3.7L283.6,196.3z"/>
		<path class="st1" d="M293.6,203.4h-3.2v-11.9h3.2c3.2,0,5.8,1.8,5.8,6C299.4,201.7,296.7,203.4,293.6,203.4z M293.6,193.2h-1.5
			v8.4h1.5c2.8,0,4-1.7,4-4.2C297.5,195,296.4,193.2,293.6,193.2z"/>
		<path class="st1" d="M306.3,203.6c-3.1,0-5-2.5-5-6.1c0-3.6,2-6.1,5-6.1c3.1,0,5,2.5,5,6.1C311.4,201.1,309.4,203.6,306.3,203.6z
			 M306.3,193.1c-2.1,0-3.2,1.7-3.2,4.4c0,2.7,1.1,4.4,3.2,4.4c2.1,0,3.2-1.7,3.2-4.4C309.6,194.8,308.4,193.1,306.3,193.1z"/>
		<path class="st1" d="M317.2,203.6c-1.7,0-3.2-0.7-4.2-1.9l1.3-1.2c0.8,0.9,2,1.4,3.1,1.4c1.7,0,2.5-0.6,2.5-1.7
			c0-0.9-0.7-1.4-2.7-2c-2.5-0.7-3.7-1.4-3.7-3.5c0-2.1,1.7-3.3,3.9-3.3c1.6,0,2.8,0.6,3.9,1.6l-1.3,1.3c-0.7-0.8-1.6-1.1-2.8-1.1
			c-1.4,0-2,0.7-2,1.5c0,0.8,0.5,1.2,2.6,1.9c2.3,0.7,3.8,1.5,3.8,3.6C321.6,202.1,320.3,203.6,317.2,203.6z"/>
		<path class="st1" d="M333.4,203.6c-3.1,0-5-2.5-5-6.1c0-3.6,2-6.1,5-6.1c1.9,0,3.2,0.8,4,2.2l-1.6,1c-0.6-1-1.3-1.4-2.5-1.4
			c-2.1,0-3.2,1.7-3.2,4.4c0,2.7,1.1,4.4,3.2,4.4c1.9,0,2.7-1.3,2.7-2.7v-0.1h-1.9v-1.7h3.8v1.4C337.9,201.8,336,203.6,333.4,203.6z
			"/>
		<path class="st1" d="M345.3,203.4v-0.9c-0.6,0.6-1.5,1.1-2.4,1.1c-1.4,0-3.1-0.8-3.1-3c0-2,1.5-2.9,3.6-2.9c0.8,0,1.5,0.1,2,0.3
			v-0.7c0-1-0.6-1.5-1.7-1.5c-0.9,0-1.6,0.2-2.3,0.6l-0.7-1.3c0.9-0.5,1.8-0.8,3.1-0.8c2,0,3.3,1,3.3,3v6.1H345.3z M345.3,199.6
			c-0.5-0.2-1.1-0.4-2-0.4c-1.1,0-1.8,0.5-1.8,1.3c0,0.9,0.6,1.5,1.7,1.5c0.9,0,1.8-0.6,2.2-1.1V199.6z"/>
		<path class="st1" d="M353.8,203.2c-0.4,0.2-1,0.4-1.7,0.4c-1.2,0-2-0.8-2-2.4v-5.2h-1.3v-1.6h1.3v-2.5l1.7-0.9v3.5h2.2v1.6h-2.2
			v4.8c0,0.8,0.3,1.1,0.9,1.1c0.5,0,1-0.2,1.3-0.4L353.8,203.2z"/>
		<path class="st1" d="M363.2,199.6h-5.9c0.2,1.7,1.2,2.4,2.2,2.4c0.7,0,1.3-0.3,1.9-0.7l1,1.1c-0.8,0.7-1.7,1.2-3.1,1.2
			c-2.1,0-3.9-1.7-3.9-4.6c0-3,1.6-4.7,3.9-4.7c2.5,0,3.8,2.1,3.8,4.5C363.3,199.1,363.2,199.4,363.2,199.6z M359.4,195.9
			c-1.2,0-1.9,0.8-2,2.2h4.1C361.4,196.9,360.8,195.9,359.4,195.9z"/>
		<path class="st1" d="M373.2,203.4h-1.5l-1.2-4.5c-0.2-0.7-0.4-1.5-0.5-1.9c-0.1,0.4-0.3,1.2-0.5,1.9l-1.2,4.5h-1.5l-2.4-8.9h1.7
			l1.1,4.3c0.2,0.7,0.4,1.5,0.4,2c0.1-0.4,0.3-1.3,0.5-2l1.2-4.3h1.4l1.2,4.4c0.2,0.7,0.4,1.5,0.5,1.9c0.1-0.4,0.3-1.3,0.4-2
			l1.1-4.3h1.7L373.2,203.4z"/>
		<path class="st1" d="M382.2,203.4v-0.9c-0.6,0.6-1.5,1.1-2.4,1.1c-1.4,0-3.1-0.8-3.1-3c0-2,1.5-2.9,3.6-2.9c0.8,0,1.5,0.1,2,0.3
			v-0.7c0-1-0.6-1.5-1.7-1.5c-0.9,0-1.6,0.2-2.3,0.6l-0.7-1.3c0.9-0.5,1.8-0.8,3.1-0.8c2,0,3.3,1,3.3,3v6.1H382.2z M382.2,199.6
			c-0.5-0.2-1.1-0.4-2-0.4c-1.1,0-1.8,0.5-1.8,1.3c0,0.9,0.6,1.5,1.7,1.5c0.9,0,1.8-0.6,2.2-1.1V199.6z"/>
		<path class="st1" d="M389.3,206.6h-1.9l1.3-3.3l-3.3-8.8h1.9l1.5,4.4c0.3,0.8,0.7,2.1,0.8,2.6c0.2-0.5,0.5-1.8,0.8-2.6l1.5-4.4
			h1.9L389.3,206.6z"/>
	</g>
</g>
<g>
	<rect x="649.1" y="159.4" class="st4" width="143.3" height="56.4"/>
	<g>
		<path class="st1" d="M696.7,183.2c-1.2,0-2.5-0.5-3.4-1.1l0.8-1.3c0.8,0.6,1.8,0.9,2.6,0.9c1.1,0,1.6-0.4,1.6-1
			c0-0.7-0.8-1-2.1-1.5c-1.9-0.7-2.6-1.4-2.6-2.8c0-1.6,1.3-2.4,3-2.4c1.1,0,2.2,0.4,3,1l-0.8,1.3c-0.7-0.5-1.5-0.8-2.3-0.8
			c-0.9,0-1.2,0.3-1.2,0.8c0,0.4,0.3,0.8,1.6,1.3c2,0.8,3,1.3,3,3C700.1,182.5,698.5,183.2,696.7,183.2z"/>
		<path class="st1" d="M709.3,179.2h-5.9c0.2,1.7,1.2,2.4,2.2,2.4c0.7,0,1.3-0.3,1.9-0.7l1,1.1c-0.8,0.7-1.7,1.2-3.1,1.2
			c-2.1,0-3.9-1.7-3.9-4.6c0-3,1.6-4.7,3.9-4.7c2.5,0,3.8,2.1,3.8,4.5C709.4,178.7,709.4,179,709.3,179.2z M705.5,175.5
			c-1.2,0-1.9,0.8-2,2.2h4.1C707.5,176.5,707,175.5,705.5,175.5z"/>
		<path class="st1" d="M716.4,175.9c-0.4-0.2-0.8-0.3-1.3-0.3c-1.1,0-1.8,0.8-1.8,2.3v5.1h-1.8v-8.9h1.8v0.8c0.4-0.6,1.2-1,2-1
			c0.7,0,1.2,0.1,1.5,0.4L716.4,175.9z"/>
		<path class="st1" d="M722.9,183h-1.8l-3.2-8.9h1.8l1.6,4.8c0.3,0.9,0.5,1.7,0.7,2.2c0.1-0.5,0.3-1.3,0.6-2.2l1.5-4.8h1.9
			L722.9,183z"/>
		<path class="st1" d="M734.8,179.2h-5.9c0.2,1.7,1.2,2.4,2.2,2.4c0.7,0,1.3-0.3,1.9-0.7l1,1.1c-0.8,0.7-1.7,1.2-3.1,1.2
			c-2.1,0-3.9-1.7-3.9-4.6c0-3,1.6-4.7,3.9-4.7c2.5,0,3.8,2.1,3.8,4.5C734.8,178.7,734.8,179,734.8,179.2z M730.9,175.5
			c-1.2,0-1.9,0.8-2,2.2h4.1C733,176.5,732.4,175.5,730.9,175.5z"/>
		<path class="st1" d="M741.8,175.9c-0.4-0.2-0.8-0.3-1.3-0.3c-1.1,0-1.8,0.8-1.8,2.3v5.1H737v-8.9h1.8v0.8c0.4-0.6,1.2-1,2-1
			c0.7,0,1.2,0.1,1.5,0.4L741.8,175.9z"/>
		<path class="st1" d="M747.3,172.2c-0.6,0-0.8,0.2-0.8,0.9v1h1.6v1.6h-1.6v7.3h-1.8v-7.3h-1.2v-1.6h1.2v-1.2c0-1.6,1-2.2,2.3-2.2
			c0.5,0,1,0.1,1.3,0.2v1.5C747.9,172.2,747.6,172.2,747.3,172.2z"/>
		<path class="st1" d="M664.1,198.5l2.4,4.9h-2.1l-2.4-4.7h-2.7v4.7h-1.8v-11.9h5.2c2.1,0,3.8,1.1,3.8,3.6
			C666.7,197,665.7,198.1,664.1,198.5z M662.9,193.2h-3.5v3.8h3.5c1.2,0,2-0.6,2-1.9C664.9,193.9,664.1,193.2,662.9,193.2z"/>
		<path class="st1" d="M677.1,203.4l-1-2.8h-4.8l-1,2.8h-1.9l4.3-11.9h1.9l4.3,11.9H677.1z M674.6,196.3c-0.3-0.9-0.8-2.2-0.9-2.7
			c-0.1,0.5-0.6,1.9-0.9,2.8l-1,2.7h3.7L674.6,196.3z"/>
		<path class="st1" d="M684.6,203.4h-3.2v-11.9h3.2c3.2,0,5.8,1.8,5.8,6C690.4,201.7,687.7,203.4,684.6,203.4z M684.6,193.2h-1.5
			v8.4h1.5c2.8,0,4-1.7,4-4.2C688.6,195,687.4,193.2,684.6,193.2z"/>
		<path class="st1" d="M697.3,203.6c-3.1,0-5-2.5-5-6.1c0-3.6,2-6.1,5-6.1c3.1,0,5,2.5,5,6.1C702.4,201.1,700.4,203.6,697.3,203.6z
			 M697.3,193.1c-2.1,0-3.2,1.7-3.2,4.4c0,2.7,1.1,4.4,3.2,4.4c2.1,0,3.2-1.7,3.2-4.4C700.6,194.8,699.4,193.1,697.3,193.1z"/>
		<path class="st1" d="M708.2,203.6c-1.7,0-3.2-0.7-4.2-1.9l1.3-1.2c0.8,0.9,2,1.4,3.1,1.4c1.7,0,2.5-0.6,2.5-1.7
			c0-0.9-0.7-1.4-2.7-2c-2.5-0.7-3.7-1.4-3.7-3.5c0-2.1,1.7-3.3,3.9-3.3c1.6,0,2.8,0.6,3.9,1.6l-1.3,1.3c-0.7-0.8-1.6-1.1-2.8-1.1
			c-1.4,0-2,0.7-2,1.5c0,0.8,0.5,1.2,2.6,1.9c2.3,0.7,3.8,1.5,3.8,3.6C712.6,202.1,711.3,203.6,708.2,203.6z"/>
		<path class="st1" d="M724.4,203.6c-3.1,0-5-2.5-5-6.1c0-3.6,2-6.1,5-6.1c1.9,0,3.2,0.8,4,2.2l-1.6,1c-0.6-1-1.3-1.4-2.5-1.4
			c-2.1,0-3.2,1.7-3.2,4.4c0,2.7,1.1,4.4,3.2,4.4c1.9,0,2.7-1.3,2.7-2.7v-0.1h-1.9v-1.7h3.8v1.4C728.9,201.8,727,203.6,724.4,203.6z
			"/>
		<path class="st1" d="M736.3,203.4v-0.9c-0.6,0.6-1.5,1.1-2.4,1.1c-1.4,0-3.1-0.8-3.1-3c0-2,1.5-2.9,3.6-2.9c0.8,0,1.5,0.1,2,0.3
			v-0.7c0-1-0.6-1.5-1.7-1.5c-0.9,0-1.6,0.2-2.3,0.6l-0.7-1.3c0.8-0.5,1.8-0.8,3.1-0.8c2,0,3.3,1,3.3,3v6.1H736.3z M736.3,199.6
			c-0.5-0.2-1.1-0.4-2-0.4c-1.1,0-1.8,0.5-1.8,1.3c0,0.9,0.6,1.5,1.7,1.5c0.9,0,1.8-0.6,2.2-1.1V199.6z"/>
		<path class="st1" d="M744.8,203.2c-0.4,0.2-1,0.4-1.7,0.4c-1.2,0-2-0.8-2-2.4v-5.2h-1.3v-1.6h1.3v-2.5l1.7-0.9v3.5h2.2v1.6h-2.2
			v4.8c0,0.8,0.3,1.1,0.9,1.1c0.5,0,1-0.2,1.3-0.4L744.8,203.2z"/>
		<path class="st1" d="M754.2,199.6h-5.9c0.2,1.7,1.2,2.4,2.2,2.4c0.7,0,1.3-0.3,1.9-0.7l1,1.1c-0.8,0.7-1.7,1.2-3.1,1.2
			c-2.1,0-3.9-1.7-3.9-4.6c0-3,1.6-4.7,3.9-4.7c2.5,0,3.8,2.1,3.8,4.5C754.3,199.1,754.2,199.4,754.2,199.6z M750.4,195.9
			c-1.2,0-1.9,0.8-2,2.2h4.1C752.4,196.9,751.8,195.9,750.4,195.9z"/>
		<path class="st1" d="M764.3,203.4h-1.5l-1.2-4.5c-0.2-0.7-0.4-1.5-0.5-1.9c-0.1,0.4-0.3,1.2-0.5,1.9l-1.2,4.5h-1.5l-2.4-8.9h1.7
			l1.1,4.3c0.2,0.7,0.4,1.5,0.4,2c0.1-0.4,0.3-1.3,0.5-2l1.2-4.3h1.4l1.2,4.4c0.2,0.7,0.4,1.5,0.5,1.9c0.1-0.4,0.3-1.3,0.4-2
			l1.1-4.3h1.7L764.3,203.4z"/>
		<path class="st1" d="M773.2,203.4v-0.9c-0.6,0.6-1.5,1.1-2.4,1.1c-1.4,0-3.1-0.8-3.1-3c0-2,1.5-2.9,3.6-2.9c0.8,0,1.5,0.1,2,0.3
			v-0.7c0-1-0.6-1.5-1.7-1.5c-0.9,0-1.6,0.2-2.3,0.6l-0.7-1.3c0.8-0.5,1.8-0.8,3.1-0.8c2,0,3.3,1,3.3,3v6.1H773.2z M773.2,199.6
			c-0.5-0.2-1.1-0.4-2-0.4c-1.1,0-1.8,0.5-1.8,1.3c0,0.9,0.6,1.5,1.7,1.5c0.9,0,1.8-0.6,2.2-1.1V199.6z"/>
		<path class="st1" d="M780.3,206.6h-1.9l1.3-3.3l-3.3-8.8h1.9l1.5,4.4c0.3,0.8,0.7,2.1,0.8,2.6c0.2-0.5,0.5-1.8,0.8-2.6l1.5-4.4
			h1.9L780.3,206.6z"/>
	</g>
</g>
<g>
	<path class="st1" d="M111.1,311.8c0.6,0.2,1.3,0.5,2.2,0.7c2.8,0.7,7,1.3,12.7,1.3c5.7,0,9.9-0.6,12.7-1.3c0.9-0.2,1.6-0.5,2.2-0.7
		c1.1-0.5,1.7-0.9,1.7-1.3v-10c0-1.2-5.7-3.3-16.5-3.3c-10.9,0-16.5,2.2-16.5,3.3v10C109.3,310.9,109.9,311.4,111.1,311.8z
		 M120.3,303c1.9,0.2,3.9,0.2,5.9,0.2c5.6,0,10.8-0.6,14-1.7c0.3-0.1,0.5,0.1,0.6,0.3c0.1,0.3-0.1,0.5-0.3,0.6
		c-3.3,1.1-8.6,1.7-14.3,1.7c-2,0-4.1-0.1-6-0.2c-0.3,0-0.5-0.3-0.4-0.5C119.8,303.2,120.1,303,120.3,303z M111.1,301.7
		c0.1-0.2,0.3-0.3,0.4-0.2c1.2,0.5,2.9,0.9,4.8,1.2c0.2,0,0.3,0.2,0.3,0.4c0,0.2-0.2,0.3-0.3,0.3c0,0,0,0-0.1,0
		c-2-0.3-3.7-0.7-4.9-1.2C111.1,302,111.1,301.8,111.1,301.7z"/>
	<path class="st1" d="M140.7,313.2c-3.7,1.4-10,1.9-14.8,1.9c-4.8,0-11.1-0.5-14.8-1.9c-1.1,0.5-1.7,0.9-1.7,1.3v10
		c0,0.4,0.6,0.8,1.7,1.3c0.6,0.2,1.3,0.5,2.1,0.7c2.8,0.7,7,1.3,12.8,1.3c5.7,0,10-0.6,12.8-1.3c0.8-0.2,1.6-0.5,2.1-0.7
		c1.1-0.5,1.7-0.9,1.7-1.3v-10C142.5,314.2,141.9,313.7,140.7,313.2z M116.3,317.3C116.3,317.3,116.3,317.3,116.3,317.3
		c-2.1-0.3-3.7-0.7-5-1.2c-0.2-0.1-0.3-0.3-0.2-0.4c0.1-0.2,0.3-0.3,0.4-0.2c1.2,0.5,2.9,0.9,4.8,1.2c0.2,0,0.3,0.2,0.3,0.4
		C116.6,317.2,116.5,317.3,116.3,317.3z M140.5,316.5c-3.3,1.1-8.6,1.7-14.3,1.7c-2.1,0-4.1-0.1-6-0.2c-0.3,0-0.5-0.3-0.4-0.5
		c0-0.3,0.3-0.5,0.5-0.4c1.9,0.2,3.9,0.2,5.9,0.2c5.6,0,10.8-0.6,14-1.7c0.3-0.1,0.5,0.1,0.6,0.3
		C140.9,316.1,140.8,316.4,140.5,316.5z"/>
	<path class="st1" d="M140.8,327.2c-3.7,1.4-10.1,1.9-14.9,1.9c-4.8,0-11.2-0.6-14.9-1.9c-1.1,0.5-1.7,0.9-1.7,1.3v10
		c0,1.2,5.7,3.3,16.5,3.3s16.5-2.2,16.5-3.3v-10C142.5,328.1,141.9,327.7,140.8,327.2z M116.3,331.2
		C116.3,331.2,116.3,331.2,116.3,331.2c-2.1-0.3-3.7-0.8-5-1.2c-0.2-0.1-0.3-0.3-0.2-0.4c0.1-0.2,0.3-0.3,0.4-0.2
		c1.2,0.5,2.9,0.9,4.8,1.2c0.2,0,0.3,0.2,0.3,0.4C116.6,331.1,116.5,331.2,116.3,331.2z M140.5,330.4c-3.3,1.1-8.6,1.7-14.3,1.7
		c-2,0-4.1-0.1-6-0.2c-0.3,0-0.5-0.3-0.4-0.5c0-0.3,0.3-0.5,0.5-0.4c1.9,0.2,3.9,0.2,5.9,0.2c5.6,0,10.8-0.6,14-1.7
		c0.3-0.1,0.5,0.1,0.6,0.3C140.9,330,140.8,330.3,140.5,330.4z"/>
	<path class="st3" d="M116.4,330.6c-1.9-0.3-3.6-0.7-4.8-1.2c-0.2-0.1-0.4,0-0.4,0.2c-0.1,0.2,0,0.4,0.2,0.4
		c1.3,0.5,2.9,0.9,4.9,1.2c0,0,0,0,0.1,0c0.2,0,0.3-0.1,0.3-0.3C116.7,330.8,116.5,330.6,116.4,330.6z"/>
	<path class="st3" d="M120.2,304c1.9,0.2,3.9,0.2,6,0.2c5.7,0,11-0.6,14.3-1.7c0.3-0.1,0.4-0.4,0.3-0.6c-0.1-0.3-0.4-0.4-0.6-0.3
		c-3.2,1.1-8.4,1.7-14,1.7c-2,0-4-0.1-5.9-0.2c-0.3,0-0.5,0.2-0.5,0.4C119.8,303.7,120,304,120.2,304z"/>
	<path class="st3" d="M111.3,302.1c1.3,0.5,2.9,0.9,4.9,1.2c0,0,0,0,0.1,0c0.2,0,0.3-0.1,0.3-0.3c0-0.2-0.1-0.3-0.3-0.4
		c-1.9-0.3-3.6-0.7-4.8-1.2c-0.2-0.1-0.4,0-0.4,0.2C111.1,301.8,111.1,302,111.3,302.1z"/>
	<path class="st3" d="M142.2,312.5c1-0.6,1.5-1.2,1.5-2v-10c0-3.4-10.7-4.6-17.9-4.6c-7.2,0-17.9,1.2-17.9,4.6v10
		c0,0.8,0.6,1.5,1.5,2c-1,0.6-1.5,1.2-1.5,2v10c0,0.8,0.6,1.4,1.5,2c-0.9,0.6-1.5,1.2-1.5,2v10c0,3.4,10.7,4.6,17.9,4.6
		c7.2,0,17.9-1.2,17.9-4.6v-10c0-0.8-0.6-1.4-1.5-2c0.9-0.6,1.5-1.2,1.5-2v-10C143.8,313.8,143.2,313.1,142.2,312.5z M109.3,310.5
		v-10c0-1.2,5.7-3.3,16.5-3.3c10.9,0,16.5,2.2,16.5,3.3v10c0,0.4-0.6,0.8-1.7,1.3c-0.6,0.2-1.3,0.5-2.2,0.7c-2.8,0.7-7,1.3-12.7,1.3
		c-5.6,0-9.9-0.6-12.7-1.3c-0.9-0.2-1.6-0.5-2.2-0.7C109.9,311.4,109.3,310.9,109.3,310.5z M142.5,328.5v10c0,1.2-5.7,3.3-16.5,3.3
		s-16.5-2.2-16.5-3.3v-10c0-0.4,0.6-0.8,1.7-1.3c3.7,1.4,10.1,1.9,14.9,1.9c4.8,0,11.2-0.6,14.9-1.9
		C141.9,327.7,142.5,328.1,142.5,328.5z M142.5,324.5c0,0.4-0.6,0.8-1.7,1.3c-0.6,0.2-1.3,0.5-2.1,0.7c-2.8,0.7-7,1.3-12.8,1.3
		c-5.7,0-10-0.6-12.8-1.3c-0.8-0.2-1.6-0.5-2.1-0.7c-1.1-0.5-1.7-0.9-1.7-1.3v-10c0-0.4,0.6-0.8,1.7-1.3c3.7,1.4,10,1.9,14.8,1.9
		c4.8,0,11.1-0.6,14.8-1.9c1.1,0.5,1.7,0.9,1.7,1.3V324.5z"/>
	<path class="st3" d="M140.2,315.5c-3.2,1.1-8.4,1.7-14,1.7c-2,0-4-0.1-5.9-0.2c-0.3,0-0.5,0.2-0.5,0.4c0,0.3,0.2,0.5,0.4,0.5
		c1.9,0.2,3.9,0.2,6,0.2c5.7,0,11-0.6,14.3-1.7c0.3-0.1,0.4-0.4,0.3-0.6C140.7,315.6,140.5,315.5,140.2,315.5z"/>
	<path class="st3" d="M140.2,329.5c-3.2,1.1-8.4,1.7-14,1.7c-2,0-4-0.1-5.9-0.2c-0.3,0-0.5,0.2-0.5,0.4c0,0.3,0.2,0.5,0.4,0.5
		c1.9,0.2,3.9,0.2,6,0.2c5.7,0,11-0.6,14.3-1.7c0.3-0.1,0.4-0.4,0.3-0.6C140.7,329.5,140.5,329.4,140.2,329.5z"/>
	<path class="st3" d="M116.4,316.7c-1.9-0.3-3.6-0.7-4.8-1.2c-0.2-0.1-0.4,0-0.4,0.2c-0.1,0.2,0,0.4,0.2,0.4
		c1.3,0.5,2.9,0.9,4.9,1.2c0,0,0,0,0.1,0c0.2,0,0.3-0.1,0.3-0.3C116.7,316.9,116.5,316.7,116.4,316.7z"/>
</g>
<g>
	<path class="st1" d="M219.5,311.8c0.6,0.2,1.3,0.5,2.2,0.7c2.8,0.7,7,1.3,12.7,1.3c5.7,0,9.9-0.6,12.7-1.3c0.9-0.2,1.6-0.5,2.2-0.7
		c1.1-0.5,1.7-0.9,1.7-1.3v-10c0-1.2-5.7-3.3-16.5-3.3c-10.9,0-16.5,2.2-16.5,3.3v10C217.7,310.9,218.3,311.4,219.5,311.8z
		 M228.7,303c1.9,0.2,3.9,0.2,5.9,0.2c5.6,0,10.8-0.6,14-1.7c0.3-0.1,0.5,0.1,0.6,0.3c0.1,0.3-0.1,0.5-0.3,0.6
		c-3.3,1.1-8.6,1.7-14.3,1.7c-2,0-4.1-0.1-6-0.2c-0.3,0-0.5-0.3-0.4-0.5C228.2,303.2,228.4,303,228.7,303z M219.5,301.7
		c0.1-0.2,0.3-0.3,0.4-0.2c1.2,0.5,2.9,0.9,4.8,1.2c0.2,0,0.3,0.2,0.3,0.4c0,0.2-0.2,0.3-0.3,0.3c0,0,0,0-0.1,0
		c-2-0.3-3.7-0.7-4.9-1.2C219.5,302,219.4,301.8,219.5,301.7z"/>
	<path class="st1" d="M249.1,313.2c-3.7,1.4-10,1.9-14.8,1.9c-4.8,0-11.1-0.5-14.8-1.9c-1.1,0.5-1.7,0.9-1.7,1.3v10
		c0,0.4,0.6,0.8,1.7,1.3c0.6,0.2,1.3,0.5,2.1,0.7c2.8,0.7,7,1.3,12.8,1.3s10-0.6,12.8-1.3c0.8-0.2,1.6-0.5,2.1-0.7
		c1.1-0.5,1.7-0.9,1.7-1.3v-10C250.8,314.2,250.2,313.7,249.1,313.2z M224.7,317.3C224.7,317.3,224.6,317.3,224.7,317.3
		c-2.1-0.3-3.7-0.7-5-1.2c-0.2-0.1-0.3-0.3-0.2-0.4c0.1-0.2,0.3-0.3,0.4-0.2c1.2,0.5,2.9,0.9,4.8,1.2c0.2,0,0.3,0.2,0.3,0.4
		C225,317.2,224.8,317.3,224.7,317.3z M248.9,316.5c-3.3,1.1-8.6,1.7-14.3,1.7c-2.1,0-4.1-0.1-6-0.2c-0.3,0-0.5-0.3-0.4-0.5
		c0-0.3,0.3-0.5,0.5-0.4c1.9,0.2,3.9,0.2,5.9,0.2c5.6,0,10.8-0.6,14-1.7c0.3-0.1,0.5,0.1,0.6,0.3
		C249.3,316.1,249.1,316.4,248.9,316.5z"/>
	<path class="st1" d="M249.2,327.2c-3.7,1.4-10.1,1.9-14.9,1.9c-4.8,0-11.2-0.6-14.9-1.9c-1.1,0.5-1.7,0.9-1.7,1.3v10
		c0,1.2,5.7,3.3,16.5,3.3c10.9,0,16.5-2.2,16.5-3.3v-10C250.8,328.1,250.3,327.7,249.2,327.2z M224.7,331.2
		C224.7,331.2,224.6,331.2,224.7,331.2c-2.1-0.3-3.7-0.8-5-1.2c-0.2-0.1-0.3-0.3-0.2-0.4c0.1-0.2,0.3-0.3,0.4-0.2
		c1.2,0.5,2.9,0.9,4.8,1.2c0.2,0,0.3,0.2,0.3,0.4C225,331.1,224.8,331.2,224.7,331.2z M248.9,330.4c-3.3,1.1-8.6,1.7-14.3,1.7
		c-2,0-4.1-0.1-6-0.2c-0.3,0-0.5-0.3-0.4-0.5c0-0.3,0.3-0.5,0.5-0.4c1.9,0.2,3.9,0.2,5.9,0.2c5.6,0,10.8-0.6,14-1.7
		c0.3-0.1,0.5,0.1,0.6,0.3C249.3,330,249.1,330.3,248.9,330.4z"/>
	<path class="st3" d="M224.7,330.6c-1.9-0.3-3.6-0.7-4.8-1.2c-0.2-0.1-0.4,0-0.4,0.2c-0.1,0.2,0,0.4,0.2,0.4
		c1.3,0.5,2.9,0.9,4.9,1.2c0,0,0,0,0.1,0c0.2,0,0.3-0.1,0.3-0.3C225,330.8,224.9,330.6,224.7,330.6z"/>
	<path class="st3" d="M228.6,304c1.9,0.2,3.9,0.2,6,0.2c5.7,0,11-0.6,14.3-1.7c0.3-0.1,0.4-0.4,0.3-0.6c-0.1-0.3-0.4-0.4-0.6-0.3
		c-3.2,1.1-8.4,1.7-14,1.7c-2,0-4-0.1-5.9-0.2c-0.3,0-0.5,0.2-0.5,0.4C228.1,303.7,228.3,304,228.6,304z"/>
	<path class="st3" d="M219.7,302.1c1.3,0.5,2.9,0.9,4.9,1.2c0,0,0,0,0.1,0c0.2,0,0.3-0.1,0.3-0.3c0-0.2-0.1-0.3-0.3-0.4
		c-1.9-0.3-3.6-0.7-4.8-1.2c-0.2-0.1-0.4,0-0.4,0.2C219.4,301.8,219.5,302,219.7,302.1z"/>
	<path class="st3" d="M250.6,312.5c1-0.6,1.5-1.2,1.5-2v-10c0-3.4-10.7-4.6-17.9-4.6c-7.2,0-17.9,1.2-17.9,4.6v10
		c0,0.8,0.6,1.5,1.5,2c-1,0.6-1.5,1.2-1.5,2v10c0,0.8,0.6,1.4,1.5,2c-0.9,0.6-1.5,1.2-1.5,2v10c0,3.4,10.7,4.6,17.9,4.6
		c7.2,0,17.9-1.2,17.9-4.6v-10c0-0.8-0.6-1.4-1.5-2c0.9-0.6,1.5-1.2,1.5-2v-10C252.1,313.8,251.6,313.1,250.6,312.5z M217.7,310.5
		v-10c0-1.2,5.7-3.3,16.5-3.3c10.9,0,16.5,2.2,16.5,3.3v10c0,0.4-0.6,0.8-1.7,1.3c-0.6,0.2-1.3,0.5-2.2,0.7c-2.8,0.7-7,1.3-12.7,1.3
		c-5.6,0-9.9-0.6-12.7-1.3c-0.9-0.2-1.6-0.5-2.2-0.7C218.3,311.4,217.7,310.9,217.7,310.5z M250.8,328.5v10c0,1.2-5.7,3.3-16.5,3.3
		c-10.9,0-16.5-2.2-16.5-3.3v-10c0-0.4,0.6-0.8,1.7-1.3c3.7,1.4,10.1,1.9,14.9,1.9c4.8,0,11.2-0.6,14.9-1.9
		C250.3,327.7,250.8,328.1,250.8,328.5z M250.8,324.5c0,0.4-0.6,0.8-1.7,1.3c-0.6,0.2-1.3,0.5-2.1,0.7c-2.8,0.7-7,1.3-12.8,1.3
		s-10-0.6-12.8-1.3c-0.8-0.2-1.6-0.5-2.1-0.7c-1.1-0.5-1.7-0.9-1.7-1.3v-10c0-0.4,0.6-0.8,1.7-1.3c3.7,1.4,10,1.9,14.8,1.9
		c4.8,0,11.1-0.6,14.8-1.9c1.1,0.5,1.7,0.9,1.7,1.3V324.5z"/>
	<path class="st3" d="M248.6,315.5c-3.2,1.1-8.4,1.7-14,1.7c-2,0-4-0.1-5.9-0.2c-0.3,0-0.5,0.2-0.5,0.4c0,0.3,0.2,0.5,0.4,0.5
		c1.9,0.2,3.9,0.2,6,0.2c5.7,0,11-0.6,14.3-1.7c0.3-0.1,0.4-0.4,0.3-0.6C249.1,315.6,248.8,315.5,248.6,315.5z"/>
	<path class="st3" d="M248.6,329.5c-3.2,1.1-8.4,1.7-14,1.7c-2,0-4-0.1-5.9-0.2c-0.3,0-0.5,0.2-0.5,0.4c0,0.3,0.2,0.5,0.4,0.5
		c1.9,0.2,3.9,0.2,6,0.2c5.7,0,11-0.6,14.3-1.7c0.3-0.1,0.4-0.4,0.3-0.6C249.1,329.5,248.8,329.4,248.6,329.5z"/>
	<path class="st3" d="M224.7,316.7c-1.9-0.3-3.6-0.7-4.8-1.2c-0.2-0.1-0.4,0-0.4,0.2c-0.1,0.2,0,0.4,0.2,0.4
		c1.3,0.5,2.9,0.9,4.9,1.2c0,0,0,0,0.1,0c0.2,0,0.3-0.1,0.3-0.3C225,316.9,224.9,316.7,224.7,316.7z"/>
</g>
<g>
	<path class="st1" d="M327.8,311.8c0.6,0.2,1.3,0.5,2.2,0.7c2.8,0.7,7,1.3,12.7,1.3c5.7,0,9.9-0.6,12.7-1.3c0.9-0.2,1.6-0.5,2.2-0.7
		c1.1-0.5,1.7-0.9,1.7-1.3v-10c0-1.2-5.7-3.3-16.5-3.3c-10.9,0-16.5,2.2-16.5,3.3v10C326.1,310.9,326.7,311.4,327.8,311.8z
		 M337.1,303c1.9,0.2,3.9,0.2,5.9,0.2c5.6,0,10.8-0.6,14-1.7c0.3-0.1,0.5,0.1,0.6,0.3c0.1,0.3-0.1,0.5-0.3,0.6
		c-3.3,1.1-8.6,1.7-14.3,1.7c-2,0-4.1-0.1-6-0.2c-0.3,0-0.5-0.3-0.4-0.5C336.6,303.2,336.8,303,337.1,303z M327.9,301.7
		c0.1-0.2,0.3-0.3,0.4-0.2c1.2,0.5,2.9,0.9,4.8,1.2c0.2,0,0.3,0.2,0.3,0.4c0,0.2-0.2,0.3-0.3,0.3c0,0,0,0-0.1,0
		c-2-0.3-3.7-0.7-4.9-1.2C327.9,302,327.8,301.8,327.9,301.7z"/>
	<path class="st1" d="M357.5,313.2c-3.7,1.4-10,1.9-14.8,1.9c-4.8,0-11.1-0.5-14.8-1.9c-1.1,0.5-1.7,0.9-1.7,1.3v10
		c0,0.4,0.6,0.8,1.7,1.3c0.6,0.2,1.3,0.5,2.1,0.7c2.8,0.7,7,1.3,12.8,1.3c5.7,0,10-0.6,12.8-1.3c0.8-0.2,1.6-0.5,2.1-0.7
		c1.1-0.5,1.7-0.9,1.7-1.3v-10C359.2,314.2,358.6,313.7,357.5,313.2z M333.1,317.3C333,317.3,333,317.3,333.1,317.3
		c-2.1-0.3-3.7-0.7-5-1.2c-0.2-0.1-0.3-0.3-0.2-0.4c0.1-0.2,0.3-0.3,0.4-0.2c1.2,0.5,2.9,0.9,4.8,1.2c0.2,0,0.3,0.2,0.3,0.4
		C333.4,317.2,333.2,317.3,333.1,317.3z M357.3,316.5c-3.3,1.1-8.6,1.7-14.3,1.7c-2.1,0-4.1-0.1-6-0.2c-0.3,0-0.5-0.3-0.4-0.5
		c0-0.3,0.3-0.5,0.5-0.4c1.9,0.2,3.9,0.2,5.9,0.2c5.6,0,10.8-0.6,14-1.7c0.3-0.1,0.5,0.1,0.6,0.3
		C357.7,316.1,357.5,316.4,357.3,316.5z"/>
	<path class="st1" d="M357.5,327.2c-3.7,1.4-10.1,1.9-14.9,1.9c-4.8,0-11.2-0.6-14.9-1.9c-1.1,0.5-1.7,0.9-1.7,1.3v10
		c0,1.2,5.7,3.3,16.5,3.3c10.9,0,16.5-2.2,16.5-3.3v-10C359.2,328.1,358.6,327.7,357.5,327.2z M333.1,331.2
		C333,331.2,333,331.2,333.1,331.2c-2.1-0.3-3.7-0.8-5-1.2c-0.2-0.1-0.3-0.3-0.2-0.4c0.1-0.2,0.3-0.3,0.4-0.2
		c1.2,0.5,2.9,0.9,4.8,1.2c0.2,0,0.3,0.2,0.3,0.4C333.4,331.1,333.2,331.2,333.1,331.2z M357.3,330.4c-3.3,1.1-8.6,1.7-14.3,1.7
		c-2,0-4.1-0.1-6-0.2c-0.3,0-0.5-0.3-0.4-0.5c0-0.3,0.3-0.5,0.5-0.4c1.9,0.2,3.9,0.2,5.9,0.2c5.6,0,10.8-0.6,14-1.7
		c0.3-0.1,0.5,0.1,0.6,0.3C357.7,330,357.5,330.3,357.3,330.4z"/>
	<path class="st3" d="M333.1,330.6c-1.9-0.3-3.6-0.7-4.8-1.2c-0.2-0.1-0.4,0-0.4,0.2c-0.1,0.2,0,0.4,0.2,0.4
		c1.3,0.5,2.9,0.9,4.9,1.2c0,0,0,0,0.1,0c0.2,0,0.3-0.1,0.3-0.3C333.4,330.8,333.3,330.6,333.1,330.6z"/>
	<path class="st3" d="M337,304c1.9,0.2,3.9,0.2,6,0.2c5.7,0,11-0.6,14.3-1.7c0.3-0.1,0.4-0.4,0.3-0.6c-0.1-0.3-0.4-0.4-0.6-0.3
		c-3.2,1.1-8.4,1.7-14,1.7c-2,0-4-0.1-5.9-0.2c-0.3,0-0.5,0.2-0.5,0.4C336.5,303.7,336.7,304,337,304z"/>
	<path class="st3" d="M328.1,302.1c1.3,0.5,2.9,0.9,4.9,1.2c0,0,0,0,0.1,0c0.2,0,0.3-0.1,0.3-0.3c0-0.2-0.1-0.3-0.3-0.4
		c-1.9-0.3-3.6-0.7-4.8-1.2c-0.2-0.1-0.4,0-0.4,0.2C327.8,301.8,327.9,302,328.1,302.1z"/>
	<path class="st3" d="M359,312.5c1-0.6,1.5-1.2,1.5-2v-10c0-3.4-10.7-4.6-17.9-4.6c-7.2,0-17.9,1.2-17.9,4.6v10c0,0.8,0.6,1.5,1.5,2
		c-1,0.6-1.5,1.2-1.5,2v10c0,0.8,0.6,1.4,1.5,2c-0.9,0.6-1.5,1.2-1.5,2v10c0,3.4,10.7,4.6,17.9,4.6c7.2,0,17.9-1.2,17.9-4.6v-10
		c0-0.8-0.6-1.4-1.5-2c0.9-0.6,1.5-1.2,1.5-2v-10C360.5,313.8,359.9,313.1,359,312.5z M326.1,310.5v-10c0-1.2,5.7-3.3,16.5-3.3
		c10.9,0,16.5,2.2,16.5,3.3v10c0,0.4-0.6,0.8-1.7,1.3c-0.6,0.2-1.3,0.5-2.2,0.7c-2.8,0.7-7,1.3-12.7,1.3c-5.6,0-9.9-0.6-12.7-1.3
		c-0.9-0.2-1.6-0.5-2.2-0.7C326.7,311.4,326.1,310.9,326.1,310.5z M359.2,328.5v10c0,1.2-5.7,3.3-16.5,3.3
		c-10.9,0-16.5-2.2-16.5-3.3v-10c0-0.4,0.6-0.8,1.7-1.3c3.7,1.4,10.1,1.9,14.9,1.9c4.8,0,11.2-0.6,14.9-1.9
		C358.6,327.7,359.2,328.1,359.2,328.5z M359.2,324.5c0,0.4-0.6,0.8-1.7,1.3c-0.6,0.2-1.3,0.5-2.1,0.7c-2.8,0.7-7,1.3-12.8,1.3
		c-5.7,0-10-0.6-12.8-1.3c-0.8-0.2-1.6-0.5-2.1-0.7c-1.1-0.5-1.7-0.9-1.7-1.3v-10c0-0.4,0.6-0.8,1.7-1.3c3.7,1.4,10,1.9,14.8,1.9
		c4.8,0,11.1-0.6,14.8-1.9c1.1,0.5,1.7,0.9,1.7,1.3V324.5z"/>
	<path class="st3" d="M357,315.5c-3.2,1.1-8.4,1.7-14,1.7c-2,0-4-0.1-5.9-0.2c-0.3,0-0.5,0.2-0.5,0.4c0,0.3,0.2,0.5,0.4,0.5
		c1.9,0.2,3.9,0.2,6,0.2c5.7,0,11-0.6,14.3-1.7c0.3-0.1,0.4-0.4,0.3-0.6C357.5,315.6,357.2,315.5,357,315.5z"/>
	<path class="st3" d="M357,329.5c-3.2,1.1-8.4,1.7-14,1.7c-2,0-4-0.1-5.9-0.2c-0.3,0-0.5,0.2-0.5,0.4c0,0.3,0.2,0.5,0.4,0.5
		c1.9,0.2,3.9,0.2,6,0.2c5.7,0,11-0.6,14.3-1.7c0.3-0.1,0.4-0.4,0.3-0.6C357.5,329.5,357.2,329.4,357,329.5z"/>
	<path class="st3" d="M333.1,316.7c-1.9-0.3-3.6-0.7-4.8-1.2c-0.2-0.1-0.4,0-0.4,0.2c-0.1,0.2,0,0.4,0.2,0.4
		c1.3,0.5,2.9,0.9,4.9,1.2c0,0,0,0,0.1,0c0.2,0,0.3-0.1,0.3-0.3C333.4,316.9,333.3,316.7,333.1,316.7z"/>
</g>
<g>
	<g>
		<polyline class="st5" points="329.7,159.4 329.7,63.3 720.8,63.3 720.8,152.3 		"/>
		<g>
			<polygon class="st3" points="715.8,150.8 720.8,159.4 725.7,150.8 			"/>
		</g>
	</g>
</g>
<g>
</g>
</svg>
