<?xml version="1.0" encoding="utf-8"?>
<!-- Generator: Adobe Illustrator 22.0.1, SVG Export Plug-In . SVG Version: 6.00 Build 0)  -->
<svg version="1.1" id="Layer_1" xmlns="http://www.w3.org/2000/svg" xmlns:xlink="http://www.w3.org/1999/xlink" x="0px" y="0px"
	 width="861.6px" height="847.5px" viewBox="0 0 861.6 847.5" style="enable-background:new 0 0 861.6 847.5;" xml:space="preserve"
	>
<style type="text/css">
	.st0{fill:#004153;}
	.st1{fill:#FFFFFF;}
	.st2{fill:#CC0000;}
	.st3{fill:none;stroke:#CC0000;stroke-width:2;stroke-miterlimit:10;}
	.st4{fill:none;stroke:#173C4F;stroke-width:2;stroke-linecap:round;stroke-linejoin:round;stroke-dasharray:9,9;}
	.st5{fill:#173C4F;}
</style>
<rect x="160.1" y="23.4" class="st0" width="560.2" height="428.2"/>
<rect x="181.3" y="40.4" class="st1" width="116.8" height="251.3"/>
<rect x="181.3" y="312.4" class="st1" width="116.8" height="41.5"/>
<rect x="181.3" y="374.7" class="st1" width="116.8" height="55.7"/>
<rect x="314.9" y="40.4" class="st1" width="116.8" height="251.3"/>
<rect x="314.9" y="312.4" class="st1" width="116.8" height="41.5"/>
<rect x="314.9" y="374.7" class="st1" width="116.8" height="55.7"/>
<rect x="448.6" y="40.4" class="st1" width="116.8" height="251.3"/>
<rect x="448.6" y="312.4" class="st1" width="116.8" height="41.5"/>
<rect x="448.6" y="374.7" class="st1" width="116.8" height="55.7"/>
<rect x="582.2" y="40.4" class="st1" width="116.8" height="251.3"/>
<rect x="582.2" y="312.4" class="st1" width="116.8" height="41.5"/>
<rect x="582.2" y="374.7" class="st1" width="116.8" height="55.7"/>
<rect x="25.8" y="585.1" class="st2" width="57.1" height="54.4"/>
<rect x="30.5" y="622.5" class="st1" width="47.6" height="12"/>
<rect x="120" y="585.1" class="st2" width="57.1" height="54.4"/>
<rect x="124.8" y="622.5" class="st1" width="47.6" height="12"/>
<rect x="214.3" y="585.1" class="st2" width="57.1" height="54.4"/>
<rect x="219" y="622.5" class="st1" width="47.6" height="12"/>
<rect x="25.8" y="673.9" class="st2" width="57.1" height="54.4"/>
<rect x="30.5" y="711.2" class="st1" width="47.6" height="12"/>
<rect x="120" y="673.9" class="st2" width="57.1" height="54.4"/>
<rect x="124.8" y="711.2" class="st1" width="47.6" height="12"/>
<rect x="214.3" y="673.9" class="st2" width="57.1" height="54.4"/>
<rect x="219" y="711.2" class="st1" width="47.6" height="12"/>
<rect x="25.8" y="762.6" class="st2" width="57.1" height="54.4"/>
<rect x="30.5" y="799.9" class="st1" width="47.6" height="12"/>
<rect x="214.3" y="762.6" class="st2" width="57.1" height="54.4"/>
<rect x="219" y="799.9" class="st1" width="47.6" height="12"/>
<rect x="308.9" y="762.6" class="st2" width="57.1" height="54.4"/>
<rect x="313.6" y="799.9" class="st1" width="47.6" height="12"/>
<rect x="308.9" y="673.9" class="st2" width="57.1" height="54.4"/>
<rect x="313.6" y="711.2" class="st1" width="47.6" height="12"/>
<rect x="401.9" y="673.9" class="st2" width="57.1" height="54.4"/>
<rect x="406.6" y="711.2" class="st1" width="47.6" height="12"/>
<rect x="401.9" y="585.1" class="st2" width="57.1" height="54.4"/>
<rect x="406.6" y="622.5" class="st1" width="47.6" height="12"/>
<rect x="497.1" y="673.9" class="st2" width="57.1" height="54.4"/>
<rect x="501.9" y="711.2" class="st1" width="47.6" height="12"/>
<rect x="497.1" y="762.6" class="st2" width="57.1" height="54.4"/>
<rect x="501.9" y="799.9" class="st1" width="47.6" height="12"/>
<rect x="497.1" y="585.1" class="st2" width="57.1" height="54.4"/>
<rect x="501.9" y="622.5" class="st1" width="47.6" height="12"/>
<rect x="590.4" y="673.9" class="st2" width="57.1" height="54.4"/>
<rect x="595.2" y="711.2" class="st1" width="47.6" height="12"/>
<rect x="590.4" y="762.6" class="st2" width="57.1" height="54.4"/>
<rect x="595.2" y="799.9" class="st1" width="47.6" height="12"/>
<rect x="590.4" y="585.1" class="st2" width="57.1" height="54.4"/>
<rect x="595.2" y="622.5" class="st1" width="47.6" height="12"/>
<rect x="685.7" y="673.9" class="st2" width="57.1" height="54.4"/>
<rect x="690.4" y="711.2" class="st1" width="47.6" height="12"/>
<rect x="685.7" y="762.6" class="st2" width="57.1" height="54.4"/>
<rect x="690.4" y="799.9" class="st1" width="47.6" height="12"/>
<rect x="685.7" y="585.1" class="st2" width="57.1" height="54.4"/>
<rect x="690.4" y="622.5" class="st1" width="47.6" height="12"/>
<rect x="780.9" y="673.9" class="st2" width="57.1" height="54.4"/>
<rect x="785.6" y="711.2" class="st1" width="47.6" height="12"/>
<rect x="780.9" y="762.6" class="st2" width="57.1" height="54.4"/>
<rect x="785.6" y="799.9" class="st1" width="47.6" height="12"/>
<rect x="780.9" y="585.1" class="st2" width="57.1" height="54.4"/>
<rect x="785.6" y="622.5" class="st1" width="47.6" height="12"/>
<circle class="st3" cx="337.4" cy="612.3" r="27.2"/>
<circle class="st3" cx="147.2" cy="789.8" r="27.2"/>
<circle class="st3" cx="430.4" cy="789.8" r="27.2"/>
<g>
	<g>
		<line class="st4" x1="160.1" y1="461.8" x2="387.3" y2="571.4"/>
		<g>
			<polygon class="st5" points="381.4,578 398.3,576.7 388.7,562.7 			"/>
		</g>
	</g>
</g>
<g>
	<g>
		<line class="st4" x1="709.5" y1="461.8" x2="482.3" y2="571.4"/>
		<g>
			<polygon class="st5" points="480.9,562.7 471.3,576.7 488.2,578 			"/>
		</g>
	</g>
</g>
<g>
	<g>
		<path class="st0" d="M219.3,176.3c-5.8,0-9.2-4.5-9.2-10.9s3.4-10.9,9.2-10.9s9.2,4.5,9.2,10.9S225,176.3,219.3,176.3z
			 M219.3,158.7c-3.4,0-4.8,2.9-4.8,6.7s1.4,6.7,4.8,6.7c3.4,0,4.8-2.9,4.8-6.7S222.7,158.7,219.3,158.7z"/>
		<path class="st0" d="M239.5,176.3c-3.5,0-6.6-1.5-8.2-3.8l3.1-2.7c1.5,1.7,3.4,2.4,5.4,2.4c2.5,0,3.7-0.7,3.7-2.3
			c0-1.4-0.7-2-4.7-2.9c-3.9-0.9-6.6-2.1-6.6-6.3c0-3.8,3.4-6.2,7.6-6.2c3.3,0,5.7,1.2,7.7,3.3l-3.1,3c-1.4-1.4-2.9-2.2-4.8-2.2
			c-2.3,0-3,1-3,1.9c0,1.3,0.9,1.8,4.3,2.5c3.4,0.8,7.1,1.9,7.1,6.5C247.9,173.6,245.3,176.3,239.5,176.3z"/>
		<path class="st0" d="M258.7,176h-6.3v-21.2h6.6c6.1,0,10.5,2.8,10.5,10.6C269.5,172.8,264.1,176,258.7,176z M258.8,158.9h-2.2v13
			h2.1c4.4,0,6.5-2.6,6.5-6.5C265.1,161.1,263.3,158.9,258.8,158.9z"/>
	</g>
	<g>
		<path class="st0" d="M352.9,176.3c-5.8,0-9.2-4.5-9.2-10.9s3.4-10.9,9.2-10.9s9.2,4.5,9.2,10.9S358.7,176.3,352.9,176.3z
			 M352.9,158.7c-3.4,0-4.8,2.9-4.8,6.7s1.4,6.7,4.8,6.7c3.4,0,4.8-2.9,4.8-6.7S356.3,158.7,352.9,158.7z"/>
		<path class="st0" d="M373.2,176.3c-3.5,0-6.6-1.5-8.2-3.8l3.1-2.7c1.5,1.7,3.4,2.4,5.4,2.4c2.5,0,3.7-0.7,3.7-2.3
			c0-1.4-0.7-2-4.7-2.9c-3.9-0.9-6.6-2.1-6.6-6.3c0-3.8,3.4-6.2,7.6-6.2c3.3,0,5.7,1.2,7.7,3.3l-3.1,3c-1.4-1.4-2.9-2.2-4.8-2.2
			c-2.3,0-3,1-3,1.9c0,1.3,0.9,1.8,4.3,2.5c3.4,0.8,7.1,1.9,7.1,6.5C381.5,173.6,378.9,176.3,373.2,176.3z"/>
		<path class="st0" d="M392.3,176H386v-21.2h6.6c6.1,0,10.5,2.8,10.5,10.6C403.1,172.8,397.7,176,392.3,176z M392.4,158.9h-2.2v13
			h2.1c4.4,0,6.5-2.6,6.5-6.5C398.8,161.1,396.9,158.9,392.4,158.9z"/>
	</g>
	<g>
		<path class="st0" d="M486.5,176.3c-5.8,0-9.2-4.5-9.2-10.9s3.4-10.9,9.2-10.9s9.2,4.5,9.2,10.9S492.3,176.3,486.5,176.3z
			 M486.5,158.7c-3.4,0-4.8,2.9-4.8,6.7s1.4,6.7,4.8,6.7c3.4,0,4.8-2.9,4.8-6.7S489.9,158.7,486.5,158.7z"/>
		<path class="st0" d="M506.8,176.3c-3.5,0-6.6-1.5-8.2-3.8l3.1-2.7c1.5,1.7,3.4,2.4,5.4,2.4c2.5,0,3.7-0.7,3.7-2.3
			c0-1.4-0.7-2-4.7-2.9c-3.9-0.9-6.6-2.1-6.6-6.3c0-3.8,3.4-6.2,7.6-6.2c3.3,0,5.7,1.2,7.7,3.3l-3.1,3c-1.4-1.4-2.9-2.2-4.8-2.2
			c-2.3,0-3,1-3,1.9c0,1.3,0.9,1.8,4.3,2.5c3.4,0.8,7.1,1.9,7.1,6.5C515.1,173.6,512.6,176.3,506.8,176.3z"/>
		<path class="st0" d="M525.9,176h-6.3v-21.2h6.6c6.1,0,10.5,2.8,10.5,10.6C536.8,172.8,531.4,176,525.9,176z M526.1,158.9h-2.2v13
			h2.1c4.4,0,6.5-2.6,6.5-6.5C532.4,161.1,530.5,158.9,526.1,158.9z"/>
	</g>
	<g>
		<path class="st0" d="M620.1,176.3c-5.8,0-9.2-4.5-9.2-10.9s3.4-10.9,9.2-10.9s9.2,4.5,9.2,10.9S625.9,176.3,620.1,176.3z
			 M620.1,158.7c-3.4,0-4.8,2.9-4.8,6.7s1.4,6.7,4.8,6.7c3.4,0,4.8-2.9,4.8-6.7S623.6,158.7,620.1,158.7z"/>
		<path class="st0" d="M640.4,176.3c-3.5,0-6.6-1.5-8.2-3.8l3.1-2.7c1.5,1.7,3.4,2.4,5.4,2.4c2.5,0,3.7-0.7,3.7-2.3
			c0-1.4-0.7-2-4.7-2.9c-3.9-0.9-6.6-2.1-6.6-6.3c0-3.8,3.4-6.2,7.6-6.2c3.3,0,5.7,1.2,7.7,3.3l-3.1,3c-1.4-1.4-2.9-2.2-4.8-2.2
			c-2.3,0-3,1-3,1.9c0,1.3,0.9,1.8,4.3,2.5c3.4,0.8,7.1,1.9,7.1,6.5C648.7,173.6,646.2,176.3,640.4,176.3z"/>
		<path class="st0" d="M659.5,176h-6.3v-21.2h6.6c6.1,0,10.5,2.8,10.5,10.6C670.4,172.8,665,176,659.5,176z M659.7,158.9h-2.2v13
			h2.1c4.4,0,6.5-2.6,6.5-6.5C666,161.1,664.2,158.9,659.7,158.9z"/>
	</g>
</g>
<g>
	<path class="st0" d="M212,412.5h-6.3v-21.2h6.6c6.1,0,10.5,2.8,10.5,10.6C222.9,409.3,217.5,412.5,212,412.5z M212.2,395.4H210v13
		h2.1c4.4,0,6.5-2.6,6.5-6.5C218.5,397.5,216.7,395.4,212.2,395.4z"/>
	<path class="st0" d="M227.4,412.5v-21.2h4.2v21.2H227.4z"/>
	<path class="st0" d="M244.6,412.8c-3.5,0-6.6-1.5-8.2-3.8l3.1-2.7c1.5,1.7,3.4,2.4,5.4,2.4c2.5,0,3.7-0.7,3.7-2.3
		c0-1.4-0.7-2-4.7-2.9c-3.9-0.9-6.6-2.1-6.6-6.3c0-3.8,3.4-6.2,7.6-6.2c3.3,0,5.7,1.2,7.7,3.3l-3.1,3c-1.4-1.4-2.9-2.2-4.8-2.2
		c-2.3,0-3,1-3,1.9c0,1.3,0.9,1.8,4.3,2.5c3.4,0.8,7.1,1.9,7.1,6.5C252.9,410.1,250.4,412.8,244.6,412.8z"/>
	<path class="st0" d="M270.8,412.5l-5.7-10.2l-3.4,4v6.2h-4.2v-21.2h4.2v6c0,0.8,0,2.7-0.1,3.4c0.3-0.5,1.1-1.5,1.7-2.1l5.9-7.2h5.1
		l-6.2,7.3l7.8,13.9H270.8z"/>
</g>
<g>
	<path class="st0" d="M345.7,412.5h-6.3v-21.2h6.6c6.1,0,10.5,2.8,10.5,10.6C356.5,409.3,351.1,412.5,345.7,412.5z M345.8,395.4
		h-2.2v13h2.1c4.4,0,6.5-2.6,6.5-6.5C352.2,397.5,350.3,395.4,345.8,395.4z"/>
	<path class="st0" d="M361,412.5v-21.2h4.2v21.2H361z"/>
	<path class="st0" d="M378.2,412.8c-3.5,0-6.6-1.5-8.2-3.8l3.1-2.7c1.5,1.7,3.4,2.4,5.4,2.4c2.5,0,3.7-0.7,3.7-2.3
		c0-1.4-0.7-2-4.7-2.9c-3.9-0.9-6.6-2.1-6.6-6.3c0-3.8,3.4-6.2,7.6-6.2c3.3,0,5.7,1.2,7.7,3.3l-3.1,3c-1.4-1.4-2.9-2.2-4.8-2.2
		c-2.3,0-3,1-3,1.9c0,1.3,0.9,1.8,4.3,2.5c3.4,0.8,7.1,1.9,7.1,6.5C386.6,410.1,384,412.8,378.2,412.8z"/>
	<path class="st0" d="M404.4,412.5l-5.7-10.2l-3.4,4v6.2H391v-21.2h4.2v6c0,0.8,0,2.7-0.1,3.4c0.3-0.5,1.1-1.5,1.7-2.1l5.9-7.2h5.1
		l-6.2,7.3l7.8,13.9H404.4z"/>
</g>
<g>
	<path class="st0" d="M479.3,412.5H473v-21.2h6.6c6.1,0,10.5,2.8,10.5,10.6C490.1,409.3,484.8,412.5,479.3,412.5z M479.5,395.4h-2.2
		v13h2.1c4.4,0,6.5-2.6,6.5-6.5C485.8,397.5,483.9,395.4,479.5,395.4z"/>
	<path class="st0" d="M494.7,412.5v-21.2h4.2v21.2H494.7z"/>
	<path class="st0" d="M511.9,412.8c-3.5,0-6.6-1.5-8.2-3.8l3.1-2.7c1.5,1.7,3.4,2.4,5.4,2.4c2.5,0,3.7-0.7,3.7-2.3
		c0-1.4-0.7-2-4.7-2.9c-3.9-0.9-6.6-2.1-6.6-6.3c0-3.8,3.4-6.2,7.6-6.2c3.3,0,5.7,1.2,7.7,3.3l-3.1,3c-1.4-1.4-2.9-2.2-4.8-2.2
		c-2.3,0-3,1-3,1.9c0,1.3,0.9,1.8,4.3,2.5c3.4,0.8,7.1,1.9,7.1,6.5C520.2,410.1,517.6,412.8,511.9,412.8z"/>
	<path class="st0" d="M538,412.5l-5.7-10.2l-3.4,4v6.2h-4.2v-21.2h4.2v6c0,0.8,0,2.7-0.1,3.4c0.3-0.5,1.1-1.5,1.7-2.1l5.9-7.2h5.1
		l-6.2,7.3l7.8,13.9H538z"/>
</g>
<g>
	<path class="st0" d="M612.9,412.5h-6.3v-21.2h6.6c6.1,0,10.5,2.8,10.5,10.6C623.8,409.3,618.4,412.5,612.9,412.5z M613.1,395.4
		h-2.2v13h2.1c4.4,0,6.5-2.6,6.5-6.5C619.4,397.5,617.6,395.4,613.1,395.4z"/>
	<path class="st0" d="M628.3,412.5v-21.2h4.2v21.2H628.3z"/>
	<path class="st0" d="M645.5,412.8c-3.5,0-6.6-1.5-8.2-3.8l3.1-2.7c1.5,1.7,3.4,2.4,5.4,2.4c2.5,0,3.7-0.7,3.7-2.3
		c0-1.4-0.7-2-4.7-2.9c-3.9-0.9-6.6-2.1-6.6-6.3c0-3.8,3.4-6.2,7.6-6.2c3.3,0,5.7,1.2,7.7,3.3l-3.1,3c-1.4-1.4-2.9-2.2-4.8-2.2
		c-2.3,0-3,1-3,1.9c0,1.3,0.9,1.8,4.3,2.5c3.4,0.8,7.1,1.9,7.1,6.5C653.8,410.1,651.3,412.8,645.5,412.8z"/>
	<path class="st0" d="M671.7,412.5l-5.7-10.2l-3.4,4v6.2h-4.2v-21.2h4.2v6c0,0.8,0,2.7-0.1,3.4c0.3-0.5,1.1-1.5,1.7-2.1l5.9-7.2h5.1
		l-6.2,7.3l7.8,13.9H671.7z"/>
</g>
<g>
	<path class="st0" d="M227.7,326.1v4h6.4v4.1h-6.4v8.9h-4.2v-21.2h15.2v4.1H227.7z"/>
	<path class="st0" d="M248.7,343.5c-3.5,0-6.6-1.5-8.2-3.8l3.1-2.7c1.5,1.7,3.4,2.4,5.4,2.4c2.5,0,3.7-0.7,3.7-2.3
		c0-1.4-0.7-2-4.7-2.9c-3.9-0.9-6.6-2.1-6.6-6.3c0-3.8,3.4-6.2,7.6-6.2c3.3,0,5.7,1.2,7.7,3.3l-3.1,3c-1.4-1.4-2.9-2.2-4.8-2.2
		c-2.3,0-3,1-3,1.9c0,1.3,0.9,1.8,4.3,2.5c3.4,0.8,7.1,1.9,7.1,6.5C257,340.7,254.5,343.5,248.7,343.5z"/>
</g>
<g>
	<path class="st0" d="M361.3,326.1v4h6.4v4.1h-6.4v8.9h-4.2v-21.2h15.2v4.1H361.3z"/>
	<path class="st0" d="M382.3,343.5c-3.5,0-6.6-1.5-8.2-3.8l3.1-2.7c1.5,1.7,3.4,2.4,5.4,2.4c2.5,0,3.7-0.7,3.7-2.3
		c0-1.4-0.7-2-4.7-2.9c-3.9-0.9-6.6-2.1-6.6-6.3c0-3.8,3.4-6.2,7.6-6.2c3.3,0,5.7,1.2,7.7,3.3l-3.1,3c-1.4-1.4-2.9-2.2-4.8-2.2
		c-2.3,0-3,1-3,1.9c0,1.3,0.9,1.8,4.3,2.5c3.4,0.8,7.1,1.9,7.1,6.5C390.6,340.7,388.1,343.5,382.3,343.5z"/>
</g>
<g>
	<path class="st0" d="M494.9,326.1v4h6.4v4.1h-6.4v8.9h-4.2v-21.2h15.2v4.1H494.9z"/>
	<path class="st0" d="M515.9,343.5c-3.5,0-6.6-1.5-8.2-3.8l3.1-2.7c1.5,1.7,3.4,2.4,5.4,2.4c2.5,0,3.7-0.7,3.7-2.3
		c0-1.4-0.7-2-4.7-2.9c-3.9-0.9-6.6-2.1-6.6-6.3c0-3.8,3.4-6.2,7.6-6.2c3.3,0,5.7,1.2,7.7,3.3l-3.1,3c-1.4-1.4-2.9-2.2-4.8-2.2
		c-2.3,0-3,1-3,1.9c0,1.3,0.9,1.8,4.3,2.5c3.4,0.8,7.1,1.9,7.1,6.5C524.3,340.7,521.7,343.5,515.9,343.5z"/>
</g>
<g>
	<path class="st0" d="M628.5,326.1v4h6.4v4.1h-6.4v8.9h-4.2v-21.2h15.2v4.1H628.5z"/>
	<path class="st0" d="M649.6,343.5c-3.5,0-6.6-1.5-8.2-3.8l3.1-2.7c1.5,1.7,3.4,2.4,5.4,2.4c2.5,0,3.7-0.7,3.7-2.3
		c0-1.4-0.7-2-4.7-2.9c-3.9-0.9-6.6-2.1-6.6-6.3c0-3.8,3.4-6.2,7.6-6.2c3.3,0,5.7,1.2,7.7,3.3l-3.1,3c-1.4-1.4-2.9-2.2-4.8-2.2
		c-2.3,0-3,1-3,1.9c0,1.3,0.9,1.8,4.3,2.5c3.4,0.8,7.1,1.9,7.1,6.5C657.9,340.7,655.4,343.5,649.6,343.5z"/>
</g>
<g>
</g>
</svg>
