<?xml version="1.0" encoding="utf-8"?>
<!-- Generator: Adobe Illustrator 22.0.1, SVG Export Plug-In . SVG Version: 6.00 Build 0)  -->
<svg version="1.1" id="Layer_1" xmlns="http://www.w3.org/2000/svg" xmlns:xlink="http://www.w3.org/1999/xlink" x="0px" y="0px"
	 width="855px" height="453.1px" viewBox="0 0 855 453.1" style="enable-background:new 0 0 855 453.1;" xml:space="preserve">
<style type="text/css">
	.st0{fill:#004153;stroke:#004153;stroke-miterlimit:10;}
	.st1{fill:#FFFFFF;stroke:#004153;stroke-width:3;stroke-miterlimit:10;}
	.st2{fill:#FFFFFF;stroke:#004153;stroke-miterlimit:10;}
	.st3{fill:#B1DBE6;}
	.st4{fill:#FFFFFF;}
	.st5{fill:none;stroke:#004153;stroke-width:2;stroke-linecap:round;stroke-linejoin:round;stroke-dasharray:6,6;}
	.st6{fill:#004153;}
	.st7{fill:#3F6372;}
	.st8{fill:#E39749;}
	.st9{fill:#8ECBE9;}
	.st10{fill:#E3AD43;}
	.st11{fill:#DD7D2E;}
	.st12{fill:#8F5455;}
	.st13{fill:#75BEE4;}
	.st14{fill:#BA271A;}
	.st15{fill:#173C4F;}
	.st16{fill:#74BEE4;}
	.st17{fill:#752C2B;}
</style>
<rect x="275.8" y="24.8" class="st0" width="553.2" height="405.6"/>
<circle class="st1" cx="79.7" cy="75.9" r="43.8"/>
<circle class="st1" cx="79.7" cy="177.1" r="43.8"/>
<circle class="st1" cx="79.7" cy="278.2" r="43.8"/>
<circle class="st1" cx="79.7" cy="379.3" r="43.8"/>
<polygon class="st2" points="564.3,127.1 579.1,75.4 564.3,24.8 275.8,24.8 275.8,127.1 "/>
<polygon class="st2" points="564.3,228.2 579.1,176.6 564.3,125.9 275.8,125.9 275.8,228.2 "/>
<polygon class="st2" points="564.3,329.3 579.1,277.7 564.3,227.1 275.8,227.1 275.8,329.3 "/>
<polygon class="st2" points="564.3,430.4 579.1,378.8 564.3,328.2 275.8,328.2 275.8,430.4 "/>
<rect x="601.3" y="51.5" class="st3" width="208.9" height="352.2"/>
<g>
	<line class="st4" x1="123.5" y1="75.9" x2="270.6" y2="75.9"/>
	<g>
		<line class="st5" x1="123.5" y1="75.9" x2="261.2" y2="75.9"/>
		<g>
			<polygon class="st6" points="259.3,82.4 270.6,75.9 259.3,69.5 			"/>
		</g>
	</g>
</g>
<g>
	<line class="st4" x1="123.5" y1="177.1" x2="270.6" y2="177.1"/>
	<g>
		<line class="st5" x1="123.5" y1="177.1" x2="261.2" y2="177.1"/>
		<g>
			<polygon class="st6" points="259.3,183.5 270.6,177.1 259.3,170.6 			"/>
		</g>
	</g>
</g>
<g>
	<line class="st4" x1="123.5" y1="278.2" x2="270.6" y2="278.2"/>
	<g>
		<line class="st5" x1="123.5" y1="278.2" x2="261.2" y2="278.2"/>
		<g>
			<polygon class="st6" points="259.3,284.7 270.6,278.2 259.3,271.7 			"/>
		</g>
	</g>
</g>
<g>
	<line class="st4" x1="123.5" y1="379.3" x2="270.6" y2="379.3"/>
	<g>
		<line class="st5" x1="123.5" y1="379.3" x2="261.2" y2="379.3"/>
		<g>
			<polygon class="st6" points="259.3,385.8 270.6,379.3 259.3,372.8 			"/>
		</g>
	</g>
</g>
<g>
	<rect x="408.9" y="48.9" class="st3" width="23.5" height="23.5"/>
	<rect x="440.9" y="48.9" class="st7" width="23.5" height="23.5"/>
	<rect x="472.9" y="48.9" class="st8" width="23.5" height="23.5"/>
	<rect x="504.9" y="48.9" class="st9" width="23.5" height="23.5"/>
	<rect x="408.9" y="79.5" class="st10" width="23.5" height="23.5"/>
	<rect x="440.9" y="79.5" class="st11" width="23.5" height="23.5"/>
	<rect x="472.9" y="79.5" class="st12" width="23.5" height="23.5"/>
	<rect x="504.9" y="79.5" class="st13" width="23.5" height="23.5"/>
	<g>
		<path class="st4" d="M417.1,63.9v-5.4h-1.2v-0.7c0.7-0.1,1.3-0.3,1.4-0.9h0.8v7H417.1z"/>
		<path class="st4" d="M422.4,64c-1.8,0-2.7-1.5-2.7-3.6c0-2.1,1-3.6,2.8-3.6c1.8,0,2.7,1.5,2.7,3.6C425.1,62.5,424.2,64,422.4,64z
			 M422.4,57.8c-1.2,0-1.7,1.1-1.7,2.6c0,1.5,0.5,2.6,1.7,2.6c1.2,0,1.7-1.1,1.7-2.6C424.1,58.9,423.6,57.8,422.4,57.8z"/>
	</g>
	<g>
		<path class="st4" d="M449.1,63.9v-5.4h-1.2v-0.7c0.7-0.1,1.3-0.3,1.4-0.9h0.8v7H449.1z"/>
		<path class="st4" d="M454.4,64c-1.8,0-2.7-1.5-2.7-3.6c0-2.1,1-3.6,2.8-3.6c1.8,0,2.7,1.5,2.7,3.6C457.1,62.5,456.2,64,454.4,64z
			 M454.4,57.8c-1.2,0-1.7,1.1-1.7,2.6c0,1.5,0.5,2.6,1.7,2.6c1.2,0,1.7-1.1,1.7-2.6C456.1,58.9,455.6,57.8,454.4,57.8z"/>
	</g>
	<g>
		<path class="st4" d="M481.1,63.9v-5.4h-1.2v-0.7c0.7-0.1,1.3-0.3,1.4-0.9h0.8v7H481.1z"/>
		<path class="st4" d="M486.4,64c-1.8,0-2.7-1.5-2.7-3.6c0-2.1,1-3.6,2.8-3.6c1.8,0,2.7,1.5,2.7,3.6C489.1,62.5,488.2,64,486.4,64z
			 M486.4,57.8c-1.2,0-1.7,1.1-1.7,2.6c0,1.5,0.5,2.6,1.7,2.6c1.2,0,1.7-1.1,1.7-2.6C488.1,58.9,487.6,57.8,486.4,57.8z"/>
	</g>
	<g>
		<path class="st4" d="M513.1,63.9v-5.4h-1.2v-0.7c0.7-0.1,1.3-0.3,1.4-0.9h0.8v7H513.1z"/>
		<path class="st4" d="M518.4,64c-1.8,0-2.7-1.5-2.7-3.6c0-2.1,1-3.6,2.8-3.6c1.8,0,2.7,1.5,2.7,3.6C521.1,62.5,520.2,64,518.4,64z
			 M518.4,57.8c-1.2,0-1.7,1.1-1.7,2.6c0,1.5,0.5,2.6,1.7,2.6c1.2,0,1.7-1.1,1.7-2.6C520.1,58.9,519.6,57.8,518.4,57.8z"/>
	</g>
	<g>
		<path class="st4" d="M417.1,94.5v-5.4h-1.2v-0.7c0.7-0.1,1.3-0.3,1.4-0.9h0.8v7H417.1z"/>
		<path class="st4" d="M422.4,94.7c-1.8,0-2.7-1.5-2.7-3.6c0-2.1,1-3.6,2.8-3.6c1.8,0,2.7,1.5,2.7,3.6S424.2,94.7,422.4,94.7z
			 M422.4,88.5c-1.2,0-1.7,1.1-1.7,2.6s0.5,2.6,1.7,2.6c1.2,0,1.7-1.1,1.7-2.6C424.1,89.6,423.6,88.5,422.4,88.5z"/>
	</g>
	<g>
		<path class="st4" d="M450.7,94.5v-5.4h-1.2v-0.7c0.7-0.1,1.3-0.3,1.4-0.9h0.8v7H450.7z"/>
		<path class="st4" d="M454.1,94.5v-5.4h-1.2v-0.7c0.7-0.1,1.3-0.3,1.4-0.9h0.8v7H454.1z"/>
	</g>
	<g>
		<path class="st4" d="M481.1,94.5v-5.4h-1.2v-0.7c0.7-0.1,1.3-0.3,1.4-0.9h0.8v7H481.1z"/>
		<path class="st4" d="M486.4,94.7c-1.8,0-2.7-1.5-2.7-3.6c0-2.1,1-3.6,2.8-3.6c1.8,0,2.7,1.5,2.7,3.6S488.2,94.7,486.4,94.7z
			 M486.4,88.5c-1.2,0-1.7,1.1-1.7,2.6s0.5,2.6,1.7,2.6c1.2,0,1.7-1.1,1.7-2.6C488.1,89.6,487.6,88.5,486.4,88.5z"/>
	</g>
	<g>
		<path class="st4" d="M514.9,94.7c-1.8,0-2.7-1.5-2.7-3.6c0-2.1,1-3.6,2.8-3.6c1.8,0,2.7,1.5,2.7,3.6S516.7,94.7,514.9,94.7z
			 M514.9,88.5c-1.2,0-1.7,1.1-1.7,2.6s0.5,2.6,1.7,2.6c1.2,0,1.7-1.1,1.7-2.6C516.6,89.6,516.2,88.5,514.9,88.5z"/>
		<path class="st4" d="M519.7,94.5v-5.4h-1.2v-0.7c0.7-0.1,1.3-0.3,1.4-0.9h0.8v7H519.7z"/>
	</g>
</g>
<g>
	<rect x="408.9" y="150" class="st3" width="23.5" height="23.5"/>
	<rect x="440.9" y="150" class="st7" width="23.5" height="23.5"/>
	<rect x="472.9" y="150" class="st8" width="23.5" height="23.5"/>
	<rect x="504.9" y="150" class="st9" width="23.5" height="23.5"/>
	<rect x="408.9" y="180.6" class="st10" width="23.5" height="23.5"/>
	<rect x="440.9" y="180.6" class="st11" width="23.5" height="23.5"/>
	<rect x="472.9" y="180.6" class="st12" width="23.5" height="23.5"/>
	<rect x="504.9" y="180.6" class="st13" width="23.5" height="23.5"/>
	<g>
		<path class="st4" d="M419,165.1c-1.8,0-2.7-1.5-2.7-3.6c0-2.1,1-3.6,2.8-3.6c1.8,0,2.7,1.5,2.7,3.6S420.8,165.1,419,165.1z
			 M419,158.9c-1.2,0-1.7,1.1-1.7,2.6s0.5,2.6,1.7,2.6c1.2,0,1.7-1.1,1.7-2.6C420.7,160.1,420.2,158.9,419,158.9z"/>
		<path class="st4" d="M423.7,165v-5.4h-1.2v-0.7c0.7-0.1,1.3-0.3,1.4-0.9h0.8v7H423.7z"/>
	</g>
	<g>
		<path class="st4" d="M449.1,165v-5.4h-1.2v-0.7c0.7-0.1,1.3-0.3,1.4-0.9h0.8v7H449.1z"/>
		<path class="st4" d="M454.4,165.1c-1.8,0-2.7-1.5-2.7-3.6c0-2.1,1-3.6,2.8-3.6c1.8,0,2.7,1.5,2.7,3.6S456.2,165.1,454.4,165.1z
			 M454.4,158.9c-1.2,0-1.7,1.1-1.7,2.6s0.5,2.6,1.7,2.6c1.2,0,1.7-1.1,1.7-2.6C456.1,160.1,455.6,158.9,454.4,158.9z"/>
	</g>
	<g>
		<path class="st4" d="M481.1,165v-5.4h-1.2v-0.7c0.7-0.1,1.3-0.3,1.4-0.9h0.8v7H481.1z"/>
		<path class="st4" d="M486.4,165.1c-1.8,0-2.7-1.5-2.7-3.6c0-2.1,1-3.6,2.8-3.6c1.8,0,2.7,1.5,2.7,3.6S488.2,165.1,486.4,165.1z
			 M486.4,158.9c-1.2,0-1.7,1.1-1.7,2.6s0.5,2.6,1.7,2.6c1.2,0,1.7-1.1,1.7-2.6C488.1,160.1,487.6,158.9,486.4,158.9z"/>
	</g>
	<g>
		<path class="st4" d="M513.1,165v-5.4h-1.2v-0.7c0.7-0.1,1.3-0.3,1.4-0.9h0.8v7H513.1z"/>
		<path class="st4" d="M518.4,165.1c-1.8,0-2.7-1.5-2.7-3.6c0-2.1,1-3.6,2.8-3.6c1.8,0,2.7,1.5,2.7,3.6S520.2,165.1,518.4,165.1z
			 M518.4,158.9c-1.2,0-1.7,1.1-1.7,2.6s0.5,2.6,1.7,2.6c1.2,0,1.7-1.1,1.7-2.6C520.1,160.1,519.6,158.9,518.4,158.9z"/>
	</g>
	<g>
		<path class="st4" d="M417.1,195.7v-5.4h-1.2v-0.7c0.7,0,1.3-0.3,1.4-0.9h0.8v7H417.1z"/>
		<path class="st4" d="M422.4,195.8c-1.8,0-2.7-1.5-2.7-3.6s1-3.6,2.8-3.6c1.8,0,2.7,1.5,2.7,3.6
			C425.1,194.3,424.2,195.8,422.4,195.8z M422.4,189.6c-1.2,0-1.7,1.1-1.7,2.6c0,1.5,0.5,2.6,1.7,2.6c1.2,0,1.7-1.1,1.7-2.6
			S423.6,189.6,422.4,189.6z"/>
	</g>
	<g>
		<path class="st4" d="M450.9,195.8c-1.8,0-2.7-1.5-2.7-3.6s1-3.6,2.8-3.6c1.8,0,2.7,1.5,2.7,3.6
			C453.7,194.3,452.8,195.8,450.9,195.8z M450.9,189.6c-1.2,0-1.7,1.1-1.7,2.6c0,1.5,0.5,2.6,1.7,2.6c1.2,0,1.7-1.1,1.7-2.6
			S452.2,189.6,450.9,189.6z"/>
		<path class="st4" d="M455.7,195.7v-5.4h-1.2v-0.7c0.7,0,1.3-0.3,1.4-0.9h0.8v7H455.7z"/>
	</g>
	<g>
		<path class="st4" d="M482.9,195.8c-1.8,0-2.7-1.5-2.7-3.6s1-3.6,2.8-3.6c1.8,0,2.7,1.5,2.7,3.6
			C485.7,194.3,484.8,195.8,482.9,195.8z M482.9,189.6c-1.2,0-1.7,1.1-1.7,2.6c0,1.5,0.5,2.6,1.7,2.6c1.2,0,1.7-1.1,1.7-2.6
			S484.2,189.6,482.9,189.6z"/>
		<path class="st4" d="M487.7,195.7v-5.4h-1.2v-0.7c0.7,0,1.3-0.3,1.4-0.9h0.8v7H487.7z"/>
	</g>
	<g>
		<path class="st4" d="M514.9,195.8c-1.8,0-2.7-1.5-2.7-3.6s1-3.6,2.8-3.6c1.8,0,2.7,1.5,2.7,3.6
			C517.7,194.3,516.7,195.8,514.9,195.8z M514.9,189.6c-1.2,0-1.7,1.1-1.7,2.6c0,1.5,0.5,2.6,1.7,2.6c1.2,0,1.7-1.1,1.7-2.6
			S516.2,189.6,514.9,189.6z"/>
		<path class="st4" d="M519.7,195.7v-5.4h-1.2v-0.7c0.7,0,1.3-0.3,1.4-0.9h0.8v7H519.7z"/>
	</g>
</g>
<g>
	<rect x="504.9" y="266.4" class="st9" width="23.5" height="23.5"/>
	<g>
		<rect x="408.9" y="266.4" class="st3" width="23.5" height="23.5"/>
		<rect x="440.9" y="266.4" class="st7" width="23.5" height="23.5"/>
		<rect x="472.9" y="266.4" class="st8" width="23.5" height="23.5"/>
		<g>
			<path class="st4" d="M417.1,281.5v-5.4h-1.2v-0.7c0.7,0,1.3-0.3,1.4-0.9h0.8v7H417.1z"/>
			<path class="st4" d="M422.4,281.6c-1.8,0-2.7-1.5-2.7-3.6s1-3.6,2.8-3.6c1.8,0,2.7,1.5,2.7,3.6
				C425.1,280.1,424.2,281.6,422.4,281.6z M422.4,275.4c-1.2,0-1.7,1.1-1.7,2.6c0,1.5,0.5,2.6,1.7,2.6c1.2,0,1.7-1.1,1.7-2.6
				S423.6,275.4,422.4,275.4z"/>
		</g>
		<g>
			<path class="st4" d="M450.7,281.5v-5.4h-1.2v-0.7c0.7,0,1.3-0.3,1.4-0.9h0.8v7H450.7z"/>
			<path class="st4" d="M454.1,281.5v-5.4h-1.2v-0.7c0.7,0,1.3-0.3,1.4-0.9h0.8v7H454.1z"/>
		</g>
	</g>
	<g>
		<path class="st4" d="M481.1,281.5v-5.4h-1.2v-0.7c0.7,0,1.3-0.3,1.4-0.9h0.8v7H481.1z"/>
		<path class="st4" d="M486.4,281.6c-1.8,0-2.7-1.5-2.7-3.6s1-3.6,2.8-3.6c1.8,0,2.7,1.5,2.7,3.6
			C489.1,280.1,488.2,281.6,486.4,281.6z M486.4,275.4c-1.2,0-1.7,1.1-1.7,2.6c0,1.5,0.5,2.6,1.7,2.6c1.2,0,1.7-1.1,1.7-2.6
			S487.6,275.4,486.4,275.4z"/>
	</g>
	<g>
		<path class="st4" d="M514.9,281.6c-1.8,0-2.7-1.5-2.7-3.6s1-3.6,2.8-3.6c1.8,0,2.7,1.5,2.7,3.6
			C517.7,280.1,516.7,281.6,514.9,281.6z M514.9,275.4c-1.2,0-1.7,1.1-1.7,2.6c0,1.5,0.5,2.6,1.7,2.6c1.2,0,1.7-1.1,1.7-2.6
			S516.2,275.4,514.9,275.4z"/>
		<path class="st4" d="M519.7,281.5v-5.4h-1.2v-0.7c0.7,0,1.3-0.3,1.4-0.9h0.8v7H519.7z"/>
	</g>
</g>
<g>
	<rect x="408.9" y="336.8" class="st3" width="23.5" height="23.5"/>
	<rect x="440.9" y="336.8" class="st7" width="23.5" height="23.5"/>
	<rect x="472.9" y="336.8" class="st8" width="23.5" height="23.5"/>
	<rect x="504.9" y="336.8" class="st9" width="23.5" height="23.5"/>
	<rect x="408.9" y="367.5" class="st10" width="23.5" height="23.5"/>
	<rect x="440.9" y="367.5" class="st11" width="23.5" height="23.5"/>
	<rect x="472.9" y="367.5" class="st12" width="23.5" height="23.5"/>
	<rect x="504.9" y="367.5" class="st13" width="23.5" height="23.5"/>
	<g>
		<path class="st4" d="M417.1,351.8v-5.4h-1.2v-0.7c0.7,0,1.3-0.3,1.4-0.9h0.8v7H417.1z"/>
		<path class="st4" d="M422.4,352c-1.8,0-2.7-1.5-2.7-3.6s1-3.6,2.8-3.6c1.8,0,2.7,1.5,2.7,3.6C425.1,350.5,424.2,352,422.4,352z
			 M422.4,345.8c-1.2,0-1.7,1.1-1.7,2.6c0,1.5,0.5,2.6,1.7,2.6c1.2,0,1.7-1.1,1.7-2.6S423.6,345.8,422.4,345.8z"/>
	</g>
	<g>
		<path class="st4" d="M450.7,351.8v-5.4h-1.2v-0.7c0.7,0,1.3-0.3,1.4-0.9h0.8v7H450.7z"/>
		<path class="st4" d="M454.1,351.8v-5.4h-1.2v-0.7c0.7,0,1.3-0.3,1.4-0.9h0.8v7H454.1z"/>
	</g>
	<g>
		<path class="st4" d="M481.1,351.8v-5.4h-1.2v-0.7c0.7,0,1.3-0.3,1.4-0.9h0.8v7H481.1z"/>
		<path class="st4" d="M486.4,352c-1.8,0-2.7-1.5-2.7-3.6s1-3.6,2.8-3.6c1.8,0,2.7,1.5,2.7,3.6C489.1,350.5,488.2,352,486.4,352z
			 M486.4,345.8c-1.2,0-1.7,1.1-1.7,2.6c0,1.5,0.5,2.6,1.7,2.6c1.2,0,1.7-1.1,1.7-2.6S487.6,345.8,486.4,345.8z"/>
	</g>
	<g>
		<path class="st4" d="M514.9,352c-1.8,0-2.7-1.5-2.7-3.6s1-3.6,2.8-3.6c1.8,0,2.7,1.5,2.7,3.6C517.7,350.5,516.7,352,514.9,352z
			 M514.9,345.8c-1.2,0-1.7,1.1-1.7,2.6c0,1.5,0.5,2.6,1.7,2.6c1.2,0,1.7-1.1,1.7-2.6S516.2,345.8,514.9,345.8z"/>
		<path class="st4" d="M519.7,351.8v-5.4h-1.2v-0.7c0.7,0,1.3-0.3,1.4-0.9h0.8v7H519.7z"/>
	</g>
	<rect x="408.9" y="398.3" class="st3" width="23.5" height="23.5"/>
	<rect x="440.9" y="398.3" class="st7" width="23.5" height="23.5"/>
	<rect x="472.9" y="398.3" class="st8" width="23.5" height="23.5"/>
	<rect x="504.9" y="398.3" class="st9" width="23.5" height="23.5"/>
	<g>
		<path class="st4" d="M419,413.4c-1.8,0-2.7-1.5-2.7-3.6c0-2.1,1-3.6,2.8-3.6c1.8,0,2.7,1.5,2.7,3.6S420.8,413.4,419,413.4z
			 M419,407.2c-1.2,0-1.7,1.1-1.7,2.6s0.5,2.6,1.7,2.6c1.2,0,1.7-1.1,1.7-2.6C420.7,408.4,420.2,407.2,419,407.2z"/>
		<path class="st4" d="M423.7,413.3V408h-1.2v-0.7c0.7-0.1,1.3-0.3,1.4-0.9h0.8v7H423.7z"/>
	</g>
	<g>
		<path class="st4" d="M449.1,413.3V408h-1.2v-0.7c0.7-0.1,1.3-0.3,1.4-0.9h0.8v7H449.1z"/>
		<path class="st4" d="M454.4,413.4c-1.8,0-2.7-1.5-2.7-3.6c0-2.1,1-3.6,2.8-3.6c1.8,0,2.7,1.5,2.7,3.6S456.2,413.4,454.4,413.4z
			 M454.4,407.2c-1.2,0-1.7,1.1-1.7,2.6s0.5,2.6,1.7,2.6c1.2,0,1.7-1.1,1.7-2.6C456.1,408.4,455.6,407.2,454.4,407.2z"/>
	</g>
	<g>
		<path class="st4" d="M481.1,413.3V408h-1.2v-0.7c0.7-0.1,1.3-0.3,1.4-0.9h0.8v7H481.1z"/>
		<path class="st4" d="M486.4,413.4c-1.8,0-2.7-1.5-2.7-3.6c0-2.1,1-3.6,2.8-3.6c1.8,0,2.7,1.5,2.7,3.6S488.2,413.4,486.4,413.4z
			 M486.4,407.2c-1.2,0-1.7,1.1-1.7,2.6s0.5,2.6,1.7,2.6c1.2,0,1.7-1.1,1.7-2.6C488.1,408.4,487.6,407.2,486.4,407.2z"/>
	</g>
	<g>
		<path class="st4" d="M513.1,413.3V408h-1.2v-0.7c0.7-0.1,1.3-0.3,1.4-0.9h0.8v7H513.1z"/>
		<path class="st4" d="M518.4,413.4c-1.8,0-2.7-1.5-2.7-3.6c0-2.1,1-3.6,2.8-3.6c1.8,0,2.7,1.5,2.7,3.6S520.2,413.4,518.4,413.4z
			 M518.4,407.2c-1.2,0-1.7,1.1-1.7,2.6s0.5,2.6,1.7,2.6c1.2,0,1.7-1.1,1.7-2.6C520.1,408.4,519.6,407.2,518.4,407.2z"/>
	</g>
	<g>
		<path class="st4" d="M417.1,382.5v-5.4h-1.2v-0.7c0.7-0.1,1.3-0.3,1.4-0.9h0.8v7H417.1z"/>
		<path class="st4" d="M422.4,382.6c-1.8,0-2.7-1.5-2.7-3.6c0-2.1,1-3.6,2.8-3.6c1.8,0,2.7,1.5,2.7,3.6S424.2,382.6,422.4,382.6z
			 M422.4,376.4c-1.2,0-1.7,1.1-1.7,2.6s0.5,2.6,1.7,2.6c1.2,0,1.7-1.1,1.7-2.6C424.1,377.5,423.6,376.4,422.4,376.4z"/>
	</g>
	<g>
		<path class="st4" d="M450.7,382.5v-5.4h-1.2v-0.7c0.7-0.1,1.3-0.3,1.4-0.9h0.8v7H450.7z"/>
		<path class="st4" d="M454.1,382.5v-5.4h-1.2v-0.7c0.7-0.1,1.3-0.3,1.4-0.9h0.8v7H454.1z"/>
	</g>
	<g>
		<path class="st4" d="M481.1,382.5v-5.4h-1.2v-0.7c0.7-0.1,1.3-0.3,1.4-0.9h0.8v7H481.1z"/>
		<path class="st4" d="M486.4,382.6c-1.8,0-2.7-1.5-2.7-3.6c0-2.1,1-3.6,2.8-3.6c1.8,0,2.7,1.5,2.7,3.6S488.2,382.6,486.4,382.6z
			 M486.4,376.4c-1.2,0-1.7,1.1-1.7,2.6s0.5,2.6,1.7,2.6c1.2,0,1.7-1.1,1.7-2.6C488.1,377.5,487.6,376.4,486.4,376.4z"/>
	</g>
	<g>
		<path class="st4" d="M514.9,382.6c-1.8,0-2.7-1.5-2.7-3.6c0-2.1,1-3.6,2.8-3.6c1.8,0,2.7,1.5,2.7,3.6S516.7,382.6,514.9,382.6z
			 M514.9,376.4c-1.2,0-1.7,1.1-1.7,2.6s0.5,2.6,1.7,2.6c1.2,0,1.7-1.1,1.7-2.6C516.6,377.5,516.2,376.4,514.9,376.4z"/>
		<path class="st4" d="M519.7,382.5v-5.4h-1.2v-0.7c0.7-0.1,1.3-0.3,1.4-0.9h0.8v7H519.7z"/>
	</g>
</g>
<g>
	<path class="st6" d="M309.8,77.4h-2.8v4.5h-2.5V69.2h5.5c2.4,0,4.3,1.3,4.3,4C314.4,76.2,312.4,77.4,309.8,77.4z M310,71.7h-2.9
		v3.2h2.9c1.2,0,1.8-0.5,1.8-1.6C311.8,72.2,311.1,71.7,310,71.7z"/>
	<path class="st6" d="M321.6,82c-3.4,0-5.5-2.7-5.5-6.5s2-6.5,5.5-6.5s5.5,2.7,5.5,6.5S325,82,321.6,82z M321.6,71.5
		c-2,0-2.9,1.7-2.9,4s0.8,4,2.9,4s2.9-1.7,2.9-4S323.6,71.5,321.6,71.5z"/>
	<path class="st6" d="M334.4,82c-3.4,0-5.5-2.7-5.5-6.5s2-6.5,5.5-6.5c3.4,0,5.5,2.7,5.5,6.5S337.9,82,334.4,82z M334.4,71.5
		c-2,0-2.9,1.7-2.9,4s0.8,4,2.9,4c2,0,2.9-1.7,2.9-4S336.5,71.5,334.4,71.5z"/>
	<path class="st6" d="M342.5,81.8V69.2h2.5v10.1h6.3v2.5H342.5z"/>
	<path class="st6" d="M367.3,81.8l-1-2.8h-4.6l-1,2.8H358l4.8-12.6h2.4l4.8,12.6H367.3z M364.6,74.4c-0.3-0.7-0.5-1.5-0.6-2
		c-0.1,0.5-0.4,1.2-0.6,2l-0.8,2.3h2.9L364.6,74.4z"/>
</g>
<g>
	<path class="st6" d="M310.2,178.5h-2.8v4.5h-2.5v-12.6h5.5c2.4,0,4.3,1.3,4.3,4C314.7,177.3,312.8,178.5,310.2,178.5z M310.3,172.8
		h-2.9v3.2h2.9c1.2,0,1.8-0.5,1.8-1.6S311.4,172.8,310.3,172.8z"/>
	<path class="st6" d="M321.9,183.2c-3.4,0-5.5-2.7-5.5-6.5c0-3.8,2-6.5,5.5-6.5c3.4,0,5.5,2.7,5.5,6.5
		C327.4,180.5,325.4,183.2,321.9,183.2z M321.9,172.7c-2,0-2.9,1.7-2.9,4c0,2.2,0.8,4,2.9,4c2,0,2.9-1.7,2.9-4
		C324.8,174.4,324,172.7,321.9,172.7z"/>
	<path class="st6" d="M334.8,183.2c-3.4,0-5.5-2.7-5.5-6.5c0-3.8,2-6.5,5.5-6.5c3.4,0,5.5,2.7,5.5,6.5
		C340.3,180.5,338.2,183.2,334.8,183.2z M334.8,172.7c-2,0-2.9,1.7-2.9,4c0,2.2,0.8,4,2.9,4c2,0,2.9-1.7,2.9-4
		C337.7,174.4,336.8,172.7,334.8,172.7z"/>
	<path class="st6" d="M342.8,183v-12.6h2.5v10.1h6.3v2.5H342.8z"/>
	<path class="st6" d="M364.9,183h-5.7v-12.6h5.8c2.4,0,4,1.2,4,3.3c0,1.1-0.5,1.9-1.3,2.4c1,0.5,1.8,1.4,1.8,2.8
		C369.4,181.5,367.6,183,364.9,183z M364.9,172.7h-3.2v2.4h3.3c1,0,1.4-0.5,1.4-1.2C366.4,173.1,366,172.7,364.9,172.7z M365,177.3
		h-3.3v3.3h3.3c1.2,0,1.8-0.6,1.8-1.6C366.8,177.9,366.3,177.3,365,177.3z"/>
</g>
<g>
	<path class="st6" d="M310.6,279.6h-2.8v4.5h-2.5v-12.6h5.5c2.4,0,4.3,1.3,4.3,4C315.1,278.4,313.2,279.6,310.6,279.6z M310.7,273.9
		h-2.9v3.2h2.9c1.2,0,1.8-0.5,1.8-1.6C312.5,274.4,311.8,273.9,310.7,273.9z"/>
	<path class="st6" d="M322.3,284.3c-3.4,0-5.5-2.7-5.5-6.5s2-6.5,5.5-6.5c3.4,0,5.5,2.7,5.5,6.5S325.7,284.3,322.3,284.3z
		 M322.3,273.8c-2,0-2.9,1.7-2.9,4s0.8,4,2.9,4c2,0,2.9-1.7,2.9-4S324.3,273.8,322.3,273.8z"/>
	<path class="st6" d="M335.2,284.3c-3.4,0-5.5-2.7-5.5-6.5s2-6.5,5.5-6.5c3.4,0,5.5,2.7,5.5,6.5S338.6,284.3,335.2,284.3z
		 M335.2,273.8c-2,0-2.9,1.7-2.9,4s0.8,4,2.9,4c2,0,2.9-1.7,2.9-4S337.2,273.8,335.2,273.8z"/>
	<path class="st6" d="M343.2,284.1v-12.6h2.5v10.1h6.3v2.5H343.2z"/>
	<path class="st6" d="M366.8,275.2c-0.5-0.9-1.2-1.4-2.3-1.4c-1.9,0-3,1.7-3,4c0,2.3,1.1,4,3,4c1.1,0,1.8-0.5,2.5-1.6l2.1,1.3
		c-0.9,1.8-2.4,2.8-4.7,2.8c-3.3,0-5.5-2.5-5.5-6.5c0-3.8,2.3-6.5,5.6-6.5c2.4,0,3.8,1.2,4.6,2.8L366.8,275.2z"/>
</g>
<g>
	<path class="st6" d="M310.2,380.7h-2.8v4.5h-2.5v-12.6h5.5c2.4,0,4.3,1.3,4.3,4C314.8,379.5,312.8,380.7,310.2,380.7z M310.3,375.1
		h-2.9v3.2h2.9c1.2,0,1.8-0.5,1.8-1.6C312.2,375.6,311.5,375.1,310.3,375.1z"/>
	<path class="st6" d="M322,385.4c-3.4,0-5.5-2.7-5.5-6.5s2-6.5,5.5-6.5c3.4,0,5.5,2.7,5.5,6.5S325.4,385.4,322,385.4z M322,374.9
		c-2,0-2.9,1.7-2.9,4s0.8,4,2.9,4c2,0,2.9-1.7,2.9-4S324,374.9,322,374.9z"/>
	<path class="st6" d="M334.8,385.4c-3.4,0-5.5-2.7-5.5-6.5s2-6.5,5.5-6.5c3.4,0,5.5,2.7,5.5,6.5S338.3,385.4,334.8,385.4z
		 M334.8,374.9c-2,0-2.9,1.7-2.9,4s0.8,4,2.9,4c2,0,2.9-1.7,2.9-4S336.9,374.9,334.8,374.9z"/>
	<path class="st6" d="M342.9,385.2v-12.6h2.5v10.1h6.3v2.5H342.9z"/>
	<path class="st6" d="M363,385.2h-3.8v-12.6h3.9c3.6,0,6.3,1.7,6.3,6.3C369.5,383.3,366.3,385.2,363,385.2z M363.1,375.1h-1.3v7.7
		h1.2c2.6,0,3.9-1.5,3.9-3.9C366.9,376.3,365.8,375.1,363.1,375.1z"/>
</g>
<g>
	<rect x="633.2" y="233.6" class="st4" width="67.1" height="67.1"/>
	<rect x="710.9" y="233.6" class="st4" width="67.1" height="67.1"/>
	<rect x="633.2" y="312.5" class="st4" width="67.1" height="67.1"/>
	<rect x="710.9" y="312.5" class="st4" width="67.1" height="67.1"/>
	<rect x="633.2" y="154.6" class="st4" width="67.1" height="67.1"/>
	<rect x="710.9" y="154.6" class="st4" width="67.1" height="67.1"/>
	<rect x="633.2" y="75.7" class="st4" width="67.1" height="67.1"/>
	<rect x="710.9" y="75.7" class="st4" width="67.1" height="67.1"/>
	<g>
		<rect x="639.6" y="87.7" class="st3" width="23.5" height="23.5"/>
		<rect x="669.7" y="87.7" class="st13" width="23.5" height="23.5"/>
		<g>
			<path class="st4" d="M647.8,102.8v-5.4h-1.2v-0.7c0.7,0,1.3-0.3,1.4-0.9h0.8v7H647.8z"/>
			<path class="st4" d="M653,102.9c-1.8,0-2.7-1.5-2.7-3.6s1-3.6,2.8-3.6c1.8,0,2.7,1.5,2.7,3.6C655.8,101.4,654.8,102.9,653,102.9z
				 M653,96.7c-1.2,0-1.7,1.1-1.7,2.6c0,1.5,0.5,2.6,1.7,2.6c1.2,0,1.7-1.1,1.7-2.6S654.3,96.7,653,96.7z"/>
		</g>
		<g>
			<path class="st4" d="M679.7,102.9c-1.8,0-2.7-1.5-2.7-3.6s1-3.6,2.8-3.6c1.8,0,2.7,1.5,2.7,3.6
				C682.5,101.4,681.6,102.9,679.7,102.9z M679.7,96.7c-1.2,0-1.7,1.1-1.7,2.6c0,1.5,0.5,2.6,1.7,2.6c1.2,0,1.7-1.1,1.7-2.6
				S681,96.7,679.7,96.7z"/>
			<path class="st4" d="M684.5,102.8v-5.4h-1.2v-0.7c0.7,0,1.3-0.3,1.4-0.9h0.8v7H684.5z"/>
		</g>
		<rect x="639.6" y="117.8" class="st14" width="53.6" height="12.8"/>
	</g>
	<g>
		<rect x="639.9" y="166.7" class="st11" width="23.5" height="23.5"/>
		<rect x="670" y="166.7" class="st15" width="23.5" height="23.5"/>
		<g>
			<path class="st4" d="M649.9,181.8c-1.8,0-2.7-1.5-2.7-3.6s1-3.6,2.8-3.6c1.8,0,2.7,1.5,2.7,3.6
				C652.7,180.3,651.7,181.8,649.9,181.8z M649.9,175.6c-1.2,0-1.7,1.1-1.7,2.6c0,1.5,0.5,2.6,1.7,2.6c1.2,0,1.7-1.1,1.7-2.6
				S651.1,175.6,649.9,175.6z"/>
			<path class="st4" d="M654.7,181.7v-5.4h-1.2v-0.7c0.7,0,1.3-0.3,1.4-0.9h0.8v7H654.7z"/>
		</g>
		<g>
			<path class="st4" d="M680,181.8c-1.8,0-2.7-1.5-2.7-3.6c0-2.1,1-3.6,2.8-3.6c1.8,0,2.7,1.5,2.7,3.6S681.8,181.8,680,181.8z
				 M680,175.6c-1.2,0-1.7,1.1-1.7,2.6s0.5,2.6,1.7,2.6c1.2,0,1.7-1.1,1.7-2.6C681.7,176.8,681.3,175.6,680,175.6z"/>
			<path class="st4" d="M684.8,181.7v-5.4h-1.2v-0.7c0.7-0.1,1.3-0.3,1.4-0.9h0.8v7H684.8z"/>
		</g>
		<rect x="639.9" y="196.8" class="st14" width="53.6" height="12.8"/>
	</g>
	<g>
		<rect x="639.9" y="245.6" class="st11" width="23.5" height="23.5"/>
		<rect x="670" y="245.6" class="st16" width="23.5" height="23.5"/>
		<g>
			<path class="st4" d="M649.9,260.8c-1.8,0-2.7-1.5-2.7-3.6c0-2.1,1-3.6,2.8-3.6c1.8,0,2.7,1.5,2.7,3.6
				C652.7,259.3,651.7,260.8,649.9,260.8z M649.9,254.6c-1.2,0-1.7,1.1-1.7,2.6c0,1.5,0.5,2.6,1.7,2.6c1.2,0,1.7-1.1,1.7-2.6
				C651.6,255.7,651.1,254.6,649.9,254.6z"/>
			<path class="st4" d="M654.7,260.7v-5.4h-1.2v-0.7c0.7,0,1.3-0.3,1.4-0.9h0.8v7H654.7z"/>
		</g>
		<g>
			<path class="st4" d="M679.8,260.7v-5.4h-1.2v-0.7c0.7-0.1,1.3-0.3,1.4-0.9h0.8v7H679.8z"/>
			<path class="st4" d="M683.2,260.7v-5.4h-1.2v-0.7c0.7-0.1,1.3-0.3,1.4-0.9h0.8v7H683.2z"/>
		</g>
		<rect x="639.9" y="275.7" class="st14" width="53.6" height="12.8"/>
	</g>
	<g>
		<rect x="717.6" y="245.6" class="st3" width="23.5" height="23.5"/>
		<rect x="747.7" y="245.6" class="st10" width="23.5" height="23.5"/>
		<g>
			<path class="st4" d="M725.7,260.7v-5.4h-1.2v-0.7c0.7,0,1.3-0.3,1.4-0.9h0.8v7H725.7z"/>
			<path class="st4" d="M731,260.8c-1.8,0-2.7-1.5-2.7-3.6c0-2.1,1-3.6,2.8-3.6s2.7,1.5,2.7,3.6C733.8,259.3,732.8,260.8,731,260.8z
				 M731,254.6c-1.2,0-1.7,1.1-1.7,2.6c0,1.5,0.5,2.6,1.7,2.6c1.2,0,1.7-1.1,1.7-2.6C732.7,255.7,732.2,254.6,731,254.6z"/>
		</g>
		<g>
			<path class="st4" d="M755.9,260.7v-5.4h-1.2v-0.7c0.7-0.1,1.3-0.3,1.4-0.9h0.8v7H755.9z"/>
			<path class="st4" d="M761.1,260.8c-1.8,0-2.7-1.5-2.7-3.6c0-2.1,1-3.6,2.8-3.6c1.8,0,2.7,1.5,2.7,3.6
				C763.9,259.3,763,260.8,761.1,260.8z M761.1,254.6c-1.2,0-1.7,1.1-1.7,2.6c0,1.5,0.5,2.6,1.7,2.6c1.2,0,1.7-1.1,1.7-2.6
				C762.9,255.7,762.4,254.6,761.1,254.6z"/>
		</g>
		<rect x="717.6" y="275.7" class="st14" width="53.6" height="12.8"/>
	</g>
	<g>
		<rect x="639.9" y="324.6" class="st10" width="23.5" height="23.5"/>
		<rect x="670" y="324.6" class="st17" width="23.5" height="23.5"/>
		<g>
			<path class="st4" d="M648,339.6v-5.4h-1.2v-0.7c0.7-0.1,1.3-0.3,1.4-0.9h0.8v7H648z"/>
			<path class="st4" d="M653.3,339.7c-1.8,0-2.7-1.5-2.7-3.6c0-2.1,1-3.6,2.8-3.6c1.8,0,2.7,1.5,2.7,3.6S655.1,339.7,653.3,339.7z
				 M653.3,333.5c-1.2,0-1.7,1.1-1.7,2.6s0.5,2.6,1.7,2.6c1.2,0,1.7-1.1,1.7-2.6C655,334.7,654.5,333.5,653.3,333.5z"/>
		</g>
		<g>
			<path class="st4" d="M678.2,339.6v-5.4h-1.2v-0.7c0.7,0,1.3-0.3,1.4-0.9h0.8v7H678.2z"/>
			<path class="st4" d="M683.4,339.7c-1.8,0-2.7-1.5-2.7-3.6s1-3.6,2.8-3.6c1.8,0,2.7,1.5,2.7,3.6
				C686.2,338.2,685.3,339.7,683.4,339.7z M683.4,333.5c-1.2,0-1.7,1.1-1.7,2.6c0,1.5,0.5,2.6,1.7,2.6c1.2,0,1.7-1.1,1.7-2.6
				S684.7,333.5,683.4,333.5z"/>
		</g>
		<rect x="639.9" y="354.7" class="st14" width="53.6" height="12.8"/>
	</g>
	<g>
		<rect x="717.6" y="324.6" class="st11" width="23.5" height="23.5"/>
		<rect x="747.7" y="324.6" class="st16" width="23.5" height="23.5"/>
		<g>
			<path class="st4" d="M727.6,339.7c-1.8,0-2.7-1.5-2.7-3.6c0-2.1,1-3.6,2.8-3.6s2.7,1.5,2.7,3.6S729.4,339.7,727.6,339.7z
				 M727.6,333.5c-1.2,0-1.7,1.1-1.7,2.6s0.5,2.6,1.7,2.6c1.2,0,1.7-1.1,1.7-2.6C729.3,334.7,728.8,333.5,727.6,333.5z"/>
			<path class="st4" d="M732.4,339.6v-5.4h-1.2v-0.7c0.7-0.1,1.3-0.3,1.4-0.9h0.8v7H732.4z"/>
		</g>
		<g>
			<path class="st4" d="M757.7,339.7c-1.8,0-2.7-1.5-2.7-3.6s1-3.6,2.8-3.6c1.8,0,2.7,1.5,2.7,3.6
				C760.5,338.2,759.5,339.7,757.7,339.7z M757.7,333.5c-1.2,0-1.7,1.1-1.7,2.6c0,1.5,0.5,2.6,1.7,2.6c1.2,0,1.7-1.1,1.7-2.6
				S759,333.5,757.7,333.5z"/>
			<path class="st4" d="M762.5,339.6v-5.4h-1.2v-0.7c0.7,0,1.3-0.3,1.4-0.9h0.8v7H762.5z"/>
		</g>
		<rect x="717.6" y="354.7" class="st14" width="53.6" height="12.8"/>
	</g>
	<g>
		<rect x="717.6" y="166.7" class="st17" width="23.5" height="23.5"/>
		<rect x="747.7" y="166.7" class="st15" width="23.5" height="23.5"/>
		<g>
			<path class="st4" d="M725.7,181.7v-5.4h-1.2v-0.7c0.7,0,1.3-0.3,1.4-0.9h0.8v7H725.7z"/>
			<path class="st4" d="M731,181.8c-1.8,0-2.7-1.5-2.7-3.6s1-3.6,2.8-3.6s2.7,1.5,2.7,3.6C733.8,180.3,732.8,181.8,731,181.8z
				 M731,175.6c-1.2,0-1.7,1.1-1.7,2.6c0,1.5,0.5,2.6,1.7,2.6c1.2,0,1.7-1.1,1.7-2.6S732.2,175.6,731,175.6z"/>
		</g>
		<g>
			<path class="st4" d="M757.7,181.8c-1.8,0-2.7-1.5-2.7-3.6c0-2.1,1-3.6,2.8-3.6c1.8,0,2.7,1.5,2.7,3.6S759.5,181.8,757.7,181.8z
				 M757.7,175.6c-1.2,0-1.7,1.1-1.7,2.6s0.5,2.6,1.7,2.6c1.2,0,1.7-1.1,1.7-2.6C759.4,176.8,759,175.6,757.7,175.6z"/>
			<path class="st4" d="M762.5,181.7v-5.4h-1.2v-0.7c0.7-0.1,1.3-0.3,1.4-0.9h0.8v7H762.5z"/>
		</g>
		<rect x="717.6" y="196.8" class="st14" width="53.6" height="12.8"/>
	</g>
	<g>
		<rect x="747.7" y="87.7" class="st9" width="23.5" height="23.5"/>
		<g>
			<rect x="717.6" y="87.7" class="st8" width="23.5" height="23.5"/>
			<g>
				<path class="st4" d="M727.6,102.9c-1.8,0-2.7-1.5-2.7-3.6s1-3.6,2.8-3.6s2.7,1.5,2.7,3.6C730.4,101.4,729.4,102.9,727.6,102.9z
					 M727.6,96.7c-1.2,0-1.7,1.1-1.7,2.6c0,1.5,0.5,2.6,1.7,2.6c1.2,0,1.7-1.1,1.7-2.6S728.8,96.7,727.6,96.7z"/>
				<path class="st4" d="M732.4,102.8v-5.4h-1.2v-0.7c0.7,0,1.3-0.3,1.4-0.9h0.8v7H732.4z"/>
			</g>
		</g>
		<g>
			<path class="st4" d="M757.5,102.8v-5.4h-1.2v-0.7c0.7,0,1.3-0.3,1.4-0.9h0.8v7H757.5z"/>
			<path class="st4" d="M760.9,102.8v-5.4h-1.2v-0.7c0.7,0,1.3-0.3,1.4-0.9h0.8v7H760.9z"/>
		</g>
		<rect x="717.6" y="117.8" class="st14" width="53.6" height="12.8"/>
	</g>
</g>
<g>
	<path class="st0" d="M79.7,96.2c-0.1,0-0.2,0-0.2-0.1L62,87.4c-0.2-0.1-0.3-0.3-0.3-0.5V65c0-0.2,0.1-0.4,0.3-0.5l17.5-8.8
		c0.2-0.1,0.3-0.1,0.5,0l17.5,8.8c0.2,0.1,0.3,0.3,0.3,0.5v21.9c0,0.2-0.1,0.4-0.3,0.5L80,96.1C79.9,96.2,79.8,96.2,79.7,96.2z
		 M62.8,86.5l17,8.5l17-8.5V65.3l-17-8.5l-17,8.5V86.5z"/>
	<path class="st0" d="M79.7,74.3c-0.1,0-0.2,0-0.2-0.1L62,65.5c-0.3-0.1-0.4-0.5-0.2-0.7s0.5-0.4,0.7-0.2l17.3,8.6L97,64.5
		c0.3-0.1,0.6,0,0.7,0.2c0.1,0.3,0,0.6-0.2,0.7L80,74.2C79.9,74.3,79.8,74.3,79.7,74.3z"/>
	<path class="st0" d="M79.7,96.2c-0.3,0-0.6-0.2-0.6-0.6V73.7c0-0.3,0.2-0.6,0.6-0.6c0.3,0,0.6,0.2,0.6,0.6v21.9
		C80.3,95.9,80,96.2,79.7,96.2z"/>
</g>
<g>
	<path class="st0" d="M79.7,197.3c-0.1,0-0.2,0-0.2-0.1L62,188.5c-0.2-0.1-0.3-0.3-0.3-0.5v-21.9c0-0.2,0.1-0.4,0.3-0.5l17.5-8.8
		c0.2-0.1,0.3-0.1,0.5,0l17.5,8.8c0.2,0.1,0.3,0.3,0.3,0.5V188c0,0.2-0.1,0.4-0.3,0.5L80,197.3C79.9,197.3,79.8,197.3,79.7,197.3z
		 M62.8,187.7l17,8.5l17-8.5v-21.2l-17-8.5l-17,8.5V187.7z"/>
	<path class="st0" d="M79.7,175.4c-0.1,0-0.2,0-0.2-0.1L62,166.6c-0.3-0.1-0.4-0.5-0.2-0.7s0.5-0.4,0.7-0.2l17.3,8.6l17.3-8.6
		c0.3-0.1,0.6,0,0.7,0.2c0.1,0.3,0,0.6-0.2,0.7L80,175.4C79.9,175.4,79.8,175.4,79.7,175.4z"/>
	<path class="st0" d="M79.7,197.3c-0.3,0-0.6-0.2-0.6-0.6v-21.9c0-0.3,0.2-0.6,0.6-0.6c0.3,0,0.6,0.2,0.6,0.6v21.9
		C80.3,197.1,80,197.3,79.7,197.3z"/>
</g>
<g>
	<path class="st0" d="M79.7,298.4c-0.1,0-0.2,0-0.2-0.1L62,289.6c-0.2-0.1-0.3-0.3-0.3-0.5v-21.9c0-0.2,0.1-0.4,0.3-0.5l17.5-8.8
		c0.2-0.1,0.3-0.1,0.5,0l17.5,8.8c0.2,0.1,0.3,0.3,0.3,0.5v21.9c0,0.2-0.1,0.4-0.3,0.5L80,298.4C79.9,298.4,79.8,298.4,79.7,298.4z
		 M62.8,288.8l17,8.5l17-8.5v-21.2l-17-8.5l-17,8.5V288.8z"/>
	<path class="st0" d="M79.7,276.5c-0.1,0-0.2,0-0.2-0.1L62,267.7c-0.3-0.1-0.4-0.5-0.2-0.7c0.1-0.3,0.5-0.4,0.7-0.2l17.3,8.6
		l17.3-8.6c0.3-0.1,0.6,0,0.7,0.2c0.1,0.3,0,0.6-0.2,0.7L80,276.5C79.9,276.5,79.8,276.5,79.7,276.5z"/>
	<path class="st0" d="M79.7,298.4c-0.3,0-0.6-0.2-0.6-0.6V276c0-0.3,0.2-0.6,0.6-0.6c0.3,0,0.6,0.2,0.6,0.6v21.9
		C80.3,298.2,80,298.4,79.7,298.4z"/>
</g>
<g>
	<path class="st0" d="M79.7,399.6c-0.1,0-0.2,0-0.2-0.1L62,390.7c-0.2-0.1-0.3-0.3-0.3-0.5v-21.9c0-0.2,0.1-0.4,0.3-0.5l17.5-8.8
		c0.2-0.1,0.3-0.1,0.5,0l17.5,8.8c0.2,0.1,0.3,0.3,0.3,0.5v21.9c0,0.2-0.1,0.4-0.3,0.5L80,399.5C79.9,399.5,79.8,399.6,79.7,399.6z
		 M62.8,389.9l17,8.5l17-8.5v-21.2l-17-8.5l-17,8.5V389.9z"/>
	<path class="st0" d="M79.7,377.7c-0.1,0-0.2,0-0.2-0.1L62,368.9c-0.3-0.1-0.4-0.5-0.2-0.7c0.1-0.3,0.5-0.4,0.7-0.2l17.3,8.6
		l17.3-8.6c0.3-0.1,0.6,0,0.7,0.2c0.1,0.3,0,0.6-0.2,0.7L80,377.6C79.9,377.6,79.8,377.7,79.7,377.7z"/>
	<path class="st0" d="M79.7,399.6c-0.3,0-0.6-0.2-0.6-0.6v-21.9c0-0.3,0.2-0.6,0.6-0.6c0.3,0,0.6,0.2,0.6,0.6V399
		C80.3,399.3,80,399.6,79.7,399.6z"/>
</g>
<g>
</g>
</svg>
