<svg id="Layer_1" data-name="Layer 1" xmlns="http://www.w3.org/2000/svg" width="21.52cm" height="17.26cm" viewBox="0 0 610.1 489.4"><defs><style>.cls-1{fill:#efefef;}.cls-2{fill:#0086cb;}.cls-3{fill:#a1dbe8;}.cls-4{fill:#007a87;}.cls-5{fill:#aaa;}.cls-6{fill:none;stroke:#4c4c4d;stroke-miterlimit:10;}.cls-7{fill:#4c4c4d;}.cls-8{fill:#fff;}.cls-9{fill:#00b7e5;}.cls-10{fill:#004154;}</style></defs><title>2-Way-Mirroring</title><rect class="cls-1" y="251.4" width="610.1" height="238"/><rect class="cls-1" width="610.1" height="238"/><circle class="cls-2" cx="170.8" cy="53.5" r="35.1"/><circle class="cls-3" cx="92.6" cy="163.37" r="35.1" transform="translate(-76.92 243.65) rotate(-85.94)"/><circle class="cls-4" cx="249" cy="162.8" r="35.1"/><circle class="cls-3" cx="384.5" cy="162.8" r="35.1"/><circle class="cls-5" cx="538.31" cy="163.29" r="35.1" transform="translate(42.2 427.97) rotate(-45)"/><polyline class="cls-6" points="170.8 88.6 170.8 108.2 92.6 108.2 92.6 123.4"/><polygon class="cls-7" points="89.7 122.5 92.6 127.7 95.6 122.5 89.7 122.5"/><polyline class="cls-6" points="170.8 88.6 170.8 108.2 249 108.2 249 123.4"/><polygon class="cls-7" points="246 122.5 249 127.7 251.9 122.5 246 122.5"/><line class="cls-6" x1="503.2" y1="162.8" x2="423.9" y2="162.8"/><polygon class="cls-7" points="424.8 159.8 419.6 162.8 424.8 165.8 424.8 159.8"/><path class="cls-8" d="M156.4,58.1V50.6l1.6-.8V58l-1.6.1Z" transform="translate(0 -0.5)"/><path class="cls-8" d="M160.4,51.6a.9.9,0,1,1,.9-.9A.9.9,0,0,1,160.4,51.6Zm-.8,6.5v-6h1.6v6Z" transform="translate(0 -0.5)"/><path class="cls-8" d="M165.6,58.2a1.9,1.9,0,0,1-1.3-.5v.4h-1.6V50.6l1.6-.8v2.7a2.23,2.23,0,0,1,1.3-.5c1.3,0,2.3,1,2.3,3.2C167.9,56.9,167.1,58.2,165.6,58.2Zm-.3-4.8a1.23,1.23,0,0,0-1,.5v2.3c.2.4.6.5,1.1.5s1-.5,1-1.5C166.3,54,165.9,53.4,165.3,53.4Z" transform="translate(0 -0.5)"/><path class="cls-8" d="M172.6,53.9a1.27,1.27,0,0,0-.9-.4c-.6,0-1,.2-1,1.3V58h-1.6V52h1.6v.4a1.73,1.73,0,0,1,1.3-.5,1.6,1.6,0,0,1,1.1.4Z" transform="translate(0 -0.5)"/><path class="cls-8" d="M176.8,58.2a1.9,1.9,0,0,1-1.3-.5v.4H174V50.6l1.6-.8v2.7a2.23,2.23,0,0,1,1.3-.5c1.3,0,2.3,1,2.3,3.2C179.1,56.9,178.3,58.2,176.8,58.2Zm-.3-4.8a1.23,1.23,0,0,0-1,.5v2.3c.2.4.6.5,1.1.5s1-.5,1-1.5C177.5,54,177.1,53.4,176.5,53.4Z" transform="translate(0 -0.5)"/><path class="cls-8" d="M183.6,58.1v-.4a2.23,2.23,0,0,1-1.3.5c-1.3,0-2.3-1-2.3-3.2,0-1.8.8-3,2.3-3a1.9,1.9,0,0,1,1.3.5V50.6l1.6-.8V58l-1.6.1Zm0-4.1c-.2-.4-.6-.5-1.1-.5s-1,.5-1,1.5c0,1.3.4,1.7,1,1.7a1.23,1.23,0,0,0,1-.5l.1-2.2Z" transform="translate(0 -0.5)"/><path class="cls-7" d="M13.8,14.4a2,2,0,0,0-1.9-1.1c-1.6,0-2.4,1.4-2.4,3.3s.9,3.3,2.4,3.3a2,2,0,0,0,2-1.3l1.7,1A3.75,3.75,0,0,1,11.8,22c-2.7,0-4.5-2.1-4.5-5.4s1.9-5.4,4.7-5.4a3.9,3.9,0,0,1,3.8,2.3Z" transform="translate(0 -0.5)"/><path class="cls-7" d="M17.5,21.8V12l2-1V21.9l-2-.1Z" transform="translate(0 -0.5)"/><path class="cls-7" d="M26.4,21.8v-.5a2.48,2.48,0,0,1-1.8.7c-2,0-2.9-1.4-2.9-3.6V14h2v4.2c0,1.4.5,1.8,1.3,1.8s1.3-.4,1.3-1.8V13.9h2v7.8h-2v.1Z" transform="translate(0 -0.5)"/><path class="cls-7" d="M33.4,21.9a6.73,6.73,0,0,1-3.3-.9l.7-1.6a5,5,0,0,0,2.7.7c.8,0,1-.2,1-.6s-.3-.5-1.1-.8c-1.8-.6-3.1-1-3.1-2.7s1.3-2.3,3.1-2.3a6,6,0,0,1,2.9.8l-.7,1.6a5.25,5.25,0,0,0-2.3-.6c-.8,0-1.1.2-1.1.5s.2.5,1.6.9,2.6,1,2.6,2.5C36.6,21.3,35.1,21.9,33.4,21.9Z" transform="translate(0 -0.5)"/><path class="cls-7" d="M42.6,21.5A3.77,3.77,0,0,1,41,22a2.1,2.1,0,0,1-2.1-2.3V16H37.6V14H39V12l2-1v3h1.8v1.9H41v3.2c0,.7.2,1,.8,1a1.54,1.54,0,0,0,1.1-.6Z" transform="translate(0 -0.5)"/><path class="cls-7" d="M50.9,18.5H46.2A1.49,1.49,0,0,0,47.8,20a1.9,1.9,0,0,0,1.3-.5l1.4,1.2A3.57,3.57,0,0,1,47.7,22c-2.3,0-3.7-1.6-3.7-4.1s1.5-4.1,3.5-4.1,3.3,1.8,3.3,4.1A1.76,1.76,0,0,1,50.9,18.5Zm-3.4-3a1.42,1.42,0,0,0-1.3,1.4h2.6A1.27,1.27,0,0,0,47.5,15.5Z" transform="translate(0 -0.5)"/><path class="cls-7" d="M57.1,16.3a1.66,1.66,0,0,0-1.2-.5c-.8,0-1.3.4-1.3,1.7v4.2h-2V13.9h2v.5a2.18,2.18,0,0,1,1.6-.7,2.05,2.05,0,0,1,1.4.5Z" transform="translate(0 -0.5)"/><path class="cls-7" d="M58.9,17.4v-2h4.3v2Z" transform="translate(0 -0.5)"/><path class="cls-7" d="M71.3,21.8l-.8-2.3H66.7l-.8,2.3H63.7l4-10.4h2l3.9,10.4Zm-2.2-6.3c-.2-.6-.4-1.3-.5-1.6-.1.4-.3,1-.5,1.6l-.7,1.9h2.4Z" transform="translate(0 -0.5)"/><path class="cls-7" d="M13.8,269.6a2,2,0,0,0-1.9-1.1c-1.6,0-2.4,1.4-2.4,3.3s.9,3.3,2.4,3.3a2,2,0,0,0,2-1.3l1.7,1.1a3.94,3.94,0,0,1-3.9,2.3c-2.7,0-4.5-2.1-4.5-5.4s1.9-5.4,4.7-5.4a3.9,3.9,0,0,1,3.8,2.3Z" transform="translate(0 -0.5)"/><path class="cls-7" d="M17.6,277v-9.8l2-1V277Z" transform="translate(0 -0.5)"/><path class="cls-7" d="M26.4,277v-.5a2.48,2.48,0,0,1-1.8.7c-2,0-2.9-1.4-2.9-3.6v-4.4h2v4.2c0,1.4.5,1.8,1.3,1.8s1.3-.4,1.3-1.8v-4.3h2v7.8l-1.9.1Z" transform="translate(0 -0.5)"/><path class="cls-7" d="M33.4,277.1a6.73,6.73,0,0,1-3.3-.9l.7-1.6a5,5,0,0,0,2.7.7c.8,0,1-.2,1-.6s-.3-.5-1.1-.8c-1.8-.6-3.1-1-3.1-2.7s1.3-2.3,3.1-2.3a6,6,0,0,1,2.9.8l-.7,1.6a5.25,5.25,0,0,0-2.3-.6c-.8,0-1.1.2-1.1.5s.2.5,1.6.9,2.6,1,2.6,2.5C36.6,276.5,35.2,277.1,33.4,277.1Z" transform="translate(0 -0.5)"/><path class="cls-7" d="M42.6,276.6a3.77,3.77,0,0,1-1.6.5,2.1,2.1,0,0,1-2.1-2.3v-3.7H37.6v-1.9H39v-2l2-1v3h1.8v1.9H41v3.2c0,.7.2,1,.8,1a1.54,1.54,0,0,0,1.1-.6Z" transform="translate(0 -0.5)"/><path class="cls-7" d="M50.9,273.7H46.2a1.49,1.49,0,0,0,1.6,1.5,1.9,1.9,0,0,0,1.3-.5l1.4,1.2a3.57,3.57,0,0,1-2.8,1.3c-2.3,0-3.7-1.6-3.7-4.1s1.5-4.1,3.5-4.1,3.3,1.8,3.3,4.1A1.76,1.76,0,0,1,50.9,273.7Zm-3.4-2.9a1.42,1.42,0,0,0-1.3,1.4h2.6A1.19,1.19,0,0,0,47.5,270.8Z" transform="translate(0 -0.5)"/><path class="cls-7" d="M57.1,271.6a1.66,1.66,0,0,0-1.2-.5c-.8,0-1.3.4-1.3,1.7V277h-2v-7.8h2v.5a2.18,2.18,0,0,1,1.6-.7,2.05,2.05,0,0,1,1.4.5Z" transform="translate(0 -0.5)"/><path class="cls-7" d="M58.9,272.6v-2h4.3v2Z" transform="translate(0 -0.5)"/><path class="cls-7" d="M70.2,277H65.5V266.6h4.8c2,0,3.3,1,3.3,2.7a2.19,2.19,0,0,1-1.1,2,2.39,2.39,0,0,1,1.4,2.3C73.9,275.8,72.4,277,70.2,277Zm-.1-8.5H67.5v2h2.7c.8,0,1.2-.4,1.2-1S71,268.5,70.1,268.5Zm.2,3.8H67.6V275h2.7c1,0,1.5-.5,1.5-1.4S71.3,272.3,70.3,272.3Z" transform="translate(0 -0.5)"/><path d="M75.1,161.3H73.4v2.8H71.8v-7.9h3.5a2.42,2.42,0,0,1,2.7,2.5C78,160.5,76.8,161.3,75.1,161.3Zm.1-3.6H73.4v2h1.8a1,1,0,0,0,1.1-1C76.4,158,75.9,157.7,75.2,157.7Z" transform="translate(0 -0.5)"/><path d="M82.7,160a1.27,1.27,0,0,0-.9-.4c-.6,0-1,.2-1,1.3v3.2H79.2v-6h1.6v.4a1.73,1.73,0,0,1,1.3-.5,1.6,1.6,0,0,1,1.1.4Z" transform="translate(0 -0.5)"/><path d="M84.9,157.6a.9.9,0,1,1,.9-.9A.9.9,0,0,1,84.9,157.6Zm-.7,6.5v-6h1.6v6Z" transform="translate(0 -0.5)"/><path d="M94.2,164.1v-3.2c0-1.1-.3-1.4-1-1.4s-1,.3-1,1.4v3.3H90.6V161c0-1.1-.3-1.4-1-1.4s-1,.3-1,1.4v3.3H87v-6h1.6v.4a1.73,1.73,0,0,1,1.3-.5,1.88,1.88,0,0,1,1.7.8,2.42,2.42,0,0,1,1.9-.8c1.5,0,2.1,1,2.1,2.7v3.3H93.9v-.1Z" transform="translate(0 -0.5)"/><path d="M100.6,164.1v-.4a1.9,1.9,0,0,1-1.3.5,2.07,2.07,0,0,1-2.2-2.1c0-1.3,1.1-2,2.4-2a2.68,2.68,0,0,1,1.1.2V160a.79.79,0,0,0-.8-.8,2.73,2.73,0,0,0-1.6.4l-.6-1.1a4,4,0,0,1,2.2-.6,2.14,2.14,0,0,1,2.4,2.1v4l-1.6.1Zm0-2.5c-.3-.2-.5-.2-1.1-.2s-.9.3-.9.8.2.8.9.8a1.29,1.29,0,0,0,1.1-.5Z" transform="translate(0 -0.5)"/><path d="M107.1,160a1.27,1.27,0,0,0-.9-.4c-.6,0-1,.2-1,1.3v3.2h-1.6v-6h1.6v.4a1.73,1.73,0,0,1,1.3-.5,1.6,1.6,0,0,1,1.1.4Z" transform="translate(0 -0.5)"/><path d="M111.1,166.2h-1.6l.8-2.1-2.3-6h1.7l1,2.9c.2.5.3,1,.4,1.3.1-.3.2-.8.4-1.3l1-2.9h1.7Z" transform="translate(0 -0.5)"/><path d="M94.7,177.7l-.6-1.8H91.2l-.6,1.8H88.9l3-7.9h1.6l3,7.9ZM93,173c-.2-.5-.3-1-.4-1.3-.1.3-.2.8-.4,1.3l-.5,1.4h1.8Z" transform="translate(0 -0.5)"/><path d="M359.9,164.2a3.68,3.68,0,0,1-3.1-1.4l1.1-1a2.36,2.36,0,0,0,2,.9c1,0,1.4-.2,1.4-.8s-.3-.7-1.8-1.1-2.5-.8-2.5-2.4a2.53,2.53,0,0,1,2.8-2.3,3.77,3.77,0,0,1,2.9,1.3l-1.1,1.1a2.5,2.5,0,0,0-1.8-.8c-.8,0-1.1.4-1.1.7,0,.5.4.7,1.6,1s2.6.7,2.6,2.4C363,163.2,362,164.2,359.9,164.2Z" transform="translate(0 -0.5)"/><path d="M369.1,161.6h-3.6a1.21,1.21,0,0,0,1.3,1.1,1.53,1.53,0,0,0,1-.4l1.1,1a2.81,2.81,0,0,1-2.1,1c-1.7,0-2.8-1.2-2.8-3.1s1.1-3.1,2.6-3.1,2.5,1.4,2.5,3.1Zm-2.6-2.2c-.5,0-.9.5-1,1.1h2C367.6,159.9,367.3,159.4,366.5,159.4Z" transform="translate(0 -0.5)"/><path d="M372.9,164.2a3.11,3.11,0,0,1,.1-6.2,2.81,2.81,0,0,1,2.4,1.3l-1,1a1.6,1.6,0,0,0-1.4-.8c-.8,0-1.3.6-1.3,1.6s.5,1.6,1.3,1.6a1.72,1.72,0,0,0,1.4-.8l1,1A3,3,0,0,1,372.9,164.2Z" transform="translate(0 -0.5)"/><path d="M378.7,164.2a3.13,3.13,0,1,1,2.7-3.1A2.8,2.8,0,0,1,378.7,164.2Zm0-4.7c-.8,0-1.1.7-1.1,1.6s.4,1.6,1.1,1.6,1.1-.8,1.1-1.6S379.4,159.5,378.7,159.5Z" transform="translate(0 -0.5)"/><path d="M386.2,164.1v-3.2c0-1.1-.4-1.4-1-1.4s-1,.3-1,1.4v3.3h-1.6v-6h1.6v.4a2,2,0,0,1,1.4-.5c1.5,0,2.2,1,2.2,2.7v3.3Z" transform="translate(0 -0.5)"/><path d="M392.5,164.1v-.4a2.23,2.23,0,0,1-1.3.5c-1.3,0-2.3-1-2.3-3.2,0-1.8.8-3,2.3-3a1.9,1.9,0,0,1,1.3.5v-1.8l1.6-.8v8.2Zm0-4.1c-.2-.4-.6-.5-1.1-.5s-1,.5-1,1.5c0,1.3.4,1.7,1,1.7a1.23,1.23,0,0,0,1-.5l.1-2.2Z" transform="translate(0 -0.5)"/><path d="M398.9,164.1v-.4a1.9,1.9,0,0,1-1.3.5,2.07,2.07,0,0,1-2.2-2.1c0-1.3,1.1-2,2.4-2a2.68,2.68,0,0,1,1.1.2V160a.79.79,0,0,0-.8-.8,2.73,2.73,0,0,0-1.6.4l-.6-1.1a4,4,0,0,1,2.2-.6,2.14,2.14,0,0,1,2.4,2.1v4l-1.6.1Zm0-2.5c-.3-.2-.5-.2-1.1-.2s-.9.3-.9.8.2.8.9.8a1.29,1.29,0,0,0,1.1-.5Z" transform="translate(0 -0.5)"/><path d="M405.4,160a1.27,1.27,0,0,0-.9-.4c-.6,0-1,.2-1,1.3v3.2h-1.6v-6h1.6v.4a1.73,1.73,0,0,1,1.3-.5,1.6,1.6,0,0,1,1.1.4Z" transform="translate(0 -0.5)"/><path d="M409.4,166.2h-1.6l.8-2.1-2.3-6H408l1,2.9c.2.5.3,1,.4,1.3.1-.3.2-.8.4-1.3l1-2.9h1.7Z" transform="translate(0 -0.5)"/><path d="M385.1,177.7h-3.6v-7.9h3.6c1.6,0,2.5.7,2.5,2.1a1.82,1.82,0,0,1-.8,1.6,1.66,1.66,0,0,1,1.1,1.7C387.9,176.8,386.8,177.7,385.1,177.7Zm-.1-6.5h-2v1.5h2.1c.7,0,.9-.3.9-.8S385.8,171.2,385,171.2Zm.2,2.9h-2.1v2h2.1c.8,0,1.1-.4,1.1-1A1,1,0,0,0,385.2,174.1Z" transform="translate(0 -0.5)"/><path class="cls-8" d="M233.8,159.9V152h1.6v7.9Z" transform="translate(0 -0.5)"/><path class="cls-8" d="M244.2,159.9v-3.2c0-1.1-.3-1.4-1-1.4s-1,.3-1,1.4V160h-1.6v-3.2c0-1.1-.3-1.4-1-1.4s-1,.3-1,1.4v3.3H237v-6h1.6v.4a1.73,1.73,0,0,1,1.3-.5,1.88,1.88,0,0,1,1.7.8,2.42,2.42,0,0,1,1.9-.8c1.5,0,2.1,1,2.1,2.7V160h-1.7v-.1Z" transform="translate(0 -0.5)"/><path class="cls-8" d="M250.5,159.9v-.4a1.9,1.9,0,0,1-1.3.5,2.07,2.07,0,0,1-2.2-2.1c0-1.3,1.1-2,2.4-2a2.68,2.68,0,0,1,1.1.2v-.3a.79.79,0,0,0-.8-.8,2.73,2.73,0,0,0-1.6.4l-.6-1.1a4,4,0,0,1,2.2-.6,2.14,2.14,0,0,1,2.4,2.1v4l-1.6.1Zm0-2.5c-.3-.2-.5-.2-1.1-.2s-.9.3-.9.8.2.8.9.8a1.29,1.29,0,0,0,1.1-.5Z" transform="translate(0 -0.5)"/><path class="cls-8" d="M255.8,162.1l-.5-1.2c1.3-.2,1.6-.5,1.6-1.4a2.23,2.23,0,0,1-1.3.5c-1.3,0-2.3-1-2.3-3.2,0-1.8.8-3,2.3-3a1.9,1.9,0,0,1,1.3.5v-.4h1.6v5C258.4,160.9,257.9,161.9,255.8,162.1Zm1-6.3c-.2-.4-.6-.5-1.1-.5s-1,.5-1,1.5c0,1.3.4,1.7,1,1.7a1.23,1.23,0,0,0,1-.5l.1-2.2Z" transform="translate(0 -0.5)"/><path class="cls-8" d="M264.7,157.4h-3.6a1.21,1.21,0,0,0,1.3,1.1,1.53,1.53,0,0,0,1-.4l1.1,1a2.81,2.81,0,0,1-2.1,1c-1.7,0-2.8-1.2-2.8-3.1s1.1-3.1,2.6-3.1,2.5,1.4,2.5,3.1C264.8,157.2,264.8,157.3,264.7,157.4Zm-2.5-2.2c-.5,0-.9.5-1,1.1h2A1,1,0,0,0,262.2,155.2Z" transform="translate(0 -0.5)"/><path class="cls-8" d="M231.7,173.6a3,3,0,0,1-3-2.3l1.6-.4c.3.8.7,1.2,1.5,1.2,1,0,1.4-.6,1.4-1.8v-4.7h1.6v4.7C234.7,172.2,233.8,173.6,231.7,173.6Z" transform="translate(0 -0.5)"/><path class="cls-8" d="M238.8,173.6a3.13,3.13,0,1,1,2.7-3.1C241.5,172.4,240.4,173.6,238.8,173.6Zm0-4.7c-.8,0-1.1.7-1.1,1.6s.4,1.6,1.1,1.6,1.1-.8,1.1-1.6S239.6,168.9,238.8,168.9Z" transform="translate(0 -0.5)"/><path class="cls-8" d="M246.3,173.5v-.4a2,2,0,0,1-1.4.5c-1.5,0-2.2-1-2.2-2.7v-3.3h1.6v3.2c0,1.1.4,1.4,1,1.4s1-.3,1-1.4v-3.3h1.6v6Z" transform="translate(0 -0.5)"/><path class="cls-8" d="M252.9,169.4a1.27,1.27,0,0,0-.9-.4c-.6,0-1,.2-1,1.3v3.2h-1.6v-6H251v.4a1.73,1.73,0,0,1,1.3-.5,1.6,1.6,0,0,1,1.1.4Z" transform="translate(0 -0.5)"/><path class="cls-8" d="M257.8,173.5v-3.2c0-1.1-.4-1.4-1-1.4s-1,.3-1,1.4v3.3h-1.6v-6h1.6v.4a2,2,0,0,1,1.4-.5c1.5,0,2.2,1,2.2,2.7v3.3Z" transform="translate(0 -0.5)"/><path class="cls-8" d="M264.1,173.5v-.4a1.9,1.9,0,0,1-1.3.5,2.07,2.07,0,0,1-2.2-2.1c0-1.3,1.1-2,2.4-2a2.68,2.68,0,0,1,1.1.2v-.3a.79.79,0,0,0-.8-.8,2.73,2.73,0,0,0-1.6.4l-.6-1.1a4,4,0,0,1,2.2-.6,2.14,2.14,0,0,1,2.4,2.1v4l-1.6.1Zm0-2.5c-.3-.2-.5-.2-1.1-.2s-.9.3-.9.8.2.8.9.8a1.29,1.29,0,0,0,1.1-.5Z" transform="translate(0 -0.5)"/><path class="cls-8" d="M267.2,173.5V166l1.6-.8v8.2h-1.6Z" transform="translate(0 -0.5)"/><path class="cls-8" d="M517.2,163.3a1.27,1.27,0,0,0-.9-.4c-.6,0-1,.2-1,1.3v3.2h-1.6v-6h1.6v.4a1.73,1.73,0,0,1,1.3-.5,1.6,1.6,0,0,1,1.1.4Z" transform="translate(0 -0.5)"/><path class="cls-8" d="M521.3,167.5a1.9,1.9,0,0,1-1.3-.5v.4h-1.6V160l1.6-.8v2.7a2.23,2.23,0,0,1,1.3-.5c1.3,0,2.3,1,2.3,3.2C523.7,166.3,522.8,167.5,521.3,167.5Zm-.2-4.7a1.23,1.23,0,0,0-1,.5v2.3c.2.4.6.5,1.1.5s1-.5,1-1.5C522.1,163.3,521.7,162.8,521.1,162.8Z" transform="translate(0 -0.5)"/><path class="cls-8" d="M528.2,167.4V167a2.23,2.23,0,0,1-1.3.5c-1.3,0-2.3-1-2.3-3.2,0-1.8.8-3,2.3-3a1.9,1.9,0,0,1,1.3.5V160l1.6-.8v8.2Zm0-4.1c-.2-.4-.6-.5-1.1-.5s-1,.5-1,1.5c0,1.3.4,1.7,1,1.7a1.23,1.23,0,0,0,1-.5l.1-2.2Z" transform="translate(0 -0.5)"/><path class="cls-8" d="M531.2,164.1v-1.6h3.3v1.6Z" transform="translate(0 -0.5)"/><path class="cls-8" d="M542.9,167.4v-3.2c0-1.1-.3-1.4-1-1.4s-1,.3-1,1.4v3.3h-1.6v-3.2c0-1.1-.3-1.4-1-1.4s-1,.3-1,1.4v3.3H536v-6h1.6v.4a1.73,1.73,0,0,1,1.3-.5,1.88,1.88,0,0,1,1.7.8,2.42,2.42,0,0,1,1.9-.8c1.5,0,2.1,1,2.1,2.7v3.3h-1.7v-.1Z" transform="translate(0 -0.5)"/><path class="cls-8" d="M546.7,161a.9.9,0,1,1,.9-.9A.9.9,0,0,1,546.7,161Zm-.8,6.4v-6h1.6v6Z" transform="translate(0 -0.5)"/><path class="cls-8" d="M552.5,163.3a1.27,1.27,0,0,0-.9-.4c-.6,0-1,.2-1,1.3v3.2H549v-6h1.6v.4a1.73,1.73,0,0,1,1.3-.5,1.6,1.6,0,0,1,1.1.4Z" transform="translate(0 -0.5)"/><path class="cls-8" d="M557.4,163.3a1.27,1.27,0,0,0-.9-.4c-.6,0-1,.2-1,1.3v3.2H554v-6h1.6v.4a1.73,1.73,0,0,1,1.3-.5,1.6,1.6,0,0,1,1.1.4Z" transform="translate(0 -0.5)"/><path class="cls-8" d="M561,167.5a3.13,3.13,0,1,1,2.7-3.1A2.8,2.8,0,0,1,561,167.5Zm0-4.7c-.8,0-1.1.7-1.1,1.6s.4,1.6,1.1,1.6,1.1-.8,1.1-1.6S561.7,162.8,561,162.8Z" transform="translate(0 -0.5)"/><path class="cls-8" d="M568.4,163.3a1.27,1.27,0,0,0-.9-.4c-.6,0-1,.2-1,1.3v3.2h-1.6v-6h1.6v.4a1.73,1.73,0,0,1,1.3-.5,1.6,1.6,0,0,1,1.1.4Z" transform="translate(0 -0.5)"/><circle class="cls-2" cx="170.8" cy="435.8" r="35.1"/><circle class="cls-9" cx="92.6" cy="326.4" r="35.1"/><circle class="cls-4" cx="249" cy="326.4" r="35.1"/><circle class="cls-9" cx="384.5" cy="326.4" r="35.1"/><circle class="cls-5" cx="538.31" cy="326.9" r="35.1" transform="translate(57.95 733.71) rotate(-71.56)"/><polyline class="cls-6" points="170.8 400.6 170.8 381 92.6 381 92.6 365.8"/><polygon class="cls-7" points="95.6 366.7 92.6 361.6 89.7 366.7 95.6 366.7"/><polyline class="cls-6" points="170.8 400.6 170.8 381 249 381 249 365.8"/><polygon class="cls-7" points="251.9 366.7 249 361.6 246 366.7 251.9 366.7"/><line class="cls-6" x1="503.2" y1="326.4" x2="423.9" y2="326.4"/><polygon class="cls-7" points="424.8 323.4 419.6 326.4 424.8 329.4 424.8 323.4"/><path class="cls-8" d="M156.4,440.4v-7.5l1.6-.8v8.2l-1.6.1Z" transform="translate(0 -0.5)"/><path class="cls-8" d="M160.4,433.9a.9.9,0,1,1,.9-.9A.84.84,0,0,1,160.4,433.9Zm-.8,6.5v-6h1.6v6Z" transform="translate(0 -0.5)"/><path class="cls-8" d="M165.6,440.5a1.9,1.9,0,0,1-1.3-.5v.4h-1.6v-7.5l1.6-.8v2.7a2.23,2.23,0,0,1,1.3-.5c1.3,0,2.3,1,2.3,3.2C167.9,439.3,167.1,440.5,165.6,440.5Zm-.3-4.7a1.23,1.23,0,0,0-1,.5v2.3c.2.4.6.5,1.1.5s1-.5,1-1.5C166.3,436.3,165.9,435.8,165.3,435.8Z" transform="translate(0 -0.5)"/><path class="cls-8" d="M172.6,436.3a1.27,1.27,0,0,0-.9-.4c-.6,0-1,.2-1,1.3v3.2h-1.6v-6h1.6v.4a1.73,1.73,0,0,1,1.3-.5,1.6,1.6,0,0,1,1.1.4Z" transform="translate(0 -0.5)"/><path class="cls-8" d="M176.8,440.5a1.9,1.9,0,0,1-1.3-.5v.4H174v-7.5l1.6-.8v2.7a2.23,2.23,0,0,1,1.3-.5c1.3,0,2.3,1,2.3,3.2C179.1,439.3,178.3,440.5,176.8,440.5Zm-.3-4.7a1.23,1.23,0,0,0-1,.5v2.3c.2.4.6.5,1.1.5s1-.5,1-1.5C177.5,436.3,177.1,435.8,176.5,435.8Z" transform="translate(0 -0.5)"/><path class="cls-8" d="M183.6,440.4V440a2.23,2.23,0,0,1-1.3.5c-1.3,0-2.3-1-2.3-3.2,0-1.8.8-3,2.3-3a1.9,1.9,0,0,1,1.3.5V433l1.6-.8v8.2Zm0-4.1c-.2-.4-.6-.5-1.1-.5s-1,.5-1,1.5c0,1.3.4,1.7,1,1.7a1.23,1.23,0,0,0,1-.5l.1-2.2Z" transform="translate(0 -0.5)"/><path class="cls-8" d="M75.1,324.9H73.4v2.8H71.8v-7.9h3.5a2.42,2.42,0,0,1,2.7,2.5C78,324.1,76.8,324.9,75.1,324.9Zm.1-3.6H73.4v2h1.8a1,1,0,0,0,1.1-1C76.4,321.6,75.9,321.3,75.2,321.3Z" transform="translate(0 -0.5)"/><path class="cls-8" d="M82.7,323.6a1.27,1.27,0,0,0-.9-.4c-.6,0-1,.2-1,1.3v3.2H79.2v-6h1.6v.4a1.73,1.73,0,0,1,1.3-.5,1.6,1.6,0,0,1,1.1.4Z" transform="translate(0 -0.5)"/><path class="cls-8" d="M84.9,321.3a.9.9,0,1,1,.9-.9A1,1,0,0,1,84.9,321.3Zm-.7,6.4v-6h1.6v6Z" transform="translate(0 -0.5)"/><path class="cls-8" d="M94.2,327.7v-3.2c0-1.1-.3-1.4-1-1.4s-1,.3-1,1.4v3.3H90.6v-3.2c0-1.1-.3-1.4-1-1.4s-1,.3-1,1.4v3.3H87v-6h1.6v.4a1.73,1.73,0,0,1,1.3-.5,1.88,1.88,0,0,1,1.7.8,2.42,2.42,0,0,1,1.9-.8c1.5,0,2.1,1,2.1,2.7v3.3H93.9v-.1Z" transform="translate(0 -0.5)"/><path class="cls-8" d="M100.6,327.7v-.4a1.9,1.9,0,0,1-1.3.5,2.07,2.07,0,0,1-2.2-2.1c0-1.3,1.1-2,2.4-2a2.68,2.68,0,0,1,1.1.2v-.3a.79.79,0,0,0-.8-.8,2.73,2.73,0,0,0-1.6.4l-.6-1.1a4,4,0,0,1,2.2-.6,2.14,2.14,0,0,1,2.4,2.1v4l-1.6.1Zm0-2.5c-.3-.2-.5-.2-1.1-.2s-.9.3-.9.8.2.8.9.8a1.29,1.29,0,0,0,1.1-.5Z" transform="translate(0 -0.5)"/><path class="cls-8" d="M107.1,323.6a1.27,1.27,0,0,0-.9-.4c-.6,0-1,.2-1,1.3v3.2h-1.6v-6h1.6v.4a1.73,1.73,0,0,1,1.3-.5,1.6,1.6,0,0,1,1.1.4Z" transform="translate(0 -0.5)"/><path class="cls-8" d="M111.1,329.8h-1.6l.8-2.1-2.3-6h1.7l1,2.9c.2.5.3,1,.4,1.3.1-.3.2-.8.4-1.3l1-2.9h1.7Z" transform="translate(0 -0.5)"/><path class="cls-8" d="M93.2,341.3H89.6v-7.9h3.6c1.6,0,2.5.7,2.5,2.1a1.82,1.82,0,0,1-.8,1.6,1.66,1.66,0,0,1,1.1,1.7C96,340.4,94.9,341.3,93.2,341.3Zm0-6.4h-2v1.5h2.1c.7,0,.9-.3.9-.8S93.9,334.9,93.2,334.9Zm.1,2.8H91.2v2h2.1c.8,0,1.1-.4,1.1-1S94.1,337.7,93.3,337.7Z" transform="translate(0 -0.5)"/><path class="cls-8" d="M359.9,327.8a3.68,3.68,0,0,1-3.1-1.4l1.1-1a2.36,2.36,0,0,0,2,.9c1,0,1.4-.2,1.4-.8s-.3-.7-1.8-1.1-2.5-.8-2.5-2.4a2.53,2.53,0,0,1,2.8-2.3,3.77,3.77,0,0,1,2.9,1.3l-1.1,1.1a2.5,2.5,0,0,0-1.8-.8c-.8,0-1.1.4-1.1.7,0,.5.4.7,1.6,1s2.6.7,2.6,2.4C363,326.8,362,327.8,359.9,327.8Z" transform="translate(0 -0.5)"/><path class="cls-8" d="M369.1,325.3h-3.6a1.21,1.21,0,0,0,1.3,1.1,1.53,1.53,0,0,0,1-.4l1.1,1a2.81,2.81,0,0,1-2.1,1c-1.7,0-2.8-1.2-2.8-3.1s1.1-3.1,2.6-3.1,2.5,1.4,2.5,3.1Zm-2.6-2.3c-.5,0-.9.5-1,1.1h2C367.6,323.5,367.3,323,366.5,323Z" transform="translate(0 -0.5)"/><path class="cls-8" d="M372.9,327.8a3.11,3.11,0,0,1,.1-6.2,2.81,2.81,0,0,1,2.4,1.3l-1,1a1.6,1.6,0,0,0-1.4-.8c-.8,0-1.3.6-1.3,1.6s.5,1.6,1.3,1.6a1.72,1.72,0,0,0,1.4-.8l1,1A3,3,0,0,1,372.9,327.8Z" transform="translate(0 -0.5)"/><path class="cls-8" d="M378.7,327.8a3.13,3.13,0,1,1,2.7-3.1C381.4,326.6,380.3,327.8,378.7,327.8Zm0-4.7c-.8,0-1.1.7-1.1,1.6s.4,1.6,1.1,1.6,1.1-.8,1.1-1.6S379.4,323.1,378.7,323.1Z" transform="translate(0 -0.5)"/><path class="cls-8" d="M386.2,327.7v-3.2c0-1.1-.4-1.4-1-1.4s-1,.3-1,1.4v3.3h-1.6v-6h1.6v.4a2,2,0,0,1,1.4-.5c1.5,0,2.2,1,2.2,2.7v3.3Z" transform="translate(0 -0.5)"/><path class="cls-8" d="M392.5,327.7v-.4a2.23,2.23,0,0,1-1.3.5c-1.3,0-2.3-1-2.3-3.2,0-1.8.8-3,2.3-3a1.9,1.9,0,0,1,1.3.5v-1.8l1.6-.8v8.2Zm0-4.1c-.2-.4-.6-.5-1.1-.5s-1,.5-1,1.5c0,1.3.4,1.7,1,1.7a1.23,1.23,0,0,0,1-.5l.1-2.2Z" transform="translate(0 -0.5)"/><path class="cls-8" d="M398.9,327.7v-.4a1.9,1.9,0,0,1-1.3.5,2.07,2.07,0,0,1-2.2-2.1c0-1.3,1.1-2,2.4-2a2.68,2.68,0,0,1,1.1.2v-.3a.79.79,0,0,0-.8-.8,2.73,2.73,0,0,0-1.6.4l-.6-1.1a4,4,0,0,1,2.2-.6,2.14,2.14,0,0,1,2.4,2.1v4l-1.6.1Zm0-2.5c-.3-.2-.5-.2-1.1-.2s-.9.3-.9.8.2.8.9.8a1.29,1.29,0,0,0,1.1-.5Z" transform="translate(0 -0.5)"/><path class="cls-8" d="M405.4,323.6a1.27,1.27,0,0,0-.9-.4c-.6,0-1,.2-1,1.3v3.2h-1.6v-6h1.6v.4a1.73,1.73,0,0,1,1.3-.5,1.6,1.6,0,0,1,1.1.4Z" transform="translate(0 -0.5)"/><path class="cls-8" d="M409.4,329.8h-1.6l.8-2.1-2.3-6H408l1,2.9c.2.5.3,1,.4,1.3.1-.3.2-.8.4-1.3l1-2.9h1.7Z" transform="translate(0 -0.5)"/><path class="cls-8" d="M386.5,341.3l-.6-1.8H383l-.6,1.8h-1.7l3-7.9h1.6l3,7.9Zm-1.6-4.7c-.2-.5-.3-1-.4-1.3-.1.3-.2.8-.4,1.3l-.5,1.4h1.8Z" transform="translate(0 -0.5)"/><path class="cls-8" d="M233.8,323.5v-7.9h1.6v7.9Z" transform="translate(0 -0.5)"/><path class="cls-8" d="M244.2,323.5v-3.2c0-1.1-.3-1.4-1-1.4s-1,.3-1,1.4v3.3h-1.6v-3.2c0-1.1-.3-1.4-1-1.4s-1,.3-1,1.4v3.3H237v-6h1.6v.4a1.73,1.73,0,0,1,1.3-.5,1.88,1.88,0,0,1,1.7.8,2.42,2.42,0,0,1,1.9-.8c1.5,0,2.1,1,2.1,2.7v3.3h-1.7v-.1Z" transform="translate(0 -0.5)"/><path class="cls-8" d="M250.5,323.5v-.4a1.9,1.9,0,0,1-1.3.5,2.07,2.07,0,0,1-2.2-2.1c0-1.3,1.1-2,2.4-2a2.68,2.68,0,0,1,1.1.2v-.3a.79.79,0,0,0-.8-.8,2.73,2.73,0,0,0-1.6.4l-.6-1.1a4,4,0,0,1,2.2-.6,2.14,2.14,0,0,1,2.4,2.1v4l-1.6.1Zm0-2.5c-.3-.2-.5-.2-1.1-.2s-.9.3-.9.8.2.8.9.8a1.29,1.29,0,0,0,1.1-.5Z" transform="translate(0 -0.5)"/><path class="cls-8" d="M255.8,325.7l-.5-1.2c1.3-.2,1.6-.5,1.6-1.4a2.23,2.23,0,0,1-1.3.5c-1.3,0-2.3-1-2.3-3.2,0-1.8.8-3,2.3-3a1.9,1.9,0,0,1,1.3.5v-.4h1.6v5C258.4,324.5,257.9,325.5,255.8,325.7Zm1-6.3c-.2-.4-.6-.5-1.1-.5s-1,.5-1,1.5c0,1.3.4,1.7,1,1.7a1.23,1.23,0,0,0,1-.5l.1-2.2Z" transform="translate(0 -0.5)"/><path class="cls-8" d="M264.7,321.1h-3.6a1.21,1.21,0,0,0,1.3,1.1,1.53,1.53,0,0,0,1-.4l1.1,1a2.81,2.81,0,0,1-2.1,1c-1.7,0-2.8-1.2-2.8-3.1s1.1-3.1,2.6-3.1,2.5,1.4,2.5,3.1A.3.3,0,0,1,264.7,321.1Zm-2.5-2.3c-.5,0-.9.5-1,1.1h2A1,1,0,0,0,262.2,318.8Z" transform="translate(0 -0.5)"/><path class="cls-8" d="M231.7,337.2a3,3,0,0,1-3-2.3l1.6-.4c.3.8.7,1.2,1.5,1.2,1,0,1.4-.6,1.4-1.8v-4.7h1.6v4.7C234.7,335.9,233.8,337.2,231.7,337.2Z" transform="translate(0 -0.5)"/><path class="cls-8" d="M238.8,337.2a3.13,3.13,0,1,1,2.7-3.1A2.8,2.8,0,0,1,238.8,337.2Zm0-4.7c-.8,0-1.1.7-1.1,1.6s.4,1.6,1.1,1.6,1.1-.8,1.1-1.6S239.6,332.5,238.8,332.5Z" transform="translate(0 -0.5)"/><path class="cls-8" d="M246.3,337.1v-.4a2,2,0,0,1-1.4.5c-1.5,0-2.2-1-2.2-2.7v-3.3h1.6v3.2c0,1.1.4,1.4,1,1.4s1-.3,1-1.4v-3.3h1.6v6Z" transform="translate(0 -0.5)"/><path class="cls-8" d="M252.9,333a1.27,1.27,0,0,0-.9-.4c-.6,0-1,.2-1,1.3v3.2h-1.6v-6H251v.4a1.73,1.73,0,0,1,1.3-.5,1.6,1.6,0,0,1,1.1.4Z" transform="translate(0 -0.5)"/><path class="cls-8" d="M257.8,337.1v-3.2c0-1.1-.4-1.4-1-1.4s-1,.3-1,1.4v3.3h-1.6v-6h1.6v.4a2,2,0,0,1,1.4-.5c1.5,0,2.2,1,2.2,2.7v3.3Z" transform="translate(0 -0.5)"/><path class="cls-8" d="M264.1,337.1v-.4a1.9,1.9,0,0,1-1.3.5,2.07,2.07,0,0,1-2.2-2.1c0-1.3,1.1-2,2.4-2a2.68,2.68,0,0,1,1.1.2V333a.79.79,0,0,0-.8-.8,2.73,2.73,0,0,0-1.6.4l-.6-1.1a4,4,0,0,1,2.2-.6,2.14,2.14,0,0,1,2.4,2.1v4l-1.6.1Zm0-2.5c-.3-.2-.5-.2-1.1-.2s-.9.3-.9.8.2.8.9.8a1.29,1.29,0,0,0,1.1-.5Z" transform="translate(0 -0.5)"/><path class="cls-8" d="M267.2,337.1v-7.5l1.6-.8V337l-1.6.1Z" transform="translate(0 -0.5)"/><path class="cls-8" d="M517.2,326.9a1.27,1.27,0,0,0-.9-.4c-.6,0-1,.2-1,1.3V331h-1.6v-6h1.6v.4a1.73,1.73,0,0,1,1.3-.5,1.6,1.6,0,0,1,1.1.4Z" transform="translate(0 -0.5)"/><path class="cls-8" d="M521.3,331.2a1.9,1.9,0,0,1-1.3-.5v.4h-1.6v-7.5l1.6-.8v2.7a2.23,2.23,0,0,1,1.3-.5c1.3,0,2.3,1,2.3,3.2C523.7,329.9,522.8,331.2,521.3,331.2Zm-.2-4.8a1.23,1.23,0,0,0-1,.5v2.3c.2.4.6.5,1.1.5s1-.5,1-1.5C522.1,326.9,521.7,326.4,521.1,326.4Z" transform="translate(0 -0.5)"/><path class="cls-8" d="M528.2,331v-.4a2.23,2.23,0,0,1-1.3.5c-1.3,0-2.3-1-2.3-3.2,0-1.8.8-3,2.3-3a1.9,1.9,0,0,1,1.3.5v-1.8l1.6-.8V331Zm0-4.1c-.2-.4-.6-.5-1.1-.5s-1,.5-1,1.5c0,1.3.4,1.7,1,1.7a1.23,1.23,0,0,0,1-.5l.1-2.2Z" transform="translate(0 -0.5)"/><path class="cls-8" d="M531.2,327.7v-1.6h3.3v1.6Z" transform="translate(0 -0.5)"/><path class="cls-8" d="M542.9,331v-3.2c0-1.1-.3-1.4-1-1.4s-1,.3-1,1.4v3.3h-1.6v-3.2c0-1.1-.3-1.4-1-1.4s-1,.3-1,1.4v3.3H536v-6h1.6v.4a1.73,1.73,0,0,1,1.3-.5,1.88,1.88,0,0,1,1.7.8,2.42,2.42,0,0,1,1.9-.8c1.5,0,2.1,1,2.1,2.7v3.3l-1.7-.1Z" transform="translate(0 -0.5)"/><path class="cls-8" d="M546.7,324.6a.9.9,0,1,1,.9-.9A.9.9,0,0,1,546.7,324.6Zm-.8,6.4v-6h1.6v6Z" transform="translate(0 -0.5)"/><path class="cls-8" d="M552.5,326.9a1.27,1.27,0,0,0-.9-.4c-.6,0-1,.2-1,1.3V331H549v-6h1.6v.4a1.73,1.73,0,0,1,1.3-.5,1.6,1.6,0,0,1,1.1.4Z" transform="translate(0 -0.5)"/><path class="cls-8" d="M557.4,326.9a1.27,1.27,0,0,0-.9-.4c-.6,0-1,.2-1,1.3V331H554v-6h1.6v.4a1.73,1.73,0,0,1,1.3-.5,1.6,1.6,0,0,1,1.1.4Z" transform="translate(0 -0.5)"/><path class="cls-8" d="M561,331.2a3.13,3.13,0,1,1,2.7-3.1A2.8,2.8,0,0,1,561,331.2Zm0-4.8c-.8,0-1.1.7-1.1,1.6s.4,1.6,1.1,1.6,1.1-.8,1.1-1.6S561.7,326.4,561,326.4Z" transform="translate(0 -0.5)"/><path class="cls-8" d="M568.4,326.9a1.27,1.27,0,0,0-.9-.4c-.6,0-1,.2-1,1.3V331h-1.6v-6h1.6v.4a1.73,1.73,0,0,1,1.3-.5,1.6,1.6,0,0,1,1.1.4Z" transform="translate(0 -0.5)"/><line class="cls-6" x1="272.1" y1="299.9" x2="510.1" y2="189.9"/><polygon class="cls-7" points="510.5 193 514 188.1 508.1 187.6 510.5 193"/><line class="cls-6" x1="511.4" y1="298.1" x2="274.6" y2="186.8"/><polygon class="cls-7" points="511.9 295 515.3 299.9 509.3 300.5 511.9 295"/><polygon class="cls-10" points="97.6 53.8 77.3 33.2 77.1 42.8 14.9 42.8 14.9 64.1 76.7 64.1 76.5 73.6 97.6 53.8"/><path class="cls-8" d="M32.2,58.1H30.8l-.9-3.8a6.88,6.88,0,0,1-.2-1.3c-.1.3-.1.8-.2,1.3l-.9,3.8H27.2l-1.5-7.3h1.5l.7,3.5c.1.4.1.9.2,1.2a4.3,4.3,0,0,0,.2-1.2l.8-3.5h1.3l.8,3.5a6,6,0,0,1,.2,1.2c.1-.3.1-.8.2-1.2l.7-3.5h1.5Z" transform="translate(0 -0.5)"/><path class="cls-8" d="M37.8,54.3a1.23,1.23,0,0,0-.8-.4c-.5,0-1,.2-1,1.2V58H34.6V52.6H36V53a1.63,1.63,0,0,1,1.1-.5,1.33,1.33,0,0,1,1,.4Z" transform="translate(0 -0.5)"/><path class="cls-8" d="M39.8,52.2a.8.8,0,1,1,.8-.8A.79.79,0,0,1,39.8,52.2Zm-.7,5.9V52.7h1.4v5.4Z" transform="translate(0 -0.5)"/><path class="cls-8" d="M45,57.9a1.82,1.82,0,0,1-1.1.4c-.9,0-1.4-.7-1.4-1.7V54h-.9V52.6h.9V51.2l1.4-.7v2.1h1.3V54H43.9v2.2c0,.5.2.7.5.7a1.2,1.2,0,0,0,.8-.4Z" transform="translate(0 -0.5)"/><path class="cls-8" d="M50.8,55.8H47.5a1,1,0,0,0,1.1,1,1.28,1.28,0,0,0,1-.4l1,.8a2.88,2.88,0,0,1-2,.9C47,58.1,46,57,46,55.2a2.64,2.64,0,0,1,2.4-2.9c1.4,0,2.3,1.3,2.3,2.9A2.8,2.8,0,0,1,50.8,55.8Zm-2.4-2c-.5,0-.8.4-.9,1h1.8C49.3,54.3,49.1,53.8,48.4,53.8Z" transform="translate(0 -0.5)"/><path class="cls-8" d="M55.3,58.1V50.8h1.4v7.3Z" transform="translate(0 -0.5)"/><path class="cls-8" d="M59.2,59H57.8l3.4-9.1h1.4Z" transform="translate(0 -0.5)"/><path class="cls-8" d="M65.9,58.2c-2,0-3.2-1.6-3.2-3.8s1.2-3.8,3.2-3.8,3.2,1.6,3.2,3.8S67.8,58.2,65.9,58.2Zm0-6c-1.2,0-1.7,1-1.7,2.3s.5,2.3,1.7,2.3,1.7-1,1.7-2.3S67,52.2,65.9,52.2Z" transform="translate(0 -0.5)"/><polygon class="cls-10" points="97.6 440.3 77.3 419.7 77.1 429.3 14.9 429.3 14.9 450.6 76.7 450.6 76.5 460.1 97.6 440.3"/><path class="cls-8" d="M32.2,444.6H30.8l-.9-3.8a6.88,6.88,0,0,1-.2-1.3c-.1.3-.1.8-.2,1.3l-.9,3.8H27.2l-1.5-7.3h1.5l.7,3.5c.1.4.1.9.2,1.2a4.3,4.3,0,0,0,.2-1.2l.8-3.5h1.3l.8,3.5a6,6,0,0,1,.2,1.2c.1-.3.1-.8.2-1.2l.7-3.5h1.5Z" transform="translate(0 -0.5)"/><path class="cls-8" d="M37.8,440.8a1.23,1.23,0,0,0-.8-.4c-.5,0-1,.2-1,1.2v2.9H34.6v-5.4H36v.4a1.63,1.63,0,0,1,1.1-.5,1.33,1.33,0,0,1,1,.4Z" transform="translate(0 -0.5)"/><path class="cls-8" d="M39.8,438.6a.8.8,0,1,1,.8-.8A.79.79,0,0,1,39.8,438.6Zm-.7,6v-5.4h1.4v5.4Z" transform="translate(0 -0.5)"/><path class="cls-8" d="M45,444.4a1.82,1.82,0,0,1-1.1.4c-.9,0-1.4-.7-1.4-1.7v-2.6h-.9v-1.4h.9v-1.4l1.4-.7v2.1h1.3v1.4H43.9v2.2c0,.5.2.7.5.7a1.2,1.2,0,0,0,.8-.4Z" transform="translate(0 -0.5)"/><path class="cls-8" d="M50.8,442.3H47.5a1,1,0,0,0,1.1,1,1.28,1.28,0,0,0,1-.4l1,.8a2.88,2.88,0,0,1-2,.9c-1.6,0-2.6-1.1-2.6-2.9a2.64,2.64,0,0,1,2.4-2.9c1.4,0,2.3,1.3,2.3,2.9A1.76,1.76,0,0,1,50.8,442.3Zm-2.4-2c-.5,0-.8.4-.9,1h1.8C49.3,440.7,49.1,440.3,48.4,440.3Z" transform="translate(0 -0.5)"/><path class="cls-8" d="M55.3,444.6v-7.3h1.4v7.3Z" transform="translate(0 -0.5)"/><path class="cls-8" d="M59.2,445.5H57.8l3.4-9.1h1.4Z" transform="translate(0 -0.5)"/><path class="cls-8" d="M65.9,444.7c-2,0-3.2-1.6-3.2-3.8s1.2-3.8,3.2-3.8,3.2,1.6,3.2,3.8S67.8,444.7,65.9,444.7Zm0-6.1c-1.2,0-1.7,1-1.7,2.3s.5,2.3,1.7,2.3,1.7-1,1.7-2.3S67,438.6,65.9,438.6Z" transform="translate(0 -0.5)"/></svg>