<svg id="Layer_1" data-name="Layer 1" xmlns="http://www.w3.org/2000/svg" width="21.52cm" height="8.39cm" viewBox="0 0 610.1 237.9"><defs><style>.cls-1{fill:#f0f0f0;}.cls-2,.cls-7{fill:none;stroke-miterlimit:10;}.cls-2{stroke:#4f4e4f;stroke-width:3px;}.cls-3{fill:#4c4c4d;}.cls-4{fill:#1188c9;}.cls-5{fill:#a4dce8;}.cls-6{fill:#037a87;}.cls-7{stroke:#4c4c4d;}.cls-8{fill:#fff;}.cls-9{fill:#014153;}.cls-10{fill:#ababab;}.cls-11{fill:#03b9e4;}</style></defs><title>RBD Mirroring</title><rect class="cls-1" width="610.1" height="237.9"/><line class="cls-2" x1="392.5" y1="225.6" x2="392.5" y2="15.2"/><path class="cls-3" d="M22.2,13.4a2,2,0,0,0-1.9-1.1c-1.6,0-2.4,1.4-2.4,3.3s.9,3.3,2.5,3.3a2.13,2.13,0,0,0,2-1.3l1.7,1a3.94,3.94,0,0,1-3.9,2.3c-2.7,0-4.5-2.1-4.5-5.4s1.9-5.4,4.6-5.4a3.9,3.9,0,0,1,3.8,2.3Z" transform="translate(0 2)"/><path class="cls-3" d="M26,20.8V11l2-1V20.9A12.75,12.75,0,0,0,26,20.8Z" transform="translate(0 2)"/><path class="cls-3" d="M34.8,20.8v-.5A2.48,2.48,0,0,1,33,21c-2,0-2.9-1.4-2.9-3.6V13h2v4.2c0,1.4.5,1.8,1.3,1.8s1.3-.4,1.3-1.8V13h2v7.8Z" transform="translate(0 2)"/><path class="cls-3" d="M41.8,21a7,7,0,0,1-3.3-.9l.7-1.6a5,5,0,0,0,2.7.7c.8,0,1-.2,1-.6s-.3-.6-1.1-.8c-1.9-.6-3.1-1-3.1-2.7s1.3-2.3,3.1-2.3a6,6,0,0,1,2.9.8L44,15.2a5.25,5.25,0,0,0-2.3-.6c-.8,0-1.1.2-1.1.5s.3.5,1.6.9,2.6,1,2.6,2.6C45.1,20.3,43.6,21,41.8,21Z" transform="translate(0 2)"/><path class="cls-3" d="M51.1,20.5a2.77,2.77,0,0,1-1.6.5,2.1,2.1,0,0,1-2.1-2.3V15H46.1V13h1.3V11l2-1v3.1h1.9V15H49.4v3.2c0,.8.3.9.8.9a1.93,1.93,0,0,0,1.2-.6Z" transform="translate(0 2)"/><path class="cls-3" d="M59.3,17.5H54.6A1.54,1.54,0,0,0,56.2,19a1.49,1.49,0,0,0,1.3-.6L59,19.6a3.57,3.57,0,0,1-2.8,1.3c-2.2,0-3.7-1.6-3.7-4.1S54,12.7,56,12.7s3.3,1.8,3.3,4.1ZM56,14.6c-.8,0-1.2.6-1.3,1.4h2.7A1.43,1.43,0,0,0,56,14.6Z" transform="translate(0 2)"/><path class="cls-3" d="M65.6,15.4a1.66,1.66,0,0,0-1.2-.5c-.8,0-1.3.4-1.3,1.7v4.2h-2V13h2v.5a2.18,2.18,0,0,1,1.6-.7,1.68,1.68,0,0,1,1.4.6Z" transform="translate(0 2)"/><path class="cls-3" d="M67.4,16.4v-2h4.3v2Z" transform="translate(0 2)"/><path class="cls-3" d="M79.7,20.8l-.8-2.3H75.1l-.8,2.3H72l4-10.5h2l4,10.5Zm-2.2-6.2c-.2-.6-.4-1.2-.5-1.6-.1.4-.3,1-.5,1.6l-.7,1.9h2.4Z" transform="translate(0 2)"/><path class="cls-3" d="M421.6,13.4a2,2,0,0,0-1.9-1.1c-1.6,0-2.4,1.4-2.4,3.3s.9,3.3,2.5,3.3a2.13,2.13,0,0,0,2-1.3l1.7,1a3.94,3.94,0,0,1-3.9,2.3c-2.7,0-4.5-2.1-4.5-5.4s1.9-5.4,4.6-5.4a3.9,3.9,0,0,1,3.8,2.3Z" transform="translate(0 2)"/><path class="cls-3" d="M425.3,20.8V11l2-1V20.9A12.75,12.75,0,0,0,425.3,20.8Z" transform="translate(0 2)"/><path class="cls-3" d="M434.1,20.8v-.5a2.48,2.48,0,0,1-1.8.7c-2,0-2.9-1.4-2.9-3.6V13h2v4.2c0,1.4.5,1.8,1.3,1.8s1.3-.4,1.3-1.8V13h2v7.8Z" transform="translate(0 2)"/><path class="cls-3" d="M441.1,21a7,7,0,0,1-3.3-.9l.7-1.6a5,5,0,0,0,2.7.7c.8,0,1-.2,1-.6s-.3-.6-1.1-.8c-1.9-.6-3.1-1-3.1-2.7s1.3-2.3,3.1-2.3a6,6,0,0,1,2.9.8l-.7,1.6a5.25,5.25,0,0,0-2.3-.6c-.8,0-1.1.2-1.1.5s.3.5,1.6.9,2.6,1,2.6,2.6C444.4,20.3,442.9,21,441.1,21Z" transform="translate(0 2)"/><path class="cls-3" d="M450.4,20.5a2.77,2.77,0,0,1-1.6.5,2.1,2.1,0,0,1-2.1-2.3V15h-1.3V13h1.3V11l2-1v3.1h1.9V15h-1.9v3.2c0,.8.3.9.8.9a1.93,1.93,0,0,0,1.2-.6Z" transform="translate(0 2)"/><path class="cls-3" d="M458.6,17.5H454a1.54,1.54,0,0,0,1.6,1.5,1.49,1.49,0,0,0,1.3-.6l1.5,1.2a3.57,3.57,0,0,1-2.8,1.3c-2.2,0-3.7-1.6-3.7-4.1s1.5-4.1,3.5-4.1,3.3,1.8,3.3,4.1A3.55,3.55,0,0,1,458.6,17.5Zm-3.3-2.9c-.8,0-1.2.6-1.3,1.4h2.7A1.43,1.43,0,0,0,455.3,14.6Z" transform="translate(0 2)"/><path class="cls-3" d="M464.9,15.4a1.66,1.66,0,0,0-1.2-.5c-.8,0-1.3.4-1.3,1.7v4.2h-2V13h2v.5a2.18,2.18,0,0,1,1.6-.7,1.68,1.68,0,0,1,1.4.6Z" transform="translate(0 2)"/><path class="cls-3" d="M466.7,16.4v-2H471v2Z" transform="translate(0 2)"/><path class="cls-3" d="M477.9,20.8h-4.7V10.3H478c2,0,3.3,1,3.3,2.8a2.19,2.19,0,0,1-1.1,2,2.47,2.47,0,0,1,1.5,2.3C481.7,19.6,480.2,20.8,477.9,20.8Zm0-8.5h-2.7v2H478c.9,0,1.2-.4,1.2-1S478.8,12.3,477.9,12.3Zm.1,3.8h-2.8v2.7H478a1.34,1.34,0,0,0,1.5-1.4C479.5,16.6,479,16.1,478,16.1Z" transform="translate(0 2)"/><circle class="cls-4" cx="170.8" cy="80.9" r="35.2"/><circle class="cls-5" cx="92.6" cy="178.3" r="35.2"/><circle class="cls-6" cx="248.91" cy="176.3" r="35.2" transform="matrix(0.32, -0.95, 0.95, 0.32, 2.94, 358.68)"/><polyline class="cls-7" points="170.8 116 170.8 129.6 92.6 129.6 92.6 139.5"/><polygon class="cls-3" points="90.1 138.7 92.6 143.1 95.2 138.7 90.1 138.7"/><polyline class="cls-7" points="170.8 116 170.8 129.6 248.9 129.6 248.9 139.5"/><polygon class="cls-3" points="246.4 138.7 248.9 143.1 251.5 138.7 246.4 138.7"/><path class="cls-8" d="M156.4,82.6V75.1l1.6-.8v8.3Z" transform="translate(0 2)"/><path class="cls-8" d="M160.4,76.1a.9.9,0,1,1,.9-.9A.9.9,0,0,1,160.4,76.1Zm-.7,6.5v-6h1.6v6Z" transform="translate(0 2)"/><path class="cls-8" d="M165.6,82.7a1.9,1.9,0,0,1-1.3-.5v.4h-1.5V75.1l1.6-.8V77a1.73,1.73,0,0,1,1.3-.5c1.3,0,2.3,1,2.3,3.2C167.9,81.5,167.1,82.7,165.6,82.7Zm-.3-4.7a1.23,1.23,0,0,0-1,.5v2.2a1.43,1.43,0,0,0,1.1.5q.9,0,.9-1.5C166.3,78.5,165.9,78,165.3,78Z" transform="translate(0 2)"/><path class="cls-8" d="M172.6,78.5a1.8,1.8,0,0,0-.9-.4c-.6,0-1,.3-1,1.3v3.2h-1.6v-6h1.6V77a1.66,1.66,0,0,1,1.2-.5,1.6,1.6,0,0,1,1.1.4Z" transform="translate(0 2)"/><path class="cls-8" d="M176.8,82.7a1.9,1.9,0,0,1-1.3-.5v.4H174V75.1l1.6-.8V77a1.73,1.73,0,0,1,1.3-.5c1.3,0,2.3,1,2.3,3.2C179.1,81.5,178.3,82.7,176.8,82.7Zm-.3-4.7a1.23,1.23,0,0,0-1,.5v2.2a1.43,1.43,0,0,0,1.1.5q.9,0,.9-1.5C177.5,78.5,177.1,78,176.5,78Z" transform="translate(0 2)"/><path class="cls-8" d="M183.6,82.6v-.4a1.73,1.73,0,0,1-1.3.5c-1.3,0-2.3-1-2.3-3.2,0-1.8.8-3,2.3-3a1.9,1.9,0,0,1,1.3.5V75.1l1.6-.8v8.3Zm0-4.1a1.43,1.43,0,0,0-1.1-.5q-.9,0-.9,1.5c0,1.2.4,1.7,1,1.7a1.23,1.23,0,0,0,1-.5Z" transform="translate(0 2)"/><path d="M75.1,177.2H73.4V180H71.8v-8h3.5a2.5,2.5,0,0,1,2.8,2.5A2.65,2.65,0,0,1,75.1,177.2Zm.1-3.6H73.4v2h1.8a1,1,0,1,0,0-2Z" transform="translate(0 2)"/><path d="M82.7,175.9a1.8,1.8,0,0,0-.9-.4c-.6,0-1,.3-1,1.3V180H79.2v-6h1.6v.4a1.66,1.66,0,0,1,1.2-.5,1.6,1.6,0,0,1,1.1.4Z" transform="translate(0 2)"/><path d="M85,173.6a.9.9,0,1,1,.9-.9A1,1,0,0,1,85,173.6Zm-.9,6.4v-6h1.6v6Z" transform="translate(0 2)"/><path d="M94.2,180v-3.2c0-1.1-.3-1.4-1-1.4s-1,.3-1,1.3V180H90.6v-3.2c0-1.1-.3-1.4-1-1.4s-1,.3-1,1.3V180H87v-6h1.6v.4a1.73,1.73,0,0,1,1.3-.5,1.62,1.62,0,0,1,1.6.8,2.42,2.42,0,0,1,1.9-.8c1.5,0,2.1,1,2.1,2.7V180Z" transform="translate(0 2)"/><path d="M100.6,180v-.4a1.9,1.9,0,0,1-1.3.5,2.07,2.07,0,0,1-2.2-2.1c0-1.3,1.1-2,2.4-2a1.44,1.44,0,0,1,1.1.3V176a.82.82,0,0,0-.9-.8,2.73,2.73,0,0,0-1.6.4l-.6-1a4,4,0,0,1,2.2-.6,2.14,2.14,0,0,1,2.4,2.1v4l-1.5-.1Zm0-2.5a1.61,1.61,0,0,0-1.1-.3c-.6,0-.9.3-.9.8a.82.82,0,0,0,.9.8,1.36,1.36,0,0,0,1.1-.6Z" transform="translate(0 2)"/><path d="M107,175.9a1.8,1.8,0,0,0-.9-.4c-.6,0-1,.3-1,1.3V180h-1.5v-6h1.6v.4a1.66,1.66,0,0,1,1.2-.5,1.6,1.6,0,0,1,1.1.4Z" transform="translate(0 2)"/><path d="M111.1,182.1h-1.5l.8-2.1-2.3-6h1.7l1,2.9c.2.5.3,1,.4,1.3.1-.3.2-.8.4-1.3l1-2.9h1.7Z" transform="translate(0 2)"/><path class="cls-8" d="M233.8,172.9v-8h1.6v8Z" transform="translate(0 2)"/><path class="cls-8" d="M244.3,172.9v-3.2c0-1.1-.3-1.4-1-1.4s-1,.3-1,1.3v3.3h-1.6v-3.2c0-1.1-.3-1.4-1-1.4s-1,.3-1,1.3v3.3h-1.5v-6h1.6v.4a1.73,1.73,0,0,1,1.3-.5,1.62,1.62,0,0,1,1.6.8,2.42,2.42,0,0,1,1.9-.8c1.5,0,2.1,1,2.1,2.7v3.4Z" transform="translate(0 2)"/><path class="cls-8" d="M250.5,172.9v-.4a1.9,1.9,0,0,1-1.3.5,2.07,2.07,0,0,1-2.2-2.1c0-1.3,1.1-2,2.4-2a1.44,1.44,0,0,1,1.1.3v-.3a.82.82,0,0,0-.9-.8,2.73,2.73,0,0,0-1.6.4l-.5-1.1a4,4,0,0,1,2.2-.6,2.14,2.14,0,0,1,2.4,2.1v4Zm0-2.5a1.61,1.61,0,0,0-1.1-.3c-.6,0-.9.3-.9.8a.82.82,0,0,0,.9.8,1.36,1.36,0,0,0,1.1-.6Z" transform="translate(0 2)"/><path class="cls-8" d="M255.8,175.1l-.6-1.2c1.2-.2,1.5-.5,1.5-1.4a1.73,1.73,0,0,1-1.3.5c-1.3,0-2.3-1-2.3-3.2,0-1.8.8-3,2.3-3a1.9,1.9,0,0,1,1.3.5v-.4h1.6v4.9C258.4,173.8,257.9,174.9,255.8,175.1Zm1-6.3a1.43,1.43,0,0,0-1.1-.5q-.9,0-.9,1.5c0,1.2.4,1.7,1,1.7a1.23,1.23,0,0,0,1-.5Z" transform="translate(0 2)"/><path class="cls-8" d="M264.8,170.4h-3.6a1.18,1.18,0,0,0,1.2,1.1,1.53,1.53,0,0,0,1-.4l1.1.9a2.81,2.81,0,0,1-2.1,1c-1.7,0-2.8-1.2-2.8-3.1a2.8,2.8,0,0,1,2.7-3.1c1.6,0,2.5,1.4,2.5,3.1Zm-2.6-2.2c-.6,0-.9.5-1,1.1h2A1,1,0,0,0,262.2,168.2Z" transform="translate(0 2)"/><path class="cls-8" d="M231.8,186.6a3.15,3.15,0,0,1-3.1-2.3l1.5-.4c.3.8.7,1.2,1.5,1.2,1,0,1.4-.6,1.4-1.8v-4.7h1.6v4.6C234.8,185.3,233.8,186.6,231.8,186.6Z" transform="translate(0 2)"/><path class="cls-8" d="M238.8,186.6a2.86,2.86,0,0,1-2.7-3.1,2.8,2.8,0,0,1,2.7-3.1,2.86,2.86,0,0,1,2.7,3.1A2.8,2.8,0,0,1,238.8,186.6Zm0-4.7c-.8,0-1.1.7-1.1,1.6s.4,1.6,1.1,1.6,1.1-.8,1.1-1.6S239.6,181.9,238.8,181.9Z" transform="translate(0 2)"/><path class="cls-8" d="M246.3,186.5v-.4a2,2,0,0,1-1.4.5c-1.5,0-2.2-1-2.2-2.7v-3.4h1.6v3.2c0,1.1.4,1.4,1,1.4s1-.3,1-1.3v-3.3h1.6v6Z" transform="translate(0 2)"/><path class="cls-8" d="M252.9,182.4a1.8,1.8,0,0,0-.9-.4c-.6,0-1,.3-1,1.3v3.2h-1.6v-6H251v.4a1.66,1.66,0,0,1,1.2-.5,1.6,1.6,0,0,1,1.1.4Z" transform="translate(0 2)"/><path class="cls-8" d="M257.8,186.5v-3.2c0-1.1-.4-1.4-1-1.4s-1,.3-1,1.3v3.3h-1.6v-6h1.6v.4a2,2,0,0,1,1.4-.5c1.5,0,2.2,1,2.2,2.7v3.4Z" transform="translate(0 2)"/><path class="cls-8" d="M264.1,186.5v-.4a1.9,1.9,0,0,1-1.3.5,2.07,2.07,0,0,1-2.2-2.1c0-1.3,1.1-2,2.4-2a1.44,1.44,0,0,1,1.1.3v-.3a.82.82,0,0,0-.9-.8,2.73,2.73,0,0,0-1.6.4L261,181a4,4,0,0,1,2.2-.6,2.14,2.14,0,0,1,2.4,2.1v4Zm0-2.5a1.61,1.61,0,0,0-1.1-.3c-.6,0-.9.3-.9.8a.82.82,0,0,0,.9.8,1.36,1.36,0,0,0,1.1-.6Z" transform="translate(0 2)"/><path class="cls-8" d="M267.2,186.5V179l1.6-.8v8.3Z" transform="translate(0 2)"/><polygon class="cls-9" points="97.6 75.3 77.3 54.7 77.1 64.2 15 64.2 15 85.5 76.7 85.5 76.5 95.1 97.6 75.3"/><path class="cls-8" d="M32.2,77H30.8l-.9-3.7a6.81,6.81,0,0,0-.3-1.2c-.1.3-.2.8-.3,1.2L28.4,77H27l-1.5-7.3H27l.6,3.5a6,6,0,0,1,.2,1.2c.1-.3.2-.9.3-1.2l.9-3.5h1.3l.9,3.5c.1.4.2.9.3,1.2.1-.3.1-.9.2-1.2l.6-3.5h1.6Z" transform="translate(0 2)"/><path class="cls-8" d="M37.8,73.3a1.23,1.23,0,0,0-.8-.4c-.6,0-.9.3-.9,1.2v3H34.7V71.6H36V72a1.43,1.43,0,0,1,1.1-.5,1.33,1.33,0,0,1,1,.4Z" transform="translate(0 2)"/><path class="cls-8" d="M39.8,71.2a.79.79,0,0,1-.8-.8.8.8,0,0,1,1.6,0A.79.79,0,0,1,39.8,71.2ZM39.1,77V71.5h1.4V77Z" transform="translate(0 2)"/><path class="cls-8" d="M45,76.8a2.1,2.1,0,0,1-1.1.4,1.5,1.5,0,0,1-1.5-1.6V73h-.9V71.7h.9V70.3l1.4-.7v2.1h1.3V73H43.8v2.2c0,.5.2.7.5.7a1,1,0,0,0,.8-.4Z" transform="translate(0 2)"/><path class="cls-8" d="M50.8,74.8H47.5a1,1,0,0,0,1.1,1,1.27,1.27,0,0,0,.9-.4l1,.9a2.46,2.46,0,0,1-1.9.9c-1.6,0-2.6-1.1-2.6-2.9a2.64,2.64,0,0,1,2.4-2.9c1.5,0,2.3,1.3,2.3,2.9A1.09,1.09,0,0,1,50.8,74.8Zm-2.4-2c-.5,0-.8.4-.9,1h1.9C49.3,73.2,49.1,72.8,48.4,72.8Z" transform="translate(0 2)"/><path class="cls-8" d="M55.3,77V69.7h1.5V77Z" transform="translate(0 2)"/><path class="cls-8" d="M59.2,78H57.8l3.4-9.1h1.4Z" transform="translate(0 2)"/><path class="cls-8" d="M65.8,77.2c-2,0-3.2-1.5-3.2-3.8s1.2-3.8,3.2-3.8S69,71.1,69,73.4,67.8,77.2,65.8,77.2Zm0-6.1c-1.2,0-1.7,1-1.7,2.3s.5,2.3,1.7,2.3,1.7-1,1.7-2.3S67,71.1,65.8,71.1Z" transform="translate(0 2)"/><circle class="cls-10" cx="538.31" cy="176.31" r="35.2" transform="translate(-26.49 221.43) rotate(-22.5)"/><path class="cls-8" d="M514.3,175.9a1.8,1.8,0,0,0-.9-.4c-.6,0-1,.3-1,1.3V180h-1.6v-6h1.6v.4a1.66,1.66,0,0,1,1.2-.5,1.6,1.6,0,0,1,1.1.4Z" transform="translate(0 2)"/><path class="cls-8" d="M518.5,180.2a1.9,1.9,0,0,1-1.3-.5v.4h-1.6v-7.5l1.6-.8v2.7a1.73,1.73,0,0,1,1.3-.5c1.3,0,2.3,1,2.3,3.2C520.8,178.9,519.9,180.2,518.5,180.2Zm-.3-4.8a1.23,1.23,0,0,0-1,.5v2.2a1.43,1.43,0,0,0,1.1.5q.9,0,.9-1.5C519.2,175.9,518.8,175.4,518.2,175.4Z" transform="translate(0 2)"/><path class="cls-8" d="M525.3,180v-.4a1.73,1.73,0,0,1-1.3.5c-1.3,0-2.3-1-2.3-3.2,0-1.8.8-3,2.3-3a1.9,1.9,0,0,1,1.3.5v-1.9l1.6-.8V180Zm0-4.1a1.43,1.43,0,0,0-1.1-.5q-.9,0-.9,1.5c0,1.2.4,1.7,1,1.7a1.23,1.23,0,0,0,1-.5v-2.2Z" transform="translate(0 2)"/><path class="cls-8" d="M528.3,176.7v-1.6h3.3v1.6Z" transform="translate(0 2)"/><path class="cls-8" d="M540,180v-3.2c0-1.1-.3-1.4-1-1.4s-1,.3-1,1.3V180h-1.6v-3.2c0-1.1-.3-1.4-1-1.4s-1,.3-1,1.3V180H533v-6h1.6v.4a1.73,1.73,0,0,1,1.3-.5,1.62,1.62,0,0,1,1.6.8,2.42,2.42,0,0,1,1.9-.8c1.5,0,2.1,1,2.1,2.7V180Z" transform="translate(0 2)"/><path class="cls-8" d="M543.8,173.6a.9.9,0,1,1,.9-.9A.9.9,0,0,1,543.8,173.6Zm-.7,6.4v-6h1.6v6Z" transform="translate(0 2)"/><path class="cls-8" d="M549.7,175.9a1.8,1.8,0,0,0-.9-.4c-.6,0-1,.3-1,1.3V180h-1.6v-6h1.6v.4a1.66,1.66,0,0,1,1.2-.5,1.6,1.6,0,0,1,1.1.4Z" transform="translate(0 2)"/><path class="cls-8" d="M554.5,175.9a1.8,1.8,0,0,0-.9-.4c-.6,0-1,.3-1,1.3V180H551v-6h1.6v.4a1.66,1.66,0,0,1,1.2-.5,1.6,1.6,0,0,1,1.1.4Z" transform="translate(0 2)"/><path class="cls-8" d="M558.1,180.2a2.86,2.86,0,0,1-2.7-3.1,2.73,2.73,0,1,1,2.7,3.1Zm0-4.7c-.8,0-1.1.7-1.1,1.6s.4,1.6,1.1,1.6,1.1-.8,1.1-1.6C559.2,176.1,558.9,175.5,558.1,175.5Z" transform="translate(0 2)"/><path class="cls-8" d="M565.5,175.9a1.8,1.8,0,0,0-.9-.4c-.6,0-1,.3-1,1.3V180H562v-6h1.6v.4a1.66,1.66,0,0,1,1.2-.5,1.6,1.6,0,0,1,1.1.4Z" transform="translate(0 2)"/><circle class="cls-11" cx="538.29" cy="78.9" r="35.2" transform="translate(14.93 229.47) rotate(-24.19)"/><path class="cls-8" d="M513.7,82.7a4,4,0,0,1-3.1-1.4l1.1-1a2.48,2.48,0,0,0,2,.9c.9,0,1.4-.3,1.4-.9s-.3-.7-1.8-1.1-2.5-.8-2.5-2.3,1.3-2.3,2.9-2.3a4.25,4.25,0,0,1,2.9,1.2l-1.1,1.1a2.5,2.5,0,0,0-1.8-.8c-.9,0-1.1.4-1.1.7,0,.5.4.7,1.6,1s2.7.7,2.7,2.4C516.8,81.7,515.9,82.7,513.7,82.7Z" transform="translate(0 2)"/><path class="cls-8" d="M523,80.1h-3.6a1.18,1.18,0,0,0,1.2,1.1,1.53,1.53,0,0,0,1-.4l1.1.9a2.81,2.81,0,0,1-2.1,1c-1.7,0-2.8-1.2-2.8-3.1a2.8,2.8,0,0,1,2.7-3.1c1.6,0,2.5,1.4,2.5,3.1Zm-2.6-2.2c-.6,0-.9.5-1,1.1h2A1,1,0,0,0,520.4,77.9Z" transform="translate(0 2)"/><path class="cls-8" d="M526.7,82.7a2.94,2.94,0,0,1-2.8-3.1,2.89,2.89,0,0,1,2.9-3.1,2.74,2.74,0,0,1,2.3,1.3l-1,1c-.4-.5-.7-.9-1.4-.9s-1.2.6-1.2,1.6.5,1.6,1.2,1.6a1.72,1.72,0,0,0,1.4-.8l1,.9A2.56,2.56,0,0,1,526.7,82.7Z" transform="translate(0 2)"/><path class="cls-8" d="M532.6,82.7a2.86,2.86,0,0,1-2.7-3.1,2.8,2.8,0,0,1,2.7-3.1,3.13,3.13,0,0,1,0,6.2Zm0-4.7c-.8,0-1.1.7-1.1,1.6s.4,1.6,1.1,1.6,1.1-.8,1.1-1.6S533.3,78,532.6,78Z" transform="translate(0 2)"/><path class="cls-8" d="M540.1,82.6V79.4c0-1.1-.4-1.4-1-1.4s-1,.3-1,1.3v3.3h-1.6v-6h1.6V77a2,2,0,0,1,1.4-.5c1.5,0,2.2,1,2.2,2.7v3.4Z" transform="translate(0 2)"/><path class="cls-8" d="M546.4,82.6v-.4a1.73,1.73,0,0,1-1.3.5c-1.3,0-2.3-1-2.3-3.2,0-1.8.8-3,2.3-3a1.9,1.9,0,0,1,1.3.5V75.1l1.6-.8v8.3Zm0-4.1a1.43,1.43,0,0,0-1.1-.5q-.9,0-.9,1.5c0,1.2.4,1.7,1,1.7a1.23,1.23,0,0,0,1-.5V78.5Z" transform="translate(0 2)"/><path class="cls-8" d="M552.7,82.6v-.4a1.9,1.9,0,0,1-1.3.5,2.07,2.07,0,0,1-2.2-2.1c0-1.3,1.1-2,2.4-2a1.44,1.44,0,0,1,1.1.3v-.3a.82.82,0,0,0-.9-.8,2.73,2.73,0,0,0-1.6.4l-.6-1.1a4,4,0,0,1,2.2-.6,2.14,2.14,0,0,1,2.4,2.1v4Zm0-2.5a1.61,1.61,0,0,0-1.1-.3c-.6,0-.9.3-.9.8a.82.82,0,0,0,.9.8,1.36,1.36,0,0,0,1.1-.6Z" transform="translate(0 2)"/><path class="cls-8" d="M559.3,78.5a1.8,1.8,0,0,0-.9-.4c-.6,0-1,.3-1,1.3v3.2h-1.6v-6h1.6V77a1.66,1.66,0,0,1,1.2-.5,1.6,1.6,0,0,1,1.1.4Z" transform="translate(0 2)"/><path class="cls-8" d="M563.3,84.7h-1.5l.8-2.1-2.3-6H562l1,2.9c.2.5.3,1,.4,1.3.1-.3.2-.8.4-1.3l1-2.9h1.7Z" transform="translate(0 2)"/><line class="cls-7" x1="499" y1="178.3" x2="284.1" y2="178.3"/><polygon class="cls-3" points="498.7 175.7 503.1 178.3 498.7 180.8 498.7 175.7"/><line class="cls-7" x1="538.3" y1="119.7" x2="538.3" y2="143.1"/><polygon class="cls-3" points="535.8 120.4 538.3 116 540.9 120.4 535.8 120.4"/></svg>