<?xml version="1.0" encoding="utf-8"?>
<!-- Generator: Adobe Illustrator 22.0.1, SVG Export Plug-In . SVG Version: 6.00 Build 0)  -->
<svg version="1.1" id="Layer_1" xmlns="http://www.w3.org/2000/svg" xmlns:xlink="http://www.w3.org/1999/xlink" x="0px" y="0px"
	 width="1154.5px" height="1328px" viewBox="0 0 1154.5 1328" style="enable-background:new 0 0 1154.5 1328;" xml:space="preserve"
	>
<style type="text/css">
	.st0{fill:none;stroke:#00B9E4;stroke-width:2;stroke-miterlimit:10;}
	.st1{fill:#00B9E4;}
	.st2{fill:#FFFFFF;}
	.st3{fill:#EAEAEA;}
	.st4{fill:none;stroke:#D6D6D6;stroke-width:2;stroke-miterlimit:10;}
	.st5{fill:#D6D6D6;}
	.st6{fill:#B5B5B5;}
	.st7{fill:none;stroke:#EC7A08;stroke-width:6;stroke-miterlimit:10;}
	.st8{fill:none;stroke:#00B9E4;stroke-width:2;stroke-linecap:round;stroke-linejoin:round;}
	.st9{fill:none;stroke:#00B9E4;stroke-width:2;stroke-linecap:round;stroke-linejoin:round;stroke-dasharray:5.8215,5.8215;}
	.st10{fill:none;stroke:#00B9E4;stroke-width:2;stroke-linecap:round;stroke-linejoin:round;stroke-dasharray:6.0387,6.0387;}
	.st11{fill:#4C4C4C;}
	.st12{fill:none;stroke:#E87A08;stroke-width:2;stroke-miterlimit:10;}
	.st13{fill:#E87A08;}
	.st14{fill:none;stroke:#E87A08;stroke-width:2;stroke-linecap:round;stroke-linejoin:round;}
	.st15{fill:none;stroke:#E87A08;stroke-width:2;stroke-linecap:round;stroke-linejoin:round;stroke-dasharray:8.1902,8.1902;}
	.st16{fill:none;stroke:#00B9E4;stroke-width:6;stroke-miterlimit:10;}
</style>
<g>
	<g>
		<line class="st0" x1="289.9" y1="119.5" x2="688.5" y2="119.5"/>
		<g>
			<polygon class="st1" points="686.1,127.4 699.9,119.5 686.1,111.5 			"/>
		</g>
	</g>
</g>
<rect x="437.9" y="101.2" class="st2" width="118" height="36"/>
<rect x="31.4" y="349.7" class="st3" width="580" height="144"/>
<rect x="31.9" y="22.2" class="st4" width="258" height="230"/>
<polygon class="st5" points="73.4,330.7 31.4,349.7 611.4,349.7 569.4,330.7 "/>
<rect x="31.4" y="578.7" class="st3" width="580" height="144"/>
<polygon class="st5" points="73.4,559.7 31.4,578.7 611.4,578.7 569.4,559.7 "/>
<rect x="31.4" y="808.7" class="st3" width="580" height="144"/>
<polygon class="st5" points="73.4,789.7 31.4,808.7 611.4,808.7 569.4,789.7 "/>
<rect x="31.4" y="1038.7" class="st3" width="580" height="207.5"/>
<polygon class="st5" points="73.4,1019.7 31.4,1038.7 611.4,1038.7 569.4,1019.7 "/>
<path class="st6" d="M543.4,673.7h68v-46h-68C534.1,627.7,534.1,673.7,543.4,673.7z"/>
<path class="st6" d="M543.9,444.7h68v-46h-68C534.6,398.7,534.6,444.7,543.9,444.7z"/>
<path class="st6" d="M543.9,903.7h68v-46h-68C534.6,857.7,534.6,903.7,543.9,903.7z"/>
<path class="st6" d="M543.9,1131.2h68v-46h-68C534.6,1085.2,534.6,1131.2,543.9,1131.2z"/>
<path class="st6" d="M543.9,1201.2h68v-46h-68C534.6,1155.2,534.6,1201.2,543.9,1201.2z"/>
<line class="st7" x1="961.9" y1="22.2" x2="961.9" y2="1309.2"/>
<g>
	<g>
		<line class="st0" x1="629.4" y1="405.7" x2="699.5" y2="405.7"/>
		<g>
			<polygon class="st1" points="631.8,413.7 617.9,405.7 631.8,397.7 			"/>
		</g>
		<g>
			<polygon class="st1" points="697.1,413.7 710.9,405.7 697.1,397.7 			"/>
		</g>
	</g>
</g>
<g>
	<g>
		<line class="st8" x1="629.4" y1="435.7" x2="632.4" y2="435.7"/>
		<line class="st9" x1="638.2" y1="435.7" x2="693.6" y2="435.7"/>
		<line class="st8" x1="696.5" y1="435.7" x2="699.5" y2="435.7"/>
		<g>
			<polygon class="st1" points="631.8,443.7 617.9,435.7 631.8,427.7 			"/>
		</g>
		<g>
			<polygon class="st1" points="697.1,443.7 710.9,435.7 697.1,427.7 			"/>
		</g>
	</g>
</g>
<g>
	<g>
		<line class="st0" x1="629.4" y1="635.7" x2="699.5" y2="635.7"/>
		<g>
			<polygon class="st1" points="631.8,643.7 617.9,635.7 631.8,627.7 			"/>
		</g>
		<g>
			<polygon class="st1" points="697.1,643.7 710.9,635.7 697.1,627.7 			"/>
		</g>
	</g>
</g>
<g>
	<g>
		<line class="st8" x1="629.4" y1="665.7" x2="632.4" y2="665.7"/>
		<line class="st9" x1="638.2" y1="665.7" x2="693.6" y2="665.7"/>
		<line class="st8" x1="696.5" y1="665.7" x2="699.5" y2="665.7"/>
		<g>
			<polygon class="st1" points="631.8,673.7 617.9,665.7 631.8,657.7 			"/>
		</g>
		<g>
			<polygon class="st1" points="697.1,673.7 710.9,665.7 697.1,657.7 			"/>
		</g>
	</g>
</g>
<g>
	<g>
		<line class="st0" x1="629.4" y1="865.7" x2="699.5" y2="865.7"/>
		<g>
			<polygon class="st1" points="631.8,873.7 617.9,865.7 631.8,857.7 			"/>
		</g>
		<g>
			<polygon class="st1" points="697.1,873.7 710.9,865.7 697.1,857.7 			"/>
		</g>
	</g>
</g>
<g>
	<g>
		<line class="st8" x1="629.4" y1="895.7" x2="632.4" y2="895.7"/>
		<line class="st9" x1="638.2" y1="895.7" x2="693.6" y2="895.7"/>
		<line class="st8" x1="696.5" y1="895.7" x2="699.5" y2="895.7"/>
		<g>
			<polygon class="st1" points="631.8,903.7 617.9,895.7 631.8,887.7 			"/>
		</g>
		<g>
			<polygon class="st1" points="697.1,903.7 710.9,895.7 697.1,887.7 			"/>
		</g>
	</g>
</g>
<g>
	<g>
		<line class="st0" x1="629.4" y1="1093.7" x2="699.5" y2="1093.7"/>
		<g>
			<polygon class="st1" points="631.8,1101.7 617.9,1093.7 631.8,1085.7 			"/>
		</g>
		<g>
			<polygon class="st1" points="697.1,1101.7 710.9,1093.7 697.1,1085.7 			"/>
		</g>
	</g>
</g>
<g>
	<g>
		<line class="st8" x1="629.4" y1="1123.7" x2="632.4" y2="1123.7"/>
		<line class="st9" x1="638.2" y1="1123.7" x2="693.6" y2="1123.7"/>
		<line class="st8" x1="696.5" y1="1123.7" x2="699.5" y2="1123.7"/>
		<g>
			<polygon class="st1" points="631.8,1131.7 617.9,1123.7 631.8,1115.7 			"/>
		</g>
		<g>
			<polygon class="st1" points="697.1,1131.7 710.9,1123.7 697.1,1115.7 			"/>
		</g>
	</g>
</g>
<g>
	<g>
		<line class="st8" x1="315.4" y1="158.7" x2="318.4" y2="158.7"/>
		<line class="st10" x1="324.5" y1="158.7" x2="707.9" y2="158.7"/>
		<line class="st8" x1="710.9" y1="158.7" x2="713.9" y2="158.7"/>
		<g>
			<polygon class="st1" points="317.8,166.7 303.9,158.7 317.8,150.7 			"/>
		</g>
	</g>
</g>
<g>
	<path class="st2" d="M566.5,433.2v-8.3c0-3-1.1-4-3-4s-3,1.4-3,3.8v8.6h-2.9v-14.7h2.9v1.4c0.7-1.1,2.2-1.7,3.7-1.7
		c3.4,0,5.2,2.2,5.2,6.6v8.4L566.5,433.2L566.5,433.2z"/>
	<path class="st2" d="M575.1,416.6c-1,0-1.9-0.8-1.9-1.8s0.8-1.9,1.9-1.9c1,0,1.8,0.8,1.8,1.9C577,415.8,576.1,416.6,575.1,416.6z
		 M573.7,433.2v-14.7h2.9v14.7H573.7z"/>
	<path class="st2" d="M590.2,422.7c-1.2-1.2-2.3-1.8-3.6-1.8c-2.1,0-3.4,1.9-3.4,4.9c0,2.9,1.2,5,3.5,5c1.4,0,2.2-0.6,3.3-1.8
		l1.8,1.8c-1.1,1.5-2.6,2.7-5.3,2.7c-3.6,0-6.4-3-6.4-7.6c0-4.9,2.9-7.7,6.4-7.7c2.2,0,3.8,0.9,5.2,2.5L590.2,422.7z"/>
</g>
<g>
	<path class="st2" d="M566.5,660.2v-8.3c0-3-1.1-4-3-4s-3,1.4-3,3.8v8.6h-2.9v-14.7h2.9v1.4c0.7-1.1,2.2-1.7,3.7-1.7
		c3.4,0,5.2,2.2,5.2,6.6v8.4L566.5,660.2L566.5,660.2z"/>
	<path class="st2" d="M575.1,643.6c-1,0-1.9-0.8-1.9-1.8s0.8-1.9,1.9-1.9c1,0,1.8,0.8,1.8,1.9C577,642.8,576.1,643.6,575.1,643.6z
		 M573.7,660.2v-14.7h2.9v14.7H573.7z"/>
	<path class="st2" d="M590.2,649.7c-1.2-1.2-2.3-1.8-3.6-1.8c-2.1,0-3.4,1.9-3.4,4.9c0,2.9,1.2,5,3.5,5c1.4,0,2.2-0.6,3.3-1.8
		l1.8,1.8c-1.1,1.5-2.6,2.7-5.3,2.7c-3.6,0-6.4-3-6.4-7.6c0-4.9,2.9-7.7,6.4-7.7c2.2,0,3.8,0.9,5.2,2.5L590.2,649.7z"/>
</g>
<g>
	<path class="st11" d="M76.2,646.3c-0.7-1.3-1.8-2.1-3.6-2.1c-2.9,0-4.6,2.6-4.6,6.2c0,3.5,1.7,6.2,4.6,6.2c1.8,0,2.8-0.8,3.8-2.5
		l3.3,2c-1.3,2.8-3.7,4.4-7.3,4.4c-5.1,0-8.6-3.9-8.6-10.1c0-6,3.6-10.1,8.7-10.1c3.7,0,5.9,1.8,7.2,4.3L76.2,646.3z"/>
	<path class="st11" d="M83.7,660.2v-19.6h13.6v3.8h-9.7v3.4h5.6v3.8h-5.6v4.7h10.1v3.8L83.7,660.2L83.7,660.2z"/>
	<path class="st11" d="M110.1,653.3h-4.3v6.9h-3.9v-19.6h8.6c3.7,0,6.7,2,6.7,6.2C117.2,651.4,114.2,653.3,110.1,653.3z
		 M110.3,644.4h-4.5v5h4.6c1.8,0,2.8-0.8,2.8-2.5S112.1,644.4,110.3,644.4z"/>
	<path class="st11" d="M132.9,660.2V652h-8v8.2H121v-19.6h3.9v7.5h8v-7.5h3.9v19.6H132.9z"/>
	<path class="st11" d="M164.4,660.2V653c0-1.1,0.1-3.6,0.1-4.3c-0.3,0.7-0.9,2.1-1.4,3.2l-4,8.7l-4-8.7c-0.5-1.1-1.1-2.5-1.4-3.2
		c0,0.8,0.1,3.2,0.1,4.3v7.2H150v-19.6h3.8l4.1,8.9c0.5,1.1,1.1,2.6,1.3,3.3c0.3-0.7,0.8-2.2,1.3-3.3l3.9-8.9h3.9v19.6H164.4z"/>
	<path class="st11" d="M186.4,660.2l-1.5-4.4h-7.2l-1.5,4.4H172l7.5-19.6h3.8l7.4,19.6H186.4z M182.3,648.6c-0.4-1.1-0.8-2.3-1-3.1
		c-0.2,0.7-0.6,1.9-1,3.1l-1.3,3.6h4.5L182.3,648.6z"/>
	<path class="st11" d="M206.7,660.2l-7.2-10.7c-0.5-0.7-1.1-1.7-1.4-2.2c0,0.7,0.1,3.2,0.1,4.3v8.6h-3.9v-19.6h3.8L205,651
		c0.5,0.7,1.1,1.7,1.4,2.2c0-0.7-0.1-3.2-0.1-4.3v-8.3h3.9v19.6H206.7z"/>
	<path class="st11" d="M228.3,660.2l-1.5-4.4h-7.2l-1.5,4.4h-4.2l7.5-19.6h3.8l7.4,19.6H228.3z M224.2,648.6c-0.4-1.1-0.8-2.3-1-3.1
		c-0.2,0.7-0.6,1.9-1,3.1l-1.3,3.6h4.5L224.2,648.6z"/>
	<path class="st11" d="M243.1,660.5c-5.1,0-8.6-3.9-8.6-10.1c0-6,3.6-10.1,8.7-10.1c4,0,6.1,1.9,7.4,4.9l-3.7,1.5
		c-0.7-1.5-1.6-2.5-3.8-2.5c-2.9,0-4.6,2.6-4.6,6.2c0,3.6,1.7,6.3,4.6,6.3c2.7,0,3.6-1.3,3.8-3H244V650h7v2.6
		C251,657.7,247.7,660.5,243.1,660.5z"/>
	<path class="st11" d="M255.1,660.2v-19.6h13.6v3.8H259v3.4h5.6v3.8H259v4.7h10.1v3.8L255.1,660.2L255.1,660.2z"/>
	<path class="st11" d="M284.7,660.2l-3.5-7.1h-3.9v7.1h-3.9v-19.6h9.1c3.7,0,6.7,2,6.7,6.2c0,2.9-1.3,4.8-3.8,5.8l3.8,7.6H284.7z
		 M282.4,644.4h-5.1v5h5.1c1.8,0,2.8-0.8,2.8-2.5C285.2,645.2,284.1,644.4,282.4,644.4z"/>
	<path class="st11" d="M313.8,660.2l-7.2-10.7c-0.5-0.7-1.1-1.7-1.4-2.2c0,0.7,0.1,3.2,0.1,4.3v8.6h-3.9v-19.6h3.8l6.9,10.4
		c0.5,0.7,1.1,1.7,1.4,2.2c0-0.7-0.1-3.2-0.1-4.3v-8.3h3.9v19.6H313.8z"/>
	<path class="st11" d="M329.8,660.5c-5.3,0-8.5-4.1-8.5-10.1s3.2-10.1,8.5-10.1s8.5,4.1,8.5,10.1S335.2,660.5,329.8,660.5z
		 M329.8,644.2c-3.2,0-4.5,2.7-4.5,6.2s1.3,6.2,4.5,6.2s4.5-2.7,4.5-6.2S333,644.2,329.8,644.2z"/>
	<path class="st11" d="M348.2,660.2h-5.9v-19.6h6.1c5.6,0,9.7,2.6,9.7,9.8C358.2,657.3,353.2,660.2,348.2,660.2z M348.3,644.4h-2.1
		v12h1.9c4.1,0,6-2.4,6-6C354.2,646.4,352.5,644.4,348.3,644.4z"/>
	<path class="st11" d="M362.1,660.2v-19.6h13.6v3.8H366v3.4h5.6v3.8H366v4.7h10.1v3.8L362.1,660.2L362.1,660.2z"/>
</g>
<g>
	<path class="st11" d="M76.2,417c-0.7-1.3-1.8-2.1-3.6-2.1c-2.9,0-4.6,2.6-4.6,6.2c0,3.5,1.7,6.2,4.6,6.2c1.8,0,2.8-0.8,3.8-2.5
		l3.3,2c-1.3,2.8-3.7,4.4-7.3,4.4c-5.1,0-8.6-3.9-8.6-10.1c0-6,3.6-10.1,8.7-10.1c3.7,0,5.9,1.8,7.2,4.3L76.2,417z"/>
	<path class="st11" d="M83.7,430.9v-19.6h13.6v3.8h-9.7v3.4h5.6v3.8h-5.6v4.7h10.1v3.8h-14V430.9z"/>
	<path class="st11" d="M110.1,424h-4.3v6.9h-3.9v-19.6h8.6c3.7,0,6.7,2,6.7,6.2C117.2,422.1,114.2,424,110.1,424z M110.3,415.1h-4.5
		v5h4.6c1.8,0,2.8-0.8,2.8-2.5S112.1,415.1,110.3,415.1z"/>
	<path class="st11" d="M132.9,430.9v-8.2h-8v8.2H121v-19.6h3.9v7.5h8v-7.5h3.9v19.6H132.9z"/>
	<path class="st11" d="M164.4,430.9v-7.2c0-1.1,0.1-3.6,0.1-4.3c-0.3,0.7-0.9,2.1-1.4,3.2l-4,8.7l-4-8.7c-0.5-1.1-1.1-2.5-1.4-3.2
		c0,0.8,0.1,3.2,0.1,4.3v7.2H150v-19.6h3.8l4.1,8.9c0.5,1.1,1.1,2.6,1.3,3.3c0.3-0.7,0.8-2.2,1.3-3.3l3.9-8.9h3.9v19.6H164.4z"/>
	<path class="st11" d="M180.8,431.2c-5.3,0-8.5-4.1-8.5-10.1s3.2-10.1,8.5-10.1s8.5,4.1,8.5,10.1
		C189.4,427.1,186.2,431.2,180.8,431.2z M180.8,414.9c-3.2,0-4.5,2.7-4.5,6.2s1.3,6.2,4.5,6.2s4.5-2.7,4.5-6.2
		S184,414.9,180.8,414.9z"/>
	<path class="st11" d="M205.7,430.9l-7.2-10.7c-0.5-0.7-1.1-1.7-1.4-2.2c0,0.7,0.1,3.2,0.1,4.3v8.6h-3.9v-19.6h3.8l6.9,10.4
		c0.5,0.7,1.1,1.7,1.4,2.2c0-0.7-0.1-3.2-0.1-4.3v-8.3h3.9v19.6H205.7z"/>
	<path class="st11" d="M214.6,430.9v-19.6h3.9v19.6H214.6z"/>
	<path class="st11" d="M232.1,415.2v15.7h-3.9v-15.7h-5.6v-3.9h15.2v3.9H232.1z"/>
	<path class="st11" d="M248,431.2c-5.3,0-8.5-4.1-8.5-10.1s3.2-10.1,8.5-10.1s8.5,4.1,8.5,10.1S253.4,431.2,248,431.2z M248,414.9
		c-3.2,0-4.5,2.7-4.5,6.2s1.3,6.2,4.5,6.2s4.5-2.7,4.5-6.2S251.2,414.9,248,414.9z"/>
	<path class="st11" d="M271.9,430.9l-3.5-7.1h-3.9v7.1h-3.9v-19.6h9.1c3.7,0,6.7,2,6.7,6.2c0,2.9-1.3,4.8-3.8,5.8l3.8,7.6H271.9z
		 M269.6,415.1h-5.1v5h5.1c1.8,0,2.8-0.8,2.8-2.5S271.3,415.1,269.6,415.1z"/>
	<path class="st11" d="M301,430.9l-7.2-10.7c-0.5-0.7-1.1-1.7-1.4-2.2c0,0.7,0.1,3.2,0.1,4.3v8.6h-3.9v-19.6h3.8l6.9,10.4
		c0.5,0.7,1.1,1.7,1.4,2.2c0-0.7-0.1-3.2-0.1-4.3v-8.3h3.9v19.6H301z"/>
	<path class="st11" d="M317,431.2c-5.3,0-8.5-4.1-8.5-10.1s3.2-10.1,8.5-10.1s8.5,4.1,8.5,10.1C325.6,427.1,322.4,431.2,317,431.2z
		 M317,414.9c-3.2,0-4.5,2.7-4.5,6.2s1.3,6.2,4.5,6.2s4.5-2.7,4.5-6.2S320.2,414.9,317,414.9z"/>
	<path class="st11" d="M335.4,430.9h-5.9v-19.6h6.1c5.6,0,9.7,2.6,9.7,9.8C345.4,428,340.4,430.9,335.4,430.9z M335.5,415.1h-2.1v12
		h1.9c4.1,0,6-2.4,6-6C341.4,417.1,339.7,415.1,335.5,415.1z"/>
	<path class="st11" d="M349.4,430.9v-19.6H363v3.8h-9.7v3.4h5.6v3.8h-5.6v4.7h10.1v3.8h-14V430.9z"/>
</g>
<g>
	<path class="st11" d="M457.2,120.7l4,8h-3.4l-3.9-7.8h-4.4v7.8h-2.9v-19.6h8.6c3.4,0,6.3,1.8,6.3,5.9
		C461.5,118.1,459.9,120,457.2,120.7z M455.2,111.8h-5.7v6.3h5.7c2,0,3.3-1,3.3-3.1C458.6,113,457.2,111.8,455.2,111.8z"/>
	<path class="st11" d="M476.8,122.3h-9.7c0.3,2.8,1.9,4,3.7,4c1.2,0,2.2-0.4,3.2-1.2l1.7,1.8c-1.3,1.2-2.8,1.9-5.1,1.9
		c-3.4,0-6.4-2.8-6.4-7.6c0-5,2.6-7.7,6.4-7.7c4.2,0,6.2,3.4,6.2,7.4C476.9,121.6,476.8,122,476.8,122.3z M470.5,116.3
		c-1.9,0-3.1,1.3-3.4,3.7h6.8C473.8,117.9,472.9,116.3,470.5,116.3z"/>
	<path class="st11" d="M489.3,134.1v-6.8c-1.1,1-2.3,1.7-3.8,1.7c-3.2,0-5.7-2.3-5.7-7.9c0-5,2.7-7.4,5.8-7.4c1.5,0,2.9,0.8,3.7,1.7
		V114h2.9v18.6L489.3,134.1z M489.3,118.2c-0.6-0.9-2-1.9-3.4-1.9c-2.1,0-3.2,1.6-3.2,4.7c0,3.7,1.2,5.3,3.3,5.3
		c1.4,0,2.6-0.9,3.3-1.9L489.3,118.2L489.3,118.2z"/>
	<path class="st11" d="M505.2,128.7v-1.4c-0.7,1.1-2.2,1.7-3.7,1.7c-3.4,0-5.2-2.2-5.2-6.6V114h2.9v8.3c0,3,1.1,4,3,4s3-1.4,3-3.8
		V114h2.9v14.7H505.2z"/>
	<path class="st11" d="M524.2,122.3h-9.7c0.3,2.8,1.9,4,3.7,4c1.2,0,2.2-0.4,3.2-1.2l1.7,1.8c-1.3,1.2-2.8,1.9-5.1,1.9
		c-3.4,0-6.4-2.8-6.4-7.6c0-5,2.6-7.7,6.4-7.7c4.2,0,6.2,3.4,6.2,7.4C524.3,121.6,524.2,122,524.2,122.3z M517.9,116.3
		c-1.9,0-3.1,1.3-3.4,3.7h6.8C521.2,117.9,520.3,116.3,517.9,116.3z"/>
	<path class="st11" d="M532.4,129c-2,0-4.1-0.8-5.6-1.9l1.3-2.2c1.4,1,2.9,1.5,4.3,1.5c1.8,0,2.7-0.6,2.7-1.6c0-1.1-1.3-1.7-3.4-2.5
		c-3.2-1.2-4.3-2.3-4.3-4.6c0-2.6,2.1-4,5-4c1.8,0,3.7,0.7,5,1.6l-1.3,2.2c-1.2-0.8-2.4-1.3-3.8-1.3s-2,0.6-2,1.3
		c0,0.7,0.5,1.3,2.7,2.1c3.3,1.3,5,2.2,5,4.9C537.9,127.9,535.2,129,532.4,129z"/>
	<path class="st11" d="M548.3,128.3c-0.7,0.4-1.7,0.7-2.8,0.7c-2,0-3.3-1.3-3.3-3.9v-8.5h-2.1V114h2.1v-4.2l2.8-1.5v5.7h3.6v2.6H545
		v8c0,1.4,0.4,1.8,1.5,1.8c0.8,0,1.6-0.3,2.1-0.6L548.3,128.3z"/>
</g>
<rect x="426.5" y="137.2" class="st2" width="140.7" height="36"/>
<g>
	<path class="st11" d="M447.9,156.7l4,8h-3.4l-3.9-7.8h-4.4v7.8h-2.9v-19.6h8.6c3.4,0,6.3,1.8,6.3,5.9
		C452.2,154.1,450.5,156,447.9,156.7z M445.9,147.8h-5.7v6.3h5.7c2,0,3.3-1,3.3-3.1C449.2,149,447.9,147.8,445.9,147.8z"/>
	<path class="st11" d="M467.5,158.3h-9.7c0.3,2.8,1.9,4,3.7,4c1.2,0,2.2-0.4,3.2-1.2l1.7,1.8c-1.3,1.2-2.8,1.9-5.1,1.9
		c-3.4,0-6.4-2.8-6.4-7.6c0-5,2.6-7.7,6.4-7.7c4.2,0,6.2,3.4,6.2,7.4C467.5,157.6,467.5,158,467.5,158.3z M461.2,152.3
		c-1.9,0-3.1,1.3-3.4,3.7h6.8C464.5,153.9,463.5,152.3,461.2,152.3z"/>
	<path class="st11" d="M475.6,165c-2,0-4.1-0.8-5.6-1.9l1.3-2.2c1.4,1,2.9,1.5,4.3,1.5c1.8,0,2.7-0.6,2.7-1.6c0-1.1-1.3-1.7-3.4-2.5
		c-3.2-1.2-4.3-2.3-4.3-4.6c0-2.6,2.1-4,5-4c1.8,0,3.7,0.7,5,1.6l-1.3,2.2c-1.2-0.8-2.4-1.3-3.8-1.3s-2,0.6-2,1.3s0.5,1.3,2.7,2.1
		c3.3,1.3,5,2.2,5,4.9C481.1,163.9,478.5,165,475.6,165z"/>
	<path class="st11" d="M491.4,165c-1.5,0-2.9-0.8-3.7-1.7v5.3l-2.9,1.5V150h2.9v1.4c1.1-1,2.3-1.7,3.8-1.7c3.2,0,5.7,2.3,5.7,7.9
		C497.2,162.6,494.4,165,491.4,165z M491,152.3c-1.4,0-2.6,0.9-3.3,1.9v6.2c0.6,0.9,2,1.9,3.4,1.9c2.1,0,3.2-1.6,3.2-4.7
		C494.3,153.9,493.1,152.3,491,152.3z"/>
	<path class="st11" d="M506.5,165c-3.7,0-6.5-3.1-6.5-7.6c0-4.8,2.9-7.7,6.6-7.7c3.8,0,6.6,3,6.6,7.6
		C513.2,162.1,510.3,165,506.5,165z M506.5,152.4c-2.2,0-3.5,1.9-3.5,4.8c0,3.2,1.5,5,3.7,5s3.6-2.2,3.6-4.9
		C510.3,154.3,508.8,152.4,506.5,152.4z"/>
	<path class="st11" d="M525.7,164.7v-8.3c0-3-1.1-4-3-4s-3,1.4-3,3.8v8.6h-2.9V150h2.9v1.4c0.7-1.1,2.2-1.7,3.7-1.7
		c3.4,0,5.2,2.2,5.2,6.6v8.4H525.7z"/>
	<path class="st11" d="M537.5,165c-2,0-4.1-0.8-5.6-1.9l1.3-2.2c1.4,1,2.9,1.5,4.3,1.5c1.8,0,2.7-0.6,2.7-1.6c0-1.1-1.3-1.7-3.4-2.5
		c-3.2-1.2-4.3-2.3-4.3-4.6c0-2.6,2.1-4,5-4c1.8,0,3.7,0.7,5,1.6l-1.3,2.2c-1.2-0.8-2.4-1.3-3.8-1.3s-2,0.6-2,1.3s0.5,1.3,2.7,2.1
		c3.3,1.3,5,2.2,5,4.9C543,163.9,540.3,165,537.5,165z"/>
	<path class="st11" d="M558.2,158.3h-9.7c0.3,2.8,1.9,4,3.7,4c1.2,0,2.2-0.4,3.2-1.2l1.7,1.8c-1.3,1.2-2.8,1.9-5.1,1.9
		c-3.4,0-6.4-2.8-6.4-7.6c0-5,2.6-7.7,6.4-7.7c4.2,0,6.2,3.4,6.2,7.4C558.3,157.6,558.3,158,558.2,158.3z M551.9,152.3
		c-1.9,0-3.1,1.3-3.4,3.7h6.8C555.3,153.9,554.3,152.3,551.9,152.3z"/>
</g>
<g>
	<path class="st11" d="M133,224c-5.1,0-8.3-4.2-8.3-10.1s3.2-10.1,8.3-10.1c3.2,0,5.3,1.3,6.7,3.7L137,209c-1-1.6-2-2.4-4.1-2.4
		c-3.4,0-5.3,2.8-5.3,7.2s1.8,7.2,5.3,7.2c2,0,3.3-0.8,4.3-2.4l2.4,1.6C138.3,222.6,135.9,224,133,224z"/>
	<path class="st11" d="M143.7,223.7v-18.9l2.9-1.5v20.4H143.7z"/>
	<path class="st11" d="M152.5,207.1c-1,0-1.9-0.8-1.9-1.8s0.8-1.9,1.9-1.9c1,0,1.8,0.8,1.8,1.9C154.4,206.2,153.5,207.1,152.5,207.1
		z M151.1,223.7V209h2.9v14.7H151.1z"/>
	<path class="st11" d="M170.2,217.3h-9.7c0.3,2.8,1.9,4,3.7,4c1.2,0,2.2-0.4,3.2-1.2l1.7,1.8c-1.3,1.2-2.8,1.9-5.1,1.9
		c-3.4,0-6.4-2.8-6.4-7.6c0-5,2.6-7.7,6.4-7.7c4.2,0,6.2,3.4,6.2,7.4C170.3,216.6,170.2,217,170.2,217.3z M163.9,211.3
		c-1.9,0-3.1,1.3-3.4,3.7h6.8C167.2,212.9,166.3,211.3,163.9,211.3z"/>
	<path class="st11" d="M182.8,223.7v-8.3c0-3-1.1-4-3-4s-3,1.4-3,3.8v8.6h-2.9V209h2.9v1.4c0.7-1.1,2.2-1.7,3.7-1.7
		c3.4,0,5.2,2.2,5.2,6.6v8.4H182.8z"/>
	<path class="st11" d="M196.7,223.3c-0.7,0.4-1.7,0.7-2.8,0.7c-2,0-3.3-1.3-3.3-3.9v-8.5h-2.1V209h2.1v-4.2l2.8-1.5v5.7h3.6v2.6
		h-3.6v8c0,1.4,0.4,1.8,1.5,1.8c0.8,0,1.6-0.3,2.1-0.6L196.7,223.3z"/>
</g>
<g>
	<path class="st11" d="M750.3,279.4h-5.1v7.3h-2.9v-19.6h8.2c3.6,0,6.3,2.1,6.3,6.1C756.8,277.2,754.1,279.4,750.3,279.4z
		 M750.5,269.8h-5.3v6.7h5.3c2.2,0,3.4-1.3,3.4-3.4C753.8,271,752.5,269.8,750.5,269.8z"/>
	<path class="st11" d="M769,286.7v-1.4c-0.7,1.1-2.2,1.7-3.7,1.7c-3.4,0-5.2-2.2-5.2-6.6V272h2.9v8.3c0,3,1.1,4,3,4s3-1.4,3-3.8V272
		h2.9v14.7H769z"/>
	<path class="st11" d="M782.7,287c-1.5,0-2.9-0.8-3.7-1.7v1.4h-2.9v-18.9l2.9-1.5v7.1c1.1-1,2.3-1.7,3.8-1.7c3.2,0,5.7,2.3,5.7,7.9
		C788.5,284.6,785.7,287,782.7,287z M782.3,274.3c-1.4,0-2.6,0.9-3.3,1.9v6.2c0.6,0.9,2,1.9,3.4,1.9c2.1,0,3.2-1.6,3.2-4.7
		C785.6,275.9,784.4,274.3,782.3,274.3z"/>
	<path class="st11" d="M792.2,286.7v-18.9l2.9-1.5v20.4H792.2z"/>
	<path class="st11" d="M801.1,270.1c-1,0-1.9-0.8-1.9-1.8s0.8-1.9,1.9-1.9c1,0,1.8,0.8,1.8,1.9C803,269.2,802.1,270.1,801.1,270.1z
		 M799.6,286.7V272h2.9v14.7H799.6z"/>
	<path class="st11" d="M816.2,276.2c-1.2-1.2-2.3-1.8-3.6-1.8c-2.1,0-3.4,1.9-3.4,4.9c0,2.9,1.2,5,3.5,5c1.4,0,2.2-0.6,3.3-1.8
		l1.8,1.8c-1.1,1.5-2.6,2.7-5.3,2.7c-3.6,0-6.4-3-6.4-7.6c0-4.9,2.9-7.7,6.4-7.7c2.2,0,3.8,0.9,5.2,2.5L816.2,276.2z"/>
	<path class="st11" d="M754.4,320.3l-7.8-12.3c-0.5-0.7-1.1-1.9-1.5-2.4c0,0.7,0,3.4,0,4.5v10.2h-2.9v-19.6h3l7.4,12
		c0.5,0.8,1.3,2.3,1.6,2.8c0-0.7,0-3.5,0-4.6v-10.1h2.9v19.6h-2.7V320.3z"/>
	<path class="st11" d="M773.7,313.9H764c0.3,2.8,1.9,4,3.7,4c1.2,0,2.2-0.4,3.2-1.2l1.7,1.8c-1.3,1.2-2.8,1.9-5.1,1.9
		c-3.4,0-6.4-2.8-6.4-7.6c0-5,2.6-7.7,6.4-7.7c4.2,0,6.2,3.4,6.2,7.4C773.8,313.2,773.7,313.6,773.7,313.9z M767.4,307.9
		c-1.9,0-3.1,1.3-3.4,3.7h6.8C770.8,309.5,769.8,307.9,767.4,307.9z"/>
	<path class="st11" d="M784.2,319.9c-0.7,0.4-1.7,0.7-2.8,0.7c-2,0-3.3-1.3-3.3-3.9v-8.5H776v-2.6h2.1v-4.2l2.8-1.5v5.7h3.6v2.6
		h-3.6v8c0,1.4,0.4,1.8,1.5,1.8c0.8,0,1.6-0.3,2.1-0.6L784.2,319.9z"/>
	<path class="st11" d="M801.4,320.3h-2.5l-2-7.4c-0.3-1.1-0.6-2.4-0.8-3.1c-0.1,0.7-0.4,2-0.8,3.2l-2,7.4H791l-4-14.7h2.9l1.7,7.1
		c0.3,1.1,0.6,2.5,0.7,3.2c0.2-0.7,0.5-2.1,0.8-3.2l2-7.1h2.3l2,7.2c0.3,1.1,0.6,2.5,0.8,3.2c0.2-0.7,0.4-2.1,0.7-3.2l1.7-7.1h2.9
		L801.4,320.3z"/>
	<path class="st11" d="M814,320.6c-3.7,0-6.5-3.1-6.5-7.6c0-4.8,2.9-7.7,6.6-7.7c3.8,0,6.6,3,6.6,7.6
		C820.6,317.7,817.8,320.6,814,320.6z M813.9,308c-2.2,0-3.5,1.9-3.5,4.8c0,3.2,1.5,5,3.7,5s3.6-2.2,3.6-4.9
		C817.7,309.9,816.3,308,813.9,308z"/>
	<path class="st11" d="M832.1,308.6c-0.6-0.3-1.3-0.5-2.2-0.5c-1.8,0-2.9,1.3-2.9,3.8v8.4h-2.9v-14.7h2.9v1.4c0.7-1,1.9-1.7,3.4-1.7
		c1.2,0,1.9,0.2,2.5,0.6L832.1,308.6z"/>
	<path class="st11" d="M844.2,320.3L841,313l-2.2,3v4.3h-2.9v-18.9l2.9-1.5v9.3c0,0.9,0,2.4,0,3.1c0.4-0.6,1.1-1.7,1.6-2.4l3.1-4.3
		h3.3l-3.7,4.9l4.4,9.8H844.2z"/>
</g>
<g>
	<path class="st11" d="M993.7,287c-5.1,0-8.3-4.2-8.3-10.1s3.2-10.1,8.3-10.1c3.2,0,5.3,1.3,6.7,3.7l-2.6,1.6c-1-1.6-2-2.4-4.1-2.4
		c-3.4,0-5.3,2.8-5.3,7.2s1.8,7.2,5.3,7.2c2,0,3.3-0.8,4.3-2.4l2.4,1.6C999,285.6,996.6,287,993.7,287z"/>
	<path class="st11" d="M1004.4,286.7v-18.9l2.9-1.5v20.4H1004.4z"/>
	<path class="st11" d="M1020.5,286.7v-1.4c-0.7,1.1-2.2,1.7-3.7,1.7c-3.4,0-5.2-2.2-5.2-6.6V272h2.9v8.3c0,3,1.1,4,3,4s3-1.4,3-3.8
		V272h2.9v14.7H1020.5z"/>
	<path class="st11" d="M1032.4,287c-2,0-4.1-0.8-5.6-1.9l1.3-2.2c1.4,1,2.9,1.5,4.3,1.5c1.8,0,2.7-0.6,2.7-1.6
		c0-1.1-1.3-1.7-3.4-2.5c-3.2-1.2-4.3-2.3-4.3-4.6c0-2.6,2.1-4,5-4c1.8,0,3.7,0.7,5,1.6l-1.3,2.2c-1.2-0.8-2.4-1.3-3.8-1.3
		s-2,0.6-2,1.3c0,0.7,0.5,1.3,2.7,2.1c3.3,1.3,5,2.2,5,4.9C1037.9,285.9,1035.2,287,1032.4,287z"/>
	<path class="st11" d="M1048.3,286.3c-0.7,0.4-1.7,0.7-2.8,0.7c-2,0-3.3-1.3-3.3-3.9v-8.5h-2.1V272h2.1v-4.2l2.8-1.5v5.7h3.6v2.6
		h-3.6v8c0,1.4,0.4,1.8,1.5,1.8c0.8,0,1.6-0.3,2.1-0.6L1048.3,286.3z"/>
	<path class="st11" d="M1063.9,280.3h-9.7c0.3,2.8,1.9,4,3.7,4c1.2,0,2.2-0.4,3.2-1.2l1.7,1.8c-1.3,1.2-2.8,1.9-5.1,1.9
		c-3.4,0-6.4-2.8-6.4-7.6c0-5,2.6-7.7,6.4-7.7c4.2,0,6.2,3.4,6.2,7.4C1063.9,279.6,1063.9,280,1063.9,280.3z M1057.6,274.3
		c-1.9,0-3.1,1.3-3.4,3.7h6.8C1060.9,275.9,1059.9,274.3,1057.6,274.3z"/>
	<path class="st11" d="M1075.5,275c-0.6-0.3-1.3-0.5-2.2-0.5c-1.8,0-2.9,1.3-2.9,3.8v8.4h-2.9V272h2.9v1.4c0.7-1,1.9-1.7,3.4-1.7
		c1.2,0,1.9,0.2,2.5,0.6L1075.5,275z"/>
	<path class="st11" d="M998.4,320.3l-7.8-12.3c-0.5-0.7-1.1-1.9-1.5-2.4c0,0.7,0,3.4,0,4.5v10.2h-2.9v-19.6h3l7.4,12
		c0.5,0.8,1.3,2.3,1.6,2.8c0-0.7,0-3.5,0-4.6v-10.1h2.9v19.6h-2.7V320.3z"/>
	<path class="st11" d="M1017.7,313.9h-9.7c0.3,2.8,1.9,4,3.7,4c1.2,0,2.2-0.4,3.2-1.2l1.7,1.8c-1.3,1.2-2.8,1.9-5.1,1.9
		c-3.4,0-6.4-2.8-6.4-7.6c0-5,2.6-7.7,6.4-7.7c4.2,0,6.2,3.4,6.2,7.4C1017.8,313.2,1017.7,313.6,1017.7,313.9z M1011.4,307.9
		c-1.9,0-3.1,1.3-3.4,3.7h6.8C1014.8,309.5,1013.8,307.9,1011.4,307.9z"/>
	<path class="st11" d="M1028.2,319.9c-0.7,0.4-1.7,0.7-2.8,0.7c-2,0-3.3-1.3-3.3-3.9v-8.5h-2.1v-2.6h2.1v-4.2l2.8-1.5v5.7h3.6v2.6
		h-3.6v8c0,1.4,0.4,1.8,1.5,1.8c0.8,0,1.6-0.3,2.1-0.6L1028.2,319.9z"/>
	<path class="st11" d="M1045.4,320.3h-2.5l-2-7.4c-0.3-1.1-0.6-2.4-0.8-3.1c-0.1,0.7-0.4,2-0.8,3.2l-2,7.4h-2.5l-4-14.7h2.9l1.7,7.1
		c0.3,1.1,0.6,2.5,0.7,3.2c0.2-0.7,0.5-2.1,0.8-3.2l2-7.1h2.3l2,7.2c0.3,1.1,0.6,2.5,0.8,3.2c0.2-0.7,0.4-2.1,0.7-3.2l1.7-7.1h2.9
		L1045.4,320.3z"/>
	<path class="st11" d="M1058,320.6c-3.7,0-6.5-3.1-6.5-7.6c0-4.8,2.9-7.7,6.6-7.7c3.8,0,6.6,3,6.6,7.6
		C1064.6,317.7,1061.8,320.6,1058,320.6z M1057.9,308c-2.2,0-3.5,1.9-3.5,4.8c0,3.2,1.5,5,3.7,5s3.6-2.2,3.6-4.9
		C1061.7,309.9,1060.3,308,1057.9,308z"/>
	<path class="st11" d="M1076.1,308.6c-0.6-0.3-1.3-0.5-2.2-0.5c-1.8,0-2.9,1.3-2.9,3.8v8.4h-2.9v-14.7h2.9v1.4
		c0.7-1,1.9-1.7,3.4-1.7c1.2,0,1.9,0.2,2.5,0.6L1076.1,308.6z"/>
	<path class="st11" d="M1088.2,320.3l-3.2-7.3l-2.2,3v4.3h-2.9v-18.9l2.9-1.5v9.3c0,0.9,0,2.4,0,3.1c0.4-0.6,1.1-1.7,1.6-2.4
		l3.1-4.3h3.3l-3.7,4.9l4.4,9.8H1088.2z"/>
</g>
<g>
	<path class="st11" d="M76.2,876c-0.7-1.3-1.8-2.1-3.6-2.1c-2.9,0-4.6,2.6-4.6,6.2c0,3.5,1.7,6.2,4.6,6.2c1.8,0,2.8-0.8,3.8-2.5
		l3.3,2c-1.3,2.8-3.7,4.4-7.3,4.4c-5.1,0-8.6-3.9-8.6-10.1c0-6,3.6-10.1,8.7-10.1c3.7,0,5.9,1.8,7.2,4.3L76.2,876z"/>
	<path class="st11" d="M83.7,889.9v-19.6h13.6v3.8h-9.7v3.4h5.6v3.8h-5.6v4.7h10.1v3.8L83.7,889.9L83.7,889.9z"/>
	<path class="st11" d="M110.1,883h-4.3v6.9h-3.9v-19.6h8.6c3.7,0,6.7,2,6.7,6.2C117.2,881.1,114.2,883,110.1,883z M110.3,874.1h-4.5
		v5h4.6c1.8,0,2.8-0.8,2.8-2.5S112.1,874.1,110.3,874.1z"/>
	<path class="st11" d="M132.9,889.9v-8.2h-8v8.2H121v-19.6h3.9v7.5h8v-7.5h3.9v19.6H132.9z"/>
	<path class="st11" d="M164.4,889.9v-7.2c0-1.1,0.1-3.6,0.1-4.3c-0.3,0.7-0.9,2.1-1.4,3.2l-4,8.7l-4-8.7c-0.5-1.1-1.1-2.5-1.4-3.2
		c0,0.8,0.1,3.2,0.1,4.3v7.2H150v-19.6h3.8l4.1,8.9c0.5,1.1,1.1,2.6,1.3,3.3c0.3-0.7,0.8-2.2,1.3-3.3l3.9-8.9h3.9v19.6H164.4z"/>
	<path class="st11" d="M179.2,889.9h-5.9v-19.6h6.1c5.6,0,9.7,2.6,9.7,9.8C189.2,887,184.3,889.9,179.2,889.9z M179.4,874.1h-2.1v12
		h1.9c4.1,0,6-2.4,6-6C185.2,876.1,183.5,874.1,179.4,874.1z"/>
	<path class="st11" d="M199.6,890.2c-3.3,0-6.1-1.4-7.6-3.6l2.8-2.5c1.4,1.6,3.1,2.2,5,2.2c2.3,0,3.4-0.6,3.4-2.1
		c0-1.3-0.7-1.8-4.4-2.7c-3.6-0.8-6.1-2-6.1-5.9c0-3.6,3.1-5.7,7-5.7c3.1,0,5.3,1.1,7.1,3.1l-2.8,2.7c-1.3-1.3-2.7-2-4.5-2
		c-2.1,0-2.8,0.9-2.8,1.8c0,1.2,0.8,1.6,3.9,2.4c3.1,0.7,6.6,1.8,6.6,6C207.3,887.7,204.9,890.2,199.6,890.2z"/>
	<path class="st11" d="M231.9,889.9l-7.2-10.7c-0.5-0.7-1.1-1.7-1.4-2.2c0,0.7,0.1,3.2,0.1,4.3v8.6h-3.9v-19.6h3.8l6.9,10.4
		c0.5,0.7,1.1,1.7,1.4,2.2c0-0.7-0.1-3.2-0.1-4.3v-8.3h3.9v19.6H231.9z"/>
	<path class="st11" d="M247.9,890.2c-5.3,0-8.5-4.1-8.5-10.1s3.2-10.1,8.5-10.1s8.5,4.1,8.5,10.1
		C256.4,886.1,253.3,890.2,247.9,890.2z M247.9,873.9c-3.2,0-4.5,2.7-4.5,6.2s1.3,6.2,4.5,6.2s4.5-2.7,4.5-6.2
		S251.1,873.9,247.9,873.9z"/>
	<path class="st11" d="M266.3,889.9h-5.9v-19.6h6.1c5.6,0,9.7,2.6,9.7,9.8C276.3,887,271.3,889.9,266.3,889.9z M266.4,874.1h-2.1v12
		h1.9c4.1,0,6-2.4,6-6C272.3,876.1,270.6,874.1,266.4,874.1z"/>
	<path class="st11" d="M280.2,889.9v-19.6h13.6v3.8h-9.7v3.4h5.6v3.8h-5.6v4.7h10.1v3.8L280.2,889.9L280.2,889.9z"/>
</g>
<g>
	<path class="st11" d="M76.2,1137.8c-0.7-1.3-1.8-2.1-3.6-2.1c-2.9,0-4.6,2.6-4.6,6.2c0,3.5,1.7,6.2,4.6,6.2c1.8,0,2.8-0.8,3.8-2.5
		l3.3,2c-1.3,2.8-3.7,4.4-7.3,4.4c-5.1,0-8.6-3.9-8.6-10.1c0-6,3.6-10.1,8.7-10.1c3.7,0,5.9,1.8,7.2,4.3L76.2,1137.8z"/>
	<path class="st11" d="M83.7,1151.7v-19.6h13.6v3.8h-9.7v3.4h5.6v3.8h-5.6v4.7h10.1v3.8L83.7,1151.7L83.7,1151.7z"/>
	<path class="st11" d="M110.1,1144.7h-4.3v6.9h-3.9V1132h8.6c3.7,0,6.7,2,6.7,6.2C117.2,1142.8,114.2,1144.7,110.1,1144.7z
		 M110.3,1135.9h-4.5v5h4.6c1.8,0,2.8-0.8,2.8-2.5S112.1,1135.9,110.3,1135.9z"/>
	<path class="st11" d="M132.9,1151.7v-8.2h-8v8.2H121v-19.6h3.9v7.5h8v-7.5h3.9v19.6H132.9z"/>
	<path class="st11" d="M157.5,1152c-5.3,0-8.5-4.1-8.5-10.1s3.2-10.1,8.5-10.1s8.5,4.1,8.5,10.1C166,1147.8,162.8,1152,157.5,1152z
		 M157.5,1135.7c-3.2,0-4.5,2.7-4.5,6.2s1.3,6.2,4.5,6.2s4.5-2.7,4.5-6.2S160.6,1135.7,157.5,1135.7z"/>
	<path class="st11" d="M176.2,1152c-3.3,0-6.1-1.4-7.6-3.6l2.8-2.5c1.4,1.6,3.1,2.2,5,2.2c2.3,0,3.4-0.6,3.4-2.1
		c0-1.3-0.7-1.8-4.4-2.7c-3.6-0.8-6.1-2-6.1-5.9c0-3.6,3.1-5.7,7-5.7c3.1,0,5.3,1.1,7.1,3.1l-2.8,2.7c-1.3-1.3-2.7-2-4.5-2
		c-2.1,0-2.8,0.9-2.8,1.8c0,1.2,0.8,1.6,3.9,2.4c3.1,0.7,6.6,1.8,6.6,6C183.9,1149.5,181.6,1152,176.2,1152z"/>
	<path class="st11" d="M193.9,1151.7H188v-19.6h6.1c5.6,0,9.7,2.6,9.7,9.8C204,1148.8,199,1151.7,193.9,1151.7z M194.1,1135.9H192
		v12h1.9c4.1,0,6-2.4,6-6C199.9,1137.9,198.2,1135.9,194.1,1135.9z"/>
	<path class="st11" d="M228.4,1151.7l-7.2-10.7c-0.5-0.7-1.1-1.7-1.4-2.2c0,0.7,0.1,3.2,0.1,4.3v8.6H216v-19.6h3.8l6.9,10.4
		c0.5,0.7,1.1,1.7,1.4,2.2c0-0.7-0.1-3.2-0.1-4.3v-8.3h3.9v19.6H228.4z"/>
	<path class="st11" d="M244.4,1152c-5.3,0-8.5-4.1-8.5-10.1s3.2-10.1,8.5-10.1s8.5,4.1,8.5,10.1C252.9,1147.8,249.7,1152,244.4,1152
		z M244.4,1135.7c-3.2,0-4.5,2.7-4.5,6.2s1.3,6.2,4.5,6.2s4.5-2.7,4.5-6.2S247.5,1135.7,244.4,1135.7z"/>
	<path class="st11" d="M262.7,1151.7h-5.9v-19.6h6.1c5.6,0,9.7,2.6,9.7,9.8C272.8,1148.8,267.8,1151.7,262.7,1151.7z M262.9,1135.9
		h-2.1v12h1.9c4.1,0,6-2.4,6-6C268.7,1137.9,267,1135.9,262.9,1135.9z"/>
	<path class="st11" d="M276.7,1151.7v-19.6h13.6v3.8h-9.7v3.4h5.6v3.8h-5.6v4.7h10.1v3.8L276.7,1151.7L276.7,1151.7z"/>
	<path class="st11" d="M314.2,1151.7l-1.8-3c-0.7-1.2-1.8-3.1-2.1-3.8c-0.3,0.7-1.4,2.6-2.1,3.8l-1.8,3h-4.7l6.2-10l-5.9-9.6h4.7
		l1.5,2.5c0.7,1.2,1.8,3.1,2.1,3.8c0.4-0.7,1.4-2.6,2.1-3.8l1.5-2.5h4.7l-6,9.6l6.2,10H314.2z"/>
	<path class="st11" d="M328.5,1152c-2.9,0-5.6-1.1-7.8-3.8l3-2.4c1.6,1.7,3.2,2.3,5.2,2.3c2.6,0,3.8-0.9,3.8-2.5
		c0-1.5-1-2.2-2.9-2.2h-2.3v-3.8h2.1c1.6,0,2.3-0.7,2.3-2c0-1-0.8-2-3.3-2c-1.5,0-2.7,0.5-3.8,1.7l-2.9-2.6c1.9-2,3.8-2.9,6.7-2.9
		c4,0,7.2,1.8,7.2,5.5c0,2.1-1.1,3.4-2.3,4c1.3,0.5,3.1,1.7,3.1,4.3C336.6,1149.8,333.4,1152,328.5,1152z"/>
</g>
<g>
	<path class="st2" d="M566.5,889.2v-8.3c0-3-1.1-4-3-4s-3,1.4-3,3.8v8.6h-2.9v-14.7h2.9v1.4c0.7-1.1,2.2-1.7,3.7-1.7
		c3.4,0,5.2,2.2,5.2,6.6v8.4L566.5,889.2L566.5,889.2z"/>
	<path class="st2" d="M575.1,872.6c-1,0-1.9-0.8-1.9-1.8s0.8-1.9,1.9-1.9c1,0,1.8,0.8,1.8,1.9C577,871.8,576.1,872.6,575.1,872.6z
		 M573.7,889.2v-14.7h2.9v14.7H573.7z"/>
	<path class="st2" d="M590.2,878.7c-1.2-1.2-2.3-1.8-3.6-1.8c-2.1,0-3.4,1.9-3.4,4.9c0,2.9,1.2,5,3.5,5c1.4,0,2.2-0.6,3.3-1.8
		l1.8,1.8c-1.1,1.5-2.6,2.7-5.3,2.7c-3.6,0-6.4-3-6.4-7.6c0-4.9,2.9-7.7,6.4-7.7c2.2,0,3.8,0.9,5.2,2.5L590.2,878.7z"/>
</g>
<g>
	<path class="st2" d="M566.5,1117.2v-8.3c0-3-1.1-4-3-4s-3,1.4-3,3.8v8.6h-2.9v-14.7h2.9v1.4c0.7-1.1,2.2-1.7,3.7-1.7
		c3.4,0,5.2,2.2,5.2,6.6v8.4h-2.9V1117.2z"/>
	<path class="st2" d="M575.1,1100.6c-1,0-1.9-0.8-1.9-1.8s0.8-1.9,1.9-1.9c1,0,1.8,0.8,1.8,1.9
		C577,1099.8,576.1,1100.6,575.1,1100.6z M573.7,1117.2v-14.7h2.9v14.7H573.7z"/>
	<path class="st2" d="M590.2,1106.7c-1.2-1.2-2.3-1.8-3.6-1.8c-2.1,0-3.4,1.9-3.4,4.9c0,2.9,1.2,5,3.5,5c1.4,0,2.2-0.6,3.3-1.8
		l1.8,1.8c-1.1,1.5-2.6,2.7-5.3,2.7c-3.6,0-6.4-3-6.4-7.6c0-4.9,2.9-7.7,6.4-7.7c2.2,0,3.8,0.9,5.2,2.5L590.2,1106.7z"/>
</g>
<g>
	<path class="st2" d="M566.5,1186.2v-8.3c0-3-1.1-4-3-4s-3,1.4-3,3.8v8.6h-2.9v-14.7h2.9v1.4c0.7-1.1,2.2-1.7,3.7-1.7
		c3.4,0,5.2,2.2,5.2,6.6v8.4h-2.9V1186.2z"/>
	<path class="st2" d="M575.1,1169.6c-1,0-1.9-0.8-1.9-1.8s0.8-1.9,1.9-1.9c1,0,1.8,0.8,1.8,1.9
		C577,1168.8,576.1,1169.6,575.1,1169.6z M573.7,1186.2v-14.7h2.9v14.7H573.7z"/>
	<path class="st2" d="M590.2,1175.7c-1.2-1.2-2.3-1.8-3.6-1.8c-2.1,0-3.4,1.9-3.4,4.9c0,2.9,1.2,5,3.5,5c1.4,0,2.2-0.6,3.3-1.8
		l1.8,1.8c-1.1,1.5-2.6,2.7-5.3,2.7c-3.6,0-6.4-3-6.4-7.6c0-4.9,2.9-7.7,6.4-7.7c2.2,0,3.8,0.9,5.2,2.5L590.2,1175.7z"/>
</g>
<path class="st11" d="M118.2,178.5h22.3c0.5,0,0.9-0.4,0.9-0.9s-0.4-0.9-0.9-0.9h-22.3c-0.5,0-0.9,0.4-0.9,0.9
	C117.3,178.1,117.7,178.5,118.2,178.5z M205.6,82.2h-89.3c-3.5,0-6.3,2.8-6.3,6.3v89.3c0,3.5,2.8,6.3,6.3,6.3l0,0h89.3
	c3.5,0,6.3-2.8,6.3-6.3l0,0V88.5C211.9,85.1,209.1,82.2,205.6,82.2L205.6,82.2z M208.8,177.9c0,1.7-1.4,3.2-3.2,3.2l0,0h-89.3
	c-1.7,0-3.2-1.4-3.2-3.2l0,0v-4h95.7V177.9z M208.8,171.2h-95.7v-69.6h95.7V171.2z M208.8,99h-95.7V88.5c0-1.7,1.4-3.2,3.2-3.2h89.3
	c1.7,0,3.2,1.4,3.2,3.2l0,0V99z M185,89.9c-1.4,0-2.5,1.1-2.5,2.5s1.1,2.5,2.5,2.5s2.5-1.1,2.5-2.5l0,0
	C187.5,91.1,186.4,89.9,185,89.9z M201.7,89.9c-1.4,0-2.6,1.1-2.6,2.5s1.1,2.6,2.5,2.6s2.6-1.1,2.6-2.5c0,0,0,0,0-0.1
	C204.2,91,203.1,89.9,201.7,89.9L201.7,89.9z M193.4,89.9c-1.4,0-2.5,1.1-2.5,2.5s1.1,2.5,2.5,2.5s2.5-1.1,2.5-2.5l0,0
	C195.9,91.1,194.8,89.9,193.4,89.9z"/>
<g>
	<g>
		<line class="st12" x1="629.4" y1="1162.7" x2="940.5" y2="1162.7"/>
		<g>
			<polygon class="st13" points="631.8,1170.7 617.9,1162.7 631.8,1154.7 			"/>
		</g>
		<g>
			<polygon class="st13" points="938.1,1170.7 951.9,1162.7 938.1,1154.7 			"/>
		</g>
	</g>
</g>
<g>
	<g>
		<line class="st14" x1="629.4" y1="1190.7" x2="633.4" y2="1190.7"/>
		<line class="st15" x1="641.6" y1="1190.7" x2="932.4" y2="1190.7"/>
		<line class="st14" x1="936.5" y1="1190.7" x2="940.5" y2="1190.7"/>
		<g>
			<polygon class="st13" points="631.8,1198.7 617.9,1190.7 631.8,1182.7 			"/>
		</g>
		<g>
			<polygon class="st13" points="938.1,1198.7 951.9,1190.7 938.1,1182.7 			"/>
		</g>
	</g>
</g>
<rect x="711.8" y="1157.2" class="st2" width="16.1" height="41"/>
<line class="st16" x1="719.9" y1="22.2" x2="719.9" y2="1309.2"/>
</svg>
